G04 #@! TF.GenerationSoftware,KiCad,Pcbnew,(5.99.0-8557-g8988e46ab1)*
G04 #@! TF.CreationDate,2021-02-20T09:48:14-07:00*
G04 #@! TF.ProjectId,BlueSof,426c7565-536f-4662-9e6b-696361645f70,rev?*
G04 #@! TF.SameCoordinates,PX85099e0PY51bada0*
G04 #@! TF.FileFunction,Profile,NP*
%FSLAX46Y46*%
G04 Gerber Fmt 4.6, Leading zero omitted, Abs format (unit mm)*
G04 Created by KiCad (PCBNEW (5.99.0-8557-g8988e46ab1)) date 2021-02-20 09:48:14*
%MOMM*%
%LPD*%
G01*
G04 APERTURE LIST*
G04 #@! TA.AperFunction,Profile*
%ADD10C,0.150000*%
G04 #@! TD*
G04 APERTURE END LIST*
D10*
X-7826996Y44800000D02*
G75*
G03*
X-8237993Y44765985I0J-2500000D01*
G01*
X1918706Y-47773197D02*
X-12717482Y-33226802D01*
X66448000Y33400000D02*
X75698000Y33400000D01*
X77049401Y-40677241D02*
G75*
G03*
X78744774Y-40014552I0J2500000D01*
G01*
X75698000Y39700000D02*
X78187476Y39700000D01*
X-12717482Y-33226802D02*
G75*
G03*
X-14479802Y-32500000I-1762320J-1773198D01*
G01*
X18460842Y44781328D02*
G75*
G03*
X18155867Y44800000I-304975J-2481328D01*
G01*
X79882849Y-38964398D02*
G75*
G03*
X80687476Y-37127087I-1695373J1837311D01*
G01*
X-7826995Y44800000D02*
X18155867Y44800001D01*
X69884216Y-40677241D02*
G75*
G03*
X68634216Y-41012177I-1J-2500000D01*
G01*
X-52037997Y37465985D02*
G75*
G03*
X-54127000Y35000000I410997J-2465985D01*
G01*
X59956468Y39700000D02*
X66448000Y39700000D01*
X35165954Y-48499999D02*
X3681025Y-48499999D01*
X18460842Y44781329D02*
X59651493Y39718671D01*
X68634216Y-41012177D02*
X47568689Y-53174364D01*
X-52037997Y37465985D02*
X-35537997Y37465985D01*
X80687476Y-37127087D02*
X80687476Y37200000D01*
X-54127000Y-30000000D02*
X-54127000Y35000000D01*
X1918706Y-47773197D02*
G75*
G03*
X3681025Y-48499999I1762319J1773198D01*
G01*
X59651493Y39718672D02*
G75*
G03*
X59956468Y39700000I304975J2481328D01*
G01*
X-14479802Y-32500000D02*
X-51627000Y-32500000D01*
X80687476Y37200000D02*
G75*
G03*
X78187476Y39700000I-2500000J0D01*
G01*
X77049402Y-40677241D02*
X69884216Y-40677241D01*
X66448000Y39700000D02*
X66448000Y33400000D01*
X45196025Y-53243048D02*
G75*
G03*
X47568689Y-53174364I1122664J2233747D01*
G01*
X36288619Y-48766253D02*
G75*
G03*
X35165954Y-48499999I-1122665J-2233747D01*
G01*
X45196025Y-53243048D02*
X36288619Y-48766252D01*
X-34894877Y37644119D02*
G75*
G02*
X-35537997Y37465985I-643120J1071867D01*
G01*
X75698000Y33400000D02*
X75698000Y39700000D01*
X79882849Y-38964397D02*
X78744774Y-40014551D01*
X53973000Y12800000D02*
X78473000Y12800000D01*
X78473000Y12800000D02*
X78473000Y-7200000D01*
X78473000Y-7200000D02*
X53973000Y-7200000D01*
X53973000Y-7200000D02*
X53973000Y12800000D01*
X-54127000Y-30000000D02*
G75*
G03*
X-51627000Y-32500000I2500000J0D01*
G01*
X-34894877Y37644119D02*
X-8237993Y44765985D01*
M02*
