G04 #@! TF.GenerationSoftware,KiCad,Pcbnew,(5.99.0-8557-g8988e46ab1)*
G04 #@! TF.CreationDate,2021-02-20T09:48:14-07:00*
G04 #@! TF.ProjectId,BlueSof,426c7565-536f-4662-9e6b-696361645f70,rev?*
G04 #@! TF.SameCoordinates,PX85099e0PY51bada0*
G04 #@! TF.FileFunction,Soldermask,Bot*
G04 #@! TF.FilePolarity,Negative*
%FSLAX46Y46*%
G04 Gerber Fmt 4.6, Leading zero omitted, Abs format (unit mm)*
G04 Created by KiCad (PCBNEW (5.99.0-8557-g8988e46ab1)) date 2021-02-20 09:48:14*
%MOMM*%
%LPD*%
G01*
G04 APERTURE LIST*
G04 Aperture macros list*
%AMRoundRect*
0 Rectangle with rounded corners*
0 $1 Rounding radius*
0 $2 $3 $4 $5 $6 $7 $8 $9 X,Y pos of 4 corners*
0 Add a 4 corners polygon primitive as box body*
4,1,4,$2,$3,$4,$5,$6,$7,$8,$9,$2,$3,0*
0 Add four circle primitives for the rounded corners*
1,1,$1+$1,$2,$3*
1,1,$1+$1,$4,$5*
1,1,$1+$1,$6,$7*
1,1,$1+$1,$8,$9*
0 Add four rect primitives between the rounded corners*
20,1,$1+$1,$2,$3,$4,$5,0*
20,1,$1+$1,$4,$5,$6,$7,0*
20,1,$1+$1,$6,$7,$8,$9,0*
20,1,$1+$1,$8,$9,$2,$3,0*%
%AMRotRect*
0 Rectangle, with rotation*
0 The origin of the aperture is its center*
0 $1 length*
0 $2 width*
0 $3 Rotation angle, in degrees counterclockwise*
0 Add horizontal line*
21,1,$1,$2,0,0,$3*%
G04 Aperture macros list end*
%ADD10C,1.900000*%
%ADD11C,3.400000*%
%ADD12C,2.000000*%
%ADD13R,1.700000X1.700000*%
%ADD14O,1.700000X1.700000*%
%ADD15R,2.000000X2.000000*%
%ADD16R,3.200000X2.000000*%
%ADD17R,0.900000X1.200000*%
%ADD18RotRect,0.900000X1.200000X30.000000*%
%ADD19R,1.200000X0.900000*%
%ADD20RoundRect,0.237500X-0.237500X0.300000X-0.237500X-0.300000X0.237500X-0.300000X0.237500X0.300000X0*%
%ADD21RoundRect,0.237500X0.237500X-0.300000X0.237500X0.300000X-0.237500X0.300000X-0.237500X-0.300000X0*%
%ADD22RoundRect,0.237500X-0.300000X-0.237500X0.300000X-0.237500X0.300000X0.237500X-0.300000X0.237500X0*%
%ADD23R,0.540000X0.800000*%
%ADD24R,0.300000X0.800000*%
%ADD25C,1.000000*%
%ADD26R,0.800000X0.900000*%
%ADD27RoundRect,0.237500X0.250000X0.237500X-0.250000X0.237500X-0.250000X-0.237500X0.250000X-0.237500X0*%
%ADD28RoundRect,0.237500X-0.250000X-0.237500X0.250000X-0.237500X0.250000X0.237500X-0.250000X0.237500X0*%
%ADD29RoundRect,0.237500X0.237500X-0.250000X0.237500X0.250000X-0.237500X0.250000X-0.237500X-0.250000X0*%
%ADD30R,1.700000X0.900000*%
%ADD31RoundRect,0.150000X-0.512500X-0.150000X0.512500X-0.150000X0.512500X0.150000X-0.512500X0.150000X0*%
%ADD32RoundRect,0.150000X0.150000X-0.512500X0.150000X0.512500X-0.150000X0.512500X-0.150000X-0.512500X0*%
%ADD33R,1.050000X1.200000*%
%ADD34RoundRect,0.237500X-0.237500X0.250000X-0.237500X-0.250000X0.237500X-0.250000X0.237500X0.250000X0*%
%ADD35R,1.000000X0.650000*%
%ADD36R,0.650000X1.000000*%
%ADD37R,1.000000X1.000000*%
%ADD38C,4.300000*%
%ADD39R,1.550000X0.600000*%
%ADD40R,1.800000X1.200000*%
%ADD41C,0.900000*%
%ADD42R,1.524000X0.600000*%
%ADD43R,0.700000X1.200000*%
G04 APERTURE END LIST*
D10*
X39873000Y31600000D03*
X50873000Y31600000D03*
D11*
X45373000Y31600000D03*
D12*
X40373000Y27900000D03*
X45373000Y25700000D03*
D10*
X21873000Y34000000D03*
D11*
X27373000Y34000000D03*
D10*
X32873000Y34000000D03*
D12*
X22373000Y30300000D03*
X27373000Y28100000D03*
D10*
X-3127000Y34000000D03*
D11*
X-8627000Y34000000D03*
D10*
X-14127000Y34000000D03*
D12*
X-13627000Y30300000D03*
X-8627000Y28100000D03*
D10*
X-21127000Y29000000D03*
D11*
X-26627000Y29000000D03*
D10*
X-32127000Y29000000D03*
D12*
X-31627000Y25300000D03*
X-26627000Y23100000D03*
D10*
X-50127000Y28000000D03*
D11*
X-44627000Y28000000D03*
D10*
X-39127000Y28000000D03*
D12*
X-49627000Y24300000D03*
X-44627000Y22100000D03*
D11*
X45373000Y14600000D03*
D10*
X39873000Y14600000D03*
X50873000Y14600000D03*
D12*
X40373000Y10900000D03*
X45373000Y8700000D03*
D11*
X27373000Y17000000D03*
D10*
X32873000Y17000000D03*
X21873000Y17000000D03*
D12*
X22373000Y13300000D03*
X27373000Y11100000D03*
D10*
X14873000Y18300000D03*
D11*
X9373000Y18300000D03*
D10*
X3873000Y18300000D03*
D12*
X4373000Y14600000D03*
X9373000Y12400000D03*
D11*
X-8627000Y17000000D03*
D10*
X-14127000Y17000000D03*
X-3127000Y17000000D03*
D12*
X-13627000Y13300000D03*
X-8627000Y11100000D03*
D10*
X-39127000Y11000000D03*
D11*
X-44627000Y11000000D03*
D10*
X-50127000Y11000000D03*
D12*
X-49627000Y7300000D03*
X-44627000Y5100000D03*
D10*
X21873000Y0D03*
X32873000Y0D03*
D11*
X27373000Y0D03*
D12*
X22373000Y-3700000D03*
X27373000Y-5900000D03*
D11*
X9373000Y1300000D03*
D10*
X3873000Y1300000D03*
X14873000Y1300000D03*
D12*
X4373000Y-2400000D03*
X9373000Y-4600000D03*
D10*
X-3127000Y0D03*
X-14127000Y0D03*
D11*
X-8627000Y0D03*
D12*
X-13627000Y-3700000D03*
X-8627000Y-5900000D03*
D10*
X-21127000Y-5000000D03*
D11*
X-26627000Y-5000000D03*
D10*
X-32127000Y-5000000D03*
D12*
X-31627000Y-8700000D03*
X-26627000Y-10900000D03*
D10*
X39873000Y-19400000D03*
X50873000Y-19400000D03*
D11*
X45373000Y-19400000D03*
D12*
X40373000Y-23100000D03*
X45373000Y-25300000D03*
D10*
X3873000Y-15700000D03*
D11*
X9373000Y-15700000D03*
D10*
X14873000Y-15700000D03*
D12*
X4373000Y-19400000D03*
X9373000Y-21600000D03*
D11*
X-8627000Y-17000000D03*
D10*
X-14127000Y-17000000D03*
X-3127000Y-17000000D03*
D12*
X-13627000Y-20700000D03*
X-8627000Y-22900000D03*
D10*
X-21127000Y-22000000D03*
D11*
X-26627000Y-22000000D03*
D10*
X-32127000Y-22000000D03*
D12*
X-31627000Y-25700000D03*
X-26627000Y-27900000D03*
D10*
X-39127000Y-23000000D03*
X-50127000Y-23000000D03*
D11*
X-44627000Y-23000000D03*
D12*
X-49627000Y-26700000D03*
X-44627000Y-28900000D03*
D10*
X39873000Y-2400000D03*
D11*
X45373000Y-2400000D03*
D10*
X50873000Y-2400000D03*
D12*
X40373000Y-6100000D03*
X45373000Y-8300000D03*
D11*
X-26627000Y12000000D03*
D10*
X-32127000Y12000000D03*
X-21127000Y12000000D03*
D12*
X-31627000Y8300000D03*
X-26627000Y6100000D03*
D10*
X-39127000Y-6000000D03*
X-50127000Y-6000000D03*
D11*
X-44627000Y-6000000D03*
D12*
X-49627000Y-9700000D03*
X-44627000Y-11900000D03*
D10*
X3873000Y-37700000D03*
D11*
X9373000Y-37700000D03*
D10*
X14873000Y-37700000D03*
D12*
X4373000Y-41400000D03*
X9373000Y-43600000D03*
D10*
X3873000Y35300000D03*
D11*
X9373000Y35300000D03*
D10*
X14873000Y35300000D03*
D12*
X4373000Y31600000D03*
X9373000Y29400000D03*
D10*
X32873000Y-17000000D03*
X21873000Y-17000000D03*
D11*
X27373000Y-17000000D03*
D12*
X22373000Y-20700000D03*
X27373000Y-22900000D03*
D13*
X36173000Y30900000D03*
D14*
X36173000Y33440000D03*
X36173000Y35980000D03*
X36173000Y38520000D03*
D10*
X57536140Y-36450000D03*
X48009860Y-41950000D03*
D11*
X52773000Y-39200000D03*
D12*
X50292873Y-44904294D03*
X55723000Y-44309550D03*
D15*
X75073000Y-17000000D03*
D12*
X75073000Y-12000000D03*
X75073000Y-14500000D03*
D16*
X67573000Y-20100000D03*
X67573000Y-8900000D03*
D12*
X60573000Y-12000000D03*
X60573000Y-17000000D03*
D10*
X32973000Y-39000000D03*
D11*
X27473000Y-39000000D03*
D10*
X21973000Y-39000000D03*
D12*
X22473000Y-42700000D03*
X27473000Y-44900000D03*
D17*
X25523000Y38700000D03*
X28823000Y38700000D03*
X7723000Y40050000D03*
X11023000Y40050000D03*
X-10277000Y38750000D03*
X-6977000Y38750000D03*
X-28277000Y33750000D03*
X-24977000Y33750000D03*
X-46277000Y32750000D03*
X-42977000Y32750000D03*
X43773000Y19350000D03*
X47073000Y19350000D03*
X25823000Y21800000D03*
X29123000Y21800000D03*
X7723000Y23050000D03*
X11023000Y23050000D03*
X-10227000Y21750000D03*
X-6927000Y21750000D03*
X-28277000Y16750000D03*
X-24977000Y16750000D03*
X-46227000Y15750000D03*
X-42927000Y15750000D03*
X25523000Y4800000D03*
X28823000Y4800000D03*
X7723000Y6050000D03*
X11023000Y6050000D03*
X-10227000Y4750000D03*
X-6927000Y4750000D03*
X-28277000Y-250000D03*
X-24977000Y-250000D03*
X-46227000Y-1250000D03*
X-42927000Y-1250000D03*
X43723000Y-14650000D03*
X47023000Y-14650000D03*
X25723000Y-12300000D03*
X29023000Y-12300000D03*
X7523000Y-11000000D03*
X10823000Y-11000000D03*
X-10227000Y-12250000D03*
X-6927000Y-12250000D03*
X-28227000Y-17250000D03*
X-24927000Y-17250000D03*
X-46277000Y-18250000D03*
X-42977000Y-18250000D03*
X43723000Y2350000D03*
X47023000Y2350000D03*
X25723000Y-34200000D03*
X29023000Y-34200000D03*
D18*
X48916301Y-35975000D03*
X51774185Y-34325000D03*
D19*
X56873000Y-19649999D03*
X56873000Y-16349999D03*
D17*
X43723000Y36350000D03*
X47023000Y36350000D03*
X7723000Y-32900000D03*
X11023000Y-32900000D03*
D20*
X67073000Y21562500D03*
X67073000Y19837500D03*
D21*
X61273000Y17475000D03*
X61273000Y19200000D03*
X69273000Y15937500D03*
X69273000Y17662500D03*
D22*
X72048000Y14000000D03*
X73773000Y14000000D03*
D23*
X74273000Y33025000D03*
X67873000Y33025000D03*
X68673000Y33025000D03*
X73473000Y33025000D03*
D24*
X69823000Y33025000D03*
X70823000Y33025000D03*
X71323000Y33025000D03*
X72323000Y33025000D03*
X72823000Y33025000D03*
X71823000Y33025000D03*
X70323000Y33025000D03*
X69315000Y33025000D03*
D25*
X65497700Y37319900D03*
X76648300Y37332600D03*
X65497400Y34306000D03*
X76648300Y33789300D03*
X76648000Y33544000D03*
X65498000Y38539100D03*
X76648300Y37967600D03*
X65497400Y34043300D03*
X76648000Y34306000D03*
X65497700Y38259700D03*
X65497700Y33789300D03*
X76648600Y38551800D03*
X65497400Y33544000D03*
X76648300Y38272400D03*
X76648000Y34043300D03*
X76648300Y37624700D03*
X65497700Y37954900D03*
X65497700Y37612000D03*
D26*
X73823000Y15500000D03*
X71923000Y15500000D03*
X72873000Y17500000D03*
D27*
X66660500Y14300000D03*
X64835500Y14300000D03*
D28*
X50635500Y8200000D03*
X52460500Y8200000D03*
D27*
X52460500Y6600000D03*
X50635500Y6600000D03*
X66673000Y31900000D03*
X64848000Y31900000D03*
D28*
X75560500Y31900000D03*
X77385500Y31900000D03*
D29*
X75448000Y15587500D03*
X75448000Y17412500D03*
D30*
X78348000Y19900000D03*
X78348000Y16500000D03*
D31*
X64610500Y15850000D03*
X64610500Y16800000D03*
X64610500Y17750000D03*
X66885500Y17750000D03*
X66885500Y15850000D03*
D32*
X65423000Y19700000D03*
X64473000Y19700000D03*
X63523000Y19700000D03*
X63523000Y21975000D03*
X65423000Y21975000D03*
D33*
X57448000Y19100000D03*
X59098000Y19100000D03*
D22*
X54110500Y19200000D03*
X55835500Y19200000D03*
D34*
X78873000Y34212500D03*
X78873000Y32387500D03*
D35*
X60331045Y34430000D03*
X60331045Y33160000D03*
X60331045Y31890000D03*
X60331045Y30620000D03*
X60331045Y29350000D03*
X60331045Y28080000D03*
X60331045Y26810000D03*
X60331045Y25540000D03*
X60331045Y24270000D03*
X60331045Y23000000D03*
D36*
X58682045Y20781000D03*
X57412045Y20781000D03*
X56142045Y20781000D03*
X54872045Y20781000D03*
X53602045Y20781000D03*
X52332045Y20781000D03*
X51062045Y20781000D03*
X49792045Y20781000D03*
D35*
X48093045Y23000000D03*
X48093045Y24270000D03*
X50171045Y25032000D03*
X48093045Y25540000D03*
X50171045Y26302000D03*
X48093045Y26810000D03*
X48093045Y28080000D03*
X48093045Y29350000D03*
X48093045Y30620000D03*
X48093045Y31890000D03*
X48093045Y33160000D03*
X48093045Y34430000D03*
D37*
X71598000Y19500000D03*
X74098000Y19500000D03*
D34*
X62848000Y34212500D03*
X62848000Y32387500D03*
D38*
X-35627000Y20175000D03*
D39*
X59323000Y15300000D03*
X59323000Y16300000D03*
D40*
X55448000Y14000000D03*
X55448000Y17600000D03*
D38*
X70648000Y26400000D03*
X36473000Y24275000D03*
X36373000Y-9725000D03*
X56148000Y-25400000D03*
X-35627000Y-14025000D03*
D41*
X78498000Y24300000D03*
X78498000Y27300000D03*
D42*
X76248000Y28050000D03*
X76248000Y25050000D03*
X76248000Y23550000D03*
D43*
X79648000Y29400000D03*
X79648000Y22200000D03*
X77348000Y22200000D03*
X77348000Y29400000D03*
M02*
