G04 #@! TF.GenerationSoftware,KiCad,Pcbnew,(5.99.0-8557-g8988e46ab1)*
G04 #@! TF.CreationDate,2021-02-21T06:36:03-07:00*
G04 #@! TF.ProjectId,BottomCover,426f7474-6f6d-4436-9f76-65722e6b6963,rev?*
G04 #@! TF.SameCoordinates,PX85099e0PY51bada0*
G04 #@! TF.FileFunction,Legend,Bot*
G04 #@! TF.FilePolarity,Positive*
%FSLAX46Y46*%
G04 Gerber Fmt 4.6, Leading zero omitted, Abs format (unit mm)*
G04 Created by KiCad (PCBNEW (5.99.0-8557-g8988e46ab1)) date 2021-02-21 06:36:03*
%MOMM*%
%LPD*%
G01*
G04 APERTURE LIST*
%ADD10C,0.150000*%
G04 APERTURE END LIST*
D10*
X37134904Y-7427380D02*
X37134904Y-6427380D01*
X37134904Y-6903571D02*
X36563476Y-6903571D01*
X36563476Y-7427380D02*
X36563476Y-6427380D01*
X35563476Y-7427380D02*
X36134904Y-7427380D01*
X35849190Y-7427380D02*
X35849190Y-6427380D01*
X35944428Y-6570238D01*
X36039666Y-6665476D01*
X36134904Y-6713095D01*
X-34865096Y22472620D02*
X-34865096Y23472620D01*
X-34865096Y22996429D02*
X-35436524Y22996429D01*
X-35436524Y22472620D02*
X-35436524Y23472620D01*
X-36341286Y23472620D02*
X-36150810Y23472620D01*
X-36055572Y23425000D01*
X-36007953Y23377381D01*
X-35912715Y23234524D01*
X-35865096Y23044048D01*
X-35865096Y22663096D01*
X-35912715Y22567858D01*
X-35960334Y22520239D01*
X-36055572Y22472620D01*
X-36246048Y22472620D01*
X-36341286Y22520239D01*
X-36388905Y22567858D01*
X-36436524Y22663096D01*
X-36436524Y22901191D01*
X-36388905Y22996429D01*
X-36341286Y23044048D01*
X-36246048Y23091667D01*
X-36055572Y23091667D01*
X-35960334Y23044048D01*
X-35912715Y22996429D01*
X-35865096Y22901191D01*
X37234904Y26572620D02*
X37234904Y27572620D01*
X37234904Y27096429D02*
X36663476Y27096429D01*
X36663476Y26572620D02*
X36663476Y27572620D01*
X35711095Y27572620D02*
X36187285Y27572620D01*
X36234904Y27096429D01*
X36187285Y27144048D01*
X36092047Y27191667D01*
X35853952Y27191667D01*
X35758714Y27144048D01*
X35711095Y27096429D01*
X35663476Y27001191D01*
X35663476Y26763096D01*
X35711095Y26667858D01*
X35758714Y26620239D01*
X35853952Y26572620D01*
X36092047Y26572620D01*
X36187285Y26620239D01*
X36234904Y26667858D01*
X71409904Y28697620D02*
X71409904Y29697620D01*
X71409904Y29221429D02*
X70838476Y29221429D01*
X70838476Y28697620D02*
X70838476Y29697620D01*
X69933714Y29364286D02*
X69933714Y28697620D01*
X70171809Y29745239D02*
X70409904Y29030953D01*
X69790857Y29030953D01*
X-34865096Y-11727380D02*
X-34865096Y-10727380D01*
X-34865096Y-11203571D02*
X-35436524Y-11203571D01*
X-35436524Y-11727380D02*
X-35436524Y-10727380D01*
X-35817477Y-10727380D02*
X-36436524Y-10727380D01*
X-36103191Y-11108333D01*
X-36246048Y-11108333D01*
X-36341286Y-11155952D01*
X-36388905Y-11203571D01*
X-36436524Y-11298809D01*
X-36436524Y-11536904D01*
X-36388905Y-11632142D01*
X-36341286Y-11679761D01*
X-36246048Y-11727380D01*
X-35960334Y-11727380D01*
X-35865096Y-11679761D01*
X-35817477Y-11632142D01*
X56909904Y-23102380D02*
X56909904Y-22102380D01*
X56909904Y-22578571D02*
X56338476Y-22578571D01*
X56338476Y-23102380D02*
X56338476Y-22102380D01*
X55909904Y-22197619D02*
X55862285Y-22150000D01*
X55767047Y-22102380D01*
X55528952Y-22102380D01*
X55433714Y-22150000D01*
X55386095Y-22197619D01*
X55338476Y-22292857D01*
X55338476Y-22388095D01*
X55386095Y-22530952D01*
X55957523Y-23102380D01*
X55338476Y-23102380D01*
M02*
