%TF.GenerationSoftware,KiCad,Pcbnew,(5.99.0-8557-g8988e46ab1)*%
%TF.CreationDate,2021-02-27T05:52:11-07:00*%
%TF.ProjectId,SP56_Plate,53503536-5f50-46c6-9174-652e6b696361,rev?*%
%TF.SameCoordinates,Original*%
%TF.FileFunction,Profile,NP*%
%FSLAX46Y46*%
G04 Gerber Fmt 4.6, Leading zero omitted, Abs format (unit mm)*
G04 Created by KiCad (PCBNEW (5.99.0-8557-g8988e46ab1)) date 2021-02-27 05:52:11*
%MOMM*%
%LPD*%
G01*
G04 APERTURE LIST*
%TA.AperFunction,Profile*%
%ADD10C,0.150000*%
%TD*%
G04 APERTURE END LIST*
D10*
X316090619Y-93766253D02*
G75*
G03*
X314967954Y-93499999I-1122665J-2233747D01*
G01*
X348436216Y-86012177D02*
X327370689Y-98174364D01*
X349686216Y-85677241D02*
G75*
G03*
X348436216Y-86012177I-1J-2500000D01*
G01*
X359684849Y-83964398D02*
G75*
G03*
X360489476Y-82127087I-1695373J1837311D01*
G01*
X244907123Y-7355881D02*
G75*
G02*
X244264003Y-7534015I-643120J1071867D01*
G01*
X360489476Y-82127087D02*
X360489476Y-7800000D01*
X324998025Y-98243048D02*
G75*
G03*
X327370689Y-98174364I1122664J2233747D01*
G01*
X298262842Y-218672D02*
G75*
G03*
X297957867Y-200000I-304975J-2481328D01*
G01*
X225675000Y-10000000D02*
X225675000Y-10500000D01*
X281720706Y-92773197D02*
X267084518Y-78226802D01*
X324998025Y-98243048D02*
X316090619Y-93766252D01*
X356851401Y-85677241D02*
G75*
G03*
X358546774Y-85014552I0J2500000D01*
G01*
X360489476Y-7800000D02*
G75*
G03*
X357989476Y-5300000I-2500000J0D01*
G01*
X339453493Y-5281328D02*
G75*
G03*
X339758468Y-5300000I304975J2481328D01*
G01*
X225675000Y-75000000D02*
G75*
G03*
X228175000Y-77500000I2500000J0D01*
G01*
X281720706Y-92773197D02*
G75*
G03*
X283483025Y-93499999I1762319J1773198D01*
G01*
X225675000Y-75000000D02*
X225675000Y-74500000D01*
X339758468Y-5300000D02*
X357989476Y-5300000D01*
X227764003Y-7534015D02*
G75*
G03*
X225675000Y-10000000I410997J-2465985D01*
G01*
X356851402Y-85677241D02*
X349686216Y-85677241D01*
X271975005Y-200000D02*
X297957867Y-199999D01*
X298262842Y-218671D02*
X339453493Y-5281329D01*
X227764003Y-7534015D02*
X244264003Y-7534015D01*
X244907123Y-7355881D02*
X271564007Y-234015D01*
X225675000Y-74500000D02*
X225675000Y-10500000D01*
X314967954Y-93499999D02*
X283483025Y-93499999D01*
X359684849Y-83964397D02*
X358546774Y-85014551D01*
X271975004Y-200000D02*
G75*
G03*
X271564007Y-234015I0J-2500000D01*
G01*
X267084518Y-78226802D02*
G75*
G03*
X265322198Y-77500000I-1762320J-1773198D01*
G01*
X265322198Y-77500000D02*
X228175000Y-77500000D01*
%TO.C,SW2*%
X314175000Y-18000000D02*
X300175000Y-18000000D01*
X300175000Y-4000000D02*
X314175000Y-4000000D01*
X300175000Y-18000000D02*
X300175000Y-4000000D01*
X314175000Y-4000000D02*
X314175000Y-18000000D01*
%TO.C,SW21*%
X296175000Y-67700000D02*
X282175000Y-67700000D01*
X296175000Y-53700000D02*
X296175000Y-67700000D01*
X282175000Y-53700000D02*
X296175000Y-53700000D01*
X282175000Y-67700000D02*
X282175000Y-53700000D01*
%TO.C,SW9*%
X296175000Y-33700000D02*
X282175000Y-33700000D01*
X296175000Y-19700000D02*
X296175000Y-33700000D01*
X282175000Y-19700000D02*
X296175000Y-19700000D01*
X282175000Y-33700000D02*
X282175000Y-19700000D01*
%TO.C,SW1*%
X332175000Y-20400000D02*
X318175000Y-20400000D01*
X318175000Y-20400000D02*
X318175000Y-6400000D01*
X318175000Y-6400000D02*
X332175000Y-6400000D01*
X332175000Y-6400000D02*
X332175000Y-20400000D01*
%TO.C,SW11*%
X246175000Y-40000000D02*
X246175000Y-26000000D01*
X260175000Y-26000000D02*
X260175000Y-40000000D01*
X260175000Y-40000000D02*
X246175000Y-40000000D01*
X246175000Y-26000000D02*
X260175000Y-26000000D01*
%TO.C,SW28*%
X282175000Y-89700000D02*
X282175000Y-75700000D01*
X282175000Y-75700000D02*
X296175000Y-75700000D01*
X296175000Y-75700000D02*
X296175000Y-89700000D01*
X296175000Y-89700000D02*
X282175000Y-89700000D01*
%TO.C,SW26*%
X323012822Y-81637822D02*
X335137178Y-74637822D01*
X330012822Y-93762178D02*
X323012822Y-81637822D01*
X335137178Y-74637822D02*
X342137178Y-86762178D01*
X342137178Y-86762178D02*
X330012822Y-93762178D01*
%TO.C,SW18*%
X242175000Y-58000000D02*
X228175000Y-58000000D01*
X228175000Y-44000000D02*
X242175000Y-44000000D01*
X242175000Y-44000000D02*
X242175000Y-58000000D01*
X228175000Y-58000000D02*
X228175000Y-44000000D01*
%TO.C,SW27*%
X314275000Y-77000000D02*
X314275000Y-91000000D01*
X300275000Y-91000000D02*
X300275000Y-77000000D01*
X314275000Y-91000000D02*
X300275000Y-91000000D01*
X300275000Y-77000000D02*
X314275000Y-77000000D01*
%TO.C,SW19*%
X318175000Y-71400000D02*
X318175000Y-57400000D01*
X332175000Y-57400000D02*
X332175000Y-71400000D01*
X318175000Y-57400000D02*
X332175000Y-57400000D01*
X332175000Y-71400000D02*
X318175000Y-71400000D01*
%TO.C,SW17*%
X260175000Y-57000000D02*
X246175000Y-57000000D01*
X246175000Y-43000000D02*
X260175000Y-43000000D01*
X260175000Y-43000000D02*
X260175000Y-57000000D01*
X246175000Y-57000000D02*
X246175000Y-43000000D01*
%TO.C,SW7*%
X332175000Y-37400000D02*
X318175000Y-37400000D01*
X318175000Y-37400000D02*
X318175000Y-23400000D01*
X318175000Y-23400000D02*
X332175000Y-23400000D01*
X332175000Y-23400000D02*
X332175000Y-37400000D01*
%TO.C,SW15*%
X282175000Y-36700000D02*
X296175000Y-36700000D01*
X296175000Y-50700000D02*
X282175000Y-50700000D01*
X282175000Y-50700000D02*
X282175000Y-36700000D01*
X296175000Y-36700000D02*
X296175000Y-50700000D01*
%TO.C,SW20*%
X300175000Y-69000000D02*
X300175000Y-55000000D01*
X300175000Y-55000000D02*
X314175000Y-55000000D01*
X314175000Y-69000000D02*
X300175000Y-69000000D01*
X314175000Y-55000000D02*
X314175000Y-69000000D01*
%TO.C,SW22*%
X278175000Y-69000000D02*
X264175000Y-69000000D01*
X264175000Y-69000000D02*
X264175000Y-55000000D01*
X264175000Y-55000000D02*
X278175000Y-55000000D01*
X278175000Y-55000000D02*
X278175000Y-69000000D01*
%TO.C,SW16*%
X278175000Y-38000000D02*
X278175000Y-52000000D01*
X264175000Y-52000000D02*
X264175000Y-38000000D01*
X264175000Y-38000000D02*
X278175000Y-38000000D01*
X278175000Y-52000000D02*
X264175000Y-52000000D01*
%TO.C,SW10*%
X278175000Y-21000000D02*
X278175000Y-35000000D01*
X278175000Y-35000000D02*
X264175000Y-35000000D01*
X264175000Y-21000000D02*
X278175000Y-21000000D01*
X264175000Y-35000000D02*
X264175000Y-21000000D01*
%TO.C,SW23*%
X246175000Y-74000000D02*
X246175000Y-60000000D01*
X260175000Y-60000000D02*
X260175000Y-74000000D01*
X260175000Y-74000000D02*
X246175000Y-74000000D01*
X246175000Y-60000000D02*
X260175000Y-60000000D01*
%TO.C,SW5*%
X246175000Y-23000000D02*
X246175000Y-9000000D01*
X246175000Y-9000000D02*
X260175000Y-9000000D01*
X260175000Y-23000000D02*
X246175000Y-23000000D01*
X260175000Y-9000000D02*
X260175000Y-23000000D01*
%TO.C,SW8*%
X314175000Y-35000000D02*
X300175000Y-35000000D01*
X300175000Y-21000000D02*
X314175000Y-21000000D01*
X300175000Y-35000000D02*
X300175000Y-21000000D01*
X314175000Y-21000000D02*
X314175000Y-35000000D01*
%TO.C,SW4*%
X264175000Y-18000000D02*
X264175000Y-4000000D01*
X264175000Y-4000000D02*
X278175000Y-4000000D01*
X278175000Y-4000000D02*
X278175000Y-18000000D01*
X278175000Y-18000000D02*
X264175000Y-18000000D01*
%TO.C,SW13*%
X318175000Y-40400000D02*
X332175000Y-40400000D01*
X332175000Y-54400000D02*
X318175000Y-54400000D01*
X318175000Y-54400000D02*
X318175000Y-40400000D01*
X332175000Y-40400000D02*
X332175000Y-54400000D01*
%TO.C,SW24*%
X228175000Y-75000000D02*
X228175000Y-61000000D01*
X228175000Y-61000000D02*
X242175000Y-61000000D01*
X242175000Y-61000000D02*
X242175000Y-75000000D01*
X242175000Y-75000000D02*
X228175000Y-75000000D01*
%TO.C,SW12*%
X242175000Y-41000000D02*
X228175000Y-41000000D01*
X228175000Y-41000000D02*
X228175000Y-27000000D01*
X242175000Y-27000000D02*
X242175000Y-41000000D01*
X228175000Y-27000000D02*
X242175000Y-27000000D01*
%TO.C,SW3*%
X296175000Y-16700000D02*
X282175000Y-16700000D01*
X282175000Y-2700000D02*
X296175000Y-2700000D01*
X296175000Y-2700000D02*
X296175000Y-16700000D01*
X282175000Y-16700000D02*
X282175000Y-2700000D01*
%TO.C,SW6*%
X228175000Y-10000000D02*
X242175000Y-10000000D01*
X242175000Y-10000000D02*
X242175000Y-24000000D01*
X228175000Y-24000000D02*
X228175000Y-10000000D01*
X242175000Y-24000000D02*
X228175000Y-24000000D01*
%TO.C,SW14*%
X300175000Y-38000000D02*
X314175000Y-38000000D01*
X314175000Y-52000000D02*
X300175000Y-52000000D01*
X314175000Y-38000000D02*
X314175000Y-52000000D01*
X300175000Y-52000000D02*
X300175000Y-38000000D01*
%TO.C,SW25*%
X356175000Y-52500000D02*
X356175000Y-66500000D01*
X339175000Y-52500000D02*
X356175000Y-52500000D01*
X339175000Y-66500000D02*
X339175000Y-52500000D01*
X356175000Y-66500000D02*
X339175000Y-66500000D01*
%TD*%
M02*
