%TF.GenerationSoftware,KiCad,Pcbnew,(5.99.0-8557-g8988e46ab1)*%
%TF.CreationDate,2021-02-27T05:52:11-07:00*%
%TF.ProjectId,SP56_Plate,53503536-5f50-46c6-9174-652e6b696361,rev?*%
%TF.SameCoordinates,Original*%
%TF.FileFunction,Copper,L2,Bot*%
%TF.FilePolarity,Positive*%
%FSLAX46Y46*%
G04 Gerber Fmt 4.6, Leading zero omitted, Abs format (unit mm)*
G04 Created by KiCad (PCBNEW (5.99.0-8557-g8988e46ab1)) date 2021-02-27 05:52:11*
%MOMM*%
%LPD*%
G01*
G04 APERTURE LIST*
G04 APERTURE END LIST*
%TA.AperFunction,NonConductor*%
G36*
X297896660Y-709181D02*
G01*
X297928606Y-713587D01*
X298018195Y-712028D01*
X298028086Y-712245D01*
X298039143Y-712922D01*
X298130662Y-718526D01*
X298140505Y-719517D01*
X298169949Y-723657D01*
X298225986Y-731536D01*
X298230459Y-731525D01*
X298230465Y-731525D01*
X298259484Y-731451D01*
X298262523Y-731443D01*
X298278214Y-732384D01*
X320309391Y-3440191D01*
X320374563Y-3468354D01*
X320414163Y-3527280D01*
X320420019Y-3565766D01*
X320411867Y-5553088D01*
X320410991Y-5766517D01*
X320390710Y-5834555D01*
X320336864Y-5880827D01*
X320284992Y-5892000D01*
X318147378Y-5892000D01*
X318146608Y-5891998D01*
X318146352Y-5891996D01*
X318105378Y-5891746D01*
X318096750Y-5894212D01*
X318096749Y-5894212D01*
X318076987Y-5899859D01*
X318060230Y-5903436D01*
X318039903Y-5906347D01*
X318039900Y-5906348D01*
X318031018Y-5907620D01*
X318022848Y-5911335D01*
X318022844Y-5911336D01*
X318007695Y-5918224D01*
X317990167Y-5924673D01*
X317974158Y-5929248D01*
X317974151Y-5929251D01*
X317965526Y-5931716D01*
X317940555Y-5947472D01*
X317925481Y-5955605D01*
X317898611Y-5967822D01*
X317879197Y-5984550D01*
X317864190Y-5995654D01*
X317842514Y-6009331D01*
X317825828Y-6028225D01*
X317822977Y-6031453D01*
X317810781Y-6043500D01*
X317795223Y-6056905D01*
X317795220Y-6056909D01*
X317788422Y-6062766D01*
X317783542Y-6070295D01*
X317783541Y-6070296D01*
X317774483Y-6084271D01*
X317763193Y-6099145D01*
X317746231Y-6118351D01*
X317733683Y-6145077D01*
X317725367Y-6160048D01*
X317709310Y-6184821D01*
X317706737Y-6193425D01*
X317706736Y-6193427D01*
X317701966Y-6209377D01*
X317695304Y-6226822D01*
X317684416Y-6250013D01*
X317683036Y-6258877D01*
X317683033Y-6258886D01*
X317679873Y-6279180D01*
X317676092Y-6295891D01*
X317673356Y-6305042D01*
X317667635Y-6324174D01*
X317667580Y-6333146D01*
X317667580Y-6333147D01*
X317667434Y-6356998D01*
X317667316Y-6359838D01*
X317667000Y-6361865D01*
X317667000Y-6427622D01*
X317666998Y-6428392D01*
X317666746Y-6469622D01*
X317666984Y-6470454D01*
X317667000Y-6470692D01*
X317667000Y-19536526D01*
X317646998Y-19604647D01*
X317593342Y-19651140D01*
X317523068Y-19661244D01*
X317458488Y-19631750D01*
X317445195Y-19618363D01*
X317415917Y-19584083D01*
X317383057Y-19556018D01*
X317227157Y-19422866D01*
X317227152Y-19422862D01*
X317223392Y-19419651D01*
X317027295Y-19299483D01*
X317011734Y-19289947D01*
X317007514Y-19287361D01*
X317002944Y-19285468D01*
X317002940Y-19285466D01*
X316778172Y-19192364D01*
X316778170Y-19192363D01*
X316773599Y-19190470D01*
X316688894Y-19170134D01*
X316532220Y-19132520D01*
X316532214Y-19132519D01*
X316527407Y-19131365D01*
X316275000Y-19111500D01*
X316022593Y-19131365D01*
X316017786Y-19132519D01*
X316017780Y-19132520D01*
X315861106Y-19170134D01*
X315776401Y-19190470D01*
X315771830Y-19192363D01*
X315771828Y-19192364D01*
X315547060Y-19285466D01*
X315547056Y-19285468D01*
X315542486Y-19287361D01*
X315538266Y-19289947D01*
X315522705Y-19299483D01*
X315326608Y-19419651D01*
X315322848Y-19422862D01*
X315322843Y-19422866D01*
X315166943Y-19556018D01*
X315134083Y-19584083D01*
X315130870Y-19587845D01*
X314972866Y-19772843D01*
X314972862Y-19772848D01*
X314969651Y-19776608D01*
X314837361Y-19992486D01*
X314835468Y-19997056D01*
X314835466Y-19997060D01*
X314754042Y-20193635D01*
X314740470Y-20226401D01*
X314739315Y-20231213D01*
X314689638Y-20438135D01*
X314681365Y-20472593D01*
X314679309Y-20498720D01*
X314654025Y-20565062D01*
X314596887Y-20607202D01*
X314526037Y-20611763D01*
X314470291Y-20583278D01*
X314463382Y-20577177D01*
X314463381Y-20577176D01*
X314456649Y-20571231D01*
X314429923Y-20558683D01*
X314414952Y-20550367D01*
X314390179Y-20534310D01*
X314381575Y-20531737D01*
X314381573Y-20531736D01*
X314365623Y-20526966D01*
X314348178Y-20520304D01*
X314333113Y-20513231D01*
X314333111Y-20513231D01*
X314324987Y-20509416D01*
X314316123Y-20508036D01*
X314316114Y-20508033D01*
X314295820Y-20504873D01*
X314279109Y-20501092D01*
X314259428Y-20495207D01*
X314259425Y-20495207D01*
X314250826Y-20492635D01*
X314241854Y-20492580D01*
X314241853Y-20492580D01*
X314218002Y-20492434D01*
X314215162Y-20492316D01*
X314213135Y-20492000D01*
X314147378Y-20492000D01*
X314146608Y-20491998D01*
X314146052Y-20491995D01*
X314105378Y-20491746D01*
X314104546Y-20491984D01*
X314104308Y-20492000D01*
X300147378Y-20492000D01*
X300146608Y-20491998D01*
X300146352Y-20491996D01*
X300105378Y-20491746D01*
X300096750Y-20494212D01*
X300096749Y-20494212D01*
X300076987Y-20499859D01*
X300060230Y-20503436D01*
X300039903Y-20506347D01*
X300039900Y-20506348D01*
X300031018Y-20507620D01*
X300022848Y-20511335D01*
X300022844Y-20511336D01*
X300007695Y-20518224D01*
X299990167Y-20524673D01*
X299974158Y-20529248D01*
X299974151Y-20529251D01*
X299965526Y-20531716D01*
X299940555Y-20547472D01*
X299925481Y-20555605D01*
X299898611Y-20567822D01*
X299887754Y-20577177D01*
X299879197Y-20584550D01*
X299864190Y-20595654D01*
X299842514Y-20609331D01*
X299836572Y-20616059D01*
X299822977Y-20631453D01*
X299810781Y-20643500D01*
X299795223Y-20656905D01*
X299795220Y-20656909D01*
X299788422Y-20662766D01*
X299783542Y-20670295D01*
X299783541Y-20670296D01*
X299774483Y-20684271D01*
X299763193Y-20699145D01*
X299746231Y-20718351D01*
X299733683Y-20745077D01*
X299725367Y-20760048D01*
X299709310Y-20784821D01*
X299706737Y-20793425D01*
X299706736Y-20793427D01*
X299701966Y-20809377D01*
X299695304Y-20826822D01*
X299692547Y-20832695D01*
X299684416Y-20850013D01*
X299683036Y-20858877D01*
X299683033Y-20858886D01*
X299679873Y-20879180D01*
X299676092Y-20895891D01*
X299670207Y-20915572D01*
X299667635Y-20924174D01*
X299667580Y-20933146D01*
X299667580Y-20933147D01*
X299667434Y-20956998D01*
X299667316Y-20959838D01*
X299667000Y-20961865D01*
X299667000Y-21027622D01*
X299666998Y-21028392D01*
X299666746Y-21069622D01*
X299666984Y-21070454D01*
X299667000Y-21070692D01*
X299667000Y-35027622D01*
X299666998Y-35028392D01*
X299666746Y-35069622D01*
X299669212Y-35078250D01*
X299669212Y-35078251D01*
X299674859Y-35098013D01*
X299678436Y-35114770D01*
X299679303Y-35120820D01*
X299682620Y-35143982D01*
X299686335Y-35152152D01*
X299686336Y-35152156D01*
X299693224Y-35167305D01*
X299699673Y-35184833D01*
X299704248Y-35200842D01*
X299704251Y-35200849D01*
X299706716Y-35209474D01*
X299722472Y-35234445D01*
X299730605Y-35249519D01*
X299742822Y-35276389D01*
X299759550Y-35295803D01*
X299770654Y-35310810D01*
X299784331Y-35332486D01*
X299796344Y-35343095D01*
X299806453Y-35352023D01*
X299818500Y-35364219D01*
X299831905Y-35379777D01*
X299831909Y-35379780D01*
X299837766Y-35386578D01*
X299845295Y-35391458D01*
X299845296Y-35391459D01*
X299859271Y-35400517D01*
X299874145Y-35411807D01*
X299893351Y-35428769D01*
X299920077Y-35441317D01*
X299935048Y-35449633D01*
X299959821Y-35465690D01*
X299968425Y-35468263D01*
X299968427Y-35468264D01*
X299984377Y-35473034D01*
X300001822Y-35479696D01*
X300016887Y-35486769D01*
X300016889Y-35486769D01*
X300025013Y-35490584D01*
X300033877Y-35491964D01*
X300033886Y-35491967D01*
X300054180Y-35495127D01*
X300070891Y-35498908D01*
X300090572Y-35504793D01*
X300090575Y-35504793D01*
X300099174Y-35507365D01*
X300108146Y-35507420D01*
X300108147Y-35507420D01*
X300131998Y-35507566D01*
X300134838Y-35507684D01*
X300136865Y-35508000D01*
X300202622Y-35508000D01*
X300203392Y-35508002D01*
X300244622Y-35508254D01*
X300245454Y-35508016D01*
X300245692Y-35508000D01*
X314202622Y-35508000D01*
X314203392Y-35508002D01*
X314244622Y-35508254D01*
X314253251Y-35505788D01*
X314273013Y-35500141D01*
X314289770Y-35496564D01*
X314310097Y-35493653D01*
X314310100Y-35493652D01*
X314318982Y-35492380D01*
X314327152Y-35488665D01*
X314327156Y-35488664D01*
X314342305Y-35481776D01*
X314359833Y-35475327D01*
X314375842Y-35470752D01*
X314375849Y-35470749D01*
X314384474Y-35468284D01*
X314409445Y-35452528D01*
X314424519Y-35444395D01*
X314451389Y-35432178D01*
X314470803Y-35415450D01*
X314485810Y-35404346D01*
X314507486Y-35390669D01*
X314527026Y-35368544D01*
X314539219Y-35356500D01*
X314554777Y-35343095D01*
X314554780Y-35343091D01*
X314561578Y-35337234D01*
X314575517Y-35315729D01*
X314586807Y-35300855D01*
X314597826Y-35288378D01*
X314603769Y-35281649D01*
X314616317Y-35254923D01*
X314624633Y-35239952D01*
X314640690Y-35215179D01*
X314643264Y-35206573D01*
X314648034Y-35190623D01*
X314654696Y-35173178D01*
X314661769Y-35158113D01*
X314661769Y-35158111D01*
X314665584Y-35149987D01*
X314666964Y-35141123D01*
X314666967Y-35141114D01*
X314670127Y-35120820D01*
X314673908Y-35104109D01*
X314679793Y-35084428D01*
X314679793Y-35084425D01*
X314682365Y-35075826D01*
X314682566Y-35043002D01*
X314682684Y-35040162D01*
X314683000Y-35038135D01*
X314683000Y-34972378D01*
X314683002Y-34971608D01*
X314683239Y-34932817D01*
X314683254Y-34930378D01*
X314683016Y-34929546D01*
X314683000Y-34929308D01*
X314683000Y-23469622D01*
X317666746Y-23469622D01*
X317666984Y-23470454D01*
X317667000Y-23470692D01*
X317667000Y-37427622D01*
X317666998Y-37428392D01*
X317666746Y-37469622D01*
X317669212Y-37478250D01*
X317669212Y-37478251D01*
X317674859Y-37498013D01*
X317678436Y-37514770D01*
X317681235Y-37534310D01*
X317682620Y-37543982D01*
X317686335Y-37552152D01*
X317686336Y-37552156D01*
X317693224Y-37567305D01*
X317699673Y-37584833D01*
X317704248Y-37600842D01*
X317704251Y-37600849D01*
X317706716Y-37609474D01*
X317722472Y-37634445D01*
X317730605Y-37649519D01*
X317742822Y-37676389D01*
X317753848Y-37689185D01*
X317759550Y-37695803D01*
X317770654Y-37710810D01*
X317784331Y-37732486D01*
X317796344Y-37743095D01*
X317806453Y-37752023D01*
X317818500Y-37764219D01*
X317831905Y-37779777D01*
X317831909Y-37779780D01*
X317837766Y-37786578D01*
X317845295Y-37791458D01*
X317845296Y-37791459D01*
X317859271Y-37800517D01*
X317874145Y-37811807D01*
X317893351Y-37828769D01*
X317920077Y-37841317D01*
X317935048Y-37849633D01*
X317959821Y-37865690D01*
X317968425Y-37868263D01*
X317968427Y-37868264D01*
X317984377Y-37873034D01*
X318001822Y-37879696D01*
X318016887Y-37886769D01*
X318016889Y-37886769D01*
X318025013Y-37890584D01*
X318033877Y-37891964D01*
X318033886Y-37891967D01*
X318054180Y-37895127D01*
X318070891Y-37898908D01*
X318090572Y-37904793D01*
X318090575Y-37904793D01*
X318099174Y-37907365D01*
X318108146Y-37907420D01*
X318108147Y-37907420D01*
X318131998Y-37907566D01*
X318134838Y-37907684D01*
X318136865Y-37908000D01*
X318202622Y-37908000D01*
X318203392Y-37908002D01*
X318244622Y-37908254D01*
X318245454Y-37908016D01*
X318245692Y-37908000D01*
X332202622Y-37908000D01*
X332203392Y-37908002D01*
X332244622Y-37908254D01*
X332253251Y-37905788D01*
X332273013Y-37900141D01*
X332289770Y-37896564D01*
X332310097Y-37893653D01*
X332310100Y-37893652D01*
X332318982Y-37892380D01*
X332327152Y-37888665D01*
X332327156Y-37888664D01*
X332342305Y-37881776D01*
X332359833Y-37875327D01*
X332375842Y-37870752D01*
X332375849Y-37870749D01*
X332384474Y-37868284D01*
X332409445Y-37852528D01*
X332424519Y-37844395D01*
X332451389Y-37832178D01*
X332470803Y-37815450D01*
X332485810Y-37804346D01*
X332507486Y-37790669D01*
X332527026Y-37768544D01*
X332539219Y-37756500D01*
X332554777Y-37743095D01*
X332554780Y-37743091D01*
X332561578Y-37737234D01*
X332573818Y-37718351D01*
X332575517Y-37715729D01*
X332586807Y-37700855D01*
X332594515Y-37692127D01*
X332603769Y-37681649D01*
X332616317Y-37654923D01*
X332624633Y-37639952D01*
X332640690Y-37615179D01*
X332643871Y-37604542D01*
X332648034Y-37590623D01*
X332654696Y-37573178D01*
X332661769Y-37558113D01*
X332661769Y-37558111D01*
X332665584Y-37549987D01*
X332666964Y-37541123D01*
X332666967Y-37541114D01*
X332670127Y-37520820D01*
X332673908Y-37504109D01*
X332679793Y-37484428D01*
X332679793Y-37484425D01*
X332682365Y-37475826D01*
X332682566Y-37443002D01*
X332682684Y-37440162D01*
X332683000Y-37438135D01*
X332683000Y-37372378D01*
X332683002Y-37371608D01*
X332683239Y-37332817D01*
X332683254Y-37330378D01*
X332683016Y-37329546D01*
X332683000Y-37329308D01*
X332683000Y-23372378D01*
X332683002Y-23371608D01*
X332683060Y-23362107D01*
X332683254Y-23330378D01*
X332680788Y-23321749D01*
X332675141Y-23301987D01*
X332671564Y-23285230D01*
X332668653Y-23264903D01*
X332668652Y-23264900D01*
X332667380Y-23256018D01*
X332663665Y-23247848D01*
X332663664Y-23247844D01*
X332656776Y-23232695D01*
X332650327Y-23215167D01*
X332645752Y-23199158D01*
X332645749Y-23199151D01*
X332643284Y-23190526D01*
X332627528Y-23165555D01*
X332619395Y-23150481D01*
X332607178Y-23123611D01*
X332590450Y-23104197D01*
X332579346Y-23089190D01*
X332565669Y-23067514D01*
X332543544Y-23047974D01*
X332531500Y-23035781D01*
X332518095Y-23020223D01*
X332518091Y-23020220D01*
X332512234Y-23013422D01*
X332490729Y-22999483D01*
X332475855Y-22988193D01*
X332463378Y-22977174D01*
X332456649Y-22971231D01*
X332429923Y-22958683D01*
X332414952Y-22950367D01*
X332390179Y-22934310D01*
X332381575Y-22931737D01*
X332381573Y-22931736D01*
X332365623Y-22926966D01*
X332348178Y-22920304D01*
X332333113Y-22913231D01*
X332333111Y-22913231D01*
X332324987Y-22909416D01*
X332316123Y-22908036D01*
X332316114Y-22908033D01*
X332295820Y-22904873D01*
X332279109Y-22901092D01*
X332259428Y-22895207D01*
X332259425Y-22895207D01*
X332250826Y-22892635D01*
X332241854Y-22892580D01*
X332241853Y-22892580D01*
X332218002Y-22892434D01*
X332215162Y-22892316D01*
X332213135Y-22892000D01*
X332147378Y-22892000D01*
X332146608Y-22891998D01*
X332146052Y-22891995D01*
X332105378Y-22891746D01*
X332104546Y-22891984D01*
X332104308Y-22892000D01*
X318147378Y-22892000D01*
X318146608Y-22891998D01*
X318146352Y-22891996D01*
X318105378Y-22891746D01*
X318096750Y-22894212D01*
X318096749Y-22894212D01*
X318076987Y-22899859D01*
X318060230Y-22903436D01*
X318039903Y-22906347D01*
X318039900Y-22906348D01*
X318031018Y-22907620D01*
X318022848Y-22911335D01*
X318022844Y-22911336D01*
X318007695Y-22918224D01*
X317990167Y-22924673D01*
X317974158Y-22929248D01*
X317974151Y-22929251D01*
X317965526Y-22931716D01*
X317940555Y-22947472D01*
X317925481Y-22955605D01*
X317898611Y-22967822D01*
X317879197Y-22984550D01*
X317864190Y-22995654D01*
X317842514Y-23009331D01*
X317836572Y-23016059D01*
X317822977Y-23031453D01*
X317810781Y-23043500D01*
X317795223Y-23056905D01*
X317795220Y-23056909D01*
X317788422Y-23062766D01*
X317783542Y-23070295D01*
X317783541Y-23070296D01*
X317774483Y-23084271D01*
X317763193Y-23099145D01*
X317746231Y-23118351D01*
X317733683Y-23145077D01*
X317725367Y-23160048D01*
X317709310Y-23184821D01*
X317706737Y-23193425D01*
X317706736Y-23193427D01*
X317701966Y-23209377D01*
X317695304Y-23226822D01*
X317689144Y-23239943D01*
X317684416Y-23250013D01*
X317683036Y-23258877D01*
X317683033Y-23258886D01*
X317679873Y-23279180D01*
X317676092Y-23295891D01*
X317670207Y-23315572D01*
X317667635Y-23324174D01*
X317667580Y-23333146D01*
X317667580Y-23333147D01*
X317667434Y-23356998D01*
X317667316Y-23359838D01*
X317667000Y-23361865D01*
X317667000Y-23427622D01*
X317666998Y-23428392D01*
X317666746Y-23469622D01*
X314683000Y-23469622D01*
X314683000Y-21652383D01*
X314703002Y-21584262D01*
X314756658Y-21537769D01*
X314826932Y-21527665D01*
X314891512Y-21557159D01*
X314916433Y-21586548D01*
X314969651Y-21673392D01*
X314972862Y-21677152D01*
X314972866Y-21677157D01*
X315118178Y-21847295D01*
X315134083Y-21865917D01*
X315137845Y-21869130D01*
X315322843Y-22027134D01*
X315322848Y-22027138D01*
X315326608Y-22030349D01*
X315542486Y-22162639D01*
X315547056Y-22164532D01*
X315547060Y-22164534D01*
X315771828Y-22257636D01*
X315776401Y-22259530D01*
X315861106Y-22279866D01*
X316017780Y-22317480D01*
X316017786Y-22317481D01*
X316022593Y-22318635D01*
X316275000Y-22338500D01*
X316527407Y-22318635D01*
X316532214Y-22317481D01*
X316532220Y-22317480D01*
X316688894Y-22279866D01*
X316773599Y-22259530D01*
X316778172Y-22257636D01*
X317002940Y-22164534D01*
X317002944Y-22164532D01*
X317007514Y-22162639D01*
X317223392Y-22030349D01*
X317227152Y-22027138D01*
X317227157Y-22027134D01*
X317412155Y-21869130D01*
X317415917Y-21865917D01*
X317431822Y-21847295D01*
X317577134Y-21677157D01*
X317577138Y-21677152D01*
X317580349Y-21673392D01*
X317712639Y-21457514D01*
X317809530Y-21223599D01*
X317837874Y-21105537D01*
X317867777Y-20980982D01*
X317903129Y-20919413D01*
X317966156Y-20886730D01*
X318023119Y-20889695D01*
X318025013Y-20890584D01*
X318033885Y-20891966D01*
X318033890Y-20891967D01*
X318054180Y-20895127D01*
X318070891Y-20898908D01*
X318090572Y-20904793D01*
X318090575Y-20904793D01*
X318099174Y-20907365D01*
X318108146Y-20907420D01*
X318108147Y-20907420D01*
X318131998Y-20907566D01*
X318134838Y-20907684D01*
X318136865Y-20908000D01*
X318202622Y-20908000D01*
X318203392Y-20908002D01*
X318244622Y-20908254D01*
X318245454Y-20908016D01*
X318245692Y-20908000D01*
X332202622Y-20908000D01*
X332203392Y-20908002D01*
X332244622Y-20908254D01*
X332253251Y-20905788D01*
X332273013Y-20900141D01*
X332289770Y-20896564D01*
X332310097Y-20893653D01*
X332310100Y-20893652D01*
X332318982Y-20892380D01*
X332327152Y-20888665D01*
X332327156Y-20888664D01*
X332342305Y-20881776D01*
X332359833Y-20875327D01*
X332375842Y-20870752D01*
X332375849Y-20870749D01*
X332384474Y-20868284D01*
X332409445Y-20852528D01*
X332424519Y-20844395D01*
X332451389Y-20832178D01*
X332470803Y-20815450D01*
X332485810Y-20804346D01*
X332507486Y-20790669D01*
X332527026Y-20768544D01*
X332539219Y-20756500D01*
X332554777Y-20743095D01*
X332554780Y-20743091D01*
X332561578Y-20737234D01*
X332573818Y-20718351D01*
X332575517Y-20715729D01*
X332586807Y-20700855D01*
X332594515Y-20692127D01*
X332603769Y-20681649D01*
X332616317Y-20654923D01*
X332624633Y-20639952D01*
X332640690Y-20615179D01*
X332648023Y-20590659D01*
X332648034Y-20590623D01*
X332654696Y-20573178D01*
X332661769Y-20558113D01*
X332661769Y-20558111D01*
X332665584Y-20549987D01*
X332666964Y-20541123D01*
X332666967Y-20541114D01*
X332670127Y-20520820D01*
X332673908Y-20504109D01*
X332679793Y-20484428D01*
X332679793Y-20484425D01*
X332682365Y-20475826D01*
X332682566Y-20443002D01*
X332682684Y-20440162D01*
X332683000Y-20438135D01*
X332683000Y-20372378D01*
X332683002Y-20371608D01*
X332683239Y-20332817D01*
X332683254Y-20330378D01*
X332683016Y-20329546D01*
X332683000Y-20329308D01*
X332683000Y-18600000D01*
X348836500Y-18600000D01*
X348856365Y-18852407D01*
X348915470Y-19098599D01*
X348917363Y-19103170D01*
X348917364Y-19103172D01*
X349004453Y-19313422D01*
X349012361Y-19332514D01*
X349144651Y-19548392D01*
X349147862Y-19552152D01*
X349147866Y-19552157D01*
X349249887Y-19671608D01*
X349309083Y-19740917D01*
X349312845Y-19744130D01*
X349497843Y-19902134D01*
X349497848Y-19902138D01*
X349501608Y-19905349D01*
X349717486Y-20037639D01*
X349722056Y-20039532D01*
X349722060Y-20039534D01*
X349946828Y-20132636D01*
X349951401Y-20134530D01*
X350036106Y-20154866D01*
X350192780Y-20192480D01*
X350192786Y-20192481D01*
X350197593Y-20193635D01*
X350450000Y-20213500D01*
X350702407Y-20193635D01*
X350707214Y-20192481D01*
X350707220Y-20192480D01*
X350863894Y-20154866D01*
X350948599Y-20134530D01*
X350953172Y-20132636D01*
X351177940Y-20039534D01*
X351177944Y-20039532D01*
X351182514Y-20037639D01*
X351398392Y-19905349D01*
X351402152Y-19902138D01*
X351402157Y-19902134D01*
X351587155Y-19744130D01*
X351590917Y-19740917D01*
X351650113Y-19671608D01*
X351752134Y-19552157D01*
X351752138Y-19552152D01*
X351755349Y-19548392D01*
X351887639Y-19332514D01*
X351895548Y-19313422D01*
X351982636Y-19103172D01*
X351982637Y-19103170D01*
X351984530Y-19098599D01*
X352043635Y-18852407D01*
X352063500Y-18600000D01*
X352043635Y-18347593D01*
X352041149Y-18337234D01*
X351994064Y-18141114D01*
X351984530Y-18101401D01*
X351974941Y-18078251D01*
X351889534Y-17872060D01*
X351889532Y-17872056D01*
X351887639Y-17867486D01*
X351755349Y-17651608D01*
X351752138Y-17647848D01*
X351752134Y-17647843D01*
X351594130Y-17462845D01*
X351590917Y-17459083D01*
X351572295Y-17443178D01*
X351402157Y-17297866D01*
X351402152Y-17297862D01*
X351398392Y-17294651D01*
X351182514Y-17162361D01*
X351177944Y-17160468D01*
X351177940Y-17160466D01*
X350953172Y-17067364D01*
X350953170Y-17067363D01*
X350948599Y-17065470D01*
X350811210Y-17032486D01*
X350707220Y-17007520D01*
X350707214Y-17007519D01*
X350702407Y-17006365D01*
X350450000Y-16986500D01*
X350197593Y-17006365D01*
X350192786Y-17007519D01*
X350192780Y-17007520D01*
X350088790Y-17032486D01*
X349951401Y-17065470D01*
X349946830Y-17067363D01*
X349946828Y-17067364D01*
X349722060Y-17160466D01*
X349722056Y-17160468D01*
X349717486Y-17162361D01*
X349501608Y-17294651D01*
X349497848Y-17297862D01*
X349497843Y-17297866D01*
X349327705Y-17443178D01*
X349309083Y-17459083D01*
X349305870Y-17462845D01*
X349147866Y-17647843D01*
X349147862Y-17647848D01*
X349144651Y-17651608D01*
X349012361Y-17867486D01*
X349010468Y-17872056D01*
X349010466Y-17872060D01*
X348925059Y-18078251D01*
X348915470Y-18101401D01*
X348905936Y-18141114D01*
X348858852Y-18337234D01*
X348856365Y-18347593D01*
X348836500Y-18600000D01*
X332683000Y-18600000D01*
X332683000Y-14645430D01*
X332703002Y-14577309D01*
X332756658Y-14530816D01*
X332808795Y-14519430D01*
X344875000Y-14500000D01*
X344875000Y-5934000D01*
X344895002Y-5865879D01*
X344948658Y-5819386D01*
X345001000Y-5808000D01*
X357906968Y-5808000D01*
X357928523Y-5809857D01*
X357942334Y-5812255D01*
X357947201Y-5812340D01*
X357950201Y-5812392D01*
X358069442Y-5814474D01*
X358075418Y-5814723D01*
X358141965Y-5819084D01*
X358150167Y-5819892D01*
X358346757Y-5845774D01*
X358354884Y-5847116D01*
X358391105Y-5854320D01*
X358399202Y-5855931D01*
X358407231Y-5857803D01*
X358598788Y-5909130D01*
X358606670Y-5911521D01*
X358649467Y-5926049D01*
X358657163Y-5928945D01*
X358701878Y-5947467D01*
X358840379Y-6004836D01*
X358847881Y-6008235D01*
X358863747Y-6016059D01*
X358888417Y-6028225D01*
X358895688Y-6032112D01*
X359067406Y-6131253D01*
X359074408Y-6135607D01*
X359111997Y-6160723D01*
X359118697Y-6165525D01*
X359276009Y-6286235D01*
X359282364Y-6291451D01*
X359316366Y-6321271D01*
X359322382Y-6326906D01*
X359462569Y-6467093D01*
X359468206Y-6473111D01*
X359498021Y-6507109D01*
X359503252Y-6513482D01*
X359623964Y-6670797D01*
X359628767Y-6677500D01*
X359653868Y-6715067D01*
X359658221Y-6722068D01*
X359757362Y-6893784D01*
X359761249Y-6901056D01*
X359781240Y-6941594D01*
X359784643Y-6949104D01*
X359860526Y-7132301D01*
X359863430Y-7140017D01*
X359877953Y-7182800D01*
X359880345Y-7190684D01*
X359893851Y-7241087D01*
X359931672Y-7382237D01*
X359933540Y-7390250D01*
X359942365Y-7434617D01*
X359943701Y-7442711D01*
X359955525Y-7532520D01*
X359969584Y-7639316D01*
X359970392Y-7647519D01*
X359974752Y-7714037D01*
X359975001Y-7720027D01*
X359977164Y-7843864D01*
X359977876Y-7848283D01*
X359979873Y-7860682D01*
X359981476Y-7880719D01*
X359981476Y-8100718D01*
X359961474Y-8168839D01*
X359907818Y-8215332D01*
X359837544Y-8225436D01*
X359772964Y-8195942D01*
X359755612Y-8177037D01*
X359755349Y-8176608D01*
X359590917Y-7984083D01*
X359547208Y-7946752D01*
X359402157Y-7822866D01*
X359402152Y-7822862D01*
X359398392Y-7819651D01*
X359182514Y-7687361D01*
X359177944Y-7685468D01*
X359177940Y-7685466D01*
X358953172Y-7592364D01*
X358953170Y-7592363D01*
X358948599Y-7590470D01*
X358863435Y-7570024D01*
X358707220Y-7532520D01*
X358707214Y-7532519D01*
X358702407Y-7531365D01*
X358450000Y-7511500D01*
X358197593Y-7531365D01*
X358192786Y-7532519D01*
X358192780Y-7532520D01*
X358036565Y-7570024D01*
X357951401Y-7590470D01*
X357946830Y-7592363D01*
X357946828Y-7592364D01*
X357722060Y-7685466D01*
X357722056Y-7685468D01*
X357717486Y-7687361D01*
X357501608Y-7819651D01*
X357497848Y-7822862D01*
X357497843Y-7822866D01*
X357352792Y-7946752D01*
X357309083Y-7984083D01*
X357305870Y-7987845D01*
X357147866Y-8172843D01*
X357147862Y-8172848D01*
X357144651Y-8176608D01*
X357012361Y-8392486D01*
X357010468Y-8397056D01*
X357010466Y-8397060D01*
X356920846Y-8613422D01*
X356915470Y-8626401D01*
X356914315Y-8631213D01*
X356859656Y-8858886D01*
X356856365Y-8872593D01*
X356836500Y-9125000D01*
X356856365Y-9377407D01*
X356857519Y-9382214D01*
X356857520Y-9382220D01*
X356895134Y-9538894D01*
X356915470Y-9623599D01*
X356917363Y-9628170D01*
X356917364Y-9628172D01*
X357008356Y-9847844D01*
X357012361Y-9857514D01*
X357144651Y-10073392D01*
X357147862Y-10077152D01*
X357147866Y-10077157D01*
X357209467Y-10149282D01*
X357309083Y-10265917D01*
X357312845Y-10269130D01*
X357497843Y-10427134D01*
X357497848Y-10427138D01*
X357501608Y-10430349D01*
X357717486Y-10562639D01*
X357722056Y-10564532D01*
X357722060Y-10564534D01*
X357946828Y-10657636D01*
X357951401Y-10659530D01*
X358036106Y-10679866D01*
X358192780Y-10717480D01*
X358192786Y-10717481D01*
X358197593Y-10718635D01*
X358450000Y-10738500D01*
X358702407Y-10718635D01*
X358707214Y-10717481D01*
X358707220Y-10717480D01*
X358863894Y-10679866D01*
X358948599Y-10659530D01*
X358953172Y-10657636D01*
X359177940Y-10564534D01*
X359177944Y-10564532D01*
X359182514Y-10562639D01*
X359398392Y-10430349D01*
X359402152Y-10427138D01*
X359402157Y-10427134D01*
X359587155Y-10269130D01*
X359590917Y-10265917D01*
X359755349Y-10073392D01*
X359755615Y-10073619D01*
X359809767Y-10031865D01*
X359880503Y-10025793D01*
X359943293Y-10058927D01*
X359978203Y-10120748D01*
X359981476Y-10149282D01*
X359981476Y-82045337D01*
X359979723Y-82066280D01*
X359976995Y-82082464D01*
X359976206Y-82145314D01*
X359975350Y-82213571D01*
X359975141Y-82219415D01*
X359972946Y-82256599D01*
X359972290Y-82263995D01*
X359965751Y-82319192D01*
X359949385Y-82457320D01*
X359948293Y-82464671D01*
X359943927Y-82489091D01*
X359942405Y-82496360D01*
X359896915Y-82685629D01*
X359894967Y-82692799D01*
X359887755Y-82716546D01*
X359885388Y-82723586D01*
X359857487Y-82799129D01*
X359817932Y-82906221D01*
X359815181Y-82913044D01*
X359805197Y-82935841D01*
X359802045Y-82942499D01*
X359713568Y-83115927D01*
X359710022Y-83122398D01*
X359697417Y-83143877D01*
X359693492Y-83150134D01*
X359585329Y-83311790D01*
X359585253Y-83311904D01*
X359580942Y-83317952D01*
X359565930Y-83337755D01*
X359561269Y-83343541D01*
X359434762Y-83491434D01*
X359429769Y-83496934D01*
X359403880Y-83523816D01*
X359399725Y-83527935D01*
X359310151Y-83612692D01*
X359310145Y-83612698D01*
X359306899Y-83615770D01*
X359294741Y-83631092D01*
X359281495Y-83645362D01*
X358661947Y-84217048D01*
X358262612Y-84585532D01*
X358245777Y-84598611D01*
X358237105Y-84604241D01*
X358237099Y-84604245D01*
X358233015Y-84606897D01*
X358136746Y-84693098D01*
X358132241Y-84696944D01*
X358092229Y-84729508D01*
X358086012Y-84734256D01*
X357926445Y-84848422D01*
X357919951Y-84852769D01*
X357890372Y-84871269D01*
X357883614Y-84875210D01*
X357711133Y-84968727D01*
X357704144Y-84972240D01*
X357672511Y-84986929D01*
X357665315Y-84990003D01*
X357482554Y-85061440D01*
X357475190Y-85064058D01*
X357446428Y-85073287D01*
X357441976Y-85074716D01*
X357434458Y-85076873D01*
X357244303Y-85125108D01*
X357236668Y-85126795D01*
X357202327Y-85133268D01*
X357194598Y-85134477D01*
X357140736Y-85141202D01*
X356999928Y-85158781D01*
X356992163Y-85159507D01*
X356965842Y-85161144D01*
X356940692Y-85162707D01*
X356934760Y-85162936D01*
X356833523Y-85164451D01*
X356808817Y-85164821D01*
X356790735Y-85167687D01*
X356771011Y-85169241D01*
X349764632Y-85169241D01*
X349747425Y-85168061D01*
X349744349Y-85167637D01*
X349715442Y-85163652D01*
X349521030Y-85167048D01*
X349515865Y-85167032D01*
X349493450Y-85166504D01*
X349488615Y-85167141D01*
X349488366Y-85167154D01*
X349483977Y-85167637D01*
X349483157Y-85167710D01*
X349478678Y-85167788D01*
X349474258Y-85168500D01*
X349474257Y-85168500D01*
X349458007Y-85171117D01*
X349454418Y-85171642D01*
X349128771Y-85214514D01*
X349125826Y-85214867D01*
X349111750Y-85216384D01*
X349102118Y-85217422D01*
X349097707Y-85218604D01*
X349096430Y-85218772D01*
X349095423Y-85219054D01*
X349095424Y-85219054D01*
X349082846Y-85222578D01*
X349081463Y-85222957D01*
X348746786Y-85312632D01*
X348743914Y-85313365D01*
X348725518Y-85317833D01*
X348725509Y-85317836D01*
X348720782Y-85318984D01*
X348716568Y-85320730D01*
X348715316Y-85321065D01*
X348714343Y-85321481D01*
X348714340Y-85321482D01*
X348702301Y-85326630D01*
X348701027Y-85327167D01*
X348389941Y-85456022D01*
X348385173Y-85457883D01*
X348364089Y-85465620D01*
X348359833Y-85467979D01*
X348359612Y-85468080D01*
X348355701Y-85470141D01*
X348354965Y-85470509D01*
X348350818Y-85472227D01*
X348346966Y-85474509D01*
X348346955Y-85474515D01*
X348332808Y-85482898D01*
X348329662Y-85484702D01*
X348231449Y-85539141D01*
X348156978Y-85580420D01*
X348135601Y-85596616D01*
X348127826Y-85602507D01*
X348114735Y-85611196D01*
X333115331Y-94271106D01*
X327187780Y-97693379D01*
X327168506Y-97702430D01*
X327154129Y-97707749D01*
X327041089Y-97770806D01*
X327035877Y-97773555D01*
X326990827Y-97795974D01*
X326983781Y-97799213D01*
X326803138Y-97875575D01*
X326795904Y-97878372D01*
X326784127Y-97882513D01*
X326763780Y-97889666D01*
X326756359Y-97892020D01*
X326567756Y-97945493D01*
X326560201Y-97947385D01*
X326526936Y-97954630D01*
X326519275Y-97956052D01*
X326325494Y-97985855D01*
X326317769Y-97986799D01*
X326283870Y-97989885D01*
X326276108Y-97990350D01*
X326080130Y-97996023D01*
X326072353Y-97996008D01*
X326057939Y-97995534D01*
X326038322Y-97994888D01*
X326030550Y-97994391D01*
X325922745Y-97984149D01*
X325835369Y-97975847D01*
X325827657Y-97974873D01*
X325807937Y-97971761D01*
X325794041Y-97969567D01*
X325786390Y-97968115D01*
X325595001Y-97925641D01*
X325587458Y-97923721D01*
X325554692Y-97914291D01*
X325547304Y-97911914D01*
X325362627Y-97846160D01*
X325355399Y-97843333D01*
X325309101Y-97823547D01*
X325303714Y-97821092D01*
X325194218Y-97768071D01*
X325190181Y-97766116D01*
X325172636Y-97760521D01*
X325154346Y-97753062D01*
X316389162Y-93347746D01*
X316373754Y-93338573D01*
X316349826Y-93321912D01*
X316244912Y-93270743D01*
X316194819Y-93246311D01*
X316189241Y-93243417D01*
X316171193Y-93233469D01*
X316166617Y-93231802D01*
X316166478Y-93231739D01*
X316161455Y-93229606D01*
X316161428Y-93229672D01*
X316157280Y-93228003D01*
X316153246Y-93226035D01*
X316148977Y-93224660D01*
X316148969Y-93224657D01*
X316134254Y-93219918D01*
X316129759Y-93218377D01*
X315867353Y-93122803D01*
X315862906Y-93121087D01*
X315841667Y-93112423D01*
X315836927Y-93111299D01*
X315836822Y-93111265D01*
X315832766Y-93110206D01*
X315828887Y-93108793D01*
X315824506Y-93107873D01*
X315824500Y-93107871D01*
X315808347Y-93104478D01*
X315805174Y-93103768D01*
X315527065Y-93037811D01*
X315522424Y-93036617D01*
X315500312Y-93030476D01*
X315495478Y-93029911D01*
X315495357Y-93029887D01*
X315491206Y-93029306D01*
X315487195Y-93028355D01*
X315469839Y-93026778D01*
X315466314Y-93026457D01*
X315463085Y-93026121D01*
X315309779Y-93008191D01*
X315184385Y-92993525D01*
X315178163Y-92992639D01*
X315162667Y-92990036D01*
X315162658Y-92990035D01*
X315157870Y-92989231D01*
X315153011Y-92989173D01*
X315152823Y-92989156D01*
X315147406Y-92988808D01*
X315147403Y-92988878D01*
X315142920Y-92988675D01*
X315138472Y-92988155D01*
X315118473Y-92988671D01*
X315113759Y-92988704D01*
X315032626Y-92987735D01*
X314943645Y-92986672D01*
X314943639Y-92986672D01*
X314939170Y-92986619D01*
X314934739Y-92987200D01*
X314934733Y-92987200D01*
X314906264Y-92990931D01*
X314889893Y-92991999D01*
X283565503Y-92991999D01*
X283543972Y-92990146D01*
X283534863Y-92988566D01*
X283534860Y-92988566D01*
X283530070Y-92987735D01*
X283499098Y-92987200D01*
X283402839Y-92985537D01*
X283396808Y-92985288D01*
X283370206Y-92983552D01*
X283331407Y-92981018D01*
X283323266Y-92980220D01*
X283182465Y-92961757D01*
X283126851Y-92954464D01*
X283118748Y-92953132D01*
X283075140Y-92944493D01*
X283067138Y-92942635D01*
X282875739Y-92891559D01*
X282867879Y-92889185D01*
X282856834Y-92885452D01*
X282825794Y-92874959D01*
X282818114Y-92872081D01*
X282634958Y-92796545D01*
X282627472Y-92793168D01*
X282625878Y-92792385D01*
X282587576Y-92773582D01*
X282580344Y-92769734D01*
X282482337Y-92713418D01*
X282408598Y-92671046D01*
X282401615Y-92666725D01*
X282364583Y-92642105D01*
X282357895Y-92637337D01*
X282200438Y-92517156D01*
X282194074Y-92511962D01*
X282144688Y-92468897D01*
X282140235Y-92464822D01*
X282054044Y-92382070D01*
X282050811Y-92378966D01*
X282036897Y-92368973D01*
X282021577Y-92356002D01*
X281168541Y-91508199D01*
X267498239Y-77921764D01*
X267486864Y-77908792D01*
X267467357Y-77883201D01*
X267327667Y-77749083D01*
X267323988Y-77745402D01*
X267308505Y-77729255D01*
X267304634Y-77726301D01*
X267304440Y-77726127D01*
X267301073Y-77723443D01*
X267300235Y-77722746D01*
X267297003Y-77719643D01*
X267280008Y-77707438D01*
X267277059Y-77705254D01*
X267139158Y-77600000D01*
X273836500Y-77600000D01*
X273856365Y-77852407D01*
X273857519Y-77857214D01*
X273857520Y-77857220D01*
X273882373Y-77960741D01*
X273915470Y-78098599D01*
X273917363Y-78103170D01*
X273917364Y-78103172D01*
X273922802Y-78116299D01*
X274012361Y-78332514D01*
X274144651Y-78548392D01*
X274147862Y-78552152D01*
X274147866Y-78552157D01*
X274206692Y-78621033D01*
X274309083Y-78740917D01*
X274312845Y-78744130D01*
X274497843Y-78902134D01*
X274497848Y-78902138D01*
X274501608Y-78905349D01*
X274717486Y-79037639D01*
X274722056Y-79039532D01*
X274722060Y-79039534D01*
X274946828Y-79132636D01*
X274951401Y-79134530D01*
X275036106Y-79154866D01*
X275192780Y-79192480D01*
X275192786Y-79192481D01*
X275197593Y-79193635D01*
X275450000Y-79213500D01*
X275702407Y-79193635D01*
X275707214Y-79192481D01*
X275707220Y-79192480D01*
X275863894Y-79154866D01*
X275948599Y-79134530D01*
X275953172Y-79132636D01*
X276177940Y-79039534D01*
X276177944Y-79039532D01*
X276182514Y-79037639D01*
X276398392Y-78905349D01*
X276402152Y-78902138D01*
X276402157Y-78902134D01*
X276587155Y-78744130D01*
X276590917Y-78740917D01*
X276693308Y-78621033D01*
X276752134Y-78552157D01*
X276752138Y-78552152D01*
X276755349Y-78548392D01*
X276887639Y-78332514D01*
X276977199Y-78116299D01*
X276982636Y-78103172D01*
X276982637Y-78103170D01*
X276984530Y-78098599D01*
X277017627Y-77960741D01*
X277042480Y-77857220D01*
X277042481Y-77857214D01*
X277043635Y-77852407D01*
X277063500Y-77600000D01*
X277043635Y-77347593D01*
X277034093Y-77307844D01*
X276997224Y-77154275D01*
X276984530Y-77101401D01*
X276971367Y-77069622D01*
X276889534Y-76872060D01*
X276889532Y-76872056D01*
X276887639Y-76867486D01*
X276755349Y-76651608D01*
X276752138Y-76647848D01*
X276752134Y-76647843D01*
X276606822Y-76477705D01*
X276590917Y-76459083D01*
X276444710Y-76334210D01*
X276402157Y-76297866D01*
X276402152Y-76297862D01*
X276398392Y-76294651D01*
X276182514Y-76162361D01*
X276177944Y-76160468D01*
X276177940Y-76160466D01*
X275953172Y-76067364D01*
X275953170Y-76067363D01*
X275948599Y-76065470D01*
X275863894Y-76045134D01*
X275707220Y-76007520D01*
X275707214Y-76007519D01*
X275702407Y-76006365D01*
X275450000Y-75986500D01*
X275197593Y-76006365D01*
X275192786Y-76007519D01*
X275192780Y-76007520D01*
X275036106Y-76045134D01*
X274951401Y-76065470D01*
X274946830Y-76067363D01*
X274946828Y-76067364D01*
X274722060Y-76160466D01*
X274722056Y-76160468D01*
X274717486Y-76162361D01*
X274501608Y-76294651D01*
X274497848Y-76297862D01*
X274497843Y-76297866D01*
X274455290Y-76334210D01*
X274309083Y-76459083D01*
X274293178Y-76477705D01*
X274147866Y-76647843D01*
X274147862Y-76647848D01*
X274144651Y-76651608D01*
X274012361Y-76867486D01*
X274010468Y-76872056D01*
X274010466Y-76872060D01*
X273928633Y-77069622D01*
X273915470Y-77101401D01*
X273902776Y-77154275D01*
X273865908Y-77307844D01*
X273856365Y-77347593D01*
X273836500Y-77600000D01*
X267139158Y-77600000D01*
X267132699Y-77595070D01*
X267017412Y-77507076D01*
X267015045Y-77505224D01*
X267000203Y-77493319D01*
X267000202Y-77493318D01*
X266996409Y-77490276D01*
X266992330Y-77487932D01*
X266991203Y-77487072D01*
X266988246Y-77485419D01*
X266988236Y-77485413D01*
X266978266Y-77479840D01*
X266976969Y-77479105D01*
X266756686Y-77352527D01*
X266678899Y-77307829D01*
X266676351Y-77306324D01*
X266655889Y-77293902D01*
X266651539Y-77292108D01*
X266650312Y-77291403D01*
X266636560Y-77285921D01*
X266635235Y-77285384D01*
X266616953Y-77277844D01*
X266501454Y-77230211D01*
X266317329Y-77154275D01*
X266314540Y-77153085D01*
X266297184Y-77145434D01*
X266292727Y-77143469D01*
X266288194Y-77142259D01*
X266286874Y-77141715D01*
X266283570Y-77140875D01*
X266283549Y-77140869D01*
X266272389Y-77138032D01*
X266270944Y-77137656D01*
X266019321Y-77070511D01*
X265938915Y-77049054D01*
X265936022Y-77048245D01*
X265917753Y-77042895D01*
X265917745Y-77042893D01*
X265913089Y-77041530D01*
X265908426Y-77040918D01*
X265907056Y-77040553D01*
X265903677Y-77040151D01*
X265903673Y-77040150D01*
X265892327Y-77038799D01*
X265890888Y-77038619D01*
X265559468Y-76995159D01*
X265554335Y-76994378D01*
X265537072Y-76991384D01*
X265537070Y-76991384D01*
X265532274Y-76990552D01*
X265527412Y-76990468D01*
X265527138Y-76990442D01*
X265522857Y-76990278D01*
X265521743Y-76990212D01*
X265517312Y-76989631D01*
X265512837Y-76989684D01*
X265512835Y-76989684D01*
X265496401Y-76989879D01*
X265492731Y-76989869D01*
X265300631Y-76986551D01*
X265300625Y-76986551D01*
X265296150Y-76986474D01*
X265264563Y-76990442D01*
X265259986Y-76991017D01*
X265244281Y-76992000D01*
X228257508Y-76992000D01*
X228235953Y-76990143D01*
X228234432Y-76989879D01*
X228222142Y-76987745D01*
X228217275Y-76987660D01*
X228214275Y-76987608D01*
X228095034Y-76985526D01*
X228089058Y-76985277D01*
X228022505Y-76980915D01*
X228014318Y-76980109D01*
X227817724Y-76954227D01*
X227809592Y-76952884D01*
X227765273Y-76944068D01*
X227757245Y-76942196D01*
X227565685Y-76890869D01*
X227557812Y-76888481D01*
X227515006Y-76873950D01*
X227507326Y-76871060D01*
X227372389Y-76815167D01*
X227324088Y-76795160D01*
X227316586Y-76791760D01*
X227276050Y-76771770D01*
X227268792Y-76767891D01*
X227097075Y-76668750D01*
X227090074Y-76664397D01*
X227077245Y-76655825D01*
X227052474Y-76639274D01*
X227045789Y-76634482D01*
X226905671Y-76526966D01*
X226888484Y-76513778D01*
X226882111Y-76508548D01*
X226848119Y-76478738D01*
X226842101Y-76473101D01*
X226701907Y-76332907D01*
X226696270Y-76326889D01*
X226666446Y-76292881D01*
X226661216Y-76286508D01*
X226540522Y-76129218D01*
X226535734Y-76122537D01*
X226510599Y-76084920D01*
X226506254Y-76077932D01*
X226407110Y-75906209D01*
X226403223Y-75898937D01*
X226383237Y-75858409D01*
X226379834Y-75850899D01*
X226346168Y-75769622D01*
X281666746Y-75769622D01*
X281666984Y-75770454D01*
X281667000Y-75770692D01*
X281667000Y-89727622D01*
X281666998Y-89728392D01*
X281666746Y-89769622D01*
X281669212Y-89778250D01*
X281669212Y-89778251D01*
X281674859Y-89798013D01*
X281678436Y-89814770D01*
X281679303Y-89820820D01*
X281682620Y-89843982D01*
X281686335Y-89852152D01*
X281686336Y-89852156D01*
X281693224Y-89867305D01*
X281699673Y-89884833D01*
X281704248Y-89900842D01*
X281704251Y-89900849D01*
X281706716Y-89909474D01*
X281722472Y-89934445D01*
X281730605Y-89949519D01*
X281742822Y-89976389D01*
X281759550Y-89995803D01*
X281770654Y-90010810D01*
X281784331Y-90032486D01*
X281796344Y-90043095D01*
X281806453Y-90052023D01*
X281818500Y-90064219D01*
X281831905Y-90079777D01*
X281831909Y-90079780D01*
X281837766Y-90086578D01*
X281845295Y-90091458D01*
X281845296Y-90091459D01*
X281859271Y-90100517D01*
X281874145Y-90111807D01*
X281893351Y-90128769D01*
X281920077Y-90141317D01*
X281935048Y-90149633D01*
X281959821Y-90165690D01*
X281968425Y-90168263D01*
X281968427Y-90168264D01*
X281984377Y-90173034D01*
X282001822Y-90179696D01*
X282016887Y-90186769D01*
X282016889Y-90186769D01*
X282025013Y-90190584D01*
X282033877Y-90191964D01*
X282033886Y-90191967D01*
X282054180Y-90195127D01*
X282070891Y-90198908D01*
X282090572Y-90204793D01*
X282090575Y-90204793D01*
X282099174Y-90207365D01*
X282108146Y-90207420D01*
X282108147Y-90207420D01*
X282131998Y-90207566D01*
X282134838Y-90207684D01*
X282136865Y-90208000D01*
X282202622Y-90208000D01*
X282203392Y-90208002D01*
X282244622Y-90208254D01*
X282245454Y-90208016D01*
X282245692Y-90208000D01*
X296202622Y-90208000D01*
X296203392Y-90208002D01*
X296244622Y-90208254D01*
X296253251Y-90205788D01*
X296273013Y-90200141D01*
X296289770Y-90196564D01*
X296310097Y-90193653D01*
X296310100Y-90193652D01*
X296318982Y-90192380D01*
X296327152Y-90188665D01*
X296327156Y-90188664D01*
X296342305Y-90181776D01*
X296359833Y-90175327D01*
X296375842Y-90170752D01*
X296375849Y-90170749D01*
X296384474Y-90168284D01*
X296409445Y-90152528D01*
X296424519Y-90144395D01*
X296451389Y-90132178D01*
X296470803Y-90115450D01*
X296485810Y-90104346D01*
X296507486Y-90090669D01*
X296527026Y-90068544D01*
X296539219Y-90056500D01*
X296554777Y-90043095D01*
X296554780Y-90043091D01*
X296561578Y-90037234D01*
X296575517Y-90015729D01*
X296586807Y-90000855D01*
X296597826Y-89988378D01*
X296603769Y-89981649D01*
X296616317Y-89954923D01*
X296624633Y-89939952D01*
X296640690Y-89915179D01*
X296643264Y-89906573D01*
X296648034Y-89890623D01*
X296654696Y-89873178D01*
X296661769Y-89858113D01*
X296661769Y-89858111D01*
X296665584Y-89849987D01*
X296666964Y-89841123D01*
X296666967Y-89841114D01*
X296670127Y-89820820D01*
X296673908Y-89804109D01*
X296679793Y-89784428D01*
X296679793Y-89784425D01*
X296682365Y-89775826D01*
X296682566Y-89743002D01*
X296682684Y-89740162D01*
X296683000Y-89738135D01*
X296683000Y-89672378D01*
X296683002Y-89671608D01*
X296683239Y-89632817D01*
X296683254Y-89630378D01*
X296683016Y-89629546D01*
X296683000Y-89629308D01*
X296683000Y-77069622D01*
X299766746Y-77069622D01*
X299766984Y-77070454D01*
X299767000Y-77070692D01*
X299767000Y-91027622D01*
X299766998Y-91028392D01*
X299766746Y-91069622D01*
X299769212Y-91078250D01*
X299769212Y-91078251D01*
X299774859Y-91098013D01*
X299778436Y-91114770D01*
X299779303Y-91120820D01*
X299782620Y-91143982D01*
X299786335Y-91152152D01*
X299786336Y-91152156D01*
X299793224Y-91167305D01*
X299799673Y-91184833D01*
X299804248Y-91200842D01*
X299804251Y-91200849D01*
X299806716Y-91209474D01*
X299822472Y-91234445D01*
X299830605Y-91249519D01*
X299842822Y-91276389D01*
X299859550Y-91295803D01*
X299870654Y-91310810D01*
X299884331Y-91332486D01*
X299896344Y-91343095D01*
X299906453Y-91352023D01*
X299918500Y-91364219D01*
X299931905Y-91379777D01*
X299931909Y-91379780D01*
X299937766Y-91386578D01*
X299945295Y-91391458D01*
X299945296Y-91391459D01*
X299959271Y-91400517D01*
X299974145Y-91411807D01*
X299993351Y-91428769D01*
X300020077Y-91441317D01*
X300035048Y-91449633D01*
X300059821Y-91465690D01*
X300068425Y-91468263D01*
X300068427Y-91468264D01*
X300084377Y-91473034D01*
X300101822Y-91479696D01*
X300116887Y-91486769D01*
X300116889Y-91486769D01*
X300125013Y-91490584D01*
X300133877Y-91491964D01*
X300133886Y-91491967D01*
X300154180Y-91495127D01*
X300170891Y-91498908D01*
X300190572Y-91504793D01*
X300190575Y-91504793D01*
X300199174Y-91507365D01*
X300208146Y-91507420D01*
X300208147Y-91507420D01*
X300231998Y-91507566D01*
X300234838Y-91507684D01*
X300236865Y-91508000D01*
X300302622Y-91508000D01*
X300303392Y-91508002D01*
X300344622Y-91508254D01*
X300345454Y-91508016D01*
X300345692Y-91508000D01*
X314302622Y-91508000D01*
X314303392Y-91508002D01*
X314344622Y-91508254D01*
X314353251Y-91505788D01*
X314373013Y-91500141D01*
X314389770Y-91496564D01*
X314410097Y-91493653D01*
X314410100Y-91493652D01*
X314418982Y-91492380D01*
X314427152Y-91488665D01*
X314427156Y-91488664D01*
X314442305Y-91481776D01*
X314459833Y-91475327D01*
X314475842Y-91470752D01*
X314475849Y-91470749D01*
X314484474Y-91468284D01*
X314509445Y-91452528D01*
X314524519Y-91444395D01*
X314551389Y-91432178D01*
X314570803Y-91415450D01*
X314585810Y-91404346D01*
X314607486Y-91390669D01*
X314627026Y-91368544D01*
X314639219Y-91356500D01*
X314654777Y-91343095D01*
X314654780Y-91343091D01*
X314661578Y-91337234D01*
X314675517Y-91315729D01*
X314686807Y-91300855D01*
X314697826Y-91288378D01*
X314703769Y-91281649D01*
X314716317Y-91254923D01*
X314724633Y-91239952D01*
X314740690Y-91215179D01*
X314743264Y-91206573D01*
X314748034Y-91190623D01*
X314754696Y-91173178D01*
X314761769Y-91158113D01*
X314761769Y-91158111D01*
X314765584Y-91149987D01*
X314766964Y-91141123D01*
X314766967Y-91141114D01*
X314770127Y-91120820D01*
X314773908Y-91104109D01*
X314779793Y-91084428D01*
X314779793Y-91084425D01*
X314782365Y-91075826D01*
X314782566Y-91043002D01*
X314782684Y-91040162D01*
X314783000Y-91038135D01*
X314783000Y-90972378D01*
X314783002Y-90971608D01*
X314783239Y-90932817D01*
X314783254Y-90930378D01*
X314783016Y-90929546D01*
X314783000Y-90929308D01*
X314783000Y-81608291D01*
X322500673Y-81608291D01*
X322501432Y-81617233D01*
X322503168Y-81637701D01*
X322503452Y-81654836D01*
X322501933Y-81684317D01*
X322504005Y-81693047D01*
X322507850Y-81709250D01*
X322510803Y-81727686D01*
X322512970Y-81753221D01*
X322516209Y-81761593D01*
X322516210Y-81761598D01*
X322523620Y-81780752D01*
X322528703Y-81797120D01*
X322535518Y-81825837D01*
X322539957Y-81833635D01*
X322551756Y-81854363D01*
X322553073Y-81856882D01*
X322553814Y-81858796D01*
X322572880Y-81891819D01*
X322572881Y-81891822D01*
X322586694Y-81915746D01*
X322587038Y-81916345D01*
X322607472Y-81952243D01*
X322608094Y-81952844D01*
X322608224Y-81953038D01*
X325202792Y-86446962D01*
X327847882Y-91028392D01*
X329395299Y-93708597D01*
X329571843Y-94014380D01*
X329586689Y-94040094D01*
X329587072Y-94040762D01*
X329603027Y-94068791D01*
X329603029Y-94068794D01*
X329607472Y-94076599D01*
X329628695Y-94097129D01*
X329640167Y-94109849D01*
X329652854Y-94126002D01*
X329652858Y-94126006D01*
X329658399Y-94133060D01*
X329665698Y-94138276D01*
X329665701Y-94138279D01*
X329679251Y-94147962D01*
X329693596Y-94159914D01*
X329712013Y-94177730D01*
X329719959Y-94181911D01*
X329719961Y-94181912D01*
X329738136Y-94191474D01*
X329752728Y-94200468D01*
X329776739Y-94217627D01*
X329800936Y-94226077D01*
X329818051Y-94233519D01*
X329840736Y-94245454D01*
X329869665Y-94251314D01*
X329886189Y-94255849D01*
X329905586Y-94262623D01*
X329905589Y-94262624D01*
X329914058Y-94265581D01*
X329923021Y-94266043D01*
X329939649Y-94266900D01*
X329958174Y-94269240D01*
X329974496Y-94272546D01*
X329974498Y-94272546D01*
X329983291Y-94274327D01*
X330010319Y-94272034D01*
X330012701Y-94271832D01*
X330029836Y-94271548D01*
X330059316Y-94273067D01*
X330084251Y-94267150D01*
X330102685Y-94264197D01*
X330119277Y-94262789D01*
X330119278Y-94262789D01*
X330128221Y-94262030D01*
X330136593Y-94258791D01*
X330136598Y-94258790D01*
X330155752Y-94251380D01*
X330172120Y-94246297D01*
X330175672Y-94245454D01*
X330200837Y-94239482D01*
X330229361Y-94223246D01*
X330231884Y-94221926D01*
X330233796Y-94221186D01*
X330238005Y-94218756D01*
X330238009Y-94218754D01*
X330266820Y-94202120D01*
X330266835Y-94202112D01*
X330290854Y-94188244D01*
X330291312Y-94187981D01*
X330327243Y-94167528D01*
X330327844Y-94166906D01*
X330328038Y-94166776D01*
X342391178Y-87202119D01*
X342415191Y-87188255D01*
X342415861Y-87187871D01*
X342443792Y-87171973D01*
X342443797Y-87171969D01*
X342451599Y-87167528D01*
X342472129Y-87146305D01*
X342484849Y-87134833D01*
X342501002Y-87122146D01*
X342501006Y-87122142D01*
X342508060Y-87116601D01*
X342513276Y-87109302D01*
X342513279Y-87109299D01*
X342522962Y-87095749D01*
X342534915Y-87081403D01*
X342552730Y-87062987D01*
X342566474Y-87036864D01*
X342575469Y-87022271D01*
X342587408Y-87005564D01*
X342592627Y-86998261D01*
X342601077Y-86974064D01*
X342608521Y-86956945D01*
X342616274Y-86942209D01*
X342620454Y-86934264D01*
X342626314Y-86905335D01*
X342630849Y-86888811D01*
X342637623Y-86869414D01*
X342637624Y-86869411D01*
X342640581Y-86860942D01*
X342641900Y-86835351D01*
X342644240Y-86816825D01*
X342647546Y-86800503D01*
X342647546Y-86800501D01*
X342649327Y-86791708D01*
X342646832Y-86762299D01*
X342646548Y-86745164D01*
X342647605Y-86724646D01*
X342648067Y-86715684D01*
X342642148Y-86690743D01*
X342639196Y-86672310D01*
X342637789Y-86655725D01*
X342637030Y-86646778D01*
X342626376Y-86619239D01*
X342621298Y-86602886D01*
X342614482Y-86574163D01*
X342598241Y-86545631D01*
X342596927Y-86543118D01*
X342596186Y-86541204D01*
X342563234Y-86484129D01*
X342562924Y-86483588D01*
X342543731Y-86449871D01*
X342542528Y-86447757D01*
X342541906Y-86447156D01*
X342541776Y-86446962D01*
X337433980Y-77600000D01*
X348836500Y-77600000D01*
X348856365Y-77852407D01*
X348857519Y-77857214D01*
X348857520Y-77857220D01*
X348882373Y-77960741D01*
X348915470Y-78098599D01*
X348917363Y-78103170D01*
X348917364Y-78103172D01*
X348922802Y-78116299D01*
X349012361Y-78332514D01*
X349144651Y-78548392D01*
X349147862Y-78552152D01*
X349147866Y-78552157D01*
X349206692Y-78621033D01*
X349309083Y-78740917D01*
X349312845Y-78744130D01*
X349497843Y-78902134D01*
X349497848Y-78902138D01*
X349501608Y-78905349D01*
X349717486Y-79037639D01*
X349722056Y-79039532D01*
X349722060Y-79039534D01*
X349946828Y-79132636D01*
X349951401Y-79134530D01*
X350036106Y-79154866D01*
X350192780Y-79192480D01*
X350192786Y-79192481D01*
X350197593Y-79193635D01*
X350450000Y-79213500D01*
X350702407Y-79193635D01*
X350707214Y-79192481D01*
X350707220Y-79192480D01*
X350863894Y-79154866D01*
X350948599Y-79134530D01*
X350953172Y-79132636D01*
X351177940Y-79039534D01*
X351177944Y-79039532D01*
X351182514Y-79037639D01*
X351398392Y-78905349D01*
X351402152Y-78902138D01*
X351402157Y-78902134D01*
X351587155Y-78744130D01*
X351590917Y-78740917D01*
X351693308Y-78621033D01*
X351752134Y-78552157D01*
X351752138Y-78552152D01*
X351755349Y-78548392D01*
X351887639Y-78332514D01*
X351977199Y-78116299D01*
X351982636Y-78103172D01*
X351982637Y-78103170D01*
X351984530Y-78098599D01*
X352017627Y-77960741D01*
X352042480Y-77857220D01*
X352042481Y-77857214D01*
X352043635Y-77852407D01*
X352063500Y-77600000D01*
X352043635Y-77347593D01*
X352034093Y-77307844D01*
X351997224Y-77154275D01*
X351984530Y-77101401D01*
X351971367Y-77069622D01*
X351889534Y-76872060D01*
X351889532Y-76872056D01*
X351887639Y-76867486D01*
X351755349Y-76651608D01*
X351752138Y-76647848D01*
X351752134Y-76647843D01*
X351606822Y-76477705D01*
X351590917Y-76459083D01*
X351444710Y-76334210D01*
X351402157Y-76297866D01*
X351402152Y-76297862D01*
X351398392Y-76294651D01*
X351182514Y-76162361D01*
X351177944Y-76160468D01*
X351177940Y-76160466D01*
X350953172Y-76067364D01*
X350953170Y-76067363D01*
X350948599Y-76065470D01*
X350863894Y-76045134D01*
X350707220Y-76007520D01*
X350707214Y-76007519D01*
X350702407Y-76006365D01*
X350450000Y-75986500D01*
X350197593Y-76006365D01*
X350192786Y-76007519D01*
X350192780Y-76007520D01*
X350036106Y-76045134D01*
X349951401Y-76065470D01*
X349946830Y-76067363D01*
X349946828Y-76067364D01*
X349722060Y-76160466D01*
X349722056Y-76160468D01*
X349717486Y-76162361D01*
X349501608Y-76294651D01*
X349497848Y-76297862D01*
X349497843Y-76297866D01*
X349455290Y-76334210D01*
X349309083Y-76459083D01*
X349293178Y-76477705D01*
X349147866Y-76647843D01*
X349147862Y-76647848D01*
X349144651Y-76651608D01*
X349012361Y-76867486D01*
X349010468Y-76872056D01*
X349010466Y-76872060D01*
X348928633Y-77069622D01*
X348915470Y-77101401D01*
X348902776Y-77154275D01*
X348865908Y-77307844D01*
X348856365Y-77347593D01*
X348836500Y-77600000D01*
X337433980Y-77600000D01*
X335577119Y-74383822D01*
X335563254Y-74359807D01*
X335562871Y-74359139D01*
X335546968Y-74331200D01*
X335546966Y-74331197D01*
X335542528Y-74323401D01*
X335536076Y-74317159D01*
X335521311Y-74302875D01*
X335509831Y-74290148D01*
X335497144Y-74273997D01*
X335491601Y-74266940D01*
X335484302Y-74261724D01*
X335484299Y-74261721D01*
X335470749Y-74252038D01*
X335456403Y-74240085D01*
X335456256Y-74239943D01*
X335437987Y-74222270D01*
X335430041Y-74218089D01*
X335430039Y-74218088D01*
X335411864Y-74208526D01*
X335397271Y-74199531D01*
X335394961Y-74197880D01*
X335373261Y-74182373D01*
X335349064Y-74173923D01*
X335331949Y-74166481D01*
X335309264Y-74154546D01*
X335280335Y-74148686D01*
X335263811Y-74144151D01*
X335244414Y-74137377D01*
X335244411Y-74137376D01*
X335235942Y-74134419D01*
X335226979Y-74133957D01*
X335210351Y-74133100D01*
X335191825Y-74130760D01*
X335175503Y-74127454D01*
X335175501Y-74127454D01*
X335166708Y-74125673D01*
X335138937Y-74128029D01*
X335137299Y-74128168D01*
X335120164Y-74128452D01*
X335090683Y-74126933D01*
X335065742Y-74132852D01*
X335047313Y-74135803D01*
X335021778Y-74137970D01*
X334994243Y-74148622D01*
X334977883Y-74153702D01*
X334957896Y-74158445D01*
X334957893Y-74158446D01*
X334949163Y-74160518D01*
X334941362Y-74164959D01*
X334941361Y-74164959D01*
X334920642Y-74176753D01*
X334918116Y-74178074D01*
X334916204Y-74178814D01*
X334911994Y-74181245D01*
X334911987Y-74181248D01*
X334883185Y-74197877D01*
X334883179Y-74197880D01*
X334859146Y-74211756D01*
X334858688Y-74212019D01*
X334822757Y-74232472D01*
X334822156Y-74233094D01*
X334821962Y-74233224D01*
X332724159Y-75444391D01*
X326330651Y-79135685D01*
X326195871Y-79213500D01*
X322734859Y-81211716D01*
X322734251Y-81212065D01*
X322698401Y-81232472D01*
X322692160Y-81238923D01*
X322692159Y-81238924D01*
X322677875Y-81253689D01*
X322665150Y-81265167D01*
X322641940Y-81283399D01*
X322636724Y-81290698D01*
X322636721Y-81290701D01*
X322627038Y-81304251D01*
X322615086Y-81318596D01*
X322597270Y-81337013D01*
X322593089Y-81344959D01*
X322593088Y-81344961D01*
X322583526Y-81363136D01*
X322574532Y-81377728D01*
X322557373Y-81401739D01*
X322554414Y-81410212D01*
X322548924Y-81425933D01*
X322541481Y-81443051D01*
X322529546Y-81465736D01*
X322523687Y-81494663D01*
X322519151Y-81511189D01*
X322509419Y-81539058D01*
X322508957Y-81548021D01*
X322508100Y-81564649D01*
X322505760Y-81583174D01*
X322500673Y-81608291D01*
X314783000Y-81608291D01*
X314783000Y-77600000D01*
X317836500Y-77600000D01*
X317856365Y-77852407D01*
X317857519Y-77857214D01*
X317857520Y-77857220D01*
X317882373Y-77960741D01*
X317915470Y-78098599D01*
X317917363Y-78103170D01*
X317917364Y-78103172D01*
X317922802Y-78116299D01*
X318012361Y-78332514D01*
X318144651Y-78548392D01*
X318147862Y-78552152D01*
X318147866Y-78552157D01*
X318206692Y-78621033D01*
X318309083Y-78740917D01*
X318312845Y-78744130D01*
X318497843Y-78902134D01*
X318497848Y-78902138D01*
X318501608Y-78905349D01*
X318717486Y-79037639D01*
X318722056Y-79039532D01*
X318722060Y-79039534D01*
X318946828Y-79132636D01*
X318951401Y-79134530D01*
X319036106Y-79154866D01*
X319192780Y-79192480D01*
X319192786Y-79192481D01*
X319197593Y-79193635D01*
X319450000Y-79213500D01*
X319702407Y-79193635D01*
X319707214Y-79192481D01*
X319707220Y-79192480D01*
X319863894Y-79154866D01*
X319948599Y-79134530D01*
X319953172Y-79132636D01*
X320177940Y-79039534D01*
X320177944Y-79039532D01*
X320182514Y-79037639D01*
X320398392Y-78905349D01*
X320402152Y-78902138D01*
X320402157Y-78902134D01*
X320587155Y-78744130D01*
X320590917Y-78740917D01*
X320693308Y-78621033D01*
X320752134Y-78552157D01*
X320752138Y-78552152D01*
X320755349Y-78548392D01*
X320887639Y-78332514D01*
X320977199Y-78116299D01*
X320982636Y-78103172D01*
X320982637Y-78103170D01*
X320984530Y-78098599D01*
X321017627Y-77960741D01*
X321042480Y-77857220D01*
X321042481Y-77857214D01*
X321043635Y-77852407D01*
X321063500Y-77600000D01*
X321043635Y-77347593D01*
X321034093Y-77307844D01*
X320997224Y-77154275D01*
X320984530Y-77101401D01*
X320971367Y-77069622D01*
X320889534Y-76872060D01*
X320889532Y-76872056D01*
X320887639Y-76867486D01*
X320755349Y-76651608D01*
X320752138Y-76647848D01*
X320752134Y-76647843D01*
X320606822Y-76477705D01*
X320590917Y-76459083D01*
X320444710Y-76334210D01*
X320402157Y-76297866D01*
X320402152Y-76297862D01*
X320398392Y-76294651D01*
X320182514Y-76162361D01*
X320177944Y-76160468D01*
X320177940Y-76160466D01*
X319953172Y-76067364D01*
X319953170Y-76067363D01*
X319948599Y-76065470D01*
X319863894Y-76045134D01*
X319707220Y-76007520D01*
X319707214Y-76007519D01*
X319702407Y-76006365D01*
X319450000Y-75986500D01*
X319197593Y-76006365D01*
X319192786Y-76007519D01*
X319192780Y-76007520D01*
X319036106Y-76045134D01*
X318951401Y-76065470D01*
X318946830Y-76067363D01*
X318946828Y-76067364D01*
X318722060Y-76160466D01*
X318722056Y-76160468D01*
X318717486Y-76162361D01*
X318501608Y-76294651D01*
X318497848Y-76297862D01*
X318497843Y-76297866D01*
X318455290Y-76334210D01*
X318309083Y-76459083D01*
X318293178Y-76477705D01*
X318147866Y-76647843D01*
X318147862Y-76647848D01*
X318144651Y-76651608D01*
X318012361Y-76867486D01*
X318010468Y-76872056D01*
X318010466Y-76872060D01*
X317928633Y-77069622D01*
X317915470Y-77101401D01*
X317902776Y-77154275D01*
X317865908Y-77307844D01*
X317856365Y-77347593D01*
X317836500Y-77600000D01*
X314783000Y-77600000D01*
X314783000Y-76972378D01*
X314783002Y-76971608D01*
X314783040Y-76965319D01*
X314783254Y-76930378D01*
X314779023Y-76915572D01*
X314775141Y-76901987D01*
X314771564Y-76885230D01*
X314768653Y-76864903D01*
X314768652Y-76864900D01*
X314767380Y-76856018D01*
X314763665Y-76847848D01*
X314763664Y-76847844D01*
X314756776Y-76832695D01*
X314750327Y-76815167D01*
X314745752Y-76799158D01*
X314745749Y-76799151D01*
X314743284Y-76790526D01*
X314727528Y-76765555D01*
X314719395Y-76750481D01*
X314707178Y-76723611D01*
X314690450Y-76704197D01*
X314679346Y-76689190D01*
X314665669Y-76667514D01*
X314643544Y-76647974D01*
X314631500Y-76635781D01*
X314618095Y-76620223D01*
X314618091Y-76620220D01*
X314612234Y-76613422D01*
X314590729Y-76599483D01*
X314575855Y-76588193D01*
X314563378Y-76577174D01*
X314556649Y-76571231D01*
X314529923Y-76558683D01*
X314514952Y-76550367D01*
X314490179Y-76534310D01*
X314481575Y-76531737D01*
X314481573Y-76531736D01*
X314465623Y-76526966D01*
X314448178Y-76520304D01*
X314433113Y-76513231D01*
X314433111Y-76513231D01*
X314424987Y-76509416D01*
X314416123Y-76508036D01*
X314416114Y-76508033D01*
X314395820Y-76504873D01*
X314379109Y-76501092D01*
X314359428Y-76495207D01*
X314359425Y-76495207D01*
X314350826Y-76492635D01*
X314341854Y-76492580D01*
X314341853Y-76492580D01*
X314318002Y-76492434D01*
X314315162Y-76492316D01*
X314313135Y-76492000D01*
X314247378Y-76492000D01*
X314246608Y-76491998D01*
X314246052Y-76491995D01*
X314205378Y-76491746D01*
X314204546Y-76491984D01*
X314204308Y-76492000D01*
X300247378Y-76492000D01*
X300246608Y-76491998D01*
X300246352Y-76491996D01*
X300205378Y-76491746D01*
X300196750Y-76494212D01*
X300196749Y-76494212D01*
X300176987Y-76499859D01*
X300160230Y-76503436D01*
X300139903Y-76506347D01*
X300139900Y-76506348D01*
X300131018Y-76507620D01*
X300122848Y-76511335D01*
X300122844Y-76511336D01*
X300107695Y-76518224D01*
X300090167Y-76524673D01*
X300074158Y-76529248D01*
X300074151Y-76529251D01*
X300065526Y-76531716D01*
X300040555Y-76547472D01*
X300025481Y-76555605D01*
X299998611Y-76567822D01*
X299979197Y-76584550D01*
X299964190Y-76595654D01*
X299942514Y-76609331D01*
X299936572Y-76616059D01*
X299922977Y-76631453D01*
X299910781Y-76643500D01*
X299895223Y-76656905D01*
X299895220Y-76656909D01*
X299888422Y-76662766D01*
X299883542Y-76670295D01*
X299883541Y-76670296D01*
X299874483Y-76684271D01*
X299863193Y-76699145D01*
X299846231Y-76718351D01*
X299833683Y-76745077D01*
X299825367Y-76760048D01*
X299809310Y-76784821D01*
X299806737Y-76793425D01*
X299806736Y-76793427D01*
X299801966Y-76809377D01*
X299795304Y-76826822D01*
X299784416Y-76850013D01*
X299783036Y-76858877D01*
X299783033Y-76858886D01*
X299779873Y-76879180D01*
X299776092Y-76895891D01*
X299770207Y-76915572D01*
X299767635Y-76924174D01*
X299767580Y-76933146D01*
X299767580Y-76933147D01*
X299767434Y-76956998D01*
X299767316Y-76959838D01*
X299767000Y-76961865D01*
X299767000Y-77027622D01*
X299766998Y-77028392D01*
X299766746Y-77069622D01*
X296683000Y-77069622D01*
X296683000Y-75672378D01*
X296683002Y-75671608D01*
X296683037Y-75665939D01*
X296683254Y-75630378D01*
X296677233Y-75609309D01*
X296675141Y-75601987D01*
X296671564Y-75585230D01*
X296668653Y-75564903D01*
X296668652Y-75564900D01*
X296667380Y-75556018D01*
X296663665Y-75547848D01*
X296663664Y-75547844D01*
X296656776Y-75532695D01*
X296650327Y-75515167D01*
X296645752Y-75499158D01*
X296645749Y-75499151D01*
X296643284Y-75490526D01*
X296627528Y-75465555D01*
X296619395Y-75450481D01*
X296607178Y-75423611D01*
X296590450Y-75404197D01*
X296579346Y-75389190D01*
X296565669Y-75367514D01*
X296543544Y-75347974D01*
X296531500Y-75335781D01*
X296518095Y-75320223D01*
X296518091Y-75320220D01*
X296512234Y-75313422D01*
X296490729Y-75299483D01*
X296475855Y-75288193D01*
X296463378Y-75277174D01*
X296456649Y-75271231D01*
X296429923Y-75258683D01*
X296414952Y-75250367D01*
X296390179Y-75234310D01*
X296381575Y-75231737D01*
X296381573Y-75231736D01*
X296365623Y-75226966D01*
X296348178Y-75220304D01*
X296333113Y-75213231D01*
X296333111Y-75213231D01*
X296324987Y-75209416D01*
X296316123Y-75208036D01*
X296316114Y-75208033D01*
X296295820Y-75204873D01*
X296279109Y-75201092D01*
X296259428Y-75195207D01*
X296259425Y-75195207D01*
X296250826Y-75192635D01*
X296241854Y-75192580D01*
X296241853Y-75192580D01*
X296218002Y-75192434D01*
X296215162Y-75192316D01*
X296213135Y-75192000D01*
X296147378Y-75192000D01*
X296146608Y-75191998D01*
X296146052Y-75191995D01*
X296105378Y-75191746D01*
X296104546Y-75191984D01*
X296104308Y-75192000D01*
X282147378Y-75192000D01*
X282146608Y-75191998D01*
X282146352Y-75191996D01*
X282105378Y-75191746D01*
X282096750Y-75194212D01*
X282096749Y-75194212D01*
X282076987Y-75199859D01*
X282060230Y-75203436D01*
X282039903Y-75206347D01*
X282039900Y-75206348D01*
X282031018Y-75207620D01*
X282022848Y-75211335D01*
X282022844Y-75211336D01*
X282007695Y-75218224D01*
X281990167Y-75224673D01*
X281974158Y-75229248D01*
X281974151Y-75229251D01*
X281965526Y-75231716D01*
X281940555Y-75247472D01*
X281925481Y-75255605D01*
X281898611Y-75267822D01*
X281882564Y-75281649D01*
X281879197Y-75284550D01*
X281864190Y-75295654D01*
X281842514Y-75309331D01*
X281824522Y-75329704D01*
X281822977Y-75331453D01*
X281810781Y-75343500D01*
X281795223Y-75356905D01*
X281795220Y-75356909D01*
X281788422Y-75362766D01*
X281783542Y-75370295D01*
X281783541Y-75370296D01*
X281774483Y-75384271D01*
X281763193Y-75399145D01*
X281746231Y-75418351D01*
X281733683Y-75445077D01*
X281725367Y-75460048D01*
X281709310Y-75484821D01*
X281706737Y-75493425D01*
X281706736Y-75493427D01*
X281701966Y-75509377D01*
X281695304Y-75526822D01*
X281684416Y-75550013D01*
X281683036Y-75558877D01*
X281683033Y-75558886D01*
X281679873Y-75579180D01*
X281676092Y-75595891D01*
X281672080Y-75609309D01*
X281667635Y-75624174D01*
X281667580Y-75633146D01*
X281667580Y-75633147D01*
X281667434Y-75656998D01*
X281667316Y-75659838D01*
X281667000Y-75661865D01*
X281667000Y-75727622D01*
X281666998Y-75728392D01*
X281666746Y-75769622D01*
X226346168Y-75769622D01*
X226303950Y-75667699D01*
X226301046Y-75659983D01*
X226286523Y-75617200D01*
X226284129Y-75609309D01*
X226279956Y-75593736D01*
X226232802Y-75417755D01*
X226230936Y-75409750D01*
X226222111Y-75365383D01*
X226220775Y-75357289D01*
X226202066Y-75215179D01*
X226194892Y-75160684D01*
X226194084Y-75152481D01*
X226192846Y-75133599D01*
X226189724Y-75085963D01*
X226189475Y-75079973D01*
X226187312Y-74956136D01*
X226184603Y-74939318D01*
X226183000Y-74919281D01*
X226183000Y-61069622D01*
X227666746Y-61069622D01*
X227666984Y-61070454D01*
X227667000Y-61070692D01*
X227667000Y-75027622D01*
X227666998Y-75028392D01*
X227666746Y-75069622D01*
X227669212Y-75078250D01*
X227669212Y-75078251D01*
X227674859Y-75098013D01*
X227678436Y-75114770D01*
X227681133Y-75133599D01*
X227682620Y-75143982D01*
X227686335Y-75152152D01*
X227686336Y-75152156D01*
X227693224Y-75167305D01*
X227699673Y-75184833D01*
X227704248Y-75200842D01*
X227704251Y-75200849D01*
X227706716Y-75209474D01*
X227722472Y-75234445D01*
X227730605Y-75249519D01*
X227742822Y-75276389D01*
X227755118Y-75290659D01*
X227759550Y-75295803D01*
X227770654Y-75310810D01*
X227784331Y-75332486D01*
X227801872Y-75347977D01*
X227806453Y-75352023D01*
X227818500Y-75364219D01*
X227831905Y-75379777D01*
X227831909Y-75379780D01*
X227837766Y-75386578D01*
X227845295Y-75391458D01*
X227845296Y-75391459D01*
X227859271Y-75400517D01*
X227874145Y-75411807D01*
X227893351Y-75428769D01*
X227920077Y-75441317D01*
X227935048Y-75449633D01*
X227959821Y-75465690D01*
X227968425Y-75468263D01*
X227968427Y-75468264D01*
X227984377Y-75473034D01*
X228001822Y-75479696D01*
X228016887Y-75486769D01*
X228016889Y-75486769D01*
X228025013Y-75490584D01*
X228033877Y-75491964D01*
X228033886Y-75491967D01*
X228054180Y-75495127D01*
X228070891Y-75498908D01*
X228090572Y-75504793D01*
X228090575Y-75504793D01*
X228099174Y-75507365D01*
X228108146Y-75507420D01*
X228108147Y-75507420D01*
X228131998Y-75507566D01*
X228134838Y-75507684D01*
X228136865Y-75508000D01*
X228202622Y-75508000D01*
X228203392Y-75508002D01*
X228244622Y-75508254D01*
X228245454Y-75508016D01*
X228245692Y-75508000D01*
X242202622Y-75508000D01*
X242203392Y-75508002D01*
X242244622Y-75508254D01*
X242253251Y-75505788D01*
X242273013Y-75500141D01*
X242289770Y-75496564D01*
X242310097Y-75493653D01*
X242310100Y-75493652D01*
X242318982Y-75492380D01*
X242327152Y-75488665D01*
X242327156Y-75488664D01*
X242342305Y-75481776D01*
X242359833Y-75475327D01*
X242375842Y-75470752D01*
X242375849Y-75470749D01*
X242384474Y-75468284D01*
X242409445Y-75452528D01*
X242424519Y-75444395D01*
X242451389Y-75432178D01*
X242470803Y-75415450D01*
X242485810Y-75404346D01*
X242507486Y-75390669D01*
X242527026Y-75368544D01*
X242539219Y-75356500D01*
X242554777Y-75343095D01*
X242554780Y-75343091D01*
X242561578Y-75337234D01*
X242575517Y-75315729D01*
X242586807Y-75300855D01*
X242597826Y-75288378D01*
X242603769Y-75281649D01*
X242616317Y-75254923D01*
X242624633Y-75239952D01*
X242640690Y-75215179D01*
X242643264Y-75206573D01*
X242648034Y-75190623D01*
X242654696Y-75173178D01*
X242661769Y-75158113D01*
X242661769Y-75158111D01*
X242665584Y-75149987D01*
X242666964Y-75141123D01*
X242666967Y-75141114D01*
X242670127Y-75120820D01*
X242673908Y-75104109D01*
X242679793Y-75084428D01*
X242679793Y-75084425D01*
X242682365Y-75075826D01*
X242682566Y-75043002D01*
X242682684Y-75040162D01*
X242683000Y-75038135D01*
X242683000Y-74972378D01*
X242683002Y-74971608D01*
X242683239Y-74932817D01*
X242683254Y-74930378D01*
X242683016Y-74929546D01*
X242683000Y-74929308D01*
X242683000Y-60972378D01*
X242683002Y-60971608D01*
X242683037Y-60965939D01*
X242683254Y-60930378D01*
X242679023Y-60915572D01*
X242675141Y-60901987D01*
X242671564Y-60885230D01*
X242668653Y-60864903D01*
X242668652Y-60864900D01*
X242667380Y-60856018D01*
X242663665Y-60847848D01*
X242663664Y-60847844D01*
X242656776Y-60832695D01*
X242650327Y-60815167D01*
X242645752Y-60799158D01*
X242645749Y-60799151D01*
X242643284Y-60790526D01*
X242627528Y-60765555D01*
X242619395Y-60750481D01*
X242607178Y-60723611D01*
X242590450Y-60704197D01*
X242579346Y-60689190D01*
X242565669Y-60667514D01*
X242543544Y-60647974D01*
X242531500Y-60635781D01*
X242518095Y-60620223D01*
X242518091Y-60620220D01*
X242512234Y-60613422D01*
X242490729Y-60599483D01*
X242475855Y-60588193D01*
X242463378Y-60577174D01*
X242456649Y-60571231D01*
X242429923Y-60558683D01*
X242414952Y-60550367D01*
X242390179Y-60534310D01*
X242381575Y-60531737D01*
X242381573Y-60531736D01*
X242365623Y-60526966D01*
X242348178Y-60520304D01*
X242333113Y-60513231D01*
X242333111Y-60513231D01*
X242324987Y-60509416D01*
X242316123Y-60508036D01*
X242316114Y-60508033D01*
X242295820Y-60504873D01*
X242279109Y-60501092D01*
X242259428Y-60495207D01*
X242259425Y-60495207D01*
X242250826Y-60492635D01*
X242241854Y-60492580D01*
X242241853Y-60492580D01*
X242218002Y-60492434D01*
X242215162Y-60492316D01*
X242213135Y-60492000D01*
X242147378Y-60492000D01*
X242146608Y-60491998D01*
X242146052Y-60491995D01*
X242105378Y-60491746D01*
X242104546Y-60491984D01*
X242104308Y-60492000D01*
X228147378Y-60492000D01*
X228146608Y-60491998D01*
X228146352Y-60491996D01*
X228105378Y-60491746D01*
X228096750Y-60494212D01*
X228096749Y-60494212D01*
X228076987Y-60499859D01*
X228060230Y-60503436D01*
X228039903Y-60506347D01*
X228039900Y-60506348D01*
X228031018Y-60507620D01*
X228022848Y-60511335D01*
X228022844Y-60511336D01*
X228007695Y-60518224D01*
X227990167Y-60524673D01*
X227974158Y-60529248D01*
X227974151Y-60529251D01*
X227965526Y-60531716D01*
X227940555Y-60547472D01*
X227925481Y-60555605D01*
X227898611Y-60567822D01*
X227879197Y-60584550D01*
X227864190Y-60595654D01*
X227842514Y-60609331D01*
X227836572Y-60616059D01*
X227822977Y-60631453D01*
X227810781Y-60643500D01*
X227795223Y-60656905D01*
X227795220Y-60656909D01*
X227788422Y-60662766D01*
X227783542Y-60670295D01*
X227783541Y-60670296D01*
X227774483Y-60684271D01*
X227763193Y-60699145D01*
X227746231Y-60718351D01*
X227733683Y-60745077D01*
X227725367Y-60760048D01*
X227709310Y-60784821D01*
X227706737Y-60793425D01*
X227706736Y-60793427D01*
X227701966Y-60809377D01*
X227695304Y-60826822D01*
X227684416Y-60850013D01*
X227683036Y-60858877D01*
X227683033Y-60858886D01*
X227679873Y-60879180D01*
X227676092Y-60895891D01*
X227670207Y-60915572D01*
X227667635Y-60924174D01*
X227667580Y-60933146D01*
X227667580Y-60933147D01*
X227667434Y-60956998D01*
X227667316Y-60959838D01*
X227667000Y-60961865D01*
X227667000Y-61027622D01*
X227666998Y-61028392D01*
X227666746Y-61069622D01*
X226183000Y-61069622D01*
X226183000Y-44069622D01*
X227666746Y-44069622D01*
X227666984Y-44070454D01*
X227667000Y-44070692D01*
X227667000Y-58027622D01*
X227666998Y-58028392D01*
X227666746Y-58069622D01*
X227669212Y-58078250D01*
X227669212Y-58078251D01*
X227674859Y-58098013D01*
X227678436Y-58114770D01*
X227682620Y-58143982D01*
X227686335Y-58152152D01*
X227686336Y-58152156D01*
X227693224Y-58167305D01*
X227699673Y-58184833D01*
X227704248Y-58200842D01*
X227704251Y-58200849D01*
X227706716Y-58209474D01*
X227722472Y-58234445D01*
X227730605Y-58249519D01*
X227742822Y-58276389D01*
X227753056Y-58288266D01*
X227759550Y-58295803D01*
X227770654Y-58310810D01*
X227784331Y-58332486D01*
X227791059Y-58338428D01*
X227806453Y-58352023D01*
X227818500Y-58364219D01*
X227831905Y-58379777D01*
X227831909Y-58379780D01*
X227837766Y-58386578D01*
X227845295Y-58391458D01*
X227845296Y-58391459D01*
X227859271Y-58400517D01*
X227874145Y-58411807D01*
X227893351Y-58428769D01*
X227920077Y-58441317D01*
X227935048Y-58449633D01*
X227959821Y-58465690D01*
X227968425Y-58468263D01*
X227968427Y-58468264D01*
X227984377Y-58473034D01*
X228001822Y-58479696D01*
X228016887Y-58486769D01*
X228016889Y-58486769D01*
X228025013Y-58490584D01*
X228033877Y-58491964D01*
X228033886Y-58491967D01*
X228054180Y-58495127D01*
X228070891Y-58498908D01*
X228090572Y-58504793D01*
X228090575Y-58504793D01*
X228099174Y-58507365D01*
X228108146Y-58507420D01*
X228108147Y-58507420D01*
X228131998Y-58507566D01*
X228134838Y-58507684D01*
X228136865Y-58508000D01*
X228202622Y-58508000D01*
X228203392Y-58508002D01*
X228244622Y-58508254D01*
X228245454Y-58508016D01*
X228245692Y-58508000D01*
X242202622Y-58508000D01*
X242203392Y-58508002D01*
X242244622Y-58508254D01*
X242253251Y-58505788D01*
X242273013Y-58500141D01*
X242289770Y-58496564D01*
X242310097Y-58493653D01*
X242310100Y-58493652D01*
X242318982Y-58492380D01*
X242327152Y-58488665D01*
X242327156Y-58488664D01*
X242342305Y-58481776D01*
X242359833Y-58475327D01*
X242375842Y-58470752D01*
X242375849Y-58470749D01*
X242384474Y-58468284D01*
X242409445Y-58452528D01*
X242424519Y-58444395D01*
X242451389Y-58432178D01*
X242451391Y-58432177D01*
X242452582Y-58434797D01*
X242506704Y-58419040D01*
X242574778Y-58439198D01*
X242621148Y-58492960D01*
X242631091Y-58563257D01*
X242628936Y-58574445D01*
X242581365Y-58772593D01*
X242561500Y-59025000D01*
X242581365Y-59277407D01*
X242640470Y-59523599D01*
X242642363Y-59528170D01*
X242642364Y-59528172D01*
X242726702Y-59731780D01*
X242737361Y-59757514D01*
X242869651Y-59973392D01*
X242872862Y-59977152D01*
X242872866Y-59977157D01*
X242958625Y-60077567D01*
X243034083Y-60165917D01*
X243037845Y-60169130D01*
X243222843Y-60327134D01*
X243222848Y-60327138D01*
X243226608Y-60330349D01*
X243442486Y-60462639D01*
X243447056Y-60464532D01*
X243447060Y-60464534D01*
X243671828Y-60557636D01*
X243676401Y-60559530D01*
X243749894Y-60577174D01*
X243917780Y-60617480D01*
X243917786Y-60617481D01*
X243922593Y-60618635D01*
X244175000Y-60638500D01*
X244427407Y-60618635D01*
X244432214Y-60617481D01*
X244432220Y-60617480D01*
X244600106Y-60577174D01*
X244673599Y-60559530D01*
X244678172Y-60557636D01*
X244902940Y-60464534D01*
X244902944Y-60464532D01*
X244907514Y-60462639D01*
X245123392Y-60330349D01*
X245127152Y-60327138D01*
X245127157Y-60327134D01*
X245312155Y-60169130D01*
X245315917Y-60165917D01*
X245445189Y-60014559D01*
X245504639Y-59975749D01*
X245575634Y-59975243D01*
X245635633Y-60013199D01*
X245665586Y-60077567D01*
X245667000Y-60096389D01*
X245667000Y-74027622D01*
X245666998Y-74028392D01*
X245666746Y-74069622D01*
X245669212Y-74078250D01*
X245669212Y-74078251D01*
X245674859Y-74098013D01*
X245678436Y-74114770D01*
X245681026Y-74132850D01*
X245682620Y-74143982D01*
X245686335Y-74152152D01*
X245686336Y-74152156D01*
X245693224Y-74167305D01*
X245699673Y-74184833D01*
X245704248Y-74200842D01*
X245704251Y-74200849D01*
X245706716Y-74209474D01*
X245722472Y-74234445D01*
X245730605Y-74249519D01*
X245742822Y-74276389D01*
X245759550Y-74295803D01*
X245770654Y-74310810D01*
X245784331Y-74332486D01*
X245796344Y-74343095D01*
X245806453Y-74352023D01*
X245818500Y-74364219D01*
X245831905Y-74379777D01*
X245831909Y-74379780D01*
X245837766Y-74386578D01*
X245845295Y-74391458D01*
X245845296Y-74391459D01*
X245859271Y-74400517D01*
X245874145Y-74411807D01*
X245893351Y-74428769D01*
X245920077Y-74441317D01*
X245935048Y-74449633D01*
X245959821Y-74465690D01*
X245968425Y-74468263D01*
X245968427Y-74468264D01*
X245984377Y-74473034D01*
X246001822Y-74479696D01*
X246016887Y-74486769D01*
X246016889Y-74486769D01*
X246025013Y-74490584D01*
X246033877Y-74491964D01*
X246033886Y-74491967D01*
X246054180Y-74495127D01*
X246070891Y-74498908D01*
X246090572Y-74504793D01*
X246090575Y-74504793D01*
X246099174Y-74507365D01*
X246108146Y-74507420D01*
X246108147Y-74507420D01*
X246131998Y-74507566D01*
X246134838Y-74507684D01*
X246136865Y-74508000D01*
X246202622Y-74508000D01*
X246203392Y-74508002D01*
X246244622Y-74508254D01*
X246245454Y-74508016D01*
X246245692Y-74508000D01*
X260202622Y-74508000D01*
X260203392Y-74508002D01*
X260244622Y-74508254D01*
X260253251Y-74505788D01*
X260273013Y-74500141D01*
X260289770Y-74496564D01*
X260310097Y-74493653D01*
X260310100Y-74493652D01*
X260318982Y-74492380D01*
X260327152Y-74488665D01*
X260327156Y-74488664D01*
X260342305Y-74481776D01*
X260359833Y-74475327D01*
X260375842Y-74470752D01*
X260375849Y-74470749D01*
X260384474Y-74468284D01*
X260409445Y-74452528D01*
X260424519Y-74444395D01*
X260451389Y-74432178D01*
X260470803Y-74415450D01*
X260485810Y-74404346D01*
X260507486Y-74390669D01*
X260527026Y-74368544D01*
X260539219Y-74356500D01*
X260554777Y-74343095D01*
X260554780Y-74343091D01*
X260561578Y-74337234D01*
X260575517Y-74315729D01*
X260586807Y-74300855D01*
X260603769Y-74281649D01*
X260616317Y-74254923D01*
X260624633Y-74239952D01*
X260640690Y-74215179D01*
X260643876Y-74204526D01*
X260648034Y-74190623D01*
X260654696Y-74173178D01*
X260661769Y-74158113D01*
X260661769Y-74158111D01*
X260665584Y-74149987D01*
X260666964Y-74141123D01*
X260666967Y-74141114D01*
X260670127Y-74120820D01*
X260673908Y-74104109D01*
X260679793Y-74084428D01*
X260679793Y-74084425D01*
X260682365Y-74075826D01*
X260682566Y-74043002D01*
X260682684Y-74040162D01*
X260683000Y-74038135D01*
X260683000Y-73972378D01*
X260683002Y-73971608D01*
X260683239Y-73932817D01*
X260683254Y-73930378D01*
X260683016Y-73929546D01*
X260683000Y-73929308D01*
X260683000Y-59972378D01*
X260683002Y-59971608D01*
X260683017Y-59969175D01*
X260683254Y-59930378D01*
X260680788Y-59921749D01*
X260675141Y-59901987D01*
X260671564Y-59885230D01*
X260668653Y-59864903D01*
X260668652Y-59864900D01*
X260667380Y-59856018D01*
X260663665Y-59847848D01*
X260663664Y-59847844D01*
X260656776Y-59832695D01*
X260650327Y-59815167D01*
X260645752Y-59799158D01*
X260645749Y-59799151D01*
X260643284Y-59790526D01*
X260627528Y-59765555D01*
X260619395Y-59750481D01*
X260607178Y-59723611D01*
X260590450Y-59704197D01*
X260579346Y-59689190D01*
X260565669Y-59667514D01*
X260543544Y-59647974D01*
X260531500Y-59635781D01*
X260518095Y-59620223D01*
X260518091Y-59620220D01*
X260512234Y-59613422D01*
X260490729Y-59599483D01*
X260475855Y-59588193D01*
X260463378Y-59577174D01*
X260456649Y-59571231D01*
X260429923Y-59558683D01*
X260414952Y-59550367D01*
X260390179Y-59534310D01*
X260381575Y-59531737D01*
X260381573Y-59531736D01*
X260365623Y-59526966D01*
X260348178Y-59520304D01*
X260333113Y-59513231D01*
X260333111Y-59513231D01*
X260324987Y-59509416D01*
X260316123Y-59508036D01*
X260316114Y-59508033D01*
X260295820Y-59504873D01*
X260279109Y-59501092D01*
X260259428Y-59495207D01*
X260259425Y-59495207D01*
X260250826Y-59492635D01*
X260241854Y-59492580D01*
X260241853Y-59492580D01*
X260218002Y-59492434D01*
X260215162Y-59492316D01*
X260213135Y-59492000D01*
X260147378Y-59492000D01*
X260146608Y-59491998D01*
X260146052Y-59491995D01*
X260105378Y-59491746D01*
X260104546Y-59491984D01*
X260104308Y-59492000D01*
X246147378Y-59492000D01*
X246146608Y-59491998D01*
X246146352Y-59491996D01*
X246105378Y-59491746D01*
X246096750Y-59494212D01*
X246096749Y-59494212D01*
X246076987Y-59499859D01*
X246060230Y-59503436D01*
X246039903Y-59506347D01*
X246039900Y-59506348D01*
X246031018Y-59507620D01*
X246022848Y-59511335D01*
X246022844Y-59511336D01*
X246007695Y-59518224D01*
X245990167Y-59524673D01*
X245974158Y-59529248D01*
X245974151Y-59529251D01*
X245965526Y-59531716D01*
X245940555Y-59547472D01*
X245925487Y-59555603D01*
X245909348Y-59562940D01*
X245839059Y-59572924D01*
X245774529Y-59543321D01*
X245736247Y-59483530D01*
X245734684Y-59418823D01*
X245767480Y-59282220D01*
X245767481Y-59282214D01*
X245768635Y-59277407D01*
X245788500Y-59025000D01*
X245768635Y-58772593D01*
X245709530Y-58526401D01*
X245702007Y-58508239D01*
X245614534Y-58297060D01*
X245614532Y-58297056D01*
X245612639Y-58292486D01*
X245480349Y-58076608D01*
X245477138Y-58072848D01*
X245477134Y-58072843D01*
X245319130Y-57887845D01*
X245315917Y-57884083D01*
X245297295Y-57868178D01*
X245127157Y-57722866D01*
X245127152Y-57722862D01*
X245123392Y-57719651D01*
X244907514Y-57587361D01*
X244902944Y-57585468D01*
X244902940Y-57585466D01*
X244678172Y-57492364D01*
X244678170Y-57492363D01*
X244673599Y-57490470D01*
X244570382Y-57465690D01*
X244432220Y-57432520D01*
X244432214Y-57432519D01*
X244427407Y-57431365D01*
X244175000Y-57411500D01*
X243922593Y-57431365D01*
X243917786Y-57432519D01*
X243917780Y-57432520D01*
X243779618Y-57465690D01*
X243676401Y-57490470D01*
X243671830Y-57492363D01*
X243671828Y-57492364D01*
X243447060Y-57585466D01*
X243447056Y-57585468D01*
X243442486Y-57587361D01*
X243226608Y-57719651D01*
X243222848Y-57722862D01*
X243222843Y-57722866D01*
X243052705Y-57868178D01*
X243034083Y-57884083D01*
X242904925Y-58035307D01*
X242845477Y-58074115D01*
X242774482Y-58074623D01*
X242714483Y-58036666D01*
X242684530Y-57972298D01*
X242683118Y-57952709D01*
X242683239Y-57932818D01*
X242683254Y-57930378D01*
X242683016Y-57929546D01*
X242683000Y-57929308D01*
X242683000Y-43972378D01*
X242683002Y-43971608D01*
X242683037Y-43965939D01*
X242683254Y-43930378D01*
X242679023Y-43915572D01*
X242675141Y-43901987D01*
X242671564Y-43885230D01*
X242668653Y-43864903D01*
X242668652Y-43864900D01*
X242667380Y-43856018D01*
X242663665Y-43847848D01*
X242663664Y-43847844D01*
X242656776Y-43832695D01*
X242650327Y-43815167D01*
X242645752Y-43799158D01*
X242645749Y-43799151D01*
X242643284Y-43790526D01*
X242627528Y-43765555D01*
X242619395Y-43750481D01*
X242607178Y-43723611D01*
X242590450Y-43704197D01*
X242579346Y-43689190D01*
X242565669Y-43667514D01*
X242543544Y-43647974D01*
X242531500Y-43635781D01*
X242518095Y-43620223D01*
X242518091Y-43620220D01*
X242512234Y-43613422D01*
X242490729Y-43599483D01*
X242475855Y-43588193D01*
X242463378Y-43577174D01*
X242456649Y-43571231D01*
X242429923Y-43558683D01*
X242414952Y-43550367D01*
X242390179Y-43534310D01*
X242381575Y-43531737D01*
X242381573Y-43531736D01*
X242365623Y-43526966D01*
X242348178Y-43520304D01*
X242333113Y-43513231D01*
X242333111Y-43513231D01*
X242324987Y-43509416D01*
X242316123Y-43508036D01*
X242316114Y-43508033D01*
X242295820Y-43504873D01*
X242279109Y-43501092D01*
X242259428Y-43495207D01*
X242259425Y-43495207D01*
X242250826Y-43492635D01*
X242241854Y-43492580D01*
X242241853Y-43492580D01*
X242218002Y-43492434D01*
X242215162Y-43492316D01*
X242213135Y-43492000D01*
X242147378Y-43492000D01*
X242146608Y-43491998D01*
X242146052Y-43491995D01*
X242105378Y-43491746D01*
X242104546Y-43491984D01*
X242104308Y-43492000D01*
X228147378Y-43492000D01*
X228146608Y-43491998D01*
X228146352Y-43491996D01*
X228105378Y-43491746D01*
X228096750Y-43494212D01*
X228096749Y-43494212D01*
X228076987Y-43499859D01*
X228060230Y-43503436D01*
X228039903Y-43506347D01*
X228039900Y-43506348D01*
X228031018Y-43507620D01*
X228022848Y-43511335D01*
X228022844Y-43511336D01*
X228007695Y-43518224D01*
X227990167Y-43524673D01*
X227974158Y-43529248D01*
X227974151Y-43529251D01*
X227965526Y-43531716D01*
X227940555Y-43547472D01*
X227925481Y-43555605D01*
X227898611Y-43567822D01*
X227879197Y-43584550D01*
X227864190Y-43595654D01*
X227842514Y-43609331D01*
X227836572Y-43616059D01*
X227822977Y-43631453D01*
X227810781Y-43643500D01*
X227795223Y-43656905D01*
X227795220Y-43656909D01*
X227788422Y-43662766D01*
X227783542Y-43670295D01*
X227783541Y-43670296D01*
X227774483Y-43684271D01*
X227763193Y-43699145D01*
X227746231Y-43718351D01*
X227733683Y-43745077D01*
X227725367Y-43760048D01*
X227709310Y-43784821D01*
X227706737Y-43793425D01*
X227706736Y-43793427D01*
X227701966Y-43809377D01*
X227695304Y-43826822D01*
X227684416Y-43850013D01*
X227683036Y-43858877D01*
X227683033Y-43858886D01*
X227679873Y-43879180D01*
X227676092Y-43895891D01*
X227670207Y-43915572D01*
X227667635Y-43924174D01*
X227667580Y-43933146D01*
X227667580Y-43933147D01*
X227667434Y-43956998D01*
X227667316Y-43959838D01*
X227667000Y-43961865D01*
X227667000Y-44027622D01*
X227666998Y-44028392D01*
X227666746Y-44069622D01*
X226183000Y-44069622D01*
X226183000Y-43069622D01*
X245666746Y-43069622D01*
X245666984Y-43070454D01*
X245667000Y-43070692D01*
X245667000Y-57027622D01*
X245666998Y-57028392D01*
X245666746Y-57069622D01*
X245669212Y-57078250D01*
X245669212Y-57078251D01*
X245674859Y-57098013D01*
X245678436Y-57114770D01*
X245680113Y-57126476D01*
X245682620Y-57143982D01*
X245686335Y-57152152D01*
X245686336Y-57152156D01*
X245693224Y-57167305D01*
X245699673Y-57184833D01*
X245704248Y-57200842D01*
X245704251Y-57200849D01*
X245706716Y-57209474D01*
X245722472Y-57234445D01*
X245730605Y-57249519D01*
X245742822Y-57276389D01*
X245757769Y-57293736D01*
X245759550Y-57295803D01*
X245770654Y-57310810D01*
X245784331Y-57332486D01*
X245796344Y-57343095D01*
X245806453Y-57352023D01*
X245818500Y-57364219D01*
X245831905Y-57379777D01*
X245831909Y-57379780D01*
X245837766Y-57386578D01*
X245845295Y-57391458D01*
X245845296Y-57391459D01*
X245859271Y-57400517D01*
X245874145Y-57411807D01*
X245893351Y-57428769D01*
X245920077Y-57441317D01*
X245935048Y-57449633D01*
X245959821Y-57465690D01*
X245968425Y-57468263D01*
X245968427Y-57468264D01*
X245984377Y-57473034D01*
X246001822Y-57479696D01*
X246016887Y-57486769D01*
X246016889Y-57486769D01*
X246025013Y-57490584D01*
X246033877Y-57491964D01*
X246033886Y-57491967D01*
X246054180Y-57495127D01*
X246070891Y-57498908D01*
X246090572Y-57504793D01*
X246090575Y-57504793D01*
X246099174Y-57507365D01*
X246108146Y-57507420D01*
X246108147Y-57507420D01*
X246131998Y-57507566D01*
X246134838Y-57507684D01*
X246136865Y-57508000D01*
X246202622Y-57508000D01*
X246203392Y-57508002D01*
X246244622Y-57508254D01*
X246245454Y-57508016D01*
X246245692Y-57508000D01*
X260202622Y-57508000D01*
X260203392Y-57508002D01*
X260244622Y-57508254D01*
X260253251Y-57505788D01*
X260273013Y-57500141D01*
X260289770Y-57496564D01*
X260310097Y-57493653D01*
X260310100Y-57493652D01*
X260318982Y-57492380D01*
X260327152Y-57488665D01*
X260327156Y-57488664D01*
X260342305Y-57481776D01*
X260359833Y-57475327D01*
X260375842Y-57470752D01*
X260375849Y-57470749D01*
X260384474Y-57468284D01*
X260409445Y-57452528D01*
X260424519Y-57444395D01*
X260451389Y-57432178D01*
X260470803Y-57415450D01*
X260485810Y-57404346D01*
X260507486Y-57390669D01*
X260527026Y-57368544D01*
X260539219Y-57356500D01*
X260554777Y-57343095D01*
X260554780Y-57343091D01*
X260561578Y-57337234D01*
X260575517Y-57315729D01*
X260586807Y-57300855D01*
X260597826Y-57288378D01*
X260603769Y-57281649D01*
X260616317Y-57254923D01*
X260624633Y-57239952D01*
X260640690Y-57215179D01*
X260643264Y-57206573D01*
X260648034Y-57190623D01*
X260654696Y-57173178D01*
X260661769Y-57158113D01*
X260661769Y-57158111D01*
X260665584Y-57149987D01*
X260666964Y-57141123D01*
X260666967Y-57141114D01*
X260670127Y-57120820D01*
X260673908Y-57104109D01*
X260679793Y-57084428D01*
X260679793Y-57084425D01*
X260682365Y-57075826D01*
X260682481Y-57056905D01*
X260682566Y-57043002D01*
X260682684Y-57040162D01*
X260683000Y-57038135D01*
X260683000Y-56972378D01*
X260683002Y-56971608D01*
X260683103Y-56955037D01*
X260683254Y-56930378D01*
X260683016Y-56929546D01*
X260683000Y-56929308D01*
X260683000Y-55069622D01*
X263666746Y-55069622D01*
X263666984Y-55070454D01*
X263667000Y-55070692D01*
X263667000Y-69027622D01*
X263666998Y-69028392D01*
X263666746Y-69069622D01*
X263669212Y-69078250D01*
X263669212Y-69078251D01*
X263674859Y-69098013D01*
X263678436Y-69114770D01*
X263679303Y-69120820D01*
X263682620Y-69143982D01*
X263686335Y-69152152D01*
X263686336Y-69152156D01*
X263693224Y-69167305D01*
X263699673Y-69184833D01*
X263704248Y-69200842D01*
X263704251Y-69200849D01*
X263706716Y-69209474D01*
X263722472Y-69234445D01*
X263730605Y-69249519D01*
X263742822Y-69276389D01*
X263759550Y-69295803D01*
X263770654Y-69310810D01*
X263784331Y-69332486D01*
X263796344Y-69343095D01*
X263806453Y-69352023D01*
X263818500Y-69364219D01*
X263831905Y-69379777D01*
X263831909Y-69379780D01*
X263837766Y-69386578D01*
X263845295Y-69391458D01*
X263845296Y-69391459D01*
X263859271Y-69400517D01*
X263874145Y-69411807D01*
X263893351Y-69428769D01*
X263920077Y-69441317D01*
X263935048Y-69449633D01*
X263959821Y-69465690D01*
X263968425Y-69468263D01*
X263968427Y-69468264D01*
X263984377Y-69473034D01*
X264001822Y-69479696D01*
X264016887Y-69486769D01*
X264016889Y-69486769D01*
X264025013Y-69490584D01*
X264033877Y-69491964D01*
X264033886Y-69491967D01*
X264054180Y-69495127D01*
X264070891Y-69498908D01*
X264090572Y-69504793D01*
X264090575Y-69504793D01*
X264099174Y-69507365D01*
X264108146Y-69507420D01*
X264108147Y-69507420D01*
X264131998Y-69507566D01*
X264134838Y-69507684D01*
X264136865Y-69508000D01*
X264202622Y-69508000D01*
X264203392Y-69508002D01*
X264244622Y-69508254D01*
X264245454Y-69508016D01*
X264245692Y-69508000D01*
X278202622Y-69508000D01*
X278203392Y-69508002D01*
X278244622Y-69508254D01*
X278253251Y-69505788D01*
X278273013Y-69500141D01*
X278289770Y-69496564D01*
X278310097Y-69493653D01*
X278310100Y-69493652D01*
X278318982Y-69492380D01*
X278327152Y-69488665D01*
X278327156Y-69488664D01*
X278342305Y-69481776D01*
X278359833Y-69475327D01*
X278375842Y-69470752D01*
X278375849Y-69470749D01*
X278384474Y-69468284D01*
X278409445Y-69452528D01*
X278424519Y-69444395D01*
X278451389Y-69432178D01*
X278470803Y-69415450D01*
X278485810Y-69404346D01*
X278507486Y-69390669D01*
X278527026Y-69368544D01*
X278539219Y-69356500D01*
X278554777Y-69343095D01*
X278554780Y-69343091D01*
X278561578Y-69337234D01*
X278575517Y-69315729D01*
X278586807Y-69300855D01*
X278597826Y-69288378D01*
X278603769Y-69281649D01*
X278616317Y-69254923D01*
X278624633Y-69239952D01*
X278640690Y-69215179D01*
X278643264Y-69206573D01*
X278648034Y-69190623D01*
X278654696Y-69173178D01*
X278661769Y-69158113D01*
X278661769Y-69158111D01*
X278665584Y-69149987D01*
X278666964Y-69141123D01*
X278666967Y-69141114D01*
X278670127Y-69120820D01*
X278673908Y-69104109D01*
X278679793Y-69084428D01*
X278679793Y-69084425D01*
X278682365Y-69075826D01*
X278682566Y-69043002D01*
X278682684Y-69040162D01*
X278683000Y-69038135D01*
X278683000Y-68972378D01*
X278683002Y-68971608D01*
X278683239Y-68932817D01*
X278683254Y-68930378D01*
X278683016Y-68929546D01*
X278683000Y-68929308D01*
X278683000Y-54972378D01*
X278683002Y-54971608D01*
X278683052Y-54963416D01*
X278683254Y-54930378D01*
X278679023Y-54915572D01*
X278675141Y-54901987D01*
X278671564Y-54885230D01*
X278668653Y-54864903D01*
X278668652Y-54864900D01*
X278667380Y-54856018D01*
X278663665Y-54847848D01*
X278663664Y-54847844D01*
X278656776Y-54832695D01*
X278650327Y-54815167D01*
X278645752Y-54799158D01*
X278645749Y-54799151D01*
X278643284Y-54790526D01*
X278627528Y-54765555D01*
X278619395Y-54750481D01*
X278607178Y-54723611D01*
X278590450Y-54704197D01*
X278579346Y-54689190D01*
X278565669Y-54667514D01*
X278543544Y-54647974D01*
X278531500Y-54635781D01*
X278518095Y-54620223D01*
X278518091Y-54620220D01*
X278512234Y-54613422D01*
X278501668Y-54606573D01*
X278490729Y-54599483D01*
X278475855Y-54588193D01*
X278463378Y-54577174D01*
X278456649Y-54571231D01*
X278429923Y-54558683D01*
X278414952Y-54550367D01*
X278390179Y-54534310D01*
X278381575Y-54531737D01*
X278381573Y-54531736D01*
X278365623Y-54526966D01*
X278348178Y-54520304D01*
X278333113Y-54513231D01*
X278333111Y-54513231D01*
X278324987Y-54509416D01*
X278316123Y-54508036D01*
X278316114Y-54508033D01*
X278295820Y-54504873D01*
X278279109Y-54501092D01*
X278259428Y-54495207D01*
X278259425Y-54495207D01*
X278250826Y-54492635D01*
X278241854Y-54492580D01*
X278241853Y-54492580D01*
X278218002Y-54492434D01*
X278215162Y-54492316D01*
X278213135Y-54492000D01*
X278147378Y-54492000D01*
X278146608Y-54491998D01*
X278146052Y-54491995D01*
X278105378Y-54491746D01*
X278104546Y-54491984D01*
X278104308Y-54492000D01*
X264147378Y-54492000D01*
X264146608Y-54491998D01*
X264146352Y-54491996D01*
X264105378Y-54491746D01*
X264096750Y-54494212D01*
X264096749Y-54494212D01*
X264076987Y-54499859D01*
X264060230Y-54503436D01*
X264039903Y-54506347D01*
X264039900Y-54506348D01*
X264031018Y-54507620D01*
X264022848Y-54511335D01*
X264022844Y-54511336D01*
X264007695Y-54518224D01*
X263990167Y-54524673D01*
X263974158Y-54529248D01*
X263974151Y-54529251D01*
X263965526Y-54531716D01*
X263940555Y-54547472D01*
X263925481Y-54555605D01*
X263898611Y-54567822D01*
X263882556Y-54581656D01*
X263879197Y-54584550D01*
X263864190Y-54595654D01*
X263842514Y-54609331D01*
X263836572Y-54616059D01*
X263822977Y-54631453D01*
X263810781Y-54643500D01*
X263795223Y-54656905D01*
X263795220Y-54656909D01*
X263788422Y-54662766D01*
X263783542Y-54670295D01*
X263783541Y-54670296D01*
X263774483Y-54684271D01*
X263763193Y-54699145D01*
X263746231Y-54718351D01*
X263733683Y-54745077D01*
X263725367Y-54760048D01*
X263709310Y-54784821D01*
X263706737Y-54793425D01*
X263706736Y-54793427D01*
X263701966Y-54809377D01*
X263695304Y-54826822D01*
X263692547Y-54832695D01*
X263684416Y-54850013D01*
X263683036Y-54858877D01*
X263683033Y-54858886D01*
X263679873Y-54879180D01*
X263676092Y-54895891D01*
X263670207Y-54915572D01*
X263667635Y-54924174D01*
X263667580Y-54933146D01*
X263667580Y-54933147D01*
X263667434Y-54956998D01*
X263667316Y-54959838D01*
X263667000Y-54961865D01*
X263667000Y-55027622D01*
X263666998Y-55028392D01*
X263666746Y-55069622D01*
X260683000Y-55069622D01*
X260683000Y-53769622D01*
X281666746Y-53769622D01*
X281666984Y-53770454D01*
X281667000Y-53770692D01*
X281667000Y-67727622D01*
X281666998Y-67728392D01*
X281666746Y-67769622D01*
X281669212Y-67778250D01*
X281669212Y-67778251D01*
X281674859Y-67798013D01*
X281678436Y-67814770D01*
X281679303Y-67820820D01*
X281682620Y-67843982D01*
X281686335Y-67852152D01*
X281686336Y-67852156D01*
X281693224Y-67867305D01*
X281699673Y-67884833D01*
X281704248Y-67900842D01*
X281704251Y-67900849D01*
X281706716Y-67909474D01*
X281722472Y-67934445D01*
X281730605Y-67949519D01*
X281742822Y-67976389D01*
X281759550Y-67995803D01*
X281770654Y-68010810D01*
X281784331Y-68032486D01*
X281796344Y-68043095D01*
X281806453Y-68052023D01*
X281818500Y-68064219D01*
X281831905Y-68079777D01*
X281831909Y-68079780D01*
X281837766Y-68086578D01*
X281845295Y-68091458D01*
X281845296Y-68091459D01*
X281859271Y-68100517D01*
X281874145Y-68111807D01*
X281893351Y-68128769D01*
X281920077Y-68141317D01*
X281935048Y-68149633D01*
X281959821Y-68165690D01*
X281968425Y-68168263D01*
X281968427Y-68168264D01*
X281984377Y-68173034D01*
X282001822Y-68179696D01*
X282016887Y-68186769D01*
X282016889Y-68186769D01*
X282025013Y-68190584D01*
X282033877Y-68191964D01*
X282033886Y-68191967D01*
X282054180Y-68195127D01*
X282070891Y-68198908D01*
X282090572Y-68204793D01*
X282090575Y-68204793D01*
X282099174Y-68207365D01*
X282108146Y-68207420D01*
X282108147Y-68207420D01*
X282131998Y-68207566D01*
X282134838Y-68207684D01*
X282136865Y-68208000D01*
X282202622Y-68208000D01*
X282203392Y-68208002D01*
X282244622Y-68208254D01*
X282245454Y-68208016D01*
X282245692Y-68208000D01*
X296202622Y-68208000D01*
X296203392Y-68208002D01*
X296244622Y-68208254D01*
X296253251Y-68205788D01*
X296273013Y-68200141D01*
X296289770Y-68196564D01*
X296310097Y-68193653D01*
X296310100Y-68193652D01*
X296318982Y-68192380D01*
X296327152Y-68188665D01*
X296327156Y-68188664D01*
X296342305Y-68181776D01*
X296359833Y-68175327D01*
X296375842Y-68170752D01*
X296375849Y-68170749D01*
X296384474Y-68168284D01*
X296409445Y-68152528D01*
X296424519Y-68144395D01*
X296451389Y-68132178D01*
X296470803Y-68115450D01*
X296485810Y-68104346D01*
X296507486Y-68090669D01*
X296527026Y-68068544D01*
X296539219Y-68056500D01*
X296554777Y-68043095D01*
X296554780Y-68043091D01*
X296561578Y-68037234D01*
X296575517Y-68015729D01*
X296586807Y-68000855D01*
X296597826Y-67988378D01*
X296603769Y-67981649D01*
X296616317Y-67954923D01*
X296624633Y-67939952D01*
X296640690Y-67915179D01*
X296643264Y-67906573D01*
X296648034Y-67890623D01*
X296654696Y-67873178D01*
X296661769Y-67858113D01*
X296661769Y-67858111D01*
X296665584Y-67849987D01*
X296666964Y-67841123D01*
X296666967Y-67841114D01*
X296670127Y-67820820D01*
X296673908Y-67804109D01*
X296679793Y-67784428D01*
X296679793Y-67784425D01*
X296682365Y-67775826D01*
X296682566Y-67743002D01*
X296682684Y-67740162D01*
X296683000Y-67738135D01*
X296683000Y-67672378D01*
X296683002Y-67671608D01*
X296683239Y-67632817D01*
X296683254Y-67630378D01*
X296683016Y-67629546D01*
X296683000Y-67629308D01*
X296683000Y-55069622D01*
X299666746Y-55069622D01*
X299666984Y-55070454D01*
X299667000Y-55070692D01*
X299667000Y-69027622D01*
X299666998Y-69028392D01*
X299666746Y-69069622D01*
X299669212Y-69078250D01*
X299669212Y-69078251D01*
X299674859Y-69098013D01*
X299678436Y-69114770D01*
X299679303Y-69120820D01*
X299682620Y-69143982D01*
X299686335Y-69152152D01*
X299686336Y-69152156D01*
X299693224Y-69167305D01*
X299699673Y-69184833D01*
X299704248Y-69200842D01*
X299704251Y-69200849D01*
X299706716Y-69209474D01*
X299722472Y-69234445D01*
X299730605Y-69249519D01*
X299742822Y-69276389D01*
X299759550Y-69295803D01*
X299770654Y-69310810D01*
X299784331Y-69332486D01*
X299796344Y-69343095D01*
X299806453Y-69352023D01*
X299818500Y-69364219D01*
X299831905Y-69379777D01*
X299831909Y-69379780D01*
X299837766Y-69386578D01*
X299845295Y-69391458D01*
X299845296Y-69391459D01*
X299859271Y-69400517D01*
X299874145Y-69411807D01*
X299893351Y-69428769D01*
X299920077Y-69441317D01*
X299935048Y-69449633D01*
X299959821Y-69465690D01*
X299968425Y-69468263D01*
X299968427Y-69468264D01*
X299984377Y-69473034D01*
X300001822Y-69479696D01*
X300016887Y-69486769D01*
X300016889Y-69486769D01*
X300025013Y-69490584D01*
X300033877Y-69491964D01*
X300033886Y-69491967D01*
X300054180Y-69495127D01*
X300070891Y-69498908D01*
X300090572Y-69504793D01*
X300090575Y-69504793D01*
X300099174Y-69507365D01*
X300108146Y-69507420D01*
X300108147Y-69507420D01*
X300131998Y-69507566D01*
X300134838Y-69507684D01*
X300136865Y-69508000D01*
X300202622Y-69508000D01*
X300203392Y-69508002D01*
X300244622Y-69508254D01*
X300245454Y-69508016D01*
X300245692Y-69508000D01*
X314202622Y-69508000D01*
X314203392Y-69508002D01*
X314244622Y-69508254D01*
X314253251Y-69505788D01*
X314273013Y-69500141D01*
X314289770Y-69496564D01*
X314310097Y-69493653D01*
X314310100Y-69493652D01*
X314318982Y-69492380D01*
X314327152Y-69488665D01*
X314327156Y-69488664D01*
X314342305Y-69481776D01*
X314359833Y-69475327D01*
X314375842Y-69470752D01*
X314375849Y-69470749D01*
X314384474Y-69468284D01*
X314409445Y-69452528D01*
X314424519Y-69444395D01*
X314451389Y-69432178D01*
X314470803Y-69415450D01*
X314485810Y-69404346D01*
X314507486Y-69390669D01*
X314527026Y-69368544D01*
X314539219Y-69356500D01*
X314554777Y-69343095D01*
X314554780Y-69343091D01*
X314561578Y-69337234D01*
X314575517Y-69315729D01*
X314586807Y-69300855D01*
X314597826Y-69288378D01*
X314603769Y-69281649D01*
X314616317Y-69254923D01*
X314624633Y-69239952D01*
X314640690Y-69215179D01*
X314643264Y-69206573D01*
X314648034Y-69190623D01*
X314654696Y-69173178D01*
X314661769Y-69158113D01*
X314661769Y-69158111D01*
X314665584Y-69149987D01*
X314666964Y-69141123D01*
X314666967Y-69141114D01*
X314670127Y-69120820D01*
X314673908Y-69104109D01*
X314679793Y-69084428D01*
X314679793Y-69084425D01*
X314682365Y-69075826D01*
X314682566Y-69043002D01*
X314682684Y-69040162D01*
X314683000Y-69038135D01*
X314683000Y-68972378D01*
X314683002Y-68971608D01*
X314683239Y-68932817D01*
X314683254Y-68930378D01*
X314683016Y-68929546D01*
X314683000Y-68929308D01*
X314683000Y-57469622D01*
X317666746Y-57469622D01*
X317666984Y-57470454D01*
X317667000Y-57470692D01*
X317667000Y-71427622D01*
X317666998Y-71428392D01*
X317666746Y-71469622D01*
X317669212Y-71478250D01*
X317669212Y-71478251D01*
X317674859Y-71498013D01*
X317678436Y-71514770D01*
X317679303Y-71520820D01*
X317682620Y-71543982D01*
X317686335Y-71552152D01*
X317686336Y-71552156D01*
X317693224Y-71567305D01*
X317699673Y-71584833D01*
X317704248Y-71600842D01*
X317704251Y-71600849D01*
X317706716Y-71609474D01*
X317722472Y-71634445D01*
X317730605Y-71649519D01*
X317742822Y-71676389D01*
X317759550Y-71695803D01*
X317770654Y-71710810D01*
X317784331Y-71732486D01*
X317796344Y-71743095D01*
X317806453Y-71752023D01*
X317818500Y-71764219D01*
X317831905Y-71779777D01*
X317831909Y-71779780D01*
X317837766Y-71786578D01*
X317845295Y-71791458D01*
X317845296Y-71791459D01*
X317859271Y-71800517D01*
X317874145Y-71811807D01*
X317893351Y-71828769D01*
X317920077Y-71841317D01*
X317935048Y-71849633D01*
X317959821Y-71865690D01*
X317968425Y-71868263D01*
X317968427Y-71868264D01*
X317984377Y-71873034D01*
X318001822Y-71879696D01*
X318016887Y-71886769D01*
X318016889Y-71886769D01*
X318025013Y-71890584D01*
X318033877Y-71891964D01*
X318033886Y-71891967D01*
X318054180Y-71895127D01*
X318070891Y-71898908D01*
X318090572Y-71904793D01*
X318090575Y-71904793D01*
X318099174Y-71907365D01*
X318108146Y-71907420D01*
X318108147Y-71907420D01*
X318131998Y-71907566D01*
X318134838Y-71907684D01*
X318136865Y-71908000D01*
X318202622Y-71908000D01*
X318203392Y-71908002D01*
X318244622Y-71908254D01*
X318245454Y-71908016D01*
X318245692Y-71908000D01*
X332202622Y-71908000D01*
X332203392Y-71908002D01*
X332244622Y-71908254D01*
X332253251Y-71905788D01*
X332273013Y-71900141D01*
X332289770Y-71896564D01*
X332310097Y-71893653D01*
X332310100Y-71893652D01*
X332318982Y-71892380D01*
X332327152Y-71888665D01*
X332327156Y-71888664D01*
X332342305Y-71881776D01*
X332359833Y-71875327D01*
X332375842Y-71870752D01*
X332375849Y-71870749D01*
X332384474Y-71868284D01*
X332409445Y-71852528D01*
X332424519Y-71844395D01*
X332451389Y-71832178D01*
X332470803Y-71815450D01*
X332485810Y-71804346D01*
X332507486Y-71790669D01*
X332527026Y-71768544D01*
X332539219Y-71756500D01*
X332554777Y-71743095D01*
X332554780Y-71743091D01*
X332561578Y-71737234D01*
X332575517Y-71715729D01*
X332586807Y-71700855D01*
X332597826Y-71688378D01*
X332603769Y-71681649D01*
X332616317Y-71654923D01*
X332624633Y-71639952D01*
X332640690Y-71615179D01*
X332643264Y-71606573D01*
X332648034Y-71590623D01*
X332654696Y-71573178D01*
X332661769Y-71558113D01*
X332661769Y-71558111D01*
X332665584Y-71549987D01*
X332666964Y-71541123D01*
X332666967Y-71541114D01*
X332670127Y-71520820D01*
X332673908Y-71504109D01*
X332679793Y-71484428D01*
X332679793Y-71484425D01*
X332682365Y-71475826D01*
X332682566Y-71443002D01*
X332682684Y-71440162D01*
X332683000Y-71438135D01*
X332683000Y-71372378D01*
X332683002Y-71371608D01*
X332683239Y-71332817D01*
X332683254Y-71330378D01*
X332683016Y-71329546D01*
X332683000Y-71329308D01*
X332683000Y-57372378D01*
X332683002Y-57371608D01*
X332683060Y-57362107D01*
X332683254Y-57330378D01*
X332680788Y-57321749D01*
X332675141Y-57301987D01*
X332671564Y-57285230D01*
X332668653Y-57264903D01*
X332668652Y-57264900D01*
X332667380Y-57256018D01*
X332663665Y-57247848D01*
X332663664Y-57247844D01*
X332656776Y-57232695D01*
X332650327Y-57215167D01*
X332645752Y-57199158D01*
X332645749Y-57199151D01*
X332643284Y-57190526D01*
X332627528Y-57165555D01*
X332619395Y-57150481D01*
X332607178Y-57123611D01*
X332590450Y-57104197D01*
X332579346Y-57089190D01*
X332565669Y-57067514D01*
X332543544Y-57047974D01*
X332531500Y-57035781D01*
X332518095Y-57020223D01*
X332518091Y-57020220D01*
X332512234Y-57013422D01*
X332490729Y-56999483D01*
X332475855Y-56988193D01*
X332463378Y-56977174D01*
X332456649Y-56971231D01*
X332429923Y-56958683D01*
X332414952Y-56950367D01*
X332390179Y-56934310D01*
X332381575Y-56931737D01*
X332381573Y-56931736D01*
X332365623Y-56926966D01*
X332348178Y-56920304D01*
X332333113Y-56913231D01*
X332333111Y-56913231D01*
X332324987Y-56909416D01*
X332316123Y-56908036D01*
X332316114Y-56908033D01*
X332295820Y-56904873D01*
X332279109Y-56901092D01*
X332259428Y-56895207D01*
X332259425Y-56895207D01*
X332250826Y-56892635D01*
X332241854Y-56892580D01*
X332241853Y-56892580D01*
X332218002Y-56892434D01*
X332215162Y-56892316D01*
X332213135Y-56892000D01*
X332147378Y-56892000D01*
X332146608Y-56891998D01*
X332146052Y-56891995D01*
X332105378Y-56891746D01*
X332104546Y-56891984D01*
X332104308Y-56892000D01*
X318147378Y-56892000D01*
X318146608Y-56891998D01*
X318146352Y-56891996D01*
X318105378Y-56891746D01*
X318096750Y-56894212D01*
X318096749Y-56894212D01*
X318076987Y-56899859D01*
X318060230Y-56903436D01*
X318039903Y-56906347D01*
X318039900Y-56906348D01*
X318031018Y-56907620D01*
X318022848Y-56911335D01*
X318022844Y-56911336D01*
X318007695Y-56918224D01*
X317990167Y-56924673D01*
X317974158Y-56929248D01*
X317974151Y-56929251D01*
X317965526Y-56931716D01*
X317940555Y-56947472D01*
X317925481Y-56955605D01*
X317898611Y-56967822D01*
X317879197Y-56984550D01*
X317864190Y-56995654D01*
X317842514Y-57009331D01*
X317836572Y-57016059D01*
X317822977Y-57031453D01*
X317810781Y-57043500D01*
X317795223Y-57056905D01*
X317795220Y-57056909D01*
X317788422Y-57062766D01*
X317783542Y-57070295D01*
X317783541Y-57070296D01*
X317774483Y-57084271D01*
X317763193Y-57099145D01*
X317746231Y-57118351D01*
X317733683Y-57145077D01*
X317725367Y-57160048D01*
X317709310Y-57184821D01*
X317706737Y-57193425D01*
X317706736Y-57193427D01*
X317701966Y-57209377D01*
X317695304Y-57226822D01*
X317689144Y-57239943D01*
X317684416Y-57250013D01*
X317683036Y-57258877D01*
X317683033Y-57258886D01*
X317679873Y-57279180D01*
X317676092Y-57295891D01*
X317670207Y-57315572D01*
X317667635Y-57324174D01*
X317667580Y-57333146D01*
X317667580Y-57333147D01*
X317667434Y-57356998D01*
X317667316Y-57359838D01*
X317667000Y-57361865D01*
X317667000Y-57427622D01*
X317666998Y-57428392D01*
X317666746Y-57469622D01*
X314683000Y-57469622D01*
X314683000Y-55796389D01*
X314703002Y-55728268D01*
X314756658Y-55681775D01*
X314826932Y-55671671D01*
X314891512Y-55701165D01*
X314904811Y-55714559D01*
X315034083Y-55865917D01*
X315037845Y-55869130D01*
X315222843Y-56027134D01*
X315222848Y-56027138D01*
X315226608Y-56030349D01*
X315442486Y-56162639D01*
X315447056Y-56164532D01*
X315447060Y-56164534D01*
X315671828Y-56257636D01*
X315676401Y-56259530D01*
X315761106Y-56279866D01*
X315917780Y-56317480D01*
X315917786Y-56317481D01*
X315922593Y-56318635D01*
X316175000Y-56338500D01*
X316427407Y-56318635D01*
X316432214Y-56317481D01*
X316432220Y-56317480D01*
X316588894Y-56279866D01*
X316673599Y-56259530D01*
X316678172Y-56257636D01*
X316902940Y-56164534D01*
X316902944Y-56164532D01*
X316907514Y-56162639D01*
X317123392Y-56030349D01*
X317127152Y-56027138D01*
X317127157Y-56027134D01*
X317312155Y-55869130D01*
X317315917Y-55865917D01*
X317375300Y-55796389D01*
X317477134Y-55677157D01*
X317477138Y-55677152D01*
X317480349Y-55673392D01*
X317612639Y-55457514D01*
X317709530Y-55223599D01*
X317729866Y-55138894D01*
X317767480Y-54982220D01*
X317767481Y-54982214D01*
X317768635Y-54977407D01*
X317769023Y-54972478D01*
X317769024Y-54972471D01*
X317769736Y-54963416D01*
X317795019Y-54897074D01*
X317852156Y-54854932D01*
X317923006Y-54850371D01*
X317948198Y-54858918D01*
X317952291Y-54860809D01*
X317959821Y-54865690D01*
X317968417Y-54868261D01*
X317968420Y-54868262D01*
X317984377Y-54873034D01*
X318001822Y-54879696D01*
X318016887Y-54886769D01*
X318016889Y-54886769D01*
X318025013Y-54890584D01*
X318033877Y-54891964D01*
X318033886Y-54891967D01*
X318054180Y-54895127D01*
X318070891Y-54898908D01*
X318090572Y-54904793D01*
X318090575Y-54904793D01*
X318099174Y-54907365D01*
X318108146Y-54907420D01*
X318108147Y-54907420D01*
X318131998Y-54907566D01*
X318134838Y-54907684D01*
X318136865Y-54908000D01*
X318202622Y-54908000D01*
X318203392Y-54908002D01*
X318244622Y-54908254D01*
X318245454Y-54908016D01*
X318245692Y-54908000D01*
X332202622Y-54908000D01*
X332203392Y-54908002D01*
X332244622Y-54908254D01*
X332253251Y-54905788D01*
X332273013Y-54900141D01*
X332289770Y-54896564D01*
X332310097Y-54893653D01*
X332310100Y-54893652D01*
X332318982Y-54892380D01*
X332327152Y-54888665D01*
X332327156Y-54888664D01*
X332342305Y-54881776D01*
X332359833Y-54875327D01*
X332375842Y-54870752D01*
X332375849Y-54870749D01*
X332384474Y-54868284D01*
X332409445Y-54852528D01*
X332424519Y-54844395D01*
X332451389Y-54832178D01*
X332470803Y-54815450D01*
X332485810Y-54804346D01*
X332507486Y-54790669D01*
X332527026Y-54768544D01*
X332539219Y-54756500D01*
X332554777Y-54743095D01*
X332554780Y-54743091D01*
X332561578Y-54737234D01*
X332573818Y-54718351D01*
X332575517Y-54715729D01*
X332586807Y-54700855D01*
X332594515Y-54692127D01*
X332603769Y-54681649D01*
X332616317Y-54654923D01*
X332624633Y-54639952D01*
X332640690Y-54615179D01*
X332648023Y-54590659D01*
X332648034Y-54590623D01*
X332654696Y-54573178D01*
X332661769Y-54558113D01*
X332661769Y-54558111D01*
X332665584Y-54549987D01*
X332666964Y-54541123D01*
X332666967Y-54541114D01*
X332670127Y-54520820D01*
X332673908Y-54504109D01*
X332679793Y-54484428D01*
X332679793Y-54484425D01*
X332682365Y-54475826D01*
X332682566Y-54443002D01*
X332682684Y-54440162D01*
X332683000Y-54438135D01*
X332683000Y-54372378D01*
X332683002Y-54371608D01*
X332683239Y-54332817D01*
X332683254Y-54330378D01*
X332683016Y-54329546D01*
X332683000Y-54329308D01*
X332683000Y-52569622D01*
X338666746Y-52569622D01*
X338666984Y-52570454D01*
X338667000Y-52570692D01*
X338667000Y-66527622D01*
X338666998Y-66528392D01*
X338666746Y-66569622D01*
X338669212Y-66578250D01*
X338669212Y-66578251D01*
X338674859Y-66598013D01*
X338678436Y-66614770D01*
X338679303Y-66620820D01*
X338682620Y-66643982D01*
X338686335Y-66652152D01*
X338686336Y-66652156D01*
X338693224Y-66667305D01*
X338699673Y-66684833D01*
X338704248Y-66700842D01*
X338704251Y-66700849D01*
X338706716Y-66709474D01*
X338722472Y-66734445D01*
X338730605Y-66749519D01*
X338742822Y-66776389D01*
X338759550Y-66795803D01*
X338770654Y-66810810D01*
X338784331Y-66832486D01*
X338796344Y-66843095D01*
X338806453Y-66852023D01*
X338818500Y-66864219D01*
X338831905Y-66879777D01*
X338831909Y-66879780D01*
X338837766Y-66886578D01*
X338845295Y-66891458D01*
X338845296Y-66891459D01*
X338859271Y-66900517D01*
X338874145Y-66911807D01*
X338893351Y-66928769D01*
X338920077Y-66941317D01*
X338935048Y-66949633D01*
X338959821Y-66965690D01*
X338968425Y-66968263D01*
X338968427Y-66968264D01*
X338984377Y-66973034D01*
X339001822Y-66979696D01*
X339016887Y-66986769D01*
X339016889Y-66986769D01*
X339025013Y-66990584D01*
X339033877Y-66991964D01*
X339033886Y-66991967D01*
X339054180Y-66995127D01*
X339070891Y-66998908D01*
X339090572Y-67004793D01*
X339090575Y-67004793D01*
X339099174Y-67007365D01*
X339108146Y-67007420D01*
X339108147Y-67007420D01*
X339131998Y-67007566D01*
X339134838Y-67007684D01*
X339136865Y-67008000D01*
X339202622Y-67008000D01*
X339203392Y-67008002D01*
X339244622Y-67008254D01*
X339245454Y-67008016D01*
X339245692Y-67008000D01*
X356202622Y-67008000D01*
X356203392Y-67008002D01*
X356244622Y-67008254D01*
X356253251Y-67005788D01*
X356273013Y-67000141D01*
X356289770Y-66996564D01*
X356310097Y-66993653D01*
X356310100Y-66993652D01*
X356318982Y-66992380D01*
X356327152Y-66988665D01*
X356327156Y-66988664D01*
X356342305Y-66981776D01*
X356359833Y-66975327D01*
X356375842Y-66970752D01*
X356375849Y-66970749D01*
X356384474Y-66968284D01*
X356409445Y-66952528D01*
X356424519Y-66944395D01*
X356451389Y-66932178D01*
X356470803Y-66915450D01*
X356485810Y-66904346D01*
X356507486Y-66890669D01*
X356527026Y-66868544D01*
X356539219Y-66856500D01*
X356554777Y-66843095D01*
X356554780Y-66843091D01*
X356561578Y-66837234D01*
X356575517Y-66815729D01*
X356586807Y-66800855D01*
X356597826Y-66788378D01*
X356603769Y-66781649D01*
X356616317Y-66754923D01*
X356624633Y-66739952D01*
X356640690Y-66715179D01*
X356643264Y-66706573D01*
X356648034Y-66690623D01*
X356654696Y-66673178D01*
X356661769Y-66658113D01*
X356661769Y-66658111D01*
X356665584Y-66649987D01*
X356666964Y-66641123D01*
X356666967Y-66641114D01*
X356670127Y-66620820D01*
X356673908Y-66604109D01*
X356679793Y-66584428D01*
X356679793Y-66584425D01*
X356682365Y-66575826D01*
X356682566Y-66543002D01*
X356682684Y-66540162D01*
X356683000Y-66538135D01*
X356683000Y-66472378D01*
X356683002Y-66471608D01*
X356683239Y-66432817D01*
X356683254Y-66430378D01*
X356683016Y-66429546D01*
X356683000Y-66429308D01*
X356683000Y-52472378D01*
X356683002Y-52471608D01*
X356683052Y-52463496D01*
X356683254Y-52430378D01*
X356677242Y-52409341D01*
X356675141Y-52401987D01*
X356671564Y-52385230D01*
X356668653Y-52364903D01*
X356668652Y-52364900D01*
X356667380Y-52356018D01*
X356663665Y-52347848D01*
X356663664Y-52347844D01*
X356656776Y-52332695D01*
X356650327Y-52315167D01*
X356645752Y-52299158D01*
X356645749Y-52299151D01*
X356643284Y-52290526D01*
X356627528Y-52265555D01*
X356619395Y-52250481D01*
X356607178Y-52223611D01*
X356590450Y-52204197D01*
X356579346Y-52189190D01*
X356565669Y-52167514D01*
X356543544Y-52147974D01*
X356531500Y-52135781D01*
X356518095Y-52120223D01*
X356518091Y-52120220D01*
X356512234Y-52113422D01*
X356490729Y-52099483D01*
X356475855Y-52088193D01*
X356463378Y-52077174D01*
X356456649Y-52071231D01*
X356429923Y-52058683D01*
X356414952Y-52050367D01*
X356390179Y-52034310D01*
X356381575Y-52031737D01*
X356381573Y-52031736D01*
X356365623Y-52026966D01*
X356348178Y-52020304D01*
X356333113Y-52013231D01*
X356333111Y-52013231D01*
X356324987Y-52009416D01*
X356316123Y-52008036D01*
X356316114Y-52008033D01*
X356295820Y-52004873D01*
X356279109Y-52001092D01*
X356259428Y-51995207D01*
X356259425Y-51995207D01*
X356250826Y-51992635D01*
X356241854Y-51992580D01*
X356241853Y-51992580D01*
X356218002Y-51992434D01*
X356215162Y-51992316D01*
X356213135Y-51992000D01*
X356147378Y-51992000D01*
X356146608Y-51991998D01*
X356146052Y-51991995D01*
X356105378Y-51991746D01*
X356104546Y-51991984D01*
X356104308Y-51992000D01*
X339147378Y-51992000D01*
X339146608Y-51991998D01*
X339146352Y-51991996D01*
X339105378Y-51991746D01*
X339096750Y-51994212D01*
X339096749Y-51994212D01*
X339076987Y-51999859D01*
X339060230Y-52003436D01*
X339039903Y-52006347D01*
X339039900Y-52006348D01*
X339031018Y-52007620D01*
X339022848Y-52011335D01*
X339022844Y-52011336D01*
X339007695Y-52018224D01*
X338990167Y-52024673D01*
X338974158Y-52029248D01*
X338974151Y-52029251D01*
X338965526Y-52031716D01*
X338940555Y-52047472D01*
X338925481Y-52055605D01*
X338898611Y-52067822D01*
X338879339Y-52084428D01*
X338879197Y-52084550D01*
X338864190Y-52095654D01*
X338842514Y-52109331D01*
X338836572Y-52116059D01*
X338822977Y-52131453D01*
X338810781Y-52143500D01*
X338795223Y-52156905D01*
X338795220Y-52156909D01*
X338788422Y-52162766D01*
X338783542Y-52170295D01*
X338783541Y-52170296D01*
X338774483Y-52184271D01*
X338763193Y-52199145D01*
X338746231Y-52218351D01*
X338733683Y-52245077D01*
X338725367Y-52260048D01*
X338709310Y-52284821D01*
X338706737Y-52293425D01*
X338706736Y-52293427D01*
X338701966Y-52309377D01*
X338695304Y-52326822D01*
X338684416Y-52350013D01*
X338683036Y-52358877D01*
X338683033Y-52358886D01*
X338679873Y-52379180D01*
X338676092Y-52395891D01*
X338670207Y-52415572D01*
X338667635Y-52424174D01*
X338667580Y-52433146D01*
X338667580Y-52433147D01*
X338667434Y-52456998D01*
X338667316Y-52459838D01*
X338667000Y-52461865D01*
X338667000Y-52527622D01*
X338666998Y-52528392D01*
X338666746Y-52569622D01*
X332683000Y-52569622D01*
X332683000Y-40372378D01*
X332683002Y-40371608D01*
X332683060Y-40362107D01*
X332683254Y-40330378D01*
X332680788Y-40321749D01*
X332675141Y-40301987D01*
X332671564Y-40285230D01*
X332668653Y-40264903D01*
X332668652Y-40264900D01*
X332667380Y-40256018D01*
X332663665Y-40247848D01*
X332663664Y-40247844D01*
X332656776Y-40232695D01*
X332650327Y-40215167D01*
X332645752Y-40199158D01*
X332645749Y-40199151D01*
X332643284Y-40190526D01*
X332627528Y-40165555D01*
X332619395Y-40150481D01*
X332607178Y-40123611D01*
X332590450Y-40104197D01*
X332579346Y-40089190D01*
X332565669Y-40067514D01*
X332543544Y-40047974D01*
X332531500Y-40035781D01*
X332518095Y-40020223D01*
X332518091Y-40020220D01*
X332512234Y-40013422D01*
X332490729Y-39999483D01*
X332475855Y-39988193D01*
X332463378Y-39977174D01*
X332456649Y-39971231D01*
X332429923Y-39958683D01*
X332414952Y-39950367D01*
X332390179Y-39934310D01*
X332381575Y-39931737D01*
X332381573Y-39931736D01*
X332365623Y-39926966D01*
X332348178Y-39920304D01*
X332333113Y-39913231D01*
X332333111Y-39913231D01*
X332324987Y-39909416D01*
X332316123Y-39908036D01*
X332316114Y-39908033D01*
X332295820Y-39904873D01*
X332279109Y-39901092D01*
X332259428Y-39895207D01*
X332259425Y-39895207D01*
X332250826Y-39892635D01*
X332241854Y-39892580D01*
X332241853Y-39892580D01*
X332218002Y-39892434D01*
X332215162Y-39892316D01*
X332213135Y-39892000D01*
X332147378Y-39892000D01*
X332146608Y-39891998D01*
X332146052Y-39891995D01*
X332105378Y-39891746D01*
X332104546Y-39891984D01*
X332104308Y-39892000D01*
X318147378Y-39892000D01*
X318146608Y-39891998D01*
X318146352Y-39891996D01*
X318105378Y-39891746D01*
X318096750Y-39894212D01*
X318096749Y-39894212D01*
X318076987Y-39899859D01*
X318060230Y-39903436D01*
X318039903Y-39906347D01*
X318039900Y-39906348D01*
X318031018Y-39907620D01*
X318022848Y-39911335D01*
X318022844Y-39911336D01*
X318007695Y-39918224D01*
X317990167Y-39924673D01*
X317974158Y-39929248D01*
X317974151Y-39929251D01*
X317965526Y-39931716D01*
X317940555Y-39947472D01*
X317925481Y-39955605D01*
X317898611Y-39967822D01*
X317879197Y-39984550D01*
X317864190Y-39995654D01*
X317842514Y-40009331D01*
X317836572Y-40016059D01*
X317822977Y-40031453D01*
X317810781Y-40043500D01*
X317795223Y-40056905D01*
X317795220Y-40056909D01*
X317788422Y-40062766D01*
X317783542Y-40070295D01*
X317783541Y-40070296D01*
X317774483Y-40084271D01*
X317763193Y-40099145D01*
X317746231Y-40118351D01*
X317733683Y-40145077D01*
X317725367Y-40160048D01*
X317709310Y-40184821D01*
X317706737Y-40193425D01*
X317706736Y-40193427D01*
X317701966Y-40209377D01*
X317695304Y-40226822D01*
X317689144Y-40239943D01*
X317684416Y-40250013D01*
X317683036Y-40258877D01*
X317683033Y-40258886D01*
X317679873Y-40279180D01*
X317676092Y-40295891D01*
X317670207Y-40315572D01*
X317667635Y-40324174D01*
X317667580Y-40333146D01*
X317667580Y-40333147D01*
X317667434Y-40356998D01*
X317667316Y-40359838D01*
X317667000Y-40361865D01*
X317667000Y-40427622D01*
X317666998Y-40428392D01*
X317666746Y-40469622D01*
X317666984Y-40470454D01*
X317667000Y-40470692D01*
X317667000Y-53653611D01*
X317646998Y-53721732D01*
X317593342Y-53768225D01*
X317523068Y-53778329D01*
X317458488Y-53748835D01*
X317445189Y-53735441D01*
X317319130Y-53587845D01*
X317315917Y-53584083D01*
X317266512Y-53541887D01*
X317127157Y-53422866D01*
X317127152Y-53422862D01*
X317123392Y-53419651D01*
X316927295Y-53299483D01*
X316911734Y-53289947D01*
X316907514Y-53287361D01*
X316902944Y-53285468D01*
X316902940Y-53285466D01*
X316678172Y-53192364D01*
X316678170Y-53192363D01*
X316673599Y-53190470D01*
X316588894Y-53170134D01*
X316432220Y-53132520D01*
X316432214Y-53132519D01*
X316427407Y-53131365D01*
X316175000Y-53111500D01*
X315922593Y-53131365D01*
X315917786Y-53132519D01*
X315917780Y-53132520D01*
X315761106Y-53170134D01*
X315676401Y-53190470D01*
X315671830Y-53192363D01*
X315671828Y-53192364D01*
X315447060Y-53285466D01*
X315447056Y-53285468D01*
X315442486Y-53287361D01*
X315438266Y-53289947D01*
X315422705Y-53299483D01*
X315226608Y-53419651D01*
X315222848Y-53422862D01*
X315222843Y-53422866D01*
X315083488Y-53541887D01*
X315034083Y-53584083D01*
X315030870Y-53587845D01*
X314872866Y-53772843D01*
X314872862Y-53772848D01*
X314869651Y-53776608D01*
X314737361Y-53992486D01*
X314640470Y-54226401D01*
X314615721Y-54329489D01*
X314584380Y-54460034D01*
X314549028Y-54521603D01*
X314486001Y-54554286D01*
X314415310Y-54547706D01*
X314405909Y-54542850D01*
X314405859Y-54542958D01*
X314397716Y-54539196D01*
X314390179Y-54534310D01*
X314381575Y-54531737D01*
X314381573Y-54531736D01*
X314365623Y-54526966D01*
X314348178Y-54520304D01*
X314333113Y-54513231D01*
X314333111Y-54513231D01*
X314324987Y-54509416D01*
X314316123Y-54508036D01*
X314316114Y-54508033D01*
X314295820Y-54504873D01*
X314279109Y-54501092D01*
X314259428Y-54495207D01*
X314259425Y-54495207D01*
X314250826Y-54492635D01*
X314241854Y-54492580D01*
X314241853Y-54492580D01*
X314218002Y-54492434D01*
X314215162Y-54492316D01*
X314213135Y-54492000D01*
X314147378Y-54492000D01*
X314146608Y-54491998D01*
X314146052Y-54491995D01*
X314105378Y-54491746D01*
X314104546Y-54491984D01*
X314104308Y-54492000D01*
X300147378Y-54492000D01*
X300146608Y-54491998D01*
X300146352Y-54491996D01*
X300105378Y-54491746D01*
X300096750Y-54494212D01*
X300096749Y-54494212D01*
X300076987Y-54499859D01*
X300060230Y-54503436D01*
X300039903Y-54506347D01*
X300039900Y-54506348D01*
X300031018Y-54507620D01*
X300022848Y-54511335D01*
X300022844Y-54511336D01*
X300007695Y-54518224D01*
X299990167Y-54524673D01*
X299974158Y-54529248D01*
X299974151Y-54529251D01*
X299965526Y-54531716D01*
X299940555Y-54547472D01*
X299925481Y-54555605D01*
X299898611Y-54567822D01*
X299882556Y-54581656D01*
X299879197Y-54584550D01*
X299864190Y-54595654D01*
X299842514Y-54609331D01*
X299836572Y-54616059D01*
X299822977Y-54631453D01*
X299810781Y-54643500D01*
X299795223Y-54656905D01*
X299795220Y-54656909D01*
X299788422Y-54662766D01*
X299783542Y-54670295D01*
X299783541Y-54670296D01*
X299774483Y-54684271D01*
X299763193Y-54699145D01*
X299746231Y-54718351D01*
X299733683Y-54745077D01*
X299725367Y-54760048D01*
X299709310Y-54784821D01*
X299706737Y-54793425D01*
X299706736Y-54793427D01*
X299701966Y-54809377D01*
X299695304Y-54826822D01*
X299692547Y-54832695D01*
X299684416Y-54850013D01*
X299683036Y-54858877D01*
X299683033Y-54858886D01*
X299679873Y-54879180D01*
X299676092Y-54895891D01*
X299670207Y-54915572D01*
X299667635Y-54924174D01*
X299667580Y-54933146D01*
X299667580Y-54933147D01*
X299667434Y-54956998D01*
X299667316Y-54959838D01*
X299667000Y-54961865D01*
X299667000Y-55027622D01*
X299666998Y-55028392D01*
X299666746Y-55069622D01*
X296683000Y-55069622D01*
X296683000Y-53672378D01*
X296683002Y-53671608D01*
X296683037Y-53665939D01*
X296683254Y-53630378D01*
X296679023Y-53615572D01*
X296675141Y-53601987D01*
X296671564Y-53585230D01*
X296668653Y-53564903D01*
X296668652Y-53564900D01*
X296667380Y-53556018D01*
X296663665Y-53547848D01*
X296663664Y-53547844D01*
X296656776Y-53532695D01*
X296650327Y-53515167D01*
X296645752Y-53499158D01*
X296645749Y-53499151D01*
X296643284Y-53490526D01*
X296627528Y-53465555D01*
X296619395Y-53450481D01*
X296607178Y-53423611D01*
X296590450Y-53404197D01*
X296579346Y-53389190D01*
X296565669Y-53367514D01*
X296543544Y-53347974D01*
X296531500Y-53335781D01*
X296518095Y-53320223D01*
X296518091Y-53320220D01*
X296512234Y-53313422D01*
X296490729Y-53299483D01*
X296475855Y-53288193D01*
X296463378Y-53277174D01*
X296456649Y-53271231D01*
X296429923Y-53258683D01*
X296414952Y-53250367D01*
X296390179Y-53234310D01*
X296381575Y-53231737D01*
X296381573Y-53231736D01*
X296365623Y-53226966D01*
X296348178Y-53220304D01*
X296333113Y-53213231D01*
X296333111Y-53213231D01*
X296324987Y-53209416D01*
X296316123Y-53208036D01*
X296316114Y-53208033D01*
X296295820Y-53204873D01*
X296279109Y-53201092D01*
X296259428Y-53195207D01*
X296259425Y-53195207D01*
X296250826Y-53192635D01*
X296241854Y-53192580D01*
X296241853Y-53192580D01*
X296218002Y-53192434D01*
X296215162Y-53192316D01*
X296213135Y-53192000D01*
X296147378Y-53192000D01*
X296146608Y-53191998D01*
X296146052Y-53191995D01*
X296105378Y-53191746D01*
X296104546Y-53191984D01*
X296104308Y-53192000D01*
X282147378Y-53192000D01*
X282146608Y-53191998D01*
X282146352Y-53191996D01*
X282105378Y-53191746D01*
X282096750Y-53194212D01*
X282096749Y-53194212D01*
X282076987Y-53199859D01*
X282060230Y-53203436D01*
X282039903Y-53206347D01*
X282039900Y-53206348D01*
X282031018Y-53207620D01*
X282022848Y-53211335D01*
X282022844Y-53211336D01*
X282007695Y-53218224D01*
X281990167Y-53224673D01*
X281974158Y-53229248D01*
X281974151Y-53229251D01*
X281965526Y-53231716D01*
X281940555Y-53247472D01*
X281925481Y-53255605D01*
X281898611Y-53267822D01*
X281879197Y-53284550D01*
X281864190Y-53295654D01*
X281842514Y-53309331D01*
X281836572Y-53316059D01*
X281822977Y-53331453D01*
X281810781Y-53343500D01*
X281795223Y-53356905D01*
X281795220Y-53356909D01*
X281788422Y-53362766D01*
X281783542Y-53370295D01*
X281783541Y-53370296D01*
X281774483Y-53384271D01*
X281763193Y-53399145D01*
X281746231Y-53418351D01*
X281733683Y-53445077D01*
X281725367Y-53460048D01*
X281709310Y-53484821D01*
X281706737Y-53493425D01*
X281706736Y-53493427D01*
X281701966Y-53509377D01*
X281695304Y-53526822D01*
X281684416Y-53550013D01*
X281683036Y-53558877D01*
X281683033Y-53558886D01*
X281679873Y-53579180D01*
X281676092Y-53595891D01*
X281670207Y-53615572D01*
X281667635Y-53624174D01*
X281667580Y-53633146D01*
X281667580Y-53633147D01*
X281667434Y-53656998D01*
X281667316Y-53659838D01*
X281667000Y-53661865D01*
X281667000Y-53727622D01*
X281666998Y-53728392D01*
X281666746Y-53769622D01*
X260683000Y-53769622D01*
X260683000Y-42972378D01*
X260683002Y-42971608D01*
X260683037Y-42965939D01*
X260683254Y-42930378D01*
X260679023Y-42915572D01*
X260675141Y-42901987D01*
X260671564Y-42885230D01*
X260668653Y-42864903D01*
X260668652Y-42864900D01*
X260667380Y-42856018D01*
X260663665Y-42847848D01*
X260663664Y-42847844D01*
X260656776Y-42832695D01*
X260650327Y-42815167D01*
X260645752Y-42799158D01*
X260645749Y-42799151D01*
X260643284Y-42790526D01*
X260627528Y-42765555D01*
X260619395Y-42750481D01*
X260607178Y-42723611D01*
X260590450Y-42704197D01*
X260579346Y-42689190D01*
X260565669Y-42667514D01*
X260543544Y-42647974D01*
X260531500Y-42635781D01*
X260518095Y-42620223D01*
X260518091Y-42620220D01*
X260512234Y-42613422D01*
X260490729Y-42599483D01*
X260475855Y-42588193D01*
X260463378Y-42577174D01*
X260456649Y-42571231D01*
X260429923Y-42558683D01*
X260414952Y-42550367D01*
X260390179Y-42534310D01*
X260381575Y-42531737D01*
X260381573Y-42531736D01*
X260365623Y-42526966D01*
X260348178Y-42520304D01*
X260333113Y-42513231D01*
X260333111Y-42513231D01*
X260324987Y-42509416D01*
X260316123Y-42508036D01*
X260316114Y-42508033D01*
X260295820Y-42504873D01*
X260279109Y-42501092D01*
X260259428Y-42495207D01*
X260259425Y-42495207D01*
X260250826Y-42492635D01*
X260241854Y-42492580D01*
X260241853Y-42492580D01*
X260218002Y-42492434D01*
X260215162Y-42492316D01*
X260213135Y-42492000D01*
X260147378Y-42492000D01*
X260146608Y-42491998D01*
X260146052Y-42491995D01*
X260105378Y-42491746D01*
X260104546Y-42491984D01*
X260104308Y-42492000D01*
X246147378Y-42492000D01*
X246146608Y-42491998D01*
X246146352Y-42491996D01*
X246105378Y-42491746D01*
X246096750Y-42494212D01*
X246096749Y-42494212D01*
X246076987Y-42499859D01*
X246060230Y-42503436D01*
X246039903Y-42506347D01*
X246039900Y-42506348D01*
X246031018Y-42507620D01*
X246022848Y-42511335D01*
X246022844Y-42511336D01*
X246007695Y-42518224D01*
X245990167Y-42524673D01*
X245974158Y-42529248D01*
X245974151Y-42529251D01*
X245965526Y-42531716D01*
X245940555Y-42547472D01*
X245925481Y-42555605D01*
X245898611Y-42567822D01*
X245879197Y-42584550D01*
X245864190Y-42595654D01*
X245842514Y-42609331D01*
X245836572Y-42616059D01*
X245822977Y-42631453D01*
X245810781Y-42643500D01*
X245795223Y-42656905D01*
X245795220Y-42656909D01*
X245788422Y-42662766D01*
X245783542Y-42670295D01*
X245783541Y-42670296D01*
X245774483Y-42684271D01*
X245763193Y-42699145D01*
X245746231Y-42718351D01*
X245733683Y-42745077D01*
X245725367Y-42760048D01*
X245709310Y-42784821D01*
X245706737Y-42793425D01*
X245706736Y-42793427D01*
X245701966Y-42809377D01*
X245695304Y-42826822D01*
X245684416Y-42850013D01*
X245683036Y-42858877D01*
X245683033Y-42858886D01*
X245679873Y-42879180D01*
X245676092Y-42895891D01*
X245670207Y-42915572D01*
X245667635Y-42924174D01*
X245667580Y-42933146D01*
X245667580Y-42933147D01*
X245667434Y-42956998D01*
X245667316Y-42959838D01*
X245667000Y-42961865D01*
X245667000Y-43027622D01*
X245666998Y-43028392D01*
X245666746Y-43069622D01*
X226183000Y-43069622D01*
X226183000Y-27069622D01*
X227666746Y-27069622D01*
X227666984Y-27070454D01*
X227667000Y-27070692D01*
X227667000Y-41027622D01*
X227666998Y-41028392D01*
X227666746Y-41069622D01*
X227669212Y-41078250D01*
X227669212Y-41078251D01*
X227674859Y-41098013D01*
X227678436Y-41114770D01*
X227679303Y-41120820D01*
X227682620Y-41143982D01*
X227686335Y-41152152D01*
X227686336Y-41152156D01*
X227693224Y-41167305D01*
X227699673Y-41184833D01*
X227704248Y-41200842D01*
X227704251Y-41200849D01*
X227706716Y-41209474D01*
X227722472Y-41234445D01*
X227730605Y-41249519D01*
X227742822Y-41276389D01*
X227759550Y-41295803D01*
X227770654Y-41310810D01*
X227784331Y-41332486D01*
X227796344Y-41343095D01*
X227806453Y-41352023D01*
X227818500Y-41364219D01*
X227831905Y-41379777D01*
X227831909Y-41379780D01*
X227837766Y-41386578D01*
X227845295Y-41391458D01*
X227845296Y-41391459D01*
X227859271Y-41400517D01*
X227874145Y-41411807D01*
X227893351Y-41428769D01*
X227920077Y-41441317D01*
X227935048Y-41449633D01*
X227959821Y-41465690D01*
X227968425Y-41468263D01*
X227968427Y-41468264D01*
X227984377Y-41473034D01*
X228001822Y-41479696D01*
X228016887Y-41486769D01*
X228016889Y-41486769D01*
X228025013Y-41490584D01*
X228033877Y-41491964D01*
X228033886Y-41491967D01*
X228054180Y-41495127D01*
X228070891Y-41498908D01*
X228090572Y-41504793D01*
X228090575Y-41504793D01*
X228099174Y-41507365D01*
X228108146Y-41507420D01*
X228108147Y-41507420D01*
X228131998Y-41507566D01*
X228134838Y-41507684D01*
X228136865Y-41508000D01*
X228202622Y-41508000D01*
X228203392Y-41508002D01*
X228244622Y-41508254D01*
X228245454Y-41508016D01*
X228245692Y-41508000D01*
X242202622Y-41508000D01*
X242203392Y-41508002D01*
X242244622Y-41508254D01*
X242253251Y-41505788D01*
X242273013Y-41500141D01*
X242289770Y-41496564D01*
X242310097Y-41493653D01*
X242310100Y-41493652D01*
X242318982Y-41492380D01*
X242327152Y-41488665D01*
X242327156Y-41488664D01*
X242342305Y-41481776D01*
X242359833Y-41475327D01*
X242375842Y-41470752D01*
X242375849Y-41470749D01*
X242384474Y-41468284D01*
X242409445Y-41452528D01*
X242424519Y-41444395D01*
X242451389Y-41432178D01*
X242470803Y-41415450D01*
X242485810Y-41404346D01*
X242507486Y-41390669D01*
X242527026Y-41368544D01*
X242539219Y-41356500D01*
X242554777Y-41343095D01*
X242554780Y-41343091D01*
X242561578Y-41337234D01*
X242575517Y-41315729D01*
X242586807Y-41300855D01*
X242597826Y-41288378D01*
X242603769Y-41281649D01*
X242616317Y-41254923D01*
X242624633Y-41239952D01*
X242640690Y-41215179D01*
X242643264Y-41206573D01*
X242648034Y-41190623D01*
X242654696Y-41173178D01*
X242661769Y-41158113D01*
X242661769Y-41158111D01*
X242665584Y-41149987D01*
X242666964Y-41141123D01*
X242666967Y-41141114D01*
X242670127Y-41120820D01*
X242673908Y-41104109D01*
X242679793Y-41084428D01*
X242679793Y-41084425D01*
X242682365Y-41075826D01*
X242682566Y-41043002D01*
X242682684Y-41040162D01*
X242683000Y-41038135D01*
X242683000Y-40972378D01*
X242683002Y-40971608D01*
X242683239Y-40932817D01*
X242683254Y-40930378D01*
X242683016Y-40929546D01*
X242683000Y-40929308D01*
X242683000Y-26972378D01*
X242683002Y-26971608D01*
X242683037Y-26965939D01*
X242683254Y-26930378D01*
X242679023Y-26915572D01*
X242675141Y-26901987D01*
X242671564Y-26885230D01*
X242668653Y-26864903D01*
X242668652Y-26864900D01*
X242667380Y-26856018D01*
X242663665Y-26847848D01*
X242663664Y-26847844D01*
X242656776Y-26832695D01*
X242650327Y-26815167D01*
X242645752Y-26799158D01*
X242645749Y-26799151D01*
X242643284Y-26790526D01*
X242627528Y-26765555D01*
X242619395Y-26750481D01*
X242607178Y-26723611D01*
X242590450Y-26704197D01*
X242579346Y-26689190D01*
X242565669Y-26667514D01*
X242543544Y-26647974D01*
X242531500Y-26635781D01*
X242518095Y-26620223D01*
X242518091Y-26620220D01*
X242512234Y-26613422D01*
X242490729Y-26599483D01*
X242475855Y-26588193D01*
X242463378Y-26577174D01*
X242456649Y-26571231D01*
X242429923Y-26558683D01*
X242414952Y-26550367D01*
X242390179Y-26534310D01*
X242381575Y-26531737D01*
X242381573Y-26531736D01*
X242365623Y-26526966D01*
X242348178Y-26520304D01*
X242333113Y-26513231D01*
X242333111Y-26513231D01*
X242324987Y-26509416D01*
X242316123Y-26508036D01*
X242316114Y-26508033D01*
X242295820Y-26504873D01*
X242279109Y-26501092D01*
X242259428Y-26495207D01*
X242259425Y-26495207D01*
X242250826Y-26492635D01*
X242241854Y-26492580D01*
X242241853Y-26492580D01*
X242218002Y-26492434D01*
X242215162Y-26492316D01*
X242213135Y-26492000D01*
X242147378Y-26492000D01*
X242146608Y-26491998D01*
X242146052Y-26491995D01*
X242105378Y-26491746D01*
X242104546Y-26491984D01*
X242104308Y-26492000D01*
X228147378Y-26492000D01*
X228146608Y-26491998D01*
X228146352Y-26491996D01*
X228105378Y-26491746D01*
X228096750Y-26494212D01*
X228096749Y-26494212D01*
X228076987Y-26499859D01*
X228060230Y-26503436D01*
X228039903Y-26506347D01*
X228039900Y-26506348D01*
X228031018Y-26507620D01*
X228022848Y-26511335D01*
X228022844Y-26511336D01*
X228007695Y-26518224D01*
X227990167Y-26524673D01*
X227974158Y-26529248D01*
X227974151Y-26529251D01*
X227965526Y-26531716D01*
X227940555Y-26547472D01*
X227925481Y-26555605D01*
X227898611Y-26567822D01*
X227879197Y-26584550D01*
X227864190Y-26595654D01*
X227842514Y-26609331D01*
X227836572Y-26616059D01*
X227822977Y-26631453D01*
X227810781Y-26643500D01*
X227795223Y-26656905D01*
X227795220Y-26656909D01*
X227788422Y-26662766D01*
X227783542Y-26670295D01*
X227783541Y-26670296D01*
X227774483Y-26684271D01*
X227763193Y-26699145D01*
X227746231Y-26718351D01*
X227733683Y-26745077D01*
X227725367Y-26760048D01*
X227709310Y-26784821D01*
X227706737Y-26793425D01*
X227706736Y-26793427D01*
X227701966Y-26809377D01*
X227695304Y-26826822D01*
X227684416Y-26850013D01*
X227683036Y-26858877D01*
X227683033Y-26858886D01*
X227679873Y-26879180D01*
X227676092Y-26895891D01*
X227670207Y-26915572D01*
X227667635Y-26924174D01*
X227667580Y-26933146D01*
X227667580Y-26933147D01*
X227667434Y-26956998D01*
X227667316Y-26959838D01*
X227667000Y-26961865D01*
X227667000Y-27027622D01*
X227666998Y-27028392D01*
X227666746Y-27069622D01*
X226183000Y-27069622D01*
X226183000Y-10082323D01*
X226184087Y-10069622D01*
X227666746Y-10069622D01*
X227666984Y-10070454D01*
X227667000Y-10070692D01*
X227667000Y-24027622D01*
X227666998Y-24028392D01*
X227666746Y-24069622D01*
X227669212Y-24078250D01*
X227669212Y-24078251D01*
X227674859Y-24098013D01*
X227678436Y-24114770D01*
X227682620Y-24143982D01*
X227686335Y-24152152D01*
X227686336Y-24152156D01*
X227693224Y-24167305D01*
X227699673Y-24184833D01*
X227704248Y-24200842D01*
X227704251Y-24200849D01*
X227706716Y-24209474D01*
X227722472Y-24234445D01*
X227730605Y-24249519D01*
X227742822Y-24276389D01*
X227759550Y-24295803D01*
X227770654Y-24310810D01*
X227784331Y-24332486D01*
X227791059Y-24338428D01*
X227806453Y-24352023D01*
X227818500Y-24364219D01*
X227831905Y-24379777D01*
X227831909Y-24379780D01*
X227837766Y-24386578D01*
X227845295Y-24391458D01*
X227845296Y-24391459D01*
X227859271Y-24400517D01*
X227874145Y-24411807D01*
X227893351Y-24428769D01*
X227920077Y-24441317D01*
X227935048Y-24449633D01*
X227959821Y-24465690D01*
X227968425Y-24468263D01*
X227968427Y-24468264D01*
X227984377Y-24473034D01*
X228001822Y-24479696D01*
X228016887Y-24486769D01*
X228016889Y-24486769D01*
X228025013Y-24490584D01*
X228033877Y-24491964D01*
X228033886Y-24491967D01*
X228054180Y-24495127D01*
X228070891Y-24498908D01*
X228090572Y-24504793D01*
X228090575Y-24504793D01*
X228099174Y-24507365D01*
X228108146Y-24507420D01*
X228108147Y-24507420D01*
X228131998Y-24507566D01*
X228134838Y-24507684D01*
X228136865Y-24508000D01*
X228202622Y-24508000D01*
X228203392Y-24508002D01*
X228244622Y-24508254D01*
X228245454Y-24508016D01*
X228245692Y-24508000D01*
X242202622Y-24508000D01*
X242203392Y-24508002D01*
X242244622Y-24508254D01*
X242253251Y-24505788D01*
X242273013Y-24500141D01*
X242289770Y-24496564D01*
X242310097Y-24493653D01*
X242310100Y-24493652D01*
X242318982Y-24492380D01*
X242327152Y-24488665D01*
X242327156Y-24488664D01*
X242342305Y-24481776D01*
X242359833Y-24475327D01*
X242375842Y-24470752D01*
X242375849Y-24470749D01*
X242384474Y-24468284D01*
X242392064Y-24463495D01*
X242400259Y-24459829D01*
X242401385Y-24462346D01*
X242456008Y-24446799D01*
X242523960Y-24467368D01*
X242570004Y-24521408D01*
X242580571Y-24582681D01*
X242561500Y-24825000D01*
X242581365Y-25077407D01*
X242640470Y-25323599D01*
X242642363Y-25328170D01*
X242642364Y-25328172D01*
X242735099Y-25552052D01*
X242737361Y-25557514D01*
X242869651Y-25773392D01*
X242872862Y-25777152D01*
X242872866Y-25777157D01*
X242984943Y-25908382D01*
X243034083Y-25965917D01*
X243037845Y-25969130D01*
X243222843Y-26127134D01*
X243222848Y-26127138D01*
X243226608Y-26130349D01*
X243442486Y-26262639D01*
X243447056Y-26264532D01*
X243447060Y-26264534D01*
X243671828Y-26357636D01*
X243676401Y-26359530D01*
X243761106Y-26379866D01*
X243917780Y-26417480D01*
X243917786Y-26417481D01*
X243922593Y-26418635D01*
X244175000Y-26438500D01*
X244427407Y-26418635D01*
X244432214Y-26417481D01*
X244432220Y-26417480D01*
X244588894Y-26379866D01*
X244673599Y-26359530D01*
X244678172Y-26357636D01*
X244902940Y-26264534D01*
X244902944Y-26264532D01*
X244907514Y-26262639D01*
X245123392Y-26130349D01*
X245127152Y-26127138D01*
X245127157Y-26127134D01*
X245312155Y-25969130D01*
X245315917Y-25965917D01*
X245450855Y-25807925D01*
X245510306Y-25769116D01*
X245581301Y-25768610D01*
X245641299Y-25806566D01*
X245671252Y-25870935D01*
X245671282Y-25908382D01*
X245670207Y-25915573D01*
X245667635Y-25924174D01*
X245667580Y-25933149D01*
X245667580Y-25933150D01*
X245667434Y-25956998D01*
X245667316Y-25959838D01*
X245667000Y-25961865D01*
X245667000Y-26027622D01*
X245666998Y-26028392D01*
X245666746Y-26069622D01*
X245666984Y-26070454D01*
X245667000Y-26070692D01*
X245667000Y-40027622D01*
X245666998Y-40028392D01*
X245666746Y-40069622D01*
X245669212Y-40078250D01*
X245669212Y-40078251D01*
X245674859Y-40098013D01*
X245678436Y-40114770D01*
X245680113Y-40126476D01*
X245682620Y-40143982D01*
X245686335Y-40152152D01*
X245686336Y-40152156D01*
X245693224Y-40167305D01*
X245699673Y-40184833D01*
X245704248Y-40200842D01*
X245704251Y-40200849D01*
X245706716Y-40209474D01*
X245722472Y-40234445D01*
X245730605Y-40249519D01*
X245742822Y-40276389D01*
X245757769Y-40293736D01*
X245759550Y-40295803D01*
X245770654Y-40310810D01*
X245784331Y-40332486D01*
X245796344Y-40343095D01*
X245806453Y-40352023D01*
X245818500Y-40364219D01*
X245831905Y-40379777D01*
X245831909Y-40379780D01*
X245837766Y-40386578D01*
X245845295Y-40391458D01*
X245845296Y-40391459D01*
X245859271Y-40400517D01*
X245874145Y-40411807D01*
X245893351Y-40428769D01*
X245920077Y-40441317D01*
X245935048Y-40449633D01*
X245959821Y-40465690D01*
X245968425Y-40468263D01*
X245968427Y-40468264D01*
X245984377Y-40473034D01*
X246001822Y-40479696D01*
X246016887Y-40486769D01*
X246016889Y-40486769D01*
X246025013Y-40490584D01*
X246033877Y-40491964D01*
X246033886Y-40491967D01*
X246054180Y-40495127D01*
X246070891Y-40498908D01*
X246090572Y-40504793D01*
X246090575Y-40504793D01*
X246099174Y-40507365D01*
X246108146Y-40507420D01*
X246108147Y-40507420D01*
X246131998Y-40507566D01*
X246134838Y-40507684D01*
X246136865Y-40508000D01*
X246202622Y-40508000D01*
X246203392Y-40508002D01*
X246244622Y-40508254D01*
X246245454Y-40508016D01*
X246245692Y-40508000D01*
X260202622Y-40508000D01*
X260203392Y-40508002D01*
X260244622Y-40508254D01*
X260253251Y-40505788D01*
X260273013Y-40500141D01*
X260289770Y-40496564D01*
X260310097Y-40493653D01*
X260310100Y-40493652D01*
X260318982Y-40492380D01*
X260327152Y-40488665D01*
X260327156Y-40488664D01*
X260342305Y-40481776D01*
X260359833Y-40475327D01*
X260375842Y-40470752D01*
X260375849Y-40470749D01*
X260384474Y-40468284D01*
X260409445Y-40452528D01*
X260424519Y-40444395D01*
X260451389Y-40432178D01*
X260470803Y-40415450D01*
X260485810Y-40404346D01*
X260507486Y-40390669D01*
X260527026Y-40368544D01*
X260539219Y-40356500D01*
X260554777Y-40343095D01*
X260554780Y-40343091D01*
X260561578Y-40337234D01*
X260575517Y-40315729D01*
X260586807Y-40300855D01*
X260597826Y-40288378D01*
X260603769Y-40281649D01*
X260616317Y-40254923D01*
X260624633Y-40239952D01*
X260640690Y-40215179D01*
X260643264Y-40206573D01*
X260648034Y-40190623D01*
X260654696Y-40173178D01*
X260661769Y-40158113D01*
X260661769Y-40158111D01*
X260665584Y-40149987D01*
X260666964Y-40141123D01*
X260666967Y-40141114D01*
X260670127Y-40120820D01*
X260673908Y-40104109D01*
X260679793Y-40084428D01*
X260679793Y-40084425D01*
X260682365Y-40075826D01*
X260682481Y-40056905D01*
X260682566Y-40043002D01*
X260682684Y-40040162D01*
X260683000Y-40038135D01*
X260683000Y-39972378D01*
X260683002Y-39971608D01*
X260683103Y-39955037D01*
X260683254Y-39930378D01*
X260683016Y-39929546D01*
X260683000Y-39929308D01*
X260683000Y-38069622D01*
X263666746Y-38069622D01*
X263666984Y-38070454D01*
X263667000Y-38070692D01*
X263667000Y-52027622D01*
X263666998Y-52028392D01*
X263666746Y-52069622D01*
X263669212Y-52078250D01*
X263669212Y-52078251D01*
X263674859Y-52098013D01*
X263678436Y-52114770D01*
X263680826Y-52131453D01*
X263682620Y-52143982D01*
X263686335Y-52152152D01*
X263686336Y-52152156D01*
X263693224Y-52167305D01*
X263699673Y-52184833D01*
X263704248Y-52200842D01*
X263704251Y-52200849D01*
X263706716Y-52209474D01*
X263722472Y-52234445D01*
X263730605Y-52249519D01*
X263742822Y-52276389D01*
X263755003Y-52290526D01*
X263759550Y-52295803D01*
X263770654Y-52310810D01*
X263784331Y-52332486D01*
X263796344Y-52343095D01*
X263806453Y-52352023D01*
X263818500Y-52364219D01*
X263831905Y-52379777D01*
X263831909Y-52379780D01*
X263837766Y-52386578D01*
X263845295Y-52391458D01*
X263845296Y-52391459D01*
X263859271Y-52400517D01*
X263874145Y-52411807D01*
X263893351Y-52428769D01*
X263920077Y-52441317D01*
X263935048Y-52449633D01*
X263959821Y-52465690D01*
X263968425Y-52468263D01*
X263968427Y-52468264D01*
X263984377Y-52473034D01*
X264001822Y-52479696D01*
X264016887Y-52486769D01*
X264016889Y-52486769D01*
X264025013Y-52490584D01*
X264033877Y-52491964D01*
X264033886Y-52491967D01*
X264054180Y-52495127D01*
X264070891Y-52498908D01*
X264090572Y-52504793D01*
X264090575Y-52504793D01*
X264099174Y-52507365D01*
X264108146Y-52507420D01*
X264108147Y-52507420D01*
X264131998Y-52507566D01*
X264134838Y-52507684D01*
X264136865Y-52508000D01*
X264202622Y-52508000D01*
X264203392Y-52508002D01*
X264244622Y-52508254D01*
X264245454Y-52508016D01*
X264245692Y-52508000D01*
X278202622Y-52508000D01*
X278203392Y-52508002D01*
X278244622Y-52508254D01*
X278253251Y-52505788D01*
X278273013Y-52500141D01*
X278289770Y-52496564D01*
X278310097Y-52493653D01*
X278310100Y-52493652D01*
X278318982Y-52492380D01*
X278327152Y-52488665D01*
X278327156Y-52488664D01*
X278342305Y-52481776D01*
X278359833Y-52475327D01*
X278375842Y-52470752D01*
X278375849Y-52470749D01*
X278384474Y-52468284D01*
X278409445Y-52452528D01*
X278424519Y-52444395D01*
X278451389Y-52432178D01*
X278470803Y-52415450D01*
X278485810Y-52404346D01*
X278507486Y-52390669D01*
X278527026Y-52368544D01*
X278539219Y-52356500D01*
X278554777Y-52343095D01*
X278554780Y-52343091D01*
X278561578Y-52337234D01*
X278575517Y-52315729D01*
X278586807Y-52300855D01*
X278597826Y-52288378D01*
X278603769Y-52281649D01*
X278616317Y-52254923D01*
X278624633Y-52239952D01*
X278640690Y-52215179D01*
X278643264Y-52206573D01*
X278648034Y-52190623D01*
X278654696Y-52173178D01*
X278661769Y-52158113D01*
X278661769Y-52158111D01*
X278665584Y-52149987D01*
X278666964Y-52141123D01*
X278666967Y-52141114D01*
X278670127Y-52120820D01*
X278673908Y-52104109D01*
X278679793Y-52084428D01*
X278679793Y-52084425D01*
X278682365Y-52075826D01*
X278682492Y-52055037D01*
X278682566Y-52043002D01*
X278682684Y-52040162D01*
X278683000Y-52038135D01*
X278683000Y-51972368D01*
X278683002Y-51971598D01*
X278683239Y-51932817D01*
X278683254Y-51930378D01*
X278683016Y-51929546D01*
X278683000Y-51929308D01*
X278683000Y-37972378D01*
X278683002Y-37971608D01*
X278683037Y-37965939D01*
X278683254Y-37930378D01*
X278679023Y-37915572D01*
X278675141Y-37901987D01*
X278671564Y-37885230D01*
X278668653Y-37864903D01*
X278668652Y-37864900D01*
X278667380Y-37856018D01*
X278663665Y-37847848D01*
X278663664Y-37847844D01*
X278656776Y-37832695D01*
X278650327Y-37815167D01*
X278645752Y-37799158D01*
X278645749Y-37799151D01*
X278643284Y-37790526D01*
X278627528Y-37765555D01*
X278619395Y-37750481D01*
X278607178Y-37723611D01*
X278590450Y-37704197D01*
X278579346Y-37689190D01*
X278565669Y-37667514D01*
X278543544Y-37647974D01*
X278531500Y-37635781D01*
X278518095Y-37620223D01*
X278518091Y-37620220D01*
X278512234Y-37613422D01*
X278501668Y-37606573D01*
X278490729Y-37599483D01*
X278475855Y-37588193D01*
X278456649Y-37571231D01*
X278429923Y-37558683D01*
X278414952Y-37550367D01*
X278390179Y-37534310D01*
X278381575Y-37531737D01*
X278381573Y-37531736D01*
X278365623Y-37526966D01*
X278348178Y-37520304D01*
X278333113Y-37513231D01*
X278333111Y-37513231D01*
X278324987Y-37509416D01*
X278316123Y-37508036D01*
X278316114Y-37508033D01*
X278295820Y-37504873D01*
X278279109Y-37501092D01*
X278259428Y-37495207D01*
X278259425Y-37495207D01*
X278250826Y-37492635D01*
X278241854Y-37492580D01*
X278241853Y-37492580D01*
X278218002Y-37492434D01*
X278215162Y-37492316D01*
X278213135Y-37492000D01*
X278147378Y-37492000D01*
X278146608Y-37491998D01*
X278146052Y-37491995D01*
X278105378Y-37491746D01*
X278104546Y-37491984D01*
X278104308Y-37492000D01*
X264147378Y-37492000D01*
X264146608Y-37491998D01*
X264146352Y-37491996D01*
X264105378Y-37491746D01*
X264096750Y-37494212D01*
X264096749Y-37494212D01*
X264076987Y-37499859D01*
X264060230Y-37503436D01*
X264039903Y-37506347D01*
X264039900Y-37506348D01*
X264031018Y-37507620D01*
X264022848Y-37511335D01*
X264022844Y-37511336D01*
X264007695Y-37518224D01*
X263990167Y-37524673D01*
X263974158Y-37529248D01*
X263974151Y-37529251D01*
X263965526Y-37531716D01*
X263940555Y-37547472D01*
X263925481Y-37555605D01*
X263898611Y-37567822D01*
X263882556Y-37581656D01*
X263879197Y-37584550D01*
X263864190Y-37595654D01*
X263842514Y-37609331D01*
X263836572Y-37616059D01*
X263822977Y-37631453D01*
X263810781Y-37643500D01*
X263795223Y-37656905D01*
X263795220Y-37656909D01*
X263788422Y-37662766D01*
X263783542Y-37670295D01*
X263783541Y-37670296D01*
X263774483Y-37684271D01*
X263763193Y-37699145D01*
X263746231Y-37718351D01*
X263733683Y-37745077D01*
X263725367Y-37760048D01*
X263709310Y-37784821D01*
X263706737Y-37793425D01*
X263706736Y-37793427D01*
X263701966Y-37809377D01*
X263695304Y-37826822D01*
X263688231Y-37841887D01*
X263684416Y-37850013D01*
X263683036Y-37858877D01*
X263683033Y-37858886D01*
X263679873Y-37879180D01*
X263676092Y-37895891D01*
X263670207Y-37915572D01*
X263667635Y-37924174D01*
X263667580Y-37933146D01*
X263667580Y-37933147D01*
X263667434Y-37956998D01*
X263667316Y-37959838D01*
X263667000Y-37961865D01*
X263667000Y-38027622D01*
X263666998Y-38028392D01*
X263666746Y-38069622D01*
X260683000Y-38069622D01*
X260683000Y-36769622D01*
X281666746Y-36769622D01*
X281666984Y-36770454D01*
X281667000Y-36770692D01*
X281667000Y-50727622D01*
X281666998Y-50728392D01*
X281666746Y-50769622D01*
X281669212Y-50778250D01*
X281669212Y-50778251D01*
X281674859Y-50798013D01*
X281678436Y-50814770D01*
X281679303Y-50820820D01*
X281682620Y-50843982D01*
X281686335Y-50852152D01*
X281686336Y-50852156D01*
X281693224Y-50867305D01*
X281699673Y-50884833D01*
X281704248Y-50900842D01*
X281704251Y-50900849D01*
X281706716Y-50909474D01*
X281722472Y-50934445D01*
X281730605Y-50949519D01*
X281742822Y-50976389D01*
X281759550Y-50995803D01*
X281770654Y-51010810D01*
X281784331Y-51032486D01*
X281796344Y-51043095D01*
X281806453Y-51052023D01*
X281818500Y-51064219D01*
X281831905Y-51079777D01*
X281831909Y-51079780D01*
X281837766Y-51086578D01*
X281845295Y-51091458D01*
X281845296Y-51091459D01*
X281859271Y-51100517D01*
X281874145Y-51111807D01*
X281893351Y-51128769D01*
X281920077Y-51141317D01*
X281935048Y-51149633D01*
X281959821Y-51165690D01*
X281968425Y-51168263D01*
X281968427Y-51168264D01*
X281984377Y-51173034D01*
X282001822Y-51179696D01*
X282016887Y-51186769D01*
X282016889Y-51186769D01*
X282025013Y-51190584D01*
X282033877Y-51191964D01*
X282033886Y-51191967D01*
X282054180Y-51195127D01*
X282070891Y-51198908D01*
X282090572Y-51204793D01*
X282090575Y-51204793D01*
X282099174Y-51207365D01*
X282108146Y-51207420D01*
X282108147Y-51207420D01*
X282131998Y-51207566D01*
X282134838Y-51207684D01*
X282136865Y-51208000D01*
X282202622Y-51208000D01*
X282203392Y-51208002D01*
X282244622Y-51208254D01*
X282245454Y-51208016D01*
X282245692Y-51208000D01*
X296202622Y-51208000D01*
X296203392Y-51208002D01*
X296244622Y-51208254D01*
X296253251Y-51205788D01*
X296273013Y-51200141D01*
X296289770Y-51196564D01*
X296310097Y-51193653D01*
X296310100Y-51193652D01*
X296318982Y-51192380D01*
X296327152Y-51188665D01*
X296327156Y-51188664D01*
X296342305Y-51181776D01*
X296359833Y-51175327D01*
X296375842Y-51170752D01*
X296375849Y-51170749D01*
X296384474Y-51168284D01*
X296409445Y-51152528D01*
X296424519Y-51144395D01*
X296451389Y-51132178D01*
X296470803Y-51115450D01*
X296485810Y-51104346D01*
X296507486Y-51090669D01*
X296527026Y-51068544D01*
X296539219Y-51056500D01*
X296554777Y-51043095D01*
X296554780Y-51043091D01*
X296561578Y-51037234D01*
X296575517Y-51015729D01*
X296586807Y-51000855D01*
X296597826Y-50988378D01*
X296603769Y-50981649D01*
X296616317Y-50954923D01*
X296624633Y-50939952D01*
X296640690Y-50915179D01*
X296643264Y-50906573D01*
X296648034Y-50890623D01*
X296654696Y-50873178D01*
X296661769Y-50858113D01*
X296661769Y-50858111D01*
X296665584Y-50849987D01*
X296666964Y-50841123D01*
X296666967Y-50841114D01*
X296670127Y-50820820D01*
X296673908Y-50804109D01*
X296679793Y-50784428D01*
X296679793Y-50784425D01*
X296682365Y-50775826D01*
X296682566Y-50743002D01*
X296682684Y-50740162D01*
X296683000Y-50738135D01*
X296683000Y-50672378D01*
X296683002Y-50671608D01*
X296683239Y-50632817D01*
X296683254Y-50630378D01*
X296683016Y-50629546D01*
X296683000Y-50629308D01*
X296683000Y-38069622D01*
X299666746Y-38069622D01*
X299666984Y-38070454D01*
X299667000Y-38070692D01*
X299667000Y-52027622D01*
X299666998Y-52028392D01*
X299666746Y-52069622D01*
X299669212Y-52078250D01*
X299669212Y-52078251D01*
X299674859Y-52098013D01*
X299678436Y-52114770D01*
X299680826Y-52131453D01*
X299682620Y-52143982D01*
X299686335Y-52152152D01*
X299686336Y-52152156D01*
X299693224Y-52167305D01*
X299699673Y-52184833D01*
X299704248Y-52200842D01*
X299704251Y-52200849D01*
X299706716Y-52209474D01*
X299722472Y-52234445D01*
X299730605Y-52249519D01*
X299742822Y-52276389D01*
X299755003Y-52290526D01*
X299759550Y-52295803D01*
X299770654Y-52310810D01*
X299784331Y-52332486D01*
X299796344Y-52343095D01*
X299806453Y-52352023D01*
X299818500Y-52364219D01*
X299831905Y-52379777D01*
X299831909Y-52379780D01*
X299837766Y-52386578D01*
X299845295Y-52391458D01*
X299845296Y-52391459D01*
X299859271Y-52400517D01*
X299874145Y-52411807D01*
X299893351Y-52428769D01*
X299920077Y-52441317D01*
X299935048Y-52449633D01*
X299959821Y-52465690D01*
X299968425Y-52468263D01*
X299968427Y-52468264D01*
X299984377Y-52473034D01*
X300001822Y-52479696D01*
X300016887Y-52486769D01*
X300016889Y-52486769D01*
X300025013Y-52490584D01*
X300033877Y-52491964D01*
X300033886Y-52491967D01*
X300054180Y-52495127D01*
X300070891Y-52498908D01*
X300090572Y-52504793D01*
X300090575Y-52504793D01*
X300099174Y-52507365D01*
X300108146Y-52507420D01*
X300108147Y-52507420D01*
X300131998Y-52507566D01*
X300134838Y-52507684D01*
X300136865Y-52508000D01*
X300202622Y-52508000D01*
X300203392Y-52508002D01*
X300244622Y-52508254D01*
X300245454Y-52508016D01*
X300245692Y-52508000D01*
X314202622Y-52508000D01*
X314203392Y-52508002D01*
X314244622Y-52508254D01*
X314253251Y-52505788D01*
X314273013Y-52500141D01*
X314289770Y-52496564D01*
X314310097Y-52493653D01*
X314310100Y-52493652D01*
X314318982Y-52492380D01*
X314327152Y-52488665D01*
X314327156Y-52488664D01*
X314342305Y-52481776D01*
X314359833Y-52475327D01*
X314375842Y-52470752D01*
X314375849Y-52470749D01*
X314384474Y-52468284D01*
X314409445Y-52452528D01*
X314424519Y-52444395D01*
X314451389Y-52432178D01*
X314470803Y-52415450D01*
X314485810Y-52404346D01*
X314507486Y-52390669D01*
X314527026Y-52368544D01*
X314539219Y-52356500D01*
X314554777Y-52343095D01*
X314554780Y-52343091D01*
X314561578Y-52337234D01*
X314575517Y-52315729D01*
X314586807Y-52300855D01*
X314597826Y-52288378D01*
X314603769Y-52281649D01*
X314616317Y-52254923D01*
X314624633Y-52239952D01*
X314640690Y-52215179D01*
X314643264Y-52206573D01*
X314648034Y-52190623D01*
X314654696Y-52173178D01*
X314661769Y-52158113D01*
X314661769Y-52158111D01*
X314665584Y-52149987D01*
X314666964Y-52141123D01*
X314666967Y-52141114D01*
X314670127Y-52120820D01*
X314673908Y-52104109D01*
X314679793Y-52084428D01*
X314679793Y-52084425D01*
X314682365Y-52075826D01*
X314682492Y-52055037D01*
X314682566Y-52043002D01*
X314682684Y-52040162D01*
X314683000Y-52038135D01*
X314683000Y-51972368D01*
X314683002Y-51971598D01*
X314683239Y-51932817D01*
X314683254Y-51930378D01*
X314683016Y-51929546D01*
X314683000Y-51929308D01*
X314683000Y-37972378D01*
X314683002Y-37971608D01*
X314683037Y-37965939D01*
X314683254Y-37930378D01*
X314679023Y-37915572D01*
X314675141Y-37901987D01*
X314671564Y-37885230D01*
X314668653Y-37864903D01*
X314668652Y-37864900D01*
X314667380Y-37856018D01*
X314663665Y-37847848D01*
X314663664Y-37847844D01*
X314656776Y-37832695D01*
X314650327Y-37815167D01*
X314645752Y-37799158D01*
X314645749Y-37799151D01*
X314643284Y-37790526D01*
X314627528Y-37765555D01*
X314619395Y-37750481D01*
X314607178Y-37723611D01*
X314590450Y-37704197D01*
X314579346Y-37689190D01*
X314565669Y-37667514D01*
X314543544Y-37647974D01*
X314531500Y-37635781D01*
X314518095Y-37620223D01*
X314518091Y-37620220D01*
X314512234Y-37613422D01*
X314501668Y-37606573D01*
X314490729Y-37599483D01*
X314475855Y-37588193D01*
X314456649Y-37571231D01*
X314429923Y-37558683D01*
X314414952Y-37550367D01*
X314390179Y-37534310D01*
X314381575Y-37531737D01*
X314381573Y-37531736D01*
X314365623Y-37526966D01*
X314348178Y-37520304D01*
X314333113Y-37513231D01*
X314333111Y-37513231D01*
X314324987Y-37509416D01*
X314316123Y-37508036D01*
X314316114Y-37508033D01*
X314295820Y-37504873D01*
X314279109Y-37501092D01*
X314259428Y-37495207D01*
X314259425Y-37495207D01*
X314250826Y-37492635D01*
X314241854Y-37492580D01*
X314241853Y-37492580D01*
X314218002Y-37492434D01*
X314215162Y-37492316D01*
X314213135Y-37492000D01*
X314147378Y-37492000D01*
X314146608Y-37491998D01*
X314146052Y-37491995D01*
X314105378Y-37491746D01*
X314104546Y-37491984D01*
X314104308Y-37492000D01*
X300147378Y-37492000D01*
X300146608Y-37491998D01*
X300146352Y-37491996D01*
X300105378Y-37491746D01*
X300096750Y-37494212D01*
X300096749Y-37494212D01*
X300076987Y-37499859D01*
X300060230Y-37503436D01*
X300039903Y-37506347D01*
X300039900Y-37506348D01*
X300031018Y-37507620D01*
X300022848Y-37511335D01*
X300022844Y-37511336D01*
X300007695Y-37518224D01*
X299990167Y-37524673D01*
X299974158Y-37529248D01*
X299974151Y-37529251D01*
X299965526Y-37531716D01*
X299940555Y-37547472D01*
X299925481Y-37555605D01*
X299898611Y-37567822D01*
X299882556Y-37581656D01*
X299879197Y-37584550D01*
X299864190Y-37595654D01*
X299842514Y-37609331D01*
X299836572Y-37616059D01*
X299822977Y-37631453D01*
X299810781Y-37643500D01*
X299795223Y-37656905D01*
X299795220Y-37656909D01*
X299788422Y-37662766D01*
X299783542Y-37670295D01*
X299783541Y-37670296D01*
X299774483Y-37684271D01*
X299763193Y-37699145D01*
X299746231Y-37718351D01*
X299733683Y-37745077D01*
X299725367Y-37760048D01*
X299709310Y-37784821D01*
X299706737Y-37793425D01*
X299706736Y-37793427D01*
X299701966Y-37809377D01*
X299695304Y-37826822D01*
X299688231Y-37841887D01*
X299684416Y-37850013D01*
X299683036Y-37858877D01*
X299683033Y-37858886D01*
X299679873Y-37879180D01*
X299676092Y-37895891D01*
X299670207Y-37915572D01*
X299667635Y-37924174D01*
X299667580Y-37933146D01*
X299667580Y-37933147D01*
X299667434Y-37956998D01*
X299667316Y-37959838D01*
X299667000Y-37961865D01*
X299667000Y-38027622D01*
X299666998Y-38028392D01*
X299666746Y-38069622D01*
X296683000Y-38069622D01*
X296683000Y-36672378D01*
X296683002Y-36671608D01*
X296683037Y-36665939D01*
X296683254Y-36630378D01*
X296679023Y-36615572D01*
X296675141Y-36601987D01*
X296671564Y-36585230D01*
X296668653Y-36564903D01*
X296668652Y-36564900D01*
X296667380Y-36556018D01*
X296663665Y-36547848D01*
X296663664Y-36547844D01*
X296656776Y-36532695D01*
X296650327Y-36515167D01*
X296645752Y-36499158D01*
X296645749Y-36499151D01*
X296643284Y-36490526D01*
X296627528Y-36465555D01*
X296619395Y-36450481D01*
X296607178Y-36423611D01*
X296590450Y-36404197D01*
X296579346Y-36389190D01*
X296565669Y-36367514D01*
X296543544Y-36347974D01*
X296531500Y-36335781D01*
X296518095Y-36320223D01*
X296518091Y-36320220D01*
X296512234Y-36313422D01*
X296490729Y-36299483D01*
X296475855Y-36288193D01*
X296463378Y-36277174D01*
X296456649Y-36271231D01*
X296429923Y-36258683D01*
X296414952Y-36250367D01*
X296390179Y-36234310D01*
X296381575Y-36231737D01*
X296381573Y-36231736D01*
X296365623Y-36226966D01*
X296348178Y-36220304D01*
X296333113Y-36213231D01*
X296333111Y-36213231D01*
X296324987Y-36209416D01*
X296316123Y-36208036D01*
X296316114Y-36208033D01*
X296295820Y-36204873D01*
X296279109Y-36201092D01*
X296259428Y-36195207D01*
X296259425Y-36195207D01*
X296250826Y-36192635D01*
X296241854Y-36192580D01*
X296241853Y-36192580D01*
X296218002Y-36192434D01*
X296215162Y-36192316D01*
X296213135Y-36192000D01*
X296147378Y-36192000D01*
X296146608Y-36191998D01*
X296146052Y-36191995D01*
X296105378Y-36191746D01*
X296104546Y-36191984D01*
X296104308Y-36192000D01*
X282147378Y-36192000D01*
X282146608Y-36191998D01*
X282146352Y-36191996D01*
X282105378Y-36191746D01*
X282096750Y-36194212D01*
X282096749Y-36194212D01*
X282076987Y-36199859D01*
X282060230Y-36203436D01*
X282039903Y-36206347D01*
X282039900Y-36206348D01*
X282031018Y-36207620D01*
X282022848Y-36211335D01*
X282022844Y-36211336D01*
X282007695Y-36218224D01*
X281990167Y-36224673D01*
X281974158Y-36229248D01*
X281974151Y-36229251D01*
X281965526Y-36231716D01*
X281940555Y-36247472D01*
X281925481Y-36255605D01*
X281898611Y-36267822D01*
X281879197Y-36284550D01*
X281864190Y-36295654D01*
X281842514Y-36309331D01*
X281836572Y-36316059D01*
X281822977Y-36331453D01*
X281810781Y-36343500D01*
X281795223Y-36356905D01*
X281795220Y-36356909D01*
X281788422Y-36362766D01*
X281783542Y-36370295D01*
X281783541Y-36370296D01*
X281774483Y-36384271D01*
X281763193Y-36399145D01*
X281746231Y-36418351D01*
X281733683Y-36445077D01*
X281725367Y-36460048D01*
X281709310Y-36484821D01*
X281706737Y-36493425D01*
X281706736Y-36493427D01*
X281701966Y-36509377D01*
X281695304Y-36526822D01*
X281684416Y-36550013D01*
X281683036Y-36558877D01*
X281683033Y-36558886D01*
X281679873Y-36579180D01*
X281676092Y-36595891D01*
X281670207Y-36615572D01*
X281667635Y-36624174D01*
X281667580Y-36633146D01*
X281667580Y-36633147D01*
X281667434Y-36656998D01*
X281667316Y-36659838D01*
X281667000Y-36661865D01*
X281667000Y-36727622D01*
X281666998Y-36728392D01*
X281666746Y-36769622D01*
X260683000Y-36769622D01*
X260683000Y-25972378D01*
X260683002Y-25971608D01*
X260683060Y-25962155D01*
X260683254Y-25930378D01*
X260676968Y-25908382D01*
X260675141Y-25901987D01*
X260671564Y-25885230D01*
X260668653Y-25864903D01*
X260668652Y-25864900D01*
X260667380Y-25856018D01*
X260663665Y-25847848D01*
X260663664Y-25847844D01*
X260656776Y-25832695D01*
X260650327Y-25815167D01*
X260645752Y-25799158D01*
X260645749Y-25799151D01*
X260643284Y-25790526D01*
X260627528Y-25765555D01*
X260619395Y-25750481D01*
X260607178Y-25723611D01*
X260590450Y-25704197D01*
X260579346Y-25689190D01*
X260565669Y-25667514D01*
X260543544Y-25647974D01*
X260531500Y-25635781D01*
X260518095Y-25620223D01*
X260518091Y-25620220D01*
X260512234Y-25613422D01*
X260503598Y-25607824D01*
X260490729Y-25599483D01*
X260475855Y-25588193D01*
X260463378Y-25577174D01*
X260456649Y-25571231D01*
X260429923Y-25558683D01*
X260414952Y-25550367D01*
X260390179Y-25534310D01*
X260381575Y-25531737D01*
X260381573Y-25531736D01*
X260365623Y-25526966D01*
X260348178Y-25520304D01*
X260333113Y-25513231D01*
X260333111Y-25513231D01*
X260324987Y-25509416D01*
X260316123Y-25508036D01*
X260316114Y-25508033D01*
X260295820Y-25504873D01*
X260279109Y-25501092D01*
X260259428Y-25495207D01*
X260259425Y-25495207D01*
X260250826Y-25492635D01*
X260241854Y-25492580D01*
X260241853Y-25492580D01*
X260218002Y-25492434D01*
X260215162Y-25492316D01*
X260213135Y-25492000D01*
X260147378Y-25492000D01*
X260146608Y-25491998D01*
X260146052Y-25491995D01*
X260105378Y-25491746D01*
X260104546Y-25491984D01*
X260104308Y-25492000D01*
X246147378Y-25492000D01*
X246146608Y-25491998D01*
X246146352Y-25491996D01*
X246105378Y-25491746D01*
X246096750Y-25494212D01*
X246096749Y-25494212D01*
X246076987Y-25499859D01*
X246060230Y-25503436D01*
X246039903Y-25506347D01*
X246039900Y-25506348D01*
X246031018Y-25507620D01*
X246022848Y-25511335D01*
X246022844Y-25511336D01*
X246007695Y-25518224D01*
X245990167Y-25524673D01*
X245974158Y-25529248D01*
X245974151Y-25529251D01*
X245965526Y-25531716D01*
X245940555Y-25547472D01*
X245925481Y-25555605D01*
X245898611Y-25567822D01*
X245879197Y-25584550D01*
X245864190Y-25595654D01*
X245842514Y-25609331D01*
X245842513Y-25609332D01*
X245841562Y-25607824D01*
X245786567Y-25632350D01*
X245716386Y-25621621D01*
X245663146Y-25574653D01*
X245643751Y-25506357D01*
X245653337Y-25459260D01*
X245707636Y-25328172D01*
X245707637Y-25328170D01*
X245709530Y-25323599D01*
X245768635Y-25077407D01*
X245788500Y-24825000D01*
X245768635Y-24572593D01*
X245753176Y-24508199D01*
X245710685Y-24331213D01*
X245709530Y-24326401D01*
X245703074Y-24310815D01*
X245614534Y-24097060D01*
X245614532Y-24097056D01*
X245612639Y-24092486D01*
X245480349Y-23876608D01*
X245477138Y-23872848D01*
X245477134Y-23872843D01*
X245319130Y-23687845D01*
X245315917Y-23684083D01*
X245297295Y-23668178D01*
X245127157Y-23522866D01*
X245127152Y-23522862D01*
X245123392Y-23519651D01*
X244907514Y-23387361D01*
X244902944Y-23385468D01*
X244902940Y-23385466D01*
X244678172Y-23292364D01*
X244678170Y-23292363D01*
X244673599Y-23290470D01*
X244567104Y-23264903D01*
X244432220Y-23232520D01*
X244432214Y-23232519D01*
X244427407Y-23231365D01*
X244175000Y-23211500D01*
X243922593Y-23231365D01*
X243917786Y-23232519D01*
X243917780Y-23232520D01*
X243782896Y-23264903D01*
X243676401Y-23290470D01*
X243671830Y-23292363D01*
X243671828Y-23292364D01*
X243447060Y-23385466D01*
X243447056Y-23385468D01*
X243442486Y-23387361D01*
X243226608Y-23519651D01*
X243222848Y-23522862D01*
X243222843Y-23522866D01*
X243052705Y-23668178D01*
X243034083Y-23684083D01*
X243030870Y-23687845D01*
X242904811Y-23835441D01*
X242845361Y-23874251D01*
X242774366Y-23874757D01*
X242714367Y-23836801D01*
X242684414Y-23772433D01*
X242683000Y-23753611D01*
X242683000Y-9972378D01*
X242683002Y-9971608D01*
X242683037Y-9965939D01*
X242683254Y-9930378D01*
X242678139Y-9912480D01*
X242675141Y-9901987D01*
X242671564Y-9885230D01*
X242668653Y-9864903D01*
X242668652Y-9864900D01*
X242667380Y-9856018D01*
X242663665Y-9847848D01*
X242663664Y-9847844D01*
X242656776Y-9832695D01*
X242650327Y-9815167D01*
X242645752Y-9799158D01*
X242645749Y-9799151D01*
X242643284Y-9790526D01*
X242627528Y-9765555D01*
X242619395Y-9750481D01*
X242607178Y-9723611D01*
X242590450Y-9704197D01*
X242579346Y-9689190D01*
X242565669Y-9667514D01*
X242543544Y-9647974D01*
X242531500Y-9635781D01*
X242518095Y-9620223D01*
X242518091Y-9620220D01*
X242512234Y-9613422D01*
X242490729Y-9599483D01*
X242475855Y-9588193D01*
X242463378Y-9577174D01*
X242456649Y-9571231D01*
X242429923Y-9558683D01*
X242414952Y-9550367D01*
X242390179Y-9534310D01*
X242381575Y-9531737D01*
X242381573Y-9531736D01*
X242365623Y-9526966D01*
X242348178Y-9520304D01*
X242333113Y-9513231D01*
X242333111Y-9513231D01*
X242324987Y-9509416D01*
X242316123Y-9508036D01*
X242316114Y-9508033D01*
X242295820Y-9504873D01*
X242279109Y-9501092D01*
X242259428Y-9495207D01*
X242259425Y-9495207D01*
X242250826Y-9492635D01*
X242241854Y-9492580D01*
X242241853Y-9492580D01*
X242218002Y-9492434D01*
X242215162Y-9492316D01*
X242213135Y-9492000D01*
X242147378Y-9492000D01*
X242146608Y-9491998D01*
X242146052Y-9491995D01*
X242105378Y-9491746D01*
X242104546Y-9491984D01*
X242104308Y-9492000D01*
X228147378Y-9492000D01*
X228146608Y-9491998D01*
X228146352Y-9491996D01*
X228105378Y-9491746D01*
X228096750Y-9494212D01*
X228096749Y-9494212D01*
X228076987Y-9499859D01*
X228060230Y-9503436D01*
X228039903Y-9506347D01*
X228039900Y-9506348D01*
X228031018Y-9507620D01*
X228022848Y-9511335D01*
X228022844Y-9511336D01*
X228007695Y-9518224D01*
X227990167Y-9524673D01*
X227974158Y-9529248D01*
X227974151Y-9529251D01*
X227965526Y-9531716D01*
X227940555Y-9547472D01*
X227925481Y-9555605D01*
X227898611Y-9567822D01*
X227879197Y-9584550D01*
X227864190Y-9595654D01*
X227842514Y-9609331D01*
X227823402Y-9630972D01*
X227822977Y-9631453D01*
X227810781Y-9643500D01*
X227795223Y-9656905D01*
X227795220Y-9656909D01*
X227788422Y-9662766D01*
X227783542Y-9670295D01*
X227783541Y-9670296D01*
X227774483Y-9684271D01*
X227763193Y-9699145D01*
X227746231Y-9718351D01*
X227733683Y-9745077D01*
X227725367Y-9760048D01*
X227709310Y-9784821D01*
X227706737Y-9793425D01*
X227706736Y-9793427D01*
X227701966Y-9809377D01*
X227695304Y-9826822D01*
X227684416Y-9850013D01*
X227683036Y-9858877D01*
X227683033Y-9858886D01*
X227679873Y-9879180D01*
X227676092Y-9895891D01*
X227671132Y-9912480D01*
X227667635Y-9924174D01*
X227667580Y-9933146D01*
X227667580Y-9933147D01*
X227667434Y-9956998D01*
X227667316Y-9959838D01*
X227667000Y-9961865D01*
X227667000Y-10027622D01*
X227666998Y-10028392D01*
X227666746Y-10069622D01*
X226184087Y-10069622D01*
X226184833Y-10060911D01*
X226186481Y-10051352D01*
X226187309Y-10046552D01*
X226189305Y-9924174D01*
X226189398Y-9918470D01*
X226189638Y-9912480D01*
X226193447Y-9852947D01*
X226194217Y-9844935D01*
X226219355Y-9649289D01*
X226220636Y-9641342D01*
X226228345Y-9601617D01*
X226230130Y-9593768D01*
X226279992Y-9402934D01*
X226282274Y-9395217D01*
X226294987Y-9356784D01*
X226297758Y-9349225D01*
X226371531Y-9166310D01*
X226374778Y-9158947D01*
X226392291Y-9122435D01*
X226396003Y-9115291D01*
X226421617Y-9069622D01*
X245666746Y-9069622D01*
X245666984Y-9070454D01*
X245667000Y-9070692D01*
X245667000Y-23027622D01*
X245666998Y-23028392D01*
X245666746Y-23069622D01*
X245669212Y-23078250D01*
X245669212Y-23078251D01*
X245674859Y-23098013D01*
X245678436Y-23114770D01*
X245680113Y-23126476D01*
X245682620Y-23143982D01*
X245686335Y-23152152D01*
X245686336Y-23152156D01*
X245693224Y-23167305D01*
X245699673Y-23184833D01*
X245704248Y-23200842D01*
X245704251Y-23200849D01*
X245706716Y-23209474D01*
X245722472Y-23234445D01*
X245730605Y-23249519D01*
X245742822Y-23276389D01*
X245753960Y-23289315D01*
X245759550Y-23295803D01*
X245770654Y-23310810D01*
X245784331Y-23332486D01*
X245796344Y-23343095D01*
X245806453Y-23352023D01*
X245818500Y-23364219D01*
X245831905Y-23379777D01*
X245831909Y-23379780D01*
X245837766Y-23386578D01*
X245845295Y-23391458D01*
X245845296Y-23391459D01*
X245859271Y-23400517D01*
X245874145Y-23411807D01*
X245893351Y-23428769D01*
X245920077Y-23441317D01*
X245935048Y-23449633D01*
X245959821Y-23465690D01*
X245968425Y-23468263D01*
X245968427Y-23468264D01*
X245984377Y-23473034D01*
X246001822Y-23479696D01*
X246016887Y-23486769D01*
X246016889Y-23486769D01*
X246025013Y-23490584D01*
X246033877Y-23491964D01*
X246033886Y-23491967D01*
X246054180Y-23495127D01*
X246070891Y-23498908D01*
X246090572Y-23504793D01*
X246090575Y-23504793D01*
X246099174Y-23507365D01*
X246108146Y-23507420D01*
X246108147Y-23507420D01*
X246131998Y-23507566D01*
X246134838Y-23507684D01*
X246136865Y-23508000D01*
X246202622Y-23508000D01*
X246203392Y-23508002D01*
X246244622Y-23508254D01*
X246245454Y-23508016D01*
X246245692Y-23508000D01*
X260202622Y-23508000D01*
X260203392Y-23508002D01*
X260244622Y-23508254D01*
X260253251Y-23505788D01*
X260273013Y-23500141D01*
X260289770Y-23496564D01*
X260310097Y-23493653D01*
X260310100Y-23493652D01*
X260318982Y-23492380D01*
X260327152Y-23488665D01*
X260327156Y-23488664D01*
X260342305Y-23481776D01*
X260359833Y-23475327D01*
X260375842Y-23470752D01*
X260375849Y-23470749D01*
X260384474Y-23468284D01*
X260409445Y-23452528D01*
X260424519Y-23444395D01*
X260451389Y-23432178D01*
X260470803Y-23415450D01*
X260485810Y-23404346D01*
X260507486Y-23390669D01*
X260527026Y-23368544D01*
X260539219Y-23356500D01*
X260554777Y-23343095D01*
X260554780Y-23343091D01*
X260561578Y-23337234D01*
X260575517Y-23315729D01*
X260586807Y-23300855D01*
X260594306Y-23292364D01*
X260603769Y-23281649D01*
X260616317Y-23254923D01*
X260624633Y-23239952D01*
X260640690Y-23215179D01*
X260643264Y-23206573D01*
X260648034Y-23190623D01*
X260654696Y-23173178D01*
X260661769Y-23158113D01*
X260661769Y-23158111D01*
X260665584Y-23149987D01*
X260666964Y-23141123D01*
X260666967Y-23141114D01*
X260670127Y-23120820D01*
X260673908Y-23104109D01*
X260679793Y-23084428D01*
X260679793Y-23084425D01*
X260682365Y-23075826D01*
X260682481Y-23056905D01*
X260682566Y-23043002D01*
X260682684Y-23040162D01*
X260683000Y-23038135D01*
X260683000Y-22972378D01*
X260683002Y-22971608D01*
X260683103Y-22955037D01*
X260683254Y-22930378D01*
X260683016Y-22929546D01*
X260683000Y-22929308D01*
X260683000Y-21069622D01*
X263666746Y-21069622D01*
X263666984Y-21070454D01*
X263667000Y-21070692D01*
X263667000Y-35027622D01*
X263666998Y-35028392D01*
X263666746Y-35069622D01*
X263669212Y-35078250D01*
X263669212Y-35078251D01*
X263674859Y-35098013D01*
X263678436Y-35114770D01*
X263679303Y-35120820D01*
X263682620Y-35143982D01*
X263686335Y-35152152D01*
X263686336Y-35152156D01*
X263693224Y-35167305D01*
X263699673Y-35184833D01*
X263704248Y-35200842D01*
X263704251Y-35200849D01*
X263706716Y-35209474D01*
X263722472Y-35234445D01*
X263730605Y-35249519D01*
X263742822Y-35276389D01*
X263759550Y-35295803D01*
X263770654Y-35310810D01*
X263784331Y-35332486D01*
X263796344Y-35343095D01*
X263806453Y-35352023D01*
X263818500Y-35364219D01*
X263831905Y-35379777D01*
X263831909Y-35379780D01*
X263837766Y-35386578D01*
X263845295Y-35391458D01*
X263845296Y-35391459D01*
X263859271Y-35400517D01*
X263874145Y-35411807D01*
X263893351Y-35428769D01*
X263920077Y-35441317D01*
X263935048Y-35449633D01*
X263959821Y-35465690D01*
X263968425Y-35468263D01*
X263968427Y-35468264D01*
X263984377Y-35473034D01*
X264001822Y-35479696D01*
X264016887Y-35486769D01*
X264016889Y-35486769D01*
X264025013Y-35490584D01*
X264033877Y-35491964D01*
X264033886Y-35491967D01*
X264054180Y-35495127D01*
X264070891Y-35498908D01*
X264090572Y-35504793D01*
X264090575Y-35504793D01*
X264099174Y-35507365D01*
X264108146Y-35507420D01*
X264108147Y-35507420D01*
X264131998Y-35507566D01*
X264134838Y-35507684D01*
X264136865Y-35508000D01*
X264202622Y-35508000D01*
X264203392Y-35508002D01*
X264244622Y-35508254D01*
X264245454Y-35508016D01*
X264245692Y-35508000D01*
X278202622Y-35508000D01*
X278203392Y-35508002D01*
X278244622Y-35508254D01*
X278253251Y-35505788D01*
X278273013Y-35500141D01*
X278289770Y-35496564D01*
X278310097Y-35493653D01*
X278310100Y-35493652D01*
X278318982Y-35492380D01*
X278327152Y-35488665D01*
X278327156Y-35488664D01*
X278342305Y-35481776D01*
X278359833Y-35475327D01*
X278375842Y-35470752D01*
X278375849Y-35470749D01*
X278384474Y-35468284D01*
X278409445Y-35452528D01*
X278424519Y-35444395D01*
X278451389Y-35432178D01*
X278470803Y-35415450D01*
X278485810Y-35404346D01*
X278507486Y-35390669D01*
X278527026Y-35368544D01*
X278539219Y-35356500D01*
X278554777Y-35343095D01*
X278554780Y-35343091D01*
X278561578Y-35337234D01*
X278575517Y-35315729D01*
X278586807Y-35300855D01*
X278597826Y-35288378D01*
X278603769Y-35281649D01*
X278616317Y-35254923D01*
X278624633Y-35239952D01*
X278640690Y-35215179D01*
X278643264Y-35206573D01*
X278648034Y-35190623D01*
X278654696Y-35173178D01*
X278661769Y-35158113D01*
X278661769Y-35158111D01*
X278665584Y-35149987D01*
X278666964Y-35141123D01*
X278666967Y-35141114D01*
X278670127Y-35120820D01*
X278673908Y-35104109D01*
X278679793Y-35084428D01*
X278679793Y-35084425D01*
X278682365Y-35075826D01*
X278682566Y-35043002D01*
X278682684Y-35040162D01*
X278683000Y-35038135D01*
X278683000Y-34972378D01*
X278683002Y-34971608D01*
X278683239Y-34932817D01*
X278683254Y-34930378D01*
X278683016Y-34929546D01*
X278683000Y-34929308D01*
X278683000Y-20972378D01*
X278683002Y-20971608D01*
X278683037Y-20965939D01*
X278683254Y-20930378D01*
X278679023Y-20915572D01*
X278675141Y-20901987D01*
X278671564Y-20885230D01*
X278668653Y-20864903D01*
X278668652Y-20864900D01*
X278667380Y-20856018D01*
X278663665Y-20847848D01*
X278663664Y-20847844D01*
X278656776Y-20832695D01*
X278650327Y-20815167D01*
X278645752Y-20799158D01*
X278645749Y-20799151D01*
X278643284Y-20790526D01*
X278627528Y-20765555D01*
X278619395Y-20750481D01*
X278607178Y-20723611D01*
X278590450Y-20704197D01*
X278579346Y-20689190D01*
X278565669Y-20667514D01*
X278543544Y-20647974D01*
X278531500Y-20635781D01*
X278518095Y-20620223D01*
X278518091Y-20620220D01*
X278512234Y-20613422D01*
X278501668Y-20606573D01*
X278490729Y-20599483D01*
X278475855Y-20588193D01*
X278468453Y-20581656D01*
X278456649Y-20571231D01*
X278429923Y-20558683D01*
X278414952Y-20550367D01*
X278390179Y-20534310D01*
X278381575Y-20531737D01*
X278381573Y-20531736D01*
X278365623Y-20526966D01*
X278348178Y-20520304D01*
X278333113Y-20513231D01*
X278333111Y-20513231D01*
X278324987Y-20509416D01*
X278316123Y-20508036D01*
X278316114Y-20508033D01*
X278295820Y-20504873D01*
X278279109Y-20501092D01*
X278259428Y-20495207D01*
X278259425Y-20495207D01*
X278250826Y-20492635D01*
X278241854Y-20492580D01*
X278241853Y-20492580D01*
X278218002Y-20492434D01*
X278215162Y-20492316D01*
X278213135Y-20492000D01*
X278147378Y-20492000D01*
X278146608Y-20491998D01*
X278146052Y-20491995D01*
X278105378Y-20491746D01*
X278104546Y-20491984D01*
X278104308Y-20492000D01*
X264147378Y-20492000D01*
X264146608Y-20491998D01*
X264146352Y-20491996D01*
X264105378Y-20491746D01*
X264096750Y-20494212D01*
X264096749Y-20494212D01*
X264076987Y-20499859D01*
X264060230Y-20503436D01*
X264039903Y-20506347D01*
X264039900Y-20506348D01*
X264031018Y-20507620D01*
X264022848Y-20511335D01*
X264022844Y-20511336D01*
X264007695Y-20518224D01*
X263990167Y-20524673D01*
X263974158Y-20529248D01*
X263974151Y-20529251D01*
X263965526Y-20531716D01*
X263940555Y-20547472D01*
X263925481Y-20555605D01*
X263898611Y-20567822D01*
X263887754Y-20577177D01*
X263879197Y-20584550D01*
X263864190Y-20595654D01*
X263842514Y-20609331D01*
X263836572Y-20616059D01*
X263822977Y-20631453D01*
X263810781Y-20643500D01*
X263795223Y-20656905D01*
X263795220Y-20656909D01*
X263788422Y-20662766D01*
X263783542Y-20670295D01*
X263783541Y-20670296D01*
X263774483Y-20684271D01*
X263763193Y-20699145D01*
X263746231Y-20718351D01*
X263733683Y-20745077D01*
X263725367Y-20760048D01*
X263709310Y-20784821D01*
X263706737Y-20793425D01*
X263706736Y-20793427D01*
X263701966Y-20809377D01*
X263695304Y-20826822D01*
X263692547Y-20832695D01*
X263684416Y-20850013D01*
X263683036Y-20858877D01*
X263683033Y-20858886D01*
X263679873Y-20879180D01*
X263676092Y-20895891D01*
X263670207Y-20915572D01*
X263667635Y-20924174D01*
X263667580Y-20933146D01*
X263667580Y-20933147D01*
X263667434Y-20956998D01*
X263667316Y-20959838D01*
X263667000Y-20961865D01*
X263667000Y-21027622D01*
X263666998Y-21028392D01*
X263666746Y-21069622D01*
X260683000Y-21069622D01*
X260683000Y-19769622D01*
X281666746Y-19769622D01*
X281666984Y-19770454D01*
X281667000Y-19770692D01*
X281667000Y-33727622D01*
X281666998Y-33728392D01*
X281666746Y-33769622D01*
X281669212Y-33778250D01*
X281669212Y-33778251D01*
X281674859Y-33798013D01*
X281678436Y-33814770D01*
X281679303Y-33820820D01*
X281682620Y-33843982D01*
X281686335Y-33852152D01*
X281686336Y-33852156D01*
X281693224Y-33867305D01*
X281699673Y-33884833D01*
X281704248Y-33900842D01*
X281704251Y-33900849D01*
X281706716Y-33909474D01*
X281722472Y-33934445D01*
X281730605Y-33949519D01*
X281742822Y-33976389D01*
X281759550Y-33995803D01*
X281770654Y-34010810D01*
X281784331Y-34032486D01*
X281796344Y-34043095D01*
X281806453Y-34052023D01*
X281818500Y-34064219D01*
X281831905Y-34079777D01*
X281831909Y-34079780D01*
X281837766Y-34086578D01*
X281845295Y-34091458D01*
X281845296Y-34091459D01*
X281859271Y-34100517D01*
X281874145Y-34111807D01*
X281893351Y-34128769D01*
X281920077Y-34141317D01*
X281935048Y-34149633D01*
X281959821Y-34165690D01*
X281968425Y-34168263D01*
X281968427Y-34168264D01*
X281984377Y-34173034D01*
X282001822Y-34179696D01*
X282016887Y-34186769D01*
X282016889Y-34186769D01*
X282025013Y-34190584D01*
X282033877Y-34191964D01*
X282033886Y-34191967D01*
X282054180Y-34195127D01*
X282070891Y-34198908D01*
X282090572Y-34204793D01*
X282090575Y-34204793D01*
X282099174Y-34207365D01*
X282108146Y-34207420D01*
X282108147Y-34207420D01*
X282131998Y-34207566D01*
X282134838Y-34207684D01*
X282136865Y-34208000D01*
X282202622Y-34208000D01*
X282203392Y-34208002D01*
X282244622Y-34208254D01*
X282245454Y-34208016D01*
X282245692Y-34208000D01*
X296202622Y-34208000D01*
X296203392Y-34208002D01*
X296244622Y-34208254D01*
X296253251Y-34205788D01*
X296273013Y-34200141D01*
X296289770Y-34196564D01*
X296310097Y-34193653D01*
X296310100Y-34193652D01*
X296318982Y-34192380D01*
X296327152Y-34188665D01*
X296327156Y-34188664D01*
X296342305Y-34181776D01*
X296359833Y-34175327D01*
X296375842Y-34170752D01*
X296375849Y-34170749D01*
X296384474Y-34168284D01*
X296409445Y-34152528D01*
X296424519Y-34144395D01*
X296451389Y-34132178D01*
X296470803Y-34115450D01*
X296485810Y-34104346D01*
X296507486Y-34090669D01*
X296527026Y-34068544D01*
X296539219Y-34056500D01*
X296554777Y-34043095D01*
X296554780Y-34043091D01*
X296561578Y-34037234D01*
X296575517Y-34015729D01*
X296586807Y-34000855D01*
X296597826Y-33988378D01*
X296603769Y-33981649D01*
X296616317Y-33954923D01*
X296624633Y-33939952D01*
X296640690Y-33915179D01*
X296643264Y-33906573D01*
X296648034Y-33890623D01*
X296654696Y-33873178D01*
X296661769Y-33858113D01*
X296661769Y-33858111D01*
X296665584Y-33849987D01*
X296666964Y-33841123D01*
X296666967Y-33841114D01*
X296670127Y-33820820D01*
X296673908Y-33804109D01*
X296679793Y-33784428D01*
X296679793Y-33784425D01*
X296682365Y-33775826D01*
X296682566Y-33743002D01*
X296682684Y-33740162D01*
X296683000Y-33738135D01*
X296683000Y-33672378D01*
X296683002Y-33671608D01*
X296683239Y-33632817D01*
X296683254Y-33630378D01*
X296683016Y-33629546D01*
X296683000Y-33629308D01*
X296683000Y-19672378D01*
X296683002Y-19671608D01*
X296683037Y-19665939D01*
X296683254Y-19630378D01*
X296680788Y-19621749D01*
X296675141Y-19601987D01*
X296671564Y-19585230D01*
X296668653Y-19564903D01*
X296668652Y-19564900D01*
X296667380Y-19556018D01*
X296663665Y-19547848D01*
X296663664Y-19547844D01*
X296656776Y-19532695D01*
X296650327Y-19515167D01*
X296645752Y-19499158D01*
X296645749Y-19499151D01*
X296643284Y-19490526D01*
X296627528Y-19465555D01*
X296619395Y-19450481D01*
X296607178Y-19423611D01*
X296590450Y-19404197D01*
X296579346Y-19389190D01*
X296565669Y-19367514D01*
X296543544Y-19347974D01*
X296531500Y-19335781D01*
X296518095Y-19320223D01*
X296518091Y-19320220D01*
X296512234Y-19313422D01*
X296490729Y-19299483D01*
X296475855Y-19288193D01*
X296463378Y-19277174D01*
X296456649Y-19271231D01*
X296429923Y-19258683D01*
X296414952Y-19250367D01*
X296390179Y-19234310D01*
X296381575Y-19231737D01*
X296381573Y-19231736D01*
X296365623Y-19226966D01*
X296348178Y-19220304D01*
X296333113Y-19213231D01*
X296333111Y-19213231D01*
X296324987Y-19209416D01*
X296316123Y-19208036D01*
X296316114Y-19208033D01*
X296295820Y-19204873D01*
X296279109Y-19201092D01*
X296259428Y-19195207D01*
X296259425Y-19195207D01*
X296250826Y-19192635D01*
X296241854Y-19192580D01*
X296241853Y-19192580D01*
X296218002Y-19192434D01*
X296215162Y-19192316D01*
X296213135Y-19192000D01*
X296147378Y-19192000D01*
X296146608Y-19191998D01*
X296146052Y-19191995D01*
X296105378Y-19191746D01*
X296104546Y-19191984D01*
X296104308Y-19192000D01*
X282147378Y-19192000D01*
X282146608Y-19191998D01*
X282146352Y-19191996D01*
X282105378Y-19191746D01*
X282096750Y-19194212D01*
X282096749Y-19194212D01*
X282076987Y-19199859D01*
X282060230Y-19203436D01*
X282039903Y-19206347D01*
X282039900Y-19206348D01*
X282031018Y-19207620D01*
X282022848Y-19211335D01*
X282022844Y-19211336D01*
X282007695Y-19218224D01*
X281990167Y-19224673D01*
X281974158Y-19229248D01*
X281974151Y-19229251D01*
X281965526Y-19231716D01*
X281940555Y-19247472D01*
X281925481Y-19255605D01*
X281898611Y-19267822D01*
X281879197Y-19284550D01*
X281864190Y-19295654D01*
X281842514Y-19309331D01*
X281836572Y-19316059D01*
X281822977Y-19331453D01*
X281810781Y-19343500D01*
X281795223Y-19356905D01*
X281795220Y-19356909D01*
X281788422Y-19362766D01*
X281783542Y-19370295D01*
X281783541Y-19370296D01*
X281774483Y-19384271D01*
X281763193Y-19399145D01*
X281746231Y-19418351D01*
X281733683Y-19445077D01*
X281725367Y-19460048D01*
X281709310Y-19484821D01*
X281706737Y-19493425D01*
X281706736Y-19493427D01*
X281701966Y-19509377D01*
X281695304Y-19526822D01*
X281684416Y-19550013D01*
X281683036Y-19558877D01*
X281683033Y-19558886D01*
X281679873Y-19579180D01*
X281676092Y-19595891D01*
X281670207Y-19615572D01*
X281667635Y-19624174D01*
X281667580Y-19633146D01*
X281667580Y-19633147D01*
X281667434Y-19656998D01*
X281667316Y-19659838D01*
X281667000Y-19661865D01*
X281667000Y-19727622D01*
X281666998Y-19728392D01*
X281666746Y-19769622D01*
X260683000Y-19769622D01*
X260683000Y-8972378D01*
X260683002Y-8971608D01*
X260683037Y-8965939D01*
X260683254Y-8930378D01*
X260679023Y-8915572D01*
X260675141Y-8901987D01*
X260671564Y-8885230D01*
X260668653Y-8864903D01*
X260668652Y-8864900D01*
X260667380Y-8856018D01*
X260663665Y-8847848D01*
X260663664Y-8847844D01*
X260656776Y-8832695D01*
X260650327Y-8815167D01*
X260645752Y-8799158D01*
X260645749Y-8799151D01*
X260643284Y-8790526D01*
X260627528Y-8765555D01*
X260619395Y-8750481D01*
X260607178Y-8723611D01*
X260590450Y-8704197D01*
X260579346Y-8689190D01*
X260565669Y-8667514D01*
X260543544Y-8647974D01*
X260531500Y-8635781D01*
X260518095Y-8620223D01*
X260518091Y-8620220D01*
X260512234Y-8613422D01*
X260490729Y-8599483D01*
X260475855Y-8588193D01*
X260463378Y-8577174D01*
X260456649Y-8571231D01*
X260429923Y-8558683D01*
X260414952Y-8550367D01*
X260390179Y-8534310D01*
X260381575Y-8531737D01*
X260381573Y-8531736D01*
X260365623Y-8526966D01*
X260348178Y-8520304D01*
X260333113Y-8513231D01*
X260333111Y-8513231D01*
X260324987Y-8509416D01*
X260316123Y-8508036D01*
X260316114Y-8508033D01*
X260295820Y-8504873D01*
X260279109Y-8501092D01*
X260259428Y-8495207D01*
X260259425Y-8495207D01*
X260250826Y-8492635D01*
X260241854Y-8492580D01*
X260241853Y-8492580D01*
X260218002Y-8492434D01*
X260215162Y-8492316D01*
X260213135Y-8492000D01*
X260147378Y-8492000D01*
X260146608Y-8491998D01*
X260146052Y-8491995D01*
X260105378Y-8491746D01*
X260104546Y-8491984D01*
X260104308Y-8492000D01*
X246147378Y-8492000D01*
X246146608Y-8491998D01*
X246146352Y-8491996D01*
X246105378Y-8491746D01*
X246096750Y-8494212D01*
X246096749Y-8494212D01*
X246076987Y-8499859D01*
X246060230Y-8503436D01*
X246039903Y-8506347D01*
X246039900Y-8506348D01*
X246031018Y-8507620D01*
X246022848Y-8511335D01*
X246022844Y-8511336D01*
X246007695Y-8518224D01*
X245990167Y-8524673D01*
X245974158Y-8529248D01*
X245974151Y-8529251D01*
X245965526Y-8531716D01*
X245940555Y-8547472D01*
X245925481Y-8555605D01*
X245898611Y-8567822D01*
X245879197Y-8584550D01*
X245864190Y-8595654D01*
X245842514Y-8609331D01*
X245827439Y-8626401D01*
X245822977Y-8631453D01*
X245810781Y-8643500D01*
X245795223Y-8656905D01*
X245795220Y-8656909D01*
X245788422Y-8662766D01*
X245783542Y-8670295D01*
X245783541Y-8670296D01*
X245774483Y-8684271D01*
X245763193Y-8699145D01*
X245746231Y-8718351D01*
X245733683Y-8745077D01*
X245725367Y-8760048D01*
X245709310Y-8784821D01*
X245706737Y-8793425D01*
X245706736Y-8793427D01*
X245701966Y-8809377D01*
X245695304Y-8826822D01*
X245684416Y-8850013D01*
X245683036Y-8858877D01*
X245683033Y-8858886D01*
X245679873Y-8879180D01*
X245676092Y-8895891D01*
X245670207Y-8915572D01*
X245667635Y-8924174D01*
X245667580Y-8933146D01*
X245667580Y-8933147D01*
X245667434Y-8956998D01*
X245667316Y-8959838D01*
X245667000Y-8961865D01*
X245667000Y-9027622D01*
X245666998Y-9028392D01*
X245666746Y-9069622D01*
X226421617Y-9069622D01*
X226492483Y-8943270D01*
X226496642Y-8936380D01*
X226518664Y-8902400D01*
X226523247Y-8895800D01*
X226640884Y-8737448D01*
X226645874Y-8731161D01*
X226672040Y-8700273D01*
X226677420Y-8694319D01*
X226814265Y-8552262D01*
X226820021Y-8546657D01*
X226849946Y-8519322D01*
X226856061Y-8514085D01*
X226859487Y-8511336D01*
X227009864Y-8390652D01*
X227016294Y-8385820D01*
X227049432Y-8362541D01*
X227056162Y-8358128D01*
X227224472Y-8255281D01*
X227231452Y-8251316D01*
X227267273Y-8232456D01*
X227274510Y-8228937D01*
X227371658Y-8185469D01*
X227454571Y-8148371D01*
X227462008Y-8145325D01*
X227499944Y-8131183D01*
X227507559Y-8128618D01*
X227696381Y-8071666D01*
X227704139Y-8069594D01*
X227749595Y-8058997D01*
X227762290Y-8056037D01*
X227768158Y-8054816D01*
X227826651Y-8044084D01*
X227849389Y-8042015D01*
X244185887Y-8042015D01*
X244202419Y-8043104D01*
X244232730Y-8047116D01*
X244232734Y-8047116D01*
X244237553Y-8047754D01*
X244242415Y-8047643D01*
X244242419Y-8047643D01*
X244320754Y-8045851D01*
X244423298Y-8043505D01*
X244424985Y-8043224D01*
X244426138Y-8043105D01*
X244431002Y-8042980D01*
X244435783Y-8042109D01*
X244435786Y-8042109D01*
X244448621Y-8039771D01*
X244479158Y-8034210D01*
X244480930Y-8033902D01*
X244533379Y-8025162D01*
X244535735Y-8024025D01*
X244537513Y-8023583D01*
X244622039Y-8008190D01*
X244626479Y-8007646D01*
X244631248Y-8008022D01*
X244640031Y-8006188D01*
X244640033Y-8006188D01*
X244655205Y-8003020D01*
X244686308Y-7996526D01*
X244689372Y-7995927D01*
X244724599Y-7989512D01*
X244728844Y-7988094D01*
X244733203Y-7986975D01*
X244733241Y-7987121D01*
X244735809Y-7986427D01*
X244738681Y-7985592D01*
X244743451Y-7984596D01*
X244773580Y-7973246D01*
X244778060Y-7971654D01*
X244821935Y-7956998D01*
X244821937Y-7956997D01*
X244830448Y-7954154D01*
X244836346Y-7950059D01*
X244843879Y-7946762D01*
X245022716Y-7879390D01*
X245024228Y-7878559D01*
X245025263Y-7878071D01*
X245029809Y-7876344D01*
X245034031Y-7873940D01*
X245034038Y-7873937D01*
X245072230Y-7852193D01*
X245073882Y-7851269D01*
X245110493Y-7831148D01*
X245138656Y-7819841D01*
X259175586Y-4069622D01*
X263666746Y-4069622D01*
X263666984Y-4070454D01*
X263667000Y-4070692D01*
X263667000Y-18027622D01*
X263666998Y-18028392D01*
X263666746Y-18069622D01*
X263669212Y-18078250D01*
X263669212Y-18078251D01*
X263674859Y-18098013D01*
X263678436Y-18114770D01*
X263679303Y-18120820D01*
X263682620Y-18143982D01*
X263686335Y-18152152D01*
X263686336Y-18152156D01*
X263693224Y-18167305D01*
X263699673Y-18184833D01*
X263704248Y-18200842D01*
X263704251Y-18200849D01*
X263706716Y-18209474D01*
X263722472Y-18234445D01*
X263730605Y-18249519D01*
X263742822Y-18276389D01*
X263759550Y-18295803D01*
X263770654Y-18310810D01*
X263784331Y-18332486D01*
X263801437Y-18347593D01*
X263806453Y-18352023D01*
X263818500Y-18364219D01*
X263831905Y-18379777D01*
X263831909Y-18379780D01*
X263837766Y-18386578D01*
X263845295Y-18391458D01*
X263845296Y-18391459D01*
X263859271Y-18400517D01*
X263874145Y-18411807D01*
X263893351Y-18428769D01*
X263920077Y-18441317D01*
X263935048Y-18449633D01*
X263959821Y-18465690D01*
X263968425Y-18468263D01*
X263968427Y-18468264D01*
X263984377Y-18473034D01*
X264001822Y-18479696D01*
X264016887Y-18486769D01*
X264016889Y-18486769D01*
X264025013Y-18490584D01*
X264033877Y-18491964D01*
X264033886Y-18491967D01*
X264054180Y-18495127D01*
X264070891Y-18498908D01*
X264090572Y-18504793D01*
X264090575Y-18504793D01*
X264099174Y-18507365D01*
X264108146Y-18507420D01*
X264108147Y-18507420D01*
X264131998Y-18507566D01*
X264134838Y-18507684D01*
X264136865Y-18508000D01*
X264202622Y-18508000D01*
X264203392Y-18508002D01*
X264244622Y-18508254D01*
X264245454Y-18508016D01*
X264245692Y-18508000D01*
X278202622Y-18508000D01*
X278203392Y-18508002D01*
X278244622Y-18508254D01*
X278253251Y-18505788D01*
X278273013Y-18500141D01*
X278289770Y-18496564D01*
X278310097Y-18493653D01*
X278310100Y-18493652D01*
X278318982Y-18492380D01*
X278327152Y-18488665D01*
X278327156Y-18488664D01*
X278342305Y-18481776D01*
X278359833Y-18475327D01*
X278375842Y-18470752D01*
X278375849Y-18470749D01*
X278384474Y-18468284D01*
X278409445Y-18452528D01*
X278424519Y-18444395D01*
X278451389Y-18432178D01*
X278470803Y-18415450D01*
X278485810Y-18404346D01*
X278507486Y-18390669D01*
X278527026Y-18368544D01*
X278539219Y-18356500D01*
X278554777Y-18343095D01*
X278554780Y-18343091D01*
X278561578Y-18337234D01*
X278575517Y-18315729D01*
X278586807Y-18300855D01*
X278597826Y-18288378D01*
X278603769Y-18281649D01*
X278616317Y-18254923D01*
X278624633Y-18239952D01*
X278640690Y-18215179D01*
X278643264Y-18206573D01*
X278648034Y-18190623D01*
X278654696Y-18173178D01*
X278661769Y-18158113D01*
X278661769Y-18158111D01*
X278665584Y-18149987D01*
X278666964Y-18141123D01*
X278666967Y-18141114D01*
X278670127Y-18120820D01*
X278673908Y-18104109D01*
X278679793Y-18084428D01*
X278679793Y-18084425D01*
X278682365Y-18075826D01*
X278682566Y-18043002D01*
X278682684Y-18040162D01*
X278683000Y-18038135D01*
X278683000Y-17972378D01*
X278683002Y-17971608D01*
X278683239Y-17932817D01*
X278683254Y-17930378D01*
X278683016Y-17929546D01*
X278683000Y-17929308D01*
X278683000Y-3972378D01*
X278683002Y-3971608D01*
X278683037Y-3965939D01*
X278683254Y-3930378D01*
X278679023Y-3915572D01*
X278675141Y-3901987D01*
X278671564Y-3885230D01*
X278668653Y-3864903D01*
X278668652Y-3864900D01*
X278667380Y-3856018D01*
X278663665Y-3847848D01*
X278663664Y-3847844D01*
X278656776Y-3832695D01*
X278650327Y-3815167D01*
X278645752Y-3799158D01*
X278645749Y-3799151D01*
X278643284Y-3790526D01*
X278627528Y-3765555D01*
X278619395Y-3750481D01*
X278607178Y-3723611D01*
X278590450Y-3704197D01*
X278579346Y-3689190D01*
X278565669Y-3667514D01*
X278543544Y-3647974D01*
X278531500Y-3635781D01*
X278518095Y-3620223D01*
X278518091Y-3620220D01*
X278512234Y-3613422D01*
X278490729Y-3599483D01*
X278475855Y-3588193D01*
X278463378Y-3577174D01*
X278456649Y-3571231D01*
X278429923Y-3558683D01*
X278414952Y-3550367D01*
X278390179Y-3534310D01*
X278381575Y-3531737D01*
X278381573Y-3531736D01*
X278365623Y-3526966D01*
X278348178Y-3520304D01*
X278333113Y-3513231D01*
X278333111Y-3513231D01*
X278324987Y-3509416D01*
X278316123Y-3508036D01*
X278316114Y-3508033D01*
X278295820Y-3504873D01*
X278279109Y-3501092D01*
X278259428Y-3495207D01*
X278259425Y-3495207D01*
X278250826Y-3492635D01*
X278241854Y-3492580D01*
X278241853Y-3492580D01*
X278218002Y-3492434D01*
X278215162Y-3492316D01*
X278213135Y-3492000D01*
X278147378Y-3492000D01*
X278146608Y-3491998D01*
X278146052Y-3491995D01*
X278105378Y-3491746D01*
X278104546Y-3491984D01*
X278104308Y-3492000D01*
X264147378Y-3492000D01*
X264146608Y-3491998D01*
X264146352Y-3491996D01*
X264105378Y-3491746D01*
X264096750Y-3494212D01*
X264096749Y-3494212D01*
X264076987Y-3499859D01*
X264060230Y-3503436D01*
X264039903Y-3506347D01*
X264039900Y-3506348D01*
X264031018Y-3507620D01*
X264022848Y-3511335D01*
X264022844Y-3511336D01*
X264007695Y-3518224D01*
X263990167Y-3524673D01*
X263974158Y-3529248D01*
X263974151Y-3529251D01*
X263965526Y-3531716D01*
X263940555Y-3547472D01*
X263925481Y-3555605D01*
X263898611Y-3567822D01*
X263879197Y-3584550D01*
X263864190Y-3595654D01*
X263842514Y-3609331D01*
X263836572Y-3616059D01*
X263822977Y-3631453D01*
X263810781Y-3643500D01*
X263795223Y-3656905D01*
X263795220Y-3656909D01*
X263788422Y-3662766D01*
X263783542Y-3670295D01*
X263783541Y-3670296D01*
X263774483Y-3684271D01*
X263763193Y-3699145D01*
X263746231Y-3718351D01*
X263733683Y-3745077D01*
X263725367Y-3760048D01*
X263709310Y-3784821D01*
X263706737Y-3793425D01*
X263706736Y-3793427D01*
X263701966Y-3809377D01*
X263695304Y-3826822D01*
X263684416Y-3850013D01*
X263683036Y-3858877D01*
X263683033Y-3858886D01*
X263679873Y-3879180D01*
X263676092Y-3895891D01*
X263670207Y-3915572D01*
X263667635Y-3924174D01*
X263667580Y-3933146D01*
X263667580Y-3933147D01*
X263667434Y-3956998D01*
X263667316Y-3959838D01*
X263667000Y-3961865D01*
X263667000Y-4027622D01*
X263666998Y-4028392D01*
X263666746Y-4069622D01*
X259175586Y-4069622D01*
X259184715Y-4067183D01*
X264041438Y-2769622D01*
X281666746Y-2769622D01*
X281666984Y-2770454D01*
X281667000Y-2770692D01*
X281667000Y-16727622D01*
X281666998Y-16728392D01*
X281666746Y-16769622D01*
X281669212Y-16778250D01*
X281669212Y-16778251D01*
X281674859Y-16798013D01*
X281678436Y-16814770D01*
X281679303Y-16820820D01*
X281682620Y-16843982D01*
X281686335Y-16852152D01*
X281686336Y-16852156D01*
X281693224Y-16867305D01*
X281699673Y-16884833D01*
X281704248Y-16900842D01*
X281704251Y-16900849D01*
X281706716Y-16909474D01*
X281722472Y-16934445D01*
X281730605Y-16949519D01*
X281742822Y-16976389D01*
X281759550Y-16995803D01*
X281770654Y-17010810D01*
X281784331Y-17032486D01*
X281796344Y-17043095D01*
X281806453Y-17052023D01*
X281818500Y-17064219D01*
X281831905Y-17079777D01*
X281831909Y-17079780D01*
X281837766Y-17086578D01*
X281845295Y-17091458D01*
X281845296Y-17091459D01*
X281859271Y-17100517D01*
X281874145Y-17111807D01*
X281893351Y-17128769D01*
X281920077Y-17141317D01*
X281935048Y-17149633D01*
X281959821Y-17165690D01*
X281968425Y-17168263D01*
X281968427Y-17168264D01*
X281984377Y-17173034D01*
X282001822Y-17179696D01*
X282016887Y-17186769D01*
X282016889Y-17186769D01*
X282025013Y-17190584D01*
X282033877Y-17191964D01*
X282033886Y-17191967D01*
X282054180Y-17195127D01*
X282070891Y-17198908D01*
X282090572Y-17204793D01*
X282090575Y-17204793D01*
X282099174Y-17207365D01*
X282108146Y-17207420D01*
X282108147Y-17207420D01*
X282131998Y-17207566D01*
X282134838Y-17207684D01*
X282136865Y-17208000D01*
X282202622Y-17208000D01*
X282203392Y-17208002D01*
X282244622Y-17208254D01*
X282245454Y-17208016D01*
X282245692Y-17208000D01*
X296202622Y-17208000D01*
X296203392Y-17208002D01*
X296244622Y-17208254D01*
X296253251Y-17205788D01*
X296273013Y-17200141D01*
X296289770Y-17196564D01*
X296310097Y-17193653D01*
X296310100Y-17193652D01*
X296318982Y-17192380D01*
X296327152Y-17188665D01*
X296327156Y-17188664D01*
X296342305Y-17181776D01*
X296359833Y-17175327D01*
X296375842Y-17170752D01*
X296375849Y-17170749D01*
X296384474Y-17168284D01*
X296409445Y-17152528D01*
X296424519Y-17144395D01*
X296451389Y-17132178D01*
X296470803Y-17115450D01*
X296485810Y-17104346D01*
X296507486Y-17090669D01*
X296527026Y-17068544D01*
X296539219Y-17056500D01*
X296554777Y-17043095D01*
X296554780Y-17043091D01*
X296561578Y-17037234D01*
X296575517Y-17015729D01*
X296586807Y-17000855D01*
X296597826Y-16988378D01*
X296603769Y-16981649D01*
X296616317Y-16954923D01*
X296624633Y-16939952D01*
X296640690Y-16915179D01*
X296643264Y-16906573D01*
X296648034Y-16890623D01*
X296654696Y-16873178D01*
X296661769Y-16858113D01*
X296661769Y-16858111D01*
X296665584Y-16849987D01*
X296666964Y-16841123D01*
X296666967Y-16841114D01*
X296670127Y-16820820D01*
X296673908Y-16804109D01*
X296679793Y-16784428D01*
X296679793Y-16784425D01*
X296682365Y-16775826D01*
X296682566Y-16743002D01*
X296682684Y-16740162D01*
X296683000Y-16738135D01*
X296683000Y-16672378D01*
X296683002Y-16671608D01*
X296683239Y-16632817D01*
X296683254Y-16630378D01*
X296683016Y-16629546D01*
X296683000Y-16629308D01*
X296683000Y-4069622D01*
X299666746Y-4069622D01*
X299666984Y-4070454D01*
X299667000Y-4070692D01*
X299667000Y-18027622D01*
X299666998Y-18028392D01*
X299666746Y-18069622D01*
X299669212Y-18078250D01*
X299669212Y-18078251D01*
X299674859Y-18098013D01*
X299678436Y-18114770D01*
X299679303Y-18120820D01*
X299682620Y-18143982D01*
X299686335Y-18152152D01*
X299686336Y-18152156D01*
X299693224Y-18167305D01*
X299699673Y-18184833D01*
X299704248Y-18200842D01*
X299704251Y-18200849D01*
X299706716Y-18209474D01*
X299722472Y-18234445D01*
X299730605Y-18249519D01*
X299742822Y-18276389D01*
X299759550Y-18295803D01*
X299770654Y-18310810D01*
X299784331Y-18332486D01*
X299801437Y-18347593D01*
X299806453Y-18352023D01*
X299818500Y-18364219D01*
X299831905Y-18379777D01*
X299831909Y-18379780D01*
X299837766Y-18386578D01*
X299845295Y-18391458D01*
X299845296Y-18391459D01*
X299859271Y-18400517D01*
X299874145Y-18411807D01*
X299893351Y-18428769D01*
X299920077Y-18441317D01*
X299935048Y-18449633D01*
X299959821Y-18465690D01*
X299968425Y-18468263D01*
X299968427Y-18468264D01*
X299984377Y-18473034D01*
X300001822Y-18479696D01*
X300016887Y-18486769D01*
X300016889Y-18486769D01*
X300025013Y-18490584D01*
X300033877Y-18491964D01*
X300033886Y-18491967D01*
X300054180Y-18495127D01*
X300070891Y-18498908D01*
X300090572Y-18504793D01*
X300090575Y-18504793D01*
X300099174Y-18507365D01*
X300108146Y-18507420D01*
X300108147Y-18507420D01*
X300131998Y-18507566D01*
X300134838Y-18507684D01*
X300136865Y-18508000D01*
X300202622Y-18508000D01*
X300203392Y-18508002D01*
X300244622Y-18508254D01*
X300245454Y-18508016D01*
X300245692Y-18508000D01*
X314202622Y-18508000D01*
X314203392Y-18508002D01*
X314244622Y-18508254D01*
X314253251Y-18505788D01*
X314273013Y-18500141D01*
X314289770Y-18496564D01*
X314310097Y-18493653D01*
X314310100Y-18493652D01*
X314318982Y-18492380D01*
X314327152Y-18488665D01*
X314327156Y-18488664D01*
X314342305Y-18481776D01*
X314359833Y-18475327D01*
X314375842Y-18470752D01*
X314375849Y-18470749D01*
X314384474Y-18468284D01*
X314409445Y-18452528D01*
X314424519Y-18444395D01*
X314451389Y-18432178D01*
X314470803Y-18415450D01*
X314485810Y-18404346D01*
X314507486Y-18390669D01*
X314527026Y-18368544D01*
X314539219Y-18356500D01*
X314554777Y-18343095D01*
X314554780Y-18343091D01*
X314561578Y-18337234D01*
X314575517Y-18315729D01*
X314586807Y-18300855D01*
X314597826Y-18288378D01*
X314603769Y-18281649D01*
X314616317Y-18254923D01*
X314624633Y-18239952D01*
X314640690Y-18215179D01*
X314643264Y-18206573D01*
X314648034Y-18190623D01*
X314654696Y-18173178D01*
X314661769Y-18158113D01*
X314661769Y-18158111D01*
X314665584Y-18149987D01*
X314666964Y-18141123D01*
X314666967Y-18141114D01*
X314670127Y-18120820D01*
X314673908Y-18104109D01*
X314679793Y-18084428D01*
X314679793Y-18084425D01*
X314682365Y-18075826D01*
X314682566Y-18043002D01*
X314682684Y-18040162D01*
X314683000Y-18038135D01*
X314683000Y-17972378D01*
X314683002Y-17971608D01*
X314683239Y-17932817D01*
X314683254Y-17930378D01*
X314683016Y-17929546D01*
X314683000Y-17929308D01*
X314683000Y-3972378D01*
X314683002Y-3971608D01*
X314683037Y-3965939D01*
X314683254Y-3930378D01*
X314679023Y-3915572D01*
X314675141Y-3901987D01*
X314671564Y-3885230D01*
X314668653Y-3864903D01*
X314668652Y-3864900D01*
X314667380Y-3856018D01*
X314663665Y-3847848D01*
X314663664Y-3847844D01*
X314656776Y-3832695D01*
X314650327Y-3815167D01*
X314645752Y-3799158D01*
X314645749Y-3799151D01*
X314643284Y-3790526D01*
X314627528Y-3765555D01*
X314619395Y-3750481D01*
X314607178Y-3723611D01*
X314590450Y-3704197D01*
X314579346Y-3689190D01*
X314565669Y-3667514D01*
X314543544Y-3647974D01*
X314531500Y-3635781D01*
X314518095Y-3620223D01*
X314518091Y-3620220D01*
X314512234Y-3613422D01*
X314490729Y-3599483D01*
X314475855Y-3588193D01*
X314463378Y-3577174D01*
X314456649Y-3571231D01*
X314429923Y-3558683D01*
X314414952Y-3550367D01*
X314390179Y-3534310D01*
X314381575Y-3531737D01*
X314381573Y-3531736D01*
X314365623Y-3526966D01*
X314348178Y-3520304D01*
X314333113Y-3513231D01*
X314333111Y-3513231D01*
X314324987Y-3509416D01*
X314316123Y-3508036D01*
X314316114Y-3508033D01*
X314295820Y-3504873D01*
X314279109Y-3501092D01*
X314259428Y-3495207D01*
X314259425Y-3495207D01*
X314250826Y-3492635D01*
X314241854Y-3492580D01*
X314241853Y-3492580D01*
X314218002Y-3492434D01*
X314215162Y-3492316D01*
X314213135Y-3492000D01*
X314147378Y-3492000D01*
X314146608Y-3491998D01*
X314146052Y-3491995D01*
X314105378Y-3491746D01*
X314104546Y-3491984D01*
X314104308Y-3492000D01*
X300147378Y-3492000D01*
X300146608Y-3491998D01*
X300146352Y-3491996D01*
X300105378Y-3491746D01*
X300096750Y-3494212D01*
X300096749Y-3494212D01*
X300076987Y-3499859D01*
X300060230Y-3503436D01*
X300039903Y-3506347D01*
X300039900Y-3506348D01*
X300031018Y-3507620D01*
X300022848Y-3511335D01*
X300022844Y-3511336D01*
X300007695Y-3518224D01*
X299990167Y-3524673D01*
X299974158Y-3529248D01*
X299974151Y-3529251D01*
X299965526Y-3531716D01*
X299940555Y-3547472D01*
X299925481Y-3555605D01*
X299898611Y-3567822D01*
X299879197Y-3584550D01*
X299864190Y-3595654D01*
X299842514Y-3609331D01*
X299836572Y-3616059D01*
X299822977Y-3631453D01*
X299810781Y-3643500D01*
X299795223Y-3656905D01*
X299795220Y-3656909D01*
X299788422Y-3662766D01*
X299783542Y-3670295D01*
X299783541Y-3670296D01*
X299774483Y-3684271D01*
X299763193Y-3699145D01*
X299746231Y-3718351D01*
X299733683Y-3745077D01*
X299725367Y-3760048D01*
X299709310Y-3784821D01*
X299706737Y-3793425D01*
X299706736Y-3793427D01*
X299701966Y-3809377D01*
X299695304Y-3826822D01*
X299684416Y-3850013D01*
X299683036Y-3858877D01*
X299683033Y-3858886D01*
X299679873Y-3879180D01*
X299676092Y-3895891D01*
X299670207Y-3915572D01*
X299667635Y-3924174D01*
X299667580Y-3933146D01*
X299667580Y-3933147D01*
X299667434Y-3956998D01*
X299667316Y-3959838D01*
X299667000Y-3961865D01*
X299667000Y-4027622D01*
X299666998Y-4028392D01*
X299666746Y-4069622D01*
X296683000Y-4069622D01*
X296683000Y-2672378D01*
X296683002Y-2671608D01*
X296683037Y-2665939D01*
X296683254Y-2630378D01*
X296679023Y-2615572D01*
X296675141Y-2601987D01*
X296671564Y-2585230D01*
X296668653Y-2564903D01*
X296668652Y-2564900D01*
X296667380Y-2556018D01*
X296663665Y-2547848D01*
X296663664Y-2547844D01*
X296656776Y-2532695D01*
X296650327Y-2515167D01*
X296645752Y-2499158D01*
X296645749Y-2499151D01*
X296643284Y-2490526D01*
X296627528Y-2465555D01*
X296619395Y-2450481D01*
X296607178Y-2423611D01*
X296590450Y-2404197D01*
X296579346Y-2389190D01*
X296565669Y-2367514D01*
X296543544Y-2347974D01*
X296531500Y-2335781D01*
X296518095Y-2320223D01*
X296518091Y-2320220D01*
X296512234Y-2313422D01*
X296490729Y-2299483D01*
X296475855Y-2288193D01*
X296463378Y-2277174D01*
X296456649Y-2271231D01*
X296429923Y-2258683D01*
X296414952Y-2250367D01*
X296390179Y-2234310D01*
X296381575Y-2231737D01*
X296381573Y-2231736D01*
X296365623Y-2226966D01*
X296348178Y-2220304D01*
X296333113Y-2213231D01*
X296333111Y-2213231D01*
X296324987Y-2209416D01*
X296316123Y-2208036D01*
X296316114Y-2208033D01*
X296295820Y-2204873D01*
X296279109Y-2201092D01*
X296259428Y-2195207D01*
X296259425Y-2195207D01*
X296250826Y-2192635D01*
X296241854Y-2192580D01*
X296241853Y-2192580D01*
X296218002Y-2192434D01*
X296215162Y-2192316D01*
X296213135Y-2192000D01*
X296147378Y-2192000D01*
X296146608Y-2191998D01*
X296146052Y-2191995D01*
X296105378Y-2191746D01*
X296104546Y-2191984D01*
X296104308Y-2192000D01*
X282147378Y-2192000D01*
X282146608Y-2191998D01*
X282146352Y-2191996D01*
X282105378Y-2191746D01*
X282096750Y-2194212D01*
X282096749Y-2194212D01*
X282076987Y-2199859D01*
X282060230Y-2203436D01*
X282039903Y-2206347D01*
X282039900Y-2206348D01*
X282031018Y-2207620D01*
X282022848Y-2211335D01*
X282022844Y-2211336D01*
X282007695Y-2218224D01*
X281990167Y-2224673D01*
X281974158Y-2229248D01*
X281974151Y-2229251D01*
X281965526Y-2231716D01*
X281940555Y-2247472D01*
X281925481Y-2255605D01*
X281898611Y-2267822D01*
X281879197Y-2284550D01*
X281864190Y-2295654D01*
X281842514Y-2309331D01*
X281836572Y-2316059D01*
X281822977Y-2331453D01*
X281810781Y-2343500D01*
X281795223Y-2356905D01*
X281795220Y-2356909D01*
X281788422Y-2362766D01*
X281783542Y-2370295D01*
X281783541Y-2370296D01*
X281774483Y-2384271D01*
X281763193Y-2399145D01*
X281746231Y-2418351D01*
X281733683Y-2445077D01*
X281725367Y-2460048D01*
X281709310Y-2484821D01*
X281706737Y-2493425D01*
X281706736Y-2493427D01*
X281701966Y-2509377D01*
X281695304Y-2526822D01*
X281684416Y-2550013D01*
X281683036Y-2558877D01*
X281683033Y-2558886D01*
X281679873Y-2579180D01*
X281676092Y-2595891D01*
X281670207Y-2615572D01*
X281667635Y-2624174D01*
X281667580Y-2633146D01*
X281667580Y-2633147D01*
X281667434Y-2656998D01*
X281667316Y-2659838D01*
X281667000Y-2661865D01*
X281667000Y-2727622D01*
X281666998Y-2728392D01*
X281666746Y-2769622D01*
X264041438Y-2769622D01*
X271614444Y-746357D01*
X271625799Y-743878D01*
X271724835Y-727009D01*
X271735576Y-725652D01*
X271886588Y-713155D01*
X271897414Y-712727D01*
X272008089Y-713121D01*
X272012521Y-712502D01*
X272012527Y-712502D01*
X272036111Y-709210D01*
X272053528Y-708000D01*
X284678454Y-708000D01*
X297722032Y-707999D01*
X297879446Y-707999D01*
X297896660Y-709181D01*
G37*
%TD.AperFunction*%
M02*
