G04 #@! TF.GenerationSoftware,KiCad,Pcbnew,(5.99.0-8557-g8988e46ab1)*
G04 #@! TF.CreationDate,2021-01-24T12:11:51-07:00*
G04 #@! TF.ProjectId,BlueSofPanel,426c7565-536f-4665-9061-6e656c2e6b69,rev?*
G04 #@! TF.SameCoordinates,PX85099e0PY51bada0*
G04 #@! TF.FileFunction,Soldermask,Top*
G04 #@! TF.FilePolarity,Negative*
%FSLAX46Y46*%
G04 Gerber Fmt 4.6, Leading zero omitted, Abs format (unit mm)*
G04 Created by KiCad (PCBNEW (5.99.0-8557-g8988e46ab1)) date 2021-01-24 12:11:51*
%MOMM*%
%LPD*%
G01*
G04 APERTURE LIST*
G04 Aperture macros list*
%AMRoundRect*
0 Rectangle with rounded corners*
0 $1 Rounding radius*
0 $2 $3 $4 $5 $6 $7 $8 $9 X,Y pos of 4 corners*
0 Add a 4 corners polygon primitive as box body*
4,1,4,$2,$3,$4,$5,$6,$7,$8,$9,$2,$3,0*
0 Add four circle primitives for the rounded corners*
1,1,$1+$1,$2,$3*
1,1,$1+$1,$4,$5*
1,1,$1+$1,$6,$7*
1,1,$1+$1,$8,$9*
0 Add four rect primitives between the rounded corners*
20,1,$1+$1,$2,$3,$4,$5,0*
20,1,$1+$1,$4,$5,$6,$7,0*
20,1,$1+$1,$6,$7,$8,$9,0*
20,1,$1+$1,$8,$9,$2,$3,0*%
G04 Aperture macros list end*
%ADD10C,0.800000*%
%ADD11C,1.900000*%
%ADD12C,3.400000*%
%ADD13C,2.000000*%
%ADD14C,4.300000*%
%ADD15RoundRect,0.237500X0.287500X0.237500X-0.287500X0.237500X-0.287500X-0.237500X0.287500X-0.237500X0*%
%ADD16R,2.000000X2.000000*%
%ADD17R,3.200000X2.000000*%
%ADD18RoundRect,0.237500X-0.287500X-0.237500X0.287500X-0.237500X0.287500X0.237500X-0.287500X0.237500X0*%
%ADD19R,1.700000X1.700000*%
%ADD20O,1.700000X1.700000*%
%ADD21RoundRect,0.237500X0.237500X-0.300000X0.237500X0.300000X-0.237500X0.300000X-0.237500X-0.300000X0*%
%ADD22C,0.900000*%
%ADD23R,1.550000X1.200000*%
%ADD24C,1.000000*%
%ADD25R,1.000000X0.650000*%
G04 APERTURE END LIST*
D10*
X45382230Y-27679851D03*
X45382230Y-31279851D03*
X47282230Y-31279851D03*
X45382230Y-28579851D03*
X45382230Y-29479851D03*
X45382230Y-30379851D03*
X47282230Y-28579851D03*
X47282230Y-29479851D03*
X47282230Y-30379851D03*
X47282230Y-27679851D03*
X45382230Y37720149D03*
X45382230Y34120149D03*
X47282230Y34120149D03*
X45382230Y36820149D03*
X45382230Y35920149D03*
X45382230Y35020149D03*
X47282230Y36820149D03*
X47282230Y35920149D03*
X47282230Y35020149D03*
X47282230Y37720149D03*
X45382230Y22320149D03*
X45382230Y18720149D03*
X47282230Y18720149D03*
X45382230Y21420149D03*
X45382230Y20520149D03*
X45382230Y19620149D03*
X47282230Y21420149D03*
X47282230Y20520149D03*
X47282230Y19620149D03*
X47282230Y22320149D03*
X45382230Y9820149D03*
X45382230Y6220149D03*
X47282230Y6220149D03*
X45382230Y8920149D03*
X45382230Y8020149D03*
X45382230Y7120149D03*
X47282230Y8920149D03*
X47282230Y8020149D03*
X47282230Y7120149D03*
X47282230Y9820149D03*
X45382230Y-2679851D03*
X45382230Y-6279851D03*
X47282230Y-6279851D03*
X45382230Y-3579851D03*
X45382230Y-4479851D03*
X45382230Y-5379851D03*
X47282230Y-3579851D03*
X47282230Y-4479851D03*
X47282230Y-5379851D03*
X47282230Y-2679851D03*
X45382230Y-15179851D03*
X45382230Y-18779851D03*
X47282230Y-18779851D03*
X45382230Y-16079851D03*
X45382230Y-16979851D03*
X45382230Y-17879851D03*
X47282230Y-16079851D03*
X47282230Y-16979851D03*
X47282230Y-17879851D03*
X47282230Y-15179851D03*
D11*
X-49732246Y20447236D03*
X-38732246Y20447236D03*
D12*
X-44232246Y20447236D03*
D13*
X-49232246Y16747236D03*
X-44232246Y14547236D03*
D14*
X163896706Y23222236D03*
D15*
X50496706Y38922236D03*
X48746706Y38922236D03*
D12*
X118896706Y38347236D03*
D11*
X113396706Y38347236D03*
X124396706Y38347236D03*
D13*
X113896706Y34647236D03*
X118896706Y32447236D03*
D12*
X172896706Y31047236D03*
D11*
X178396706Y31047236D03*
X167396706Y31047236D03*
D13*
X167896706Y27347236D03*
X172896706Y25147236D03*
D11*
X142396706Y3047236D03*
X131396706Y3047236D03*
D12*
X136896706Y3047236D03*
D13*
X131896706Y-652764D03*
X136896706Y-2852764D03*
D11*
X-56732246Y32447236D03*
X-67732246Y32447236D03*
D12*
X-62232246Y32447236D03*
D13*
X-67232246Y28747236D03*
X-62232246Y26547236D03*
D11*
X-85732246Y31447236D03*
D12*
X-80232246Y31447236D03*
D11*
X-74732246Y31447236D03*
D13*
X-85232246Y27747236D03*
X-80232246Y25547236D03*
D16*
X39467754Y-13552764D03*
D13*
X39467754Y-8552764D03*
X39467754Y-11052764D03*
D17*
X31967754Y-16652764D03*
X31967754Y-5452764D03*
D13*
X24967754Y-8552764D03*
X24967754Y-13552764D03*
D11*
X-20732246Y-12252764D03*
X-31732246Y-12252764D03*
D12*
X-26232246Y-12252764D03*
D13*
X-31232246Y-15952764D03*
X-26232246Y-18152764D03*
D14*
X91896706Y-6677764D03*
D11*
X-56732246Y-1552764D03*
X-67732246Y-1552764D03*
D12*
X-62232246Y-1552764D03*
D13*
X-67232246Y-5252764D03*
X-62232246Y-7452764D03*
D11*
X-20732246Y4747236D03*
X-31732246Y4747236D03*
D12*
X-26232246Y4747236D03*
D13*
X-31232246Y1047236D03*
X-26232246Y-1152764D03*
D11*
X88396706Y34647236D03*
X77396706Y34647236D03*
D12*
X82896706Y34647236D03*
D13*
X77896706Y30947236D03*
X82896706Y28747236D03*
D11*
X4267754Y-15952764D03*
D12*
X9767754Y-15952764D03*
D11*
X15267754Y-15952764D03*
D13*
X4767754Y-19652764D03*
X9767754Y-21852764D03*
D18*
X42167754Y39322236D03*
X43917754Y39322236D03*
D12*
X100896706Y20047236D03*
D11*
X106396706Y20047236D03*
X95396706Y20047236D03*
D13*
X95896706Y16347236D03*
X100896706Y14147236D03*
D11*
X-38732246Y-13552764D03*
D12*
X-44232246Y-13552764D03*
D11*
X-49732246Y-13552764D03*
D13*
X-49232246Y-17252764D03*
X-44232246Y-19452764D03*
D11*
X12404614Y-38502764D03*
X21930894Y-33002764D03*
D12*
X17167754Y-35752764D03*
D13*
X14687627Y-41457058D03*
X20117754Y-40862314D03*
D11*
X-13732246Y37447236D03*
X-2732246Y37447236D03*
D12*
X-8232246Y37447236D03*
D13*
X-13232246Y33747236D03*
X-8232246Y31547236D03*
D12*
X118896706Y21347236D03*
D11*
X113396706Y21347236D03*
X124396706Y21347236D03*
D13*
X113896706Y17647236D03*
X118896706Y15447236D03*
D11*
X149396706Y-18952764D03*
D12*
X154896706Y-18952764D03*
D11*
X160396706Y-18952764D03*
D13*
X149896706Y-22652764D03*
X154896706Y-24852764D03*
D11*
X95296706Y-35952764D03*
X106296706Y-35952764D03*
D12*
X100796706Y-35952764D03*
D13*
X95796706Y-39652764D03*
X100796706Y-41852764D03*
D11*
X-49732246Y37447236D03*
X-38732246Y37447236D03*
D12*
X-44232246Y37447236D03*
D13*
X-49232246Y33747236D03*
X-44232246Y31547236D03*
D19*
X567754Y34347236D03*
D20*
X567754Y36887236D03*
X567754Y39427236D03*
X567754Y41967236D03*
D11*
X149396706Y-1952764D03*
D12*
X154896706Y-1952764D03*
D11*
X160396706Y-1952764D03*
D13*
X149896706Y-5652764D03*
X154896706Y-7852764D03*
D12*
X118896706Y-12652764D03*
D11*
X124396706Y-12652764D03*
X113396706Y-12652764D03*
D13*
X113896706Y-16352764D03*
X118896706Y-18552764D03*
D11*
X-13732246Y3447236D03*
X-2732246Y3447236D03*
D12*
X-8232246Y3447236D03*
D13*
X-13232246Y-252764D03*
X-8232246Y-2452764D03*
D12*
X9767754Y1047236D03*
D11*
X15267754Y1047236D03*
X4267754Y1047236D03*
D13*
X4767754Y-2652764D03*
X9767754Y-4852764D03*
D14*
X57621706Y29447236D03*
X72121706Y-22352764D03*
D11*
X15267754Y35047236D03*
X4267754Y35047236D03*
D12*
X9767754Y35047236D03*
D13*
X4767754Y31347236D03*
X9767754Y29147236D03*
D11*
X131396706Y37047236D03*
X142396706Y37047236D03*
D12*
X136896706Y37047236D03*
D13*
X131896706Y33347236D03*
X136896706Y31147236D03*
D12*
X154896706Y15047236D03*
D11*
X149396706Y15047236D03*
X160396706Y15047236D03*
D13*
X149896706Y11347236D03*
X154896706Y9147236D03*
D16*
X53196706Y-8952764D03*
D13*
X53196706Y-13952764D03*
X53196706Y-11452764D03*
D17*
X60696706Y-17052764D03*
X60696706Y-5852764D03*
D13*
X67696706Y-13952764D03*
X67696706Y-8952764D03*
D14*
X163896706Y-10977764D03*
D12*
X-26232246Y38747236D03*
D11*
X-20732246Y38747236D03*
X-31732246Y38747236D03*
D13*
X-31232246Y35047236D03*
X-26232246Y32847236D03*
D11*
X142396706Y-13952764D03*
X131396706Y-13952764D03*
D12*
X136896706Y-13952764D03*
D13*
X131896706Y-17652764D03*
X136896706Y-19852764D03*
D12*
X-62232246Y-18552764D03*
D11*
X-56732246Y-18552764D03*
X-67732246Y-18552764D03*
D13*
X-67232246Y-22252764D03*
X-62232246Y-24452764D03*
D11*
X-13732246Y-13552764D03*
D12*
X-8232246Y-13552764D03*
D11*
X-2732246Y-13552764D03*
D13*
X-13232246Y-17252764D03*
X-8232246Y-19452764D03*
D11*
X106396706Y-13952764D03*
X95396706Y-13952764D03*
D12*
X100896706Y-13952764D03*
D13*
X95896706Y-17652764D03*
X100896706Y-19852764D03*
D12*
X100896706Y3047236D03*
D11*
X95396706Y3047236D03*
X106396706Y3047236D03*
D13*
X95896706Y-652764D03*
X100896706Y-2852764D03*
D11*
X-13632246Y-35552764D03*
X-2632246Y-35552764D03*
D12*
X-8132246Y-35552764D03*
D13*
X-13132246Y-39252764D03*
X-8132246Y-41452764D03*
D12*
X-26232246Y21747236D03*
D11*
X-20732246Y21747236D03*
X-31732246Y21747236D03*
D13*
X-31232246Y18047236D03*
X-26232246Y15847236D03*
D12*
X172896706Y-19952764D03*
D11*
X167396706Y-19952764D03*
X178396706Y-19952764D03*
D13*
X167896706Y-23652764D03*
X172896706Y-25852764D03*
D11*
X-74732246Y-19552764D03*
X-85732246Y-19552764D03*
D12*
X-80232246Y-19552764D03*
D13*
X-85232246Y-23252764D03*
X-80232246Y-25452764D03*
D12*
X75496706Y-36152764D03*
D11*
X80259846Y-38902764D03*
X70733566Y-33402764D03*
D13*
X69316579Y-36857058D03*
X72546706Y-41262314D03*
D11*
X-74732246Y-2552764D03*
D12*
X-80232246Y-2552764D03*
D11*
X-85732246Y-2552764D03*
D13*
X-85232246Y-6252764D03*
X-80232246Y-8452764D03*
D18*
X26467754Y39347236D03*
X28217754Y39347236D03*
D11*
X77396706Y647236D03*
X88396706Y647236D03*
D12*
X82896706Y647236D03*
D13*
X77896706Y-3052764D03*
X82896706Y-5252764D03*
D12*
X100896706Y37047236D03*
D11*
X95396706Y37047236D03*
X106396706Y37047236D03*
D13*
X95896706Y33347236D03*
X100896706Y31147236D03*
D12*
X136896706Y20047236D03*
D11*
X142396706Y20047236D03*
X131396706Y20047236D03*
D13*
X131896706Y16347236D03*
X136896706Y14147236D03*
D12*
X9767754Y18047236D03*
D11*
X4267754Y18047236D03*
X15267754Y18047236D03*
D13*
X4767754Y14347236D03*
X9767754Y12147236D03*
D11*
X-13732246Y20447236D03*
D12*
X-8232246Y20447236D03*
D11*
X-2732246Y20447236D03*
D13*
X-13232246Y16747236D03*
X-8232246Y14547236D03*
D12*
X172896706Y14047236D03*
D11*
X167396706Y14047236D03*
X178396706Y14047236D03*
D13*
X167896706Y10347236D03*
X172896706Y8147236D03*
D12*
X-44232246Y3447236D03*
D11*
X-49732246Y3447236D03*
X-38732246Y3447236D03*
D13*
X-49232246Y-252764D03*
X-44232246Y-2452764D03*
D12*
X-80232246Y14447236D03*
D11*
X-85732246Y14447236D03*
X-74732246Y14447236D03*
D13*
X-85232246Y10747236D03*
X-80232246Y8547236D03*
D11*
X160396706Y32047236D03*
D12*
X154896706Y32047236D03*
D11*
X149396706Y32047236D03*
D13*
X149896706Y28347236D03*
X154896706Y26147236D03*
D15*
X66196706Y38947236D03*
X64446706Y38947236D03*
D11*
X-67732246Y15447236D03*
X-56732246Y15447236D03*
D12*
X-62232246Y15447236D03*
D13*
X-67232246Y11747236D03*
X-62232246Y9547236D03*
D12*
X172896706Y-2952764D03*
D11*
X178396706Y-2952764D03*
X167396706Y-2952764D03*
D13*
X167896706Y-6652764D03*
X172896706Y-8852764D03*
D12*
X82896706Y-16352764D03*
D11*
X88396706Y-16352764D03*
X77396706Y-16352764D03*
D13*
X77896706Y-20052764D03*
X82896706Y-22252764D03*
D11*
X113396706Y4347236D03*
X124396706Y4347236D03*
D12*
X118896706Y4347236D03*
D13*
X113896706Y647236D03*
X118896706Y-1552764D03*
D14*
X91796706Y27322236D03*
D11*
X-31732246Y-34252764D03*
X-20732246Y-34252764D03*
D12*
X-26232246Y-34252764D03*
D13*
X-31232246Y-37952764D03*
X-26232246Y-40152764D03*
D11*
X113396706Y-34652764D03*
X124396706Y-34652764D03*
D12*
X118896706Y-34652764D03*
D13*
X113896706Y-38352764D03*
X118896706Y-40552764D03*
D21*
X78796706Y20434736D03*
X78796706Y22159736D03*
D12*
X82896706Y17647236D03*
D11*
X88396706Y17647236D03*
X77396706Y17647236D03*
D13*
X77896706Y13947236D03*
X82896706Y11747236D03*
D21*
X77159206Y20434736D03*
X77159206Y22159736D03*
D14*
X35042754Y29847236D03*
X-71232246Y-10577764D03*
D22*
X42892754Y30747236D03*
X42892754Y27747236D03*
D14*
X-71232246Y23622236D03*
D23*
X69221706Y19697236D03*
X69221706Y18097236D03*
X23717754Y18447236D03*
X23717754Y20047236D03*
D22*
X49771706Y27347236D03*
X49771706Y30347236D03*
D24*
X29892754Y41986336D03*
X41043054Y41071936D03*
X29892454Y41402136D03*
X41042754Y37753236D03*
X29892454Y37236536D03*
X41043054Y37236536D03*
X41042754Y37490536D03*
X29892154Y37490536D03*
X29892154Y37753236D03*
X41043354Y41999036D03*
X41043054Y41719636D03*
X41043054Y40779836D03*
X29892454Y40767136D03*
X29892454Y41706936D03*
X41042754Y36991236D03*
X41043054Y41414836D03*
X29892454Y41059236D03*
X29892154Y36991236D03*
D14*
X767754Y-6277764D03*
X20542754Y-21952764D03*
D25*
X14565799Y28479236D03*
X14565799Y29749236D03*
D24*
X51621106Y36591236D03*
X51621406Y40659236D03*
X62771706Y37353236D03*
X62772006Y36836536D03*
X51621406Y41002136D03*
X51621706Y41586336D03*
X62772006Y40671936D03*
X51621406Y36836536D03*
X62772006Y40379836D03*
X62772006Y41319636D03*
X51621106Y37353236D03*
X51621406Y41306936D03*
X51621106Y37090536D03*
X62771706Y37090536D03*
X62772306Y41599036D03*
X62771706Y36591236D03*
X62772006Y41014836D03*
X51621406Y40367136D03*
D19*
X73121706Y28147236D03*
D20*
X73121706Y30687236D03*
X73121706Y33227236D03*
X73121706Y35767236D03*
D14*
X867754Y27722236D03*
D25*
X70016661Y28079236D03*
X70016661Y29349236D03*
M02*
