M48
; DRILL file {KiCad (5.99.0-8557-g8988e46ab1)} date Sunday, January 24, 2021 at 12:11:55 PM
; FORMAT={-:-/ absolute / inch / decimal}
; #@! TF.CreationDate,2021-01-24T12:11:55-07:00
; #@! TF.GenerationSoftware,Kicad,Pcbnew,(5.99.0-8557-g8988e46ab1)
; #@! TF.FileFunction,Plated,1,2,PTH
FMAT,2
INCH
T1C0.0118
T2C0.0130
T3C0.0236
T4C0.0394
T5C0.0472
T6C0.0591
%
G90
G05
T1
X0.5735Y1.1712
X0.5735Y1.1212
X2.7566Y1.1555
X2.7566Y1.1055
T2
X-2.8556Y1.2302
X-2.8438Y0.5688
X-2.8438Y-0.1005
X-2.8438Y-0.7698
X-2.1351Y1.2775
X-2.1351Y0.6082
X-2.1351Y-0.0611
X-2.1351Y-0.7304
X-1.4265Y1.4743
X-1.4265Y0.805
X-1.4265Y0.1357
X-1.4265Y-0.5336
X-0.7178Y1.5137
X-0.7178Y0.8444
X-0.7178Y0.1751
X-0.7178Y-0.4942
X-0.7178Y-1.2816
X-0.206Y1.4743
X-0.1666Y1.12
X-0.0485Y0.9389
X-0.0091Y0.805
X-0.0091Y0.1357
X-0.0091Y-0.5336
X-0.0091Y-1.3997
X0.1523Y1.2971
X0.2074Y1.3208
X0.2428Y1.4664
X0.2428Y1.3523
X0.2743Y1.3326
X0.294Y1.4034
X0.3019Y1.1239
X0.3098Y-0.3603
X0.3098Y-1.1438
X0.3137Y1.0885
X0.3137Y1.0334
X0.3373Y1.2105
X0.3373Y1.0609
X0.3373Y1.0097
X0.3688Y0.994
X0.3688Y0.8759
X0.3767Y1.557
X0.3964Y0.9704
X0.4042Y1.242
X0.4348Y0.3523
X0.4751Y0.9782
X0.5046Y0.9526
X0.5302Y0.3286
X0.5775Y0.8444
X0.6208Y0.8995
X0.6208Y0.1357
X0.668Y1.3641
X0.6916Y0.8208
X0.6995Y-0.6123
X0.794Y1.4664
X0.794Y1.3247
X0.794Y1.2302
X0.794Y1.1278
X0.8964Y1.4861
X0.9042Y1.057
X0.9082Y1.3641
X0.9279Y0.994
X0.9751Y-1.2816
X1.0145Y1.2932
X1.0224Y1.1397
X1.0224Y1.0885
X1.0263Y1.1869
X1.0302Y1.2381
X1.0381Y0.6948
X1.046Y0.9152
X1.0538Y1.616
X1.0696Y0.8444
X1.0735Y1.3523
X1.0735Y1.2735
X1.0853Y0.8129
X1.0932Y1.1908
X1.1168Y1.0885
X1.1247Y1.616
X1.1326Y1.3404
X1.2389Y0.9167
X1.2507Y1.2223
X1.2743Y1.3877
X1.2901Y-1.1241
X1.3216Y0.9861
X1.3216Y0.9074
X1.3255Y0.7066
X1.3294Y-0.4548
X1.3491Y1.3562
X1.3531Y1.3877
X1.3727Y0.7105
X1.4062Y1.3897
X1.4377Y1.3582
X1.4869Y-0.8879
X1.5027Y1.3837
X1.546Y1.0294
X1.5617Y0.9743
X1.5814Y1.3168
X1.6601Y0.7026
X1.6916Y1.616
X1.9457Y0.6633
X1.9615Y1.5963
X1.9694Y0.8404
X1.9851Y-0.2422
X2.0589Y1.2794
X2.0727Y0.9369
X2.0757Y0.994
X2.1032Y-1.1871
X2.1318Y0.7696
X2.1583Y1.4192
X2.1898Y0.8837
X2.2007Y1.2912
X2.2085Y1.3582
X2.2213Y-0.321
X2.2794Y1.3582
X2.2794Y0.6712
X2.3089Y0.8778
X2.3394Y-0.8328
X2.3473Y1.4192
X2.3788Y0.7026
X2.4969Y1.1357
X2.4969Y0.9389
X2.5451Y1.3208
X2.5757Y1.6082
X2.5757Y0.8419
X2.614Y0.8385
X2.615Y-1.3052
X2.6268Y1.4782
X2.6317Y1.0215
X2.6436Y0.681
X2.7528Y1.0097
X2.7715Y1.37
X2.7912Y0.9861
X2.803Y-0.2206
X2.8843Y1.0109
X2.9221Y0.8827
X2.9379Y-0.3761
X2.9585Y1.0149
X2.9733Y1.2909
X2.9812Y-0.5808
X3.0373Y0.8709
X3.0471Y1.4586
X3.0481Y1.0963
X3.0481Y0.1121
X3.0481Y-0.3997
X3.0481Y-0.5572
X3.0835Y1.3011
X3.0983Y0.6416
X3.1022Y0.8739
X3.1101Y0.744
X3.1662Y0.9782
X3.2292Y1.2656
X3.3237Y1.057
X3.3237Y-1.5414
X3.3591Y1.4546
X3.3867Y1.3641
X3.4024Y0.7026
X3.4103Y0.8995
X3.4812Y1.0963
X3.5599Y0.0334
X3.5993Y1.5294
X3.5993Y-0.6359
X4.1111Y1.5294
X4.2686Y0.7814
X4.2686Y0.1121
X4.2686Y-0.5572
X4.2686Y-1.4233
X4.5442Y1.5294
X4.9772Y0.1515
X4.9772Y-0.5178
X4.9772Y-1.3446
X5.0166Y1.5294
X5.0166Y0.9782
X5.0166Y0.8208
X5.5678Y1.5294
X5.6859Y0.1121
X5.6859Y-0.5572
X5.7253Y0.7814
X6.0589Y0.8778
X6.1967Y0.8778
X6.3946Y0.5845
X6.3946Y-0.754
X6.4339Y1.2538
X6.4339Y-0.0848
X6.9457Y1.2145
X7.1032Y0.5452
X7.1032Y-0.1241
X7.1032Y-0.7934
T3
X1.1769Y1.4863
X1.1769Y1.476
X1.1769Y1.4563
X1.1769Y1.642
X1.1769Y1.63
X1.1769Y1.6165
X1.1769Y1.605
X1.1769Y1.466
X1.1769Y1.653
X1.6159Y1.4863
X1.6159Y1.476
X1.6159Y1.4563
X1.6159Y1.6425
X1.6159Y1.6305
X1.6159Y1.617
X1.6159Y1.6055
X1.6159Y1.466
X1.6159Y1.6535
X2.0323Y1.4706
X2.0323Y1.4603
X2.0323Y1.4406
X2.0323Y1.6263
X2.0323Y1.6143
X2.0323Y1.6008
X2.0323Y1.5893
X2.0323Y1.4503
X2.0324Y1.6373
X2.4713Y1.4706
X2.4713Y1.4603
X2.4713Y1.4406
X2.4713Y1.6268
X2.4713Y1.6148
X2.4713Y1.6013
X2.4713Y1.5898
X2.4713Y1.4503
X2.4714Y1.6378
T4
X0.0224Y1.6523
X0.0224Y1.5523
X0.0224Y1.4523
X0.0224Y1.3523
X0.9338Y0.7893
X0.9338Y0.7263
X0.983Y-0.3367
X0.983Y-0.5336
X1.5538Y-0.3367
X1.5538Y-0.4351
X1.5538Y-0.5336
X2.0944Y-0.3525
X2.0944Y-0.4509
X2.0944Y-0.5493
X2.6652Y-0.3525
X2.6652Y-0.5493
X2.7253Y0.7755
X2.7253Y0.7125
X2.8788Y1.4082
X2.8788Y1.3082
X2.8788Y1.2082
X2.8788Y1.1082
T5
X-3.3556Y1.0924
X-3.3556Y0.4231
X-3.3556Y-0.2462
X-3.3556Y-0.9155
X-3.1587Y1.0058
X-3.1587Y0.3365
X-3.1587Y-0.3328
X-3.1587Y-1.0021
X-2.6469Y1.1318
X-2.6469Y0.4625
X-2.6469Y-0.2068
X-2.6469Y-0.8761
X-2.4501Y1.0452
X-2.4501Y0.3759
X-2.4501Y-0.2934
X-2.4501Y-0.9627
X-1.9383Y1.3286
X-1.9383Y0.6593
X-1.9383Y-0.01
X-1.9383Y-0.6792
X-1.7414Y1.242
X-1.7414Y0.5727
X-1.7414Y-0.0966
X-1.7414Y-0.7659
X-1.2296Y1.3798
X-1.2296Y0.7105
X-1.2296Y0.0412
X-1.2296Y-0.6281
X-1.2296Y-1.4942
X-1.0328Y1.2932
X-1.0328Y0.6239
X-1.0328Y-0.0454
X-1.0328Y-0.7147
X-1.0328Y-1.5808
X-0.521Y1.3286
X-0.521Y0.6593
X-0.521Y-0.01
X-0.521Y-0.6792
X-0.517Y-1.5454
X-0.3241Y1.242
X-0.3241Y0.5727
X-0.3241Y-0.0966
X-0.3241Y-0.7659
X-0.3202Y-1.632
X0.1877Y1.2341
X0.1877Y0.5649
X0.1877Y-0.1044
X0.1877Y-0.7737
X0.3846Y1.1475
X0.3846Y0.4782
X0.3846Y-0.1911
X0.3846Y-0.8603
X0.5783Y-1.6322
X0.792Y-1.6088
X2.729Y-1.4511
X2.8562Y-1.6245
X3.0668Y1.2184
X3.0668Y0.5491
X3.0668Y-0.1202
X3.0668Y-0.7895
X3.2636Y1.1318
X3.2636Y0.4625
X3.2636Y-0.2068
X3.2636Y-0.8761
X3.7715Y-1.5611
X3.7755Y1.3129
X3.7755Y0.6436
X3.7755Y-0.0257
X3.7755Y-0.695
X3.9684Y-1.6477
X3.9723Y1.2263
X3.9723Y0.557
X3.9723Y-0.1123
X3.9723Y-0.7816
X4.4841Y1.3641
X4.4841Y0.6948
X4.4841Y0.0255
X4.4841Y-0.6438
X4.4841Y-1.51
X4.681Y1.2775
X4.681Y0.6082
X4.681Y-0.0611
X4.681Y-0.7304
X4.681Y-1.5966
X5.1928Y1.3129
X5.1928Y0.6436
X5.1928Y-0.0257
X5.1928Y-0.695
X5.3896Y1.2263
X5.3896Y0.557
X5.3896Y-0.1123
X5.3896Y-0.7816
X5.9014Y1.116
X5.9014Y0.4467
X5.9014Y-0.2225
X5.9014Y-0.8918
X6.0983Y1.0294
X6.0983Y0.3601
X6.0983Y-0.3092
X6.0983Y-0.9785
X6.6101Y1.0767
X6.6101Y0.4074
X6.6101Y-0.2619
X6.6101Y-0.9312
X6.807Y0.99
X6.807Y0.3208
X6.807Y-0.3485
X6.807Y-1.0178
T6
G00X1.2842Y-0.2147
M15
G01X1.233Y-0.2147
M16
G05
G00X1.2842Y-0.6556
M15
G01X1.233Y-0.6556
M16
G05
G00X2.364Y-0.2304
M15
G01X2.4152Y-0.2304
M16
G05
G00X2.364Y-0.6714
M15
G01X2.4152Y-0.6714
M16
G05
T0
M30
