G04 #@! TF.GenerationSoftware,KiCad,Pcbnew,(5.99.0-8557-g8988e46ab1)*
G04 #@! TF.CreationDate,2021-01-24T12:11:51-07:00*
G04 #@! TF.ProjectId,BlueSofPanel,426c7565-536f-4665-9061-6e656c2e6b69,rev?*
G04 #@! TF.SameCoordinates,PX85099e0PY51bada0*
G04 #@! TF.FileFunction,Legend,Top*
G04 #@! TF.FilePolarity,Positive*
%FSLAX46Y46*%
G04 Gerber Fmt 4.6, Leading zero omitted, Abs format (unit mm)*
G04 Created by KiCad (PCBNEW (5.99.0-8557-g8988e46ab1)) date 2021-01-24 12:11:51*
%MOMM*%
%LPD*%
G01*
G04 APERTURE LIST*
%ADD10C,0.200000*%
%ADD11C,0.150000*%
%ADD12C,0.120000*%
G04 APERTURE END LIST*
D10*
X-62404921Y43771335D02*
X-62241519Y43744182D01*
X-62181589Y43700640D01*
X-62113464Y43605362D01*
X-62088882Y43450154D01*
X-62124230Y43338487D01*
X-62167771Y43278557D01*
X-62263049Y43210433D01*
X-62676938Y43144879D01*
X-62849016Y44231336D01*
X-62486863Y44288696D01*
X-62375197Y44253348D01*
X-62315267Y44209806D01*
X-62247142Y44114528D01*
X-62230754Y44011056D01*
X-62266102Y43899390D01*
X-62309644Y43839459D01*
X-62404921Y43771335D01*
X-62767074Y43713976D01*
X-61435272Y43341540D02*
X-61546939Y43376887D01*
X-61615063Y43472165D01*
X-61762559Y44403414D01*
X-60670478Y44205146D02*
X-60555759Y43480841D01*
X-61136103Y44131398D02*
X-61045967Y43562301D01*
X-60977842Y43467023D01*
X-60866176Y43431676D01*
X-60710968Y43456258D01*
X-60615690Y43524383D01*
X-60572148Y43584313D01*
X-59632705Y43680072D02*
X-59727983Y43611948D01*
X-59934927Y43579171D01*
X-60046593Y43614519D01*
X-60114718Y43709797D01*
X-60180271Y44123685D01*
X-60144923Y44235351D01*
X-60049645Y44303476D01*
X-59842701Y44336253D01*
X-59731035Y44300905D01*
X-59662910Y44205627D01*
X-59646522Y44102155D01*
X-60147494Y43916741D01*
X-59167080Y43753820D02*
X-59003678Y43726666D01*
X-58744998Y43767637D01*
X-58649720Y43835762D01*
X-58606178Y43895692D01*
X-58570830Y44007358D01*
X-58587218Y44110830D01*
X-58655343Y44206108D01*
X-58715273Y44249650D01*
X-58826939Y44284998D01*
X-59042078Y44303957D01*
X-59153744Y44339305D01*
X-59213674Y44382847D01*
X-59281799Y44478125D01*
X-59298187Y44581597D01*
X-59262839Y44693263D01*
X-59219298Y44753193D01*
X-59124020Y44821318D01*
X-58865339Y44862289D01*
X-58701937Y44835135D01*
X-57917221Y43898744D02*
X-58028887Y43934092D01*
X-58088817Y43977634D01*
X-58156942Y44072912D01*
X-58206107Y44383328D01*
X-58170759Y44494994D01*
X-58127217Y44554925D01*
X-58031939Y44623049D01*
X-57876731Y44647632D01*
X-57765065Y44612284D01*
X-57705135Y44568742D01*
X-57637010Y44473464D01*
X-57587845Y44163048D01*
X-57623193Y44051382D01*
X-57666735Y43991451D01*
X-57762012Y43923327D01*
X-57917221Y43898744D01*
X-57359371Y44729573D02*
X-56945482Y44795127D01*
X-57089444Y44029851D02*
X-57236939Y44961100D01*
X-57201591Y45072767D01*
X-57106313Y45140891D01*
X-57002841Y45157279D01*
X-55968120Y45321163D02*
X-55433890Y44292065D01*
X-55243815Y45435882D01*
X-54917011Y45381575D02*
X-54873469Y45441505D01*
X-54778191Y45509629D01*
X-54519511Y45550600D01*
X-54407844Y45515253D01*
X-54347914Y45471711D01*
X-54279790Y45376433D01*
X-54263401Y45272961D01*
X-54290555Y45109558D01*
X-54813057Y44390395D01*
X-54140489Y44496920D01*
X-52847087Y44701775D02*
X-53019165Y45788232D01*
X-52953612Y45374343D02*
X-52858334Y45442468D01*
X-52651389Y45475244D01*
X-52539723Y45439897D01*
X-52479793Y45396355D01*
X-52411668Y45301077D01*
X-52362503Y44990661D01*
X-52397851Y44878994D01*
X-52441393Y44819064D01*
X-52536671Y44750940D01*
X-52743615Y44718163D01*
X-52855281Y44753511D01*
X-52082293Y45565380D02*
X-51708894Y44882047D01*
X-51564932Y45647322D02*
X-51708894Y44882047D01*
X-51771395Y44606978D01*
X-51814937Y44547048D01*
X-51910215Y44478923D01*
X-50298684Y45688775D02*
X-49936532Y45746134D01*
X-49691188Y45201620D02*
X-50208548Y45119678D01*
X-50380626Y46206135D01*
X-49863266Y46288077D01*
X-48604731Y45373698D02*
X-49048825Y45833699D01*
X-49225563Y45275368D02*
X-49397641Y46361825D01*
X-48983753Y46427378D01*
X-48872086Y46392031D01*
X-48812156Y46348489D01*
X-48744032Y46253211D01*
X-48719449Y46098003D01*
X-48754797Y45986336D01*
X-48798339Y45926406D01*
X-48893617Y45858282D01*
X-49307505Y45792728D01*
X-47621746Y45529387D02*
X-48139106Y45447445D01*
X-48311184Y46533903D01*
X156571157Y42547444D02*
X156718171Y42471125D01*
X156761713Y42411195D01*
X156797061Y42299529D01*
X156772478Y42144321D01*
X156704354Y42049043D01*
X156644423Y42005501D01*
X156532757Y41970153D01*
X156118869Y42035707D01*
X156290947Y43122164D01*
X156653099Y43064805D01*
X156748377Y42996680D01*
X156791919Y42936750D01*
X156827266Y42825084D01*
X156810878Y42721612D01*
X156742754Y42626334D01*
X156682823Y42582792D01*
X156571157Y42547444D01*
X156209005Y42604803D01*
X157360534Y41839046D02*
X157265256Y41907171D01*
X157229908Y42018837D01*
X157377404Y42950086D01*
X158354766Y42424050D02*
X158240047Y41699745D01*
X157889141Y42497798D02*
X157799005Y41928701D01*
X157834353Y41817035D01*
X157929631Y41748910D01*
X158084839Y41724328D01*
X158196505Y41759675D01*
X158256435Y41803217D01*
X159179490Y41603986D02*
X159067824Y41568638D01*
X158860880Y41601415D01*
X158765602Y41669539D01*
X158730254Y41781206D01*
X158795808Y42195094D01*
X158863932Y42290372D01*
X158975598Y42325720D01*
X159182542Y42292943D01*
X159277820Y42224819D01*
X159313168Y42113152D01*
X159296780Y42009680D01*
X158763031Y41988150D01*
X159645115Y41530238D02*
X159792129Y41453920D01*
X160050809Y41412949D01*
X160162475Y41448296D01*
X160222405Y41491838D01*
X160290530Y41587116D01*
X160306918Y41690588D01*
X160271571Y41802255D01*
X160228029Y41862185D01*
X160132751Y41930309D01*
X159934001Y42014822D01*
X159838723Y42082946D01*
X159795181Y42142877D01*
X159759833Y42254543D01*
X159776222Y42358015D01*
X159844346Y42453293D01*
X159904276Y42496835D01*
X160015943Y42532183D01*
X160274623Y42491212D01*
X160421637Y42414893D01*
X160878586Y41281842D02*
X160783308Y41349966D01*
X160739766Y41409896D01*
X160704418Y41521563D01*
X160753583Y41831979D01*
X160821708Y41927257D01*
X160881638Y41970799D01*
X160993304Y42006146D01*
X161148513Y41981564D01*
X161243791Y41913439D01*
X161287332Y41853509D01*
X161322680Y41741843D01*
X161273515Y41431427D01*
X161205391Y41336149D01*
X161145460Y41292607D01*
X161033794Y41257259D01*
X160878586Y41281842D01*
X161665873Y41899622D02*
X162079762Y41834069D01*
X161706363Y41150735D02*
X161853858Y42081984D01*
X161921982Y42177262D01*
X162033649Y42212609D01*
X162137121Y42196221D01*
X163171842Y42032337D02*
X163361917Y40888521D01*
X163896147Y41917619D01*
X164190175Y41764981D02*
X164250105Y41808523D01*
X164361771Y41843871D01*
X164620452Y41802900D01*
X164715730Y41734776D01*
X164759271Y41674845D01*
X164794619Y41563179D01*
X164778231Y41459707D01*
X164701912Y41312693D01*
X163982749Y40790190D01*
X164655318Y40683666D01*
X165948719Y40478811D02*
X166120797Y41565269D01*
X166055244Y41151380D02*
X166166910Y41186728D01*
X166373854Y41153951D01*
X166469132Y41085827D01*
X166512674Y41025896D01*
X166548022Y40914230D01*
X166498857Y40603814D01*
X166430732Y40508536D01*
X166370802Y40464994D01*
X166259136Y40429646D01*
X166052191Y40462423D01*
X165956913Y40530547D01*
X166942951Y41063815D02*
X167086913Y40298539D01*
X167460311Y40981873D02*
X167086913Y40298539D01*
X166942469Y40056247D01*
X166882539Y40012706D01*
X166770873Y39977358D01*
X168677394Y40630005D02*
X169039547Y40572645D01*
X169104619Y39978966D02*
X168587258Y40060908D01*
X168759336Y41147365D01*
X169276697Y41065423D01*
X170191076Y39806888D02*
X169910865Y40381608D01*
X169570243Y39905218D02*
X169742321Y40991676D01*
X170156210Y40926122D01*
X170251488Y40857998D01*
X170295029Y40798067D01*
X170330377Y40686401D01*
X170305794Y40531193D01*
X170237670Y40435915D01*
X170177740Y40392373D01*
X170066074Y40357025D01*
X169652185Y40422579D01*
X171174061Y39651199D02*
X170656700Y39733140D01*
X170828778Y40819598D01*
D11*
X50534610Y-33413184D02*
X50058420Y-33746517D01*
X50534610Y-33984612D02*
X49534610Y-33984612D01*
X49534610Y-33603660D01*
X49582230Y-33508422D01*
X49629849Y-33460803D01*
X49725087Y-33413184D01*
X49867944Y-33413184D01*
X49963182Y-33460803D01*
X50010801Y-33508422D01*
X50058420Y-33603660D01*
X50058420Y-33984612D01*
X50010801Y-32984612D02*
X50010801Y-32651279D01*
X50534610Y-32508422D02*
X50534610Y-32984612D01*
X49534610Y-32984612D01*
X49534610Y-32508422D01*
X50010801Y-31746517D02*
X50010801Y-32079851D01*
X50534610Y-32079851D02*
X49534610Y-32079851D01*
X49534610Y-31603660D01*
X49534610Y-31079851D02*
X49772706Y-31079851D01*
X49677468Y-31317946D02*
X49772706Y-31079851D01*
X49677468Y-30841755D01*
X49963182Y-31222708D02*
X49772706Y-31079851D01*
X49963182Y-30936993D01*
X49534610Y-30317946D02*
X49772706Y-30317946D01*
X49677468Y-30556041D02*
X49772706Y-30317946D01*
X49677468Y-30079851D01*
X49963182Y-30460803D02*
X49772706Y-30317946D01*
X49963182Y-30175089D01*
X50534610Y31986816D02*
X50058420Y31653483D01*
X50534610Y31415388D02*
X49534610Y31415388D01*
X49534610Y31796340D01*
X49582230Y31891578D01*
X49629849Y31939197D01*
X49725087Y31986816D01*
X49867944Y31986816D01*
X49963182Y31939197D01*
X50010801Y31891578D01*
X50058420Y31796340D01*
X50058420Y31415388D01*
X50010801Y32415388D02*
X50010801Y32748721D01*
X50534610Y32891578D02*
X50534610Y32415388D01*
X49534610Y32415388D01*
X49534610Y32891578D01*
X50010801Y33653483D02*
X50010801Y33320149D01*
X50534610Y33320149D02*
X49534610Y33320149D01*
X49534610Y33796340D01*
X49534610Y34320149D02*
X49772706Y34320149D01*
X49677468Y34082054D02*
X49772706Y34320149D01*
X49677468Y34558245D01*
X49963182Y34177292D02*
X49772706Y34320149D01*
X49963182Y34463007D01*
X49534610Y35082054D02*
X49772706Y35082054D01*
X49677468Y34843959D02*
X49772706Y35082054D01*
X49677468Y35320149D01*
X49963182Y34939197D02*
X49772706Y35082054D01*
X49963182Y35224911D01*
X50534610Y16586816D02*
X50058420Y16253483D01*
X50534610Y16015388D02*
X49534610Y16015388D01*
X49534610Y16396340D01*
X49582230Y16491578D01*
X49629849Y16539197D01*
X49725087Y16586816D01*
X49867944Y16586816D01*
X49963182Y16539197D01*
X50010801Y16491578D01*
X50058420Y16396340D01*
X50058420Y16015388D01*
X50010801Y17015388D02*
X50010801Y17348721D01*
X50534610Y17491578D02*
X50534610Y17015388D01*
X49534610Y17015388D01*
X49534610Y17491578D01*
X50010801Y18253483D02*
X50010801Y17920149D01*
X50534610Y17920149D02*
X49534610Y17920149D01*
X49534610Y18396340D01*
X49534610Y18920149D02*
X49772706Y18920149D01*
X49677468Y18682054D02*
X49772706Y18920149D01*
X49677468Y19158245D01*
X49963182Y18777292D02*
X49772706Y18920149D01*
X49963182Y19063007D01*
X49534610Y19682054D02*
X49772706Y19682054D01*
X49677468Y19443959D02*
X49772706Y19682054D01*
X49677468Y19920149D01*
X49963182Y19539197D02*
X49772706Y19682054D01*
X49963182Y19824911D01*
X50534610Y4086816D02*
X50058420Y3753483D01*
X50534610Y3515388D02*
X49534610Y3515388D01*
X49534610Y3896340D01*
X49582230Y3991578D01*
X49629849Y4039197D01*
X49725087Y4086816D01*
X49867944Y4086816D01*
X49963182Y4039197D01*
X50010801Y3991578D01*
X50058420Y3896340D01*
X50058420Y3515388D01*
X50010801Y4515388D02*
X50010801Y4848721D01*
X50534610Y4991578D02*
X50534610Y4515388D01*
X49534610Y4515388D01*
X49534610Y4991578D01*
X50010801Y5753483D02*
X50010801Y5420149D01*
X50534610Y5420149D02*
X49534610Y5420149D01*
X49534610Y5896340D01*
X49534610Y6420149D02*
X49772706Y6420149D01*
X49677468Y6182054D02*
X49772706Y6420149D01*
X49677468Y6658245D01*
X49963182Y6277292D02*
X49772706Y6420149D01*
X49963182Y6563007D01*
X49534610Y7182054D02*
X49772706Y7182054D01*
X49677468Y6943959D02*
X49772706Y7182054D01*
X49677468Y7420149D01*
X49963182Y7039197D02*
X49772706Y7182054D01*
X49963182Y7324911D01*
X50534610Y-8413184D02*
X50058420Y-8746517D01*
X50534610Y-8984612D02*
X49534610Y-8984612D01*
X49534610Y-8603660D01*
X49582230Y-8508422D01*
X49629849Y-8460803D01*
X49725087Y-8413184D01*
X49867944Y-8413184D01*
X49963182Y-8460803D01*
X50010801Y-8508422D01*
X50058420Y-8603660D01*
X50058420Y-8984612D01*
X50010801Y-7984612D02*
X50010801Y-7651279D01*
X50534610Y-7508422D02*
X50534610Y-7984612D01*
X49534610Y-7984612D01*
X49534610Y-7508422D01*
X50010801Y-6746517D02*
X50010801Y-7079851D01*
X50534610Y-7079851D02*
X49534610Y-7079851D01*
X49534610Y-6603660D01*
X49534610Y-6079851D02*
X49772706Y-6079851D01*
X49677468Y-6317946D02*
X49772706Y-6079851D01*
X49677468Y-5841755D01*
X49963182Y-6222708D02*
X49772706Y-6079851D01*
X49963182Y-5936993D01*
X49534610Y-5317946D02*
X49772706Y-5317946D01*
X49677468Y-5556041D02*
X49772706Y-5317946D01*
X49677468Y-5079851D01*
X49963182Y-5460803D02*
X49772706Y-5317946D01*
X49963182Y-5175089D01*
X50534610Y-20913184D02*
X50058420Y-21246517D01*
X50534610Y-21484612D02*
X49534610Y-21484612D01*
X49534610Y-21103660D01*
X49582230Y-21008422D01*
X49629849Y-20960803D01*
X49725087Y-20913184D01*
X49867944Y-20913184D01*
X49963182Y-20960803D01*
X50010801Y-21008422D01*
X50058420Y-21103660D01*
X50058420Y-21484612D01*
X50010801Y-20484612D02*
X50010801Y-20151279D01*
X50534610Y-20008422D02*
X50534610Y-20484612D01*
X49534610Y-20484612D01*
X49534610Y-20008422D01*
X50010801Y-19246517D02*
X50010801Y-19579851D01*
X50534610Y-19579851D02*
X49534610Y-19579851D01*
X49534610Y-19103660D01*
X49534610Y-18579851D02*
X49772706Y-18579851D01*
X49677468Y-18817946D02*
X49772706Y-18579851D01*
X49677468Y-18341755D01*
X49963182Y-18722708D02*
X49772706Y-18579851D01*
X49963182Y-18436993D01*
X49534610Y-17817946D02*
X49772706Y-17817946D01*
X49677468Y-18056041D02*
X49772706Y-17817946D01*
X49677468Y-17579851D01*
X49963182Y-17960803D02*
X49772706Y-17817946D01*
X49963182Y-17675089D01*
X163134801Y28069856D02*
X163134801Y29069856D01*
X163134801Y28593665D02*
X163706229Y28593665D01*
X163706229Y28069856D02*
X163706229Y29069856D01*
X164610991Y29069856D02*
X164420515Y29069856D01*
X164325277Y29022236D01*
X164277658Y28974617D01*
X164182420Y28831760D01*
X164134801Y28641284D01*
X164134801Y28260332D01*
X164182420Y28165094D01*
X164230039Y28117475D01*
X164325277Y28069856D01*
X164515753Y28069856D01*
X164610991Y28117475D01*
X164658610Y28165094D01*
X164706229Y28260332D01*
X164706229Y28498427D01*
X164658610Y28593665D01*
X164610991Y28641284D01*
X164515753Y28688903D01*
X164325277Y28688903D01*
X164230039Y28641284D01*
X164182420Y28593665D01*
X164134801Y28498427D01*
X48182420Y39844856D02*
X48182420Y40844856D01*
X48420515Y40844856D01*
X48563372Y40797236D01*
X48658610Y40701998D01*
X48706229Y40606760D01*
X48753848Y40416284D01*
X48753848Y40273427D01*
X48706229Y40082951D01*
X48658610Y39987713D01*
X48563372Y39892475D01*
X48420515Y39844856D01*
X48182420Y39844856D01*
X49087182Y40844856D02*
X49706229Y40844856D01*
X49372896Y40463903D01*
X49515753Y40463903D01*
X49610991Y40416284D01*
X49658610Y40368665D01*
X49706229Y40273427D01*
X49706229Y40035332D01*
X49658610Y39940094D01*
X49610991Y39892475D01*
X49515753Y39844856D01*
X49230039Y39844856D01*
X49134801Y39892475D01*
X49087182Y39940094D01*
X50087182Y40749617D02*
X50134801Y40797236D01*
X50230039Y40844856D01*
X50468134Y40844856D01*
X50563372Y40797236D01*
X50610991Y40749617D01*
X50658610Y40654379D01*
X50658610Y40559141D01*
X50610991Y40416284D01*
X50039563Y39844856D01*
X50658610Y39844856D01*
X33685230Y-16057525D02*
X33828087Y-16105144D01*
X34066182Y-16105144D01*
X34161420Y-16057525D01*
X34209039Y-16009906D01*
X34256658Y-15914668D01*
X34256658Y-15819430D01*
X34209039Y-15724192D01*
X34161420Y-15676573D01*
X34066182Y-15628954D01*
X33875706Y-15581335D01*
X33780468Y-15533716D01*
X33732849Y-15486097D01*
X33685230Y-15390859D01*
X33685230Y-15295621D01*
X33732849Y-15200383D01*
X33780468Y-15152764D01*
X33875706Y-15105144D01*
X34113801Y-15105144D01*
X34256658Y-15152764D01*
X34589992Y-15105144D02*
X34828087Y-16105144D01*
X35018563Y-15390859D01*
X35209039Y-16105144D01*
X35447134Y-15105144D01*
X35780468Y-15200383D02*
X35828087Y-15152764D01*
X35923325Y-15105144D01*
X36161420Y-15105144D01*
X36256658Y-15152764D01*
X36304277Y-15200383D01*
X36351896Y-15295621D01*
X36351896Y-15390859D01*
X36304277Y-15533716D01*
X35732849Y-16105144D01*
X36351896Y-16105144D01*
X37256658Y-15105144D02*
X36780468Y-15105144D01*
X36732849Y-15581335D01*
X36780468Y-15533716D01*
X36875706Y-15486097D01*
X37113801Y-15486097D01*
X37209039Y-15533716D01*
X37256658Y-15581335D01*
X37304277Y-15676573D01*
X37304277Y-15914668D01*
X37256658Y-16009906D01*
X37209039Y-16057525D01*
X37113801Y-16105144D01*
X36875706Y-16105144D01*
X36780468Y-16057525D01*
X36732849Y-16009906D01*
X91134801Y-1830144D02*
X91134801Y-830144D01*
X91134801Y-1306335D02*
X91706229Y-1306335D01*
X91706229Y-1830144D02*
X91706229Y-830144D01*
X92706229Y-1830144D02*
X92134801Y-1830144D01*
X92420515Y-1830144D02*
X92420515Y-830144D01*
X92325277Y-973002D01*
X92230039Y-1068240D01*
X92134801Y-1115859D01*
X41280468Y40494856D02*
X41280468Y41494856D01*
X41518563Y41494856D01*
X41661420Y41447236D01*
X41756658Y41351998D01*
X41804277Y41256760D01*
X41851896Y41066284D01*
X41851896Y40923427D01*
X41804277Y40732951D01*
X41756658Y40637713D01*
X41661420Y40542475D01*
X41518563Y40494856D01*
X41280468Y40494856D01*
X42185230Y41494856D02*
X42804277Y41494856D01*
X42470944Y41113903D01*
X42613801Y41113903D01*
X42709039Y41066284D01*
X42756658Y41018665D01*
X42804277Y40923427D01*
X42804277Y40685332D01*
X42756658Y40590094D01*
X42709039Y40542475D01*
X42613801Y40494856D01*
X42328087Y40494856D01*
X42232849Y40542475D01*
X42185230Y40590094D01*
X43185230Y41399617D02*
X43232849Y41447236D01*
X43328087Y41494856D01*
X43566182Y41494856D01*
X43661420Y41447236D01*
X43709039Y41399617D01*
X43756658Y41304379D01*
X43756658Y41209141D01*
X43709039Y41066284D01*
X43137611Y40494856D01*
X43756658Y40494856D01*
X-1813199Y33942475D02*
X-1670342Y33894856D01*
X-1432246Y33894856D01*
X-1337008Y33942475D01*
X-1289389Y33990094D01*
X-1241770Y34085332D01*
X-1241770Y34180570D01*
X-1289389Y34275808D01*
X-1337008Y34323427D01*
X-1432246Y34371046D01*
X-1622723Y34418665D01*
X-1717961Y34466284D01*
X-1765580Y34513903D01*
X-1813199Y34609141D01*
X-1813199Y34704379D01*
X-1765580Y34799617D01*
X-1717961Y34847236D01*
X-1622723Y34894856D01*
X-1384627Y34894856D01*
X-1241770Y34847236D01*
X-908437Y34894856D02*
X-670342Y33894856D01*
X-479866Y34609141D01*
X-289389Y33894856D01*
X-51294Y34894856D01*
X329658Y33894856D02*
X329658Y34894856D01*
X567754Y34894856D01*
X710611Y34847236D01*
X805849Y34751998D01*
X853468Y34656760D01*
X901087Y34466284D01*
X901087Y34323427D01*
X853468Y34132951D01*
X805849Y34037713D01*
X710611Y33942475D01*
X567754Y33894856D01*
X329658Y33894856D01*
X2043944Y34942475D02*
X1186801Y33656760D01*
X2948706Y33990094D02*
X2901087Y33942475D01*
X2758230Y33894856D01*
X2662992Y33894856D01*
X2520134Y33942475D01*
X2424896Y34037713D01*
X2377277Y34132951D01*
X2329658Y34323427D01*
X2329658Y34466284D01*
X2377277Y34656760D01*
X2424896Y34751998D01*
X2520134Y34847236D01*
X2662992Y34894856D01*
X2758230Y34894856D01*
X2901087Y34847236D01*
X2948706Y34799617D01*
X56859801Y34294856D02*
X56859801Y35294856D01*
X56859801Y34818665D02*
X57431229Y34818665D01*
X57431229Y34294856D02*
X57431229Y35294856D01*
X58335991Y34961522D02*
X58335991Y34294856D01*
X58097896Y35342475D02*
X57859801Y34628189D01*
X58478848Y34628189D01*
X71359801Y-17505144D02*
X71359801Y-16505144D01*
X71359801Y-16981335D02*
X71931229Y-16981335D01*
X71931229Y-17505144D02*
X71931229Y-16505144D01*
X72359801Y-16600383D02*
X72407420Y-16552764D01*
X72502658Y-16505144D01*
X72740753Y-16505144D01*
X72835991Y-16552764D01*
X72883610Y-16600383D01*
X72931229Y-16695621D01*
X72931229Y-16790859D01*
X72883610Y-16933716D01*
X72312182Y-17505144D01*
X72931229Y-17505144D01*
X54787182Y-16907525D02*
X54930039Y-16955144D01*
X55168134Y-16955144D01*
X55263372Y-16907525D01*
X55310991Y-16859906D01*
X55358610Y-16764668D01*
X55358610Y-16669430D01*
X55310991Y-16574192D01*
X55263372Y-16526573D01*
X55168134Y-16478954D01*
X54977658Y-16431335D01*
X54882420Y-16383716D01*
X54834801Y-16336097D01*
X54787182Y-16240859D01*
X54787182Y-16145621D01*
X54834801Y-16050383D01*
X54882420Y-16002764D01*
X54977658Y-15955144D01*
X55215753Y-15955144D01*
X55358610Y-16002764D01*
X55691944Y-15955144D02*
X55930039Y-16955144D01*
X56120515Y-16240859D01*
X56310991Y-16955144D01*
X56549086Y-15955144D01*
X56882420Y-16050383D02*
X56930039Y-16002764D01*
X57025277Y-15955144D01*
X57263372Y-15955144D01*
X57358610Y-16002764D01*
X57406229Y-16050383D01*
X57453848Y-16145621D01*
X57453848Y-16240859D01*
X57406229Y-16383716D01*
X56834801Y-16955144D01*
X57453848Y-16955144D01*
X58358610Y-15955144D02*
X57882420Y-15955144D01*
X57834801Y-16431335D01*
X57882420Y-16383716D01*
X57977658Y-16336097D01*
X58215753Y-16336097D01*
X58310991Y-16383716D01*
X58358610Y-16431335D01*
X58406229Y-16526573D01*
X58406229Y-16764668D01*
X58358610Y-16859906D01*
X58310991Y-16907525D01*
X58215753Y-16955144D01*
X57977658Y-16955144D01*
X57882420Y-16907525D01*
X57834801Y-16859906D01*
X163134801Y-6130144D02*
X163134801Y-5130144D01*
X163134801Y-5606335D02*
X163706229Y-5606335D01*
X163706229Y-6130144D02*
X163706229Y-5130144D01*
X164087182Y-5130144D02*
X164706229Y-5130144D01*
X164372896Y-5511097D01*
X164515753Y-5511097D01*
X164610991Y-5558716D01*
X164658610Y-5606335D01*
X164706229Y-5701573D01*
X164706229Y-5939668D01*
X164658610Y-6034906D01*
X164610991Y-6082525D01*
X164515753Y-6130144D01*
X164230039Y-6130144D01*
X164134801Y-6082525D01*
X164087182Y-6034906D01*
X25680468Y40294856D02*
X25680468Y41294856D01*
X25918563Y41294856D01*
X26061420Y41247236D01*
X26156658Y41151998D01*
X26204277Y41056760D01*
X26251896Y40866284D01*
X26251896Y40723427D01*
X26204277Y40532951D01*
X26156658Y40437713D01*
X26061420Y40342475D01*
X25918563Y40294856D01*
X25680468Y40294856D01*
X26585230Y41294856D02*
X27204277Y41294856D01*
X26870944Y40913903D01*
X27013801Y40913903D01*
X27109039Y40866284D01*
X27156658Y40818665D01*
X27204277Y40723427D01*
X27204277Y40485332D01*
X27156658Y40390094D01*
X27109039Y40342475D01*
X27013801Y40294856D01*
X26728087Y40294856D01*
X26632849Y40342475D01*
X26585230Y40390094D01*
X28156658Y40294856D02*
X27585230Y40294856D01*
X27870944Y40294856D02*
X27870944Y41294856D01*
X27775706Y41151998D01*
X27680468Y41056760D01*
X27585230Y41009141D01*
X64582420Y39944856D02*
X64582420Y40944856D01*
X64820515Y40944856D01*
X64963372Y40897236D01*
X65058610Y40801998D01*
X65106229Y40706760D01*
X65153848Y40516284D01*
X65153848Y40373427D01*
X65106229Y40182951D01*
X65058610Y40087713D01*
X64963372Y39992475D01*
X64820515Y39944856D01*
X64582420Y39944856D01*
X65487182Y40944856D02*
X66106229Y40944856D01*
X65772896Y40563903D01*
X65915753Y40563903D01*
X66010991Y40516284D01*
X66058610Y40468665D01*
X66106229Y40373427D01*
X66106229Y40135332D01*
X66058610Y40040094D01*
X66010991Y39992475D01*
X65915753Y39944856D01*
X65630039Y39944856D01*
X65534801Y39992475D01*
X65487182Y40040094D01*
X67058610Y39944856D02*
X66487182Y39944856D01*
X66772896Y39944856D02*
X66772896Y40944856D01*
X66677658Y40801998D01*
X66582420Y40706760D01*
X66487182Y40659141D01*
X91034801Y32169856D02*
X91034801Y33169856D01*
X91034801Y32693665D02*
X91606229Y32693665D01*
X91606229Y32169856D02*
X91606229Y33169856D01*
X92558610Y33169856D02*
X92082420Y33169856D01*
X92034801Y32693665D01*
X92082420Y32741284D01*
X92177658Y32788903D01*
X92415753Y32788903D01*
X92510991Y32741284D01*
X92558610Y32693665D01*
X92606229Y32598427D01*
X92606229Y32360332D01*
X92558610Y32265094D01*
X92510991Y32217475D01*
X92415753Y32169856D01*
X92177658Y32169856D01*
X92082420Y32217475D01*
X92034801Y32265094D01*
X80330039Y20140094D02*
X80282420Y20092475D01*
X80139563Y20044856D01*
X80044325Y20044856D01*
X79901467Y20092475D01*
X79806229Y20187713D01*
X79758610Y20282951D01*
X79710991Y20473427D01*
X79710991Y20616284D01*
X79758610Y20806760D01*
X79806229Y20901998D01*
X79901467Y20997236D01*
X80044325Y21044856D01*
X80139563Y21044856D01*
X80282420Y20997236D01*
X80330039Y20949617D01*
X81187182Y20711522D02*
X81187182Y20044856D01*
X80949086Y21092475D02*
X80710991Y20378189D01*
X81330039Y20378189D01*
X75330039Y20140094D02*
X75282420Y20092475D01*
X75139563Y20044856D01*
X75044325Y20044856D01*
X74901467Y20092475D01*
X74806229Y20187713D01*
X74758610Y20282951D01*
X74710991Y20473427D01*
X74710991Y20616284D01*
X74758610Y20806760D01*
X74806229Y20901998D01*
X74901467Y20997236D01*
X75044325Y21044856D01*
X75139563Y21044856D01*
X75282420Y20997236D01*
X75330039Y20949617D01*
X75663372Y21044856D02*
X76282420Y21044856D01*
X75949086Y20663903D01*
X76091944Y20663903D01*
X76187182Y20616284D01*
X76234801Y20568665D01*
X76282420Y20473427D01*
X76282420Y20235332D01*
X76234801Y20140094D01*
X76187182Y20092475D01*
X76091944Y20044856D01*
X75806229Y20044856D01*
X75710991Y20092475D01*
X75663372Y20140094D01*
D12*
X51281706Y38187236D02*
X51281706Y39657236D01*
X51281706Y39657236D02*
X48821706Y39657236D01*
X48821706Y38187236D02*
X51281706Y38187236D01*
X38067754Y-16952764D02*
X38067754Y-5152764D01*
X25867754Y-12352764D02*
X25867754Y-9752764D01*
X33967754Y-16952764D02*
X38067754Y-16952764D01*
X25867754Y-7552764D02*
X25867754Y-5152764D01*
X25867754Y-16952764D02*
X25867754Y-14552764D01*
X33967754Y-5152764D02*
X38067754Y-5152764D01*
X39467754Y-14852764D02*
X39767754Y-15152764D01*
X39167754Y-15152764D02*
X39467754Y-14852764D01*
X32467754Y-11052764D02*
X31467754Y-11052764D01*
X39767754Y-15152764D02*
X39167754Y-15152764D01*
X25867754Y-5152764D02*
X29967754Y-5152764D01*
X31967754Y-11552764D02*
X31967754Y-10552764D01*
X29967754Y-16952764D02*
X25867754Y-16952764D01*
X34967754Y-11052764D02*
G75*
G03*
X34967754Y-11052764I-3000000J0D01*
G01*
X43842754Y40057236D02*
X41382754Y40057236D01*
X41382754Y40057236D02*
X41382754Y38587236D01*
X41382754Y38587236D02*
X43842754Y38587236D01*
X-762246Y35617236D02*
X-762246Y43297236D01*
X1897754Y35617236D02*
X1897754Y43297236D01*
X1897754Y33017236D02*
X567754Y33017236D01*
X1897754Y43297236D02*
X-762246Y43297236D01*
X1897754Y34347236D02*
X1897754Y33017236D01*
X1897754Y35617236D02*
X-762246Y35617236D01*
X54596706Y-5552764D02*
X54596706Y-17352764D01*
X60196706Y-11452764D02*
X61196706Y-11452764D01*
X52896706Y-7352764D02*
X53496706Y-7352764D01*
X66796706Y-10152764D02*
X66796706Y-12752764D01*
X66796706Y-17352764D02*
X62696706Y-17352764D01*
X58696706Y-5552764D02*
X54596706Y-5552764D01*
X66796706Y-5552764D02*
X66796706Y-7952764D01*
X53496706Y-7352764D02*
X53196706Y-7652764D01*
X62696706Y-5552764D02*
X66796706Y-5552764D01*
X66796706Y-14952764D02*
X66796706Y-17352764D01*
X60696706Y-10952764D02*
X60696706Y-11952764D01*
X53196706Y-7652764D02*
X52896706Y-7352764D01*
X58696706Y-17352764D02*
X54596706Y-17352764D01*
X63696706Y-11452764D02*
G75*
G03*
X63696706Y-11452764I-3000000J0D01*
G01*
X25682754Y40082236D02*
X25682754Y38612236D01*
X25682754Y38612236D02*
X28142754Y38612236D01*
X28142754Y40082236D02*
X25682754Y40082236D01*
X66981706Y39682236D02*
X64521706Y39682236D01*
X66981706Y38212236D02*
X66981706Y39682236D01*
X64521706Y38212236D02*
X66981706Y38212236D01*
X79306706Y21150969D02*
X79306706Y21443503D01*
X78286706Y21150969D02*
X78286706Y21443503D01*
X77669206Y21150969D02*
X77669206Y21443503D01*
X76649206Y21150969D02*
X76649206Y21443503D01*
M02*
