M48
; DRILL file {KiCad (5.99.0-8557-g8988e46ab1)} date Sunday, January 24, 2021 at 12:11:55 PM
; FORMAT={-:-/ absolute / inch / decimal}
; #@! TF.CreationDate,2021-01-24T12:11:55-07:00
; #@! TF.GenerationSoftware,Kicad,Pcbnew,(5.99.0-8557-g8988e46ab1)
; #@! TF.FileFunction,NonPlated,1,2,NPTH
FMAT,2
INCH
T1C0.0300
T2C0.0354
T3C0.0748
T4C0.1339
T5C0.1693
%
G90
G05
T1
X1.7867Y1.485
X1.7867Y1.4496
X1.7867Y1.4142
X1.7867Y1.3787
X1.7867Y1.3433
X1.7867Y0.8787
X1.7867Y0.8433
X1.7867Y0.8079
X1.7867Y0.7724
X1.7867Y0.737
X1.7867Y0.3866
X1.7867Y0.3512
X1.7867Y0.3158
X1.7867Y0.2803
X1.7867Y0.2449
X1.7867Y-0.1055
X1.7867Y-0.1409
X1.7867Y-0.1764
X1.7867Y-0.2118
X1.7867Y-0.2472
X1.7867Y-0.5976
X1.7867Y-0.6331
X1.7867Y-0.6685
X1.7867Y-0.7039
X1.7867Y-0.7394
X1.7867Y-1.0898
X1.7867Y-1.1252
X1.7867Y-1.1606
X1.7867Y-1.1961
X1.7867Y-1.2315
X1.8615Y1.485
X1.8615Y1.4496
X1.8615Y1.4142
X1.8615Y1.3787
X1.8615Y1.3433
X1.8615Y0.8787
X1.8615Y0.8433
X1.8615Y0.8079
X1.8615Y0.7724
X1.8615Y0.737
X1.8615Y0.3866
X1.8615Y0.3512
X1.8615Y0.3158
X1.8615Y0.2803
X1.8615Y0.2449
X1.8615Y-0.1055
X1.8615Y-0.1409
X1.8615Y-0.1764
X1.8615Y-0.2118
X1.8615Y-0.2472
X1.8615Y-0.5976
X1.8615Y-0.6331
X1.8615Y-0.6685
X1.8615Y-0.7039
X1.8615Y-0.7394
X1.8615Y-1.0898
X1.8615Y-1.1252
X1.8615Y-1.1606
X1.8615Y-1.1961
X1.8615Y-1.2315
T2
X1.6887Y1.2105
X1.6887Y1.0924
X1.9595Y1.1948
X1.9595Y1.0767
T3
X-3.3753Y1.2381
X-3.3753Y0.5688
X-3.3753Y-0.1005
X-3.3753Y-0.7698
X-2.9422Y1.2381
X-2.9422Y0.5688
X-2.9422Y-0.1005
X-2.9422Y-0.7698
X-2.6666Y1.2775
X-2.6666Y0.6082
X-2.6666Y-0.0611
X-2.6666Y-0.7304
X-2.2336Y1.2775
X-2.2336Y0.6082
X-2.2336Y-0.0611
X-2.2336Y-0.7304
X-1.958Y1.4743
X-1.958Y0.805
X-1.958Y0.1357
X-1.958Y-0.5336
X-1.5249Y1.4743
X-1.5249Y0.805
X-1.5249Y0.1357
X-1.5249Y-0.5336
X-1.2493Y1.5255
X-1.2493Y0.8562
X-1.2493Y0.1869
X-1.2493Y-0.4824
X-1.2493Y-1.3485
X-0.8162Y1.5255
X-0.8162Y0.8562
X-0.8162Y0.1869
X-0.8162Y-0.4824
X-0.8162Y-1.3485
X-0.5406Y1.4743
X-0.5406Y0.805
X-0.5406Y0.1357
X-0.5406Y-0.5336
X-0.5367Y-1.3997
X-0.1076Y1.4743
X-0.1076Y0.805
X-0.1076Y0.1357
X-0.1076Y-0.5336
X-0.1036Y-1.3997
X0.168Y1.3798
X0.168Y0.7105
X0.168Y0.0412
X0.168Y-0.6281
X0.4884Y-1.5159
X0.6011Y1.3798
X0.6011Y0.7105
X0.6011Y0.0412
X0.6011Y-0.6281
X0.8634Y-1.2993
X2.7848Y-1.3151
X3.0471Y1.3641
X3.0471Y0.6948
X3.0471Y0.0255
X3.0471Y-0.6438
X3.1598Y-1.5316
X3.4802Y1.3641
X3.4802Y0.6948
X3.4802Y0.0255
X3.4802Y-0.6438
X3.7518Y-1.4155
X3.7558Y1.4586
X3.7558Y0.7893
X3.7558Y0.12
X3.7558Y-0.5493
X4.1849Y-1.4155
X4.1888Y1.4586
X4.1888Y0.7893
X4.1888Y0.12
X4.1888Y-0.5493
X4.4644Y1.5097
X4.4644Y0.8404
X4.4644Y0.1712
X4.4644Y-0.4981
X4.4644Y-1.3643
X4.8975Y1.5097
X4.8975Y0.8404
X4.8975Y0.1712
X4.8975Y-0.4981
X4.8975Y-1.3643
X5.1731Y1.4586
X5.1731Y0.7893
X5.1731Y0.12
X5.1731Y-0.5493
X5.6062Y1.4586
X5.6062Y0.7893
X5.6062Y0.12
X5.6062Y-0.5493
X5.8818Y1.2617
X5.8818Y0.5924
X5.8818Y-0.0769
X5.8818Y-0.7462
X6.3148Y1.2617
X6.3148Y0.5924
X6.3148Y-0.0769
X6.3148Y-0.7462
X6.5904Y1.2223
X6.5904Y0.553
X6.5904Y-0.1163
X6.5904Y-0.7855
X7.0235Y1.2223
X7.0235Y0.553
X7.0235Y-0.1163
X7.0235Y-0.7855
T4
X-3.1587Y1.2381
X-3.1587Y0.5688
X-3.1587Y-0.1005
X-3.1587Y-0.7698
X-2.4501Y1.2775
X-2.4501Y0.6082
X-2.4501Y-0.0611
X-2.4501Y-0.7304
X-1.7414Y1.4743
X-1.7414Y0.805
X-1.7414Y0.1357
X-1.7414Y-0.5336
X-1.0328Y1.5255
X-1.0328Y0.8562
X-1.0328Y0.1869
X-1.0328Y-0.4824
X-1.0328Y-1.3485
X-0.3241Y1.4743
X-0.3241Y0.805
X-0.3241Y0.1357
X-0.3241Y-0.5336
X-0.3202Y-1.3997
X0.3846Y1.3798
X0.3846Y0.7105
X0.3846Y0.0412
X0.3846Y-0.6281
X0.6759Y-1.4076
X2.9723Y-1.4233
X3.2636Y1.3641
X3.2636Y0.6948
X3.2636Y0.0255
X3.2636Y-0.6438
X3.9684Y-1.4155
X3.9723Y1.4586
X3.9723Y0.7893
X3.9723Y0.12
X3.9723Y-0.5493
X4.681Y1.5097
X4.681Y0.8404
X4.681Y0.1712
X4.681Y-0.4981
X4.681Y-1.3643
X5.3896Y1.4586
X5.3896Y0.7893
X5.3896Y0.12
X5.3896Y-0.5493
X6.0983Y1.2617
X6.0983Y0.5924
X6.0983Y-0.0769
X6.0983Y-0.7462
X6.807Y1.2223
X6.807Y0.553
X6.807Y-0.1163
X6.807Y-0.7855
T5
X-2.8044Y0.93
X-2.8044Y-0.4164
X0.0302Y-0.2472
X0.0342Y1.0914
X0.8088Y-0.8643
X1.3796Y1.1751
X2.2686Y1.1593
X2.8394Y-0.88
X3.614Y1.0757
X3.618Y-0.2629
X6.4526Y0.9143
X6.4526Y-0.4322
T0
M30
