G04 #@! TF.GenerationSoftware,KiCad,Pcbnew,(5.99.0-8557-g8988e46ab1)*
G04 #@! TF.CreationDate,2021-01-24T12:11:51-07:00*
G04 #@! TF.ProjectId,BlueSofPanel,426c7565-536f-4665-9061-6e656c2e6b69,rev?*
G04 #@! TF.SameCoordinates,PX85099e0PY51bada0*
G04 #@! TF.FileFunction,Soldermask,Bot*
G04 #@! TF.FilePolarity,Negative*
%FSLAX46Y46*%
G04 Gerber Fmt 4.6, Leading zero omitted, Abs format (unit mm)*
G04 Created by KiCad (PCBNEW (5.99.0-8557-g8988e46ab1)) date 2021-01-24 12:11:51*
%MOMM*%
%LPD*%
G01*
G04 APERTURE LIST*
G04 Aperture macros list*
%AMRoundRect*
0 Rectangle with rounded corners*
0 $1 Rounding radius*
0 $2 $3 $4 $5 $6 $7 $8 $9 X,Y pos of 4 corners*
0 Add a 4 corners polygon primitive as box body*
4,1,4,$2,$3,$4,$5,$6,$7,$8,$9,$2,$3,0*
0 Add four circle primitives for the rounded corners*
1,1,$1+$1,$2,$3*
1,1,$1+$1,$4,$5*
1,1,$1+$1,$6,$7*
1,1,$1+$1,$8,$9*
0 Add four rect primitives between the rounded corners*
20,1,$1+$1,$2,$3,$4,$5,0*
20,1,$1+$1,$4,$5,$6,$7,0*
20,1,$1+$1,$6,$7,$8,$9,0*
20,1,$1+$1,$8,$9,$2,$3,0*%
%AMRotRect*
0 Rectangle, with rotation*
0 The origin of the aperture is its center*
0 $1 length*
0 $2 width*
0 $3 Rotation angle, in degrees counterclockwise*
0 Add horizontal line*
21,1,$1,$2,0,0,$3*%
G04 Aperture macros list end*
%ADD10C,0.800000*%
%ADD11C,1.900000*%
%ADD12C,3.400000*%
%ADD13C,2.000000*%
%ADD14C,4.300000*%
%ADD15R,2.000000X2.000000*%
%ADD16R,3.200000X2.000000*%
%ADD17R,1.700000X1.700000*%
%ADD18O,1.700000X1.700000*%
%ADD19RoundRect,0.237500X-0.250000X-0.237500X0.250000X-0.237500X0.250000X0.237500X-0.250000X0.237500X0*%
%ADD20C,0.900000*%
%ADD21R,1.524000X0.600000*%
%ADD22R,0.700000X1.200000*%
%ADD23R,0.900000X1.200000*%
%ADD24RoundRect,0.237500X-0.237500X0.250000X-0.237500X-0.250000X0.237500X-0.250000X0.237500X0.250000X0*%
%ADD25RoundRect,0.237500X0.300000X0.237500X-0.300000X0.237500X-0.300000X-0.237500X0.300000X-0.237500X0*%
%ADD26R,1.700000X0.900000*%
%ADD27RoundRect,0.237500X-0.237500X0.300000X-0.237500X-0.300000X0.237500X-0.300000X0.237500X0.300000X0*%
%ADD28R,1.050000X1.200000*%
%ADD29R,0.800000X0.900000*%
%ADD30R,1.550000X1.200000*%
%ADD31R,1.800000X1.200000*%
%ADD32RoundRect,0.237500X0.237500X-0.250000X0.237500X0.250000X-0.237500X0.250000X-0.237500X-0.250000X0*%
%ADD33R,0.540000X0.800000*%
%ADD34R,0.300000X0.800000*%
%ADD35C,1.000000*%
%ADD36RotRect,0.900000X1.200000X330.000000*%
%ADD37R,1.000000X1.000000*%
%ADD38RoundRect,0.237500X0.250000X0.237500X-0.250000X0.237500X-0.250000X-0.237500X0.250000X-0.237500X0*%
%ADD39RoundRect,0.237500X-0.300000X-0.237500X0.300000X-0.237500X0.300000X0.237500X-0.300000X0.237500X0*%
%ADD40RoundRect,0.150000X-0.512500X-0.150000X0.512500X-0.150000X0.512500X0.150000X-0.512500X0.150000X0*%
%ADD41RotRect,0.900000X1.200000X30.000000*%
%ADD42R,1.200000X0.900000*%
%ADD43RoundRect,0.150000X-0.150000X0.512500X-0.150000X-0.512500X0.150000X-0.512500X0.150000X0.512500X0*%
%ADD44RoundRect,0.237500X0.237500X-0.300000X0.237500X0.300000X-0.237500X0.300000X-0.237500X-0.300000X0*%
%ADD45R,1.000000X0.650000*%
%ADD46R,0.650000X1.000000*%
%ADD47RoundRect,0.150000X0.150000X-0.512500X0.150000X0.512500X-0.150000X0.512500X-0.150000X-0.512500X0*%
G04 APERTURE END LIST*
D10*
X45382230Y-27679851D03*
X45382230Y-31279851D03*
X47282230Y-31279851D03*
X45382230Y-28579851D03*
X45382230Y-29479851D03*
X45382230Y-30379851D03*
X47282230Y-28579851D03*
X47282230Y-29479851D03*
X47282230Y-30379851D03*
X47282230Y-27679851D03*
X45382230Y37720149D03*
X45382230Y34120149D03*
X47282230Y34120149D03*
X45382230Y36820149D03*
X45382230Y35920149D03*
X45382230Y35020149D03*
X47282230Y36820149D03*
X47282230Y35920149D03*
X47282230Y35020149D03*
X47282230Y37720149D03*
X45382230Y22320149D03*
X45382230Y18720149D03*
X47282230Y18720149D03*
X45382230Y21420149D03*
X45382230Y20520149D03*
X45382230Y19620149D03*
X47282230Y21420149D03*
X47282230Y20520149D03*
X47282230Y19620149D03*
X47282230Y22320149D03*
X45382230Y9820149D03*
X45382230Y6220149D03*
X47282230Y6220149D03*
X45382230Y8920149D03*
X45382230Y8020149D03*
X45382230Y7120149D03*
X47282230Y8920149D03*
X47282230Y8020149D03*
X47282230Y7120149D03*
X47282230Y9820149D03*
X45382230Y-2679851D03*
X45382230Y-6279851D03*
X47282230Y-6279851D03*
X45382230Y-3579851D03*
X45382230Y-4479851D03*
X45382230Y-5379851D03*
X47282230Y-3579851D03*
X47282230Y-4479851D03*
X47282230Y-5379851D03*
X47282230Y-2679851D03*
X45382230Y-15179851D03*
X45382230Y-18779851D03*
X47282230Y-18779851D03*
X45382230Y-16079851D03*
X45382230Y-16979851D03*
X45382230Y-17879851D03*
X47282230Y-16079851D03*
X47282230Y-16979851D03*
X47282230Y-17879851D03*
X47282230Y-15179851D03*
D11*
X-49732246Y20447236D03*
X-38732246Y20447236D03*
D12*
X-44232246Y20447236D03*
D13*
X-49232246Y16747236D03*
X-44232246Y14547236D03*
D14*
X163896706Y23222236D03*
D12*
X118896706Y38347236D03*
D11*
X113396706Y38347236D03*
X124396706Y38347236D03*
D13*
X113896706Y34647236D03*
X118896706Y32447236D03*
D12*
X172896706Y31047236D03*
D11*
X178396706Y31047236D03*
X167396706Y31047236D03*
D13*
X167896706Y27347236D03*
X172896706Y25147236D03*
D11*
X142396706Y3047236D03*
X131396706Y3047236D03*
D12*
X136896706Y3047236D03*
D13*
X131896706Y-652764D03*
X136896706Y-2852764D03*
D11*
X-56732246Y32447236D03*
X-67732246Y32447236D03*
D12*
X-62232246Y32447236D03*
D13*
X-67232246Y28747236D03*
X-62232246Y26547236D03*
D11*
X-85732246Y31447236D03*
D12*
X-80232246Y31447236D03*
D11*
X-74732246Y31447236D03*
D13*
X-85232246Y27747236D03*
X-80232246Y25547236D03*
D15*
X39467754Y-13552764D03*
D13*
X39467754Y-8552764D03*
X39467754Y-11052764D03*
D16*
X31967754Y-16652764D03*
X31967754Y-5452764D03*
D13*
X24967754Y-8552764D03*
X24967754Y-13552764D03*
D11*
X-20732246Y-12252764D03*
X-31732246Y-12252764D03*
D12*
X-26232246Y-12252764D03*
D13*
X-31232246Y-15952764D03*
X-26232246Y-18152764D03*
D14*
X91896706Y-6677764D03*
D11*
X-56732246Y-1552764D03*
X-67732246Y-1552764D03*
D12*
X-62232246Y-1552764D03*
D13*
X-67232246Y-5252764D03*
X-62232246Y-7452764D03*
D11*
X-20732246Y4747236D03*
X-31732246Y4747236D03*
D12*
X-26232246Y4747236D03*
D13*
X-31232246Y1047236D03*
X-26232246Y-1152764D03*
D11*
X88396706Y34647236D03*
X77396706Y34647236D03*
D12*
X82896706Y34647236D03*
D13*
X77896706Y30947236D03*
X82896706Y28747236D03*
D11*
X4267754Y-15952764D03*
D12*
X9767754Y-15952764D03*
D11*
X15267754Y-15952764D03*
D13*
X4767754Y-19652764D03*
X9767754Y-21852764D03*
D12*
X100896706Y20047236D03*
D11*
X106396706Y20047236D03*
X95396706Y20047236D03*
D13*
X95896706Y16347236D03*
X100896706Y14147236D03*
D11*
X-38732246Y-13552764D03*
D12*
X-44232246Y-13552764D03*
D11*
X-49732246Y-13552764D03*
D13*
X-49232246Y-17252764D03*
X-44232246Y-19452764D03*
D11*
X12404614Y-38502764D03*
X21930894Y-33002764D03*
D12*
X17167754Y-35752764D03*
D13*
X14687627Y-41457058D03*
X20117754Y-40862314D03*
D11*
X-13732246Y37447236D03*
X-2732246Y37447236D03*
D12*
X-8232246Y37447236D03*
D13*
X-13232246Y33747236D03*
X-8232246Y31547236D03*
D12*
X118896706Y21347236D03*
D11*
X113396706Y21347236D03*
X124396706Y21347236D03*
D13*
X113896706Y17647236D03*
X118896706Y15447236D03*
D11*
X149396706Y-18952764D03*
D12*
X154896706Y-18952764D03*
D11*
X160396706Y-18952764D03*
D13*
X149896706Y-22652764D03*
X154896706Y-24852764D03*
D11*
X95296706Y-35952764D03*
X106296706Y-35952764D03*
D12*
X100796706Y-35952764D03*
D13*
X95796706Y-39652764D03*
X100796706Y-41852764D03*
D11*
X-49732246Y37447236D03*
X-38732246Y37447236D03*
D12*
X-44232246Y37447236D03*
D13*
X-49232246Y33747236D03*
X-44232246Y31547236D03*
D17*
X567754Y34347236D03*
D18*
X567754Y36887236D03*
X567754Y39427236D03*
X567754Y41967236D03*
D11*
X149396706Y-1952764D03*
D12*
X154896706Y-1952764D03*
D11*
X160396706Y-1952764D03*
D13*
X149896706Y-5652764D03*
X154896706Y-7852764D03*
D12*
X118896706Y-12652764D03*
D11*
X124396706Y-12652764D03*
X113396706Y-12652764D03*
D13*
X113896706Y-16352764D03*
X118896706Y-18552764D03*
D11*
X-13732246Y3447236D03*
X-2732246Y3447236D03*
D12*
X-8232246Y3447236D03*
D13*
X-13232246Y-252764D03*
X-8232246Y-2452764D03*
D12*
X9767754Y1047236D03*
D11*
X15267754Y1047236D03*
X4267754Y1047236D03*
D13*
X4767754Y-2652764D03*
X9767754Y-4852764D03*
D14*
X57621706Y29447236D03*
X72121706Y-22352764D03*
D11*
X15267754Y35047236D03*
X4267754Y35047236D03*
D12*
X9767754Y35047236D03*
D13*
X4767754Y31347236D03*
X9767754Y29147236D03*
D11*
X131396706Y37047236D03*
X142396706Y37047236D03*
D12*
X136896706Y37047236D03*
D13*
X131896706Y33347236D03*
X136896706Y31147236D03*
D12*
X154896706Y15047236D03*
D11*
X149396706Y15047236D03*
X160396706Y15047236D03*
D13*
X149896706Y11347236D03*
X154896706Y9147236D03*
D15*
X53196706Y-8952764D03*
D13*
X53196706Y-13952764D03*
X53196706Y-11452764D03*
D16*
X60696706Y-17052764D03*
X60696706Y-5852764D03*
D13*
X67696706Y-13952764D03*
X67696706Y-8952764D03*
D14*
X163896706Y-10977764D03*
D12*
X-26232246Y38747236D03*
D11*
X-20732246Y38747236D03*
X-31732246Y38747236D03*
D13*
X-31232246Y35047236D03*
X-26232246Y32847236D03*
D11*
X142396706Y-13952764D03*
X131396706Y-13952764D03*
D12*
X136896706Y-13952764D03*
D13*
X131896706Y-17652764D03*
X136896706Y-19852764D03*
D12*
X-62232246Y-18552764D03*
D11*
X-56732246Y-18552764D03*
X-67732246Y-18552764D03*
D13*
X-67232246Y-22252764D03*
X-62232246Y-24452764D03*
D11*
X-13732246Y-13552764D03*
D12*
X-8232246Y-13552764D03*
D11*
X-2732246Y-13552764D03*
D13*
X-13232246Y-17252764D03*
X-8232246Y-19452764D03*
D11*
X106396706Y-13952764D03*
X95396706Y-13952764D03*
D12*
X100896706Y-13952764D03*
D13*
X95896706Y-17652764D03*
X100896706Y-19852764D03*
D12*
X100896706Y3047236D03*
D11*
X95396706Y3047236D03*
X106396706Y3047236D03*
D13*
X95896706Y-652764D03*
X100896706Y-2852764D03*
D11*
X-13632246Y-35552764D03*
X-2632246Y-35552764D03*
D12*
X-8132246Y-35552764D03*
D13*
X-13132246Y-39252764D03*
X-8132246Y-41452764D03*
D12*
X-26232246Y21747236D03*
D11*
X-20732246Y21747236D03*
X-31732246Y21747236D03*
D13*
X-31232246Y18047236D03*
X-26232246Y15847236D03*
D12*
X172896706Y-19952764D03*
D11*
X167396706Y-19952764D03*
X178396706Y-19952764D03*
D13*
X167896706Y-23652764D03*
X172896706Y-25852764D03*
D11*
X-74732246Y-19552764D03*
X-85732246Y-19552764D03*
D12*
X-80232246Y-19552764D03*
D13*
X-85232246Y-23252764D03*
X-80232246Y-25452764D03*
D12*
X75496706Y-36152764D03*
D11*
X80259846Y-38902764D03*
X70733566Y-33402764D03*
D13*
X69316579Y-36857058D03*
X72546706Y-41262314D03*
D11*
X-74732246Y-2552764D03*
D12*
X-80232246Y-2552764D03*
D11*
X-85732246Y-2552764D03*
D13*
X-85232246Y-6252764D03*
X-80232246Y-8452764D03*
D11*
X77396706Y647236D03*
X88396706Y647236D03*
D12*
X82896706Y647236D03*
D13*
X77896706Y-3052764D03*
X82896706Y-5252764D03*
D12*
X100896706Y37047236D03*
D11*
X95396706Y37047236D03*
X106396706Y37047236D03*
D13*
X95896706Y33347236D03*
X100896706Y31147236D03*
D12*
X136896706Y20047236D03*
D11*
X142396706Y20047236D03*
X131396706Y20047236D03*
D13*
X131896706Y16347236D03*
X136896706Y14147236D03*
D12*
X9767754Y18047236D03*
D11*
X4267754Y18047236D03*
X15267754Y18047236D03*
D13*
X4767754Y14347236D03*
X9767754Y12147236D03*
D11*
X-13732246Y20447236D03*
D12*
X-8232246Y20447236D03*
D11*
X-2732246Y20447236D03*
D13*
X-13232246Y16747236D03*
X-8232246Y14547236D03*
D12*
X172896706Y14047236D03*
D11*
X167396706Y14047236D03*
X178396706Y14047236D03*
D13*
X167896706Y10347236D03*
X172896706Y8147236D03*
D12*
X-44232246Y3447236D03*
D11*
X-49732246Y3447236D03*
X-38732246Y3447236D03*
D13*
X-49232246Y-252764D03*
X-44232246Y-2452764D03*
D12*
X-80232246Y14447236D03*
D11*
X-85732246Y14447236D03*
X-74732246Y14447236D03*
D13*
X-85232246Y10747236D03*
X-80232246Y8547236D03*
D11*
X160396706Y32047236D03*
D12*
X154896706Y32047236D03*
D11*
X149396706Y32047236D03*
D13*
X149896706Y28347236D03*
X154896706Y26147236D03*
D11*
X-67732246Y15447236D03*
X-56732246Y15447236D03*
D12*
X-62232246Y15447236D03*
D13*
X-67232246Y11747236D03*
X-62232246Y9547236D03*
D12*
X172896706Y-2952764D03*
D11*
X178396706Y-2952764D03*
X167396706Y-2952764D03*
D13*
X167896706Y-6652764D03*
X172896706Y-8852764D03*
D12*
X82896706Y-16352764D03*
D11*
X88396706Y-16352764D03*
X77396706Y-16352764D03*
D13*
X77896706Y-20052764D03*
X82896706Y-22252764D03*
D11*
X113396706Y4347236D03*
X124396706Y4347236D03*
D12*
X118896706Y4347236D03*
D13*
X113896706Y647236D03*
X118896706Y-1552764D03*
D14*
X91796706Y27322236D03*
D11*
X-31732246Y-34252764D03*
X-20732246Y-34252764D03*
D12*
X-26232246Y-34252764D03*
D13*
X-31232246Y-37952764D03*
X-26232246Y-40152764D03*
D11*
X113396706Y-34652764D03*
X124396706Y-34652764D03*
D12*
X118896706Y-34652764D03*
D13*
X113896706Y-38352764D03*
X118896706Y-40552764D03*
D12*
X82896706Y17647236D03*
D11*
X88396706Y17647236D03*
X77396706Y17647236D03*
D13*
X77896706Y13947236D03*
X82896706Y11747236D03*
D14*
X35042754Y29847236D03*
D19*
X15030254Y11647236D03*
X16855254Y11647236D03*
D14*
X-71232246Y-10577764D03*
D20*
X42892754Y30747236D03*
X42892754Y27747236D03*
D21*
X40642754Y31497236D03*
X40642754Y28497236D03*
X40642754Y26997236D03*
D22*
X44042754Y25647236D03*
X41742754Y25647236D03*
X41742754Y32847236D03*
X44042754Y32847236D03*
D23*
X-45832246Y8197236D03*
X-42532246Y8197236D03*
X171196706Y1797236D03*
X174496706Y1797236D03*
D24*
X65421706Y37259736D03*
X65421706Y35434736D03*
D23*
X-45882246Y42197236D03*
X-42582246Y42197236D03*
X-9782246Y25247236D03*
X-6482246Y25247236D03*
D25*
X56221706Y17047236D03*
X54496706Y17047236D03*
D23*
X-9882246Y-8852764D03*
X-6582246Y-8852764D03*
X153246706Y2797236D03*
X156546706Y2797236D03*
D26*
X49921706Y19547236D03*
X49921706Y22947236D03*
D23*
X8117754Y39797236D03*
X11417754Y39797236D03*
D27*
X59621706Y20709736D03*
X59621706Y18984736D03*
D28*
X21842754Y22547236D03*
X23492754Y22547236D03*
D14*
X-71232246Y23622236D03*
D23*
X8117754Y-11202764D03*
X11417754Y-11202764D03*
X-27882246Y9497236D03*
X-24582246Y9497236D03*
D29*
X38217754Y18947236D03*
X36317754Y18947236D03*
X37267754Y20947236D03*
D30*
X69221706Y19697236D03*
X69221706Y18097236D03*
D31*
X73096706Y20697236D03*
X73096706Y17097236D03*
D23*
X-27882246Y43497236D03*
X-24582246Y43497236D03*
X-63882246Y37197236D03*
X-60582246Y37197236D03*
D30*
X23717754Y18447236D03*
X23717754Y20047236D03*
D31*
X19842754Y17447236D03*
X19842754Y21047236D03*
D23*
X117246706Y9097236D03*
X120546706Y9097236D03*
D24*
X52821706Y20459736D03*
X52821706Y18634736D03*
D20*
X49771706Y27347236D03*
X49771706Y30347236D03*
D21*
X52021706Y26597236D03*
X52021706Y29597236D03*
X52021706Y31097236D03*
D22*
X50921706Y32447236D03*
X48621706Y32447236D03*
X50921706Y25247236D03*
X48621706Y25247236D03*
D24*
X49396706Y37259736D03*
X49396706Y35434736D03*
D23*
X-81832246Y19197236D03*
X-78532246Y19197236D03*
D32*
X39842754Y19034736D03*
X39842754Y20859736D03*
D33*
X38667754Y36472236D03*
X32267754Y36472236D03*
X37867754Y36472236D03*
X33067754Y36472236D03*
D34*
X34217754Y36472236D03*
X35217754Y36472236D03*
X35717754Y36472236D03*
X36717754Y36472236D03*
X37217754Y36472236D03*
X36217754Y36472236D03*
X34717754Y36472236D03*
X33709754Y36472236D03*
D35*
X29892754Y41986336D03*
X41043054Y41071936D03*
X29892454Y41402136D03*
X41042754Y37753236D03*
X29892454Y37236536D03*
X41043054Y37236536D03*
X41042754Y37490536D03*
X29892154Y37490536D03*
X29892154Y37753236D03*
X41043354Y41999036D03*
X41043054Y41719636D03*
X41043054Y40779836D03*
X29892454Y40767136D03*
X29892454Y41706936D03*
X41042754Y36991236D03*
X41043054Y41414836D03*
X29892454Y41059236D03*
X29892154Y36991236D03*
D23*
X8117754Y5797236D03*
X11417754Y5797236D03*
D36*
X76495521Y-31277764D03*
X79353405Y-32927764D03*
D23*
X-28082246Y-7552764D03*
X-24782246Y-7552764D03*
X99246706Y-9252764D03*
X102546706Y-9252764D03*
X-10082246Y42147236D03*
X-6782246Y42147236D03*
X171246706Y-15202764D03*
X174546706Y-15202764D03*
X-10082246Y8247236D03*
X-6782246Y8247236D03*
X135196706Y24797236D03*
X138496706Y24797236D03*
X-63882246Y3197236D03*
X-60582246Y3197236D03*
D14*
X767754Y-6277764D03*
D37*
X35992754Y22947236D03*
X38492754Y22947236D03*
D14*
X20542754Y-21952764D03*
D38*
X53071706Y34447236D03*
X51246706Y34447236D03*
D23*
X117246706Y-29852764D03*
X120546706Y-29852764D03*
D24*
X27242754Y37659736D03*
X27242754Y35834736D03*
D37*
X56671706Y22547236D03*
X54171706Y22547236D03*
D39*
X65559206Y17347236D03*
X67284206Y17347236D03*
D23*
X153246706Y36797236D03*
X156546706Y36797236D03*
X-45832246Y-8802764D03*
X-42532246Y-8802764D03*
X153196706Y-14202764D03*
X156496706Y-14202764D03*
X171196706Y18797236D03*
X174496706Y18797236D03*
D40*
X61384206Y18897236D03*
X61384206Y19847236D03*
X61384206Y20797236D03*
X63659206Y20797236D03*
X63659206Y18897236D03*
D23*
X117246706Y26097236D03*
X120546706Y26097236D03*
D41*
X13311055Y-32527764D03*
X16168939Y-30877764D03*
D28*
X77082661Y22184736D03*
X78732661Y22184736D03*
D23*
X-63832246Y-13802764D03*
X-60532246Y-13802764D03*
D38*
X31067754Y35347236D03*
X29242754Y35347236D03*
D39*
X18505254Y22647236D03*
X20230254Y22647236D03*
D23*
X-45832246Y25197236D03*
X-42532246Y25197236D03*
X135196706Y-9202764D03*
X138496706Y-9202764D03*
D27*
X31467754Y25009736D03*
X31467754Y23284736D03*
D38*
X63434206Y17347236D03*
X61609206Y17347236D03*
D23*
X-27882246Y-29452764D03*
X-24582246Y-29452764D03*
D42*
X21267754Y-16202763D03*
X21267754Y-12902763D03*
D23*
X99446706Y41747236D03*
X102746706Y41747236D03*
D43*
X65421706Y21384736D03*
X66371706Y21384736D03*
X67321706Y21384736D03*
X67321706Y19109736D03*
X65421706Y19109736D03*
D23*
X117246706Y43097236D03*
X120546706Y43097236D03*
X135246706Y41797236D03*
X138546706Y41797236D03*
X81246706Y39397236D03*
X84546706Y39397236D03*
D44*
X33667754Y19384736D03*
X33667754Y21109736D03*
D23*
X-81832246Y2197236D03*
X-78532246Y2197236D03*
X99446706Y7847236D03*
X102746706Y7847236D03*
X117446706Y-7952764D03*
X120746706Y-7952764D03*
D45*
X24725799Y37877236D03*
X24725799Y36607236D03*
X24725799Y35337236D03*
X24725799Y34067236D03*
X24725799Y32797236D03*
X24725799Y31527236D03*
X24725799Y30257236D03*
X24725799Y28987236D03*
X24725799Y27717236D03*
X24725799Y26447236D03*
D46*
X23076799Y24228236D03*
X21806799Y24228236D03*
X20536799Y24228236D03*
X19266799Y24228236D03*
X17996799Y24228236D03*
X16726799Y24228236D03*
X15456799Y24228236D03*
X14186799Y24228236D03*
D45*
X12487799Y26447236D03*
X12487799Y27717236D03*
X14565799Y28479236D03*
X12487799Y28987236D03*
X14565799Y29749236D03*
X12487799Y30257236D03*
X12487799Y31527236D03*
X12487799Y32797236D03*
X12487799Y34067236D03*
X12487799Y35337236D03*
X12487799Y36607236D03*
X12487799Y37877236D03*
D26*
X42742754Y23347236D03*
X42742754Y19947236D03*
D19*
X75809206Y11247236D03*
X77634206Y11247236D03*
D23*
X171246706Y35797236D03*
X174546706Y35797236D03*
D33*
X53996706Y36072236D03*
X60396706Y36072236D03*
X59596706Y36072236D03*
X54796706Y36072236D03*
D34*
X55946706Y36072236D03*
X56946706Y36072236D03*
X57446706Y36072236D03*
X58446706Y36072236D03*
X58946706Y36072236D03*
X57946706Y36072236D03*
X56446706Y36072236D03*
X55438706Y36072236D03*
D35*
X51621106Y36591236D03*
X51621406Y40659236D03*
X62771706Y37353236D03*
X62772006Y36836536D03*
X51621406Y41002136D03*
X51621706Y41586336D03*
X62772006Y40671936D03*
X51621406Y36836536D03*
X62772006Y40379836D03*
X62772006Y41319636D03*
X51621106Y37353236D03*
X51621406Y41306936D03*
X51621106Y37090536D03*
X62771706Y37090536D03*
X62772306Y41599036D03*
X62771706Y36591236D03*
X62772006Y41014836D03*
X51621406Y40367136D03*
D40*
X29005254Y19297236D03*
X29005254Y20247236D03*
X29005254Y21197236D03*
X31280254Y21197236D03*
X31280254Y19297236D03*
D29*
X54446706Y20547236D03*
X56346706Y20547236D03*
X55396706Y18547236D03*
D23*
X8167754Y22797236D03*
X11467754Y22797236D03*
X135196706Y7797236D03*
X138496706Y7797236D03*
D38*
X16855254Y10047236D03*
X15030254Y10047236D03*
D42*
X71396706Y-16602763D03*
X71396706Y-13302763D03*
D23*
X81196706Y22397236D03*
X84496706Y22397236D03*
X99246706Y-31152764D03*
X102546706Y-31152764D03*
X81246706Y-11602764D03*
X84546706Y-11602764D03*
D17*
X73121706Y28147236D03*
D18*
X73121706Y30687236D03*
X73121706Y33227236D03*
X73121706Y35767236D03*
D14*
X867754Y27722236D03*
D19*
X39955254Y35347236D03*
X41780254Y35347236D03*
D23*
X153246706Y19797236D03*
X156546706Y19797236D03*
D47*
X29817754Y23147236D03*
X28867754Y23147236D03*
X27917754Y23147236D03*
X27917754Y25422236D03*
X29817754Y25422236D03*
D24*
X43267754Y37659736D03*
X43267754Y35834736D03*
D23*
X-81882246Y36197236D03*
X-78582246Y36197236D03*
D19*
X61909206Y34797236D03*
X63734206Y34797236D03*
D23*
X81246706Y5397236D03*
X84546706Y5397236D03*
D38*
X31055254Y17747236D03*
X29230254Y17747236D03*
D39*
X36442754Y17447236D03*
X38167754Y17447236D03*
D27*
X25105254Y24109736D03*
X25105254Y22384736D03*
D23*
X-9882246Y-30752764D03*
X-6582246Y-30752764D03*
D38*
X77634206Y9647236D03*
X75809206Y9647236D03*
D23*
X-63882246Y20197236D03*
X-60582246Y20197236D03*
X99146706Y24847236D03*
X102446706Y24847236D03*
X-81882246Y-14802764D03*
X-78582246Y-14802764D03*
D45*
X80176661Y37477236D03*
X80176661Y36207236D03*
X80176661Y34937236D03*
X80176661Y33667236D03*
X80176661Y32397236D03*
X80176661Y31127236D03*
X80176661Y29857236D03*
X80176661Y28587236D03*
X80176661Y27317236D03*
X80176661Y26047236D03*
D46*
X78527661Y23828236D03*
X77257661Y23828236D03*
X75987661Y23828236D03*
X74717661Y23828236D03*
X73447661Y23828236D03*
X72177661Y23828236D03*
X70907661Y23828236D03*
X69637661Y23828236D03*
D45*
X67938661Y26047236D03*
X67938661Y27317236D03*
X70016661Y28079236D03*
X67938661Y28587236D03*
X70016661Y29349236D03*
X67938661Y29857236D03*
X67938661Y31127236D03*
X67938661Y32397236D03*
X67938661Y33667236D03*
X67938661Y34937236D03*
X67938661Y36207236D03*
X67938661Y37477236D03*
D23*
X-27882246Y26497236D03*
X-24582246Y26497236D03*
M02*
