G04 #@! TF.GenerationSoftware,KiCad,Pcbnew,(5.99.0-8557-g8988e46ab1)*
G04 #@! TF.CreationDate,2021-01-24T12:11:51-07:00*
G04 #@! TF.ProjectId,BlueSofPanel,426c7565-536f-4665-9061-6e656c2e6b69,rev?*
G04 #@! TF.SameCoordinates,PX85099e0PY51bada0*
G04 #@! TF.FileFunction,Other,Comment*
%FSLAX46Y46*%
G04 Gerber Fmt 4.6, Leading zero omitted, Abs format (unit mm)*
G04 Created by KiCad (PCBNEW (5.99.0-8557-g8988e46ab1)) date 2021-01-24 12:11:51*
%MOMM*%
%LPD*%
G01*
G04 APERTURE LIST*
%ADD10C,0.250000*%
%ADD11C,0.150000*%
%ADD12C,0.100000*%
%ADD13C,0.300000*%
%ADD14C,0.120000*%
G04 APERTURE END LIST*
D10*
X46706608Y26832261D02*
X46754227Y26784642D01*
X46801846Y26641785D01*
X46801846Y26546547D01*
X46754227Y26403690D01*
X46658989Y26308451D01*
X46563751Y26260832D01*
X46373275Y26213213D01*
X46230418Y26213213D01*
X46039942Y26260832D01*
X45944704Y26308451D01*
X45849466Y26403690D01*
X45801846Y26546547D01*
X45801846Y26641785D01*
X45849466Y26784642D01*
X45897085Y26832261D01*
X45801846Y27260832D02*
X46611370Y27260832D01*
X46706608Y27308451D01*
X46754227Y27356070D01*
X46801846Y27451309D01*
X46801846Y27641785D01*
X46754227Y27737023D01*
X46706608Y27784642D01*
X46611370Y27832261D01*
X45801846Y27832261D01*
X45801846Y28165594D02*
X45801846Y28737023D01*
X46801846Y28451309D02*
X45801846Y28451309D01*
X45801846Y29260832D02*
X45801846Y29451309D01*
X45849466Y29546547D01*
X45944704Y29641785D01*
X46135180Y29689404D01*
X46468513Y29689404D01*
X46658989Y29641785D01*
X46754227Y29546547D01*
X46801846Y29451309D01*
X46801846Y29260832D01*
X46754227Y29165594D01*
X46658989Y29070356D01*
X46468513Y29022737D01*
X46135180Y29022737D01*
X45944704Y29070356D01*
X45849466Y29165594D01*
X45801846Y29260832D01*
X45801846Y30117975D02*
X46611370Y30117975D01*
X46706608Y30165594D01*
X46754227Y30213213D01*
X46801846Y30308451D01*
X46801846Y30498928D01*
X46754227Y30594166D01*
X46706608Y30641785D01*
X46611370Y30689404D01*
X45801846Y30689404D01*
X45801846Y31022737D02*
X45801846Y31594166D01*
X46801846Y31308451D02*
X45801846Y31308451D01*
X46706608Y11832261D02*
X46754227Y11784642D01*
X46801846Y11641785D01*
X46801846Y11546547D01*
X46754227Y11403690D01*
X46658989Y11308451D01*
X46563751Y11260832D01*
X46373275Y11213213D01*
X46230418Y11213213D01*
X46039942Y11260832D01*
X45944704Y11308451D01*
X45849466Y11403690D01*
X45801846Y11546547D01*
X45801846Y11641785D01*
X45849466Y11784642D01*
X45897085Y11832261D01*
X45801846Y12260832D02*
X46611370Y12260832D01*
X46706608Y12308451D01*
X46754227Y12356070D01*
X46801846Y12451309D01*
X46801846Y12641785D01*
X46754227Y12737023D01*
X46706608Y12784642D01*
X46611370Y12832261D01*
X45801846Y12832261D01*
X45801846Y13165594D02*
X45801846Y13737023D01*
X46801846Y13451309D02*
X45801846Y13451309D01*
X45801846Y14260832D02*
X45801846Y14451309D01*
X45849466Y14546547D01*
X45944704Y14641785D01*
X46135180Y14689404D01*
X46468513Y14689404D01*
X46658989Y14641785D01*
X46754227Y14546547D01*
X46801846Y14451309D01*
X46801846Y14260832D01*
X46754227Y14165594D01*
X46658989Y14070356D01*
X46468513Y14022737D01*
X46135180Y14022737D01*
X45944704Y14070356D01*
X45849466Y14165594D01*
X45801846Y14260832D01*
X45801846Y15117975D02*
X46611370Y15117975D01*
X46706608Y15165594D01*
X46754227Y15213213D01*
X46801846Y15308451D01*
X46801846Y15498928D01*
X46754227Y15594166D01*
X46706608Y15641785D01*
X46611370Y15689404D01*
X45801846Y15689404D01*
X45801846Y16022737D02*
X45801846Y16594166D01*
X46801846Y16308451D02*
X45801846Y16308451D01*
X46706608Y-667739D02*
X46754227Y-715358D01*
X46801846Y-858215D01*
X46801846Y-953453D01*
X46754227Y-1096310D01*
X46658989Y-1191549D01*
X46563751Y-1239168D01*
X46373275Y-1286787D01*
X46230418Y-1286787D01*
X46039942Y-1239168D01*
X45944704Y-1191549D01*
X45849466Y-1096310D01*
X45801846Y-953453D01*
X45801846Y-858215D01*
X45849466Y-715358D01*
X45897085Y-667739D01*
X45801846Y-239168D02*
X46611370Y-239168D01*
X46706608Y-191549D01*
X46754227Y-143930D01*
X46801846Y-48691D01*
X46801846Y141785D01*
X46754227Y237023D01*
X46706608Y284642D01*
X46611370Y332261D01*
X45801846Y332261D01*
X45801846Y665594D02*
X45801846Y1237023D01*
X46801846Y951309D02*
X45801846Y951309D01*
X45801846Y1760832D02*
X45801846Y1951309D01*
X45849466Y2046547D01*
X45944704Y2141785D01*
X46135180Y2189404D01*
X46468513Y2189404D01*
X46658989Y2141785D01*
X46754227Y2046547D01*
X46801846Y1951309D01*
X46801846Y1760832D01*
X46754227Y1665594D01*
X46658989Y1570356D01*
X46468513Y1522737D01*
X46135180Y1522737D01*
X45944704Y1570356D01*
X45849466Y1665594D01*
X45801846Y1760832D01*
X45801846Y2617975D02*
X46611370Y2617975D01*
X46706608Y2665594D01*
X46754227Y2713213D01*
X46801846Y2808451D01*
X46801846Y2998928D01*
X46754227Y3094166D01*
X46706608Y3141785D01*
X46611370Y3189404D01*
X45801846Y3189404D01*
X45801846Y3522737D02*
X45801846Y4094166D01*
X46801846Y3808451D02*
X45801846Y3808451D01*
X46689372Y-25667739D02*
X46736991Y-25715358D01*
X46784610Y-25858215D01*
X46784610Y-25953453D01*
X46736991Y-26096310D01*
X46641753Y-26191549D01*
X46546515Y-26239168D01*
X46356039Y-26286787D01*
X46213182Y-26286787D01*
X46022706Y-26239168D01*
X45927468Y-26191549D01*
X45832230Y-26096310D01*
X45784610Y-25953453D01*
X45784610Y-25858215D01*
X45832230Y-25715358D01*
X45879849Y-25667739D01*
X45784610Y-25239168D02*
X46594134Y-25239168D01*
X46689372Y-25191549D01*
X46736991Y-25143930D01*
X46784610Y-25048691D01*
X46784610Y-24858215D01*
X46736991Y-24762977D01*
X46689372Y-24715358D01*
X46594134Y-24667739D01*
X45784610Y-24667739D01*
X45784610Y-24334406D02*
X45784610Y-23762977D01*
X46784610Y-24048691D02*
X45784610Y-24048691D01*
X45784610Y-23239168D02*
X45784610Y-23048691D01*
X45832230Y-22953453D01*
X45927468Y-22858215D01*
X46117944Y-22810596D01*
X46451277Y-22810596D01*
X46641753Y-22858215D01*
X46736991Y-22953453D01*
X46784610Y-23048691D01*
X46784610Y-23239168D01*
X46736991Y-23334406D01*
X46641753Y-23429644D01*
X46451277Y-23477263D01*
X46117944Y-23477263D01*
X45927468Y-23429644D01*
X45832230Y-23334406D01*
X45784610Y-23239168D01*
X45784610Y-22382025D02*
X46594134Y-22382025D01*
X46689372Y-22334406D01*
X46736991Y-22286787D01*
X46784610Y-22191549D01*
X46784610Y-22001072D01*
X46736991Y-21905834D01*
X46689372Y-21858215D01*
X46594134Y-21810596D01*
X45784610Y-21810596D01*
X45784610Y-21477263D02*
X45784610Y-20905834D01*
X46784610Y-21191549D02*
X45784610Y-21191549D01*
X46706608Y-13167739D02*
X46754227Y-13215358D01*
X46801846Y-13358215D01*
X46801846Y-13453453D01*
X46754227Y-13596310D01*
X46658989Y-13691549D01*
X46563751Y-13739168D01*
X46373275Y-13786787D01*
X46230418Y-13786787D01*
X46039942Y-13739168D01*
X45944704Y-13691549D01*
X45849466Y-13596310D01*
X45801846Y-13453453D01*
X45801846Y-13358215D01*
X45849466Y-13215358D01*
X45897085Y-13167739D01*
X45801846Y-12739168D02*
X46611370Y-12739168D01*
X46706608Y-12691549D01*
X46754227Y-12643930D01*
X46801846Y-12548691D01*
X46801846Y-12358215D01*
X46754227Y-12262977D01*
X46706608Y-12215358D01*
X46611370Y-12167739D01*
X45801846Y-12167739D01*
X45801846Y-11834406D02*
X45801846Y-11262977D01*
X46801846Y-11548691D02*
X45801846Y-11548691D01*
X45801846Y-10739168D02*
X45801846Y-10548691D01*
X45849466Y-10453453D01*
X45944704Y-10358215D01*
X46135180Y-10310596D01*
X46468513Y-10310596D01*
X46658989Y-10358215D01*
X46754227Y-10453453D01*
X46801846Y-10548691D01*
X46801846Y-10739168D01*
X46754227Y-10834406D01*
X46658989Y-10929644D01*
X46468513Y-10977263D01*
X46135180Y-10977263D01*
X45944704Y-10929644D01*
X45849466Y-10834406D01*
X45801846Y-10739168D01*
X45801846Y-9882025D02*
X46611370Y-9882025D01*
X46706608Y-9834406D01*
X46754227Y-9786787D01*
X46801846Y-9691549D01*
X46801846Y-9501072D01*
X46754227Y-9405834D01*
X46706608Y-9358215D01*
X46611370Y-9310596D01*
X45801846Y-9310596D01*
X45801846Y-8977263D02*
X45801846Y-8405834D01*
X46801846Y-8691549D02*
X45801846Y-8691549D01*
D11*
X45099466Y-26143930D02*
X45082230Y-20329851D01*
X47582230Y-20329851D02*
X47599466Y-26143930D01*
X45099466Y-13643930D02*
X45082230Y-7829851D01*
X47582230Y-7829851D02*
X47599466Y-13643930D01*
X45099466Y-1143930D02*
X45082230Y4670149D01*
X47582230Y4670149D02*
X47599466Y-1143930D01*
X45099466Y11356070D02*
X45082230Y17170149D01*
X47582230Y17170149D02*
X47599466Y11356070D01*
X47599466Y23856070D02*
X47582230Y32570149D01*
X45082230Y32570149D02*
X45099466Y23856070D01*
D12*
X156838279Y-49430213D02*
X156689159Y-49440213D01*
X-64173819Y-49030213D02*
X-64024699Y-49040213D01*
D11*
X74296706Y15997236D02*
X49796706Y15997236D01*
X49796706Y15997236D02*
X49796706Y-4002764D01*
X49796706Y-4002764D02*
X74296706Y-4002764D01*
X74296706Y-4002764D02*
X74296706Y15997236D01*
X18367754Y16397236D02*
X42867754Y16397236D01*
X42867754Y16397236D02*
X42867754Y-3602764D01*
X42867754Y-3602764D02*
X18367754Y-3602764D01*
X18367754Y-3602764D02*
X18367754Y16397236D01*
D13*
X54060991Y38861522D02*
X53989563Y38790094D01*
X53775277Y38718665D01*
X53632420Y38718665D01*
X53418134Y38790094D01*
X53275277Y38932951D01*
X53203848Y39075808D01*
X53132420Y39361522D01*
X53132420Y39575808D01*
X53203848Y39861522D01*
X53275277Y40004379D01*
X53418134Y40147236D01*
X53632420Y40218665D01*
X53775277Y40218665D01*
X53989563Y40147236D01*
X54060991Y40075808D01*
X54703848Y40218665D02*
X54703848Y39004379D01*
X54775277Y38861522D01*
X54846706Y38790094D01*
X54989563Y38718665D01*
X55275277Y38718665D01*
X55418134Y38790094D01*
X55489563Y38861522D01*
X55560991Y39004379D01*
X55560991Y40218665D01*
X56060991Y40218665D02*
X56918134Y40218665D01*
X56489563Y38718665D02*
X56489563Y40218665D01*
X57703848Y40218665D02*
X57989563Y40218665D01*
X58132420Y40147236D01*
X58275277Y40004379D01*
X58346706Y39718665D01*
X58346706Y39218665D01*
X58275277Y38932951D01*
X58132420Y38790094D01*
X57989563Y38718665D01*
X57703848Y38718665D01*
X57560991Y38790094D01*
X57418134Y38932951D01*
X57346706Y39218665D01*
X57346706Y39718665D01*
X57418134Y40004379D01*
X57560991Y40147236D01*
X57703848Y40218665D01*
X58989563Y40218665D02*
X58989563Y39004379D01*
X59060991Y38861522D01*
X59132420Y38790094D01*
X59275277Y38718665D01*
X59560991Y38718665D01*
X59703848Y38790094D01*
X59775277Y38861522D01*
X59846706Y39004379D01*
X59846706Y40218665D01*
X60346706Y40218665D02*
X61203848Y40218665D01*
X60775277Y38718665D02*
X60775277Y40218665D01*
X56960991Y12811522D02*
X56889563Y12740094D01*
X56675277Y12668665D01*
X56532420Y12668665D01*
X56318134Y12740094D01*
X56175277Y12882951D01*
X56103848Y13025808D01*
X56032420Y13311522D01*
X56032420Y13525808D01*
X56103848Y13811522D01*
X56175277Y13954379D01*
X56318134Y14097236D01*
X56532420Y14168665D01*
X56675277Y14168665D01*
X56889563Y14097236D01*
X56960991Y14025808D01*
X57603848Y14168665D02*
X57603848Y12954379D01*
X57675277Y12811522D01*
X57746706Y12740094D01*
X57889563Y12668665D01*
X58175277Y12668665D01*
X58318134Y12740094D01*
X58389563Y12811522D01*
X58460991Y12954379D01*
X58460991Y14168665D01*
X58960991Y14168665D02*
X59818134Y14168665D01*
X59389563Y12668665D02*
X59389563Y14168665D01*
X60603848Y14168665D02*
X60889563Y14168665D01*
X61032420Y14097236D01*
X61175277Y13954379D01*
X61246706Y13668665D01*
X61246706Y13168665D01*
X61175277Y12882951D01*
X61032420Y12740094D01*
X60889563Y12668665D01*
X60603848Y12668665D01*
X60460991Y12740094D01*
X60318134Y12882951D01*
X60246706Y13168665D01*
X60246706Y13668665D01*
X60318134Y13954379D01*
X60460991Y14097236D01*
X60603848Y14168665D01*
X61889563Y14168665D02*
X61889563Y12954379D01*
X61960991Y12811522D01*
X62032420Y12740094D01*
X62175277Y12668665D01*
X62460991Y12668665D01*
X62603848Y12740094D01*
X62675277Y12811522D01*
X62746706Y12954379D01*
X62746706Y14168665D01*
X63246706Y14168665D02*
X64103848Y14168665D01*
X63675277Y12668665D02*
X63675277Y14168665D01*
X35703468Y13211522D02*
X35774896Y13140094D01*
X35989182Y13068665D01*
X36132039Y13068665D01*
X36346325Y13140094D01*
X36489182Y13282951D01*
X36560611Y13425808D01*
X36632039Y13711522D01*
X36632039Y13925808D01*
X36560611Y14211522D01*
X36489182Y14354379D01*
X36346325Y14497236D01*
X36132039Y14568665D01*
X35989182Y14568665D01*
X35774896Y14497236D01*
X35703468Y14425808D01*
X35060611Y14568665D02*
X35060611Y13354379D01*
X34989182Y13211522D01*
X34917754Y13140094D01*
X34774896Y13068665D01*
X34489182Y13068665D01*
X34346325Y13140094D01*
X34274896Y13211522D01*
X34203468Y13354379D01*
X34203468Y14568665D01*
X33703468Y14568665D02*
X32846325Y14568665D01*
X33274896Y13068665D02*
X33274896Y14568665D01*
X32060611Y14568665D02*
X31774896Y14568665D01*
X31632039Y14497236D01*
X31489182Y14354379D01*
X31417754Y14068665D01*
X31417754Y13568665D01*
X31489182Y13282951D01*
X31632039Y13140094D01*
X31774896Y13068665D01*
X32060611Y13068665D01*
X32203468Y13140094D01*
X32346325Y13282951D01*
X32417754Y13568665D01*
X32417754Y14068665D01*
X32346325Y14354379D01*
X32203468Y14497236D01*
X32060611Y14568665D01*
X30774896Y14568665D02*
X30774896Y13354379D01*
X30703468Y13211522D01*
X30632039Y13140094D01*
X30489182Y13068665D01*
X30203468Y13068665D01*
X30060611Y13140094D01*
X29989182Y13211522D01*
X29917754Y13354379D01*
X29917754Y14568665D01*
X29417754Y14568665D02*
X28560611Y14568665D01*
X28989182Y13068665D02*
X28989182Y14568665D01*
D11*
X42728468Y25528189D02*
X43537992Y25528189D01*
X43633230Y25480570D01*
X43680849Y25432951D01*
X43728468Y25337713D01*
X43728468Y25194856D01*
X43680849Y25099617D01*
X43347515Y25528189D02*
X43395134Y25432951D01*
X43395134Y25242475D01*
X43347515Y25147236D01*
X43299896Y25099617D01*
X43204658Y25051998D01*
X42918944Y25051998D01*
X42823706Y25099617D01*
X42776087Y25147236D01*
X42728468Y25242475D01*
X42728468Y25432951D01*
X42776087Y25528189D01*
X42728468Y26432951D02*
X43537992Y26432951D01*
X43633230Y26385332D01*
X43680849Y26337713D01*
X43728468Y26242475D01*
X43728468Y26099617D01*
X43680849Y26004379D01*
X43347515Y26432951D02*
X43395134Y26337713D01*
X43395134Y26147236D01*
X43347515Y26051998D01*
X43299896Y26004379D01*
X43204658Y25956760D01*
X42918944Y25956760D01*
X42823706Y26004379D01*
X42776087Y26051998D01*
X42728468Y26147236D01*
X42728468Y26337713D01*
X42776087Y26432951D01*
X43347515Y27290094D02*
X43395134Y27194856D01*
X43395134Y27004379D01*
X43347515Y26909141D01*
X43252277Y26861522D01*
X42871325Y26861522D01*
X42776087Y26909141D01*
X42728468Y27004379D01*
X42728468Y27194856D01*
X42776087Y27290094D01*
X42871325Y27337713D01*
X42966563Y27337713D01*
X43061801Y26861522D01*
X42395134Y27671046D02*
X42395134Y28337713D01*
X43395134Y27909141D01*
X42395134Y28909141D02*
X42395134Y29004379D01*
X42442754Y29099617D01*
X42490373Y29147236D01*
X42585611Y29194856D01*
X42776087Y29242475D01*
X43014182Y29242475D01*
X43204658Y29194856D01*
X43299896Y29147236D01*
X43347515Y29099617D01*
X43395134Y29004379D01*
X43395134Y28909141D01*
X43347515Y28813903D01*
X43299896Y28766284D01*
X43204658Y28718665D01*
X43014182Y28671046D01*
X42776087Y28671046D01*
X42585611Y28718665D01*
X42490373Y28766284D01*
X42442754Y28813903D01*
X42395134Y28909141D01*
X49507420Y29328189D02*
X50316944Y29328189D01*
X50412182Y29280570D01*
X50459801Y29232951D01*
X50507420Y29137713D01*
X50507420Y28994856D01*
X50459801Y28899617D01*
X50126467Y29328189D02*
X50174086Y29232951D01*
X50174086Y29042475D01*
X50126467Y28947236D01*
X50078848Y28899617D01*
X49983610Y28851998D01*
X49697896Y28851998D01*
X49602658Y28899617D01*
X49555039Y28947236D01*
X49507420Y29042475D01*
X49507420Y29232951D01*
X49555039Y29328189D01*
X49507420Y30232951D02*
X50316944Y30232951D01*
X50412182Y30185332D01*
X50459801Y30137713D01*
X50507420Y30042475D01*
X50507420Y29899617D01*
X50459801Y29804379D01*
X50126467Y30232951D02*
X50174086Y30137713D01*
X50174086Y29947236D01*
X50126467Y29851998D01*
X50078848Y29804379D01*
X49983610Y29756760D01*
X49697896Y29756760D01*
X49602658Y29804379D01*
X49555039Y29851998D01*
X49507420Y29947236D01*
X49507420Y30137713D01*
X49555039Y30232951D01*
X50126467Y31090094D02*
X50174086Y30994856D01*
X50174086Y30804379D01*
X50126467Y30709141D01*
X50031229Y30661522D01*
X49650277Y30661522D01*
X49555039Y30709141D01*
X49507420Y30804379D01*
X49507420Y30994856D01*
X49555039Y31090094D01*
X49650277Y31137713D01*
X49745515Y31137713D01*
X49840753Y30661522D01*
X49174086Y31471046D02*
X49174086Y32137713D01*
X50174086Y31709141D01*
X49174086Y32709141D02*
X49174086Y32804379D01*
X49221706Y32899617D01*
X49269325Y32947236D01*
X49364563Y32994856D01*
X49555039Y33042475D01*
X49793134Y33042475D01*
X49983610Y32994856D01*
X50078848Y32947236D01*
X50126467Y32899617D01*
X50174086Y32804379D01*
X50174086Y32709141D01*
X50126467Y32613903D01*
X50078848Y32566284D01*
X49983610Y32518665D01*
X49793134Y32471046D01*
X49555039Y32471046D01*
X49364563Y32518665D01*
X49269325Y32566284D01*
X49221706Y32613903D01*
X49174086Y32709141D01*
D14*
X45082230Y-32829851D02*
G75*
G02*
X47582230Y-32829851I1250000J0D01*
G01*
X47599466Y-26143930D02*
G75*
G02*
X45099466Y-26143930I-1250000J0D01*
G01*
X45082230Y32570149D02*
G75*
G02*
X47582230Y32570149I1250000J0D01*
G01*
X47599466Y39256070D02*
G75*
G02*
X45099466Y39256070I-1250000J0D01*
G01*
X45082230Y17170149D02*
G75*
G02*
X47582230Y17170149I1250000J0D01*
G01*
X47599466Y23856070D02*
G75*
G02*
X45099466Y23856070I-1250000J0D01*
G01*
X45082230Y4670149D02*
G75*
G02*
X47582230Y4670149I1250000J0D01*
G01*
X47599466Y11356070D02*
G75*
G02*
X45099466Y11356070I-1250000J0D01*
G01*
X45082230Y-7829851D02*
G75*
G02*
X47582230Y-7829851I1250000J0D01*
G01*
X47599466Y-1143930D02*
G75*
G02*
X45099466Y-1143930I-1250000J0D01*
G01*
X45082230Y-20329851D02*
G75*
G02*
X47582230Y-20329851I1250000J0D01*
G01*
X47599466Y-13643930D02*
G75*
G02*
X45099466Y-13643930I-1250000J0D01*
G01*
D11*
X168196706Y23222236D02*
G75*
G03*
X168196706Y23222236I-4300000J0D01*
G01*
X96196706Y-6677764D02*
G75*
G03*
X96196706Y-6677764I-4300000J0D01*
G01*
X61921706Y29447236D02*
G75*
G03*
X61921706Y29447236I-4300000J0D01*
G01*
X76421706Y-22352764D02*
G75*
G03*
X76421706Y-22352764I-4300000J0D01*
G01*
X168196706Y-10977764D02*
G75*
G03*
X168196706Y-10977764I-4300000J0D01*
G01*
X96096706Y27322236D02*
G75*
G03*
X96096706Y27322236I-4300000J0D01*
G01*
X39342754Y29847236D02*
G75*
G03*
X39342754Y29847236I-4300000J0D01*
G01*
X-66932246Y-10577764D02*
G75*
G03*
X-66932246Y-10577764I-4300000J0D01*
G01*
X-66932246Y23622236D02*
G75*
G03*
X-66932246Y23622236I-4300000J0D01*
G01*
X5067754Y-6277764D02*
G75*
G03*
X5067754Y-6277764I-4300000J0D01*
G01*
X24842754Y-21952764D02*
G75*
G03*
X24842754Y-21952764I-4300000J0D01*
G01*
X5167754Y27722236D02*
G75*
G03*
X5167754Y27722236I-4300000J0D01*
G01*
M02*
