G04 #@! TF.GenerationSoftware,KiCad,Pcbnew,(5.99.0-7554-g937713dbbc)*
G04 #@! TF.CreationDate,2021-01-23T12:32:44-07:00*
G04 #@! TF.ProjectId,BlueSof,426c7565-536f-4662-9e6b-696361645f70,rev?*
G04 #@! TF.SameCoordinates,PX85099e0PY51bada0*
G04 #@! TF.FileFunction,Legend,Bot*
G04 #@! TF.FilePolarity,Positive*
%FSLAX46Y46*%
G04 Gerber Fmt 4.6, Leading zero omitted, Abs format (unit mm)*
G04 Created by KiCad (PCBNEW (5.99.0-7554-g937713dbbc)) date 2021-01-23 12:32:44*
%MOMM*%
%LPD*%
G01*
G04 APERTURE LIST*
%ADD10C,0.200000*%
%ADD11C,0.150000*%
%ADD12C,0.015000*%
%ADD13C,0.152000*%
%ADD14C,0.254000*%
%ADD15C,0.120000*%
G04 APERTURE END LIST*
D10*
X69698394Y37263195D02*
X69534992Y37236042D01*
X69475062Y37192500D01*
X69406937Y37097222D01*
X69382355Y36942014D01*
X69417702Y36830347D01*
X69461244Y36770417D01*
X69556522Y36702293D01*
X69970411Y36636739D01*
X70142489Y37723197D01*
X69780336Y37780556D01*
X69668670Y37745208D01*
X69608740Y37701666D01*
X69540615Y37606388D01*
X69524227Y37502916D01*
X69559575Y37391250D01*
X69603116Y37331320D01*
X69698394Y37263195D01*
X70060547Y37205836D01*
X68728745Y36833400D02*
X68840412Y36868747D01*
X68908536Y36964025D01*
X69056031Y37895274D01*
X67963951Y37697006D02*
X67849232Y36972701D01*
X68429576Y37623258D02*
X68339439Y37054161D01*
X68271315Y36958884D01*
X68159649Y36923536D01*
X68004441Y36948118D01*
X67909163Y37016243D01*
X67865621Y37076173D01*
X66926178Y37171932D02*
X67021456Y37103808D01*
X67228400Y37071031D01*
X67340066Y37106379D01*
X67408190Y37201657D01*
X67473744Y37615545D01*
X67438396Y37727212D01*
X67343118Y37795336D01*
X67136174Y37828113D01*
X67024508Y37792765D01*
X66956383Y37697487D01*
X66939995Y37594015D01*
X67440967Y37408601D01*
X66460553Y37245680D02*
X66297151Y37218527D01*
X66038470Y37259497D01*
X65943193Y37327622D01*
X65899651Y37387552D01*
X65864303Y37499218D01*
X65880691Y37602691D01*
X65948816Y37697968D01*
X66008746Y37741510D01*
X66120412Y37776858D01*
X66335551Y37795817D01*
X66447217Y37831165D01*
X66507147Y37874707D01*
X66575272Y37969985D01*
X66591660Y38073457D01*
X66556312Y38185123D01*
X66512771Y38245053D01*
X66417493Y38313178D01*
X66158812Y38354149D01*
X65995410Y38326995D01*
X65210694Y37390604D02*
X65322360Y37425952D01*
X65382290Y37469494D01*
X65450415Y37564772D01*
X65499580Y37875188D01*
X65464232Y37986855D01*
X65420690Y38046785D01*
X65325412Y38114909D01*
X65170204Y38139492D01*
X65058538Y38104144D01*
X64998607Y38060602D01*
X64930483Y37965324D01*
X64881318Y37654908D01*
X64916666Y37543242D01*
X64960207Y37483311D01*
X65055485Y37415187D01*
X65210694Y37390604D01*
X64652843Y38221434D02*
X64238955Y38286987D01*
X64382917Y37521711D02*
X64530412Y38452960D01*
X64495064Y38564627D01*
X64399786Y38632751D01*
X64296314Y38649140D01*
X63152498Y38459065D02*
X62779099Y37775731D01*
X62635137Y38541007D01*
X61537434Y37972392D02*
X62158266Y37874061D01*
X61847850Y37923227D02*
X62019928Y39009684D01*
X62098817Y38838087D01*
X62185901Y38718227D01*
X62281179Y38650102D01*
X60244032Y38177246D02*
X60416110Y39263704D01*
X60350557Y38849815D02*
X60255279Y38917940D01*
X60048334Y38950716D01*
X59936668Y38915369D01*
X59876738Y38871827D01*
X59808614Y38776549D01*
X59759448Y38466132D01*
X59794796Y38354466D01*
X59838338Y38294536D01*
X59933616Y38226411D01*
X60140560Y38193635D01*
X60252226Y38228982D01*
X59479238Y39040852D02*
X59105839Y38357518D01*
X58961877Y39122794D02*
X59105839Y38357518D01*
X59168340Y38082450D01*
X59211882Y38022520D01*
X59307160Y37954395D01*
X57695629Y39164246D02*
X57333477Y39221606D01*
X57088133Y38677092D02*
X57605493Y38595150D01*
X57777571Y39681607D01*
X57260211Y39763549D01*
X56001676Y38849170D02*
X56445770Y39309171D01*
X56622508Y38750839D02*
X56794586Y39837297D01*
X56380698Y39902850D01*
X56269031Y39867502D01*
X56209101Y39823961D01*
X56140977Y39728683D01*
X56116394Y39573474D01*
X56151742Y39461808D01*
X56195284Y39401878D01*
X56290562Y39333753D01*
X56704450Y39268200D01*
X55018691Y39004859D02*
X55536051Y38922917D01*
X55708129Y40009374D01*
D11*
X-32285715Y20892858D02*
X-32285715Y18607143D01*
X-31142858Y19750000D02*
X-33428572Y19750000D01*
X-29392858Y19714286D02*
X-27107143Y19714286D01*
D12*
X-28816612Y16658014D02*
X-28816612Y15941956D01*
X-28768875Y15798745D01*
X-28673401Y15703271D01*
X-28530189Y15655534D01*
X-28434715Y15655534D01*
X-29819092Y15655534D02*
X-29246246Y15655534D01*
X-29532669Y15655534D02*
X-29532669Y16658014D01*
X-29437195Y16514802D01*
X-29341721Y16419328D01*
X-29246246Y16371591D01*
X-30200989Y16562539D02*
X-30248726Y16610276D01*
X-30344201Y16658014D01*
X-30582886Y16658014D01*
X-30678361Y16610276D01*
X-30726098Y16562539D01*
X-30773835Y16467065D01*
X-30773835Y16371591D01*
X-30726098Y16228379D01*
X-30153252Y15655534D01*
X-30773835Y15655534D01*
D11*
X-24008333Y4647620D02*
X-23674999Y5123810D01*
X-23436904Y4647620D02*
X-23436904Y5647620D01*
X-23817857Y5647620D01*
X-23913095Y5600000D01*
X-23960714Y5552381D01*
X-24008333Y5457143D01*
X-24008333Y5314286D01*
X-23960714Y5219048D01*
X-23913095Y5171429D01*
X-23817857Y5123810D01*
X-23436904Y5123810D01*
X-24913095Y5647620D02*
X-24436904Y5647620D01*
X-24389285Y5171429D01*
X-24436904Y5219048D01*
X-24532142Y5266667D01*
X-24770238Y5266667D01*
X-24865476Y5219048D01*
X-24913095Y5171429D01*
X-24960714Y5076191D01*
X-24960714Y4838096D01*
X-24913095Y4742858D01*
X-24865476Y4695239D01*
X-24770238Y4647620D01*
X-24532142Y4647620D01*
X-24436904Y4695239D01*
X-24389285Y4742858D01*
X938095Y36247620D02*
X938095Y37247620D01*
X700000Y37247620D01*
X557142Y37200000D01*
X461904Y37104762D01*
X414285Y37009524D01*
X366666Y36819048D01*
X366666Y36676191D01*
X414285Y36485715D01*
X461904Y36390477D01*
X557142Y36295239D01*
X700000Y36247620D01*
X938095Y36247620D01*
X-14286Y37152381D02*
X-61905Y37200000D01*
X-157143Y37247620D01*
X-395239Y37247620D01*
X-490477Y37200000D01*
X-538096Y37152381D01*
X-585715Y37057143D01*
X-585715Y36961905D01*
X-538096Y36819048D01*
X33333Y36247620D01*
X-585715Y36247620D01*
X18738095Y37597620D02*
X18738095Y38597620D01*
X18500000Y38597620D01*
X18357142Y38550000D01*
X18261904Y38454762D01*
X18214285Y38359524D01*
X18166666Y38169048D01*
X18166666Y38026191D01*
X18214285Y37835715D01*
X18261904Y37740477D01*
X18357142Y37645239D01*
X18500000Y37597620D01*
X18738095Y37597620D01*
X17833333Y38597620D02*
X17214285Y38597620D01*
X17547619Y38216667D01*
X17404761Y38216667D01*
X17309523Y38169048D01*
X17261904Y38121429D01*
X17214285Y38026191D01*
X17214285Y37788096D01*
X17261904Y37692858D01*
X17309523Y37645239D01*
X17404761Y37597620D01*
X17690476Y37597620D01*
X17785714Y37645239D01*
X17833333Y37692858D01*
X36738095Y36297620D02*
X36738095Y37297620D01*
X36500000Y37297620D01*
X36357142Y37250000D01*
X36261904Y37154762D01*
X36214285Y37059524D01*
X36166666Y36869048D01*
X36166666Y36726191D01*
X36214285Y36535715D01*
X36261904Y36440477D01*
X36357142Y36345239D01*
X36500000Y36297620D01*
X36738095Y36297620D01*
X35309523Y36964286D02*
X35309523Y36297620D01*
X35547619Y37345239D02*
X35785714Y36630953D01*
X35166666Y36630953D01*
X54738095Y31297620D02*
X54738095Y32297620D01*
X54500000Y32297620D01*
X54357142Y32250000D01*
X54261904Y32154762D01*
X54214285Y32059524D01*
X54166666Y31869048D01*
X54166666Y31726191D01*
X54214285Y31535715D01*
X54261904Y31440477D01*
X54357142Y31345239D01*
X54500000Y31297620D01*
X54738095Y31297620D01*
X53261904Y32297620D02*
X53738095Y32297620D01*
X53785714Y31821429D01*
X53738095Y31869048D01*
X53642857Y31916667D01*
X53404761Y31916667D01*
X53309523Y31869048D01*
X53261904Y31821429D01*
X53214285Y31726191D01*
X53214285Y31488096D01*
X53261904Y31392858D01*
X53309523Y31345239D01*
X53404761Y31297620D01*
X53642857Y31297620D01*
X53738095Y31345239D01*
X53785714Y31392858D01*
X72738095Y30297620D02*
X72738095Y31297620D01*
X72500000Y31297620D01*
X72357142Y31250000D01*
X72261904Y31154762D01*
X72214285Y31059524D01*
X72166666Y30869048D01*
X72166666Y30726191D01*
X72214285Y30535715D01*
X72261904Y30440477D01*
X72357142Y30345239D01*
X72500000Y30297620D01*
X72738095Y30297620D01*
X71309523Y31297620D02*
X71500000Y31297620D01*
X71595238Y31250000D01*
X71642857Y31202381D01*
X71738095Y31059524D01*
X71785714Y30869048D01*
X71785714Y30488096D01*
X71738095Y30392858D01*
X71690476Y30345239D01*
X71595238Y30297620D01*
X71404761Y30297620D01*
X71309523Y30345239D01*
X71261904Y30392858D01*
X71214285Y30488096D01*
X71214285Y30726191D01*
X71261904Y30821429D01*
X71309523Y30869048D01*
X71404761Y30916667D01*
X71595238Y30916667D01*
X71690476Y30869048D01*
X71738095Y30821429D01*
X71785714Y30726191D01*
X-17311905Y16897620D02*
X-17311905Y17897620D01*
X-17550000Y17897620D01*
X-17692858Y17850000D01*
X-17788096Y17754762D01*
X-17835715Y17659524D01*
X-17883334Y17469048D01*
X-17883334Y17326191D01*
X-17835715Y17135715D01*
X-17788096Y17040477D01*
X-17692858Y16945239D01*
X-17550000Y16897620D01*
X-17311905Y16897620D01*
X-18216667Y17897620D02*
X-18883334Y17897620D01*
X-18454762Y16897620D01*
X638095Y19347620D02*
X638095Y20347620D01*
X400000Y20347620D01*
X257142Y20300000D01*
X161904Y20204762D01*
X114285Y20109524D01*
X66666Y19919048D01*
X66666Y19776191D01*
X114285Y19585715D01*
X161904Y19490477D01*
X257142Y19395239D01*
X400000Y19347620D01*
X638095Y19347620D01*
X-504762Y19919048D02*
X-409524Y19966667D01*
X-361905Y20014286D01*
X-314286Y20109524D01*
X-314286Y20157143D01*
X-361905Y20252381D01*
X-409524Y20300000D01*
X-504762Y20347620D01*
X-695239Y20347620D01*
X-790477Y20300000D01*
X-838096Y20252381D01*
X-885715Y20157143D01*
X-885715Y20109524D01*
X-838096Y20014286D01*
X-790477Y19966667D01*
X-695239Y19919048D01*
X-504762Y19919048D01*
X-409524Y19871429D01*
X-361905Y19823810D01*
X-314286Y19728572D01*
X-314286Y19538096D01*
X-361905Y19442858D01*
X-409524Y19395239D01*
X-504762Y19347620D01*
X-695239Y19347620D01*
X-790477Y19395239D01*
X-838096Y19442858D01*
X-885715Y19538096D01*
X-885715Y19728572D01*
X-838096Y19823810D01*
X-790477Y19871429D01*
X-695239Y19919048D01*
X18738095Y20597620D02*
X18738095Y21597620D01*
X18500000Y21597620D01*
X18357142Y21550000D01*
X18261904Y21454762D01*
X18214285Y21359524D01*
X18166666Y21169048D01*
X18166666Y21026191D01*
X18214285Y20835715D01*
X18261904Y20740477D01*
X18357142Y20645239D01*
X18500000Y20597620D01*
X18738095Y20597620D01*
X17690476Y20597620D02*
X17500000Y20597620D01*
X17404761Y20645239D01*
X17357142Y20692858D01*
X17261904Y20835715D01*
X17214285Y21026191D01*
X17214285Y21407143D01*
X17261904Y21502381D01*
X17309523Y21550000D01*
X17404761Y21597620D01*
X17595238Y21597620D01*
X17690476Y21550000D01*
X17738095Y21502381D01*
X17785714Y21407143D01*
X17785714Y21169048D01*
X17738095Y21073810D01*
X17690476Y21026191D01*
X17595238Y20978572D01*
X17404761Y20978572D01*
X17309523Y21026191D01*
X17261904Y21073810D01*
X17214285Y21169048D01*
X37164285Y19297620D02*
X37164285Y20297620D01*
X36926190Y20297620D01*
X36783333Y20250000D01*
X36688095Y20154762D01*
X36640476Y20059524D01*
X36592857Y19869048D01*
X36592857Y19726191D01*
X36640476Y19535715D01*
X36688095Y19440477D01*
X36783333Y19345239D01*
X36926190Y19297620D01*
X37164285Y19297620D01*
X35640476Y19297620D02*
X36211904Y19297620D01*
X35926190Y19297620D02*
X35926190Y20297620D01*
X36021428Y20154762D01*
X36116666Y20059524D01*
X36211904Y20011905D01*
X35021428Y20297620D02*
X34926190Y20297620D01*
X34830952Y20250000D01*
X34783333Y20202381D01*
X34735714Y20107143D01*
X34688095Y19916667D01*
X34688095Y19678572D01*
X34735714Y19488096D01*
X34783333Y19392858D01*
X34830952Y19345239D01*
X34926190Y19297620D01*
X35021428Y19297620D01*
X35116666Y19345239D01*
X35164285Y19392858D01*
X35211904Y19488096D01*
X35259523Y19678572D01*
X35259523Y19916667D01*
X35211904Y20107143D01*
X35164285Y20202381D01*
X35116666Y20250000D01*
X35021428Y20297620D01*
X55214285Y14297620D02*
X55214285Y15297620D01*
X54976190Y15297620D01*
X54833333Y15250000D01*
X54738095Y15154762D01*
X54690476Y15059524D01*
X54642857Y14869048D01*
X54642857Y14726191D01*
X54690476Y14535715D01*
X54738095Y14440477D01*
X54833333Y14345239D01*
X54976190Y14297620D01*
X55214285Y14297620D01*
X53690476Y14297620D02*
X54261904Y14297620D01*
X53976190Y14297620D02*
X53976190Y15297620D01*
X54071428Y15154762D01*
X54166666Y15059524D01*
X54261904Y15011905D01*
X52738095Y14297620D02*
X53309523Y14297620D01*
X53023809Y14297620D02*
X53023809Y15297620D01*
X53119047Y15154762D01*
X53214285Y15059524D01*
X53309523Y15011905D01*
X73164285Y13297620D02*
X73164285Y14297620D01*
X72926190Y14297620D01*
X72783333Y14250000D01*
X72688095Y14154762D01*
X72640476Y14059524D01*
X72592857Y13869048D01*
X72592857Y13726191D01*
X72640476Y13535715D01*
X72688095Y13440477D01*
X72783333Y13345239D01*
X72926190Y13297620D01*
X73164285Y13297620D01*
X71640476Y13297620D02*
X72211904Y13297620D01*
X71926190Y13297620D02*
X71926190Y14297620D01*
X72021428Y14154762D01*
X72116666Y14059524D01*
X72211904Y14011905D01*
X71259523Y14202381D02*
X71211904Y14250000D01*
X71116666Y14297620D01*
X70878571Y14297620D01*
X70783333Y14250000D01*
X70735714Y14202381D01*
X70688095Y14107143D01*
X70688095Y14011905D01*
X70735714Y13869048D01*
X71307142Y13297620D01*
X70688095Y13297620D01*
X1414285Y2347620D02*
X1414285Y3347620D01*
X1176190Y3347620D01*
X1033333Y3300000D01*
X938095Y3204762D01*
X890476Y3109524D01*
X842857Y2919048D01*
X842857Y2776191D01*
X890476Y2585715D01*
X938095Y2490477D01*
X1033333Y2395239D01*
X1176190Y2347620D01*
X1414285Y2347620D01*
X-109524Y2347620D02*
X461904Y2347620D01*
X176190Y2347620D02*
X176190Y3347620D01*
X271428Y3204762D01*
X366666Y3109524D01*
X461904Y3061905D01*
X-966667Y3014286D02*
X-966667Y2347620D01*
X-728572Y3395239D02*
X-490477Y2680953D01*
X-1109524Y2680953D01*
X19214285Y3597620D02*
X19214285Y4597620D01*
X18976190Y4597620D01*
X18833333Y4550000D01*
X18738095Y4454762D01*
X18690476Y4359524D01*
X18642857Y4169048D01*
X18642857Y4026191D01*
X18690476Y3835715D01*
X18738095Y3740477D01*
X18833333Y3645239D01*
X18976190Y3597620D01*
X19214285Y3597620D01*
X17690476Y3597620D02*
X18261904Y3597620D01*
X17976190Y3597620D02*
X17976190Y4597620D01*
X18071428Y4454762D01*
X18166666Y4359524D01*
X18261904Y4311905D01*
X16785714Y4597620D02*
X17261904Y4597620D01*
X17309523Y4121429D01*
X17261904Y4169048D01*
X17166666Y4216667D01*
X16928571Y4216667D01*
X16833333Y4169048D01*
X16785714Y4121429D01*
X16738095Y4026191D01*
X16738095Y3788096D01*
X16785714Y3692858D01*
X16833333Y3645239D01*
X16928571Y3597620D01*
X17166666Y3597620D01*
X17261904Y3645239D01*
X17309523Y3692858D01*
X37164285Y2297620D02*
X37164285Y3297620D01*
X36926190Y3297620D01*
X36783333Y3250000D01*
X36688095Y3154762D01*
X36640476Y3059524D01*
X36592857Y2869048D01*
X36592857Y2726191D01*
X36640476Y2535715D01*
X36688095Y2440477D01*
X36783333Y2345239D01*
X36926190Y2297620D01*
X37164285Y2297620D01*
X35640476Y2297620D02*
X36211904Y2297620D01*
X35926190Y2297620D02*
X35926190Y3297620D01*
X36021428Y3154762D01*
X36116666Y3059524D01*
X36211904Y3011905D01*
X34783333Y3297620D02*
X34973809Y3297620D01*
X35069047Y3250000D01*
X35116666Y3202381D01*
X35211904Y3059524D01*
X35259523Y2869048D01*
X35259523Y2488096D01*
X35211904Y2392858D01*
X35164285Y2345239D01*
X35069047Y2297620D01*
X34878571Y2297620D01*
X34783333Y2345239D01*
X34735714Y2392858D01*
X34688095Y2488096D01*
X34688095Y2726191D01*
X34735714Y2821429D01*
X34783333Y2869048D01*
X34878571Y2916667D01*
X35069047Y2916667D01*
X35164285Y2869048D01*
X35211904Y2821429D01*
X35259523Y2726191D01*
X55214285Y-2702380D02*
X55214285Y-1702380D01*
X54976190Y-1702380D01*
X54833333Y-1750000D01*
X54738095Y-1845238D01*
X54690476Y-1940476D01*
X54642857Y-2130952D01*
X54642857Y-2273809D01*
X54690476Y-2464285D01*
X54738095Y-2559523D01*
X54833333Y-2654761D01*
X54976190Y-2702380D01*
X55214285Y-2702380D01*
X53690476Y-2702380D02*
X54261904Y-2702380D01*
X53976190Y-2702380D02*
X53976190Y-1702380D01*
X54071428Y-1845238D01*
X54166666Y-1940476D01*
X54261904Y-1988095D01*
X53357142Y-1702380D02*
X52690476Y-1702380D01*
X53119047Y-2702380D01*
X73164285Y-3702380D02*
X73164285Y-2702380D01*
X72926190Y-2702380D01*
X72783333Y-2750000D01*
X72688095Y-2845238D01*
X72640476Y-2940476D01*
X72592857Y-3130952D01*
X72592857Y-3273809D01*
X72640476Y-3464285D01*
X72688095Y-3559523D01*
X72783333Y-3654761D01*
X72926190Y-3702380D01*
X73164285Y-3702380D01*
X71640476Y-3702380D02*
X72211904Y-3702380D01*
X71926190Y-3702380D02*
X71926190Y-2702380D01*
X72021428Y-2845238D01*
X72116666Y-2940476D01*
X72211904Y-2988095D01*
X71069047Y-3130952D02*
X71164285Y-3083333D01*
X71211904Y-3035714D01*
X71259523Y-2940476D01*
X71259523Y-2892857D01*
X71211904Y-2797619D01*
X71164285Y-2750000D01*
X71069047Y-2702380D01*
X70878571Y-2702380D01*
X70783333Y-2750000D01*
X70735714Y-2797619D01*
X70688095Y-2892857D01*
X70688095Y-2940476D01*
X70735714Y-3035714D01*
X70783333Y-3083333D01*
X70878571Y-3130952D01*
X71069047Y-3130952D01*
X71164285Y-3178571D01*
X71211904Y-3226190D01*
X71259523Y-3321428D01*
X71259523Y-3511904D01*
X71211904Y-3607142D01*
X71164285Y-3654761D01*
X71069047Y-3702380D01*
X70878571Y-3702380D01*
X70783333Y-3654761D01*
X70735714Y-3607142D01*
X70688095Y-3511904D01*
X70688095Y-3321428D01*
X70735714Y-3226190D01*
X70783333Y-3178571D01*
X70878571Y-3130952D01*
X-16785715Y-17102380D02*
X-16785715Y-16102380D01*
X-17023810Y-16102380D01*
X-17166667Y-16150000D01*
X-17261905Y-16245238D01*
X-17309524Y-16340476D01*
X-17357143Y-16530952D01*
X-17357143Y-16673809D01*
X-17309524Y-16864285D01*
X-17261905Y-16959523D01*
X-17166667Y-17054761D01*
X-17023810Y-17102380D01*
X-16785715Y-17102380D01*
X-18309524Y-17102380D02*
X-17738096Y-17102380D01*
X-18023810Y-17102380D02*
X-18023810Y-16102380D01*
X-17928572Y-16245238D01*
X-17833334Y-16340476D01*
X-17738096Y-16388095D01*
X-18785715Y-17102380D02*
X-18976191Y-17102380D01*
X-19071429Y-17054761D01*
X-19119048Y-17007142D01*
X-19214286Y-16864285D01*
X-19261905Y-16673809D01*
X-19261905Y-16292857D01*
X-19214286Y-16197619D01*
X-19166667Y-16150000D01*
X-19071429Y-16102380D01*
X-18880953Y-16102380D01*
X-18785715Y-16150000D01*
X-18738096Y-16197619D01*
X-18690477Y-16292857D01*
X-18690477Y-16530952D01*
X-18738096Y-16626190D01*
X-18785715Y-16673809D01*
X-18880953Y-16721428D01*
X-19071429Y-16721428D01*
X-19166667Y-16673809D01*
X-19214286Y-16626190D01*
X-19261905Y-16530952D01*
X1214285Y-14752380D02*
X1214285Y-13752380D01*
X976190Y-13752380D01*
X833333Y-13800000D01*
X738095Y-13895238D01*
X690476Y-13990476D01*
X642857Y-14180952D01*
X642857Y-14323809D01*
X690476Y-14514285D01*
X738095Y-14609523D01*
X833333Y-14704761D01*
X976190Y-14752380D01*
X1214285Y-14752380D01*
X261904Y-13847619D02*
X214285Y-13800000D01*
X119047Y-13752380D01*
X-119048Y-13752380D01*
X-214286Y-13800000D01*
X-261905Y-13847619D01*
X-309524Y-13942857D01*
X-309524Y-14038095D01*
X-261905Y-14180952D01*
X309523Y-14752380D01*
X-309524Y-14752380D01*
X-928572Y-13752380D02*
X-1023810Y-13752380D01*
X-1119048Y-13800000D01*
X-1166667Y-13847619D01*
X-1214286Y-13942857D01*
X-1261905Y-14133333D01*
X-1261905Y-14371428D01*
X-1214286Y-14561904D01*
X-1166667Y-14657142D01*
X-1119048Y-14704761D01*
X-1023810Y-14752380D01*
X-928572Y-14752380D01*
X-833334Y-14704761D01*
X-785715Y-14657142D01*
X-738096Y-14561904D01*
X-690477Y-14371428D01*
X-690477Y-14133333D01*
X-738096Y-13942857D01*
X-785715Y-13847619D01*
X-833334Y-13800000D01*
X-928572Y-13752380D01*
X19414285Y-13452380D02*
X19414285Y-12452380D01*
X19176190Y-12452380D01*
X19033333Y-12500000D01*
X18938095Y-12595238D01*
X18890476Y-12690476D01*
X18842857Y-12880952D01*
X18842857Y-13023809D01*
X18890476Y-13214285D01*
X18938095Y-13309523D01*
X19033333Y-13404761D01*
X19176190Y-13452380D01*
X19414285Y-13452380D01*
X18461904Y-12547619D02*
X18414285Y-12500000D01*
X18319047Y-12452380D01*
X18080952Y-12452380D01*
X17985714Y-12500000D01*
X17938095Y-12547619D01*
X17890476Y-12642857D01*
X17890476Y-12738095D01*
X17938095Y-12880952D01*
X18509523Y-13452380D01*
X17890476Y-13452380D01*
X16938095Y-13452380D02*
X17509523Y-13452380D01*
X17223809Y-13452380D02*
X17223809Y-12452380D01*
X17319047Y-12595238D01*
X17414285Y-12690476D01*
X17509523Y-12738095D01*
X37164285Y-14702380D02*
X37164285Y-13702380D01*
X36926190Y-13702380D01*
X36783333Y-13750000D01*
X36688095Y-13845238D01*
X36640476Y-13940476D01*
X36592857Y-14130952D01*
X36592857Y-14273809D01*
X36640476Y-14464285D01*
X36688095Y-14559523D01*
X36783333Y-14654761D01*
X36926190Y-14702380D01*
X37164285Y-14702380D01*
X36211904Y-13797619D02*
X36164285Y-13750000D01*
X36069047Y-13702380D01*
X35830952Y-13702380D01*
X35735714Y-13750000D01*
X35688095Y-13797619D01*
X35640476Y-13892857D01*
X35640476Y-13988095D01*
X35688095Y-14130952D01*
X36259523Y-14702380D01*
X35640476Y-14702380D01*
X35259523Y-13797619D02*
X35211904Y-13750000D01*
X35116666Y-13702380D01*
X34878571Y-13702380D01*
X34783333Y-13750000D01*
X34735714Y-13797619D01*
X34688095Y-13892857D01*
X34688095Y-13988095D01*
X34735714Y-14130952D01*
X35307142Y-14702380D01*
X34688095Y-14702380D01*
X55164285Y-19702380D02*
X55164285Y-18702380D01*
X54926190Y-18702380D01*
X54783333Y-18750000D01*
X54688095Y-18845238D01*
X54640476Y-18940476D01*
X54592857Y-19130952D01*
X54592857Y-19273809D01*
X54640476Y-19464285D01*
X54688095Y-19559523D01*
X54783333Y-19654761D01*
X54926190Y-19702380D01*
X55164285Y-19702380D01*
X54211904Y-18797619D02*
X54164285Y-18750000D01*
X54069047Y-18702380D01*
X53830952Y-18702380D01*
X53735714Y-18750000D01*
X53688095Y-18797619D01*
X53640476Y-18892857D01*
X53640476Y-18988095D01*
X53688095Y-19130952D01*
X54259523Y-19702380D01*
X53640476Y-19702380D01*
X53307142Y-18702380D02*
X52688095Y-18702380D01*
X53021428Y-19083333D01*
X52878571Y-19083333D01*
X52783333Y-19130952D01*
X52735714Y-19178571D01*
X52688095Y-19273809D01*
X52688095Y-19511904D01*
X52735714Y-19607142D01*
X52783333Y-19654761D01*
X52878571Y-19702380D01*
X53164285Y-19702380D01*
X53259523Y-19654761D01*
X53307142Y-19607142D01*
X73214285Y-20702380D02*
X73214285Y-19702380D01*
X72976190Y-19702380D01*
X72833333Y-19750000D01*
X72738095Y-19845238D01*
X72690476Y-19940476D01*
X72642857Y-20130952D01*
X72642857Y-20273809D01*
X72690476Y-20464285D01*
X72738095Y-20559523D01*
X72833333Y-20654761D01*
X72976190Y-20702380D01*
X73214285Y-20702380D01*
X72261904Y-19797619D02*
X72214285Y-19750000D01*
X72119047Y-19702380D01*
X71880952Y-19702380D01*
X71785714Y-19750000D01*
X71738095Y-19797619D01*
X71690476Y-19892857D01*
X71690476Y-19988095D01*
X71738095Y-20130952D01*
X72309523Y-20702380D01*
X71690476Y-20702380D01*
X70833333Y-20035714D02*
X70833333Y-20702380D01*
X71071428Y-19654761D02*
X71309523Y-20369047D01*
X70690476Y-20369047D01*
X-16785715Y-102380D02*
X-16785715Y897620D01*
X-17023810Y897620D01*
X-17166667Y850000D01*
X-17261905Y754762D01*
X-17309524Y659524D01*
X-17357143Y469048D01*
X-17357143Y326191D01*
X-17309524Y135715D01*
X-17261905Y40477D01*
X-17166667Y-54761D01*
X-17023810Y-102380D01*
X-16785715Y-102380D01*
X-18309524Y-102380D02*
X-17738096Y-102380D01*
X-18023810Y-102380D02*
X-18023810Y897620D01*
X-17928572Y754762D01*
X-17833334Y659524D01*
X-17738096Y611905D01*
X-18642858Y897620D02*
X-19261905Y897620D01*
X-18928572Y516667D01*
X-19071429Y516667D01*
X-19166667Y469048D01*
X-19214286Y421429D01*
X-19261905Y326191D01*
X-19261905Y88096D01*
X-19214286Y-7142D01*
X-19166667Y-54761D01*
X-19071429Y-102380D01*
X-18785715Y-102380D01*
X-18690477Y-54761D01*
X-18642858Y-7142D01*
X1214285Y-36652380D02*
X1214285Y-35652380D01*
X976190Y-35652380D01*
X833333Y-35700000D01*
X738095Y-35795238D01*
X690476Y-35890476D01*
X642857Y-36080952D01*
X642857Y-36223809D01*
X690476Y-36414285D01*
X738095Y-36509523D01*
X833333Y-36604761D01*
X976190Y-36652380D01*
X1214285Y-36652380D01*
X261904Y-35747619D02*
X214285Y-35700000D01*
X119047Y-35652380D01*
X-119048Y-35652380D01*
X-214286Y-35700000D01*
X-261905Y-35747619D01*
X-309524Y-35842857D01*
X-309524Y-35938095D01*
X-261905Y-36080952D01*
X309523Y-36652380D01*
X-309524Y-36652380D01*
X-642858Y-35652380D02*
X-1309524Y-35652380D01*
X-880953Y-36652380D01*
X-24797655Y-35883134D02*
X-25297655Y-36749160D01*
X-25091459Y-36868207D01*
X-24943931Y-36898397D01*
X-24813834Y-36863537D01*
X-24724975Y-36804868D01*
X-24588498Y-36663720D01*
X-24517069Y-36540002D01*
X-24463071Y-36351236D01*
X-24456691Y-36244947D01*
X-24491550Y-36114850D01*
X-24591459Y-36002182D01*
X-24797655Y-35883134D01*
X-24425250Y-37142872D02*
X-24407820Y-37207920D01*
X-24349151Y-37296779D01*
X-24142955Y-37415826D01*
X-24036667Y-37422206D01*
X-23971618Y-37404776D01*
X-23882759Y-37346107D01*
X-23835140Y-37263629D01*
X-23804951Y-37116101D01*
X-24014109Y-36335515D01*
X-23477998Y-36645039D01*
X-23235690Y-37939636D02*
X-23400647Y-37844398D01*
X-23459316Y-37755539D01*
X-23476746Y-37690491D01*
X-23487796Y-37519154D01*
X-23433797Y-37330387D01*
X-23243321Y-37000472D01*
X-23154463Y-36941803D01*
X-23089414Y-36924374D01*
X-22983126Y-36930753D01*
X-22818169Y-37025991D01*
X-22759500Y-37114850D01*
X-22742070Y-37179899D01*
X-22748450Y-37286187D01*
X-22867497Y-37492383D01*
X-22956356Y-37551052D01*
X-23021404Y-37568482D01*
X-23127692Y-37562102D01*
X-23292650Y-37466864D01*
X-23351319Y-37378006D01*
X-23368749Y-37312957D01*
X-23362369Y-37206669D01*
X-27047620Y-16785713D02*
X-28047620Y-16785713D01*
X-28047620Y-17023808D01*
X-28000000Y-17166665D01*
X-27904762Y-17261903D01*
X-27809524Y-17309522D01*
X-27619048Y-17357141D01*
X-27476191Y-17357141D01*
X-27285715Y-17309522D01*
X-27190477Y-17261903D01*
X-27095239Y-17166665D01*
X-27047620Y-17023808D01*
X-27047620Y-16785713D01*
X-27952381Y-17738094D02*
X-28000000Y-17785713D01*
X-28047620Y-17880951D01*
X-28047620Y-18119046D01*
X-28000000Y-18214284D01*
X-27952381Y-18261903D01*
X-27857143Y-18309522D01*
X-27761905Y-18309522D01*
X-27619048Y-18261903D01*
X-27047620Y-17690475D01*
X-27047620Y-18309522D01*
X-28047620Y-19214284D02*
X-28047620Y-18738094D01*
X-27571429Y-18690475D01*
X-27619048Y-18738094D01*
X-27666667Y-18833332D01*
X-27666667Y-19071427D01*
X-27619048Y-19166665D01*
X-27571429Y-19214284D01*
X-27476191Y-19261903D01*
X-27238096Y-19261903D01*
X-27142858Y-19214284D01*
X-27095239Y-19166665D01*
X-27047620Y-19071427D01*
X-27047620Y-18833332D01*
X-27095239Y-18738094D01*
X-27142858Y-18690475D01*
X-17261905Y33897620D02*
X-17261905Y34897620D01*
X-17500000Y34897620D01*
X-17642858Y34850000D01*
X-17738096Y34754762D01*
X-17785715Y34659524D01*
X-17833334Y34469048D01*
X-17833334Y34326191D01*
X-17785715Y34135715D01*
X-17738096Y34040477D01*
X-17642858Y33945239D01*
X-17500000Y33897620D01*
X-17261905Y33897620D01*
X-18785715Y33897620D02*
X-18214286Y33897620D01*
X-18500000Y33897620D02*
X-18500000Y34897620D01*
X-18404762Y34754762D01*
X-18309524Y34659524D01*
X-18214286Y34611905D01*
X19214285Y-35352380D02*
X19214285Y-34352380D01*
X18976190Y-34352380D01*
X18833333Y-34400000D01*
X18738095Y-34495238D01*
X18690476Y-34590476D01*
X18642857Y-34780952D01*
X18642857Y-34923809D01*
X18690476Y-35114285D01*
X18738095Y-35209523D01*
X18833333Y-35304761D01*
X18976190Y-35352380D01*
X19214285Y-35352380D01*
X18261904Y-34447619D02*
X18214285Y-34400000D01*
X18119047Y-34352380D01*
X17880952Y-34352380D01*
X17785714Y-34400000D01*
X17738095Y-34447619D01*
X17690476Y-34542857D01*
X17690476Y-34638095D01*
X17738095Y-34780952D01*
X18309523Y-35352380D01*
X17690476Y-35352380D01*
X17119047Y-34780952D02*
X17214285Y-34733333D01*
X17261904Y-34685714D01*
X17309523Y-34590476D01*
X17309523Y-34542857D01*
X17261904Y-34447619D01*
X17214285Y-34400000D01*
X17119047Y-34352380D01*
X16928571Y-34352380D01*
X16833333Y-34400000D01*
X16785714Y-34447619D01*
X16738095Y-34542857D01*
X16738095Y-34590476D01*
X16785714Y-34685714D01*
X16833333Y-34733333D01*
X16928571Y-34780952D01*
X17119047Y-34780952D01*
X17214285Y-34828571D01*
X17261904Y-34876190D01*
X17309523Y-34971428D01*
X17309523Y-35161904D01*
X17261904Y-35257142D01*
X17214285Y-35304761D01*
X17119047Y-35352380D01*
X16928571Y-35352380D01*
X16833333Y-35304761D01*
X16785714Y-35257142D01*
X16738095Y-35161904D01*
X16738095Y-34971428D01*
X16785714Y-34876190D01*
X16833333Y-34828571D01*
X16928571Y-34780952D01*
X-36317858Y14666667D02*
X-36270239Y14714286D01*
X-36222620Y14857143D01*
X-36222620Y14952381D01*
X-36270239Y15095239D01*
X-36365477Y15190477D01*
X-36460715Y15238096D01*
X-36651191Y15285715D01*
X-36794048Y15285715D01*
X-36984524Y15238096D01*
X-37079762Y15190477D01*
X-37175000Y15095239D01*
X-37222620Y14952381D01*
X-37222620Y14857143D01*
X-37175000Y14714286D01*
X-37127381Y14666667D01*
X-37222620Y13761905D02*
X-37222620Y14238096D01*
X-36746429Y14285715D01*
X-36794048Y14238096D01*
X-36841667Y14142858D01*
X-36841667Y13904762D01*
X-36794048Y13809524D01*
X-36746429Y13761905D01*
X-36651191Y13714286D01*
X-36413096Y13714286D01*
X-36317858Y13761905D01*
X-36270239Y13809524D01*
X-36222620Y13904762D01*
X-36222620Y14142858D01*
X-36270239Y14238096D01*
X-36317858Y14285715D01*
X-18317858Y17541667D02*
X-18270239Y17589286D01*
X-18222620Y17732143D01*
X-18222620Y17827381D01*
X-18270239Y17970239D01*
X-18365477Y18065477D01*
X-18460715Y18113096D01*
X-18651191Y18160715D01*
X-18794048Y18160715D01*
X-18984524Y18113096D01*
X-19079762Y18065477D01*
X-19175000Y17970239D01*
X-19222620Y17827381D01*
X-19222620Y17732143D01*
X-19175000Y17589286D01*
X-19127381Y17541667D01*
X-18889286Y16684524D02*
X-18222620Y16684524D01*
X-19270239Y16922620D02*
X-18555953Y17160715D01*
X-18555953Y16541667D01*
X-40917857Y14229167D02*
X-40870238Y14276786D01*
X-40822619Y14419643D01*
X-40822619Y14514881D01*
X-40870238Y14657739D01*
X-40965476Y14752977D01*
X-41060714Y14800596D01*
X-41251190Y14848215D01*
X-41394047Y14848215D01*
X-41584523Y14800596D01*
X-41679761Y14752977D01*
X-41774999Y14657739D01*
X-41822619Y14514881D01*
X-41822619Y14419643D01*
X-41774999Y14276786D01*
X-41727380Y14229167D01*
X-40822619Y13276786D02*
X-40822619Y13848215D01*
X-40822619Y13562500D02*
X-41822619Y13562500D01*
X-41679761Y13657739D01*
X-41584523Y13752977D01*
X-41536904Y13848215D01*
X-48370834Y13642858D02*
X-48323215Y13595239D01*
X-48180358Y13547620D01*
X-48085120Y13547620D01*
X-47942262Y13595239D01*
X-47847024Y13690477D01*
X-47799405Y13785715D01*
X-47751786Y13976191D01*
X-47751786Y14119048D01*
X-47799405Y14309524D01*
X-47847024Y14404762D01*
X-47942262Y14500000D01*
X-48085120Y14547620D01*
X-48180358Y14547620D01*
X-48323215Y14500000D01*
X-48370834Y14452381D01*
X-48751786Y14452381D02*
X-48799405Y14500000D01*
X-48894643Y14547620D01*
X-49132739Y14547620D01*
X-49227977Y14500000D01*
X-49275596Y14452381D01*
X-49323215Y14357143D01*
X-49323215Y14261905D01*
X-49275596Y14119048D01*
X-48704167Y13547620D01*
X-49323215Y13547620D01*
X-24917858Y23095239D02*
X-25060715Y23047620D01*
X-25298810Y23047620D01*
X-25394048Y23095239D01*
X-25441667Y23142858D01*
X-25489286Y23238096D01*
X-25489286Y23333334D01*
X-25441667Y23428572D01*
X-25394048Y23476191D01*
X-25298810Y23523810D01*
X-25108334Y23571429D01*
X-25013096Y23619048D01*
X-24965477Y23666667D01*
X-24917858Y23761905D01*
X-24917858Y23857143D01*
X-24965477Y23952381D01*
X-25013096Y24000000D01*
X-25108334Y24047620D01*
X-25346429Y24047620D01*
X-25489286Y24000000D01*
X-25822620Y24047620D02*
X-26060715Y23047620D01*
X-26251191Y23761905D01*
X-26441667Y23047620D01*
X-26679762Y24047620D01*
X-27060715Y23047620D02*
X-27060715Y24047620D01*
X-27298810Y24047620D01*
X-27441667Y24000000D01*
X-27536905Y23904762D01*
X-27584524Y23809524D01*
X-27632143Y23619048D01*
X-27632143Y23476191D01*
X-27584524Y23285715D01*
X-27536905Y23190477D01*
X-27441667Y23095239D01*
X-27298810Y23047620D01*
X-27060715Y23047620D01*
X-28775000Y24095239D02*
X-27917858Y22809524D01*
X-29679762Y23142858D02*
X-29632143Y23095239D01*
X-29489286Y23047620D01*
X-29394048Y23047620D01*
X-29251191Y23095239D01*
X-29155953Y23190477D01*
X-29108334Y23285715D01*
X-29060715Y23476191D01*
X-29060715Y23619048D01*
X-29108334Y23809524D01*
X-29155953Y23904762D01*
X-29251191Y24000000D01*
X-29394048Y24047620D01*
X-29489286Y24047620D01*
X-29632143Y24000000D01*
X-29679762Y23952381D01*
X-30632143Y23047620D02*
X-30060715Y23047620D01*
X-30346429Y23047620D02*
X-30346429Y24047620D01*
X-30251191Y23904762D01*
X-30155953Y23809524D01*
X-30060715Y23761905D01*
X-46804762Y18352381D02*
X-46709524Y18400000D01*
X-46614286Y18495239D01*
X-46471429Y18638096D01*
X-46376191Y18685715D01*
X-46280953Y18685715D01*
X-46328572Y18447620D02*
X-46233334Y18495239D01*
X-46138096Y18590477D01*
X-46090477Y18780953D01*
X-46090477Y19114286D01*
X-46138096Y19304762D01*
X-46233334Y19400000D01*
X-46328572Y19447620D01*
X-46519048Y19447620D01*
X-46614286Y19400000D01*
X-46709524Y19304762D01*
X-46757143Y19114286D01*
X-46757143Y18780953D01*
X-46709524Y18590477D01*
X-46614286Y18495239D01*
X-46519048Y18447620D01*
X-46328572Y18447620D01*
X-47138096Y19352381D02*
X-47185715Y19400000D01*
X-47280953Y19447620D01*
X-47519048Y19447620D01*
X-47614286Y19400000D01*
X-47661905Y19352381D01*
X-47709524Y19257143D01*
X-47709524Y19161905D01*
X-47661905Y19019048D01*
X-47090477Y18447620D01*
X-47709524Y18447620D01*
X-35608334Y13847620D02*
X-35275000Y14323810D01*
X-35036905Y13847620D02*
X-35036905Y14847620D01*
X-35417858Y14847620D01*
X-35513096Y14800000D01*
X-35560715Y14752381D01*
X-35608334Y14657143D01*
X-35608334Y14514286D01*
X-35560715Y14419048D01*
X-35513096Y14371429D01*
X-35417858Y14323810D01*
X-35036905Y14323810D01*
X-35989286Y14752381D02*
X-36036905Y14800000D01*
X-36132143Y14847620D01*
X-36370239Y14847620D01*
X-36465477Y14800000D01*
X-36513096Y14752381D01*
X-36560715Y14657143D01*
X-36560715Y14561905D01*
X-36513096Y14419048D01*
X-35941667Y13847620D01*
X-36560715Y13847620D01*
X-23995835Y9247620D02*
X-23662501Y9723810D01*
X-23424406Y9247620D02*
X-23424406Y10247620D01*
X-23805359Y10247620D01*
X-23900597Y10200000D01*
X-23948216Y10152381D01*
X-23995835Y10057143D01*
X-23995835Y9914286D01*
X-23948216Y9819048D01*
X-23900597Y9771429D01*
X-23805359Y9723810D01*
X-23424406Y9723810D01*
X-24852978Y9914286D02*
X-24852978Y9247620D01*
X-24614882Y10295239D02*
X-24376787Y9580953D01*
X-24995835Y9580953D01*
X-45683334Y30922620D02*
X-45350000Y31398810D01*
X-45111905Y30922620D02*
X-45111905Y31922620D01*
X-45492858Y31922620D01*
X-45588096Y31875000D01*
X-45635715Y31827381D01*
X-45683334Y31732143D01*
X-45683334Y31589286D01*
X-45635715Y31494048D01*
X-45588096Y31446429D01*
X-45492858Y31398810D01*
X-45111905Y31398810D01*
X-46016667Y31922620D02*
X-46683334Y31922620D01*
X-46254762Y30922620D01*
X-40683334Y31522620D02*
X-40350000Y31998810D01*
X-40111905Y31522620D02*
X-40111905Y32522620D01*
X-40492858Y32522620D01*
X-40588096Y32475000D01*
X-40635715Y32427381D01*
X-40683334Y32332143D01*
X-40683334Y32189286D01*
X-40635715Y32094048D01*
X-40588096Y32046429D01*
X-40492858Y31998810D01*
X-40111905Y31998810D01*
X-41254762Y32094048D02*
X-41159524Y32141667D01*
X-41111905Y32189286D01*
X-41064286Y32284524D01*
X-41064286Y32332143D01*
X-41111905Y32427381D01*
X-41159524Y32475000D01*
X-41254762Y32522620D01*
X-41445239Y32522620D01*
X-41540477Y32475000D01*
X-41588096Y32427381D01*
X-41635715Y32332143D01*
X-41635715Y32284524D01*
X-41588096Y32189286D01*
X-41540477Y32141667D01*
X-41445239Y32094048D01*
X-41254762Y32094048D01*
X-41159524Y32046429D01*
X-41111905Y31998810D01*
X-41064286Y31903572D01*
X-41064286Y31713096D01*
X-41111905Y31617858D01*
X-41159524Y31570239D01*
X-41254762Y31522620D01*
X-41445239Y31522620D01*
X-41540477Y31570239D01*
X-41588096Y31617858D01*
X-41635715Y31713096D01*
X-41635715Y31903572D01*
X-41588096Y31998810D01*
X-41540477Y32046429D01*
X-41445239Y32094048D01*
X-49022620Y16779167D02*
X-49498810Y17112500D01*
X-49022620Y17350596D02*
X-50022620Y17350596D01*
X-50022620Y16969643D01*
X-49975000Y16874405D01*
X-49927381Y16826786D01*
X-49832143Y16779167D01*
X-49689286Y16779167D01*
X-49594048Y16826786D01*
X-49546429Y16874405D01*
X-49498810Y16969643D01*
X-49498810Y17350596D01*
X-49022620Y16302977D02*
X-49022620Y16112500D01*
X-49070239Y16017262D01*
X-49117858Y15969643D01*
X-49260715Y15874405D01*
X-49451191Y15826786D01*
X-49832143Y15826786D01*
X-49927381Y15874405D01*
X-49975000Y15922024D01*
X-50022620Y16017262D01*
X-50022620Y16207739D01*
X-49975000Y16302977D01*
X-49927381Y16350596D01*
X-49832143Y16398215D01*
X-49594048Y16398215D01*
X-49498810Y16350596D01*
X-49451191Y16302977D01*
X-49403572Y16207739D01*
X-49403572Y16017262D01*
X-49451191Y15922024D01*
X-49498810Y15874405D01*
X-49594048Y15826786D01*
X-52972620Y20228572D02*
X-53448810Y20561905D01*
X-52972620Y20800000D02*
X-53972620Y20800000D01*
X-53972620Y20419048D01*
X-53925000Y20323810D01*
X-53877381Y20276191D01*
X-53782143Y20228572D01*
X-53639286Y20228572D01*
X-53544048Y20276191D01*
X-53496429Y20323810D01*
X-53448810Y20419048D01*
X-53448810Y20800000D01*
X-53496429Y19800000D02*
X-53496429Y19466667D01*
X-52972620Y19323810D02*
X-52972620Y19800000D01*
X-53972620Y19800000D01*
X-53972620Y19323810D01*
X-53020239Y18942858D02*
X-52972620Y18800000D01*
X-52972620Y18561905D01*
X-53020239Y18466667D01*
X-53067858Y18419048D01*
X-53163096Y18371429D01*
X-53258334Y18371429D01*
X-53353572Y18419048D01*
X-53401191Y18466667D01*
X-53448810Y18561905D01*
X-53496429Y18752381D01*
X-53544048Y18847620D01*
X-53591667Y18895239D01*
X-53686905Y18942858D01*
X-53782143Y18942858D01*
X-53877381Y18895239D01*
X-53925000Y18847620D01*
X-53972620Y18752381D01*
X-53972620Y18514286D01*
X-53925000Y18371429D01*
X-53496429Y17942858D02*
X-53496429Y17609524D01*
X-52972620Y17466667D02*
X-52972620Y17942858D01*
X-53972620Y17942858D01*
X-53972620Y17466667D01*
X-53972620Y17180953D02*
X-53972620Y16609524D01*
X-52972620Y16895239D02*
X-53972620Y16895239D01*
X-52972620Y15752381D02*
X-52972620Y16323810D01*
X-52972620Y16038096D02*
X-53972620Y16038096D01*
X-53829762Y16133334D01*
X-53734524Y16228572D01*
X-53686905Y16323810D01*
X-41672620Y17661905D02*
X-40863096Y17661905D01*
X-40767858Y17614286D01*
X-40720239Y17566667D01*
X-40672620Y17471429D01*
X-40672620Y17280953D01*
X-40720239Y17185715D01*
X-40767858Y17138096D01*
X-40863096Y17090477D01*
X-41672620Y17090477D01*
X-40672620Y16090477D02*
X-40672620Y16661905D01*
X-40672620Y16376191D02*
X-41672620Y16376191D01*
X-41529762Y16471429D01*
X-41434524Y16566667D01*
X-41386905Y16661905D01*
X-32722620Y18224405D02*
X-31913096Y18224405D01*
X-31817858Y18176786D01*
X-31770239Y18129167D01*
X-31722620Y18033929D01*
X-31722620Y17843453D01*
X-31770239Y17748215D01*
X-31817858Y17700596D01*
X-31913096Y17652977D01*
X-32722620Y17652977D01*
X-32722620Y17272024D02*
X-32722620Y16652977D01*
X-32341667Y16986310D01*
X-32341667Y16843453D01*
X-32294048Y16748215D01*
X-32246429Y16700596D01*
X-32151191Y16652977D01*
X-31913096Y16652977D01*
X-31817858Y16700596D01*
X-31770239Y16748215D01*
X-31722620Y16843453D01*
X-31722620Y17129167D01*
X-31770239Y17224405D01*
X-31817858Y17272024D01*
X-25262855Y19613691D02*
X-24786665Y19613691D01*
X-25786665Y19947024D02*
X-25262855Y19613691D01*
X-25786665Y19280358D01*
X-24786665Y18423215D02*
X-24786665Y18994643D01*
X-24786665Y18708929D02*
X-25786665Y18708929D01*
X-25643807Y18804167D01*
X-25548569Y18899405D01*
X-25500950Y18994643D01*
X-24295834Y18342858D02*
X-24248215Y18295239D01*
X-24105358Y18247620D01*
X-24010120Y18247620D01*
X-23867262Y18295239D01*
X-23772024Y18390477D01*
X-23724405Y18485715D01*
X-23676786Y18676191D01*
X-23676786Y18819048D01*
X-23724405Y19009524D01*
X-23772024Y19104762D01*
X-23867262Y19200000D01*
X-24010120Y19247620D01*
X-24105358Y19247620D01*
X-24248215Y19200000D01*
X-24295834Y19152381D01*
X-24629167Y19247620D02*
X-25248215Y19247620D01*
X-24914881Y18866667D01*
X-25057739Y18866667D01*
X-25152977Y18819048D01*
X-25200596Y18771429D01*
X-25248215Y18676191D01*
X-25248215Y18438096D01*
X-25200596Y18342858D01*
X-25152977Y18295239D01*
X-25057739Y18247620D01*
X-24772024Y18247620D01*
X-24676786Y18295239D01*
X-24629167Y18342858D01*
X-49647620Y33454167D02*
X-50123810Y33787500D01*
X-49647620Y34025596D02*
X-50647620Y34025596D01*
X-50647620Y33644643D01*
X-50600000Y33549405D01*
X-50552381Y33501786D01*
X-50457143Y33454167D01*
X-50314286Y33454167D01*
X-50219048Y33501786D01*
X-50171429Y33549405D01*
X-50123810Y33644643D01*
X-50123810Y34025596D01*
X-50647620Y32597024D02*
X-50647620Y32787500D01*
X-50600000Y32882739D01*
X-50552381Y32930358D01*
X-50409524Y33025596D01*
X-50219048Y33073215D01*
X-49838096Y33073215D01*
X-49742858Y33025596D01*
X-49695239Y32977977D01*
X-49647620Y32882739D01*
X-49647620Y32692262D01*
X-49695239Y32597024D01*
X-49742858Y32549405D01*
X-49838096Y32501786D01*
X-50076191Y32501786D01*
X-50171429Y32549405D01*
X-50219048Y32597024D01*
X-50266667Y32692262D01*
X-50266667Y32882739D01*
X-50219048Y32977977D01*
X-50171429Y33025596D01*
X-50076191Y33073215D01*
X-26076674Y28694395D02*
X-26076674Y27884871D01*
X-26124293Y27789633D01*
X-26171912Y27742014D01*
X-26267150Y27694395D01*
X-26457626Y27694395D01*
X-26552864Y27742014D01*
X-26600483Y27789633D01*
X-26648102Y27884871D01*
X-26648102Y28694395D01*
X-27076674Y28599156D02*
X-27124293Y28646775D01*
X-27219531Y28694395D01*
X-27457626Y28694395D01*
X-27552864Y28646775D01*
X-27600483Y28599156D01*
X-27648102Y28503918D01*
X-27648102Y28408680D01*
X-27600483Y28265823D01*
X-27029055Y27694395D01*
X-27648102Y27694395D01*
X-20624760Y36346429D02*
X-20958093Y36346429D01*
X-21100950Y35822620D02*
X-20624760Y35822620D01*
X-20624760Y36822620D01*
X-21100950Y36822620D01*
X-21434284Y36822620D02*
X-22100950Y36822620D01*
X-21672379Y35822620D01*
X-22386665Y36822620D02*
X-23005712Y36822620D01*
X-22672379Y36441667D01*
X-22815236Y36441667D01*
X-22910474Y36394048D01*
X-22958093Y36346429D01*
X-23005712Y36251191D01*
X-23005712Y36013096D01*
X-22958093Y35917858D01*
X-22910474Y35870239D01*
X-22815236Y35822620D01*
X-22529522Y35822620D01*
X-22434284Y35870239D01*
X-22386665Y35917858D01*
X-23434284Y36203572D02*
X-24196188Y36203572D01*
X-24624760Y36727381D02*
X-24672379Y36775000D01*
X-24767617Y36822620D01*
X-25005712Y36822620D01*
X-25100950Y36775000D01*
X-25148569Y36727381D01*
X-25196188Y36632143D01*
X-25196188Y36536905D01*
X-25148569Y36394048D01*
X-24577141Y35822620D01*
X-25196188Y35822620D01*
X-26148569Y36775000D02*
X-26053331Y36822620D01*
X-25910474Y36822620D01*
X-25767617Y36775000D01*
X-25672379Y36679762D01*
X-25624760Y36584524D01*
X-25577141Y36394048D01*
X-25577141Y36251191D01*
X-25624760Y36060715D01*
X-25672379Y35965477D01*
X-25767617Y35870239D01*
X-25910474Y35822620D01*
X-26005712Y35822620D01*
X-26148569Y35870239D01*
X-26196188Y35917858D01*
X-26196188Y36251191D01*
X-26005712Y36251191D01*
X-27053331Y36489286D02*
X-27053331Y35822620D01*
X-26815236Y36870239D02*
X-26577141Y36155953D01*
X-27196188Y36155953D01*
X-27577141Y35822620D02*
X-27577141Y36822620D01*
X-27910474Y36108334D01*
X-28243807Y36822620D01*
X-28243807Y35822620D01*
X-28910474Y36822620D02*
X-29005712Y36822620D01*
X-29100950Y36775000D01*
X-29148569Y36727381D01*
X-29196188Y36632143D01*
X-29243807Y36441667D01*
X-29243807Y36203572D01*
X-29196188Y36013096D01*
X-29148569Y35917858D01*
X-29100950Y35870239D01*
X-29005712Y35822620D01*
X-28910474Y35822620D01*
X-28815236Y35870239D01*
X-28767617Y35917858D01*
X-28719998Y36013096D01*
X-28672379Y36203572D01*
X-28672379Y36441667D01*
X-28719998Y36632143D01*
X-28767617Y36727381D01*
X-28815236Y36775000D01*
X-28910474Y36822620D01*
X-29815236Y36394048D02*
X-29719998Y36441667D01*
X-29672379Y36489286D01*
X-29624760Y36584524D01*
X-29624760Y36632143D01*
X-29672379Y36727381D01*
X-29719998Y36775000D01*
X-29815236Y36822620D01*
X-30005712Y36822620D01*
X-30100950Y36775000D01*
X-30148569Y36727381D01*
X-30196188Y36632143D01*
X-30196188Y36584524D01*
X-30148569Y36489286D01*
X-30100950Y36441667D01*
X-30005712Y36394048D01*
X-29815236Y36394048D01*
X-29719998Y36346429D01*
X-29672379Y36298810D01*
X-29624760Y36203572D01*
X-29624760Y36013096D01*
X-29672379Y35917858D01*
X-29719998Y35870239D01*
X-29815236Y35822620D01*
X-30005712Y35822620D01*
X-30100950Y35870239D01*
X-30148569Y35917858D01*
X-30196188Y36013096D01*
X-30196188Y36203572D01*
X-30148569Y36298810D01*
X-30100950Y36346429D01*
X-30005712Y36394048D01*
X-30577141Y35870239D02*
X-30719998Y35822620D01*
X-30958093Y35822620D01*
X-31053331Y35870239D01*
X-31100950Y35917858D01*
X-31148569Y36013096D01*
X-31148569Y36108334D01*
X-31100950Y36203572D01*
X-31053331Y36251191D01*
X-30958093Y36298810D01*
X-30767617Y36346429D01*
X-30672379Y36394048D01*
X-30624760Y36441667D01*
X-30577141Y36536905D01*
X-30577141Y36632143D01*
X-30624760Y36727381D01*
X-30672379Y36775000D01*
X-30767617Y36822620D01*
X-31005712Y36822620D01*
X-31148569Y36775000D01*
X-32100950Y35822620D02*
X-31529522Y35822620D01*
X-31815236Y35822620D02*
X-31815236Y36822620D01*
X-31719998Y36679762D01*
X-31624760Y36584524D01*
X-31529522Y36536905D01*
X-33100950Y35917858D02*
X-33053331Y35870239D01*
X-32910474Y35822620D01*
X-32815236Y35822620D01*
X-32672379Y35870239D01*
X-32577141Y35965477D01*
X-32529522Y36060715D01*
X-32481903Y36251191D01*
X-32481903Y36394048D01*
X-32529522Y36584524D01*
X-32577141Y36679762D01*
X-32672379Y36775000D01*
X-32815236Y36822620D01*
X-32910474Y36822620D01*
X-33053331Y36775000D01*
X-33100950Y36727381D01*
X-47810715Y19047620D02*
X-47810715Y20047620D01*
X-48048810Y20047620D01*
X-48191667Y20000000D01*
X-48286905Y19904762D01*
X-48334524Y19809524D01*
X-48382143Y19619048D01*
X-48382143Y19476191D01*
X-48334524Y19285715D01*
X-48286905Y19190477D01*
X-48191667Y19095239D01*
X-48048810Y19047620D01*
X-47810715Y19047620D01*
X-48715477Y20047620D02*
X-49334524Y20047620D01*
X-49001191Y19666667D01*
X-49144048Y19666667D01*
X-49239286Y19619048D01*
X-49286905Y19571429D01*
X-49334524Y19476191D01*
X-49334524Y19238096D01*
X-49286905Y19142858D01*
X-49239286Y19095239D01*
X-49144048Y19047620D01*
X-48858334Y19047620D01*
X-48763096Y19095239D01*
X-48715477Y19142858D01*
X-49667858Y20047620D02*
X-50286905Y20047620D01*
X-49953572Y19666667D01*
X-50096429Y19666667D01*
X-50191667Y19619048D01*
X-50239286Y19571429D01*
X-50286905Y19476191D01*
X-50286905Y19238096D01*
X-50239286Y19142858D01*
X-50191667Y19095239D01*
X-50096429Y19047620D01*
X-49810715Y19047620D01*
X-49715477Y19095239D01*
X-49667858Y19142858D01*
X-35022620Y36266667D02*
X-35498810Y36600000D01*
X-35022620Y36838096D02*
X-36022620Y36838096D01*
X-36022620Y36457143D01*
X-35975000Y36361905D01*
X-35927381Y36314286D01*
X-35832143Y36266667D01*
X-35689286Y36266667D01*
X-35594048Y36314286D01*
X-35546429Y36361905D01*
X-35498810Y36457143D01*
X-35498810Y36838096D01*
X-35022620Y35314286D02*
X-35022620Y35885715D01*
X-35022620Y35600000D02*
X-36022620Y35600000D01*
X-35879762Y35695239D01*
X-35784524Y35790477D01*
X-35736905Y35885715D01*
D13*
X-47056643Y28298658D02*
X-47002215Y28135372D01*
X-46947786Y28080943D01*
X-46838929Y28026515D01*
X-46675643Y28026515D01*
X-46566786Y28080943D01*
X-46512358Y28135372D01*
X-46457929Y28244229D01*
X-46457929Y28679658D01*
X-47600929Y28679658D01*
X-47600929Y28298658D01*
X-47546500Y28189800D01*
X-47492072Y28135372D01*
X-47383215Y28080943D01*
X-47274358Y28080943D01*
X-47165500Y28135372D01*
X-47111072Y28189800D01*
X-47056643Y28298658D01*
X-47056643Y28679658D01*
X-46784500Y27591086D02*
X-46784500Y27046800D01*
X-46457929Y27699943D02*
X-47600929Y27318943D01*
X-46457929Y26937943D01*
X-47600929Y26720229D02*
X-47600929Y26067086D01*
X-46457929Y26393658D02*
X-47600929Y26393658D01*
X-47600929Y25849372D02*
X-47600929Y25196229D01*
X-46457929Y25522800D02*
X-47600929Y25522800D01*
X-46457929Y24216515D02*
X-46457929Y24869658D01*
X-46457929Y24543086D02*
X-47600929Y24543086D01*
X-47437643Y24651943D01*
X-47328786Y24760800D01*
X-47274358Y24869658D01*
D14*
X-27975000Y18150000D02*
X-27975000Y15937000D01*
X-27975000Y18150000D02*
X-28475000Y18150000D01*
X-31975000Y18150000D02*
X-31975000Y15803000D01*
X-29208000Y13900000D02*
X-30697000Y13900000D01*
X-31975000Y18150000D02*
X-31475000Y18150000D01*
D15*
X-23920276Y6077500D02*
X-24429724Y6077500D01*
X-23920276Y7122500D02*
X-24429724Y7122500D01*
X-2050000Y37700000D02*
X-2050000Y39700000D01*
X-2050000Y37700000D02*
X1850000Y37700000D01*
X-2050000Y39700000D02*
X1850000Y39700000D01*
X15750000Y41050000D02*
X19650000Y41050000D01*
X15750000Y39050000D02*
X15750000Y41050000D01*
X15750000Y39050000D02*
X19650000Y39050000D01*
X33750000Y37750000D02*
X37650000Y37750000D01*
X33750000Y39750000D02*
X37650000Y39750000D01*
X33750000Y37750000D02*
X33750000Y39750000D01*
X51750000Y32750000D02*
X55650000Y32750000D01*
X51750000Y34750000D02*
X55650000Y34750000D01*
X51750000Y32750000D02*
X51750000Y34750000D01*
X69750000Y31750000D02*
X69750000Y33750000D01*
X69750000Y33750000D02*
X73650000Y33750000D01*
X69750000Y31750000D02*
X73650000Y31750000D01*
X-20300000Y18350000D02*
X-16400000Y18350000D01*
X-20300000Y20350000D02*
X-16400000Y20350000D01*
X-20300000Y18350000D02*
X-20300000Y20350000D01*
X-2350000Y20800000D02*
X-2350000Y22800000D01*
X-2350000Y20800000D02*
X1550000Y20800000D01*
X-2350000Y22800000D02*
X1550000Y22800000D01*
X15750000Y24050000D02*
X19650000Y24050000D01*
X15750000Y22050000D02*
X15750000Y24050000D01*
X15750000Y22050000D02*
X19650000Y22050000D01*
X33700000Y20750000D02*
X33700000Y22750000D01*
X33700000Y22750000D02*
X37600000Y22750000D01*
X33700000Y20750000D02*
X37600000Y20750000D01*
X51750000Y17750000D02*
X55650000Y17750000D01*
X51750000Y15750000D02*
X55650000Y15750000D01*
X51750000Y15750000D02*
X51750000Y17750000D01*
X69700000Y16750000D02*
X73600000Y16750000D01*
X69700000Y14750000D02*
X69700000Y16750000D01*
X69700000Y14750000D02*
X73600000Y14750000D01*
X-2050000Y3800000D02*
X-2050000Y5800000D01*
X-2050000Y5800000D02*
X1850000Y5800000D01*
X-2050000Y3800000D02*
X1850000Y3800000D01*
X15750000Y7050000D02*
X19650000Y7050000D01*
X15750000Y5050000D02*
X15750000Y7050000D01*
X15750000Y5050000D02*
X19650000Y5050000D01*
X33700000Y5750000D02*
X37600000Y5750000D01*
X33700000Y3750000D02*
X33700000Y5750000D01*
X33700000Y3750000D02*
X37600000Y3750000D01*
X51750000Y750000D02*
X55650000Y750000D01*
X51750000Y-1250000D02*
X51750000Y750000D01*
X51750000Y-1250000D02*
X55650000Y-1250000D01*
X69700000Y-2250000D02*
X73600000Y-2250000D01*
X69700000Y-250000D02*
X73600000Y-250000D01*
X69700000Y-2250000D02*
X69700000Y-250000D01*
X-20250000Y-15650000D02*
X-16350000Y-15650000D01*
X-20250000Y-15650000D02*
X-20250000Y-13650000D01*
X-20250000Y-13650000D02*
X-16350000Y-13650000D01*
X-2250000Y-13300000D02*
X-2250000Y-11300000D01*
X-2250000Y-13300000D02*
X1650000Y-13300000D01*
X-2250000Y-11300000D02*
X1650000Y-11300000D01*
X15950000Y-10000000D02*
X19850000Y-10000000D01*
X15950000Y-12000000D02*
X15950000Y-10000000D01*
X15950000Y-12000000D02*
X19850000Y-12000000D01*
X33700000Y-13250000D02*
X33700000Y-11250000D01*
X33700000Y-13250000D02*
X37600000Y-13250000D01*
X33700000Y-11250000D02*
X37600000Y-11250000D01*
X51700000Y-18250000D02*
X51700000Y-16250000D01*
X51700000Y-18250000D02*
X55600000Y-18250000D01*
X51700000Y-16250000D02*
X55600000Y-16250000D01*
X69750000Y-17250000D02*
X73650000Y-17250000D01*
X69750000Y-19250000D02*
X73650000Y-19250000D01*
X69750000Y-19250000D02*
X69750000Y-17250000D01*
X-20250000Y3350000D02*
X-16350000Y3350000D01*
X-20250000Y1350000D02*
X-20250000Y3350000D01*
X-20250000Y1350000D02*
X-16350000Y1350000D01*
X-2250000Y-35200000D02*
X1650000Y-35200000D01*
X-2250000Y-35200000D02*
X-2250000Y-33200000D01*
X-2250000Y-33200000D02*
X1650000Y-33200000D01*
X-25420800Y-34891025D02*
X-22043301Y-36841025D01*
X-24420800Y-33158975D02*
X-21043301Y-35108975D01*
X-25420800Y-34891025D02*
X-24420800Y-33158975D01*
X-28500000Y-20249999D02*
X-28500000Y-16349999D01*
X-30500000Y-20249999D02*
X-30500000Y-16349999D01*
X-28500000Y-20249999D02*
X-30500000Y-20249999D01*
X-20250000Y35350000D02*
X-20250000Y37350000D01*
X-20250000Y37350000D02*
X-16350000Y37350000D01*
X-20250000Y35350000D02*
X-16350000Y35350000D01*
X15750000Y-31900000D02*
X19650000Y-31900000D01*
X15750000Y-33900000D02*
X19650000Y-33900000D01*
X15750000Y-33900000D02*
X15750000Y-31900000D01*
X-34621267Y14810000D02*
X-34328733Y14810000D01*
X-34621267Y13790000D02*
X-34328733Y13790000D01*
X-20991233Y16865000D02*
X-21283767Y16865000D01*
X-20991233Y17885000D02*
X-21283767Y17885000D01*
X-40765000Y16946267D02*
X-40765000Y16653733D01*
X-41785000Y16946267D02*
X-41785000Y16653733D01*
X-45391233Y13490000D02*
X-45683767Y13490000D01*
X-45391233Y14510000D02*
X-45683767Y14510000D01*
X-29105000Y26370000D02*
X-29105000Y34050000D01*
X-29105000Y23770000D02*
X-27775000Y23770000D01*
X-29105000Y26370000D02*
X-26445000Y26370000D01*
X-29105000Y34050000D02*
X-26445000Y34050000D01*
X-26445000Y26370000D02*
X-26445000Y34050000D01*
X-29105000Y25100000D02*
X-29105000Y23770000D01*
X-43920000Y15740000D02*
X-43920000Y17200000D01*
X-47080000Y15740000D02*
X-47080000Y17900000D01*
X-47080000Y15740000D02*
X-46150000Y15740000D01*
X-43920000Y15740000D02*
X-44850000Y15740000D01*
X-38120276Y13777500D02*
X-38629724Y13777500D01*
X-38120276Y14822500D02*
X-38629724Y14822500D01*
X-24429724Y7677500D02*
X-23920276Y7677500D01*
X-24429724Y8722500D02*
X-23920276Y8722500D01*
X-48482776Y31922500D02*
X-48992224Y31922500D01*
X-48482776Y30877500D02*
X-48992224Y30877500D01*
X-38329724Y32522500D02*
X-37820276Y32522500D01*
X-38329724Y31477500D02*
X-37820276Y31477500D01*
X-48597500Y16754724D02*
X-48597500Y16245276D01*
X-47552500Y16754724D02*
X-47552500Y16245276D01*
X-49575000Y19850000D02*
X-49875000Y19850000D01*
X-52375000Y19850000D02*
X-52075000Y19850000D01*
X-49575000Y16550000D02*
X-49575000Y19850000D01*
X-52375000Y16550000D02*
X-52375000Y19850000D01*
X-52075000Y16550000D02*
X-52375000Y16550000D01*
X-49875000Y16550000D02*
X-49575000Y16550000D01*
X-38375000Y15240000D02*
X-37575000Y15240000D01*
X-38375000Y18360000D02*
X-39175000Y18360000D01*
X-38375000Y15240000D02*
X-40175000Y15240000D01*
X-38375000Y18360000D02*
X-37575000Y18360000D01*
X-32965000Y17200000D02*
X-32965000Y18000000D01*
X-32965000Y17200000D02*
X-32965000Y16400000D01*
X-36085000Y17200000D02*
X-36085000Y16400000D01*
X-36085000Y17200000D02*
X-36085000Y19000000D01*
X-23089045Y19837500D02*
X-22889045Y19837500D01*
X-23089045Y18437500D02*
X-22889045Y18437500D01*
X-24539045Y18537500D02*
X-24539045Y19737500D01*
X-24758767Y16890000D02*
X-24466233Y16890000D01*
X-24758767Y17910000D02*
X-24466233Y17910000D01*
X-50977500Y33554724D02*
X-50977500Y33045276D01*
X-52022500Y33554724D02*
X-52022500Y33045276D01*
X-43575000Y18650000D02*
X-46725000Y18650000D01*
X-43575000Y20350000D02*
X-46725000Y20350000D01*
X-43575000Y20350000D02*
X-43575000Y18650000D01*
X-34952500Y33554724D02*
X-34952500Y33045276D01*
X-35997500Y33554724D02*
X-35997500Y33045276D01*
D14*
X-51694000Y22800000D02*
X-50556000Y22800000D01*
X-49625000Y24300000D02*
X-49625000Y25800000D01*
X-50556000Y28800000D02*
X-51694000Y28800000D01*
X-54125000Y25050000D02*
X-52525000Y25050000D01*
X-49625000Y28569000D02*
X-49625000Y28559000D01*
X-52525000Y23050000D02*
X-52525000Y28550000D01*
X-54125000Y23775000D02*
X-54125000Y25050000D01*
X-52525000Y23775000D02*
X-54125000Y23775000D01*
M02*
