G04 #@! TF.GenerationSoftware,KiCad,Pcbnew,(5.99.0-7554-g937713dbbc)*
G04 #@! TF.CreationDate,2021-01-23T12:32:44-07:00*
G04 #@! TF.ProjectId,BlueSof,426c7565-536f-4662-9e6b-696361645f70,rev?*
G04 #@! TF.SameCoordinates,PX85099e0PY51bada0*
G04 #@! TF.FileFunction,Soldermask,Top*
G04 #@! TF.FilePolarity,Negative*
%FSLAX46Y46*%
G04 Gerber Fmt 4.6, Leading zero omitted, Abs format (unit mm)*
G04 Created by KiCad (PCBNEW (5.99.0-7554-g937713dbbc)) date 2021-01-23 12:32:44*
%MOMM*%
%LPD*%
G01*
G04 APERTURE LIST*
G04 Aperture macros list*
%AMRoundRect*
0 Rectangle with rounded corners*
0 $1 Rounding radius*
0 $2 $3 $4 $5 $6 $7 $8 $9 X,Y pos of 4 corners*
0 Add a 4 corners polygon primitive as box body*
4,1,4,$2,$3,$4,$5,$6,$7,$8,$9,$2,$3,0*
0 Add four circle primitives for the rounded corners*
1,1,$1+$1,$2,$3,0*
1,1,$1+$1,$4,$5,0*
1,1,$1+$1,$6,$7,0*
1,1,$1+$1,$8,$9,0*
0 Add four rect primitives between the rounded corners*
20,1,$1+$1,$2,$3,$4,$5,0*
20,1,$1+$1,$4,$5,$6,$7,0*
20,1,$1+$1,$6,$7,$8,$9,0*
20,1,$1+$1,$8,$9,$2,$3,0*%
G04 Aperture macros list end*
%ADD10C,4.700000*%
%ADD11RoundRect,0.200000X0.600000X0.775000X-0.600000X0.775000X-0.600000X-0.775000X0.600000X-0.775000X0*%
%ADD12C,2.300000*%
%ADD13C,3.800000*%
%ADD14C,2.400000*%
%ADD15RoundRect,0.337500X0.387500X0.337500X-0.387500X0.337500X-0.387500X-0.337500X0.387500X-0.337500X0*%
%ADD16RoundRect,0.200000X-1.000000X-1.000000X1.000000X-1.000000X1.000000X1.000000X-1.000000X1.000000X0*%
%ADD17RoundRect,0.200000X-1.600000X-1.000000X1.600000X-1.000000X1.600000X1.000000X-1.600000X1.000000X0*%
%ADD18C,1.400000*%
%ADD19RoundRect,0.200000X-0.850000X-0.850000X0.850000X-0.850000X0.850000X0.850000X-0.850000X0.850000X0*%
%ADD20O,2.100000X2.100000*%
%ADD21RoundRect,0.200000X0.500000X-0.325000X0.500000X0.325000X-0.500000X0.325000X-0.500000X-0.325000X0*%
%ADD22C,1.300000*%
G04 APERTURE END LIST*
D10*
X-9100000Y24275000D03*
D11*
X-30775000Y18475000D03*
X-29175000Y18475000D03*
D12*
X-23500000Y31600000D03*
X-12500000Y31600000D03*
D13*
X-18000000Y31600000D03*
D14*
X-23000000Y27900000D03*
X-18000000Y25700000D03*
D12*
X-5500000Y34000000D03*
D13*
X0Y34000000D03*
D12*
X5500000Y34000000D03*
D14*
X-5000000Y30300000D03*
X0Y28100000D03*
D12*
X41500000Y34000000D03*
D13*
X36000000Y34000000D03*
D12*
X30500000Y34000000D03*
D14*
X31000000Y30300000D03*
X36000000Y28100000D03*
D12*
X59500000Y29000000D03*
D13*
X54000000Y29000000D03*
D12*
X48500000Y29000000D03*
D14*
X49000000Y25300000D03*
X54000000Y23100000D03*
D12*
X66500000Y28000000D03*
D13*
X72000000Y28000000D03*
D12*
X77500000Y28000000D03*
D14*
X67000000Y24300000D03*
X72000000Y22100000D03*
D13*
X-18000000Y14600000D03*
D12*
X-23500000Y14600000D03*
X-12500000Y14600000D03*
D14*
X-23000000Y10900000D03*
X-18000000Y8700000D03*
D13*
X0Y17000000D03*
D12*
X5500000Y17000000D03*
X-5500000Y17000000D03*
D14*
X-5000000Y13300000D03*
X0Y11100000D03*
D12*
X23500000Y18300000D03*
D13*
X18000000Y18300000D03*
D12*
X12500000Y18300000D03*
D14*
X13000000Y14600000D03*
X18000000Y12400000D03*
D13*
X36000000Y17000000D03*
D12*
X30500000Y17000000D03*
X41500000Y17000000D03*
D14*
X31000000Y13300000D03*
X36000000Y11100000D03*
D12*
X77500000Y11000000D03*
D13*
X72000000Y11000000D03*
D12*
X66500000Y11000000D03*
D14*
X67000000Y7300000D03*
X72000000Y5100000D03*
D12*
X-5500000Y0D03*
X5500000Y0D03*
D13*
X0Y0D03*
D14*
X-5000000Y-3700000D03*
X0Y-5900000D03*
D13*
X18000000Y1300000D03*
D12*
X12500000Y1300000D03*
X23500000Y1300000D03*
D14*
X13000000Y-2400000D03*
X18000000Y-4600000D03*
D12*
X41500000Y0D03*
X30500000Y0D03*
D13*
X36000000Y0D03*
D14*
X31000000Y-3700000D03*
X36000000Y-5900000D03*
D12*
X59500000Y-5000000D03*
D13*
X54000000Y-5000000D03*
D12*
X48500000Y-5000000D03*
D14*
X49000000Y-8700000D03*
X54000000Y-10900000D03*
D12*
X-23500000Y-19400000D03*
X-12500000Y-19400000D03*
D13*
X-18000000Y-19400000D03*
D14*
X-23000000Y-23100000D03*
X-18000000Y-25300000D03*
D12*
X12500000Y-15700000D03*
D13*
X18000000Y-15700000D03*
D12*
X23500000Y-15700000D03*
D14*
X13000000Y-19400000D03*
X18000000Y-21600000D03*
D13*
X36000000Y-17000000D03*
D12*
X30500000Y-17000000D03*
X41500000Y-17000000D03*
D14*
X31000000Y-20700000D03*
X36000000Y-22900000D03*
D12*
X59500000Y-22000000D03*
D13*
X54000000Y-22000000D03*
D12*
X48500000Y-22000000D03*
D14*
X49000000Y-25700000D03*
X54000000Y-27900000D03*
D12*
X77500000Y-23000000D03*
X66500000Y-23000000D03*
D13*
X72000000Y-23000000D03*
D14*
X67000000Y-26700000D03*
X72000000Y-28900000D03*
D12*
X-23500000Y-2400000D03*
D13*
X-18000000Y-2400000D03*
D12*
X-12500000Y-2400000D03*
D14*
X-23000000Y-6100000D03*
X-18000000Y-8300000D03*
D13*
X54000000Y12000000D03*
D12*
X48500000Y12000000D03*
X59500000Y12000000D03*
D14*
X49000000Y8300000D03*
X54000000Y6100000D03*
D12*
X77500000Y-6000000D03*
X66500000Y-6000000D03*
D13*
X72000000Y-6000000D03*
D14*
X67000000Y-9700000D03*
X72000000Y-11900000D03*
D12*
X12500000Y-37700000D03*
D13*
X18000000Y-37700000D03*
D12*
X23500000Y-37700000D03*
D14*
X13000000Y-41400000D03*
X18000000Y-43600000D03*
D12*
X12500000Y35300000D03*
D13*
X18000000Y35300000D03*
D12*
X23500000Y35300000D03*
D14*
X13000000Y31600000D03*
X18000000Y29400000D03*
D12*
X5500000Y-17000000D03*
X-5500000Y-17000000D03*
D13*
X0Y-17000000D03*
D14*
X-5000000Y-20700000D03*
X0Y-22900000D03*
D15*
X-50400000Y35875000D03*
X-52150000Y35875000D03*
D12*
X-20636860Y-41950000D03*
X-30163140Y-36450000D03*
D13*
X-25400000Y-39200000D03*
D14*
X-31580127Y-39904294D03*
X-28350000Y-44309550D03*
D15*
X-34700000Y35900000D03*
X-36450000Y35900000D03*
D16*
X-47700000Y-12000000D03*
D14*
X-47700000Y-17000000D03*
X-47700000Y-14500000D03*
D17*
X-40200000Y-20100000D03*
X-40200000Y-8900000D03*
D14*
X-33200000Y-17000000D03*
X-33200000Y-12000000D03*
D12*
X5400000Y-39000000D03*
D13*
X-100000Y-39000000D03*
D12*
X-5600000Y-39000000D03*
D14*
X-5100000Y-42700000D03*
X-100000Y-44900000D03*
D10*
X63000000Y20175000D03*
X-43275000Y26400000D03*
X-9000000Y-9725000D03*
X-28775000Y-25400000D03*
X63000000Y-14025000D03*
D18*
X-38124400Y38551800D03*
X-38125000Y34306000D03*
X-49275600Y34043300D03*
X-38124700Y37624700D03*
X-49275300Y37612000D03*
X-49275300Y37319900D03*
X-38124700Y38272400D03*
X-38125000Y34043300D03*
X-49275000Y38539100D03*
X-38125000Y33544000D03*
X-38124700Y37332600D03*
X-49275300Y37954900D03*
X-38124700Y33789300D03*
X-49275300Y33789300D03*
X-49275600Y34306000D03*
X-49275300Y38259700D03*
X-49275600Y33544000D03*
X-38124700Y37967600D03*
D19*
X-27775000Y25100000D03*
D20*
X-27775000Y27640000D03*
X-27775000Y30180000D03*
X-27775000Y32720000D03*
D21*
X-30880045Y25032000D03*
X-30880045Y26302000D03*
D22*
X-51125000Y24300000D03*
X-51125000Y27300000D03*
M02*
