G04 #@! TF.GenerationSoftware,KiCad,Pcbnew,(5.99.0-7554-g937713dbbc)*
G04 #@! TF.CreationDate,2021-01-23T12:32:44-07:00*
G04 #@! TF.ProjectId,BlueSof,426c7565-536f-4662-9e6b-696361645f70,rev?*
G04 #@! TF.SameCoordinates,PX85099e0PY51bada0*
G04 #@! TF.FileFunction,Legend,Top*
G04 #@! TF.FilePolarity,Positive*
%FSLAX46Y46*%
G04 Gerber Fmt 4.6, Leading zero omitted, Abs format (unit mm)*
G04 Created by KiCad (PCBNEW (5.99.0-7554-g937713dbbc)) date 2021-01-23 12:32:44*
%MOMM*%
%LPD*%
G01*
G04 APERTURE LIST*
%ADD10C,0.200000*%
%ADD11C,0.150000*%
%ADD12C,0.120000*%
G04 APERTURE END LIST*
D10*
X55726187Y39492014D02*
X55873201Y39415695D01*
X55916743Y39355765D01*
X55952091Y39244099D01*
X55927508Y39088891D01*
X55859384Y38993613D01*
X55799453Y38950071D01*
X55687787Y38914723D01*
X55273899Y38980277D01*
X55445977Y40066734D01*
X55808129Y40009374D01*
X55903407Y39941250D01*
X55946949Y39881320D01*
X55982297Y39769654D01*
X55965908Y39666181D01*
X55897784Y39570903D01*
X55837853Y39527362D01*
X55726187Y39492014D01*
X55364035Y39549373D01*
X56515564Y38783616D02*
X56420286Y38851741D01*
X56384938Y38963407D01*
X56532434Y39894656D01*
X57509796Y39368620D02*
X57395077Y38644315D01*
X57044171Y39442367D02*
X56954035Y38873271D01*
X56989383Y38761605D01*
X57084661Y38693480D01*
X57239869Y38668898D01*
X57351535Y38704245D01*
X57411465Y38747787D01*
X58334520Y38548556D02*
X58222854Y38513208D01*
X58015910Y38545985D01*
X57920632Y38614109D01*
X57885284Y38725775D01*
X57950838Y39139664D01*
X58018962Y39234942D01*
X58130628Y39270290D01*
X58337573Y39237513D01*
X58432850Y39169388D01*
X58468198Y39057722D01*
X58451810Y38954250D01*
X57918061Y38932720D01*
X58800145Y38474808D02*
X58947159Y38398489D01*
X59205839Y38357518D01*
X59317505Y38392866D01*
X59377436Y38436408D01*
X59445560Y38531686D01*
X59461948Y38635158D01*
X59426601Y38746824D01*
X59383059Y38806755D01*
X59287781Y38874879D01*
X59089031Y38959392D01*
X58993753Y39027516D01*
X58950211Y39087446D01*
X58914863Y39199113D01*
X58931252Y39302585D01*
X58999376Y39397863D01*
X59059306Y39441405D01*
X59170973Y39476752D01*
X59429653Y39435781D01*
X59576667Y39359463D01*
X60033616Y38226411D02*
X59938338Y38294536D01*
X59894796Y38354466D01*
X59859448Y38466132D01*
X59908614Y38776549D01*
X59976738Y38871827D01*
X60036668Y38915369D01*
X60148334Y38950716D01*
X60303543Y38926134D01*
X60398821Y38858009D01*
X60442362Y38798079D01*
X60477710Y38686413D01*
X60428545Y38375996D01*
X60360421Y38280718D01*
X60300490Y38237177D01*
X60188824Y38201829D01*
X60033616Y38226411D01*
X60820903Y38844192D02*
X61234792Y38778638D01*
X60861393Y38095304D02*
X61008888Y39026553D01*
X61077013Y39121831D01*
X61188679Y39157179D01*
X61292151Y39140791D01*
X62321249Y38606560D02*
X62465211Y37841285D01*
X62838609Y38524619D01*
X63241733Y38725940D02*
X63301663Y38769481D01*
X63413329Y38804829D01*
X63672010Y38763858D01*
X63767287Y38695734D01*
X63810829Y38635803D01*
X63846177Y38524137D01*
X63829789Y38420665D01*
X63753470Y38273651D01*
X63034307Y37751149D01*
X63706876Y37644624D01*
X65000277Y37439770D02*
X65172355Y38526227D01*
X65106802Y38112338D02*
X65218468Y38147686D01*
X65425412Y38114909D01*
X65520690Y38046785D01*
X65564232Y37986855D01*
X65599580Y37875188D01*
X65550415Y37564772D01*
X65482290Y37469494D01*
X65422360Y37425952D01*
X65310694Y37390604D01*
X65103749Y37423381D01*
X65008471Y37491506D01*
X65994509Y38024773D02*
X66138470Y37259497D01*
X66511869Y37942831D02*
X66138470Y37259497D01*
X65994027Y37017206D01*
X65934097Y36973664D01*
X65822431Y36938316D01*
X67728952Y37590963D02*
X68091105Y37533603D01*
X68156177Y36939924D02*
X67638816Y37021866D01*
X67810894Y38108323D01*
X68328255Y38026381D01*
X69242634Y36767846D02*
X68962423Y37342566D01*
X68621801Y36866177D02*
X68793879Y37952634D01*
X69207768Y37887080D01*
X69303045Y37818956D01*
X69346587Y37759026D01*
X69381935Y37647359D01*
X69357352Y37492151D01*
X69289228Y37396873D01*
X69229298Y37353331D01*
X69117631Y37317984D01*
X68703743Y37383537D01*
X70225619Y36612157D02*
X69708258Y36694099D01*
X69880336Y37780556D01*
D11*
X-9861905Y29122620D02*
X-9861905Y30122620D01*
X-9861905Y29646429D02*
X-9290477Y29646429D01*
X-9290477Y29122620D02*
X-9290477Y30122620D01*
X-8338096Y30122620D02*
X-8814286Y30122620D01*
X-8861905Y29646429D01*
X-8814286Y29694048D01*
X-8719048Y29741667D01*
X-8480953Y29741667D01*
X-8385715Y29694048D01*
X-8338096Y29646429D01*
X-8290477Y29551191D01*
X-8290477Y29313096D01*
X-8338096Y29217858D01*
X-8385715Y29170239D01*
X-8480953Y29122620D01*
X-8719048Y29122620D01*
X-8814286Y29170239D01*
X-8861905Y29217858D01*
X-53022620Y34660715D02*
X-54022620Y34660715D01*
X-54022620Y34898810D01*
X-53975000Y35041667D01*
X-53879762Y35136905D01*
X-53784524Y35184524D01*
X-53594048Y35232143D01*
X-53451191Y35232143D01*
X-53260715Y35184524D01*
X-53165477Y35136905D01*
X-53070239Y35041667D01*
X-53022620Y34898810D01*
X-53022620Y34660715D01*
X-54022620Y35565477D02*
X-54022620Y36184524D01*
X-53641667Y35851191D01*
X-53641667Y35994048D01*
X-53594048Y36089286D01*
X-53546429Y36136905D01*
X-53451191Y36184524D01*
X-53213096Y36184524D01*
X-53117858Y36136905D01*
X-53070239Y36089286D01*
X-53022620Y35994048D01*
X-53022620Y35708334D01*
X-53070239Y35613096D01*
X-53117858Y35565477D01*
X-53927381Y36565477D02*
X-53975000Y36613096D01*
X-54022620Y36708334D01*
X-54022620Y36946429D01*
X-53975000Y37041667D01*
X-53927381Y37089286D01*
X-53832143Y37136905D01*
X-53736905Y37136905D01*
X-53594048Y37089286D01*
X-53022620Y36517858D01*
X-53022620Y37136905D01*
X-33589286Y35447620D02*
X-33589286Y36447620D01*
X-33351191Y36447620D01*
X-33208334Y36400000D01*
X-33113096Y36304762D01*
X-33065477Y36209524D01*
X-33017858Y36019048D01*
X-33017858Y35876191D01*
X-33065477Y35685715D01*
X-33113096Y35590477D01*
X-33208334Y35495239D01*
X-33351191Y35447620D01*
X-33589286Y35447620D01*
X-32684524Y36447620D02*
X-32065477Y36447620D01*
X-32398810Y36066667D01*
X-32255953Y36066667D01*
X-32160715Y36019048D01*
X-32113096Y35971429D01*
X-32065477Y35876191D01*
X-32065477Y35638096D01*
X-32113096Y35542858D01*
X-32160715Y35495239D01*
X-32255953Y35447620D01*
X-32541667Y35447620D01*
X-32636905Y35495239D01*
X-32684524Y35542858D01*
X-31113096Y35447620D02*
X-31684524Y35447620D01*
X-31398810Y35447620D02*
X-31398810Y36447620D01*
X-31494048Y36304762D01*
X-31589286Y36209524D01*
X-31684524Y36161905D01*
X-46409524Y-9329761D02*
X-46266667Y-9377380D01*
X-46028572Y-9377380D01*
X-45933334Y-9329761D01*
X-45885715Y-9282142D01*
X-45838096Y-9186904D01*
X-45838096Y-9091666D01*
X-45885715Y-8996428D01*
X-45933334Y-8948809D01*
X-46028572Y-8901190D01*
X-46219048Y-8853571D01*
X-46314286Y-8805952D01*
X-46361905Y-8758333D01*
X-46409524Y-8663095D01*
X-46409524Y-8567857D01*
X-46361905Y-8472619D01*
X-46314286Y-8425000D01*
X-46219048Y-8377380D01*
X-45980953Y-8377380D01*
X-45838096Y-8425000D01*
X-45504762Y-8377380D02*
X-45266667Y-9377380D01*
X-45076191Y-8663095D01*
X-44885715Y-9377380D01*
X-44647620Y-8377380D01*
X-44314286Y-8472619D02*
X-44266667Y-8425000D01*
X-44171429Y-8377380D01*
X-43933334Y-8377380D01*
X-43838096Y-8425000D01*
X-43790477Y-8472619D01*
X-43742858Y-8567857D01*
X-43742858Y-8663095D01*
X-43790477Y-8805952D01*
X-44361905Y-9377380D01*
X-43742858Y-9377380D01*
X-42838096Y-8377380D02*
X-43314286Y-8377380D01*
X-43361905Y-8853571D01*
X-43314286Y-8805952D01*
X-43219048Y-8758333D01*
X-42980953Y-8758333D01*
X-42885715Y-8805952D01*
X-42838096Y-8853571D01*
X-42790477Y-8948809D01*
X-42790477Y-9186904D01*
X-42838096Y-9282142D01*
X-42885715Y-9329761D01*
X-42980953Y-9377380D01*
X-43219048Y-9377380D01*
X-43314286Y-9329761D01*
X-43361905Y-9282142D01*
X62238095Y25022620D02*
X62238095Y26022620D01*
X62238095Y25546429D02*
X62809523Y25546429D01*
X62809523Y25022620D02*
X62809523Y26022620D01*
X63714285Y26022620D02*
X63523809Y26022620D01*
X63428571Y25975000D01*
X63380952Y25927381D01*
X63285714Y25784524D01*
X63238095Y25594048D01*
X63238095Y25213096D01*
X63285714Y25117858D01*
X63333333Y25070239D01*
X63428571Y25022620D01*
X63619047Y25022620D01*
X63714285Y25070239D01*
X63761904Y25117858D01*
X63809523Y25213096D01*
X63809523Y25451191D01*
X63761904Y25546429D01*
X63714285Y25594048D01*
X63619047Y25641667D01*
X63428571Y25641667D01*
X63333333Y25594048D01*
X63285714Y25546429D01*
X63238095Y25451191D01*
X-44036905Y31247620D02*
X-44036905Y32247620D01*
X-44036905Y31771429D02*
X-43465477Y31771429D01*
X-43465477Y31247620D02*
X-43465477Y32247620D01*
X-42560715Y31914286D02*
X-42560715Y31247620D01*
X-42798810Y32295239D02*
X-43036905Y31580953D01*
X-42417858Y31580953D01*
X-9761905Y-4877380D02*
X-9761905Y-3877380D01*
X-9761905Y-4353571D02*
X-9190477Y-4353571D01*
X-9190477Y-4877380D02*
X-9190477Y-3877380D01*
X-8190477Y-4877380D02*
X-8761905Y-4877380D01*
X-8476191Y-4877380D02*
X-8476191Y-3877380D01*
X-8571429Y-4020238D01*
X-8666667Y-4115476D01*
X-8761905Y-4163095D01*
X-29536905Y-20552380D02*
X-29536905Y-19552380D01*
X-29536905Y-20028571D02*
X-28965477Y-20028571D01*
X-28965477Y-20552380D02*
X-28965477Y-19552380D01*
X-28536905Y-19647619D02*
X-28489286Y-19600000D01*
X-28394048Y-19552380D01*
X-28155953Y-19552380D01*
X-28060715Y-19600000D01*
X-28013096Y-19647619D01*
X-27965477Y-19742857D01*
X-27965477Y-19838095D01*
X-28013096Y-19980952D01*
X-28584524Y-20552380D01*
X-27965477Y-20552380D01*
X62238095Y-9177380D02*
X62238095Y-8177380D01*
X62238095Y-8653571D02*
X62809523Y-8653571D01*
X62809523Y-9177380D02*
X62809523Y-8177380D01*
X63190476Y-8177380D02*
X63809523Y-8177380D01*
X63476190Y-8558333D01*
X63619047Y-8558333D01*
X63714285Y-8605952D01*
X63761904Y-8653571D01*
X63809523Y-8748809D01*
X63809523Y-8986904D01*
X63761904Y-9082142D01*
X63714285Y-9129761D01*
X63619047Y-9177380D01*
X63333333Y-9177380D01*
X63238095Y-9129761D01*
X63190476Y-9082142D01*
D12*
X-49615000Y35140000D02*
X-49615000Y36610000D01*
X-52075000Y35140000D02*
X-49615000Y35140000D01*
X-49615000Y36610000D02*
X-52075000Y36610000D01*
X-36375000Y35165000D02*
X-33915000Y35165000D01*
X-33915000Y36635000D02*
X-36375000Y36635000D01*
X-33915000Y35165000D02*
X-33915000Y36635000D01*
X-42200000Y-8600000D02*
X-46300000Y-8600000D01*
X-34100000Y-20400000D02*
X-38200000Y-20400000D01*
X-34100000Y-8600000D02*
X-34100000Y-11000000D01*
X-34100000Y-18000000D02*
X-34100000Y-20400000D01*
X-40700000Y-14500000D02*
X-39700000Y-14500000D01*
X-48000000Y-10400000D02*
X-47400000Y-10400000D01*
X-34100000Y-13200000D02*
X-34100000Y-15800000D01*
X-47400000Y-10400000D02*
X-47700000Y-10700000D01*
X-40200000Y-14000000D02*
X-40200000Y-15000000D01*
X-47700000Y-10700000D02*
X-48000000Y-10400000D01*
X-46300000Y-8600000D02*
X-46300000Y-20400000D01*
X-42200000Y-20400000D02*
X-46300000Y-20400000D01*
X-38200000Y-8600000D02*
X-34100000Y-8600000D01*
X-37200000Y-14500000D02*
G75*
G03*
X-37200000Y-14500000I-3000000J0D01*
G01*
M02*
