M48
; DRILL file {KiCad (5.99.0-8557-g8988e46ab1)} date Sunday, January 24, 2021 at 11:22:28 PM
; FORMAT={-:-/ absolute / inch / decimal}
; #@! TF.CreationDate,2021-01-24T23:22:28-07:00
; #@! TF.GenerationSoftware,Kicad,Pcbnew,(5.99.0-8557-g8988e46ab1)
; #@! TF.FileFunction,Plated,1,2,PTH
FMAT,2
INCH
T1C0.0118
T2C0.0130
T3C0.0236
T4C0.0394
T5C0.0472
T6C0.0591
%
G90
G05
T1
X-1.2157Y1.0355
X-1.2157Y0.9855
T2
X-2.0266Y0.5433
X-2.0108Y1.4764
X-2.003Y0.7205
X-1.9872Y-0.3622
X-1.9134Y1.1594
X-1.8996Y0.8169
X-1.8967Y0.874
X-1.8691Y-1.3071
X-1.8406Y0.6496
X-1.814Y1.2992
X-1.7825Y0.7638
X-1.7717Y1.1713
X-1.7638Y1.2382
X-1.751Y-0.4409
X-1.6929Y1.2382
X-1.6929Y0.5512
X-1.6634Y0.7579
X-1.6329Y-0.9528
X-1.625Y1.2992
X-1.5935Y0.5827
X-1.4754Y1.0157
X-1.4754Y0.8189
X-1.4272Y1.2008
X-1.3967Y1.4882
X-1.3967Y0.7219
X-1.3583Y0.7185
X-1.3573Y-1.4252
X-1.3455Y1.3583
X-1.3406Y0.9016
X-1.3287Y0.561
X-1.2195Y0.8898
X-1.2008Y1.25
X-1.1811Y0.8661
X-1.1693Y-0.3406
X-1.088Y0.8909
X-1.0502Y0.7628
X-1.0344Y-0.4961
X-1.0138Y0.8949
X-0.999Y1.1709
X-0.9911Y-0.7008
X-0.935Y0.7509
X-0.9252Y1.3386
X-0.9242Y0.9764
X-0.9242Y-0.0079
X-0.9242Y-0.5197
X-0.9242Y-0.6772
X-0.8888Y1.1811
X-0.874Y0.5217
X-0.8701Y0.7539
X-0.8622Y0.624
X-0.8061Y0.8583
X-0.7431Y1.1457
X-0.6486Y0.937
X-0.6486Y-1.6614
X-0.6132Y1.3346
X-0.5856Y1.2441
X-0.5699Y0.5827
X-0.562Y0.7795
X-0.4911Y0.9764
X-0.4124Y-0.0866
X-0.373Y1.4094
X-0.373Y-0.7559
X0.1388Y1.4094
X0.2963Y0.6614
X0.2963Y-0.0079
X0.2963Y-0.6772
X0.2963Y-1.5433
X0.5719Y1.4094
X1.0049Y0.0315
X1.0049Y-0.6378
X1.0049Y-1.4646
X1.0443Y1.4094
X1.0443Y0.8583
X1.0443Y0.7008
X1.5955Y1.4094
X1.7136Y-0.0079
X1.7136Y-0.6772
X1.753Y0.6614
X2.0866Y0.7579
X2.2244Y0.7579
X2.4222Y0.4646
X2.4222Y-0.874
X2.4616Y1.1339
X2.4616Y-0.2047
X2.9734Y1.0945
X3.1309Y0.4252
X3.1309Y-0.2441
X3.1309Y-0.9134
T3
X-1.94Y1.3506
X-1.94Y1.3403
X-1.94Y1.3206
X-1.94Y1.5063
X-1.94Y1.4943
X-1.94Y1.4808
X-1.94Y1.4693
X-1.94Y1.3303
X-1.94Y1.5173
X-1.501Y1.3506
X-1.501Y1.3403
X-1.501Y1.3206
X-1.501Y1.5068
X-1.501Y1.4948
X-1.501Y1.4813
X-1.501Y1.4698
X-1.501Y1.3303
X-1.501Y1.5178
T4
X-1.878Y-0.4724
X-1.878Y-0.5709
X-1.878Y-0.6693
X-1.3071Y-0.4724
X-1.3071Y-0.6693
X-1.247Y0.6555
X-1.247Y0.5925
X-1.0935Y1.2882
X-1.0935Y1.1882
X-1.0935Y1.0882
X-1.0935Y0.9882
T5
X-1.2433Y-1.571
X-1.1161Y-1.7445
X-0.9055Y1.0984
X-0.9055Y0.4291
X-0.9055Y-0.2402
X-0.9055Y-0.9094
X-0.7087Y1.0118
X-0.7087Y0.3425
X-0.7087Y-0.3268
X-0.7087Y-0.9961
X-0.2008Y-1.6811
X-0.1969Y1.1929
X-0.1969Y0.5236
X-0.1969Y-0.1457
X-0.1969Y-0.815
X-0.0039Y-1.7677
X0.0Y1.1063
X0.0Y0.437
X0.0Y-0.2323
X0.0Y-0.9016
X0.5118Y1.2441
X0.5118Y0.5748
X0.5118Y-0.0945
X0.5118Y-0.7638
X0.5118Y-1.6299
X0.7087Y1.1575
X0.7087Y0.4882
X0.7087Y-0.1811
X0.7087Y-0.8504
X0.7087Y-1.7165
X1.2205Y1.1929
X1.2205Y0.5236
X1.2205Y-0.1457
X1.2205Y-0.815
X1.4173Y1.1063
X1.4173Y0.437
X1.4173Y-0.2323
X1.4173Y-0.9016
X1.9291Y0.9961
X1.9291Y0.3268
X1.9291Y-0.3425
X1.9291Y-1.0118
X2.126Y0.9094
X2.126Y0.2402
X2.126Y-0.4291
X2.126Y-1.0984
X2.6378Y0.9567
X2.6378Y0.2874
X2.6378Y-0.3819
X2.6378Y-1.0512
X2.8346Y0.8701
X2.8346Y0.2008
X2.8346Y-0.4685
X2.8346Y-1.1378
T6
G00X-1.6083Y-0.3504
M15
G01X-1.5571Y-0.3504
M16
G05
G00X-1.6083Y-0.7913
M15
G01X-1.5571Y-0.7913
M16
G05
T0
M30
