G04 #@! TF.GenerationSoftware,KiCad,Pcbnew,(5.99.0-8557-g8988e46ab1)*
G04 #@! TF.CreationDate,2021-01-24T23:22:25-07:00*
G04 #@! TF.ProjectId,BlueSof,426c7565-536f-4662-9e6b-696361645f70,rev?*
G04 #@! TF.SameCoordinates,PX85099e0PY51bada0*
G04 #@! TF.FileFunction,Legend,Top*
G04 #@! TF.FilePolarity,Positive*
%FSLAX46Y46*%
G04 Gerber Fmt 4.6, Leading zero omitted, Abs format (unit mm)*
G04 Created by KiCad (PCBNEW (5.99.0-8557-g8988e46ab1)) date 2021-01-24 23:22:25*
%MOMM*%
%LPD*%
G01*
G04 APERTURE LIST*
%ADD10C,0.200000*%
%ADD11C,0.150000*%
%ADD12C,0.120000*%
G04 APERTURE END LIST*
D10*
X40688668Y41933229D02*
X40826899Y41841962D01*
X40863938Y41777808D01*
X40887419Y41663059D01*
X40846748Y41511271D01*
X40769037Y41423636D01*
X40704884Y41386597D01*
X40590135Y41363115D01*
X40185366Y41471572D01*
X40470067Y42534091D01*
X40824239Y42439191D01*
X40911874Y42361480D01*
X40948913Y42297327D01*
X40972395Y42182577D01*
X40945281Y42081385D01*
X40867570Y41993750D01*
X40803417Y41956711D01*
X40688668Y41933229D01*
X40334495Y42028130D01*
X41399672Y41146200D02*
X41312037Y41223910D01*
X41288556Y41338660D01*
X41532585Y42249390D01*
X42449607Y41624073D02*
X42259806Y40915728D01*
X41994242Y41746088D02*
X41845113Y41189531D01*
X41868595Y41074781D01*
X41956230Y40997071D01*
X42108018Y40956399D01*
X42222767Y40979881D01*
X42286921Y41016920D01*
X43184094Y40722295D02*
X43069344Y40698813D01*
X42866960Y40753042D01*
X42779325Y40830752D01*
X42755843Y40945501D01*
X42864300Y41350270D01*
X42942011Y41437905D01*
X43056760Y41461387D01*
X43259145Y41407158D01*
X43346780Y41329448D01*
X43370262Y41214698D01*
X43343147Y41113506D01*
X42810072Y41147886D01*
X43639459Y40600280D02*
X43777690Y40509012D01*
X44030670Y40441226D01*
X44145420Y40464708D01*
X44209573Y40501747D01*
X44287284Y40589382D01*
X44314398Y40690574D01*
X44290916Y40805324D01*
X44253877Y40869477D01*
X44166242Y40947187D01*
X43977415Y41052012D01*
X43889780Y41129723D01*
X43852741Y41193876D01*
X43829259Y41308625D01*
X43856374Y41409818D01*
X43934084Y41497453D01*
X43998237Y41534492D01*
X44112987Y41557973D01*
X44365967Y41490187D01*
X44504199Y41398920D01*
X44840208Y40224311D02*
X44752573Y40302022D01*
X44715534Y40366175D01*
X44692053Y40480924D01*
X44773396Y40784501D01*
X44851106Y40872136D01*
X44915259Y40909175D01*
X45030009Y40932657D01*
X45181797Y40891985D01*
X45269432Y40814275D01*
X45306471Y40750121D01*
X45329953Y40635372D01*
X45248610Y40331795D01*
X45170899Y40244160D01*
X45106746Y40207121D01*
X44991997Y40183640D01*
X44840208Y40224311D01*
X45687758Y40756413D02*
X46092527Y40647956D01*
X45649746Y40007396D02*
X45893775Y40918126D01*
X45971486Y41005761D01*
X46086235Y41029243D01*
X46187428Y41002129D01*
X47199350Y40730985D02*
X47268822Y39573566D01*
X47907696Y40541184D01*
X48184158Y40358649D02*
X48248311Y40395688D01*
X48363061Y40419170D01*
X48616041Y40351384D01*
X48703676Y40273673D01*
X48740715Y40209520D01*
X48764197Y40094770D01*
X48737082Y39993578D01*
X48645815Y39855347D01*
X47875975Y39410880D01*
X48533725Y39234636D01*
X49798627Y38895707D02*
X50083328Y39958225D01*
X49974871Y39553456D02*
X50089620Y39576938D01*
X50292005Y39522709D01*
X50379640Y39444999D01*
X50416679Y39380845D01*
X50440161Y39266096D01*
X50358817Y38962519D01*
X50281107Y38874884D01*
X50216954Y38837845D01*
X50102204Y38814364D01*
X49899820Y38868592D01*
X49812185Y38946303D01*
X50848562Y39373580D02*
X50911742Y38597449D01*
X51354523Y39238008D02*
X50911742Y38597449D01*
X50742764Y38371582D01*
X50678611Y38334543D01*
X50563861Y38311062D01*
X52528158Y38760847D02*
X52882331Y38665947D01*
X52884990Y38068718D02*
X52379029Y38204290D01*
X52663730Y39266809D01*
X53169691Y39131237D01*
X53947509Y37784017D02*
X53728908Y38384879D01*
X53340356Y37946704D02*
X53625056Y39009222D01*
X54029825Y38900764D01*
X54117460Y38823054D01*
X54154499Y38758901D01*
X54177981Y38644151D01*
X54137310Y38492363D01*
X54059599Y38404728D01*
X53995446Y38367689D01*
X53880696Y38344207D01*
X53475927Y38452665D01*
X54908835Y37526431D02*
X54402874Y37662003D01*
X54687575Y38724521D01*
D11*
X-20566667Y17092858D02*
X-20614286Y17045239D01*
X-20757143Y16997620D01*
X-20852381Y16997620D01*
X-20995239Y17045239D01*
X-21090477Y17140477D01*
X-21138096Y17235715D01*
X-21185715Y17426191D01*
X-21185715Y17569048D01*
X-21138096Y17759524D01*
X-21090477Y17854762D01*
X-20995239Y17950000D01*
X-20852381Y17997620D01*
X-20757143Y17997620D01*
X-20614286Y17950000D01*
X-20566667Y17902381D01*
X-19709524Y17664286D02*
X-19709524Y16997620D01*
X-19947620Y18045239D02*
X-20185715Y17330953D01*
X-19566667Y17330953D01*
X-25566667Y17092858D02*
X-25614286Y17045239D01*
X-25757143Y16997620D01*
X-25852381Y16997620D01*
X-25995239Y17045239D01*
X-26090477Y17140477D01*
X-26138096Y17235715D01*
X-26185715Y17426191D01*
X-26185715Y17569048D01*
X-26138096Y17759524D01*
X-26090477Y17854762D01*
X-25995239Y17950000D01*
X-25852381Y17997620D01*
X-25757143Y17997620D01*
X-25614286Y17950000D01*
X-25566667Y17902381D01*
X-25233334Y17997620D02*
X-24614286Y17997620D01*
X-24947620Y17616667D01*
X-24804762Y17616667D01*
X-24709524Y17569048D01*
X-24661905Y17521429D01*
X-24614286Y17426191D01*
X-24614286Y17188096D01*
X-24661905Y17092858D01*
X-24709524Y17045239D01*
X-24804762Y16997620D01*
X-25090477Y16997620D01*
X-25185715Y17045239D01*
X-25233334Y17092858D01*
X-52714286Y36797620D02*
X-52714286Y37797620D01*
X-52476191Y37797620D01*
X-52333334Y37750000D01*
X-52238096Y37654762D01*
X-52190477Y37559524D01*
X-52142858Y37369048D01*
X-52142858Y37226191D01*
X-52190477Y37035715D01*
X-52238096Y36940477D01*
X-52333334Y36845239D01*
X-52476191Y36797620D01*
X-52714286Y36797620D01*
X-51809524Y37797620D02*
X-51190477Y37797620D01*
X-51523810Y37416667D01*
X-51380953Y37416667D01*
X-51285715Y37369048D01*
X-51238096Y37321429D01*
X-51190477Y37226191D01*
X-51190477Y36988096D01*
X-51238096Y36892858D01*
X-51285715Y36845239D01*
X-51380953Y36797620D01*
X-51666667Y36797620D01*
X-51761905Y36845239D01*
X-51809524Y36892858D01*
X-50809524Y37702381D02*
X-50761905Y37750000D01*
X-50666667Y37797620D01*
X-50428572Y37797620D01*
X-50333334Y37750000D01*
X-50285715Y37702381D01*
X-50238096Y37607143D01*
X-50238096Y37511905D01*
X-50285715Y37369048D01*
X-50857143Y36797620D01*
X-50238096Y36797620D01*
X-36314286Y36897620D02*
X-36314286Y37897620D01*
X-36076191Y37897620D01*
X-35933334Y37850000D01*
X-35838096Y37754762D01*
X-35790477Y37659524D01*
X-35742858Y37469048D01*
X-35742858Y37326191D01*
X-35790477Y37135715D01*
X-35838096Y37040477D01*
X-35933334Y36945239D01*
X-36076191Y36897620D01*
X-36314286Y36897620D01*
X-35409524Y37897620D02*
X-34790477Y37897620D01*
X-35123810Y37516667D01*
X-34980953Y37516667D01*
X-34885715Y37469048D01*
X-34838096Y37421429D01*
X-34790477Y37326191D01*
X-34790477Y37088096D01*
X-34838096Y36992858D01*
X-34885715Y36945239D01*
X-34980953Y36897620D01*
X-35266667Y36897620D01*
X-35361905Y36945239D01*
X-35409524Y36992858D01*
X-33838096Y36897620D02*
X-34409524Y36897620D01*
X-34123810Y36897620D02*
X-34123810Y37897620D01*
X-34219048Y37754762D01*
X-34314286Y37659524D01*
X-34409524Y37611905D01*
X-46109524Y-19954761D02*
X-45966667Y-20002380D01*
X-45728572Y-20002380D01*
X-45633334Y-19954761D01*
X-45585715Y-19907142D01*
X-45538096Y-19811904D01*
X-45538096Y-19716666D01*
X-45585715Y-19621428D01*
X-45633334Y-19573809D01*
X-45728572Y-19526190D01*
X-45919048Y-19478571D01*
X-46014286Y-19430952D01*
X-46061905Y-19383333D01*
X-46109524Y-19288095D01*
X-46109524Y-19192857D01*
X-46061905Y-19097619D01*
X-46014286Y-19050000D01*
X-45919048Y-19002380D01*
X-45680953Y-19002380D01*
X-45538096Y-19050000D01*
X-45204762Y-19002380D02*
X-44966667Y-20002380D01*
X-44776191Y-19288095D01*
X-44585715Y-20002380D01*
X-44347620Y-19002380D01*
X-44014286Y-19097619D02*
X-43966667Y-19050000D01*
X-43871429Y-19002380D01*
X-43633334Y-19002380D01*
X-43538096Y-19050000D01*
X-43490477Y-19097619D01*
X-43442858Y-19192857D01*
X-43442858Y-19288095D01*
X-43490477Y-19430952D01*
X-44061905Y-20002380D01*
X-43442858Y-20002380D01*
X-42538096Y-19002380D02*
X-43014286Y-19002380D01*
X-43061905Y-19478571D01*
X-43014286Y-19430952D01*
X-42919048Y-19383333D01*
X-42680953Y-19383333D01*
X-42585715Y-19430952D01*
X-42538096Y-19478571D01*
X-42490477Y-19573809D01*
X-42490477Y-19811904D01*
X-42538096Y-19907142D01*
X-42585715Y-19954761D01*
X-42680953Y-20002380D01*
X-42919048Y-20002380D01*
X-43014286Y-19954761D01*
X-43061905Y-19907142D01*
D12*
X-21590000Y18103733D02*
X-21590000Y18396267D01*
X-22610000Y18103733D02*
X-22610000Y18396267D01*
X-24247500Y18103733D02*
X-24247500Y18396267D01*
X-23227500Y18103733D02*
X-23227500Y18396267D01*
X-49615000Y35140000D02*
X-49615000Y36610000D01*
X-52075000Y35140000D02*
X-49615000Y35140000D01*
X-49615000Y36610000D02*
X-52075000Y36610000D01*
X-36375000Y35165000D02*
X-33915000Y35165000D01*
X-33915000Y36635000D02*
X-36375000Y36635000D01*
X-33915000Y35165000D02*
X-33915000Y36635000D01*
X-46300000Y-8600000D02*
X-46300000Y-20400000D01*
X-47400000Y-10400000D02*
X-47700000Y-10700000D01*
X-34100000Y-8600000D02*
X-34100000Y-11000000D01*
X-40700000Y-14500000D02*
X-39700000Y-14500000D01*
X-48000000Y-10400000D02*
X-47400000Y-10400000D01*
X-42200000Y-20400000D02*
X-46300000Y-20400000D01*
X-38200000Y-8600000D02*
X-34100000Y-8600000D01*
X-47700000Y-10700000D02*
X-48000000Y-10400000D01*
X-34100000Y-18000000D02*
X-34100000Y-20400000D01*
X-40200000Y-14000000D02*
X-40200000Y-15000000D01*
X-34100000Y-20400000D02*
X-38200000Y-20400000D01*
X-34100000Y-13200000D02*
X-34100000Y-15800000D01*
X-42200000Y-8600000D02*
X-46300000Y-8600000D01*
X-37200000Y-14500000D02*
G75*
G03*
X-37200000Y-14500000I-3000000J0D01*
G01*
M02*
