M48
; DRILL file {KiCad (5.99.0-7554-g937713dbbc)} date Saturday, January 23, 2021 at 12:32:47 PM
; FORMAT={-:-/ absolute / inch / decimal}
; #@! TF.CreationDate,2021-01-23T12:32:47-07:00
; #@! TF.GenerationSoftware,Kicad,Pcbnew,(5.99.0-7554-g937713dbbc)
; #@! TF.FileFunction,NonPlated,1,2,NPTH
FMAT,2
INCH
T1C0.0354
T2C0.0748
T3C0.1339
T4C0.1693
%
G90
G05
T1
X-2.0128Y1.0748
X-2.0128Y0.9567
T2
X-1.1875Y-1.435
X-0.9252Y1.2441
X-0.9252Y0.5748
X-0.9252Y-0.0945
X-0.9252Y-0.7638
X-0.8125Y-1.6516
X-0.4921Y1.2441
X-0.4921Y0.5748
X-0.4921Y-0.0945
X-0.4921Y-0.7638
X-0.2205Y-1.5354
X-0.2165Y1.3386
X-0.2165Y0.6693
X-0.2165Y0.0
X-0.2165Y-0.6693
X0.2126Y-1.5354
X0.2165Y1.3386
X0.2165Y0.6693
X0.2165Y0.0
X0.2165Y-0.6693
X0.4921Y1.3898
X0.4921Y0.7205
X0.4921Y0.0512
X0.4921Y-0.6181
X0.4921Y-1.4843
X0.9252Y1.3898
X0.9252Y0.7205
X0.9252Y0.0512
X0.9252Y-0.6181
X0.9252Y-1.4843
X1.2008Y1.3386
X1.2008Y0.6693
X1.2008Y0.0
X1.2008Y-0.6693
X1.6339Y1.3386
X1.6339Y0.6693
X1.6339Y0.0
X1.6339Y-0.6693
X1.9094Y1.1417
X1.9094Y0.4724
X1.9094Y-0.1969
X1.9094Y-0.8661
X2.3425Y1.1417
X2.3425Y0.4724
X2.3425Y-0.1969
X2.3425Y-0.8661
X2.6181Y1.1024
X2.6181Y0.4331
X2.6181Y-0.2362
X2.6181Y-0.9055
X3.0512Y1.1024
X3.0512Y0.4331
X3.0512Y-0.2362
X3.0512Y-0.9055
T3
X-1.0Y-1.5433
X-0.7087Y1.2441
X-0.7087Y0.5748
X-0.7087Y-0.0945
X-0.7087Y-0.7638
X-0.0039Y-1.5354
X0.0Y1.3386
X0.0Y0.6693
X0.0Y0.0
X0.0Y-0.6693
X0.7087Y1.3898
X0.7087Y0.7205
X0.7087Y0.0512
X0.7087Y-0.6181
X0.7087Y-1.4843
X1.4173Y1.3386
X1.4173Y0.6693
X1.4173Y0.0
X1.4173Y-0.6693
X2.126Y1.1417
X2.126Y0.4724
X2.126Y-0.1969
X2.126Y-0.8661
X2.8346Y1.1024
X2.8346Y0.4331
X2.8346Y-0.2362
X2.8346Y-0.9055
T4
X-1.7037Y1.0394
X-1.1329Y-1.0
X-0.3583Y0.9557
X-0.3543Y-0.3829
X2.4803Y0.7943
X2.4803Y-0.5522
T0
M30
