G04 #@! TF.GenerationSoftware,KiCad,Pcbnew,(5.99.0-7554-g937713dbbc)*
G04 #@! TF.CreationDate,2021-01-23T12:32:44-07:00*
G04 #@! TF.ProjectId,BlueSof,426c7565-536f-4662-9e6b-696361645f70,rev?*
G04 #@! TF.SameCoordinates,PX85099e0PY51bada0*
G04 #@! TF.FileFunction,Soldermask,Bot*
G04 #@! TF.FilePolarity,Negative*
%FSLAX46Y46*%
G04 Gerber Fmt 4.6, Leading zero omitted, Abs format (unit mm)*
G04 Created by KiCad (PCBNEW (5.99.0-7554-g937713dbbc)) date 2021-01-23 12:32:44*
%MOMM*%
%LPD*%
G01*
G04 APERTURE LIST*
G04 Aperture macros list*
%AMRoundRect*
0 Rectangle with rounded corners*
0 $1 Rounding radius*
0 $2 $3 $4 $5 $6 $7 $8 $9 X,Y pos of 4 corners*
0 Add a 4 corners polygon primitive as box body*
4,1,4,$2,$3,$4,$5,$6,$7,$8,$9,$2,$3,0*
0 Add four circle primitives for the rounded corners*
1,1,$1+$1,$2,$3,0*
1,1,$1+$1,$4,$5,0*
1,1,$1+$1,$6,$7,0*
1,1,$1+$1,$8,$9,0*
0 Add four rect primitives between the rounded corners*
20,1,$1+$1,$2,$3,$4,$5,0*
20,1,$1+$1,$4,$5,$6,$7,0*
20,1,$1+$1,$6,$7,$8,$9,0*
20,1,$1+$1,$8,$9,$2,$3,0*%
G04 Aperture macros list end*
%ADD10C,4.700000*%
%ADD11RoundRect,0.200000X0.600000X0.900000X-0.600000X0.900000X-0.600000X-0.900000X0.600000X-0.900000X0*%
%ADD12RoundRect,0.200000X0.600000X0.775000X-0.600000X0.775000X-0.600000X-0.775000X0.600000X-0.775000X0*%
%ADD13C,2.300000*%
%ADD14C,3.800000*%
%ADD15C,2.400000*%
%ADD16RoundRect,0.337500X0.350000X0.337500X-0.350000X0.337500X-0.350000X-0.337500X0.350000X-0.337500X0*%
%ADD17RoundRect,0.200000X-1.000000X-1.000000X1.000000X-1.000000X1.000000X1.000000X-1.000000X1.000000X0*%
%ADD18RoundRect,0.200000X-1.600000X-1.000000X1.600000X-1.000000X1.600000X1.000000X-1.600000X1.000000X0*%
%ADD19RoundRect,0.200000X-0.450000X-0.600000X0.450000X-0.600000X0.450000X0.600000X-0.450000X0.600000X0*%
%ADD20RoundRect,0.200000X-0.689711X-0.294615X0.089711X-0.744615X0.689711X0.294615X-0.089711X0.744615X0*%
%ADD21RoundRect,0.200000X0.600000X-0.450000X0.600000X0.450000X-0.600000X0.450000X-0.600000X-0.450000X0*%
%ADD22RoundRect,0.337500X-0.400000X-0.337500X0.400000X-0.337500X0.400000X0.337500X-0.400000X0.337500X0*%
%ADD23RoundRect,0.337500X0.400000X0.337500X-0.400000X0.337500X-0.400000X-0.337500X0.400000X-0.337500X0*%
%ADD24RoundRect,0.337500X-0.337500X0.400000X-0.337500X-0.400000X0.337500X-0.400000X0.337500X0.400000X0*%
%ADD25RoundRect,0.200000X0.270000X0.400000X-0.270000X0.400000X-0.270000X-0.400000X0.270000X-0.400000X0*%
%ADD26RoundRect,0.200000X0.150000X0.400000X-0.150000X0.400000X-0.150000X-0.400000X0.150000X-0.400000X0*%
%ADD27C,1.400000*%
%ADD28RoundRect,0.200000X-0.850000X-0.850000X0.850000X-0.850000X0.850000X0.850000X-0.850000X0.850000X0*%
%ADD29O,2.100000X2.100000*%
%ADD30RoundRect,0.200000X-0.400000X0.450000X-0.400000X-0.450000X0.400000X-0.450000X0.400000X0.450000X0*%
%ADD31RoundRect,0.337500X-0.350000X-0.337500X0.350000X-0.337500X0.350000X0.337500X-0.350000X0.337500X0*%
%ADD32RoundRect,0.337500X-0.337500X0.350000X-0.337500X-0.350000X0.337500X-0.350000X0.337500X0.350000X0*%
%ADD33RoundRect,0.200000X0.850000X-0.450000X0.850000X0.450000X-0.850000X0.450000X-0.850000X-0.450000X0*%
%ADD34RoundRect,0.250000X-0.612500X-0.250000X0.612500X-0.250000X0.612500X0.250000X-0.612500X0.250000X0*%
%ADD35RoundRect,0.250000X-0.250000X0.612500X-0.250000X-0.612500X0.250000X-0.612500X0.250000X0.612500X0*%
%ADD36RoundRect,0.200000X-0.525000X-0.600000X0.525000X-0.600000X0.525000X0.600000X-0.525000X0.600000X0*%
%ADD37RoundRect,0.200000X0.500000X-0.325000X0.500000X0.325000X-0.500000X0.325000X-0.500000X-0.325000X0*%
%ADD38RoundRect,0.200000X-0.325000X-0.500000X0.325000X-0.500000X0.325000X0.500000X-0.325000X0.500000X0*%
%ADD39RoundRect,0.200000X0.500000X0.500000X-0.500000X0.500000X-0.500000X-0.500000X0.500000X-0.500000X0*%
%ADD40C,1.300000*%
%ADD41RoundRect,0.200000X-0.762000X-0.300000X0.762000X-0.300000X0.762000X0.300000X-0.762000X0.300000X0*%
%ADD42RoundRect,0.200000X-0.350000X0.600000X-0.350000X-0.600000X0.350000X-0.600000X0.350000X0.600000X0*%
G04 APERTURE END LIST*
D10*
X-9100000Y24275000D03*
D11*
X-31775000Y14600000D03*
X-28175000Y14600000D03*
D12*
X-30775000Y18475000D03*
X-29175000Y18475000D03*
D13*
X-23500000Y31600000D03*
X-12500000Y31600000D03*
D14*
X-18000000Y31600000D03*
D15*
X-23000000Y27900000D03*
X-18000000Y25700000D03*
D13*
X-5500000Y34000000D03*
D14*
X0Y34000000D03*
D13*
X5500000Y34000000D03*
D15*
X-5000000Y30300000D03*
X0Y28100000D03*
D13*
X41500000Y34000000D03*
D14*
X36000000Y34000000D03*
D13*
X30500000Y34000000D03*
D15*
X31000000Y30300000D03*
X36000000Y28100000D03*
D13*
X59500000Y29000000D03*
D14*
X54000000Y29000000D03*
D13*
X48500000Y29000000D03*
D15*
X49000000Y25300000D03*
X54000000Y23100000D03*
D13*
X66500000Y28000000D03*
D14*
X72000000Y28000000D03*
D13*
X77500000Y28000000D03*
D15*
X67000000Y24300000D03*
X72000000Y22100000D03*
D14*
X-18000000Y14600000D03*
D13*
X-23500000Y14600000D03*
X-12500000Y14600000D03*
D15*
X-23000000Y10900000D03*
X-18000000Y8700000D03*
D14*
X0Y17000000D03*
D13*
X5500000Y17000000D03*
X-5500000Y17000000D03*
D15*
X-5000000Y13300000D03*
X0Y11100000D03*
D13*
X23500000Y18300000D03*
D14*
X18000000Y18300000D03*
D13*
X12500000Y18300000D03*
D15*
X13000000Y14600000D03*
X18000000Y12400000D03*
D14*
X36000000Y17000000D03*
D13*
X30500000Y17000000D03*
X41500000Y17000000D03*
D15*
X31000000Y13300000D03*
X36000000Y11100000D03*
D13*
X77500000Y11000000D03*
D14*
X72000000Y11000000D03*
D13*
X66500000Y11000000D03*
D15*
X67000000Y7300000D03*
X72000000Y5100000D03*
D13*
X-5500000Y0D03*
X5500000Y0D03*
D14*
X0Y0D03*
D15*
X-5000000Y-3700000D03*
X0Y-5900000D03*
D14*
X18000000Y1300000D03*
D13*
X12500000Y1300000D03*
X23500000Y1300000D03*
D15*
X13000000Y-2400000D03*
X18000000Y-4600000D03*
D13*
X41500000Y0D03*
X30500000Y0D03*
D14*
X36000000Y0D03*
D15*
X31000000Y-3700000D03*
X36000000Y-5900000D03*
D13*
X59500000Y-5000000D03*
D14*
X54000000Y-5000000D03*
D13*
X48500000Y-5000000D03*
D15*
X49000000Y-8700000D03*
X54000000Y-10900000D03*
D13*
X-23500000Y-19400000D03*
X-12500000Y-19400000D03*
D14*
X-18000000Y-19400000D03*
D15*
X-23000000Y-23100000D03*
X-18000000Y-25300000D03*
D13*
X12500000Y-15700000D03*
D14*
X18000000Y-15700000D03*
D13*
X23500000Y-15700000D03*
D15*
X13000000Y-19400000D03*
X18000000Y-21600000D03*
D14*
X36000000Y-17000000D03*
D13*
X30500000Y-17000000D03*
X41500000Y-17000000D03*
D15*
X31000000Y-20700000D03*
X36000000Y-22900000D03*
D13*
X59500000Y-22000000D03*
D14*
X54000000Y-22000000D03*
D13*
X48500000Y-22000000D03*
D15*
X49000000Y-25700000D03*
X54000000Y-27900000D03*
D13*
X77500000Y-23000000D03*
X66500000Y-23000000D03*
D14*
X72000000Y-23000000D03*
D15*
X67000000Y-26700000D03*
X72000000Y-28900000D03*
D13*
X-23500000Y-2400000D03*
D14*
X-18000000Y-2400000D03*
D13*
X-12500000Y-2400000D03*
D15*
X-23000000Y-6100000D03*
X-18000000Y-8300000D03*
D14*
X54000000Y12000000D03*
D13*
X48500000Y12000000D03*
X59500000Y12000000D03*
D15*
X49000000Y8300000D03*
X54000000Y6100000D03*
D13*
X77500000Y-6000000D03*
X66500000Y-6000000D03*
D14*
X72000000Y-6000000D03*
D15*
X67000000Y-9700000D03*
X72000000Y-11900000D03*
D13*
X12500000Y-37700000D03*
D14*
X18000000Y-37700000D03*
D13*
X23500000Y-37700000D03*
D15*
X13000000Y-41400000D03*
X18000000Y-43600000D03*
D13*
X12500000Y35300000D03*
D14*
X18000000Y35300000D03*
D13*
X23500000Y35300000D03*
D15*
X13000000Y31600000D03*
X18000000Y29400000D03*
D13*
X5500000Y-17000000D03*
X-5500000Y-17000000D03*
D14*
X0Y-17000000D03*
D15*
X-5000000Y-20700000D03*
X0Y-22900000D03*
D16*
X-23262500Y6600000D03*
X-25087500Y6600000D03*
D13*
X-20636860Y-41950000D03*
X-30163140Y-36450000D03*
D14*
X-25400000Y-39200000D03*
D15*
X-31580127Y-39904294D03*
X-28350000Y-44309550D03*
D17*
X-47700000Y-12000000D03*
D15*
X-47700000Y-17000000D03*
X-47700000Y-14500000D03*
D18*
X-40200000Y-20100000D03*
X-40200000Y-8900000D03*
D15*
X-33200000Y-17000000D03*
X-33200000Y-12000000D03*
D13*
X5400000Y-39000000D03*
D14*
X-100000Y-39000000D03*
D13*
X-5600000Y-39000000D03*
D15*
X-5100000Y-42700000D03*
X-100000Y-44900000D03*
D10*
X63000000Y20175000D03*
X-43275000Y26400000D03*
X-9000000Y-9725000D03*
X-28775000Y-25400000D03*
X63000000Y-14025000D03*
D19*
X-1450000Y38700000D03*
X1850000Y38700000D03*
X16350000Y40050000D03*
X19650000Y40050000D03*
X34350000Y38750000D03*
X37650000Y38750000D03*
X52350000Y33750000D03*
X55650000Y33750000D03*
X70350000Y32750000D03*
X73650000Y32750000D03*
X-19700000Y19350000D03*
X-16400000Y19350000D03*
X-1750000Y21800000D03*
X1550000Y21800000D03*
X16350000Y23050000D03*
X19650000Y23050000D03*
X34300000Y21750000D03*
X37600000Y21750000D03*
X52350000Y16750000D03*
X55650000Y16750000D03*
X70300000Y15750000D03*
X73600000Y15750000D03*
X-1450000Y4800000D03*
X1850000Y4800000D03*
X16350000Y6050000D03*
X19650000Y6050000D03*
X34300000Y4750000D03*
X37600000Y4750000D03*
X52350000Y-250000D03*
X55650000Y-250000D03*
X70300000Y-1250000D03*
X73600000Y-1250000D03*
X-19650000Y-14650000D03*
X-16350000Y-14650000D03*
X-1650000Y-12300000D03*
X1650000Y-12300000D03*
X16550000Y-11000000D03*
X19850000Y-11000000D03*
X34300000Y-12250000D03*
X37600000Y-12250000D03*
X52300000Y-17250000D03*
X55600000Y-17250000D03*
X70350000Y-18250000D03*
X73650000Y-18250000D03*
X-19650000Y2350000D03*
X-16350000Y2350000D03*
X-1650000Y-34200000D03*
X1650000Y-34200000D03*
D20*
X-24401185Y-34325000D03*
X-21543301Y-35975000D03*
D21*
X-29500000Y-19649999D03*
X-29500000Y-16349999D03*
D19*
X-19650000Y36350000D03*
X-16350000Y36350000D03*
X16350000Y-32900000D03*
X19650000Y-32900000D03*
D22*
X-35337500Y14300000D03*
X-33612500Y14300000D03*
D23*
X-20275000Y17375000D03*
X-22000000Y17375000D03*
D24*
X-41275000Y17662500D03*
X-41275000Y15937500D03*
D23*
X-44675000Y14000000D03*
X-46400000Y14000000D03*
D25*
X-46900000Y33025000D03*
X-40500000Y33025000D03*
X-41300000Y33025000D03*
X-46100000Y33025000D03*
D26*
X-44950000Y33025000D03*
X-43950000Y33025000D03*
X-43450000Y33025000D03*
X-42450000Y33025000D03*
X-41950000Y33025000D03*
X-42950000Y33025000D03*
X-44450000Y33025000D03*
X-45458000Y33025000D03*
D27*
X-38124400Y38551800D03*
X-38125000Y34306000D03*
X-49275600Y34043300D03*
X-38124700Y37624700D03*
X-49275300Y37612000D03*
X-49275300Y37319900D03*
X-38124700Y38272400D03*
X-38125000Y34043300D03*
X-49275000Y38539100D03*
X-38125000Y33544000D03*
X-38124700Y37332600D03*
X-49275300Y37954900D03*
X-38124700Y33789300D03*
X-49275300Y33789300D03*
X-49275600Y34306000D03*
X-49275300Y38259700D03*
X-49275600Y33544000D03*
X-38124700Y37967600D03*
D28*
X-27775000Y25100000D03*
D29*
X-27775000Y27640000D03*
X-27775000Y30180000D03*
X-27775000Y32720000D03*
D30*
X-46450000Y17500000D03*
X-44550000Y17500000D03*
X-45500000Y15500000D03*
D16*
X-37462500Y14300000D03*
X-39287500Y14300000D03*
D31*
X-25087500Y8200000D03*
X-23262500Y8200000D03*
D16*
X-47825000Y31400000D03*
X-49650000Y31400000D03*
D31*
X-38987500Y32000000D03*
X-37162500Y32000000D03*
D32*
X-48075000Y17412500D03*
X-48075000Y15587500D03*
D33*
X-50975000Y16500000D03*
X-50975000Y19900000D03*
D34*
X-39512500Y15850000D03*
X-39512500Y16800000D03*
X-39512500Y17750000D03*
X-37237500Y17750000D03*
X-37237500Y15850000D03*
D35*
X-35475000Y18337500D03*
X-34525000Y18337500D03*
X-33575000Y18337500D03*
X-33575000Y16062500D03*
X-35475000Y16062500D03*
D36*
X-23814045Y19137500D03*
X-22164045Y19137500D03*
D22*
X-25475000Y17400000D03*
X-23750000Y17400000D03*
D32*
X-51500000Y34212500D03*
X-51500000Y32387500D03*
D37*
X-20720045Y34430000D03*
X-20720045Y33160000D03*
X-20720045Y31890000D03*
X-20720045Y30620000D03*
X-20720045Y29350000D03*
X-20720045Y28080000D03*
X-20720045Y26810000D03*
X-20720045Y25540000D03*
X-20720045Y24270000D03*
X-20720045Y23000000D03*
D38*
X-22369045Y20781000D03*
X-23639045Y20781000D03*
X-24909045Y20781000D03*
X-26179045Y20781000D03*
X-27449045Y20781000D03*
X-28719045Y20781000D03*
X-29989045Y20781000D03*
X-31259045Y20781000D03*
D37*
X-32958045Y23000000D03*
X-32958045Y24270000D03*
X-30880045Y25032000D03*
X-32958045Y25540000D03*
X-30880045Y26302000D03*
X-32958045Y26810000D03*
X-32958045Y28080000D03*
X-32958045Y29350000D03*
X-32958045Y30620000D03*
X-32958045Y31890000D03*
X-32958045Y33160000D03*
X-32958045Y34430000D03*
D39*
X-44225000Y19500000D03*
X-46725000Y19500000D03*
D32*
X-35475000Y34212500D03*
X-35475000Y32387500D03*
D40*
X-51125000Y24300000D03*
X-51125000Y27300000D03*
D41*
X-48875000Y23550000D03*
X-48875000Y26550000D03*
X-48875000Y28050000D03*
D42*
X-49975000Y29400000D03*
X-52275000Y29400000D03*
X-52275000Y22200000D03*
X-49975000Y22200000D03*
M02*
