G04 #@! TF.GenerationSoftware,KiCad,Pcbnew,(5.99.0-8557-g8988e46ab1)*
G04 #@! TF.CreationDate,2021-02-20T09:12:51-07:00*
G04 #@! TF.ProjectId,BlueSof_R3_Panel,426c7565-536f-4665-9f52-335f50616e65,rev?*
G04 #@! TF.SameCoordinates,PX85099e0PY51bada0*
G04 #@! TF.FileFunction,Legend,Top*
G04 #@! TF.FilePolarity,Positive*
%FSLAX46Y46*%
G04 Gerber Fmt 4.6, Leading zero omitted, Abs format (unit mm)*
G04 Created by KiCad (PCBNEW (5.99.0-8557-g8988e46ab1)) date 2021-02-20 09:12:51*
%MOMM*%
%LPD*%
G01*
G04 APERTURE LIST*
%ADD10C,0.200000*%
%ADD11C,0.150000*%
%ADD12C,0.120000*%
G04 APERTURE END LIST*
D10*
X106541750Y41784480D02*
X106679981Y41693213D01*
X106717020Y41629059D01*
X106740501Y41514310D01*
X106699830Y41362522D01*
X106622119Y41274887D01*
X106557966Y41237848D01*
X106443217Y41214366D01*
X106038448Y41322823D01*
X106323149Y42385342D01*
X106677321Y42290442D01*
X106764956Y42212731D01*
X106801995Y42148578D01*
X106825477Y42033828D01*
X106798363Y41932636D01*
X106720652Y41845001D01*
X106656499Y41807962D01*
X106541750Y41784480D01*
X106187577Y41879381D01*
X107252754Y40997451D02*
X107165119Y41075161D01*
X107141638Y41189911D01*
X107385667Y42100641D01*
X108302689Y41475324D02*
X108112888Y40766979D01*
X107847324Y41597339D02*
X107698195Y41040782D01*
X107721677Y40926032D01*
X107809312Y40848322D01*
X107961100Y40807650D01*
X108075849Y40831132D01*
X108140003Y40868171D01*
X109037176Y40573546D02*
X108922426Y40550064D01*
X108720042Y40604293D01*
X108632407Y40682003D01*
X108608925Y40796752D01*
X108717382Y41201521D01*
X108795093Y41289156D01*
X108909842Y41312638D01*
X109112227Y41258409D01*
X109199862Y41180699D01*
X109223344Y41065949D01*
X109196229Y40964757D01*
X108663154Y40999137D01*
X109492541Y40451531D02*
X109630772Y40360263D01*
X109883752Y40292477D01*
X109998502Y40315959D01*
X110062655Y40352998D01*
X110140366Y40440633D01*
X110167480Y40541825D01*
X110143998Y40656575D01*
X110106959Y40720728D01*
X110019324Y40798438D01*
X109830497Y40903263D01*
X109742862Y40980974D01*
X109705823Y41045127D01*
X109682341Y41159876D01*
X109709456Y41261069D01*
X109787166Y41348704D01*
X109851319Y41385743D01*
X109966069Y41409224D01*
X110219049Y41341438D01*
X110357281Y41250171D01*
X110693290Y40075562D02*
X110605655Y40153273D01*
X110568616Y40217426D01*
X110545135Y40332175D01*
X110626478Y40635752D01*
X110704188Y40723387D01*
X110768341Y40760426D01*
X110883091Y40783908D01*
X111034879Y40743236D01*
X111122514Y40665526D01*
X111159553Y40601372D01*
X111183035Y40486623D01*
X111101692Y40183046D01*
X111023981Y40095411D01*
X110959828Y40058372D01*
X110845079Y40034891D01*
X110693290Y40075562D01*
X111540840Y40607664D02*
X111945609Y40499207D01*
X111502828Y39858647D02*
X111746857Y40769377D01*
X111824568Y40857012D01*
X111939317Y40880494D01*
X112040510Y40853380D01*
X113052432Y40582236D02*
X113121904Y39424817D01*
X113760778Y40392435D01*
X114037240Y40209900D02*
X114101393Y40246939D01*
X114216143Y40270421D01*
X114469123Y40202635D01*
X114556758Y40124924D01*
X114593797Y40060771D01*
X114617279Y39946021D01*
X114590164Y39844829D01*
X114498897Y39706598D01*
X113729057Y39262131D01*
X114386807Y39085887D01*
X115651709Y38746958D02*
X115936410Y39809476D01*
X115827953Y39404707D02*
X115942702Y39428189D01*
X116145087Y39373960D01*
X116232722Y39296250D01*
X116269761Y39232096D01*
X116293243Y39117347D01*
X116211899Y38813770D01*
X116134189Y38726135D01*
X116070036Y38689096D01*
X115955286Y38665615D01*
X115752902Y38719843D01*
X115665267Y38797554D01*
X116701644Y39224831D02*
X116764824Y38448700D01*
X117207605Y39089259D02*
X116764824Y38448700D01*
X116595846Y38222833D01*
X116531693Y38185794D01*
X116416943Y38162313D01*
X118381240Y38612098D02*
X118735413Y38517198D01*
X118738072Y37919969D02*
X118232111Y38055541D01*
X118516812Y39118060D01*
X119022773Y38982488D01*
X119800591Y37635268D02*
X119581990Y38236130D01*
X119193438Y37797955D02*
X119478138Y38860473D01*
X119882907Y38752015D01*
X119970542Y38674305D01*
X120007581Y38610152D01*
X120031063Y38495402D01*
X119990392Y38343614D01*
X119912681Y38255979D01*
X119848528Y38218940D01*
X119733778Y38195458D01*
X119329009Y38303916D01*
X120761917Y37377682D02*
X120255956Y37513254D01*
X120540657Y38575772D01*
X-96793765Y38504894D02*
X-96628419Y38494969D01*
X-96564266Y38457930D01*
X-96486556Y38370295D01*
X-96445884Y38218507D01*
X-96469366Y38103758D01*
X-96506405Y38039604D01*
X-96594040Y37961894D01*
X-96998809Y37853436D01*
X-97283510Y38915955D01*
X-96929337Y39010855D01*
X-96814587Y38987373D01*
X-96750434Y38950334D01*
X-96672724Y38862699D01*
X-96645609Y38761507D01*
X-96669091Y38646758D01*
X-96706130Y38582604D01*
X-96793765Y38504894D01*
X-97147938Y38409994D01*
X-95784502Y38178809D02*
X-95899251Y38202291D01*
X-95976962Y38289926D01*
X-96220991Y39200656D01*
X-95114169Y39117627D02*
X-94924368Y38409281D01*
X-95569534Y38995612D02*
X-95420405Y38439055D01*
X-95342694Y38351420D01*
X-95227945Y38327938D01*
X-95076156Y38368609D01*
X-94988521Y38446320D01*
X-94951482Y38510473D01*
X-94027195Y38703907D02*
X-94114830Y38626196D01*
X-94317215Y38571967D01*
X-94431964Y38595449D01*
X-94509675Y38683084D01*
X-94618132Y39087853D01*
X-94594650Y39202602D01*
X-94507015Y39280313D01*
X-94304631Y39334542D01*
X-94189881Y39311060D01*
X-94112171Y39223425D01*
X-94085057Y39122233D01*
X-94563903Y38885469D01*
X-93571830Y38825921D02*
X-93406485Y38815997D01*
X-93153504Y38883783D01*
X-93065869Y38961493D01*
X-93028830Y39025646D01*
X-93005348Y39140396D01*
X-93032463Y39241588D01*
X-93110173Y39329223D01*
X-93174326Y39366262D01*
X-93289076Y39389744D01*
X-93505018Y39386111D01*
X-93619767Y39409593D01*
X-93683920Y39446632D01*
X-93761631Y39534267D01*
X-93788745Y39635459D01*
X-93765263Y39750208D01*
X-93728224Y39814362D01*
X-93640589Y39892072D01*
X-93387609Y39959858D01*
X-93222263Y39949934D01*
X-92343966Y39100698D02*
X-92458716Y39124179D01*
X-92522869Y39161218D01*
X-92600579Y39248853D01*
X-92681923Y39552430D01*
X-92658441Y39667179D01*
X-92621402Y39731333D01*
X-92533767Y39809043D01*
X-92381978Y39849715D01*
X-92267229Y39826233D01*
X-92203076Y39789194D01*
X-92125365Y39701559D01*
X-92044022Y39397982D01*
X-92067504Y39283233D01*
X-92104543Y39219080D01*
X-92192178Y39141369D01*
X-92343966Y39100698D01*
X-91876017Y39985287D02*
X-91471248Y40093744D01*
X-91534428Y39317613D02*
X-91778458Y40228343D01*
X-91754976Y40343092D01*
X-91667341Y40420803D01*
X-91566149Y40447917D01*
X-90554226Y40719061D02*
X-89915353Y39751443D01*
X-89845881Y40908861D01*
X-89515190Y40889012D02*
X-89478151Y40953166D01*
X-89390516Y41030876D01*
X-89137535Y41098662D01*
X-89022786Y41075180D01*
X-88958632Y41038141D01*
X-88880922Y40950506D01*
X-88853808Y40849314D01*
X-88863732Y40683969D01*
X-89308199Y39914129D01*
X-88650450Y40090372D01*
X-87385547Y40429302D02*
X-87670248Y41491820D01*
X-87561790Y41087052D02*
X-87474155Y41164762D01*
X-87271771Y41218991D01*
X-87157021Y41195509D01*
X-87092868Y41158470D01*
X-87015158Y41070835D01*
X-86933815Y40767258D01*
X-86957296Y40652509D01*
X-86994335Y40588356D01*
X-87081970Y40510645D01*
X-87284355Y40456416D01*
X-87399104Y40479898D01*
X-86715214Y41368120D02*
X-86272432Y40727560D01*
X-86209252Y41503692D02*
X-86272432Y40727560D01*
X-86305839Y40447465D01*
X-86342878Y40383312D01*
X-86430513Y40305601D01*
X-84954274Y41677276D02*
X-84600101Y41772176D01*
X-84299184Y41256291D02*
X-84805145Y41120719D01*
X-85089846Y42183237D01*
X-84583885Y42318809D01*
X-83236666Y41540991D02*
X-83726410Y41952052D01*
X-83843819Y41378305D02*
X-84128520Y42440824D01*
X-83723751Y42549281D01*
X-83609002Y42525799D01*
X-83544848Y42488760D01*
X-83467138Y42401125D01*
X-83426466Y42249337D01*
X-83449948Y42134588D01*
X-83486987Y42070434D01*
X-83574622Y41992724D01*
X-83979391Y41884266D01*
X-82275339Y41798578D02*
X-82781300Y41663006D01*
X-83066001Y42725525D01*
D11*
X45286415Y16944109D02*
X45238796Y16896490D01*
X45095939Y16848871D01*
X45000701Y16848871D01*
X44857843Y16896490D01*
X44762605Y16991728D01*
X44714986Y17086966D01*
X44667367Y17277442D01*
X44667367Y17420299D01*
X44714986Y17610775D01*
X44762605Y17706013D01*
X44857843Y17801251D01*
X45000701Y17848871D01*
X45095939Y17848871D01*
X45238796Y17801251D01*
X45286415Y17753632D01*
X46143558Y17515537D02*
X46143558Y16848871D01*
X45905462Y17896490D02*
X45667367Y17182204D01*
X46286415Y17182204D01*
X40286415Y16944109D02*
X40238796Y16896490D01*
X40095939Y16848871D01*
X40000701Y16848871D01*
X39857843Y16896490D01*
X39762605Y16991728D01*
X39714986Y17086966D01*
X39667367Y17277442D01*
X39667367Y17420299D01*
X39714986Y17610775D01*
X39762605Y17706013D01*
X39857843Y17801251D01*
X40000701Y17848871D01*
X40095939Y17848871D01*
X40238796Y17801251D01*
X40286415Y17753632D01*
X40619748Y17848871D02*
X41238796Y17848871D01*
X40905462Y17467918D01*
X41048320Y17467918D01*
X41143558Y17420299D01*
X41191177Y17372680D01*
X41238796Y17277442D01*
X41238796Y17039347D01*
X41191177Y16944109D01*
X41143558Y16896490D01*
X41048320Y16848871D01*
X40762605Y16848871D01*
X40667367Y16896490D01*
X40619748Y16944109D01*
X13138796Y36648871D02*
X13138796Y37648871D01*
X13376891Y37648871D01*
X13519748Y37601251D01*
X13614986Y37506013D01*
X13662605Y37410775D01*
X13710224Y37220299D01*
X13710224Y37077442D01*
X13662605Y36886966D01*
X13614986Y36791728D01*
X13519748Y36696490D01*
X13376891Y36648871D01*
X13138796Y36648871D01*
X14043558Y37648871D02*
X14662605Y37648871D01*
X14329272Y37267918D01*
X14472129Y37267918D01*
X14567367Y37220299D01*
X14614986Y37172680D01*
X14662605Y37077442D01*
X14662605Y36839347D01*
X14614986Y36744109D01*
X14567367Y36696490D01*
X14472129Y36648871D01*
X14186415Y36648871D01*
X14091177Y36696490D01*
X14043558Y36744109D01*
X15043558Y37553632D02*
X15091177Y37601251D01*
X15186415Y37648871D01*
X15424510Y37648871D01*
X15519748Y37601251D01*
X15567367Y37553632D01*
X15614986Y37458394D01*
X15614986Y37363156D01*
X15567367Y37220299D01*
X14995939Y36648871D01*
X15614986Y36648871D01*
X29538796Y36748871D02*
X29538796Y37748871D01*
X29776891Y37748871D01*
X29919748Y37701251D01*
X30014986Y37606013D01*
X30062605Y37510775D01*
X30110224Y37320299D01*
X30110224Y37177442D01*
X30062605Y36986966D01*
X30014986Y36891728D01*
X29919748Y36796490D01*
X29776891Y36748871D01*
X29538796Y36748871D01*
X30443558Y37748871D02*
X31062605Y37748871D01*
X30729272Y37367918D01*
X30872129Y37367918D01*
X30967367Y37320299D01*
X31014986Y37272680D01*
X31062605Y37177442D01*
X31062605Y36939347D01*
X31014986Y36844109D01*
X30967367Y36796490D01*
X30872129Y36748871D01*
X30586415Y36748871D01*
X30491177Y36796490D01*
X30443558Y36844109D01*
X32014986Y36748871D02*
X31443558Y36748871D01*
X31729272Y36748871D02*
X31729272Y37748871D01*
X31634034Y37606013D01*
X31538796Y37510775D01*
X31443558Y37463156D01*
X19743558Y-20103510D02*
X19886415Y-20151129D01*
X20124510Y-20151129D01*
X20219748Y-20103510D01*
X20267367Y-20055891D01*
X20314986Y-19960653D01*
X20314986Y-19865415D01*
X20267367Y-19770177D01*
X20219748Y-19722558D01*
X20124510Y-19674939D01*
X19934034Y-19627320D01*
X19838796Y-19579701D01*
X19791177Y-19532082D01*
X19743558Y-19436844D01*
X19743558Y-19341606D01*
X19791177Y-19246368D01*
X19838796Y-19198749D01*
X19934034Y-19151129D01*
X20172129Y-19151129D01*
X20314986Y-19198749D01*
X20648320Y-19151129D02*
X20886415Y-20151129D01*
X21076891Y-19436844D01*
X21267367Y-20151129D01*
X21505462Y-19151129D01*
X21838796Y-19246368D02*
X21886415Y-19198749D01*
X21981653Y-19151129D01*
X22219748Y-19151129D01*
X22314986Y-19198749D01*
X22362605Y-19246368D01*
X22410224Y-19341606D01*
X22410224Y-19436844D01*
X22362605Y-19579701D01*
X21791177Y-20151129D01*
X22410224Y-20151129D01*
X23314986Y-19151129D02*
X22838796Y-19151129D01*
X22791177Y-19627320D01*
X22838796Y-19579701D01*
X22934034Y-19532082D01*
X23172129Y-19532082D01*
X23267367Y-19579701D01*
X23314986Y-19627320D01*
X23362605Y-19722558D01*
X23362605Y-19960653D01*
X23314986Y-20055891D01*
X23267367Y-20103510D01*
X23172129Y-20151129D01*
X22934034Y-20151129D01*
X22838796Y-20103510D01*
X22791177Y-20055891D01*
X-36144109Y34494109D02*
X-36096490Y34636966D01*
X-36096490Y34875061D01*
X-36144109Y34970299D01*
X-36191728Y35017918D01*
X-36286966Y35065537D01*
X-36382204Y35065537D01*
X-36477442Y35017918D01*
X-36525061Y34970299D01*
X-36572680Y34875061D01*
X-36620299Y34684585D01*
X-36667918Y34589347D01*
X-36715537Y34541728D01*
X-36810775Y34494109D01*
X-36906013Y34494109D01*
X-37001251Y34541728D01*
X-37048870Y34589347D01*
X-37096490Y34684585D01*
X-37096490Y34922680D01*
X-37048870Y35065537D01*
X-37096490Y35398871D02*
X-36096490Y35636966D01*
X-36810775Y35827442D01*
X-36096490Y36017918D01*
X-37096490Y36256013D01*
X-36096490Y36636966D02*
X-37096490Y36636966D01*
X-37096490Y36875061D01*
X-37048870Y37017918D01*
X-36953632Y37113156D01*
X-36858394Y37160775D01*
X-36667918Y37208394D01*
X-36525061Y37208394D01*
X-36334585Y37160775D01*
X-36239347Y37113156D01*
X-36144109Y37017918D01*
X-36096490Y36875061D01*
X-36096490Y36636966D01*
X-37144109Y38351251D02*
X-35858394Y37494109D01*
X-36191728Y39256013D02*
X-36144109Y39208394D01*
X-36096490Y39065537D01*
X-36096490Y38970299D01*
X-36144109Y38827442D01*
X-36239347Y38732204D01*
X-36334585Y38684585D01*
X-36525061Y38636966D01*
X-36667918Y38636966D01*
X-36858394Y38684585D01*
X-36953632Y38732204D01*
X-37048870Y38827442D01*
X-37096490Y38970299D01*
X-37096490Y39065537D01*
X-37048870Y39208394D01*
X-37001251Y39256013D01*
X-36096490Y40208394D02*
X-36096490Y39636966D01*
X-36096490Y39922680D02*
X-37096490Y39922680D01*
X-36953632Y39827442D01*
X-36858394Y39732204D01*
X-36810775Y39636966D01*
X6936844Y36898871D02*
X6936844Y37898871D01*
X7174939Y37898871D01*
X7317796Y37851251D01*
X7413034Y37756013D01*
X7460653Y37660775D01*
X7508272Y37470299D01*
X7508272Y37327442D01*
X7460653Y37136966D01*
X7413034Y37041728D01*
X7317796Y36946490D01*
X7174939Y36898871D01*
X6936844Y36898871D01*
X7841606Y37898871D02*
X8460653Y37898871D01*
X8127320Y37517918D01*
X8270177Y37517918D01*
X8365415Y37470299D01*
X8413034Y37422680D01*
X8460653Y37327442D01*
X8460653Y37089347D01*
X8413034Y36994109D01*
X8365415Y36946490D01*
X8270177Y36898871D01*
X7984463Y36898871D01*
X7889225Y36946490D01*
X7841606Y36994109D01*
X8841606Y37803632D02*
X8889225Y37851251D01*
X8984463Y37898871D01*
X9222558Y37898871D01*
X9317796Y37851251D01*
X9365415Y37803632D01*
X9413034Y37708394D01*
X9413034Y37613156D01*
X9365415Y37470299D01*
X8793987Y36898871D01*
X9413034Y36898871D01*
X-9363156Y36698871D02*
X-9363156Y37698871D01*
X-9125061Y37698871D01*
X-8982204Y37651251D01*
X-8886966Y37556013D01*
X-8839347Y37460775D01*
X-8791728Y37270299D01*
X-8791728Y37127442D01*
X-8839347Y36936966D01*
X-8886966Y36841728D01*
X-8982204Y36746490D01*
X-9125061Y36698871D01*
X-9363156Y36698871D01*
X-8458394Y37698871D02*
X-7839347Y37698871D01*
X-8172680Y37317918D01*
X-8029823Y37317918D01*
X-7934585Y37270299D01*
X-7886966Y37222680D01*
X-7839347Y37127442D01*
X-7839347Y36889347D01*
X-7886966Y36794109D01*
X-7934585Y36746490D01*
X-8029823Y36698871D01*
X-8315537Y36698871D01*
X-8410775Y36746490D01*
X-8458394Y36794109D01*
X-6886966Y36698871D02*
X-7458394Y36698871D01*
X-7172680Y36698871D02*
X-7172680Y37698871D01*
X-7267918Y37556013D01*
X-7363156Y37460775D01*
X-7458394Y37413156D01*
X-1358394Y-19653510D02*
X-1215537Y-19701129D01*
X-977442Y-19701129D01*
X-882204Y-19653510D01*
X-834585Y-19605891D01*
X-786966Y-19510653D01*
X-786966Y-19415415D01*
X-834585Y-19320177D01*
X-882204Y-19272558D01*
X-977442Y-19224939D01*
X-1167918Y-19177320D01*
X-1263156Y-19129701D01*
X-1310775Y-19082082D01*
X-1358394Y-18986844D01*
X-1358394Y-18891606D01*
X-1310775Y-18796368D01*
X-1263156Y-18748749D01*
X-1167918Y-18701129D01*
X-929823Y-18701129D01*
X-786966Y-18748749D01*
X-453632Y-18701129D02*
X-215537Y-19701129D01*
X-25061Y-18986844D01*
X165415Y-19701129D01*
X403510Y-18701129D01*
X736844Y-18796368D02*
X784463Y-18748749D01*
X879701Y-18701129D01*
X1117796Y-18701129D01*
X1213034Y-18748749D01*
X1260653Y-18796368D01*
X1308272Y-18891606D01*
X1308272Y-18986844D01*
X1260653Y-19129701D01*
X689225Y-19701129D01*
X1308272Y-19701129D01*
X2213034Y-18701129D02*
X1736844Y-18701129D01*
X1689225Y-19177320D01*
X1736844Y-19129701D01*
X1832082Y-19082082D01*
X2070177Y-19082082D01*
X2165415Y-19129701D01*
X2213034Y-19177320D01*
X2260653Y-19272558D01*
X2260653Y-19510653D01*
X2213034Y-19605891D01*
X2165415Y-19653510D01*
X2070177Y-19701129D01*
X1832082Y-19701129D01*
X1736844Y-19653510D01*
X1689225Y-19605891D01*
D12*
X44263082Y17954984D02*
X44263082Y18247518D01*
X43243082Y17954984D02*
X43243082Y18247518D01*
X41605582Y17954984D02*
X41605582Y18247518D01*
X42625582Y17954984D02*
X42625582Y18247518D01*
X16238082Y34991251D02*
X16238082Y36461251D01*
X13778082Y34991251D02*
X16238082Y34991251D01*
X16238082Y36461251D02*
X13778082Y36461251D01*
X29478082Y35016251D02*
X31938082Y35016251D01*
X31938082Y36486251D02*
X29478082Y36486251D01*
X31938082Y35016251D02*
X31938082Y36486251D01*
X19553082Y-8748749D02*
X19553082Y-20548749D01*
X18453082Y-10548749D02*
X18153082Y-10848749D01*
X31753082Y-8748749D02*
X31753082Y-11148749D01*
X25153082Y-14648749D02*
X26153082Y-14648749D01*
X17853082Y-10548749D02*
X18453082Y-10548749D01*
X23653082Y-20548749D02*
X19553082Y-20548749D01*
X27653082Y-8748749D02*
X31753082Y-8748749D01*
X18153082Y-10848749D02*
X17853082Y-10548749D01*
X31753082Y-18148749D02*
X31753082Y-20548749D01*
X25653082Y-14148749D02*
X25653082Y-15148749D01*
X31753082Y-20548749D02*
X27653082Y-20548749D01*
X31753082Y-13348749D02*
X31753082Y-15948749D01*
X23653082Y-8748749D02*
X19553082Y-8748749D01*
X28653082Y-14648749D02*
G75*
G03*
X28653082Y-14648749I-3000000J0D01*
G01*
X-35805870Y32021251D02*
X-35805870Y39701251D01*
X-33145870Y30751251D02*
X-33145870Y29421251D01*
X-33145870Y29421251D02*
X-34475870Y29421251D01*
X-33145870Y32021251D02*
X-33145870Y39701251D01*
X-33145870Y39701251D02*
X-35805870Y39701251D01*
X-33145870Y32021251D02*
X-35805870Y32021251D01*
X6339130Y36461251D02*
X6339130Y34991251D01*
X8799130Y36461251D02*
X6339130Y36461251D01*
X6339130Y34991251D02*
X8799130Y34991251D01*
X-6900870Y36486251D02*
X-9360870Y36486251D01*
X-9360870Y35016251D02*
X-6900870Y35016251D01*
X-9360870Y36486251D02*
X-9360870Y35016251D01*
X3024130Y-20548749D02*
X3024130Y-8748749D01*
X4124130Y-18748749D02*
X4424130Y-18448749D01*
X-9175870Y-20548749D02*
X-9175870Y-18148749D01*
X-2575870Y-14648749D02*
X-3575870Y-14648749D01*
X4724130Y-18748749D02*
X4124130Y-18748749D01*
X-1075870Y-8748749D02*
X3024130Y-8748749D01*
X-5075870Y-20548749D02*
X-9175870Y-20548749D01*
X4424130Y-18448749D02*
X4724130Y-18748749D01*
X-9175870Y-11148749D02*
X-9175870Y-8748749D01*
X-3075870Y-15148749D02*
X-3075870Y-14148749D01*
X-9175870Y-8748749D02*
X-5075870Y-8748749D01*
X-9175870Y-15948749D02*
X-9175870Y-13348749D01*
X-1075870Y-20548749D02*
X3024130Y-20548749D01*
X-75870Y-14648749D02*
G75*
G03*
X-75870Y-14648749I-3000000J0D01*
G01*
M02*
