M48
; DRILL file {KiCad (5.99.0-8557-g8988e46ab1)} date Saturday, February 20, 2021 at 09:12:55 AM
; FORMAT={-:-/ absolute / inch / decimal}
; #@! TF.CreationDate,2021-02-20T09:12:55-07:00
; #@! TF.GenerationSoftware,Kicad,Pcbnew,(5.99.0-8557-g8988e46ab1)
; #@! TF.FileFunction,NonPlated,1,2,NPTH
FMAT,2
INCH
T1C0.0300
T2C0.0354
T3C0.0748
T4C0.1339
T5C0.1693
%
G90
G05
T1
X-4.7354Y-1.2972
X-4.72Y1.481
X-4.6999Y-1.2972
X-4.6845Y1.481
X-4.6645Y-1.2972
X-4.6491Y1.481
X-4.6291Y-1.2972
X-4.6137Y1.481
X-4.5936Y-1.2972
X-4.5782Y1.481
X-3.5543Y-1.2972
X-3.5188Y-1.2972
X-3.4834Y-1.2972
X-3.448Y-1.2972
X-3.4125Y-1.2972
X-2.9794Y1.7697
X-2.9439Y1.7697
X-2.9085Y1.7697
X-2.8731Y1.7697
X-2.8376Y1.7697
X-2.57Y-1.9271
X-2.5346Y-1.9271
X-2.4992Y-1.9271
X-2.4637Y-1.9271
X-2.4283Y-1.9271
X-2.2904Y1.7697
X-2.255Y1.7697
X-2.2195Y1.7697
X-2.1841Y1.7697
X-2.1487Y1.7697
X-1.609Y-1.9271
X-1.5735Y-1.9271
X-1.5381Y-1.9271
X-1.5027Y-1.9271
X-1.4672Y-1.9271
X-0.3705Y1.5689
X-0.3351Y1.5689
X-0.2997Y1.5689
X-0.2642Y1.5689
X-0.2288Y1.5689
X0.0408Y-1.6191
X0.0762Y-1.6191
X0.1116Y-1.6191
X0.1471Y-1.6191
X0.1825Y-1.6191
X0.407Y1.317
X0.407Y1.2815
X0.407Y1.2461
X0.407Y1.2107
X0.407Y1.1752
X0.407Y0.5788
X0.407Y0.5434
X0.407Y0.5079
X0.407Y0.4725
X0.407Y0.4371
X0.407Y-0.4547
X0.407Y-0.4901
X0.407Y-0.5255
X0.407Y-0.561
X0.407Y-0.5964
X0.407Y-1.2421
X0.407Y-1.2775
X0.407Y-1.3129
X0.407Y-1.3484
X0.407Y-1.3838
X0.4818Y1.317
X0.4818Y1.2815
X0.4818Y1.2461
X0.4818Y1.2107
X0.4818Y1.1752
X0.4818Y0.5788
X0.4818Y0.5434
X0.4818Y0.5079
X0.4818Y0.4725
X0.4818Y0.4371
X0.4818Y-0.4547
X0.4818Y-0.4901
X0.4818Y-0.5255
X0.4818Y-0.561
X0.4818Y-0.5964
X0.4818Y-1.2421
X0.4818Y-1.2775
X0.4818Y-1.3129
X0.4818Y-1.3484
X0.4818Y-1.3838
X0.7064Y-1.6188
X0.7418Y-1.6188
X0.7772Y-1.6188
X0.8127Y-1.6188
X0.8481Y-1.6188
X1.1206Y1.5689
X1.156Y1.5689
X1.1915Y1.5689
X1.2269Y1.5689
X1.2623Y1.5689
X2.3561Y-1.9268
X2.3915Y-1.9268
X2.427Y-1.9268
X2.4624Y-1.9268
X2.4978Y-1.9268
X3.0045Y1.769
X3.04Y1.769
X3.0754Y1.769
X3.1108Y1.769
X3.1463Y1.769
X3.3172Y-1.9268
X3.3526Y-1.9268
X3.388Y-1.9268
X3.4235Y-1.9268
X3.4589Y-1.9268
X3.7618Y1.769
X3.7972Y1.769
X3.8326Y1.769
X3.8681Y1.769
X3.9035Y1.769
X4.3014Y-1.2969
X4.3368Y-1.2969
X4.3723Y-1.2969
X4.4077Y-1.2969
X4.4431Y-1.2969
X5.4825Y-1.2969
X5.4848Y1.481
X5.5179Y-1.2969
X5.5202Y1.481
X5.5534Y-1.2969
X5.5557Y1.481
X5.5888Y-1.2969
X5.5911Y1.481
X5.6242Y-1.2969
X5.6265Y1.481
T2
X0.309Y1.0689
X0.309Y0.9508
X0.5798Y1.0689
X0.5798Y0.9508
T3
X-4.755Y1.0965
X-4.755Y0.4272
X-4.755Y-0.2421
X-4.755Y-0.9114
X-4.3219Y1.0965
X-4.3219Y0.4272
X-4.3219Y-0.2421
X-4.3219Y-0.9114
X-4.0463Y1.1359
X-4.0463Y0.4666
X-4.0463Y-0.2027
X-4.0463Y-0.872
X-3.6132Y1.1359
X-3.6132Y0.4666
X-3.6132Y-0.2027
X-3.6132Y-0.872
X-3.3376Y1.3327
X-3.3376Y0.6634
X-3.3376Y-0.0059
X-3.3376Y-0.6751
X-2.9046Y1.3327
X-2.9046Y0.6634
X-2.9046Y-0.0059
X-2.9046Y-0.6751
X-2.629Y1.3839
X-2.629Y0.7146
X-2.629Y0.0453
X-2.629Y-0.624
X-2.629Y-1.4901
X-2.1959Y1.3839
X-2.1959Y0.7146
X-2.1959Y0.0453
X-2.1959Y-0.624
X-2.1959Y-1.4901
X-1.9203Y1.3327
X-1.9203Y0.6634
X-1.9203Y-0.0059
X-1.9203Y-0.6751
X-1.9164Y-1.5413
X-1.4872Y1.3327
X-1.4872Y0.6634
X-1.4872Y-0.0059
X-1.4872Y-0.6751
X-1.4833Y-1.5413
X-1.2116Y1.2382
X-1.2116Y0.5689
X-1.2116Y-0.1003
X-1.2116Y-0.7696
X-0.8913Y-1.6574
X-0.7786Y1.2382
X-0.7786Y0.5689
X-0.7786Y-0.1003
X-0.7786Y-0.7696
X-0.5162Y-1.4409
X1.4051Y-1.4409
X1.6674Y1.2382
X1.6674Y0.5689
X1.6674Y-0.1003
X1.6674Y-0.7696
X1.7802Y-1.6574
X2.1005Y1.2382
X2.1005Y0.5689
X2.1005Y-0.1003
X2.1005Y-0.7696
X2.3722Y-1.5413
X2.3761Y1.3327
X2.3761Y0.6634
X2.3761Y-0.0059
X2.3761Y-0.6751
X2.8052Y-1.5413
X2.8092Y1.3327
X2.8092Y0.6634
X2.8092Y-0.0059
X2.8092Y-0.6751
X3.0848Y1.3839
X3.0848Y0.7146
X3.0848Y0.0453
X3.0848Y-0.624
X3.0848Y-1.4901
X3.5178Y1.3839
X3.5178Y0.7146
X3.5178Y0.0453
X3.5178Y-0.624
X3.5178Y-1.4901
X3.7934Y1.3327
X3.7934Y0.6634
X3.7934Y-0.0059
X3.7934Y-0.6751
X4.2265Y1.3327
X4.2265Y0.6634
X4.2265Y-0.0059
X4.2265Y-0.6751
X4.5021Y1.1359
X4.5021Y0.4666
X4.5021Y-0.2027
X4.5021Y-0.872
X4.9352Y1.1359
X4.9352Y0.4666
X4.9352Y-0.2027
X4.9352Y-0.872
X5.2108Y1.0965
X5.2108Y0.4272
X5.2108Y-0.2421
X5.2108Y-0.9114
X5.6438Y1.0965
X5.6438Y0.4272
X5.6438Y-0.2421
X5.6438Y-0.9114
T4
X-4.5384Y1.0965
X-4.5384Y0.4272
X-4.5384Y-0.2421
X-4.5384Y-0.9114
X-3.8298Y1.1359
X-3.8298Y0.4666
X-3.8298Y-0.2027
X-3.8298Y-0.872
X-3.1211Y1.3327
X-3.1211Y0.6634
X-3.1211Y-0.0059
X-3.1211Y-0.6751
X-2.4124Y1.3839
X-2.4124Y0.7146
X-2.4124Y0.0453
X-2.4124Y-0.624
X-2.4124Y-1.4901
X-1.7038Y1.3327
X-1.7038Y0.6634
X-1.7038Y-0.0059
X-1.7038Y-0.6751
X-1.6998Y-1.5413
X-0.9951Y1.2382
X-0.9951Y0.5689
X-0.9951Y-0.1003
X-0.9951Y-0.7696
X-0.7038Y-1.5492
X1.5926Y-1.5492
X1.884Y1.2382
X1.884Y0.5689
X1.884Y-0.1003
X1.884Y-0.7696
X2.5887Y-1.5413
X2.5926Y1.3327
X2.5926Y0.6634
X2.5926Y-0.0059
X2.5926Y-0.6751
X3.3013Y1.3839
X3.3013Y0.7146
X3.3013Y0.0453
X3.3013Y-0.624
X3.3013Y-1.4901
X4.01Y1.3327
X4.01Y0.6634
X4.01Y-0.0059
X4.01Y-0.6751
X4.7186Y1.1359
X4.7186Y0.4666
X4.7186Y-0.2027
X4.7186Y-0.872
X5.4273Y1.0965
X5.4273Y0.4272
X5.4273Y-0.2421
X5.4273Y-0.9114
T5
X-4.1841Y0.7884
X-4.1841Y-0.558
X-1.3494Y-0.3887
X-1.3455Y0.9499
X-0.5709Y-1.0059
X-0.0Y1.0335
X0.8889Y1.0335
X1.4598Y-1.0059
X2.2344Y0.9499
X2.2383Y-0.3887
X5.073Y0.7884
X5.073Y-0.558
T0
M30
