G04 #@! TF.GenerationSoftware,KiCad,Pcbnew,(5.99.0-8557-g8988e46ab1)*
G04 #@! TF.CreationDate,2021-02-20T09:12:51-07:00*
G04 #@! TF.ProjectId,BlueSof_R3_Panel,426c7565-536f-4665-9f52-335f50616e65,rev?*
G04 #@! TF.SameCoordinates,PX85099e0PY51bada0*
G04 #@! TF.FileFunction,Profile,NP*
%FSLAX46Y46*%
G04 Gerber Fmt 4.6, Leading zero omitted, Abs format (unit mm)*
G04 Created by KiCad (PCBNEW (5.99.0-8557-g8988e46ab1)) date 2021-02-20 09:12:51*
%MOMM*%
%LPD*%
G01*
G04 APERTURE LIST*
G04 #@! TA.AperFunction,Profile*
%ADD10C,0.150000*%
G04 #@! TD*
G04 APERTURE END LIST*
D10*
X107705884Y-32640131D02*
G75*
G02*
X108955884Y-33890131I0J-1250000D01*
G01*
X-124775870Y-30148749D02*
G75*
G03*
X-122275870Y-32648749I2500000J0D01*
G01*
X28163606Y40801251D02*
X28163606Y47134015D01*
X-42403766Y-48648630D02*
G75*
G02*
X-41153767Y-49881512I0J-1250118D01*
G01*
X128558908Y37380380D02*
G75*
G03*
X128853082Y37351251I294174J1470871D01*
G01*
X-83366352Y-33375551D02*
G75*
G03*
X-85128672Y-32648749I-1762320J-1773198D01*
G01*
X10038606Y9551251D02*
X10055842Y-10012828D01*
X13343233Y-39113146D02*
X14481308Y-40163300D01*
X143141805Y-33890131D02*
X143141805Y-35122895D01*
X-77646918Y47134015D02*
X-106396918Y39634015D01*
X23341866Y-40825991D02*
G75*
G03*
X21827787Y-42050136I-262174J-1224145D01*
G01*
X83955884Y-49890130D02*
X83955884Y-51140130D01*
X147353082Y-60148749D02*
X-124775870Y-60131513D01*
X108955884Y-33890131D02*
X108955884Y-35140131D01*
X-122686867Y37317236D02*
G75*
G03*
X-124775870Y34851251I410997J-2465985D01*
G01*
X16176681Y-40825990D02*
G75*
G02*
X17641866Y-42067372I206710J-1241382D01*
G01*
X-124775870Y-35148749D02*
X-124775870Y-60131513D01*
X-120564593Y-33898749D02*
X-120564593Y-35131513D01*
X128558908Y37380380D02*
X101464075Y44617235D01*
X139014079Y38567236D02*
G75*
G02*
X137764079Y37317236I-1250000J0D01*
G01*
X59545057Y-49890130D02*
X59545057Y-51140130D01*
X-25452845Y-53391797D02*
X-34360251Y-48915001D01*
X-52493003Y44651251D02*
X-53039945Y44634015D01*
X24591866Y-41160926D02*
X45657393Y-53323113D01*
X147353082Y-30148749D02*
G75*
G02*
X144853082Y-32648749I-2500000J0D01*
G01*
X-90564593Y-33881513D02*
X-90564593Y-35131513D01*
X-36967845Y-49898748D02*
X-36967845Y-51148748D01*
X-65564593Y-49881512D02*
X-65564593Y-51131512D01*
X-75975866Y47151251D02*
X-77646918Y47134015D01*
X100660051Y47134015D02*
X129410051Y39817236D01*
X-120186867Y39817236D02*
X-124775870Y39817236D01*
X12538606Y37051251D02*
X12555842Y34987172D01*
X144391805Y-32640131D02*
G75*
G03*
X143141805Y-33890131I0J-1250000D01*
G01*
X-105543747Y37495370D02*
X-78886863Y44617236D01*
X-764654Y-40825989D02*
G75*
G02*
X749425Y-42058754I255180J-1232765D01*
G01*
X95249054Y45882580D02*
X95249054Y47132580D01*
X-91814593Y-32631513D02*
G75*
G02*
X-90564593Y-33881513I0J-1250000D01*
G01*
X-86378672Y-33898749D02*
X-86378672Y-35148749D01*
X-4200870Y39551251D02*
X-4200870Y33251251D01*
X143200000Y38550000D02*
X143200000Y39800000D01*
X63730978Y-51122894D02*
X83955884Y-51140130D01*
X-34360251Y-48915002D02*
G75*
G03*
X-35482916Y-48648748I-1122665J-2233747D01*
G01*
X93999054Y44632580D02*
X81451161Y44615344D01*
X-116000946Y38550000D02*
X-116000946Y39634015D01*
X-116378672Y-33898749D02*
X-116378672Y-35148749D01*
X80201161Y45865344D02*
X80201161Y47115344D01*
X17641866Y-43317372D02*
X4935346Y-43325990D01*
X10038606Y28301251D02*
G75*
G02*
X12538606Y28301251I1250000J0D01*
G01*
X-53039945Y44634015D02*
G75*
G02*
X-54289945Y45884015I0J1250000D01*
G01*
X43603082Y-56390131D02*
X51103082Y-56390131D01*
X-59725866Y44651251D02*
G75*
G03*
X-58475866Y45901251I0J1250000D01*
G01*
X-114750946Y37300000D02*
G75*
G02*
X-116000946Y38550000I0J1250000D01*
G01*
X17528082Y33251251D02*
X17528082Y39551251D01*
X21827787Y-42050136D02*
X21827787Y-43300136D01*
X-120186867Y38567236D02*
G75*
G02*
X-121436867Y37317236I-1250000J0D01*
G01*
X105943564Y-33375551D02*
G75*
G02*
X107705884Y-32648749I1762320J-1773198D01*
G01*
X-121814593Y-32648749D02*
X-122275870Y-32648749D01*
X82705884Y-48640130D02*
X64980978Y-48622894D01*
X-764654Y-40825990D02*
G75*
G03*
X-2014654Y-41160926I-1J-2500000D01*
G01*
X147353082Y39800000D02*
X147353082Y52134015D01*
X-86378672Y-35148749D02*
X-70564593Y-51131512D01*
X-120186867Y38567236D02*
X-120186867Y39817236D01*
X143200000Y39800000D02*
X147353082Y39800000D01*
X48030057Y-53391797D02*
X56937463Y-48915001D01*
X39253082Y12801251D02*
X14753082Y12801251D01*
X14753082Y12801251D02*
X14753082Y-7198749D01*
X14753082Y-7198749D02*
X39253082Y-7198749D01*
X39253082Y-7198749D02*
X39253082Y12801251D01*
X12555842Y-10012828D02*
G75*
G02*
X10055842Y-10012828I-1250000J0D01*
G01*
X-77225866Y44651251D02*
X-78475866Y44651251D01*
X-115128672Y-32648749D02*
G75*
G03*
X-116378672Y-33898749I0J-1250000D01*
G01*
X-58475866Y45901251D02*
X-58475866Y47151251D01*
X5049130Y39551251D02*
X7538606Y39551251D01*
X76010576Y45882580D02*
G75*
G02*
X74917442Y44646580I-1245336J0D01*
G01*
X-5525473Y40784015D02*
X-5525473Y47134015D01*
X63730978Y-49872894D02*
X63730978Y-51122894D01*
X17528082Y39551251D02*
X15038606Y39551251D01*
X64980978Y-48622894D02*
G75*
G03*
X63730978Y-49872894I0J-1250000D01*
G01*
X12538606Y37051251D02*
G75*
G02*
X15038606Y39551251I2500000J0D01*
G01*
X88141805Y-51122894D02*
X93141805Y-51122894D01*
X-9711394Y47134015D02*
X-54289945Y47134015D01*
X76015240Y45882580D02*
X76015240Y47132580D01*
X-77225866Y44651251D02*
G75*
G03*
X-75975866Y45901251I0J1250000D01*
G01*
X12538606Y-16698749D02*
X12555842Y-30012828D01*
X74917442Y44646580D02*
X33422387Y39555924D01*
X-52188028Y44632580D02*
X-10845175Y39555923D01*
X145264079Y37317236D02*
G75*
G02*
X147353082Y34851251I-410997J-2465985D01*
G01*
X17641866Y-42067372D02*
X17641866Y-43317372D01*
X-85128672Y-32648749D02*
G75*
G03*
X-86378672Y-33898749I0J-1250000D01*
G01*
X-78475866Y44651251D02*
G75*
G03*
X-78886863Y44617236I0J-2500000D01*
G01*
X101053078Y44651251D02*
X100684975Y44615344D01*
X-124775870Y39817236D02*
X-124775870Y52151251D01*
X28163606Y47134015D02*
X-5525473Y47134015D01*
X13343233Y-39113147D02*
G75*
G02*
X12538606Y-37275836I1695373J1837311D01*
G01*
X99434975Y45865344D02*
X99434975Y47115344D01*
X-25452845Y-53391797D02*
G75*
G03*
X-23080181Y-53323113I1122664J2233747D01*
G01*
X23341866Y-40825990D02*
G75*
G02*
X24591866Y-41160926I1J-2500000D01*
G01*
X88141805Y-49872894D02*
X88141805Y-51122894D01*
X9233979Y-39113147D02*
G75*
G03*
X10038606Y-37275836I-1695373J1837311D01*
G01*
X-90564593Y-35131513D02*
X-116378672Y-35148749D01*
X80201161Y45865344D02*
G75*
G03*
X81451161Y44615344I1250000J0D01*
G01*
X4935346Y-42075990D02*
X4935346Y-43325990D01*
X9233979Y-39113146D02*
X8095904Y-40163300D01*
X-121814593Y-32648749D02*
G75*
G02*
X-120564593Y-33898749I0J-1250000D01*
G01*
X-21025870Y-56398749D02*
X-28525870Y-56398749D01*
X138955884Y-33890131D02*
X138955884Y-35140131D01*
X-65564593Y-51131512D02*
X-70564593Y-51131512D01*
X137705884Y-32640131D02*
X114391805Y-32622895D01*
X-41153766Y-49881512D02*
X-41153766Y-51131512D01*
X99434975Y45865344D02*
G75*
G03*
X100684975Y44615344I1250000J0D01*
G01*
X129410051Y39817236D02*
X139014079Y39817236D01*
X59545057Y-51140130D02*
X51103082Y-56390131D01*
X89391805Y-48622894D02*
G75*
G03*
X88141805Y-49872894I0J-1250000D01*
G01*
X-52188028Y44632579D02*
G75*
G03*
X-52493003Y44651251I-304975J-2481328D01*
G01*
X12555842Y16237172D02*
G75*
G02*
X10055842Y16237172I-1250000J0D01*
G01*
X12538606Y28301251D02*
X12555842Y16237172D01*
X749425Y-43308754D02*
X-21025870Y-56398749D01*
X-68730164Y-47921946D02*
X-83366352Y-33375551D01*
X6397412Y-40844110D02*
G75*
G03*
X4935346Y-42075990I-212066J-1231880D01*
G01*
X-16675870Y12651251D02*
X7824130Y12651251D01*
X7824130Y12651251D02*
X7824130Y-7348749D01*
X7824130Y-7348749D02*
X-16675870Y-7348749D01*
X-16675870Y-7348749D02*
X-16675870Y12651251D01*
X-36967845Y-51148748D02*
X-28525870Y-56398749D01*
X76015240Y47132580D02*
X32349527Y47134015D01*
X-60128672Y-48648748D02*
G75*
G03*
X-61378672Y-49898748I0J-1250000D01*
G01*
X26778082Y33251251D02*
X17528082Y33251251D01*
X48030057Y-53391797D02*
G75*
G02*
X45657393Y-53323113I-1122664J2233747D01*
G01*
X10038606Y-16698749D02*
G75*
G02*
X12538606Y-16698749I1250000J0D01*
G01*
X10038606Y9551251D02*
G75*
G02*
X12538606Y9551251I1250000J0D01*
G01*
X10038606Y-36698749D02*
G75*
G02*
X12538606Y-36698749I1250000J0D01*
G01*
X-105543747Y37495370D02*
G75*
G02*
X-106186867Y37317236I-643120J1071867D01*
G01*
X145264079Y37317236D02*
X144450000Y37300000D01*
X-35486958Y-48670256D02*
G75*
G03*
X-36967845Y-49898748I-230887J-1228492D01*
G01*
X143141805Y-35122895D02*
X147353082Y-35140131D01*
X-121436867Y37317236D02*
X-122686867Y37317236D01*
X114391805Y-32622895D02*
G75*
G03*
X113141805Y-33872895I0J-1250000D01*
G01*
X95249054Y45882580D02*
G75*
G02*
X93999054Y44632580I-1250000J0D01*
G01*
X-58475866Y47151251D02*
X-71789945Y47134015D01*
X16176681Y-40825990D02*
G75*
G02*
X14481308Y-40163301I0J2500000D01*
G01*
X10055842Y34987172D02*
X10038606Y37051251D01*
X91307376Y-47921946D02*
G75*
G02*
X89545057Y-48648748I-1762319J1773198D01*
G01*
X21827787Y-43300136D02*
X43603082Y-56390131D01*
X95249054Y47132580D02*
X80201161Y47115344D01*
X82705884Y-48640130D02*
G75*
G02*
X83955884Y-49890130I0J-1250000D01*
G01*
X-75975866Y45901251D02*
X-75975866Y47151251D01*
X-66967845Y-48648748D02*
G75*
G02*
X-65564593Y-49881512I160131J-1232764D01*
G01*
X10055842Y-30012828D02*
X10038606Y-16698749D01*
X-54289945Y45884015D02*
X-54289945Y47134015D01*
X32349527Y40784015D02*
X32349527Y47134015D01*
X12538606Y-37275836D02*
X12538606Y-36698749D01*
X10038606Y37051251D02*
G75*
G03*
X7538606Y39551251I-2500000J0D01*
G01*
X-124775870Y-30148749D02*
X-124775870Y34851251D01*
X113141805Y-35122895D02*
X138955884Y-35140131D01*
X101053078Y44651251D02*
G75*
G02*
X101464075Y44617236I0J-2500000D01*
G01*
X-61378672Y-49898748D02*
X-61378672Y-51148748D01*
X-9710655Y40801251D02*
G75*
G02*
X-10845175Y39555923I-1250739J0D01*
G01*
X749425Y-42058754D02*
X749425Y-43308754D01*
X-91814593Y-32631513D02*
X-115128672Y-32648749D01*
X58295057Y-48640130D02*
X58060128Y-48648748D01*
X6400531Y-40825990D02*
G75*
G03*
X8095904Y-40163301I0J2500000D01*
G01*
X91307376Y-47921946D02*
X105943564Y-33375551D01*
X-124775870Y52151251D02*
X147353082Y52134015D01*
X5049130Y33251251D02*
X5049130Y39551251D01*
X113141805Y-33872895D02*
X113141805Y-35122895D01*
X-114750946Y37300000D02*
X-106186867Y37317236D01*
X137764079Y37317236D02*
X128853082Y37351251D01*
X108955884Y-35140131D02*
X93141805Y-51122894D01*
X26778082Y39551251D02*
X26778082Y33251251D01*
X-59725866Y44651251D02*
X-70539945Y44634015D01*
X58295057Y-48640130D02*
G75*
G02*
X59545057Y-49890130I0J-1250000D01*
G01*
X56937463Y-48915002D02*
G75*
G02*
X58060128Y-48648748I1122665J-2233747D01*
G01*
X143200000Y38550000D02*
G75*
G03*
X144450000Y37300000I1250000J0D01*
G01*
X-120564593Y-35131513D02*
X-124775870Y-35148749D01*
X137705884Y-32640131D02*
G75*
G02*
X138955884Y-33890131I0J-1250000D01*
G01*
X139014079Y38567236D02*
X139014079Y39817236D01*
X147353082Y-35140131D02*
X147353082Y-60148749D01*
X-41153766Y-51131512D02*
X-61378672Y-51148748D01*
X-71789945Y45884015D02*
G75*
G03*
X-70539945Y44634015I1250000J0D01*
G01*
X10038606Y-37275836D02*
X10038606Y-36698749D01*
X-68730164Y-47921946D02*
G75*
G03*
X-66967845Y-48648748I1762319J1773198D01*
G01*
X12555842Y34987172D02*
G75*
G02*
X10055842Y34987172I-1250000J0D01*
G01*
X-42403766Y-48648630D02*
X-60128672Y-48648748D01*
X-4200870Y33251251D02*
X5049130Y33251251D01*
X99434975Y47115344D02*
X100660051Y47134015D01*
X-2014654Y-41160926D02*
X-23080181Y-53323113D01*
X12555842Y-10012828D02*
X12538606Y9551251D01*
X-5510492Y40784015D02*
G75*
G03*
X-4200870Y39551251I1235019J0D01*
G01*
X-106396918Y39634015D02*
X-116000946Y39634015D01*
X-9711394Y40801251D02*
X-9711394Y47134015D01*
X144853082Y-32648749D02*
X144391805Y-32640131D01*
X10055842Y16237172D02*
X10038606Y28301251D01*
X32358726Y40784015D02*
G75*
G03*
X33422387Y39555924I1240801J0D01*
G01*
X147353082Y-30148749D02*
X147353082Y34851251D01*
X28163605Y40801251D02*
G75*
G02*
X26778082Y39551251I-1256628J0D01*
G01*
X12555842Y-30012828D02*
G75*
G02*
X10055842Y-30012828I-1250000J0D01*
G01*
X-71789945Y45884015D02*
X-71789945Y47134015D01*
X101053078Y44651251D02*
G75*
G02*
X101464075Y44617236I0J-2500000D01*
G01*
X91307376Y-47921946D02*
X105943564Y-33375551D01*
X26778082Y33251251D02*
X17528082Y33251251D01*
X16176681Y-40825990D02*
G75*
G02*
X14481308Y-40163301I0J2500000D01*
G01*
X17528082Y39551251D02*
X15038606Y39551251D01*
X105943564Y-33375551D02*
G75*
G02*
X107705884Y-32648749I1762320J-1773198D01*
G01*
X74765240Y44632579D02*
G75*
G02*
X75070215Y44651251I304975J-2481328D01*
G01*
X13343233Y-39113147D02*
G75*
G02*
X12538606Y-37275836I1695373J1837311D01*
G01*
X101053077Y44651251D02*
X75070215Y44651252D01*
X23341866Y-40825990D02*
G75*
G02*
X24591866Y-41160926I1J-2500000D01*
G01*
X145264079Y37317236D02*
G75*
G02*
X147353082Y34851251I-410997J-2465985D01*
G01*
X33269614Y39551251D02*
X26778082Y39551251D01*
X58060128Y-48648748D02*
X89545057Y-48648748D01*
X74765240Y44632580D02*
X33574589Y39569922D01*
X24591866Y-41160926D02*
X45657393Y-53323113D01*
X12538606Y-37275836D02*
X12538606Y37051251D01*
X147353082Y-30148749D02*
X147353082Y34851251D01*
X128558908Y37380380D02*
G75*
G03*
X128853082Y37351251I294174J1470871D01*
G01*
X91307376Y-47921946D02*
G75*
G02*
X89545057Y-48648748I-1762319J1773198D01*
G01*
X33574589Y39569923D02*
G75*
G02*
X33269614Y39551251I-304975J2481328D01*
G01*
X107705884Y-32648749D02*
X144853082Y-32648749D01*
X128558908Y37380380D02*
X101464075Y44617235D01*
X12538606Y37051251D02*
G75*
G02*
X15038606Y39551251I2500000J0D01*
G01*
X145264079Y37317236D02*
X128853082Y37351251D01*
X16176680Y-40825990D02*
X23341866Y-40825990D01*
X26778082Y39551251D02*
X26778082Y33251251D01*
X48030057Y-53391797D02*
G75*
G02*
X45657393Y-53323113I-1122664J2233747D01*
G01*
X56937463Y-48915002D02*
G75*
G02*
X58060128Y-48648748I1122665J-2233747D01*
G01*
X48030057Y-53391797D02*
X56937463Y-48915001D01*
X17528082Y33251251D02*
X17528082Y39551251D01*
X13343233Y-39113146D02*
X14481308Y-40163300D01*
X39253082Y12801251D02*
X14753082Y12801251D01*
X14753082Y12801251D02*
X14753082Y-7198749D01*
X14753082Y-7198749D02*
X39253082Y-7198749D01*
X39253082Y-7198749D02*
X39253082Y12801251D01*
X147353082Y-30148749D02*
G75*
G02*
X144853082Y-32648749I-2500000J0D01*
G01*
X-78475866Y44651251D02*
G75*
G03*
X-78886863Y44617236I0J-2500000D01*
G01*
X-68730164Y-47921946D02*
X-83366352Y-33375551D01*
X-4200870Y33251251D02*
X5049130Y33251251D01*
X6400531Y-40825990D02*
G75*
G03*
X8095904Y-40163301I0J2500000D01*
G01*
X5049130Y39551251D02*
X7538606Y39551251D01*
X-83366352Y-33375551D02*
G75*
G03*
X-85128672Y-32648749I-1762320J-1773198D01*
G01*
X-52188028Y44632579D02*
G75*
G03*
X-52493003Y44651251I-304975J-2481328D01*
G01*
X9233979Y-39113147D02*
G75*
G03*
X10038606Y-37275836I-1695373J1837311D01*
G01*
X-78475865Y44651251D02*
X-52493003Y44651252D01*
X-764654Y-40825990D02*
G75*
G03*
X-2014654Y-41160926I-1J-2500000D01*
G01*
X-122686867Y37317236D02*
G75*
G03*
X-124775870Y34851251I410997J-2465985D01*
G01*
X-10692402Y39551251D02*
X-4200870Y39551251D01*
X-35482916Y-48648748D02*
X-66967845Y-48648748D01*
X-52188028Y44632580D02*
X-10997377Y39569922D01*
X-2014654Y-41160926D02*
X-23080181Y-53323113D01*
X-122686867Y37317236D02*
X-106186867Y37317236D01*
X10038606Y-37275836D02*
X10038606Y37051251D01*
X-124775870Y-30148749D02*
X-124775870Y34851251D01*
X-68730164Y-47921946D02*
G75*
G03*
X-66967845Y-48648748I1762319J1773198D01*
G01*
X-10997377Y39569923D02*
G75*
G03*
X-10692402Y39551251I304975J2481328D01*
G01*
X-85128672Y-32648749D02*
X-122275870Y-32648749D01*
X10038606Y37051251D02*
G75*
G03*
X7538606Y39551251I-2500000J0D01*
G01*
X6400532Y-40825990D02*
X-764654Y-40825990D01*
X-4200870Y39551251D02*
X-4200870Y33251251D01*
X-25452845Y-53391797D02*
G75*
G03*
X-23080181Y-53323113I1122664J2233747D01*
G01*
X-34360251Y-48915002D02*
G75*
G03*
X-35482916Y-48648748I-1122665J-2233747D01*
G01*
X-25452845Y-53391797D02*
X-34360251Y-48915001D01*
X-105543747Y37495370D02*
G75*
G02*
X-106186867Y37317236I-643120J1071867D01*
G01*
X5049130Y33251251D02*
X5049130Y39551251D01*
X9233979Y-39113146D02*
X8095904Y-40163300D01*
X-16675870Y12651251D02*
X7824130Y12651251D01*
X7824130Y12651251D02*
X7824130Y-7348749D01*
X7824130Y-7348749D02*
X-16675870Y-7348749D01*
X-16675870Y-7348749D02*
X-16675870Y12651251D01*
X-124775870Y-30148749D02*
G75*
G03*
X-122275870Y-32648749I2500000J0D01*
G01*
X-105543747Y37495370D02*
X-78886863Y44617236D01*
M02*
