G04 #@! TF.GenerationSoftware,KiCad,Pcbnew,(5.99.0-8557-g8988e46ab1)*
G04 #@! TF.CreationDate,2021-02-20T09:12:51-07:00*
G04 #@! TF.ProjectId,BlueSof_R3_Panel,426c7565-536f-4665-9f52-335f50616e65,rev?*
G04 #@! TF.SameCoordinates,PX85099e0PY51bada0*
G04 #@! TF.FileFunction,Soldermask,Top*
G04 #@! TF.FilePolarity,Negative*
%FSLAX46Y46*%
G04 Gerber Fmt 4.6, Leading zero omitted, Abs format (unit mm)*
G04 Created by KiCad (PCBNEW (5.99.0-8557-g8988e46ab1)) date 2021-02-20 09:12:51*
%MOMM*%
%LPD*%
G01*
G04 APERTURE LIST*
G04 Aperture macros list*
%AMRoundRect*
0 Rectangle with rounded corners*
0 $1 Rounding radius*
0 $2 $3 $4 $5 $6 $7 $8 $9 X,Y pos of 4 corners*
0 Add a 4 corners polygon primitive as box body*
4,1,4,$2,$3,$4,$5,$6,$7,$8,$9,$2,$3,0*
0 Add four circle primitives for the rounded corners*
1,1,$1+$1,$2,$3*
1,1,$1+$1,$4,$5*
1,1,$1+$1,$6,$7*
1,1,$1+$1,$8,$9*
0 Add four rect primitives between the rounded corners*
20,1,$1+$1,$2,$3,$4,$5,0*
20,1,$1+$1,$4,$5,$6,$7,0*
20,1,$1+$1,$6,$7,$8,$9,0*
20,1,$1+$1,$8,$9,$2,$3,0*%
G04 Aperture macros list end*
%ADD10C,0.800000*%
%ADD11C,1.900000*%
%ADD12C,3.400000*%
%ADD13C,2.000000*%
%ADD14RoundRect,0.237500X0.237500X-0.300000X0.237500X0.300000X-0.237500X0.300000X-0.237500X-0.300000X0*%
%ADD15RoundRect,0.237500X0.287500X0.237500X-0.287500X0.237500X-0.287500X-0.237500X0.287500X-0.237500X0*%
%ADD16R,2.000000X2.000000*%
%ADD17R,3.200000X2.000000*%
%ADD18C,4.300000*%
%ADD19C,1.000000*%
%ADD20R,1.700000X1.700000*%
%ADD21O,1.700000X1.700000*%
%ADD22R,1.000000X0.650000*%
%ADD23C,0.900000*%
%ADD24RoundRect,0.237500X-0.287500X-0.237500X0.287500X-0.237500X0.287500X0.237500X-0.287500X0.237500X0*%
G04 APERTURE END LIST*
D10*
X-55475866Y44951251D03*
X-58175866Y44951251D03*
X-54575866Y44951251D03*
X-56375866Y44951251D03*
X-57275866Y44951251D03*
X12238606Y-35148749D03*
X12238606Y-32448749D03*
X10338606Y-35148749D03*
X10338606Y-31548749D03*
X12238606Y-31548749D03*
X10338606Y-33348749D03*
X10338606Y-34248749D03*
X12238606Y-33348749D03*
X12238606Y-34248749D03*
X10338606Y-32448749D03*
X98249054Y44932580D03*
X99149054Y44932580D03*
X95549054Y44932580D03*
X97349054Y44932580D03*
X96449054Y44932580D03*
X-87578672Y-32948749D03*
X-88478672Y-32948749D03*
X-86678672Y-32948749D03*
X-89378672Y-32948749D03*
X-90278672Y-32948749D03*
X32063606Y39851251D03*
X29363606Y39851251D03*
X30263606Y39851251D03*
X28463606Y39851251D03*
X31163606Y39851251D03*
X4635346Y-41125990D03*
X1935346Y-41125990D03*
X1035346Y-41125990D03*
X3735346Y-41125990D03*
X2835346Y-41125990D03*
X-72075866Y44951251D03*
X-75675866Y44951251D03*
X-72975866Y44951251D03*
X-73875866Y44951251D03*
X-74775866Y44951251D03*
X76315240Y44932580D03*
X77215240Y44932580D03*
X78115240Y44932580D03*
X79915240Y44932580D03*
X79015240Y44932580D03*
X142914079Y37617236D03*
X142014079Y37617236D03*
X141114079Y37617236D03*
X139314079Y37617236D03*
X140214079Y37617236D03*
X10338606Y14701251D03*
X12238606Y14701251D03*
X12238606Y11101251D03*
X10338606Y12901251D03*
X10338606Y11101251D03*
X10338606Y12001251D03*
X12238606Y12901251D03*
X10338606Y13801251D03*
X12238606Y12001251D03*
X12238606Y13801251D03*
X12238606Y29851251D03*
X12238606Y32551251D03*
X10338606Y32551251D03*
X12238606Y30751251D03*
X10338606Y31651251D03*
X10338606Y30751251D03*
X10338606Y29851251D03*
X12238606Y31651251D03*
X10338606Y33451251D03*
X12238606Y33451251D03*
X10338606Y-11548749D03*
X12238606Y-12448749D03*
X10338606Y-12448749D03*
X10338606Y-13348749D03*
X12238606Y-11548749D03*
X12238606Y-14248749D03*
X10338606Y-15148749D03*
X12238606Y-13348749D03*
X10338606Y-14248749D03*
X12238606Y-15148749D03*
X-8511394Y39851251D03*
X-9411394Y39851251D03*
X-7611394Y39851251D03*
X-6711394Y39851251D03*
X-5811394Y39851251D03*
X-118478672Y-32948749D03*
X-117578672Y-32948749D03*
X-119378672Y-32948749D03*
X-120278672Y-32948749D03*
X-116678672Y-32948749D03*
X-116286867Y37617236D03*
X-118986867Y37617236D03*
X-118086867Y37617236D03*
X-117186867Y37617236D03*
X-119886867Y37617236D03*
X-64378672Y-48948748D03*
X-62578672Y-48948748D03*
X-61678672Y-48948748D03*
X-65278672Y-48948748D03*
X-63478672Y-48948748D03*
X-39967845Y-48948748D03*
X-40867845Y-48948748D03*
X-39067845Y-48948748D03*
X-38167845Y-48948748D03*
X-37267845Y-48948748D03*
X21541866Y-41117372D03*
X19741866Y-41117372D03*
X18841866Y-41117372D03*
X17941866Y-41117372D03*
X20641866Y-41117372D03*
X110155884Y-32940131D03*
X109255884Y-32940131D03*
X111055884Y-32940131D03*
X111955884Y-32940131D03*
X112855884Y-32940131D03*
X86055884Y-48940130D03*
X84255884Y-48940130D03*
X86955884Y-48940130D03*
X87855884Y-48940130D03*
X85155884Y-48940130D03*
X141955884Y-32940131D03*
X140155884Y-32940131D03*
X142855884Y-32940131D03*
X141055884Y-32940131D03*
X139255884Y-32940131D03*
X61645057Y-48940130D03*
X59845057Y-48940130D03*
X60745057Y-48940130D03*
X62545057Y-48940130D03*
X63445057Y-48940130D03*
D11*
X42353082Y31451251D03*
X53353082Y31451251D03*
D12*
X47853082Y31451251D03*
D13*
X42853082Y27751251D03*
X47853082Y25551251D03*
D11*
X60353082Y33851251D03*
D12*
X65853082Y33851251D03*
D11*
X71353082Y33851251D03*
D13*
X60853082Y30151251D03*
X65853082Y27951251D03*
D11*
X107353082Y33851251D03*
D12*
X101853082Y33851251D03*
D11*
X96353082Y33851251D03*
D13*
X96853082Y30151251D03*
X101853082Y27951251D03*
D11*
X125353082Y28851251D03*
D12*
X119853082Y28851251D03*
D11*
X114353082Y28851251D03*
D13*
X114853082Y25151251D03*
X119853082Y22951251D03*
D11*
X132353082Y27851251D03*
D12*
X137853082Y27851251D03*
D11*
X143353082Y27851251D03*
D13*
X132853082Y24151251D03*
X137853082Y21951251D03*
D12*
X47853082Y14451251D03*
D11*
X42353082Y14451251D03*
X53353082Y14451251D03*
D13*
X42853082Y10751251D03*
X47853082Y8551251D03*
D12*
X65853082Y16851251D03*
D11*
X71353082Y16851251D03*
X60353082Y16851251D03*
D13*
X60853082Y13151251D03*
X65853082Y10951251D03*
D11*
X89353082Y18151251D03*
D12*
X83853082Y18151251D03*
D11*
X78353082Y18151251D03*
D13*
X78853082Y14451251D03*
X83853082Y12251251D03*
D12*
X101853082Y16851251D03*
D11*
X96353082Y16851251D03*
X107353082Y16851251D03*
D13*
X96853082Y13151251D03*
X101853082Y10951251D03*
D11*
X143353082Y10851251D03*
D12*
X137853082Y10851251D03*
D11*
X132353082Y10851251D03*
D13*
X132853082Y7151251D03*
X137853082Y4951251D03*
D11*
X60353082Y-148749D03*
X71353082Y-148749D03*
D12*
X65853082Y-148749D03*
D13*
X60853082Y-3848749D03*
X65853082Y-6048749D03*
D12*
X83853082Y1151251D03*
D11*
X78353082Y1151251D03*
X89353082Y1151251D03*
D13*
X78853082Y-2548749D03*
X83853082Y-4748749D03*
D11*
X107353082Y-148749D03*
X96353082Y-148749D03*
D12*
X101853082Y-148749D03*
D13*
X96853082Y-3848749D03*
X101853082Y-6048749D03*
D11*
X125353082Y-5148749D03*
D12*
X119853082Y-5148749D03*
D11*
X114353082Y-5148749D03*
D13*
X114853082Y-8848749D03*
X119853082Y-11048749D03*
D11*
X42353082Y-19548749D03*
X53353082Y-19548749D03*
D12*
X47853082Y-19548749D03*
D13*
X42853082Y-23248749D03*
X47853082Y-25448749D03*
D11*
X78353082Y-15848749D03*
D12*
X83853082Y-15848749D03*
D11*
X89353082Y-15848749D03*
D13*
X78853082Y-19548749D03*
X83853082Y-21748749D03*
D12*
X101853082Y-17148749D03*
D11*
X96353082Y-17148749D03*
X107353082Y-17148749D03*
D13*
X96853082Y-20848749D03*
X101853082Y-23048749D03*
D11*
X125353082Y-22148749D03*
D12*
X119853082Y-22148749D03*
D11*
X114353082Y-22148749D03*
D13*
X114853082Y-25848749D03*
X119853082Y-28048749D03*
D11*
X143353082Y-23148749D03*
X132353082Y-23148749D03*
D12*
X137853082Y-23148749D03*
D13*
X132853082Y-26848749D03*
X137853082Y-29048749D03*
D11*
X42353082Y-2548749D03*
D12*
X47853082Y-2548749D03*
D11*
X53353082Y-2548749D03*
D13*
X42853082Y-6248749D03*
X47853082Y-8448749D03*
D12*
X119853082Y11851251D03*
D11*
X114353082Y11851251D03*
X125353082Y11851251D03*
D13*
X114853082Y8151251D03*
X119853082Y5951251D03*
D11*
X143353082Y-6148749D03*
X132353082Y-6148749D03*
D12*
X137853082Y-6148749D03*
D13*
X132853082Y-9848749D03*
X137853082Y-12048749D03*
D11*
X78353082Y-37848749D03*
D12*
X83853082Y-37848749D03*
D11*
X89353082Y-37848749D03*
D13*
X78853082Y-41548749D03*
X83853082Y-43748749D03*
D11*
X78353082Y35151251D03*
D12*
X83853082Y35151251D03*
D11*
X89353082Y35151251D03*
D13*
X78853082Y31451251D03*
X83853082Y29251251D03*
D11*
X71353082Y-17148749D03*
X60353082Y-17148749D03*
D12*
X65853082Y-17148749D03*
D13*
X60853082Y-20848749D03*
X65853082Y-23048749D03*
D14*
X43753082Y17238751D03*
X43753082Y18963751D03*
X42115582Y17238751D03*
X42115582Y18963751D03*
D15*
X15453082Y35726251D03*
X13703082Y35726251D03*
D11*
X45216222Y-42098749D03*
X35689942Y-36598749D03*
D12*
X40453082Y-39348749D03*
D13*
X34272955Y-40053043D03*
X37503082Y-44458299D03*
D15*
X31153082Y35751251D03*
X29403082Y35751251D03*
D16*
X18153082Y-12148749D03*
D13*
X18153082Y-17148749D03*
X18153082Y-14648749D03*
D17*
X25653082Y-9048749D03*
X25653082Y-20248749D03*
D13*
X32653082Y-17148749D03*
X32653082Y-12148749D03*
D11*
X71253082Y-39148749D03*
D12*
X65753082Y-39148749D03*
D11*
X60253082Y-39148749D03*
D13*
X60753082Y-42848749D03*
X65753082Y-45048749D03*
D18*
X128853082Y20026251D03*
X22578082Y26251251D03*
X56753082Y24126251D03*
X56853082Y-9873749D03*
X37078082Y-25548749D03*
X128853082Y-14173749D03*
D19*
X16577782Y37171151D03*
X27728382Y37183851D03*
X16577482Y34157251D03*
X27728382Y33640551D03*
X27728082Y33395251D03*
X16578082Y38390351D03*
X27728382Y37818851D03*
X16577482Y33894551D03*
X27728082Y34157251D03*
X16577782Y38110951D03*
X16577782Y33640551D03*
X27728682Y38403051D03*
X16577482Y33395251D03*
X27728382Y38123651D03*
X27728082Y33894551D03*
X27728382Y37475951D03*
X16577782Y37806151D03*
X16577782Y37463251D03*
D20*
X38078082Y24951251D03*
D21*
X38078082Y27491251D03*
X38078082Y30031251D03*
X38078082Y32571251D03*
D22*
X34973037Y24883251D03*
X34973037Y26153251D03*
D23*
X14728082Y27151251D03*
X14728082Y24151251D03*
D11*
X-30775870Y31451251D03*
X-19775870Y31451251D03*
D12*
X-25275870Y31451251D03*
D13*
X-30275870Y27751251D03*
X-25275870Y25551251D03*
D11*
X-48775870Y33851251D03*
D12*
X-43275870Y33851251D03*
D11*
X-37775870Y33851251D03*
D13*
X-48275870Y30151251D03*
X-43275870Y27951251D03*
D11*
X-73775870Y33851251D03*
D12*
X-79275870Y33851251D03*
D11*
X-84775870Y33851251D03*
D13*
X-84275870Y30151251D03*
X-79275870Y27951251D03*
D11*
X-91775870Y28851251D03*
D12*
X-97275870Y28851251D03*
D11*
X-102775870Y28851251D03*
D13*
X-102275870Y25151251D03*
X-97275870Y22951251D03*
D11*
X-120775870Y27851251D03*
D12*
X-115275870Y27851251D03*
D11*
X-109775870Y27851251D03*
D13*
X-120275870Y24151251D03*
X-115275870Y21951251D03*
D12*
X-25275870Y14451251D03*
D11*
X-30775870Y14451251D03*
X-19775870Y14451251D03*
D13*
X-30275870Y10751251D03*
X-25275870Y8551251D03*
D12*
X-43275870Y16851251D03*
D11*
X-37775870Y16851251D03*
X-48775870Y16851251D03*
D13*
X-48275870Y13151251D03*
X-43275870Y10951251D03*
D11*
X-55775870Y18151251D03*
D12*
X-61275870Y18151251D03*
D11*
X-66775870Y18151251D03*
D13*
X-66275870Y14451251D03*
X-61275870Y12251251D03*
D12*
X-79275870Y16851251D03*
D11*
X-84775870Y16851251D03*
X-73775870Y16851251D03*
D13*
X-84275870Y13151251D03*
X-79275870Y10951251D03*
D11*
X-109775870Y10851251D03*
D12*
X-115275870Y10851251D03*
D11*
X-120775870Y10851251D03*
D13*
X-120275870Y7151251D03*
X-115275870Y4951251D03*
D11*
X-48775870Y-148749D03*
X-37775870Y-148749D03*
D12*
X-43275870Y-148749D03*
D13*
X-48275870Y-3848749D03*
X-43275870Y-6048749D03*
D12*
X-61275870Y1151251D03*
D11*
X-66775870Y1151251D03*
X-55775870Y1151251D03*
D13*
X-66275870Y-2548749D03*
X-61275870Y-4748749D03*
D11*
X-73775870Y-148749D03*
X-84775870Y-148749D03*
D12*
X-79275870Y-148749D03*
D13*
X-84275870Y-3848749D03*
X-79275870Y-6048749D03*
D11*
X-91775870Y-5148749D03*
D12*
X-97275870Y-5148749D03*
D11*
X-102775870Y-5148749D03*
D13*
X-102275870Y-8848749D03*
X-97275870Y-11048749D03*
D11*
X-30775870Y-19548749D03*
X-19775870Y-19548749D03*
D12*
X-25275870Y-19548749D03*
D13*
X-30275870Y-23248749D03*
X-25275870Y-25448749D03*
D11*
X-66775870Y-15848749D03*
D12*
X-61275870Y-15848749D03*
D11*
X-55775870Y-15848749D03*
D13*
X-66275870Y-19548749D03*
X-61275870Y-21748749D03*
D12*
X-79275870Y-17148749D03*
D11*
X-84775870Y-17148749D03*
X-73775870Y-17148749D03*
D13*
X-84275870Y-20848749D03*
X-79275870Y-23048749D03*
D11*
X-91775870Y-22148749D03*
D12*
X-97275870Y-22148749D03*
D11*
X-102775870Y-22148749D03*
D13*
X-102275870Y-25848749D03*
X-97275870Y-28048749D03*
D11*
X-109775870Y-23148749D03*
X-120775870Y-23148749D03*
D12*
X-115275870Y-23148749D03*
D13*
X-120275870Y-26848749D03*
X-115275870Y-29048749D03*
D11*
X-30775870Y-2548749D03*
D12*
X-25275870Y-2548749D03*
D11*
X-19775870Y-2548749D03*
D13*
X-30275870Y-6248749D03*
X-25275870Y-8448749D03*
D12*
X-97275870Y11851251D03*
D11*
X-102775870Y11851251D03*
X-91775870Y11851251D03*
D13*
X-102275870Y8151251D03*
X-97275870Y5951251D03*
D11*
X-109775870Y-6148749D03*
X-120775870Y-6148749D03*
D12*
X-115275870Y-6148749D03*
D13*
X-120275870Y-9848749D03*
X-115275870Y-12048749D03*
D11*
X-66775870Y-37848749D03*
D12*
X-61275870Y-37848749D03*
D11*
X-55775870Y-37848749D03*
D13*
X-66275870Y-41548749D03*
X-61275870Y-43748749D03*
D11*
X-66775870Y35151251D03*
D12*
X-61275870Y35151251D03*
D11*
X-55775870Y35151251D03*
D13*
X-66275870Y31451251D03*
X-61275870Y29251251D03*
D11*
X-37775870Y-17148749D03*
X-48775870Y-17148749D03*
D12*
X-43275870Y-17148749D03*
D13*
X-48275870Y-20848749D03*
X-43275870Y-23048749D03*
D20*
X-34475870Y30751251D03*
D21*
X-34475870Y33291251D03*
X-34475870Y35831251D03*
X-34475870Y38371251D03*
D24*
X7124130Y35726251D03*
X8874130Y35726251D03*
D11*
X-13112730Y-36598749D03*
X-22639010Y-42098749D03*
D12*
X-17875870Y-39348749D03*
D13*
X-20355997Y-45053043D03*
X-14925870Y-44458299D03*
D24*
X-8575870Y35751251D03*
X-6825870Y35751251D03*
D16*
X4424130Y-17148749D03*
D13*
X4424130Y-12148749D03*
X4424130Y-14648749D03*
D17*
X-3075870Y-20248749D03*
X-3075870Y-9048749D03*
D13*
X-10075870Y-12148749D03*
X-10075870Y-17148749D03*
D11*
X-37675870Y-39148749D03*
D12*
X-43175870Y-39148749D03*
D11*
X-48675870Y-39148749D03*
D13*
X-48175870Y-42848749D03*
X-43175870Y-45048749D03*
D19*
X-5151170Y37171151D03*
X5999430Y37183851D03*
X-5151470Y34157251D03*
X5999430Y33640551D03*
X5999130Y33395251D03*
X-5150870Y38390351D03*
X5999430Y37818851D03*
X-5151470Y33894551D03*
X5999130Y34157251D03*
X-5151170Y38110951D03*
X-5151170Y33640551D03*
X5999730Y38403051D03*
X-5151470Y33395251D03*
X5999430Y38123651D03*
X5999130Y33894551D03*
X5999430Y37475951D03*
X-5151170Y37806151D03*
X-5151170Y37463251D03*
D22*
X-20477825Y24883251D03*
X-20477825Y26153251D03*
D18*
X-106275870Y20026251D03*
X-870Y26251251D03*
X-34175870Y24126251D03*
X-34275870Y-9873749D03*
X-14500870Y-25548749D03*
X-106275870Y-14173749D03*
D23*
X7849130Y24151251D03*
X7849130Y27151251D03*
M02*
