G04 #@! TF.GenerationSoftware,KiCad,Pcbnew,(5.99.0-8557-g8988e46ab1)*
G04 #@! TF.CreationDate,2021-02-20T09:12:51-07:00*
G04 #@! TF.ProjectId,BlueSof_R3_Panel,426c7565-536f-4665-9f52-335f50616e65,rev?*
G04 #@! TF.SameCoordinates,PX85099e0PY51bada0*
G04 #@! TF.FileFunction,Legend,Bot*
G04 #@! TF.FilePolarity,Positive*
%FSLAX46Y46*%
G04 Gerber Fmt 4.6, Leading zero omitted, Abs format (unit mm)*
G04 Created by KiCad (PCBNEW (5.99.0-8557-g8988e46ab1)) date 2021-02-20 09:12:51*
%MOMM*%
%LPD*%
G01*
G04 APERTURE LIST*
%ADD10C,0.200000*%
%ADD11C,0.150000*%
%ADD12C,0.015000*%
%ADD13C,0.152000*%
%ADD14C,0.120000*%
%ADD15C,0.254000*%
G04 APERTURE END LIST*
D10*
X120305085Y38069811D02*
X120139739Y38059886D01*
X120075586Y38022847D01*
X119997876Y37935212D01*
X119957204Y37783424D01*
X119980686Y37668675D01*
X120017725Y37604521D01*
X120105360Y37526811D01*
X120510129Y37418353D01*
X120794830Y38480872D01*
X120440657Y38575772D01*
X120325907Y38552290D01*
X120261754Y38515251D01*
X120184044Y38427616D01*
X120156929Y38326424D01*
X120180411Y38211675D01*
X120217450Y38147521D01*
X120305085Y38069811D01*
X120659258Y37974911D01*
X119295822Y37743726D02*
X119410571Y37767208D01*
X119488282Y37854843D01*
X119732311Y38765573D01*
X118625489Y38682544D02*
X118435688Y37974198D01*
X119080854Y38560529D02*
X118931725Y38003972D01*
X118854014Y37916337D01*
X118739265Y37892855D01*
X118587476Y37933526D01*
X118499841Y38011237D01*
X118462802Y38075390D01*
X117538515Y38268824D02*
X117626150Y38191113D01*
X117828535Y38136884D01*
X117943284Y38160366D01*
X118020995Y38248001D01*
X118129452Y38652770D01*
X118105970Y38767519D01*
X118018335Y38845230D01*
X117815951Y38899459D01*
X117701201Y38875977D01*
X117623491Y38788342D01*
X117596377Y38687150D01*
X118075223Y38450386D01*
X117083150Y38390838D02*
X116917805Y38380914D01*
X116664824Y38448700D01*
X116577189Y38526410D01*
X116540150Y38590563D01*
X116516668Y38705313D01*
X116543783Y38806505D01*
X116621493Y38894140D01*
X116685646Y38931179D01*
X116800396Y38954661D01*
X117016338Y38951028D01*
X117131087Y38974510D01*
X117195240Y39011549D01*
X117272951Y39099184D01*
X117300065Y39200376D01*
X117276583Y39315125D01*
X117239544Y39379279D01*
X117151909Y39456989D01*
X116898929Y39524775D01*
X116733583Y39514851D01*
X115855286Y38665615D02*
X115970036Y38689096D01*
X116034189Y38726135D01*
X116111899Y38813770D01*
X116193243Y39117347D01*
X116169761Y39232096D01*
X116132722Y39296250D01*
X116045087Y39373960D01*
X115893298Y39414632D01*
X115778549Y39391150D01*
X115714396Y39354111D01*
X115636685Y39266476D01*
X115555342Y38962899D01*
X115578824Y38848150D01*
X115615863Y38783997D01*
X115703498Y38706286D01*
X115855286Y38665615D01*
X115387337Y39550204D02*
X114982568Y39658661D01*
X115045748Y38882530D02*
X115289778Y39793260D01*
X115266296Y39908009D01*
X115178661Y39985720D01*
X115077469Y40012834D01*
X114065546Y40283978D02*
X113426673Y39316360D01*
X113357201Y40473778D01*
X113026510Y40453929D02*
X112989471Y40518083D01*
X112901836Y40595793D01*
X112648855Y40663579D01*
X112534106Y40640097D01*
X112469952Y40603058D01*
X112392242Y40515423D01*
X112365128Y40414231D01*
X112375052Y40248886D01*
X112819519Y39479046D01*
X112161770Y39655289D01*
X110896867Y39994219D02*
X111181568Y41056737D01*
X111073110Y40651969D02*
X110985475Y40729679D01*
X110783091Y40783908D01*
X110668341Y40760426D01*
X110604188Y40723387D01*
X110526478Y40635752D01*
X110445135Y40332175D01*
X110468616Y40217426D01*
X110505655Y40153273D01*
X110593290Y40075562D01*
X110795675Y40021333D01*
X110910424Y40044815D01*
X110226534Y40933037D02*
X109783752Y40292477D01*
X109720572Y41068609D02*
X109783752Y40292477D01*
X109817159Y40012382D01*
X109854198Y39948229D01*
X109941833Y39870518D01*
X108465594Y41242193D02*
X108111421Y41337093D01*
X107810504Y40821208D02*
X108316465Y40685636D01*
X108601166Y41748154D01*
X108095205Y41883726D01*
X106747986Y41105908D02*
X107237730Y41516969D01*
X107355139Y40943222D02*
X107639840Y42005741D01*
X107235071Y42114198D01*
X107120322Y42090716D01*
X107056168Y42053677D01*
X106978458Y41966042D01*
X106937786Y41814254D01*
X106961268Y41699505D01*
X106998307Y41635351D01*
X107085942Y41557641D01*
X107490711Y41449183D01*
X105786659Y41363495D02*
X106292620Y41227923D01*
X106577321Y42290442D01*
D11*
X40567367Y14444109D02*
X40567367Y12158394D01*
X41710224Y13301251D02*
X39424510Y13301251D01*
X39410224Y17215537D02*
X41695939Y17215537D01*
X-17722582Y17960094D02*
X-17722582Y15674379D01*
X-16579725Y16817236D02*
X-18865439Y16817236D01*
X-18579725Y14531522D02*
X-16294010Y14531522D01*
D10*
X-83025536Y42250465D02*
X-83163767Y42159198D01*
X-83200806Y42095044D01*
X-83224287Y41980295D01*
X-83183616Y41828507D01*
X-83105905Y41740872D01*
X-83041752Y41703833D01*
X-82927003Y41680351D01*
X-82522234Y41788808D01*
X-82806935Y42851327D01*
X-83161107Y42756427D01*
X-83248742Y42678716D01*
X-83285781Y42614563D01*
X-83309263Y42499813D01*
X-83282149Y42398621D01*
X-83204438Y42310986D01*
X-83140285Y42273947D01*
X-83025536Y42250465D01*
X-82671363Y42345366D01*
X-83736540Y41463436D02*
X-83648905Y41541146D01*
X-83625424Y41655896D01*
X-83869453Y42566626D01*
X-84786475Y41941309D02*
X-84596674Y41232964D01*
X-84331110Y42063324D02*
X-84181981Y41506767D01*
X-84205463Y41392017D01*
X-84293098Y41314307D01*
X-84444886Y41273635D01*
X-84559635Y41297117D01*
X-84623789Y41334156D01*
X-85520962Y41039531D02*
X-85406212Y41016049D01*
X-85203828Y41070278D01*
X-85116193Y41147988D01*
X-85092711Y41262737D01*
X-85201168Y41667506D01*
X-85278879Y41755141D01*
X-85393628Y41778623D01*
X-85596013Y41724394D01*
X-85683648Y41646684D01*
X-85707130Y41531934D01*
X-85680015Y41430742D01*
X-85146940Y41465122D01*
X-85976327Y40917516D02*
X-86114558Y40826248D01*
X-86367538Y40758462D01*
X-86482288Y40781944D01*
X-86546441Y40818983D01*
X-86624152Y40906618D01*
X-86651266Y41007810D01*
X-86627784Y41122560D01*
X-86590745Y41186713D01*
X-86503110Y41264423D01*
X-86314283Y41369248D01*
X-86226648Y41446959D01*
X-86189609Y41511112D01*
X-86166127Y41625861D01*
X-86193242Y41727054D01*
X-86270952Y41814689D01*
X-86335105Y41851728D01*
X-86449855Y41875209D01*
X-86702835Y41807423D01*
X-86841067Y41716156D01*
X-87177076Y40541547D02*
X-87089441Y40619258D01*
X-87052402Y40683411D01*
X-87028921Y40798160D01*
X-87110264Y41101737D01*
X-87187974Y41189372D01*
X-87252127Y41226411D01*
X-87366877Y41249893D01*
X-87518665Y41209221D01*
X-87606300Y41131511D01*
X-87643339Y41067357D01*
X-87666821Y40952608D01*
X-87585478Y40649031D01*
X-87507767Y40561396D01*
X-87443614Y40524357D01*
X-87328865Y40500876D01*
X-87177076Y40541547D01*
X-88024626Y41073649D02*
X-88429395Y40965192D01*
X-87986614Y40324632D02*
X-88230643Y41235362D01*
X-88308354Y41322997D01*
X-88423103Y41346479D01*
X-88524296Y41319365D01*
X-89536218Y41048221D02*
X-89605690Y39890802D01*
X-90244564Y40858420D01*
X-90521026Y40675885D02*
X-90585179Y40712924D01*
X-90699929Y40736406D01*
X-90952909Y40668620D01*
X-91040544Y40590909D01*
X-91077583Y40526756D01*
X-91101065Y40412006D01*
X-91073950Y40310814D01*
X-90982683Y40172583D01*
X-90212843Y39728116D01*
X-90870593Y39551872D01*
X-92135495Y39212943D02*
X-92420196Y40275461D01*
X-92311739Y39870692D02*
X-92426488Y39894174D01*
X-92628873Y39839945D01*
X-92716508Y39762235D01*
X-92753547Y39698081D01*
X-92777029Y39583332D01*
X-92695685Y39279755D01*
X-92617975Y39192120D01*
X-92553822Y39155081D01*
X-92439072Y39131600D01*
X-92236688Y39185828D01*
X-92149053Y39263539D01*
X-93185430Y39690816D02*
X-93248610Y38914685D01*
X-93691391Y39555244D02*
X-93248610Y38914685D01*
X-93079632Y38688818D01*
X-93015479Y38651779D01*
X-92900729Y38628298D01*
X-94865026Y39078083D02*
X-95219199Y38983183D01*
X-95221858Y38385954D02*
X-94715897Y38521526D01*
X-95000598Y39584045D01*
X-95506559Y39448473D01*
X-96284377Y38101253D02*
X-96065776Y38702115D01*
X-95677224Y38263940D02*
X-95961924Y39326458D01*
X-96366693Y39218000D01*
X-96454328Y39140290D01*
X-96491367Y39076137D01*
X-96514849Y38961387D01*
X-96474178Y38809599D01*
X-96396467Y38721964D01*
X-96332314Y38684925D01*
X-96217564Y38661443D01*
X-95812795Y38769901D01*
X-97245703Y37843667D02*
X-96739742Y37979239D01*
X-97024443Y39041757D01*
D11*
X66791177Y36098871D02*
X66791177Y37098871D01*
X66553082Y37098871D01*
X66410224Y37051251D01*
X66314986Y36956013D01*
X66267367Y36860775D01*
X66219748Y36670299D01*
X66219748Y36527442D01*
X66267367Y36336966D01*
X66314986Y36241728D01*
X66410224Y36146490D01*
X66553082Y36098871D01*
X66791177Y36098871D01*
X65838796Y37003632D02*
X65791177Y37051251D01*
X65695939Y37098871D01*
X65457843Y37098871D01*
X65362605Y37051251D01*
X65314986Y37003632D01*
X65267367Y36908394D01*
X65267367Y36813156D01*
X65314986Y36670299D01*
X65886415Y36098871D01*
X65267367Y36098871D01*
X84591177Y37448871D02*
X84591177Y38448871D01*
X84353082Y38448871D01*
X84210224Y38401251D01*
X84114986Y38306013D01*
X84067367Y38210775D01*
X84019748Y38020299D01*
X84019748Y37877442D01*
X84067367Y37686966D01*
X84114986Y37591728D01*
X84210224Y37496490D01*
X84353082Y37448871D01*
X84591177Y37448871D01*
X83686415Y38448871D02*
X83067367Y38448871D01*
X83400701Y38067918D01*
X83257843Y38067918D01*
X83162605Y38020299D01*
X83114986Y37972680D01*
X83067367Y37877442D01*
X83067367Y37639347D01*
X83114986Y37544109D01*
X83162605Y37496490D01*
X83257843Y37448871D01*
X83543558Y37448871D01*
X83638796Y37496490D01*
X83686415Y37544109D01*
X102591177Y36148871D02*
X102591177Y37148871D01*
X102353082Y37148871D01*
X102210224Y37101251D01*
X102114986Y37006013D01*
X102067367Y36910775D01*
X102019748Y36720299D01*
X102019748Y36577442D01*
X102067367Y36386966D01*
X102114986Y36291728D01*
X102210224Y36196490D01*
X102353082Y36148871D01*
X102591177Y36148871D01*
X101162605Y36815537D02*
X101162605Y36148871D01*
X101400701Y37196490D02*
X101638796Y36482204D01*
X101019748Y36482204D01*
X120591177Y31148871D02*
X120591177Y32148871D01*
X120353082Y32148871D01*
X120210224Y32101251D01*
X120114986Y32006013D01*
X120067367Y31910775D01*
X120019748Y31720299D01*
X120019748Y31577442D01*
X120067367Y31386966D01*
X120114986Y31291728D01*
X120210224Y31196490D01*
X120353082Y31148871D01*
X120591177Y31148871D01*
X119114986Y32148871D02*
X119591177Y32148871D01*
X119638796Y31672680D01*
X119591177Y31720299D01*
X119495939Y31767918D01*
X119257843Y31767918D01*
X119162605Y31720299D01*
X119114986Y31672680D01*
X119067367Y31577442D01*
X119067367Y31339347D01*
X119114986Y31244109D01*
X119162605Y31196490D01*
X119257843Y31148871D01*
X119495939Y31148871D01*
X119591177Y31196490D01*
X119638796Y31244109D01*
X138591177Y30148871D02*
X138591177Y31148871D01*
X138353082Y31148871D01*
X138210224Y31101251D01*
X138114986Y31006013D01*
X138067367Y30910775D01*
X138019748Y30720299D01*
X138019748Y30577442D01*
X138067367Y30386966D01*
X138114986Y30291728D01*
X138210224Y30196490D01*
X138353082Y30148871D01*
X138591177Y30148871D01*
X137162605Y31148871D02*
X137353082Y31148871D01*
X137448320Y31101251D01*
X137495939Y31053632D01*
X137591177Y30910775D01*
X137638796Y30720299D01*
X137638796Y30339347D01*
X137591177Y30244109D01*
X137543558Y30196490D01*
X137448320Y30148871D01*
X137257843Y30148871D01*
X137162605Y30196490D01*
X137114986Y30244109D01*
X137067367Y30339347D01*
X137067367Y30577442D01*
X137114986Y30672680D01*
X137162605Y30720299D01*
X137257843Y30767918D01*
X137448320Y30767918D01*
X137543558Y30720299D01*
X137591177Y30672680D01*
X137638796Y30577442D01*
X48541177Y16748871D02*
X48541177Y17748871D01*
X48303082Y17748871D01*
X48160224Y17701251D01*
X48064986Y17606013D01*
X48017367Y17510775D01*
X47969748Y17320299D01*
X47969748Y17177442D01*
X48017367Y16986966D01*
X48064986Y16891728D01*
X48160224Y16796490D01*
X48303082Y16748871D01*
X48541177Y16748871D01*
X47636415Y17748871D02*
X46969748Y17748871D01*
X47398320Y16748871D01*
X66491177Y19198871D02*
X66491177Y20198871D01*
X66253082Y20198871D01*
X66110224Y20151251D01*
X66014986Y20056013D01*
X65967367Y19960775D01*
X65919748Y19770299D01*
X65919748Y19627442D01*
X65967367Y19436966D01*
X66014986Y19341728D01*
X66110224Y19246490D01*
X66253082Y19198871D01*
X66491177Y19198871D01*
X65348320Y19770299D02*
X65443558Y19817918D01*
X65491177Y19865537D01*
X65538796Y19960775D01*
X65538796Y20008394D01*
X65491177Y20103632D01*
X65443558Y20151251D01*
X65348320Y20198871D01*
X65157843Y20198871D01*
X65062605Y20151251D01*
X65014986Y20103632D01*
X64967367Y20008394D01*
X64967367Y19960775D01*
X65014986Y19865537D01*
X65062605Y19817918D01*
X65157843Y19770299D01*
X65348320Y19770299D01*
X65443558Y19722680D01*
X65491177Y19675061D01*
X65538796Y19579823D01*
X65538796Y19389347D01*
X65491177Y19294109D01*
X65443558Y19246490D01*
X65348320Y19198871D01*
X65157843Y19198871D01*
X65062605Y19246490D01*
X65014986Y19294109D01*
X64967367Y19389347D01*
X64967367Y19579823D01*
X65014986Y19675061D01*
X65062605Y19722680D01*
X65157843Y19770299D01*
X84591177Y20448871D02*
X84591177Y21448871D01*
X84353082Y21448871D01*
X84210224Y21401251D01*
X84114986Y21306013D01*
X84067367Y21210775D01*
X84019748Y21020299D01*
X84019748Y20877442D01*
X84067367Y20686966D01*
X84114986Y20591728D01*
X84210224Y20496490D01*
X84353082Y20448871D01*
X84591177Y20448871D01*
X83543558Y20448871D02*
X83353082Y20448871D01*
X83257843Y20496490D01*
X83210224Y20544109D01*
X83114986Y20686966D01*
X83067367Y20877442D01*
X83067367Y21258394D01*
X83114986Y21353632D01*
X83162605Y21401251D01*
X83257843Y21448871D01*
X83448320Y21448871D01*
X83543558Y21401251D01*
X83591177Y21353632D01*
X83638796Y21258394D01*
X83638796Y21020299D01*
X83591177Y20925061D01*
X83543558Y20877442D01*
X83448320Y20829823D01*
X83257843Y20829823D01*
X83162605Y20877442D01*
X83114986Y20925061D01*
X83067367Y21020299D01*
X103017367Y19148871D02*
X103017367Y20148871D01*
X102779272Y20148871D01*
X102636415Y20101251D01*
X102541177Y20006013D01*
X102493558Y19910775D01*
X102445939Y19720299D01*
X102445939Y19577442D01*
X102493558Y19386966D01*
X102541177Y19291728D01*
X102636415Y19196490D01*
X102779272Y19148871D01*
X103017367Y19148871D01*
X101493558Y19148871D02*
X102064986Y19148871D01*
X101779272Y19148871D02*
X101779272Y20148871D01*
X101874510Y20006013D01*
X101969748Y19910775D01*
X102064986Y19863156D01*
X100874510Y20148871D02*
X100779272Y20148871D01*
X100684034Y20101251D01*
X100636415Y20053632D01*
X100588796Y19958394D01*
X100541177Y19767918D01*
X100541177Y19529823D01*
X100588796Y19339347D01*
X100636415Y19244109D01*
X100684034Y19196490D01*
X100779272Y19148871D01*
X100874510Y19148871D01*
X100969748Y19196490D01*
X101017367Y19244109D01*
X101064986Y19339347D01*
X101112605Y19529823D01*
X101112605Y19767918D01*
X101064986Y19958394D01*
X101017367Y20053632D01*
X100969748Y20101251D01*
X100874510Y20148871D01*
X121067367Y14148871D02*
X121067367Y15148871D01*
X120829272Y15148871D01*
X120686415Y15101251D01*
X120591177Y15006013D01*
X120543558Y14910775D01*
X120495939Y14720299D01*
X120495939Y14577442D01*
X120543558Y14386966D01*
X120591177Y14291728D01*
X120686415Y14196490D01*
X120829272Y14148871D01*
X121067367Y14148871D01*
X119543558Y14148871D02*
X120114986Y14148871D01*
X119829272Y14148871D02*
X119829272Y15148871D01*
X119924510Y15006013D01*
X120019748Y14910775D01*
X120114986Y14863156D01*
X118591177Y14148871D02*
X119162605Y14148871D01*
X118876891Y14148871D02*
X118876891Y15148871D01*
X118972129Y15006013D01*
X119067367Y14910775D01*
X119162605Y14863156D01*
X139017367Y13148871D02*
X139017367Y14148871D01*
X138779272Y14148871D01*
X138636415Y14101251D01*
X138541177Y14006013D01*
X138493558Y13910775D01*
X138445939Y13720299D01*
X138445939Y13577442D01*
X138493558Y13386966D01*
X138541177Y13291728D01*
X138636415Y13196490D01*
X138779272Y13148871D01*
X139017367Y13148871D01*
X137493558Y13148871D02*
X138064986Y13148871D01*
X137779272Y13148871D02*
X137779272Y14148871D01*
X137874510Y14006013D01*
X137969748Y13910775D01*
X138064986Y13863156D01*
X137112605Y14053632D02*
X137064986Y14101251D01*
X136969748Y14148871D01*
X136731653Y14148871D01*
X136636415Y14101251D01*
X136588796Y14053632D01*
X136541177Y13958394D01*
X136541177Y13863156D01*
X136588796Y13720299D01*
X137160224Y13148871D01*
X136541177Y13148871D01*
X67267367Y2198871D02*
X67267367Y3198871D01*
X67029272Y3198871D01*
X66886415Y3151251D01*
X66791177Y3056013D01*
X66743558Y2960775D01*
X66695939Y2770299D01*
X66695939Y2627442D01*
X66743558Y2436966D01*
X66791177Y2341728D01*
X66886415Y2246490D01*
X67029272Y2198871D01*
X67267367Y2198871D01*
X65743558Y2198871D02*
X66314986Y2198871D01*
X66029272Y2198871D02*
X66029272Y3198871D01*
X66124510Y3056013D01*
X66219748Y2960775D01*
X66314986Y2913156D01*
X64886415Y2865537D02*
X64886415Y2198871D01*
X65124510Y3246490D02*
X65362605Y2532204D01*
X64743558Y2532204D01*
X85067367Y3448871D02*
X85067367Y4448871D01*
X84829272Y4448871D01*
X84686415Y4401251D01*
X84591177Y4306013D01*
X84543558Y4210775D01*
X84495939Y4020299D01*
X84495939Y3877442D01*
X84543558Y3686966D01*
X84591177Y3591728D01*
X84686415Y3496490D01*
X84829272Y3448871D01*
X85067367Y3448871D01*
X83543558Y3448871D02*
X84114986Y3448871D01*
X83829272Y3448871D02*
X83829272Y4448871D01*
X83924510Y4306013D01*
X84019748Y4210775D01*
X84114986Y4163156D01*
X82638796Y4448871D02*
X83114986Y4448871D01*
X83162605Y3972680D01*
X83114986Y4020299D01*
X83019748Y4067918D01*
X82781653Y4067918D01*
X82686415Y4020299D01*
X82638796Y3972680D01*
X82591177Y3877442D01*
X82591177Y3639347D01*
X82638796Y3544109D01*
X82686415Y3496490D01*
X82781653Y3448871D01*
X83019748Y3448871D01*
X83114986Y3496490D01*
X83162605Y3544109D01*
X103017367Y2148871D02*
X103017367Y3148871D01*
X102779272Y3148871D01*
X102636415Y3101251D01*
X102541177Y3006013D01*
X102493558Y2910775D01*
X102445939Y2720299D01*
X102445939Y2577442D01*
X102493558Y2386966D01*
X102541177Y2291728D01*
X102636415Y2196490D01*
X102779272Y2148871D01*
X103017367Y2148871D01*
X101493558Y2148871D02*
X102064986Y2148871D01*
X101779272Y2148871D02*
X101779272Y3148871D01*
X101874510Y3006013D01*
X101969748Y2910775D01*
X102064986Y2863156D01*
X100636415Y3148871D02*
X100826891Y3148871D01*
X100922129Y3101251D01*
X100969748Y3053632D01*
X101064986Y2910775D01*
X101112605Y2720299D01*
X101112605Y2339347D01*
X101064986Y2244109D01*
X101017367Y2196490D01*
X100922129Y2148871D01*
X100731653Y2148871D01*
X100636415Y2196490D01*
X100588796Y2244109D01*
X100541177Y2339347D01*
X100541177Y2577442D01*
X100588796Y2672680D01*
X100636415Y2720299D01*
X100731653Y2767918D01*
X100922129Y2767918D01*
X101017367Y2720299D01*
X101064986Y2672680D01*
X101112605Y2577442D01*
X121067367Y-2851129D02*
X121067367Y-1851129D01*
X120829272Y-1851129D01*
X120686415Y-1898749D01*
X120591177Y-1993987D01*
X120543558Y-2089225D01*
X120495939Y-2279701D01*
X120495939Y-2422558D01*
X120543558Y-2613034D01*
X120591177Y-2708272D01*
X120686415Y-2803510D01*
X120829272Y-2851129D01*
X121067367Y-2851129D01*
X119543558Y-2851129D02*
X120114986Y-2851129D01*
X119829272Y-2851129D02*
X119829272Y-1851129D01*
X119924510Y-1993987D01*
X120019748Y-2089225D01*
X120114986Y-2136844D01*
X119210224Y-1851129D02*
X118543558Y-1851129D01*
X118972129Y-2851129D01*
X139017367Y-3851129D02*
X139017367Y-2851129D01*
X138779272Y-2851129D01*
X138636415Y-2898749D01*
X138541177Y-2993987D01*
X138493558Y-3089225D01*
X138445939Y-3279701D01*
X138445939Y-3422558D01*
X138493558Y-3613034D01*
X138541177Y-3708272D01*
X138636415Y-3803510D01*
X138779272Y-3851129D01*
X139017367Y-3851129D01*
X137493558Y-3851129D02*
X138064986Y-3851129D01*
X137779272Y-3851129D02*
X137779272Y-2851129D01*
X137874510Y-2993987D01*
X137969748Y-3089225D01*
X138064986Y-3136844D01*
X136922129Y-3279701D02*
X137017367Y-3232082D01*
X137064986Y-3184463D01*
X137112605Y-3089225D01*
X137112605Y-3041606D01*
X137064986Y-2946368D01*
X137017367Y-2898749D01*
X136922129Y-2851129D01*
X136731653Y-2851129D01*
X136636415Y-2898749D01*
X136588796Y-2946368D01*
X136541177Y-3041606D01*
X136541177Y-3089225D01*
X136588796Y-3184463D01*
X136636415Y-3232082D01*
X136731653Y-3279701D01*
X136922129Y-3279701D01*
X137017367Y-3327320D01*
X137064986Y-3374939D01*
X137112605Y-3470177D01*
X137112605Y-3660653D01*
X137064986Y-3755891D01*
X137017367Y-3803510D01*
X136922129Y-3851129D01*
X136731653Y-3851129D01*
X136636415Y-3803510D01*
X136588796Y-3755891D01*
X136541177Y-3660653D01*
X136541177Y-3470177D01*
X136588796Y-3374939D01*
X136636415Y-3327320D01*
X136731653Y-3279701D01*
X49067367Y-17251129D02*
X49067367Y-16251129D01*
X48829272Y-16251129D01*
X48686415Y-16298749D01*
X48591177Y-16393987D01*
X48543558Y-16489225D01*
X48495939Y-16679701D01*
X48495939Y-16822558D01*
X48543558Y-17013034D01*
X48591177Y-17108272D01*
X48686415Y-17203510D01*
X48829272Y-17251129D01*
X49067367Y-17251129D01*
X47543558Y-17251129D02*
X48114986Y-17251129D01*
X47829272Y-17251129D02*
X47829272Y-16251129D01*
X47924510Y-16393987D01*
X48019748Y-16489225D01*
X48114986Y-16536844D01*
X47067367Y-17251129D02*
X46876891Y-17251129D01*
X46781653Y-17203510D01*
X46734034Y-17155891D01*
X46638796Y-17013034D01*
X46591177Y-16822558D01*
X46591177Y-16441606D01*
X46638796Y-16346368D01*
X46686415Y-16298749D01*
X46781653Y-16251129D01*
X46972129Y-16251129D01*
X47067367Y-16298749D01*
X47114986Y-16346368D01*
X47162605Y-16441606D01*
X47162605Y-16679701D01*
X47114986Y-16774939D01*
X47067367Y-16822558D01*
X46972129Y-16870177D01*
X46781653Y-16870177D01*
X46686415Y-16822558D01*
X46638796Y-16774939D01*
X46591177Y-16679701D01*
X67067367Y-14901129D02*
X67067367Y-13901129D01*
X66829272Y-13901129D01*
X66686415Y-13948749D01*
X66591177Y-14043987D01*
X66543558Y-14139225D01*
X66495939Y-14329701D01*
X66495939Y-14472558D01*
X66543558Y-14663034D01*
X66591177Y-14758272D01*
X66686415Y-14853510D01*
X66829272Y-14901129D01*
X67067367Y-14901129D01*
X66114986Y-13996368D02*
X66067367Y-13948749D01*
X65972129Y-13901129D01*
X65734034Y-13901129D01*
X65638796Y-13948749D01*
X65591177Y-13996368D01*
X65543558Y-14091606D01*
X65543558Y-14186844D01*
X65591177Y-14329701D01*
X66162605Y-14901129D01*
X65543558Y-14901129D01*
X64924510Y-13901129D02*
X64829272Y-13901129D01*
X64734034Y-13948749D01*
X64686415Y-13996368D01*
X64638796Y-14091606D01*
X64591177Y-14282082D01*
X64591177Y-14520177D01*
X64638796Y-14710653D01*
X64686415Y-14805891D01*
X64734034Y-14853510D01*
X64829272Y-14901129D01*
X64924510Y-14901129D01*
X65019748Y-14853510D01*
X65067367Y-14805891D01*
X65114986Y-14710653D01*
X65162605Y-14520177D01*
X65162605Y-14282082D01*
X65114986Y-14091606D01*
X65067367Y-13996368D01*
X65019748Y-13948749D01*
X64924510Y-13901129D01*
X85267367Y-13601129D02*
X85267367Y-12601129D01*
X85029272Y-12601129D01*
X84886415Y-12648749D01*
X84791177Y-12743987D01*
X84743558Y-12839225D01*
X84695939Y-13029701D01*
X84695939Y-13172558D01*
X84743558Y-13363034D01*
X84791177Y-13458272D01*
X84886415Y-13553510D01*
X85029272Y-13601129D01*
X85267367Y-13601129D01*
X84314986Y-12696368D02*
X84267367Y-12648749D01*
X84172129Y-12601129D01*
X83934034Y-12601129D01*
X83838796Y-12648749D01*
X83791177Y-12696368D01*
X83743558Y-12791606D01*
X83743558Y-12886844D01*
X83791177Y-13029701D01*
X84362605Y-13601129D01*
X83743558Y-13601129D01*
X82791177Y-13601129D02*
X83362605Y-13601129D01*
X83076891Y-13601129D02*
X83076891Y-12601129D01*
X83172129Y-12743987D01*
X83267367Y-12839225D01*
X83362605Y-12886844D01*
X103017367Y-14851129D02*
X103017367Y-13851129D01*
X102779272Y-13851129D01*
X102636415Y-13898749D01*
X102541177Y-13993987D01*
X102493558Y-14089225D01*
X102445939Y-14279701D01*
X102445939Y-14422558D01*
X102493558Y-14613034D01*
X102541177Y-14708272D01*
X102636415Y-14803510D01*
X102779272Y-14851129D01*
X103017367Y-14851129D01*
X102064986Y-13946368D02*
X102017367Y-13898749D01*
X101922129Y-13851129D01*
X101684034Y-13851129D01*
X101588796Y-13898749D01*
X101541177Y-13946368D01*
X101493558Y-14041606D01*
X101493558Y-14136844D01*
X101541177Y-14279701D01*
X102112605Y-14851129D01*
X101493558Y-14851129D01*
X101112605Y-13946368D02*
X101064986Y-13898749D01*
X100969748Y-13851129D01*
X100731653Y-13851129D01*
X100636415Y-13898749D01*
X100588796Y-13946368D01*
X100541177Y-14041606D01*
X100541177Y-14136844D01*
X100588796Y-14279701D01*
X101160224Y-14851129D01*
X100541177Y-14851129D01*
X121017367Y-19851129D02*
X121017367Y-18851129D01*
X120779272Y-18851129D01*
X120636415Y-18898749D01*
X120541177Y-18993987D01*
X120493558Y-19089225D01*
X120445939Y-19279701D01*
X120445939Y-19422558D01*
X120493558Y-19613034D01*
X120541177Y-19708272D01*
X120636415Y-19803510D01*
X120779272Y-19851129D01*
X121017367Y-19851129D01*
X120064986Y-18946368D02*
X120017367Y-18898749D01*
X119922129Y-18851129D01*
X119684034Y-18851129D01*
X119588796Y-18898749D01*
X119541177Y-18946368D01*
X119493558Y-19041606D01*
X119493558Y-19136844D01*
X119541177Y-19279701D01*
X120112605Y-19851129D01*
X119493558Y-19851129D01*
X119160224Y-18851129D02*
X118541177Y-18851129D01*
X118874510Y-19232082D01*
X118731653Y-19232082D01*
X118636415Y-19279701D01*
X118588796Y-19327320D01*
X118541177Y-19422558D01*
X118541177Y-19660653D01*
X118588796Y-19755891D01*
X118636415Y-19803510D01*
X118731653Y-19851129D01*
X119017367Y-19851129D01*
X119112605Y-19803510D01*
X119160224Y-19755891D01*
X139067367Y-20851129D02*
X139067367Y-19851129D01*
X138829272Y-19851129D01*
X138686415Y-19898749D01*
X138591177Y-19993987D01*
X138543558Y-20089225D01*
X138495939Y-20279701D01*
X138495939Y-20422558D01*
X138543558Y-20613034D01*
X138591177Y-20708272D01*
X138686415Y-20803510D01*
X138829272Y-20851129D01*
X139067367Y-20851129D01*
X138114986Y-19946368D02*
X138067367Y-19898749D01*
X137972129Y-19851129D01*
X137734034Y-19851129D01*
X137638796Y-19898749D01*
X137591177Y-19946368D01*
X137543558Y-20041606D01*
X137543558Y-20136844D01*
X137591177Y-20279701D01*
X138162605Y-20851129D01*
X137543558Y-20851129D01*
X136686415Y-20184463D02*
X136686415Y-20851129D01*
X136924510Y-19803510D02*
X137162605Y-20517796D01*
X136543558Y-20517796D01*
X49067367Y-251129D02*
X49067367Y748871D01*
X48829272Y748871D01*
X48686415Y701251D01*
X48591177Y606013D01*
X48543558Y510775D01*
X48495939Y320299D01*
X48495939Y177442D01*
X48543558Y-13034D01*
X48591177Y-108272D01*
X48686415Y-203510D01*
X48829272Y-251129D01*
X49067367Y-251129D01*
X47543558Y-251129D02*
X48114986Y-251129D01*
X47829272Y-251129D02*
X47829272Y748871D01*
X47924510Y606013D01*
X48019748Y510775D01*
X48114986Y463156D01*
X47210224Y748871D02*
X46591177Y748871D01*
X46924510Y367918D01*
X46781653Y367918D01*
X46686415Y320299D01*
X46638796Y272680D01*
X46591177Y177442D01*
X46591177Y-60653D01*
X46638796Y-155891D01*
X46686415Y-203510D01*
X46781653Y-251129D01*
X47067367Y-251129D01*
X47162605Y-203510D01*
X47210224Y-155891D01*
X67067367Y-36801129D02*
X67067367Y-35801129D01*
X66829272Y-35801129D01*
X66686415Y-35848749D01*
X66591177Y-35943987D01*
X66543558Y-36039225D01*
X66495939Y-36229701D01*
X66495939Y-36372558D01*
X66543558Y-36563034D01*
X66591177Y-36658272D01*
X66686415Y-36753510D01*
X66829272Y-36801129D01*
X67067367Y-36801129D01*
X66114986Y-35896368D02*
X66067367Y-35848749D01*
X65972129Y-35801129D01*
X65734034Y-35801129D01*
X65638796Y-35848749D01*
X65591177Y-35896368D01*
X65543558Y-35991606D01*
X65543558Y-36086844D01*
X65591177Y-36229701D01*
X66162605Y-36801129D01*
X65543558Y-36801129D01*
X65210224Y-35801129D02*
X64543558Y-35801129D01*
X64972129Y-36801129D01*
X41055427Y-36031883D02*
X40555427Y-36897909D01*
X40761623Y-37016956D01*
X40909151Y-37047146D01*
X41039248Y-37012286D01*
X41128107Y-36953617D01*
X41264584Y-36812469D01*
X41336013Y-36688751D01*
X41390011Y-36499985D01*
X41396391Y-36393696D01*
X41361532Y-36263599D01*
X41261623Y-36150931D01*
X41055427Y-36031883D01*
X41427832Y-37291621D02*
X41445262Y-37356669D01*
X41503931Y-37445528D01*
X41710127Y-37564575D01*
X41816415Y-37570955D01*
X41881464Y-37553525D01*
X41970323Y-37494856D01*
X42017942Y-37412378D01*
X42048131Y-37264850D01*
X41838973Y-36484264D01*
X42375084Y-36793788D01*
X42617392Y-38088385D02*
X42452435Y-37993147D01*
X42393766Y-37904288D01*
X42376336Y-37839240D01*
X42365286Y-37667903D01*
X42419285Y-37479136D01*
X42609761Y-37149221D01*
X42698619Y-37090552D01*
X42763668Y-37073123D01*
X42869956Y-37079502D01*
X43034913Y-37174740D01*
X43093582Y-37263599D01*
X43111012Y-37328648D01*
X43104632Y-37434936D01*
X42985585Y-37641132D01*
X42896726Y-37699801D01*
X42831678Y-37717231D01*
X42725390Y-37710851D01*
X42560432Y-37615613D01*
X42501763Y-37526755D01*
X42484333Y-37461706D01*
X42490713Y-37355418D01*
X38805462Y-16934462D02*
X37805462Y-16934462D01*
X37805462Y-17172557D01*
X37853082Y-17315414D01*
X37948320Y-17410652D01*
X38043558Y-17458271D01*
X38234034Y-17505890D01*
X38376891Y-17505890D01*
X38567367Y-17458271D01*
X38662605Y-17410652D01*
X38757843Y-17315414D01*
X38805462Y-17172557D01*
X38805462Y-16934462D01*
X37900701Y-17886843D02*
X37853082Y-17934462D01*
X37805462Y-18029700D01*
X37805462Y-18267795D01*
X37853082Y-18363033D01*
X37900701Y-18410652D01*
X37995939Y-18458271D01*
X38091177Y-18458271D01*
X38234034Y-18410652D01*
X38805462Y-17839224D01*
X38805462Y-18458271D01*
X37805462Y-19363033D02*
X37805462Y-18886843D01*
X38281653Y-18839224D01*
X38234034Y-18886843D01*
X38186415Y-18982081D01*
X38186415Y-19220176D01*
X38234034Y-19315414D01*
X38281653Y-19363033D01*
X38376891Y-19410652D01*
X38614986Y-19410652D01*
X38710224Y-19363033D01*
X38757843Y-19315414D01*
X38805462Y-19220176D01*
X38805462Y-18982081D01*
X38757843Y-18886843D01*
X38710224Y-18839224D01*
X48591177Y33748871D02*
X48591177Y34748871D01*
X48353082Y34748871D01*
X48210224Y34701251D01*
X48114986Y34606013D01*
X48067367Y34510775D01*
X48019748Y34320299D01*
X48019748Y34177442D01*
X48067367Y33986966D01*
X48114986Y33891728D01*
X48210224Y33796490D01*
X48353082Y33748871D01*
X48591177Y33748871D01*
X47067367Y33748871D02*
X47638796Y33748871D01*
X47353082Y33748871D02*
X47353082Y34748871D01*
X47448320Y34606013D01*
X47543558Y34510775D01*
X47638796Y34463156D01*
X85067367Y-35501129D02*
X85067367Y-34501129D01*
X84829272Y-34501129D01*
X84686415Y-34548749D01*
X84591177Y-34643987D01*
X84543558Y-34739225D01*
X84495939Y-34929701D01*
X84495939Y-35072558D01*
X84543558Y-35263034D01*
X84591177Y-35358272D01*
X84686415Y-35453510D01*
X84829272Y-35501129D01*
X85067367Y-35501129D01*
X84114986Y-34596368D02*
X84067367Y-34548749D01*
X83972129Y-34501129D01*
X83734034Y-34501129D01*
X83638796Y-34548749D01*
X83591177Y-34596368D01*
X83543558Y-34691606D01*
X83543558Y-34786844D01*
X83591177Y-34929701D01*
X84162605Y-35501129D01*
X83543558Y-35501129D01*
X82972129Y-34929701D02*
X83067367Y-34882082D01*
X83114986Y-34834463D01*
X83162605Y-34739225D01*
X83162605Y-34691606D01*
X83114986Y-34596368D01*
X83067367Y-34548749D01*
X82972129Y-34501129D01*
X82781653Y-34501129D01*
X82686415Y-34548749D01*
X82638796Y-34596368D01*
X82591177Y-34691606D01*
X82591177Y-34739225D01*
X82638796Y-34834463D01*
X82686415Y-34882082D01*
X82781653Y-34929701D01*
X82972129Y-34929701D01*
X83067367Y-34977320D01*
X83114986Y-35024939D01*
X83162605Y-35120177D01*
X83162605Y-35310653D01*
X83114986Y-35405891D01*
X83067367Y-35453510D01*
X82972129Y-35501129D01*
X82781653Y-35501129D01*
X82686415Y-35453510D01*
X82638796Y-35405891D01*
X82591177Y-35310653D01*
X82591177Y-35120177D01*
X82638796Y-35024939D01*
X82686415Y-34977320D01*
X82781653Y-34929701D01*
X33919748Y13144109D02*
X33967367Y13096490D01*
X34110224Y13048871D01*
X34205462Y13048871D01*
X34348320Y13096490D01*
X34443558Y13191728D01*
X34491177Y13286966D01*
X34538796Y13477442D01*
X34538796Y13620299D01*
X34491177Y13810775D01*
X34443558Y13906013D01*
X34348320Y14001251D01*
X34205462Y14048871D01*
X34110224Y14048871D01*
X33967367Y14001251D01*
X33919748Y13953632D01*
X33014986Y14048871D02*
X33491177Y14048871D01*
X33538796Y13572680D01*
X33491177Y13620299D01*
X33395939Y13667918D01*
X33157843Y13667918D01*
X33062605Y13620299D01*
X33014986Y13572680D01*
X32967367Y13477442D01*
X32967367Y13239347D01*
X33014986Y13144109D01*
X33062605Y13096490D01*
X33157843Y13048871D01*
X33395939Y13048871D01*
X33491177Y13096490D01*
X33538796Y13144109D01*
X24819748Y18544109D02*
X24867367Y18496490D01*
X25010224Y18448871D01*
X25105462Y18448871D01*
X25248320Y18496490D01*
X25343558Y18591728D01*
X25391177Y18686966D01*
X25438796Y18877442D01*
X25438796Y19020299D01*
X25391177Y19210775D01*
X25343558Y19306013D01*
X25248320Y19401251D01*
X25105462Y19448871D01*
X25010224Y19448871D01*
X24867367Y19401251D01*
X24819748Y19353632D01*
X23867367Y18448871D02*
X24438796Y18448871D01*
X24153082Y18448871D02*
X24153082Y19448871D01*
X24248320Y19306013D01*
X24343558Y19210775D01*
X24438796Y19163156D01*
X23019748Y13244109D02*
X23067367Y13196490D01*
X23210224Y13148871D01*
X23305462Y13148871D01*
X23448320Y13196490D01*
X23543558Y13291728D01*
X23591177Y13386966D01*
X23638796Y13577442D01*
X23638796Y13720299D01*
X23591177Y13910775D01*
X23543558Y14006013D01*
X23448320Y14101251D01*
X23305462Y14148871D01*
X23210224Y14148871D01*
X23067367Y14101251D01*
X23019748Y14053632D01*
X22638796Y14053632D02*
X22591177Y14101251D01*
X22495939Y14148871D01*
X22257843Y14148871D01*
X22162605Y14101251D01*
X22114986Y14053632D01*
X22067367Y13958394D01*
X22067367Y13863156D01*
X22114986Y13720299D01*
X22686415Y13148871D01*
X22067367Y13148871D01*
X40810224Y21996490D02*
X40667367Y21948871D01*
X40429272Y21948871D01*
X40334034Y21996490D01*
X40286415Y22044109D01*
X40238796Y22139347D01*
X40238796Y22234585D01*
X40286415Y22329823D01*
X40334034Y22377442D01*
X40429272Y22425061D01*
X40619748Y22472680D01*
X40714986Y22520299D01*
X40762605Y22567918D01*
X40810224Y22663156D01*
X40810224Y22758394D01*
X40762605Y22853632D01*
X40714986Y22901251D01*
X40619748Y22948871D01*
X40381653Y22948871D01*
X40238796Y22901251D01*
X39905462Y22948871D02*
X39667367Y21948871D01*
X39476891Y22663156D01*
X39286415Y21948871D01*
X39048320Y22948871D01*
X38667367Y21948871D02*
X38667367Y22948871D01*
X38429272Y22948871D01*
X38286415Y22901251D01*
X38191177Y22806013D01*
X38143558Y22710775D01*
X38095939Y22520299D01*
X38095939Y22377442D01*
X38143558Y22186966D01*
X38191177Y22091728D01*
X38286415Y21996490D01*
X38429272Y21948871D01*
X38667367Y21948871D01*
X36953082Y22996490D02*
X37810224Y21710775D01*
X36048320Y22044109D02*
X36095939Y21996490D01*
X36238796Y21948871D01*
X36334034Y21948871D01*
X36476891Y21996490D01*
X36572129Y22091728D01*
X36619748Y22186966D01*
X36667367Y22377442D01*
X36667367Y22520299D01*
X36619748Y22710775D01*
X36572129Y22806013D01*
X36476891Y22901251D01*
X36334034Y22948871D01*
X36238796Y22948871D01*
X36095939Y22901251D01*
X36048320Y22853632D01*
X35095939Y21948871D02*
X35667367Y21948871D01*
X35381653Y21948871D02*
X35381653Y22948871D01*
X35476891Y22806013D01*
X35572129Y22710775D01*
X35667367Y22663156D01*
X23300701Y16596490D02*
X23253082Y16691728D01*
X23157843Y16786966D01*
X23014986Y16929823D01*
X22967367Y17025061D01*
X22967367Y17120299D01*
X23205462Y17072680D02*
X23157843Y17167918D01*
X23062605Y17263156D01*
X22872129Y17310775D01*
X22538796Y17310775D01*
X22348320Y17263156D01*
X22253082Y17167918D01*
X22205462Y17072680D01*
X22205462Y16882204D01*
X22253082Y16786966D01*
X22348320Y16691728D01*
X22538796Y16644109D01*
X22872129Y16644109D01*
X23062605Y16691728D01*
X23157843Y16786966D01*
X23205462Y16882204D01*
X23205462Y17072680D01*
X22300701Y16263156D02*
X22253082Y16215537D01*
X22205462Y16120299D01*
X22205462Y15882204D01*
X22253082Y15786966D01*
X22300701Y15739347D01*
X22395939Y15691728D01*
X22491177Y15691728D01*
X22634034Y15739347D01*
X23205462Y16310775D01*
X23205462Y15691728D01*
X25019748Y13148871D02*
X25353082Y13625061D01*
X25591177Y13148871D02*
X25591177Y14148871D01*
X25210224Y14148871D01*
X25114986Y14101251D01*
X25067367Y14053632D01*
X25019748Y13958394D01*
X25019748Y13815537D01*
X25067367Y13720299D01*
X25114986Y13672680D01*
X25210224Y13625061D01*
X25591177Y13625061D01*
X24638796Y14053632D02*
X24591177Y14101251D01*
X24495939Y14148871D01*
X24257843Y14148871D01*
X24162605Y14101251D01*
X24114986Y14053632D01*
X24067367Y13958394D01*
X24067367Y13863156D01*
X24114986Y13720299D01*
X24686415Y13148871D01*
X24067367Y13148871D01*
X41119748Y8948871D02*
X41453082Y9425061D01*
X41691177Y8948871D02*
X41691177Y9948871D01*
X41310224Y9948871D01*
X41214986Y9901251D01*
X41167367Y9853632D01*
X41119748Y9758394D01*
X41119748Y9615537D01*
X41167367Y9520299D01*
X41214986Y9472680D01*
X41310224Y9425061D01*
X41691177Y9425061D01*
X40262605Y9615537D02*
X40262605Y8948871D01*
X40500701Y9996490D02*
X40738796Y9282204D01*
X40119748Y9282204D01*
X41019748Y4548871D02*
X41353082Y5025061D01*
X41591177Y4548871D02*
X41591177Y5548871D01*
X41210224Y5548871D01*
X41114986Y5501251D01*
X41067367Y5453632D01*
X41019748Y5358394D01*
X41019748Y5215537D01*
X41067367Y5120299D01*
X41114986Y5072680D01*
X41210224Y5025061D01*
X41591177Y5025061D01*
X40114986Y5548871D02*
X40591177Y5548871D01*
X40638796Y5072680D01*
X40591177Y5120299D01*
X40495939Y5167918D01*
X40257843Y5167918D01*
X40162605Y5120299D01*
X40114986Y5072680D01*
X40067367Y4977442D01*
X40067367Y4739347D01*
X40114986Y4644109D01*
X40162605Y4596490D01*
X40257843Y4548871D01*
X40495939Y4548871D01*
X40591177Y4596490D01*
X40638796Y4644109D01*
X20169748Y30773871D02*
X20503082Y31250061D01*
X20741177Y30773871D02*
X20741177Y31773871D01*
X20360224Y31773871D01*
X20264986Y31726251D01*
X20217367Y31678632D01*
X20169748Y31583394D01*
X20169748Y31440537D01*
X20217367Y31345299D01*
X20264986Y31297680D01*
X20360224Y31250061D01*
X20741177Y31250061D01*
X19836415Y31773871D02*
X19169748Y31773871D01*
X19598320Y30773871D01*
X25119748Y30498871D02*
X25453082Y30975061D01*
X25691177Y30498871D02*
X25691177Y31498871D01*
X25310224Y31498871D01*
X25214986Y31451251D01*
X25167367Y31403632D01*
X25119748Y31308394D01*
X25119748Y31165537D01*
X25167367Y31070299D01*
X25214986Y31022680D01*
X25310224Y30975061D01*
X25691177Y30975061D01*
X24548320Y31070299D02*
X24643558Y31117918D01*
X24691177Y31165537D01*
X24738796Y31260775D01*
X24738796Y31308394D01*
X24691177Y31403632D01*
X24643558Y31451251D01*
X24548320Y31498871D01*
X24357843Y31498871D01*
X24262605Y31451251D01*
X24214986Y31403632D01*
X24167367Y31308394D01*
X24167367Y31260775D01*
X24214986Y31165537D01*
X24262605Y31117918D01*
X24357843Y31070299D01*
X24548320Y31070299D01*
X24643558Y31022680D01*
X24691177Y30975061D01*
X24738796Y30879823D01*
X24738796Y30689347D01*
X24691177Y30594109D01*
X24643558Y30546490D01*
X24548320Y30498871D01*
X24357843Y30498871D01*
X24262605Y30546490D01*
X24214986Y30594109D01*
X24167367Y30689347D01*
X24167367Y30879823D01*
X24214986Y30975061D01*
X24262605Y31022680D01*
X24357843Y31070299D01*
X17519748Y17948871D02*
X17853082Y18425061D01*
X18091177Y17948871D02*
X18091177Y18948871D01*
X17710224Y18948871D01*
X17614986Y18901251D01*
X17567367Y18853632D01*
X17519748Y18758394D01*
X17519748Y18615537D01*
X17567367Y18520299D01*
X17614986Y18472680D01*
X17710224Y18425061D01*
X18091177Y18425061D01*
X17043558Y17948871D02*
X16853082Y17948871D01*
X16757843Y17996490D01*
X16710224Y18044109D01*
X16614986Y18186966D01*
X16567367Y18377442D01*
X16567367Y18758394D01*
X16614986Y18853632D01*
X16662605Y18901251D01*
X16757843Y18948871D01*
X16948320Y18948871D01*
X17043558Y18901251D01*
X17091177Y18853632D01*
X17138796Y18758394D01*
X17138796Y18520299D01*
X17091177Y18425061D01*
X17043558Y18377442D01*
X16948320Y18329823D01*
X16757843Y18329823D01*
X16662605Y18377442D01*
X16614986Y18425061D01*
X16567367Y18520299D01*
X16405462Y14448871D02*
X16738796Y14925061D01*
X16976891Y14448871D02*
X16976891Y15448871D01*
X16595939Y15448871D01*
X16500701Y15401251D01*
X16453082Y15353632D01*
X16405462Y15258394D01*
X16405462Y15115537D01*
X16453082Y15020299D01*
X16500701Y14972680D01*
X16595939Y14925061D01*
X16976891Y14925061D01*
X15976891Y14972680D02*
X15643558Y14972680D01*
X15500701Y14448871D02*
X15976891Y14448871D01*
X15976891Y15448871D01*
X15500701Y15448871D01*
X15119748Y14496490D02*
X14976891Y14448871D01*
X14738796Y14448871D01*
X14643558Y14496490D01*
X14595939Y14544109D01*
X14548320Y14639347D01*
X14548320Y14734585D01*
X14595939Y14829823D01*
X14643558Y14877442D01*
X14738796Y14925061D01*
X14929272Y14972680D01*
X15024510Y15020299D01*
X15072129Y15067918D01*
X15119748Y15163156D01*
X15119748Y15258394D01*
X15072129Y15353632D01*
X15024510Y15401251D01*
X14929272Y15448871D01*
X14691177Y15448871D01*
X14548320Y15401251D01*
X14119748Y14972680D02*
X13786415Y14972680D01*
X13643558Y14448871D02*
X14119748Y14448871D01*
X14119748Y15448871D01*
X13643558Y15448871D01*
X13357843Y15448871D02*
X12786415Y15448871D01*
X13072129Y14448871D02*
X13072129Y15448871D01*
X28214986Y19448871D02*
X28214986Y18639347D01*
X28167367Y18544109D01*
X28119748Y18496490D01*
X28024510Y18448871D01*
X27834034Y18448871D01*
X27738796Y18496490D01*
X27691177Y18544109D01*
X27643558Y18639347D01*
X27643558Y19448871D01*
X26643558Y18448871D02*
X27214986Y18448871D01*
X26929272Y18448871D02*
X26929272Y19448871D01*
X27024510Y19306013D01*
X27119748Y19210775D01*
X27214986Y19163156D01*
X32114986Y20248871D02*
X32114986Y19439347D01*
X32067367Y19344109D01*
X32019748Y19296490D01*
X31924510Y19248871D01*
X31734034Y19248871D01*
X31638796Y19296490D01*
X31591177Y19344109D01*
X31543558Y19439347D01*
X31543558Y20248871D01*
X31162605Y20248871D02*
X30543558Y20248871D01*
X30876891Y19867918D01*
X30734034Y19867918D01*
X30638796Y19820299D01*
X30591177Y19772680D01*
X30543558Y19677442D01*
X30543558Y19439347D01*
X30591177Y19344109D01*
X30638796Y19296490D01*
X30734034Y19248871D01*
X31019748Y19248871D01*
X31114986Y19296490D01*
X31162605Y19344109D01*
X40829272Y19025061D02*
X40829272Y18548871D01*
X41162605Y19548871D02*
X40829272Y19025061D01*
X40495939Y19548871D01*
X39638796Y18548871D02*
X40210224Y18548871D01*
X39924510Y18548871D02*
X39924510Y19548871D01*
X40019748Y19406013D01*
X40114986Y19310775D01*
X40210224Y19263156D01*
X14519748Y34948871D02*
X14853082Y35425061D01*
X15091177Y34948871D02*
X15091177Y35948871D01*
X14710224Y35948871D01*
X14614986Y35901251D01*
X14567367Y35853632D01*
X14519748Y35758394D01*
X14519748Y35615537D01*
X14567367Y35520299D01*
X14614986Y35472680D01*
X14710224Y35425061D01*
X15091177Y35425061D01*
X13662605Y35948871D02*
X13853082Y35948871D01*
X13948320Y35901251D01*
X13995939Y35853632D01*
X14091177Y35710775D01*
X14138796Y35520299D01*
X14138796Y35139347D01*
X14091177Y35044109D01*
X14043558Y34996490D01*
X13948320Y34948871D01*
X13757843Y34948871D01*
X13662605Y34996490D01*
X13614986Y35044109D01*
X13567367Y35139347D01*
X13567367Y35377442D01*
X13614986Y35472680D01*
X13662605Y35520299D01*
X13757843Y35567918D01*
X13948320Y35567918D01*
X14043558Y35520299D01*
X14091177Y35472680D01*
X14138796Y35377442D01*
X47714986Y21948871D02*
X47714986Y21139347D01*
X47667367Y21044109D01*
X47619748Y20996490D01*
X47524510Y20948871D01*
X47334034Y20948871D01*
X47238796Y20996490D01*
X47191177Y21044109D01*
X47143558Y21139347D01*
X47143558Y21948871D01*
X46714986Y21853632D02*
X46667367Y21901251D01*
X46572129Y21948871D01*
X46334034Y21948871D01*
X46238796Y21901251D01*
X46191177Y21853632D01*
X46143558Y21758394D01*
X46143558Y21663156D01*
X46191177Y21520299D01*
X46762605Y20948871D01*
X46143558Y20948871D01*
X45228322Y36197680D02*
X44894989Y36197680D01*
X44752132Y35673871D02*
X45228322Y35673871D01*
X45228322Y36673871D01*
X44752132Y36673871D01*
X44418798Y36673871D02*
X43752132Y36673871D01*
X44180703Y35673871D01*
X43466417Y36673871D02*
X42847370Y36673871D01*
X43180703Y36292918D01*
X43037846Y36292918D01*
X42942608Y36245299D01*
X42894989Y36197680D01*
X42847370Y36102442D01*
X42847370Y35864347D01*
X42894989Y35769109D01*
X42942608Y35721490D01*
X43037846Y35673871D01*
X43323560Y35673871D01*
X43418798Y35721490D01*
X43466417Y35769109D01*
X42418798Y36054823D02*
X41656894Y36054823D01*
X41228322Y36578632D02*
X41180703Y36626251D01*
X41085465Y36673871D01*
X40847370Y36673871D01*
X40752132Y36626251D01*
X40704513Y36578632D01*
X40656894Y36483394D01*
X40656894Y36388156D01*
X40704513Y36245299D01*
X41275941Y35673871D01*
X40656894Y35673871D01*
X39704513Y36626251D02*
X39799751Y36673871D01*
X39942608Y36673871D01*
X40085465Y36626251D01*
X40180703Y36531013D01*
X40228322Y36435775D01*
X40275941Y36245299D01*
X40275941Y36102442D01*
X40228322Y35911966D01*
X40180703Y35816728D01*
X40085465Y35721490D01*
X39942608Y35673871D01*
X39847370Y35673871D01*
X39704513Y35721490D01*
X39656894Y35769109D01*
X39656894Y36102442D01*
X39847370Y36102442D01*
X38799751Y36340537D02*
X38799751Y35673871D01*
X39037846Y36721490D02*
X39275941Y36007204D01*
X38656894Y36007204D01*
X38275941Y35673871D02*
X38275941Y36673871D01*
X37942608Y35959585D01*
X37609275Y36673871D01*
X37609275Y35673871D01*
X36942608Y36673871D02*
X36847370Y36673871D01*
X36752132Y36626251D01*
X36704513Y36578632D01*
X36656894Y36483394D01*
X36609275Y36292918D01*
X36609275Y36054823D01*
X36656894Y35864347D01*
X36704513Y35769109D01*
X36752132Y35721490D01*
X36847370Y35673871D01*
X36942608Y35673871D01*
X37037846Y35721490D01*
X37085465Y35769109D01*
X37133084Y35864347D01*
X37180703Y36054823D01*
X37180703Y36292918D01*
X37133084Y36483394D01*
X37085465Y36578632D01*
X37037846Y36626251D01*
X36942608Y36673871D01*
X36037846Y36245299D02*
X36133084Y36292918D01*
X36180703Y36340537D01*
X36228322Y36435775D01*
X36228322Y36483394D01*
X36180703Y36578632D01*
X36133084Y36626251D01*
X36037846Y36673871D01*
X35847370Y36673871D01*
X35752132Y36626251D01*
X35704513Y36578632D01*
X35656894Y36483394D01*
X35656894Y36435775D01*
X35704513Y36340537D01*
X35752132Y36292918D01*
X35847370Y36245299D01*
X36037846Y36245299D01*
X36133084Y36197680D01*
X36180703Y36150061D01*
X36228322Y36054823D01*
X36228322Y35864347D01*
X36180703Y35769109D01*
X36133084Y35721490D01*
X36037846Y35673871D01*
X35847370Y35673871D01*
X35752132Y35721490D01*
X35704513Y35769109D01*
X35656894Y35864347D01*
X35656894Y36054823D01*
X35704513Y36150061D01*
X35752132Y36197680D01*
X35847370Y36245299D01*
X35275941Y35721490D02*
X35133084Y35673871D01*
X34894989Y35673871D01*
X34799751Y35721490D01*
X34752132Y35769109D01*
X34704513Y35864347D01*
X34704513Y35959585D01*
X34752132Y36054823D01*
X34799751Y36102442D01*
X34894989Y36150061D01*
X35085465Y36197680D01*
X35180703Y36245299D01*
X35228322Y36292918D01*
X35275941Y36388156D01*
X35275941Y36483394D01*
X35228322Y36578632D01*
X35180703Y36626251D01*
X35085465Y36673871D01*
X34847370Y36673871D01*
X34704513Y36626251D01*
X33752132Y35673871D02*
X34323560Y35673871D01*
X34037846Y35673871D02*
X34037846Y36673871D01*
X34133084Y36531013D01*
X34228322Y36435775D01*
X34323560Y36388156D01*
X32752132Y35769109D02*
X32799751Y35721490D01*
X32942608Y35673871D01*
X33037846Y35673871D01*
X33180703Y35721490D01*
X33275941Y35816728D01*
X33323560Y35911966D01*
X33371179Y36102442D01*
X33371179Y36245299D01*
X33323560Y36435775D01*
X33275941Y36531013D01*
X33180703Y36626251D01*
X33037846Y36673871D01*
X32942608Y36673871D01*
X32799751Y36626251D01*
X32752132Y36578632D01*
X21767367Y20348871D02*
X21767367Y21348871D01*
X21529272Y21348871D01*
X21386415Y21301251D01*
X21291177Y21206013D01*
X21243558Y21110775D01*
X21195939Y20920299D01*
X21195939Y20777442D01*
X21243558Y20586966D01*
X21291177Y20491728D01*
X21386415Y20396490D01*
X21529272Y20348871D01*
X21767367Y20348871D01*
X20862605Y21348871D02*
X20243558Y21348871D01*
X20576891Y20967918D01*
X20434034Y20967918D01*
X20338796Y20920299D01*
X20291177Y20872680D01*
X20243558Y20777442D01*
X20243558Y20539347D01*
X20291177Y20444109D01*
X20338796Y20396490D01*
X20434034Y20348871D01*
X20719748Y20348871D01*
X20814986Y20396490D01*
X20862605Y20444109D01*
X19910224Y21348871D02*
X19291177Y21348871D01*
X19624510Y20967918D01*
X19481653Y20967918D01*
X19386415Y20920299D01*
X19338796Y20872680D01*
X19291177Y20777442D01*
X19291177Y20539347D01*
X19338796Y20444109D01*
X19386415Y20396490D01*
X19481653Y20348871D01*
X19767367Y20348871D01*
X19862605Y20396490D01*
X19910224Y20444109D01*
X30830462Y36117918D02*
X30354272Y36451251D01*
X30830462Y36689347D02*
X29830462Y36689347D01*
X29830462Y36308394D01*
X29878082Y36213156D01*
X29925701Y36165537D01*
X30020939Y36117918D01*
X30163796Y36117918D01*
X30259034Y36165537D01*
X30306653Y36213156D01*
X30354272Y36308394D01*
X30354272Y36689347D01*
X30830462Y35165537D02*
X30830462Y35736966D01*
X30830462Y35451251D02*
X29830462Y35451251D01*
X29973320Y35546490D01*
X30068558Y35641728D01*
X30116177Y35736966D01*
D12*
X35995068Y16859640D02*
X36711126Y16859640D01*
X36854337Y16907377D01*
X36949811Y17002851D01*
X36997548Y17146063D01*
X36997548Y17241537D01*
X36997548Y15857160D02*
X36997548Y16430006D01*
X36997548Y16143583D02*
X35995068Y16143583D01*
X36138280Y16239057D01*
X36233754Y16334531D01*
X36281491Y16430006D01*
X36090543Y15475263D02*
X36042806Y15427526D01*
X35995068Y15332051D01*
X35995068Y15093366D01*
X36042806Y14997891D01*
X36090543Y14950154D01*
X36186017Y14902417D01*
X36281491Y14902417D01*
X36424703Y14950154D01*
X36997548Y15523000D01*
X36997548Y14902417D01*
D13*
X18771439Y28777051D02*
X18825867Y28613766D01*
X18880296Y28559337D01*
X18989153Y28504909D01*
X19152439Y28504909D01*
X19261296Y28559337D01*
X19315724Y28613766D01*
X19370153Y28722623D01*
X19370153Y29158051D01*
X18227153Y29158051D01*
X18227153Y28777051D01*
X18281582Y28668194D01*
X18336010Y28613766D01*
X18444867Y28559337D01*
X18553724Y28559337D01*
X18662582Y28613766D01*
X18717010Y28668194D01*
X18771439Y28777051D01*
X18771439Y29158051D01*
X19043582Y28069480D02*
X19043582Y27525194D01*
X19370153Y28178337D02*
X18227153Y27797337D01*
X19370153Y27416337D01*
X18227153Y27198623D02*
X18227153Y26545480D01*
X19370153Y26872051D02*
X18227153Y26872051D01*
X18227153Y26327766D02*
X18227153Y25674623D01*
X19370153Y26001194D02*
X18227153Y26001194D01*
X19479010Y25565766D02*
X19479010Y24694909D01*
X19315724Y24477194D02*
X19370153Y24313909D01*
X19370153Y24041766D01*
X19315724Y23932909D01*
X19261296Y23878480D01*
X19152439Y23824051D01*
X19043582Y23824051D01*
X18934724Y23878480D01*
X18880296Y23932909D01*
X18825867Y24041766D01*
X18771439Y24259480D01*
X18717010Y24368337D01*
X18662582Y24422766D01*
X18553724Y24477194D01*
X18444867Y24477194D01*
X18336010Y24422766D01*
X18281582Y24368337D01*
X18227153Y24259480D01*
X18227153Y23987337D01*
X18281582Y23824051D01*
X18227153Y23443051D02*
X19370153Y23170909D01*
X18553724Y22953194D01*
X19370153Y22735480D01*
X18227153Y22463337D01*
D11*
X-42737775Y36098871D02*
X-42737775Y37098871D01*
X-42975870Y37098871D01*
X-43118728Y37051251D01*
X-43213966Y36956013D01*
X-43261585Y36860775D01*
X-43309204Y36670299D01*
X-43309204Y36527442D01*
X-43261585Y36336966D01*
X-43213966Y36241728D01*
X-43118728Y36146490D01*
X-42975870Y36098871D01*
X-42737775Y36098871D01*
X-43690156Y37003632D02*
X-43737775Y37051251D01*
X-43833013Y37098871D01*
X-44071109Y37098871D01*
X-44166347Y37051251D01*
X-44213966Y37003632D01*
X-44261585Y36908394D01*
X-44261585Y36813156D01*
X-44213966Y36670299D01*
X-43642537Y36098871D01*
X-44261585Y36098871D01*
X-60537775Y37448871D02*
X-60537775Y38448871D01*
X-60775870Y38448871D01*
X-60918728Y38401251D01*
X-61013966Y38306013D01*
X-61061585Y38210775D01*
X-61109204Y38020299D01*
X-61109204Y37877442D01*
X-61061585Y37686966D01*
X-61013966Y37591728D01*
X-60918728Y37496490D01*
X-60775870Y37448871D01*
X-60537775Y37448871D01*
X-61442537Y38448871D02*
X-62061585Y38448871D01*
X-61728251Y38067918D01*
X-61871109Y38067918D01*
X-61966347Y38020299D01*
X-62013966Y37972680D01*
X-62061585Y37877442D01*
X-62061585Y37639347D01*
X-62013966Y37544109D01*
X-61966347Y37496490D01*
X-61871109Y37448871D01*
X-61585394Y37448871D01*
X-61490156Y37496490D01*
X-61442537Y37544109D01*
X-78537775Y36148871D02*
X-78537775Y37148871D01*
X-78775870Y37148871D01*
X-78918728Y37101251D01*
X-79013966Y37006013D01*
X-79061585Y36910775D01*
X-79109204Y36720299D01*
X-79109204Y36577442D01*
X-79061585Y36386966D01*
X-79013966Y36291728D01*
X-78918728Y36196490D01*
X-78775870Y36148871D01*
X-78537775Y36148871D01*
X-79966347Y36815537D02*
X-79966347Y36148871D01*
X-79728251Y37196490D02*
X-79490156Y36482204D01*
X-80109204Y36482204D01*
X-96537775Y31148871D02*
X-96537775Y32148871D01*
X-96775870Y32148871D01*
X-96918728Y32101251D01*
X-97013966Y32006013D01*
X-97061585Y31910775D01*
X-97109204Y31720299D01*
X-97109204Y31577442D01*
X-97061585Y31386966D01*
X-97013966Y31291728D01*
X-96918728Y31196490D01*
X-96775870Y31148871D01*
X-96537775Y31148871D01*
X-98013966Y32148871D02*
X-97537775Y32148871D01*
X-97490156Y31672680D01*
X-97537775Y31720299D01*
X-97633013Y31767918D01*
X-97871109Y31767918D01*
X-97966347Y31720299D01*
X-98013966Y31672680D01*
X-98061585Y31577442D01*
X-98061585Y31339347D01*
X-98013966Y31244109D01*
X-97966347Y31196490D01*
X-97871109Y31148871D01*
X-97633013Y31148871D01*
X-97537775Y31196490D01*
X-97490156Y31244109D01*
X-114537775Y30148871D02*
X-114537775Y31148871D01*
X-114775870Y31148871D01*
X-114918728Y31101251D01*
X-115013966Y31006013D01*
X-115061585Y30910775D01*
X-115109204Y30720299D01*
X-115109204Y30577442D01*
X-115061585Y30386966D01*
X-115013966Y30291728D01*
X-114918728Y30196490D01*
X-114775870Y30148871D01*
X-114537775Y30148871D01*
X-115966347Y31148871D02*
X-115775870Y31148871D01*
X-115680632Y31101251D01*
X-115633013Y31053632D01*
X-115537775Y30910775D01*
X-115490156Y30720299D01*
X-115490156Y30339347D01*
X-115537775Y30244109D01*
X-115585394Y30196490D01*
X-115680632Y30148871D01*
X-115871109Y30148871D01*
X-115966347Y30196490D01*
X-116013966Y30244109D01*
X-116061585Y30339347D01*
X-116061585Y30577442D01*
X-116013966Y30672680D01*
X-115966347Y30720299D01*
X-115871109Y30767918D01*
X-115680632Y30767918D01*
X-115585394Y30720299D01*
X-115537775Y30672680D01*
X-115490156Y30577442D01*
X-24487775Y16748871D02*
X-24487775Y17748871D01*
X-24725870Y17748871D01*
X-24868728Y17701251D01*
X-24963966Y17606013D01*
X-25011585Y17510775D01*
X-25059204Y17320299D01*
X-25059204Y17177442D01*
X-25011585Y16986966D01*
X-24963966Y16891728D01*
X-24868728Y16796490D01*
X-24725870Y16748871D01*
X-24487775Y16748871D01*
X-25392537Y17748871D02*
X-26059204Y17748871D01*
X-25630632Y16748871D01*
X-42437775Y19198871D02*
X-42437775Y20198871D01*
X-42675870Y20198871D01*
X-42818728Y20151251D01*
X-42913966Y20056013D01*
X-42961585Y19960775D01*
X-43009204Y19770299D01*
X-43009204Y19627442D01*
X-42961585Y19436966D01*
X-42913966Y19341728D01*
X-42818728Y19246490D01*
X-42675870Y19198871D01*
X-42437775Y19198871D01*
X-43580632Y19770299D02*
X-43485394Y19817918D01*
X-43437775Y19865537D01*
X-43390156Y19960775D01*
X-43390156Y20008394D01*
X-43437775Y20103632D01*
X-43485394Y20151251D01*
X-43580632Y20198871D01*
X-43771109Y20198871D01*
X-43866347Y20151251D01*
X-43913966Y20103632D01*
X-43961585Y20008394D01*
X-43961585Y19960775D01*
X-43913966Y19865537D01*
X-43866347Y19817918D01*
X-43771109Y19770299D01*
X-43580632Y19770299D01*
X-43485394Y19722680D01*
X-43437775Y19675061D01*
X-43390156Y19579823D01*
X-43390156Y19389347D01*
X-43437775Y19294109D01*
X-43485394Y19246490D01*
X-43580632Y19198871D01*
X-43771109Y19198871D01*
X-43866347Y19246490D01*
X-43913966Y19294109D01*
X-43961585Y19389347D01*
X-43961585Y19579823D01*
X-43913966Y19675061D01*
X-43866347Y19722680D01*
X-43771109Y19770299D01*
X-60537775Y20448871D02*
X-60537775Y21448871D01*
X-60775870Y21448871D01*
X-60918728Y21401251D01*
X-61013966Y21306013D01*
X-61061585Y21210775D01*
X-61109204Y21020299D01*
X-61109204Y20877442D01*
X-61061585Y20686966D01*
X-61013966Y20591728D01*
X-60918728Y20496490D01*
X-60775870Y20448871D01*
X-60537775Y20448871D01*
X-61585394Y20448871D02*
X-61775870Y20448871D01*
X-61871109Y20496490D01*
X-61918728Y20544109D01*
X-62013966Y20686966D01*
X-62061585Y20877442D01*
X-62061585Y21258394D01*
X-62013966Y21353632D01*
X-61966347Y21401251D01*
X-61871109Y21448871D01*
X-61680632Y21448871D01*
X-61585394Y21401251D01*
X-61537775Y21353632D01*
X-61490156Y21258394D01*
X-61490156Y21020299D01*
X-61537775Y20925061D01*
X-61585394Y20877442D01*
X-61680632Y20829823D01*
X-61871109Y20829823D01*
X-61966347Y20877442D01*
X-62013966Y20925061D01*
X-62061585Y21020299D01*
X-78011585Y19148871D02*
X-78011585Y20148871D01*
X-78249680Y20148871D01*
X-78392537Y20101251D01*
X-78487775Y20006013D01*
X-78535394Y19910775D01*
X-78583013Y19720299D01*
X-78583013Y19577442D01*
X-78535394Y19386966D01*
X-78487775Y19291728D01*
X-78392537Y19196490D01*
X-78249680Y19148871D01*
X-78011585Y19148871D01*
X-79535394Y19148871D02*
X-78963966Y19148871D01*
X-79249680Y19148871D02*
X-79249680Y20148871D01*
X-79154442Y20006013D01*
X-79059204Y19910775D01*
X-78963966Y19863156D01*
X-80154442Y20148871D02*
X-80249680Y20148871D01*
X-80344918Y20101251D01*
X-80392537Y20053632D01*
X-80440156Y19958394D01*
X-80487775Y19767918D01*
X-80487775Y19529823D01*
X-80440156Y19339347D01*
X-80392537Y19244109D01*
X-80344918Y19196490D01*
X-80249680Y19148871D01*
X-80154442Y19148871D01*
X-80059204Y19196490D01*
X-80011585Y19244109D01*
X-79963966Y19339347D01*
X-79916347Y19529823D01*
X-79916347Y19767918D01*
X-79963966Y19958394D01*
X-80011585Y20053632D01*
X-80059204Y20101251D01*
X-80154442Y20148871D01*
X-96061585Y14148871D02*
X-96061585Y15148871D01*
X-96299680Y15148871D01*
X-96442537Y15101251D01*
X-96537775Y15006013D01*
X-96585394Y14910775D01*
X-96633013Y14720299D01*
X-96633013Y14577442D01*
X-96585394Y14386966D01*
X-96537775Y14291728D01*
X-96442537Y14196490D01*
X-96299680Y14148871D01*
X-96061585Y14148871D01*
X-97585394Y14148871D02*
X-97013966Y14148871D01*
X-97299680Y14148871D02*
X-97299680Y15148871D01*
X-97204442Y15006013D01*
X-97109204Y14910775D01*
X-97013966Y14863156D01*
X-98537775Y14148871D02*
X-97966347Y14148871D01*
X-98252061Y14148871D02*
X-98252061Y15148871D01*
X-98156823Y15006013D01*
X-98061585Y14910775D01*
X-97966347Y14863156D01*
X-114011585Y13148871D02*
X-114011585Y14148871D01*
X-114249680Y14148871D01*
X-114392537Y14101251D01*
X-114487775Y14006013D01*
X-114535394Y13910775D01*
X-114583013Y13720299D01*
X-114583013Y13577442D01*
X-114535394Y13386966D01*
X-114487775Y13291728D01*
X-114392537Y13196490D01*
X-114249680Y13148871D01*
X-114011585Y13148871D01*
X-115535394Y13148871D02*
X-114963966Y13148871D01*
X-115249680Y13148871D02*
X-115249680Y14148871D01*
X-115154442Y14006013D01*
X-115059204Y13910775D01*
X-114963966Y13863156D01*
X-115916347Y14053632D02*
X-115963966Y14101251D01*
X-116059204Y14148871D01*
X-116297299Y14148871D01*
X-116392537Y14101251D01*
X-116440156Y14053632D01*
X-116487775Y13958394D01*
X-116487775Y13863156D01*
X-116440156Y13720299D01*
X-115868728Y13148871D01*
X-116487775Y13148871D01*
X-42261585Y2198871D02*
X-42261585Y3198871D01*
X-42499680Y3198871D01*
X-42642537Y3151251D01*
X-42737775Y3056013D01*
X-42785394Y2960775D01*
X-42833013Y2770299D01*
X-42833013Y2627442D01*
X-42785394Y2436966D01*
X-42737775Y2341728D01*
X-42642537Y2246490D01*
X-42499680Y2198871D01*
X-42261585Y2198871D01*
X-43785394Y2198871D02*
X-43213966Y2198871D01*
X-43499680Y2198871D02*
X-43499680Y3198871D01*
X-43404442Y3056013D01*
X-43309204Y2960775D01*
X-43213966Y2913156D01*
X-44642537Y2865537D02*
X-44642537Y2198871D01*
X-44404442Y3246490D02*
X-44166347Y2532204D01*
X-44785394Y2532204D01*
X-60061585Y3448871D02*
X-60061585Y4448871D01*
X-60299680Y4448871D01*
X-60442537Y4401251D01*
X-60537775Y4306013D01*
X-60585394Y4210775D01*
X-60633013Y4020299D01*
X-60633013Y3877442D01*
X-60585394Y3686966D01*
X-60537775Y3591728D01*
X-60442537Y3496490D01*
X-60299680Y3448871D01*
X-60061585Y3448871D01*
X-61585394Y3448871D02*
X-61013966Y3448871D01*
X-61299680Y3448871D02*
X-61299680Y4448871D01*
X-61204442Y4306013D01*
X-61109204Y4210775D01*
X-61013966Y4163156D01*
X-62490156Y4448871D02*
X-62013966Y4448871D01*
X-61966347Y3972680D01*
X-62013966Y4020299D01*
X-62109204Y4067918D01*
X-62347299Y4067918D01*
X-62442537Y4020299D01*
X-62490156Y3972680D01*
X-62537775Y3877442D01*
X-62537775Y3639347D01*
X-62490156Y3544109D01*
X-62442537Y3496490D01*
X-62347299Y3448871D01*
X-62109204Y3448871D01*
X-62013966Y3496490D01*
X-61966347Y3544109D01*
X-78011585Y2148871D02*
X-78011585Y3148871D01*
X-78249680Y3148871D01*
X-78392537Y3101251D01*
X-78487775Y3006013D01*
X-78535394Y2910775D01*
X-78583013Y2720299D01*
X-78583013Y2577442D01*
X-78535394Y2386966D01*
X-78487775Y2291728D01*
X-78392537Y2196490D01*
X-78249680Y2148871D01*
X-78011585Y2148871D01*
X-79535394Y2148871D02*
X-78963966Y2148871D01*
X-79249680Y2148871D02*
X-79249680Y3148871D01*
X-79154442Y3006013D01*
X-79059204Y2910775D01*
X-78963966Y2863156D01*
X-80392537Y3148871D02*
X-80202061Y3148871D01*
X-80106823Y3101251D01*
X-80059204Y3053632D01*
X-79963966Y2910775D01*
X-79916347Y2720299D01*
X-79916347Y2339347D01*
X-79963966Y2244109D01*
X-80011585Y2196490D01*
X-80106823Y2148871D01*
X-80297299Y2148871D01*
X-80392537Y2196490D01*
X-80440156Y2244109D01*
X-80487775Y2339347D01*
X-80487775Y2577442D01*
X-80440156Y2672680D01*
X-80392537Y2720299D01*
X-80297299Y2767918D01*
X-80106823Y2767918D01*
X-80011585Y2720299D01*
X-79963966Y2672680D01*
X-79916347Y2577442D01*
X-96061585Y-2851129D02*
X-96061585Y-1851129D01*
X-96299680Y-1851129D01*
X-96442537Y-1898749D01*
X-96537775Y-1993987D01*
X-96585394Y-2089225D01*
X-96633013Y-2279701D01*
X-96633013Y-2422558D01*
X-96585394Y-2613034D01*
X-96537775Y-2708272D01*
X-96442537Y-2803510D01*
X-96299680Y-2851129D01*
X-96061585Y-2851129D01*
X-97585394Y-2851129D02*
X-97013966Y-2851129D01*
X-97299680Y-2851129D02*
X-97299680Y-1851129D01*
X-97204442Y-1993987D01*
X-97109204Y-2089225D01*
X-97013966Y-2136844D01*
X-97918728Y-1851129D02*
X-98585394Y-1851129D01*
X-98156823Y-2851129D01*
X-114011585Y-3851129D02*
X-114011585Y-2851129D01*
X-114249680Y-2851129D01*
X-114392537Y-2898749D01*
X-114487775Y-2993987D01*
X-114535394Y-3089225D01*
X-114583013Y-3279701D01*
X-114583013Y-3422558D01*
X-114535394Y-3613034D01*
X-114487775Y-3708272D01*
X-114392537Y-3803510D01*
X-114249680Y-3851129D01*
X-114011585Y-3851129D01*
X-115535394Y-3851129D02*
X-114963966Y-3851129D01*
X-115249680Y-3851129D02*
X-115249680Y-2851129D01*
X-115154442Y-2993987D01*
X-115059204Y-3089225D01*
X-114963966Y-3136844D01*
X-116106823Y-3279701D02*
X-116011585Y-3232082D01*
X-115963966Y-3184463D01*
X-115916347Y-3089225D01*
X-115916347Y-3041606D01*
X-115963966Y-2946368D01*
X-116011585Y-2898749D01*
X-116106823Y-2851129D01*
X-116297299Y-2851129D01*
X-116392537Y-2898749D01*
X-116440156Y-2946368D01*
X-116487775Y-3041606D01*
X-116487775Y-3089225D01*
X-116440156Y-3184463D01*
X-116392537Y-3232082D01*
X-116297299Y-3279701D01*
X-116106823Y-3279701D01*
X-116011585Y-3327320D01*
X-115963966Y-3374939D01*
X-115916347Y-3470177D01*
X-115916347Y-3660653D01*
X-115963966Y-3755891D01*
X-116011585Y-3803510D01*
X-116106823Y-3851129D01*
X-116297299Y-3851129D01*
X-116392537Y-3803510D01*
X-116440156Y-3755891D01*
X-116487775Y-3660653D01*
X-116487775Y-3470177D01*
X-116440156Y-3374939D01*
X-116392537Y-3327320D01*
X-116297299Y-3279701D01*
X-24061585Y-17251129D02*
X-24061585Y-16251129D01*
X-24299680Y-16251129D01*
X-24442537Y-16298749D01*
X-24537775Y-16393987D01*
X-24585394Y-16489225D01*
X-24633013Y-16679701D01*
X-24633013Y-16822558D01*
X-24585394Y-17013034D01*
X-24537775Y-17108272D01*
X-24442537Y-17203510D01*
X-24299680Y-17251129D01*
X-24061585Y-17251129D01*
X-25585394Y-17251129D02*
X-25013966Y-17251129D01*
X-25299680Y-17251129D02*
X-25299680Y-16251129D01*
X-25204442Y-16393987D01*
X-25109204Y-16489225D01*
X-25013966Y-16536844D01*
X-26061585Y-17251129D02*
X-26252061Y-17251129D01*
X-26347299Y-17203510D01*
X-26394918Y-17155891D01*
X-26490156Y-17013034D01*
X-26537775Y-16822558D01*
X-26537775Y-16441606D01*
X-26490156Y-16346368D01*
X-26442537Y-16298749D01*
X-26347299Y-16251129D01*
X-26156823Y-16251129D01*
X-26061585Y-16298749D01*
X-26013966Y-16346368D01*
X-25966347Y-16441606D01*
X-25966347Y-16679701D01*
X-26013966Y-16774939D01*
X-26061585Y-16822558D01*
X-26156823Y-16870177D01*
X-26347299Y-16870177D01*
X-26442537Y-16822558D01*
X-26490156Y-16774939D01*
X-26537775Y-16679701D01*
X-42061585Y-14901129D02*
X-42061585Y-13901129D01*
X-42299680Y-13901129D01*
X-42442537Y-13948749D01*
X-42537775Y-14043987D01*
X-42585394Y-14139225D01*
X-42633013Y-14329701D01*
X-42633013Y-14472558D01*
X-42585394Y-14663034D01*
X-42537775Y-14758272D01*
X-42442537Y-14853510D01*
X-42299680Y-14901129D01*
X-42061585Y-14901129D01*
X-43013966Y-13996368D02*
X-43061585Y-13948749D01*
X-43156823Y-13901129D01*
X-43394918Y-13901129D01*
X-43490156Y-13948749D01*
X-43537775Y-13996368D01*
X-43585394Y-14091606D01*
X-43585394Y-14186844D01*
X-43537775Y-14329701D01*
X-42966347Y-14901129D01*
X-43585394Y-14901129D01*
X-44204442Y-13901129D02*
X-44299680Y-13901129D01*
X-44394918Y-13948749D01*
X-44442537Y-13996368D01*
X-44490156Y-14091606D01*
X-44537775Y-14282082D01*
X-44537775Y-14520177D01*
X-44490156Y-14710653D01*
X-44442537Y-14805891D01*
X-44394918Y-14853510D01*
X-44299680Y-14901129D01*
X-44204442Y-14901129D01*
X-44109204Y-14853510D01*
X-44061585Y-14805891D01*
X-44013966Y-14710653D01*
X-43966347Y-14520177D01*
X-43966347Y-14282082D01*
X-44013966Y-14091606D01*
X-44061585Y-13996368D01*
X-44109204Y-13948749D01*
X-44204442Y-13901129D01*
X-60261585Y-13601129D02*
X-60261585Y-12601129D01*
X-60499680Y-12601129D01*
X-60642537Y-12648749D01*
X-60737775Y-12743987D01*
X-60785394Y-12839225D01*
X-60833013Y-13029701D01*
X-60833013Y-13172558D01*
X-60785394Y-13363034D01*
X-60737775Y-13458272D01*
X-60642537Y-13553510D01*
X-60499680Y-13601129D01*
X-60261585Y-13601129D01*
X-61213966Y-12696368D02*
X-61261585Y-12648749D01*
X-61356823Y-12601129D01*
X-61594918Y-12601129D01*
X-61690156Y-12648749D01*
X-61737775Y-12696368D01*
X-61785394Y-12791606D01*
X-61785394Y-12886844D01*
X-61737775Y-13029701D01*
X-61166347Y-13601129D01*
X-61785394Y-13601129D01*
X-62737775Y-13601129D02*
X-62166347Y-13601129D01*
X-62452061Y-13601129D02*
X-62452061Y-12601129D01*
X-62356823Y-12743987D01*
X-62261585Y-12839225D01*
X-62166347Y-12886844D01*
X-78011585Y-14851129D02*
X-78011585Y-13851129D01*
X-78249680Y-13851129D01*
X-78392537Y-13898749D01*
X-78487775Y-13993987D01*
X-78535394Y-14089225D01*
X-78583013Y-14279701D01*
X-78583013Y-14422558D01*
X-78535394Y-14613034D01*
X-78487775Y-14708272D01*
X-78392537Y-14803510D01*
X-78249680Y-14851129D01*
X-78011585Y-14851129D01*
X-78963966Y-13946368D02*
X-79011585Y-13898749D01*
X-79106823Y-13851129D01*
X-79344918Y-13851129D01*
X-79440156Y-13898749D01*
X-79487775Y-13946368D01*
X-79535394Y-14041606D01*
X-79535394Y-14136844D01*
X-79487775Y-14279701D01*
X-78916347Y-14851129D01*
X-79535394Y-14851129D01*
X-79916347Y-13946368D02*
X-79963966Y-13898749D01*
X-80059204Y-13851129D01*
X-80297299Y-13851129D01*
X-80392537Y-13898749D01*
X-80440156Y-13946368D01*
X-80487775Y-14041606D01*
X-80487775Y-14136844D01*
X-80440156Y-14279701D01*
X-79868728Y-14851129D01*
X-80487775Y-14851129D01*
X-96011585Y-19851129D02*
X-96011585Y-18851129D01*
X-96249680Y-18851129D01*
X-96392537Y-18898749D01*
X-96487775Y-18993987D01*
X-96535394Y-19089225D01*
X-96583013Y-19279701D01*
X-96583013Y-19422558D01*
X-96535394Y-19613034D01*
X-96487775Y-19708272D01*
X-96392537Y-19803510D01*
X-96249680Y-19851129D01*
X-96011585Y-19851129D01*
X-96963966Y-18946368D02*
X-97011585Y-18898749D01*
X-97106823Y-18851129D01*
X-97344918Y-18851129D01*
X-97440156Y-18898749D01*
X-97487775Y-18946368D01*
X-97535394Y-19041606D01*
X-97535394Y-19136844D01*
X-97487775Y-19279701D01*
X-96916347Y-19851129D01*
X-97535394Y-19851129D01*
X-97868728Y-18851129D02*
X-98487775Y-18851129D01*
X-98154442Y-19232082D01*
X-98297299Y-19232082D01*
X-98392537Y-19279701D01*
X-98440156Y-19327320D01*
X-98487775Y-19422558D01*
X-98487775Y-19660653D01*
X-98440156Y-19755891D01*
X-98392537Y-19803510D01*
X-98297299Y-19851129D01*
X-98011585Y-19851129D01*
X-97916347Y-19803510D01*
X-97868728Y-19755891D01*
X-114061585Y-20851129D02*
X-114061585Y-19851129D01*
X-114299680Y-19851129D01*
X-114442537Y-19898749D01*
X-114537775Y-19993987D01*
X-114585394Y-20089225D01*
X-114633013Y-20279701D01*
X-114633013Y-20422558D01*
X-114585394Y-20613034D01*
X-114537775Y-20708272D01*
X-114442537Y-20803510D01*
X-114299680Y-20851129D01*
X-114061585Y-20851129D01*
X-115013966Y-19946368D02*
X-115061585Y-19898749D01*
X-115156823Y-19851129D01*
X-115394918Y-19851129D01*
X-115490156Y-19898749D01*
X-115537775Y-19946368D01*
X-115585394Y-20041606D01*
X-115585394Y-20136844D01*
X-115537775Y-20279701D01*
X-114966347Y-20851129D01*
X-115585394Y-20851129D01*
X-116442537Y-20184463D02*
X-116442537Y-20851129D01*
X-116204442Y-19803510D02*
X-115966347Y-20517796D01*
X-116585394Y-20517796D01*
X-24061585Y-251129D02*
X-24061585Y748871D01*
X-24299680Y748871D01*
X-24442537Y701251D01*
X-24537775Y606013D01*
X-24585394Y510775D01*
X-24633013Y320299D01*
X-24633013Y177442D01*
X-24585394Y-13034D01*
X-24537775Y-108272D01*
X-24442537Y-203510D01*
X-24299680Y-251129D01*
X-24061585Y-251129D01*
X-25585394Y-251129D02*
X-25013966Y-251129D01*
X-25299680Y-251129D02*
X-25299680Y748871D01*
X-25204442Y606013D01*
X-25109204Y510775D01*
X-25013966Y463156D01*
X-25918728Y748871D02*
X-26537775Y748871D01*
X-26204442Y367918D01*
X-26347299Y367918D01*
X-26442537Y320299D01*
X-26490156Y272680D01*
X-26537775Y177442D01*
X-26537775Y-60653D01*
X-26490156Y-155891D01*
X-26442537Y-203510D01*
X-26347299Y-251129D01*
X-26061585Y-251129D01*
X-25966347Y-203510D01*
X-25918728Y-155891D01*
X-42061585Y-36801129D02*
X-42061585Y-35801129D01*
X-42299680Y-35801129D01*
X-42442537Y-35848749D01*
X-42537775Y-35943987D01*
X-42585394Y-36039225D01*
X-42633013Y-36229701D01*
X-42633013Y-36372558D01*
X-42585394Y-36563034D01*
X-42537775Y-36658272D01*
X-42442537Y-36753510D01*
X-42299680Y-36801129D01*
X-42061585Y-36801129D01*
X-43013966Y-35896368D02*
X-43061585Y-35848749D01*
X-43156823Y-35801129D01*
X-43394918Y-35801129D01*
X-43490156Y-35848749D01*
X-43537775Y-35896368D01*
X-43585394Y-35991606D01*
X-43585394Y-36086844D01*
X-43537775Y-36229701D01*
X-42966347Y-36801129D01*
X-43585394Y-36801129D01*
X-43918728Y-35801129D02*
X-44585394Y-35801129D01*
X-44156823Y-36801129D01*
X-18025835Y-36815430D02*
X-18525835Y-35949405D01*
X-18732031Y-36068452D01*
X-18831940Y-36181120D01*
X-18866799Y-36311218D01*
X-18860419Y-36417506D01*
X-18806421Y-36606273D01*
X-18734992Y-36729991D01*
X-18598515Y-36871138D01*
X-18509656Y-36929807D01*
X-18379559Y-36964667D01*
X-18232031Y-36934478D01*
X-18025835Y-36815430D01*
X-19303002Y-36508074D02*
X-19368051Y-36490644D01*
X-19474339Y-36497024D01*
X-19680535Y-36616071D01*
X-19739204Y-36704930D01*
X-19756634Y-36769978D01*
X-19750254Y-36876267D01*
X-19702635Y-36958745D01*
X-19589967Y-37058654D01*
X-18809382Y-37267811D01*
X-19345493Y-37577335D01*
X-20587800Y-37139881D02*
X-20422843Y-37044643D01*
X-20316555Y-37038263D01*
X-20251506Y-37055693D01*
X-20097599Y-37131792D01*
X-19961121Y-37272939D01*
X-19770645Y-37602854D01*
X-19764265Y-37709142D01*
X-19781695Y-37774191D01*
X-19840364Y-37863049D01*
X-20005321Y-37958287D01*
X-20111610Y-37964667D01*
X-20176658Y-37947237D01*
X-20265517Y-37888568D01*
X-20384564Y-37682372D01*
X-20390944Y-37576083D01*
X-20373514Y-37511035D01*
X-20314845Y-37422176D01*
X-20149888Y-37326938D01*
X-20043600Y-37320558D01*
X-19978551Y-37337988D01*
X-19889693Y-37396657D01*
X-11323490Y-16934462D02*
X-12323490Y-16934462D01*
X-12323490Y-17172557D01*
X-12275870Y-17315414D01*
X-12180632Y-17410652D01*
X-12085394Y-17458271D01*
X-11894918Y-17505890D01*
X-11752061Y-17505890D01*
X-11561585Y-17458271D01*
X-11466347Y-17410652D01*
X-11371109Y-17315414D01*
X-11323490Y-17172557D01*
X-11323490Y-16934462D01*
X-12228251Y-17886843D02*
X-12275870Y-17934462D01*
X-12323490Y-18029700D01*
X-12323490Y-18267795D01*
X-12275870Y-18363033D01*
X-12228251Y-18410652D01*
X-12133013Y-18458271D01*
X-12037775Y-18458271D01*
X-11894918Y-18410652D01*
X-11323490Y-17839224D01*
X-11323490Y-18458271D01*
X-12323490Y-19363033D02*
X-12323490Y-18886843D01*
X-11847299Y-18839224D01*
X-11894918Y-18886843D01*
X-11942537Y-18982081D01*
X-11942537Y-19220176D01*
X-11894918Y-19315414D01*
X-11847299Y-19363033D01*
X-11752061Y-19410652D01*
X-11513966Y-19410652D01*
X-11418728Y-19363033D01*
X-11371109Y-19315414D01*
X-11323490Y-19220176D01*
X-11323490Y-18982081D01*
X-11371109Y-18886843D01*
X-11418728Y-18839224D01*
X-24537775Y33748871D02*
X-24537775Y34748871D01*
X-24775870Y34748871D01*
X-24918728Y34701251D01*
X-25013966Y34606013D01*
X-25061585Y34510775D01*
X-25109204Y34320299D01*
X-25109204Y34177442D01*
X-25061585Y33986966D01*
X-25013966Y33891728D01*
X-24918728Y33796490D01*
X-24775870Y33748871D01*
X-24537775Y33748871D01*
X-26061585Y33748871D02*
X-25490156Y33748871D01*
X-25775870Y33748871D02*
X-25775870Y34748871D01*
X-25680632Y34606013D01*
X-25585394Y34510775D01*
X-25490156Y34463156D01*
X-60061585Y-35501129D02*
X-60061585Y-34501129D01*
X-60299680Y-34501129D01*
X-60442537Y-34548749D01*
X-60537775Y-34643987D01*
X-60585394Y-34739225D01*
X-60633013Y-34929701D01*
X-60633013Y-35072558D01*
X-60585394Y-35263034D01*
X-60537775Y-35358272D01*
X-60442537Y-35453510D01*
X-60299680Y-35501129D01*
X-60061585Y-35501129D01*
X-61013966Y-34596368D02*
X-61061585Y-34548749D01*
X-61156823Y-34501129D01*
X-61394918Y-34501129D01*
X-61490156Y-34548749D01*
X-61537775Y-34596368D01*
X-61585394Y-34691606D01*
X-61585394Y-34786844D01*
X-61537775Y-34929701D01*
X-60966347Y-35501129D01*
X-61585394Y-35501129D01*
X-62156823Y-34929701D02*
X-62061585Y-34882082D01*
X-62013966Y-34834463D01*
X-61966347Y-34739225D01*
X-61966347Y-34691606D01*
X-62013966Y-34596368D01*
X-62061585Y-34548749D01*
X-62156823Y-34501129D01*
X-62347299Y-34501129D01*
X-62442537Y-34548749D01*
X-62490156Y-34596368D01*
X-62537775Y-34691606D01*
X-62537775Y-34739225D01*
X-62490156Y-34834463D01*
X-62442537Y-34882082D01*
X-62347299Y-34929701D01*
X-62156823Y-34929701D01*
X-62061585Y-34977320D01*
X-62013966Y-35024939D01*
X-61966347Y-35120177D01*
X-61966347Y-35310653D01*
X-62013966Y-35405891D01*
X-62061585Y-35453510D01*
X-62156823Y-35501129D01*
X-62347299Y-35501129D01*
X-62442537Y-35453510D01*
X-62490156Y-35405891D01*
X-62537775Y-35310653D01*
X-62537775Y-35120177D01*
X-62490156Y-35024939D01*
X-62442537Y-34977320D01*
X-62347299Y-34929701D01*
X-3209204Y22394109D02*
X-3161585Y22346490D01*
X-3018728Y22298871D01*
X-2923490Y22298871D01*
X-2780632Y22346490D01*
X-2685394Y22441728D01*
X-2637775Y22536966D01*
X-2590156Y22727442D01*
X-2590156Y22870299D01*
X-2637775Y23060775D01*
X-2685394Y23156013D01*
X-2780632Y23251251D01*
X-2923490Y23298871D01*
X-3018728Y23298871D01*
X-3161585Y23251251D01*
X-3209204Y23203632D01*
X-4113966Y23298871D02*
X-3637775Y23298871D01*
X-3590156Y22822680D01*
X-3637775Y22870299D01*
X-3733013Y22917918D01*
X-3971109Y22917918D01*
X-4066347Y22870299D01*
X-4113966Y22822680D01*
X-4161585Y22727442D01*
X-4161585Y22489347D01*
X-4113966Y22394109D01*
X-4066347Y22346490D01*
X-3971109Y22298871D01*
X-3733013Y22298871D01*
X-3637775Y22346490D01*
X-3590156Y22394109D01*
X-9209204Y19894109D02*
X-9161585Y19846490D01*
X-9018728Y19798871D01*
X-8923490Y19798871D01*
X-8780632Y19846490D01*
X-8685394Y19941728D01*
X-8637775Y20036966D01*
X-8590156Y20227442D01*
X-8590156Y20370299D01*
X-8637775Y20560775D01*
X-8685394Y20656013D01*
X-8780632Y20751251D01*
X-8923490Y20798871D01*
X-9018728Y20798871D01*
X-9161585Y20751251D01*
X-9209204Y20703632D01*
X-10066347Y20465537D02*
X-10066347Y19798871D01*
X-9828251Y20846490D02*
X-9590156Y20132204D01*
X-10209204Y20132204D01*
X-1209205Y18594109D02*
X-1161586Y18546490D01*
X-1018729Y18498871D01*
X-923491Y18498871D01*
X-780633Y18546490D01*
X-685395Y18641728D01*
X-637776Y18736966D01*
X-590157Y18927442D01*
X-590157Y19070299D01*
X-637776Y19260775D01*
X-685395Y19356013D01*
X-780633Y19451251D01*
X-923491Y19498871D01*
X-1018729Y19498871D01*
X-1161586Y19451251D01*
X-1209205Y19403632D01*
X-2161586Y18498871D02*
X-1590157Y18498871D01*
X-1875871Y18498871D02*
X-1875871Y19498871D01*
X-1780633Y19356013D01*
X-1685395Y19260775D01*
X-1590157Y19213156D01*
X5017796Y13194109D02*
X5065415Y13146490D01*
X5208272Y13098871D01*
X5303510Y13098871D01*
X5446368Y13146490D01*
X5541606Y13241728D01*
X5589225Y13336966D01*
X5636844Y13527442D01*
X5636844Y13670299D01*
X5589225Y13860775D01*
X5541606Y13956013D01*
X5446368Y14051251D01*
X5303510Y14098871D01*
X5208272Y14098871D01*
X5065415Y14051251D01*
X5017796Y14003632D01*
X4636844Y14003632D02*
X4589225Y14051251D01*
X4493987Y14098871D01*
X4255891Y14098871D01*
X4160653Y14051251D01*
X4113034Y14003632D01*
X4065415Y13908394D01*
X4065415Y13813156D01*
X4113034Y13670299D01*
X4684463Y13098871D01*
X4065415Y13098871D01*
X1191749Y17206490D02*
X1144130Y17301728D01*
X1048891Y17396966D01*
X906034Y17539823D01*
X858415Y17635061D01*
X858415Y17730299D01*
X1096510Y17682680D02*
X1048891Y17777918D01*
X953653Y17873156D01*
X763177Y17920775D01*
X429844Y17920775D01*
X239368Y17873156D01*
X144130Y17777918D01*
X96510Y17682680D01*
X96510Y17492204D01*
X144130Y17396966D01*
X239368Y17301728D01*
X429844Y17254109D01*
X763177Y17254109D01*
X953653Y17301728D01*
X1048891Y17396966D01*
X1096510Y17492204D01*
X1096510Y17682680D01*
X191749Y16873156D02*
X144130Y16825537D01*
X96510Y16730299D01*
X96510Y16492204D01*
X144130Y16396966D01*
X191749Y16349347D01*
X286987Y16301728D01*
X382225Y16301728D01*
X525082Y16349347D01*
X1096510Y16920775D01*
X1096510Y16301728D01*
X-2182204Y13098871D02*
X-1848870Y13575061D01*
X-1610775Y13098871D02*
X-1610775Y14098871D01*
X-1991728Y14098871D01*
X-2086966Y14051251D01*
X-2134585Y14003632D01*
X-2182204Y13908394D01*
X-2182204Y13765537D01*
X-2134585Y13670299D01*
X-2086966Y13622680D01*
X-1991728Y13575061D01*
X-1610775Y13575061D01*
X-2563156Y14003632D02*
X-2610775Y14051251D01*
X-2706013Y14098871D01*
X-2944109Y14098871D01*
X-3039347Y14051251D01*
X-3086966Y14003632D01*
X-3134585Y13908394D01*
X-3134585Y13813156D01*
X-3086966Y13670299D01*
X-2515537Y13098871D01*
X-3134585Y13098871D01*
X-18921705Y9098871D02*
X-18588371Y9575061D01*
X-18350276Y9098871D02*
X-18350276Y10098871D01*
X-18731229Y10098871D01*
X-18826467Y10051251D01*
X-18874086Y10003632D01*
X-18921705Y9908394D01*
X-18921705Y9765537D01*
X-18874086Y9670299D01*
X-18826467Y9622680D01*
X-18731229Y9575061D01*
X-18350276Y9575061D01*
X-19778848Y9765537D02*
X-19778848Y9098871D01*
X-19540752Y10146490D02*
X-19302657Y9432204D01*
X-19921705Y9432204D01*
X-18934203Y4498871D02*
X-18600869Y4975061D01*
X-18362774Y4498871D02*
X-18362774Y5498871D01*
X-18743727Y5498871D01*
X-18838965Y5451251D01*
X-18886584Y5403632D01*
X-18934203Y5308394D01*
X-18934203Y5165537D01*
X-18886584Y5070299D01*
X-18838965Y5022680D01*
X-18743727Y4975061D01*
X-18362774Y4975061D01*
X-19838965Y5498871D02*
X-19362774Y5498871D01*
X-19315155Y5022680D01*
X-19362774Y5070299D01*
X-19458012Y5117918D01*
X-19696108Y5117918D01*
X-19791346Y5070299D01*
X-19838965Y5022680D01*
X-19886584Y4927442D01*
X-19886584Y4689347D01*
X-19838965Y4594109D01*
X-19791346Y4546490D01*
X-19696108Y4498871D01*
X-19458012Y4498871D01*
X-19362774Y4546490D01*
X-19315155Y4594109D01*
X-4782204Y29698871D02*
X-4448870Y30175061D01*
X-4210775Y29698871D02*
X-4210775Y30698871D01*
X-4591728Y30698871D01*
X-4686966Y30651251D01*
X-4734585Y30603632D01*
X-4782204Y30508394D01*
X-4782204Y30365537D01*
X-4734585Y30270299D01*
X-4686966Y30222680D01*
X-4591728Y30175061D01*
X-4210775Y30175061D01*
X-5115537Y30698871D02*
X-5782204Y30698871D01*
X-5353632Y29698871D01*
X5117796Y29898871D02*
X5451130Y30375061D01*
X5689225Y29898871D02*
X5689225Y30898871D01*
X5308272Y30898871D01*
X5213034Y30851251D01*
X5165415Y30803632D01*
X5117796Y30708394D01*
X5117796Y30565537D01*
X5165415Y30470299D01*
X5213034Y30422680D01*
X5308272Y30375061D01*
X5689225Y30375061D01*
X4546368Y30470299D02*
X4641606Y30517918D01*
X4689225Y30565537D01*
X4736844Y30660775D01*
X4736844Y30708394D01*
X4689225Y30803632D01*
X4641606Y30851251D01*
X4546368Y30898871D01*
X4355891Y30898871D01*
X4260653Y30851251D01*
X4213034Y30803632D01*
X4165415Y30708394D01*
X4165415Y30660775D01*
X4213034Y30565537D01*
X4260653Y30517918D01*
X4355891Y30470299D01*
X4546368Y30470299D01*
X4641606Y30422680D01*
X4689225Y30375061D01*
X4736844Y30279823D01*
X4736844Y30089347D01*
X4689225Y29994109D01*
X4641606Y29946490D01*
X4546368Y29898871D01*
X4355891Y29898871D01*
X4260653Y29946490D01*
X4213034Y29994109D01*
X4165415Y30089347D01*
X4165415Y30279823D01*
X4213034Y30375061D01*
X4260653Y30422680D01*
X4355891Y30470299D01*
X5217796Y18098871D02*
X5551130Y18575061D01*
X5789225Y18098871D02*
X5789225Y19098871D01*
X5408272Y19098871D01*
X5313034Y19051251D01*
X5265415Y19003632D01*
X5217796Y18908394D01*
X5217796Y18765537D01*
X5265415Y18670299D01*
X5313034Y18622680D01*
X5408272Y18575061D01*
X5789225Y18575061D01*
X4741606Y18098871D02*
X4551130Y18098871D01*
X4455891Y18146490D01*
X4408272Y18194109D01*
X4313034Y18336966D01*
X4265415Y18527442D01*
X4265415Y18908394D01*
X4313034Y19003632D01*
X4360653Y19051251D01*
X4455891Y19098871D01*
X4646368Y19098871D01*
X4741606Y19051251D01*
X4789225Y19003632D01*
X4836844Y18908394D01*
X4836844Y18670299D01*
X4789225Y18575061D01*
X4741606Y18527442D01*
X4646368Y18479823D01*
X4455891Y18479823D01*
X4360653Y18527442D01*
X4313034Y18575061D01*
X4265415Y18670299D01*
X9103510Y14298871D02*
X9436844Y14775061D01*
X9674939Y14298871D02*
X9674939Y15298871D01*
X9293987Y15298871D01*
X9198749Y15251251D01*
X9151130Y15203632D01*
X9103510Y15108394D01*
X9103510Y14965537D01*
X9151130Y14870299D01*
X9198749Y14822680D01*
X9293987Y14775061D01*
X9674939Y14775061D01*
X8674939Y14822680D02*
X8341606Y14822680D01*
X8198749Y14298871D02*
X8674939Y14298871D01*
X8674939Y15298871D01*
X8198749Y15298871D01*
X7817796Y14346490D02*
X7674939Y14298871D01*
X7436844Y14298871D01*
X7341606Y14346490D01*
X7293987Y14394109D01*
X7246368Y14489347D01*
X7246368Y14584585D01*
X7293987Y14679823D01*
X7341606Y14727442D01*
X7436844Y14775061D01*
X7627320Y14822680D01*
X7722558Y14870299D01*
X7770177Y14917918D01*
X7817796Y15013156D01*
X7817796Y15108394D01*
X7770177Y15203632D01*
X7722558Y15251251D01*
X7627320Y15298871D01*
X7389225Y15298871D01*
X7246368Y15251251D01*
X6817796Y14822680D02*
X6484463Y14822680D01*
X6341606Y14298871D02*
X6817796Y14298871D01*
X6817796Y15298871D01*
X6341606Y15298871D01*
X6055891Y15298871D02*
X5484463Y15298871D01*
X5770177Y14298871D02*
X5770177Y15298871D01*
X-3686966Y17198871D02*
X-3686966Y16389347D01*
X-3734585Y16294109D01*
X-3782204Y16246490D01*
X-3877442Y16198871D01*
X-4067918Y16198871D01*
X-4163156Y16246490D01*
X-4210775Y16294109D01*
X-4258394Y16389347D01*
X-4258394Y17198871D01*
X-5258394Y16198871D02*
X-4686966Y16198871D01*
X-4972680Y16198871D02*
X-4972680Y17198871D01*
X-4877442Y17056013D01*
X-4782204Y16960775D01*
X-4686966Y16913156D01*
X-5386966Y23898871D02*
X-5386966Y23089347D01*
X-5434585Y22994109D01*
X-5482204Y22946490D01*
X-5577442Y22898871D01*
X-5767918Y22898871D01*
X-5863156Y22946490D01*
X-5910775Y22994109D01*
X-5958394Y23089347D01*
X-5958394Y23898871D01*
X-6339347Y23898871D02*
X-6958394Y23898871D01*
X-6625061Y23517918D01*
X-6767918Y23517918D01*
X-6863156Y23470299D01*
X-6910775Y23422680D01*
X-6958394Y23327442D01*
X-6958394Y23089347D01*
X-6910775Y22994109D01*
X-6863156Y22946490D01*
X-6767918Y22898871D01*
X-6482204Y22898871D01*
X-6386966Y22946490D01*
X-6339347Y22994109D01*
X-10615537Y17667918D02*
X-10615537Y17334585D01*
X-10382204Y18034585D02*
X-10615537Y17667918D01*
X-10848870Y18034585D01*
X-11448870Y17334585D02*
X-11048870Y17334585D01*
X-11248870Y17334585D02*
X-11248870Y18034585D01*
X-11182204Y17934585D01*
X-11115537Y17867918D01*
X-11048870Y17834585D01*
X-17591728Y19217918D02*
X-17544109Y19265537D01*
X-17496490Y19408394D01*
X-17496490Y19503632D01*
X-17544109Y19646490D01*
X-17639347Y19741728D01*
X-17734585Y19789347D01*
X-17925061Y19836966D01*
X-18067918Y19836966D01*
X-18258394Y19789347D01*
X-18353632Y19741728D01*
X-18448870Y19646490D01*
X-18496490Y19503632D01*
X-18496490Y19408394D01*
X-18448870Y19265537D01*
X-18401251Y19217918D01*
X-18496490Y18884585D02*
X-18496490Y18265537D01*
X-18115537Y18598871D01*
X-18115537Y18456013D01*
X-18067918Y18360775D01*
X-18020299Y18313156D01*
X-17925061Y18265537D01*
X-17686966Y18265537D01*
X-17591728Y18313156D01*
X-17544109Y18360775D01*
X-17496490Y18456013D01*
X-17496490Y18741728D01*
X-17544109Y18836966D01*
X-17591728Y18884585D01*
X8417796Y35098871D02*
X8751130Y35575061D01*
X8989225Y35098871D02*
X8989225Y36098871D01*
X8608272Y36098871D01*
X8513034Y36051251D01*
X8465415Y36003632D01*
X8417796Y35908394D01*
X8417796Y35765537D01*
X8465415Y35670299D01*
X8513034Y35622680D01*
X8608272Y35575061D01*
X8989225Y35575061D01*
X7560653Y36098871D02*
X7751130Y36098871D01*
X7846368Y36051251D01*
X7893987Y36003632D01*
X7989225Y35860775D01*
X8036844Y35670299D01*
X8036844Y35289347D01*
X7989225Y35194109D01*
X7941606Y35146490D01*
X7846368Y35098871D01*
X7655891Y35098871D01*
X7560653Y35146490D01*
X7513034Y35194109D01*
X7465415Y35289347D01*
X7465415Y35527442D01*
X7513034Y35622680D01*
X7560653Y35670299D01*
X7655891Y35717918D01*
X7846368Y35717918D01*
X7941606Y35670299D01*
X7989225Y35622680D01*
X8036844Y35527442D01*
X-15674454Y28545646D02*
X-15674454Y27736122D01*
X-15722073Y27640884D01*
X-15769692Y27593265D01*
X-15864930Y27545646D01*
X-16055406Y27545646D01*
X-16150644Y27593265D01*
X-16198263Y27640884D01*
X-16245882Y27736122D01*
X-16245882Y28545646D01*
X-16674454Y28450407D02*
X-16722073Y28498026D01*
X-16817311Y28545646D01*
X-17055406Y28545646D01*
X-17150644Y28498026D01*
X-17198263Y28450407D01*
X-17245882Y28355169D01*
X-17245882Y28259931D01*
X-17198263Y28117074D01*
X-16626835Y27545646D01*
X-17245882Y27545646D01*
X-10222540Y36197680D02*
X-10555873Y36197680D01*
X-10698730Y35673871D02*
X-10222540Y35673871D01*
X-10222540Y36673871D01*
X-10698730Y36673871D01*
X-11032064Y36673871D02*
X-11698730Y36673871D01*
X-11270159Y35673871D01*
X-11984445Y36673871D02*
X-12603492Y36673871D01*
X-12270159Y36292918D01*
X-12413016Y36292918D01*
X-12508254Y36245299D01*
X-12555873Y36197680D01*
X-12603492Y36102442D01*
X-12603492Y35864347D01*
X-12555873Y35769109D01*
X-12508254Y35721490D01*
X-12413016Y35673871D01*
X-12127302Y35673871D01*
X-12032064Y35721490D01*
X-11984445Y35769109D01*
X-13032064Y36054823D02*
X-13793968Y36054823D01*
X-14222540Y36578632D02*
X-14270159Y36626251D01*
X-14365397Y36673871D01*
X-14603492Y36673871D01*
X-14698730Y36626251D01*
X-14746349Y36578632D01*
X-14793968Y36483394D01*
X-14793968Y36388156D01*
X-14746349Y36245299D01*
X-14174921Y35673871D01*
X-14793968Y35673871D01*
X-15746349Y36626251D02*
X-15651111Y36673871D01*
X-15508254Y36673871D01*
X-15365397Y36626251D01*
X-15270159Y36531013D01*
X-15222540Y36435775D01*
X-15174921Y36245299D01*
X-15174921Y36102442D01*
X-15222540Y35911966D01*
X-15270159Y35816728D01*
X-15365397Y35721490D01*
X-15508254Y35673871D01*
X-15603492Y35673871D01*
X-15746349Y35721490D01*
X-15793968Y35769109D01*
X-15793968Y36102442D01*
X-15603492Y36102442D01*
X-16651111Y36340537D02*
X-16651111Y35673871D01*
X-16413016Y36721490D02*
X-16174921Y36007204D01*
X-16793968Y36007204D01*
X-17174921Y35673871D02*
X-17174921Y36673871D01*
X-17508254Y35959585D01*
X-17841587Y36673871D01*
X-17841587Y35673871D01*
X-18508254Y36673871D02*
X-18603492Y36673871D01*
X-18698730Y36626251D01*
X-18746349Y36578632D01*
X-18793968Y36483394D01*
X-18841587Y36292918D01*
X-18841587Y36054823D01*
X-18793968Y35864347D01*
X-18746349Y35769109D01*
X-18698730Y35721490D01*
X-18603492Y35673871D01*
X-18508254Y35673871D01*
X-18413016Y35721490D01*
X-18365397Y35769109D01*
X-18317778Y35864347D01*
X-18270159Y36054823D01*
X-18270159Y36292918D01*
X-18317778Y36483394D01*
X-18365397Y36578632D01*
X-18413016Y36626251D01*
X-18508254Y36673871D01*
X-19413016Y36245299D02*
X-19317778Y36292918D01*
X-19270159Y36340537D01*
X-19222540Y36435775D01*
X-19222540Y36483394D01*
X-19270159Y36578632D01*
X-19317778Y36626251D01*
X-19413016Y36673871D01*
X-19603492Y36673871D01*
X-19698730Y36626251D01*
X-19746349Y36578632D01*
X-19793968Y36483394D01*
X-19793968Y36435775D01*
X-19746349Y36340537D01*
X-19698730Y36292918D01*
X-19603492Y36245299D01*
X-19413016Y36245299D01*
X-19317778Y36197680D01*
X-19270159Y36150061D01*
X-19222540Y36054823D01*
X-19222540Y35864347D01*
X-19270159Y35769109D01*
X-19317778Y35721490D01*
X-19413016Y35673871D01*
X-19603492Y35673871D01*
X-19698730Y35721490D01*
X-19746349Y35769109D01*
X-19793968Y35864347D01*
X-19793968Y36054823D01*
X-19746349Y36150061D01*
X-19698730Y36197680D01*
X-19603492Y36245299D01*
X-20174921Y35721490D02*
X-20317778Y35673871D01*
X-20555873Y35673871D01*
X-20651111Y35721490D01*
X-20698730Y35769109D01*
X-20746349Y35864347D01*
X-20746349Y35959585D01*
X-20698730Y36054823D01*
X-20651111Y36102442D01*
X-20555873Y36150061D01*
X-20365397Y36197680D01*
X-20270159Y36245299D01*
X-20222540Y36292918D01*
X-20174921Y36388156D01*
X-20174921Y36483394D01*
X-20222540Y36578632D01*
X-20270159Y36626251D01*
X-20365397Y36673871D01*
X-20603492Y36673871D01*
X-20746349Y36626251D01*
X-21698730Y35673871D02*
X-21127302Y35673871D01*
X-21413016Y35673871D02*
X-21413016Y36673871D01*
X-21317778Y36531013D01*
X-21222540Y36435775D01*
X-21127302Y36388156D01*
X-22698730Y35769109D02*
X-22651111Y35721490D01*
X-22508254Y35673871D01*
X-22413016Y35673871D01*
X-22270159Y35721490D01*
X-22174921Y35816728D01*
X-22127302Y35911966D01*
X-22079683Y36102442D01*
X-22079683Y36245299D01*
X-22127302Y36435775D01*
X-22174921Y36531013D01*
X-22270159Y36626251D01*
X-22413016Y36673871D01*
X-22508254Y36673871D01*
X-22651111Y36626251D01*
X-22698730Y36578632D01*
X3465415Y20498871D02*
X3465415Y21498871D01*
X3227320Y21498871D01*
X3084463Y21451251D01*
X2989225Y21356013D01*
X2941606Y21260775D01*
X2893987Y21070299D01*
X2893987Y20927442D01*
X2941606Y20736966D01*
X2989225Y20641728D01*
X3084463Y20546490D01*
X3227320Y20498871D01*
X3465415Y20498871D01*
X2560653Y21498871D02*
X1941606Y21498871D01*
X2274939Y21117918D01*
X2132082Y21117918D01*
X2036844Y21070299D01*
X1989225Y21022680D01*
X1941606Y20927442D01*
X1941606Y20689347D01*
X1989225Y20594109D01*
X2036844Y20546490D01*
X2132082Y20498871D01*
X2417796Y20498871D01*
X2513034Y20546490D01*
X2560653Y20594109D01*
X1608272Y21498871D02*
X989225Y21498871D01*
X1322558Y21117918D01*
X1179701Y21117918D01*
X1084463Y21070299D01*
X1036844Y21022680D01*
X989225Y20927442D01*
X989225Y20689347D01*
X1036844Y20594109D01*
X1084463Y20546490D01*
X1179701Y20498871D01*
X1465415Y20498871D01*
X1560653Y20546490D01*
X1608272Y20594109D01*
X-7634204Y35098871D02*
X-7300870Y35575061D01*
X-7062775Y35098871D02*
X-7062775Y36098871D01*
X-7443728Y36098871D01*
X-7538966Y36051251D01*
X-7586585Y36003632D01*
X-7634204Y35908394D01*
X-7634204Y35765537D01*
X-7586585Y35670299D01*
X-7538966Y35622680D01*
X-7443728Y35575061D01*
X-7062775Y35575061D01*
X-8586585Y35098871D02*
X-8015156Y35098871D01*
X-8300870Y35098871D02*
X-8300870Y36098871D01*
X-8205632Y35956013D01*
X-8110394Y35860775D01*
X-8015156Y35813156D01*
D12*
X-14240812Y16115926D02*
X-13524754Y16115926D01*
X-13381543Y16163663D01*
X-13286069Y16259137D01*
X-13238332Y16402349D01*
X-13238332Y16497823D01*
X-13238332Y15113446D02*
X-13238332Y15686292D01*
X-13238332Y15399869D02*
X-14240812Y15399869D01*
X-14097600Y15495343D01*
X-14002126Y15590817D01*
X-13954389Y15686292D01*
X-14145337Y14731549D02*
X-14193074Y14683812D01*
X-14240812Y14588337D01*
X-14240812Y14349652D01*
X-14193074Y14254177D01*
X-14145337Y14206440D01*
X-14049863Y14158703D01*
X-13954389Y14158703D01*
X-13811177Y14206440D01*
X-13238332Y14779286D01*
X-13238332Y14158703D01*
D13*
X3769487Y28099309D02*
X3823915Y27936023D01*
X3878344Y27881594D01*
X3987201Y27827166D01*
X4150487Y27827166D01*
X4259344Y27881594D01*
X4313772Y27936023D01*
X4368201Y28044880D01*
X4368201Y28480309D01*
X3225201Y28480309D01*
X3225201Y28099309D01*
X3279630Y27990451D01*
X3334058Y27936023D01*
X3442915Y27881594D01*
X3551772Y27881594D01*
X3660630Y27936023D01*
X3715058Y27990451D01*
X3769487Y28099309D01*
X3769487Y28480309D01*
X4041630Y27391737D02*
X4041630Y26847451D01*
X4368201Y27500594D02*
X3225201Y27119594D01*
X4368201Y26738594D01*
X3225201Y26520880D02*
X3225201Y25867737D01*
X4368201Y26194309D02*
X3225201Y26194309D01*
X3225201Y25650023D02*
X3225201Y24996880D01*
X4368201Y25323451D02*
X3225201Y25323451D01*
X4477058Y24888023D02*
X4477058Y24017166D01*
X4313772Y23799451D02*
X4368201Y23636166D01*
X4368201Y23364023D01*
X4313772Y23255166D01*
X4259344Y23200737D01*
X4150487Y23146309D01*
X4041630Y23146309D01*
X3932772Y23200737D01*
X3878344Y23255166D01*
X3823915Y23364023D01*
X3769487Y23581737D01*
X3715058Y23690594D01*
X3660630Y23745023D01*
X3551772Y23799451D01*
X3442915Y23799451D01*
X3334058Y23745023D01*
X3279630Y23690594D01*
X3225201Y23581737D01*
X3225201Y23309594D01*
X3279630Y23146309D01*
X3225201Y22765309D02*
X4368201Y22493166D01*
X3551772Y22275451D01*
X4368201Y22057737D01*
X3225201Y21785594D01*
D14*
X63803082Y37551251D02*
X63803082Y39551251D01*
X63803082Y37551251D02*
X67703082Y37551251D01*
X63803082Y39551251D02*
X67703082Y39551251D01*
X81603082Y40901251D02*
X85503082Y40901251D01*
X81603082Y38901251D02*
X81603082Y40901251D01*
X81603082Y38901251D02*
X85503082Y38901251D01*
X99603082Y37601251D02*
X103503082Y37601251D01*
X99603082Y39601251D02*
X103503082Y39601251D01*
X99603082Y37601251D02*
X99603082Y39601251D01*
X117603082Y32601251D02*
X121503082Y32601251D01*
X117603082Y34601251D02*
X121503082Y34601251D01*
X117603082Y32601251D02*
X117603082Y34601251D01*
X135603082Y31601251D02*
X135603082Y33601251D01*
X135603082Y33601251D02*
X139503082Y33601251D01*
X135603082Y31601251D02*
X139503082Y31601251D01*
X45553082Y18201251D02*
X49453082Y18201251D01*
X45553082Y20201251D02*
X49453082Y20201251D01*
X45553082Y18201251D02*
X45553082Y20201251D01*
X63503082Y20651251D02*
X63503082Y22651251D01*
X63503082Y20651251D02*
X67403082Y20651251D01*
X63503082Y22651251D02*
X67403082Y22651251D01*
X81603082Y23901251D02*
X85503082Y23901251D01*
X81603082Y21901251D02*
X81603082Y23901251D01*
X81603082Y21901251D02*
X85503082Y21901251D01*
X99553082Y20601251D02*
X99553082Y22601251D01*
X99553082Y22601251D02*
X103453082Y22601251D01*
X99553082Y20601251D02*
X103453082Y20601251D01*
X117603082Y17601251D02*
X121503082Y17601251D01*
X117603082Y15601251D02*
X121503082Y15601251D01*
X117603082Y15601251D02*
X117603082Y17601251D01*
X135553082Y16601251D02*
X139453082Y16601251D01*
X135553082Y14601251D02*
X135553082Y16601251D01*
X135553082Y14601251D02*
X139453082Y14601251D01*
X63803082Y3651251D02*
X63803082Y5651251D01*
X63803082Y5651251D02*
X67703082Y5651251D01*
X63803082Y3651251D02*
X67703082Y3651251D01*
X81603082Y6901251D02*
X85503082Y6901251D01*
X81603082Y4901251D02*
X81603082Y6901251D01*
X81603082Y4901251D02*
X85503082Y4901251D01*
X99553082Y5601251D02*
X103453082Y5601251D01*
X99553082Y3601251D02*
X99553082Y5601251D01*
X99553082Y3601251D02*
X103453082Y3601251D01*
X117603082Y601251D02*
X121503082Y601251D01*
X117603082Y-1398749D02*
X117603082Y601251D01*
X117603082Y-1398749D02*
X121503082Y-1398749D01*
X135553082Y-2398749D02*
X139453082Y-2398749D01*
X135553082Y-398749D02*
X139453082Y-398749D01*
X135553082Y-2398749D02*
X135553082Y-398749D01*
X45603082Y-15798749D02*
X49503082Y-15798749D01*
X45603082Y-15798749D02*
X45603082Y-13798749D01*
X45603082Y-13798749D02*
X49503082Y-13798749D01*
X63603082Y-13448749D02*
X63603082Y-11448749D01*
X63603082Y-13448749D02*
X67503082Y-13448749D01*
X63603082Y-11448749D02*
X67503082Y-11448749D01*
X81803082Y-10148749D02*
X85703082Y-10148749D01*
X81803082Y-12148749D02*
X81803082Y-10148749D01*
X81803082Y-12148749D02*
X85703082Y-12148749D01*
X99553082Y-13398749D02*
X99553082Y-11398749D01*
X99553082Y-13398749D02*
X103453082Y-13398749D01*
X99553082Y-11398749D02*
X103453082Y-11398749D01*
X117553082Y-18398749D02*
X117553082Y-16398749D01*
X117553082Y-18398749D02*
X121453082Y-18398749D01*
X117553082Y-16398749D02*
X121453082Y-16398749D01*
X135603082Y-17398749D02*
X139503082Y-17398749D01*
X135603082Y-19398749D02*
X139503082Y-19398749D01*
X135603082Y-19398749D02*
X135603082Y-17398749D01*
X45603082Y3201251D02*
X49503082Y3201251D01*
X45603082Y1201251D02*
X45603082Y3201251D01*
X45603082Y1201251D02*
X49503082Y1201251D01*
X63603082Y-35348749D02*
X67503082Y-35348749D01*
X63603082Y-35348749D02*
X63603082Y-33348749D01*
X63603082Y-33348749D02*
X67503082Y-33348749D01*
X40432282Y-35039774D02*
X43809781Y-36989774D01*
X41432282Y-33307724D02*
X44809781Y-35257724D01*
X40432282Y-35039774D02*
X41432282Y-33307724D01*
X37353082Y-20398748D02*
X37353082Y-16498748D01*
X35353082Y-20398748D02*
X35353082Y-16498748D01*
X37353082Y-20398748D02*
X35353082Y-20398748D01*
X45603082Y35201251D02*
X45603082Y37201251D01*
X45603082Y37201251D02*
X49503082Y37201251D01*
X45603082Y35201251D02*
X49503082Y35201251D01*
X81603082Y-32048749D02*
X85503082Y-32048749D01*
X81603082Y-34048749D02*
X85503082Y-34048749D01*
X81603082Y-34048749D02*
X81603082Y-32048749D01*
X31231815Y14661251D02*
X31524349Y14661251D01*
X31231815Y13641251D02*
X31524349Y13641251D01*
X25088082Y16797518D02*
X25088082Y16504984D01*
X24068082Y16797518D02*
X24068082Y16504984D01*
X20461849Y13341251D02*
X20169315Y13341251D01*
X20461849Y14361251D02*
X20169315Y14361251D01*
X39408082Y26221251D02*
X39408082Y33901251D01*
X36748082Y24951251D02*
X36748082Y23621251D01*
X36748082Y23621251D02*
X38078082Y23621251D01*
X36748082Y26221251D02*
X36748082Y33901251D01*
X36748082Y33901251D02*
X39408082Y33901251D01*
X36748082Y26221251D02*
X39408082Y26221251D01*
X21933082Y15591251D02*
X21933082Y17051251D01*
X18773082Y15591251D02*
X18773082Y17751251D01*
X18773082Y15591251D02*
X19703082Y15591251D01*
X21933082Y15591251D02*
X21003082Y15591251D01*
X27732806Y13628751D02*
X27223358Y13628751D01*
X27732806Y14673751D02*
X27223358Y14673751D01*
X41423358Y7528751D02*
X41932806Y7528751D01*
X41423358Y8573751D02*
X41932806Y8573751D01*
X41932806Y5928751D02*
X41423358Y5928751D01*
X41932806Y6973751D02*
X41423358Y6973751D01*
X17370306Y31773751D02*
X16860858Y31773751D01*
X17370306Y30728751D02*
X16860858Y30728751D01*
X27523358Y32123751D02*
X28032806Y32123751D01*
X27523358Y31078751D02*
X28032806Y31078751D01*
X17255582Y16605975D02*
X17255582Y16096527D01*
X18300582Y16605975D02*
X18300582Y16096527D01*
X16278082Y19701251D02*
X15978082Y19701251D01*
X13478082Y19701251D02*
X13778082Y19701251D01*
X16278082Y16401251D02*
X16278082Y19701251D01*
X13478082Y16401251D02*
X13478082Y19701251D01*
X13778082Y16401251D02*
X13478082Y16401251D01*
X15978082Y16401251D02*
X16278082Y16401251D01*
X27478082Y15091251D02*
X28278082Y15091251D01*
X27478082Y18211251D02*
X26678082Y18211251D01*
X27478082Y15091251D02*
X25678082Y15091251D01*
X27478082Y18211251D02*
X28278082Y18211251D01*
X32888082Y17051251D02*
X32888082Y17851251D01*
X32888082Y17051251D02*
X32888082Y16251251D01*
X29768082Y17051251D02*
X29768082Y16251251D01*
X29768082Y17051251D02*
X29768082Y18851251D01*
X42764037Y19688751D02*
X42964037Y19688751D01*
X42764037Y18288751D02*
X42964037Y18288751D01*
X41314037Y18388751D02*
X41314037Y19588751D01*
X14875582Y33405975D02*
X14875582Y32896527D01*
X13830582Y33405975D02*
X13830582Y32896527D01*
X22278082Y18501251D02*
X19128082Y18501251D01*
X22278082Y20201251D02*
X19128082Y20201251D01*
X22278082Y20201251D02*
X22278082Y18501251D01*
X30900582Y33405975D02*
X30900582Y32896527D01*
X29855582Y33405975D02*
X29855582Y32896527D01*
D15*
X34503082Y17701251D02*
X34503082Y16846251D01*
X34503082Y13701251D02*
X36850082Y13701251D01*
X34503082Y17701251D02*
X36716082Y17701251D01*
X38753082Y16468251D02*
X38753082Y14979251D01*
X34503082Y13701251D02*
X34503082Y14601251D01*
X13328082Y22901251D02*
X13328082Y28401251D01*
X14159082Y22651251D02*
X15297082Y22651251D01*
X11728082Y23626251D02*
X11728082Y24901251D01*
X16228082Y24151251D02*
X16228082Y25651251D01*
X15297082Y28651251D02*
X14159082Y28651251D01*
X16228082Y28420251D02*
X16228082Y28410251D01*
X13328082Y23626251D02*
X11728082Y23626251D01*
X11728082Y24901251D02*
X13328082Y24901251D01*
D14*
X-45725870Y37551251D02*
X-45725870Y39551251D01*
X-45725870Y37551251D02*
X-41825870Y37551251D01*
X-45725870Y39551251D02*
X-41825870Y39551251D01*
X-63525870Y40901251D02*
X-59625870Y40901251D01*
X-63525870Y38901251D02*
X-63525870Y40901251D01*
X-63525870Y38901251D02*
X-59625870Y38901251D01*
X-81525870Y37601251D02*
X-77625870Y37601251D01*
X-81525870Y39601251D02*
X-77625870Y39601251D01*
X-81525870Y37601251D02*
X-81525870Y39601251D01*
X-99525870Y32601251D02*
X-95625870Y32601251D01*
X-99525870Y34601251D02*
X-95625870Y34601251D01*
X-99525870Y32601251D02*
X-99525870Y34601251D01*
X-117525870Y31601251D02*
X-117525870Y33601251D01*
X-117525870Y33601251D02*
X-113625870Y33601251D01*
X-117525870Y31601251D02*
X-113625870Y31601251D01*
X-27475870Y18201251D02*
X-23575870Y18201251D01*
X-27475870Y20201251D02*
X-23575870Y20201251D01*
X-27475870Y18201251D02*
X-27475870Y20201251D01*
X-45425870Y20651251D02*
X-45425870Y22651251D01*
X-45425870Y20651251D02*
X-41525870Y20651251D01*
X-45425870Y22651251D02*
X-41525870Y22651251D01*
X-63525870Y23901251D02*
X-59625870Y23901251D01*
X-63525870Y21901251D02*
X-63525870Y23901251D01*
X-63525870Y21901251D02*
X-59625870Y21901251D01*
X-81475870Y20601251D02*
X-81475870Y22601251D01*
X-81475870Y22601251D02*
X-77575870Y22601251D01*
X-81475870Y20601251D02*
X-77575870Y20601251D01*
X-99525870Y17601251D02*
X-95625870Y17601251D01*
X-99525870Y15601251D02*
X-95625870Y15601251D01*
X-99525870Y15601251D02*
X-99525870Y17601251D01*
X-117475870Y16601251D02*
X-113575870Y16601251D01*
X-117475870Y14601251D02*
X-117475870Y16601251D01*
X-117475870Y14601251D02*
X-113575870Y14601251D01*
X-45725870Y3651251D02*
X-45725870Y5651251D01*
X-45725870Y5651251D02*
X-41825870Y5651251D01*
X-45725870Y3651251D02*
X-41825870Y3651251D01*
X-63525870Y6901251D02*
X-59625870Y6901251D01*
X-63525870Y4901251D02*
X-63525870Y6901251D01*
X-63525870Y4901251D02*
X-59625870Y4901251D01*
X-81475870Y5601251D02*
X-77575870Y5601251D01*
X-81475870Y3601251D02*
X-81475870Y5601251D01*
X-81475870Y3601251D02*
X-77575870Y3601251D01*
X-99525870Y601251D02*
X-95625870Y601251D01*
X-99525870Y-1398749D02*
X-99525870Y601251D01*
X-99525870Y-1398749D02*
X-95625870Y-1398749D01*
X-117475870Y-2398749D02*
X-113575870Y-2398749D01*
X-117475870Y-398749D02*
X-113575870Y-398749D01*
X-117475870Y-2398749D02*
X-117475870Y-398749D01*
X-27525870Y-15798749D02*
X-23625870Y-15798749D01*
X-27525870Y-15798749D02*
X-27525870Y-13798749D01*
X-27525870Y-13798749D02*
X-23625870Y-13798749D01*
X-45525870Y-13448749D02*
X-45525870Y-11448749D01*
X-45525870Y-13448749D02*
X-41625870Y-13448749D01*
X-45525870Y-11448749D02*
X-41625870Y-11448749D01*
X-63725870Y-10148749D02*
X-59825870Y-10148749D01*
X-63725870Y-12148749D02*
X-63725870Y-10148749D01*
X-63725870Y-12148749D02*
X-59825870Y-12148749D01*
X-81475870Y-13398749D02*
X-81475870Y-11398749D01*
X-81475870Y-13398749D02*
X-77575870Y-13398749D01*
X-81475870Y-11398749D02*
X-77575870Y-11398749D01*
X-99475870Y-18398749D02*
X-99475870Y-16398749D01*
X-99475870Y-18398749D02*
X-95575870Y-18398749D01*
X-99475870Y-16398749D02*
X-95575870Y-16398749D01*
X-117525870Y-17398749D02*
X-113625870Y-17398749D01*
X-117525870Y-19398749D02*
X-113625870Y-19398749D01*
X-117525870Y-19398749D02*
X-117525870Y-17398749D01*
X-27525870Y3201251D02*
X-23625870Y3201251D01*
X-27525870Y1201251D02*
X-27525870Y3201251D01*
X-27525870Y1201251D02*
X-23625870Y1201251D01*
X-45525870Y-35348749D02*
X-41625870Y-35348749D01*
X-45525870Y-35348749D02*
X-45525870Y-33348749D01*
X-45525870Y-33348749D02*
X-41625870Y-33348749D01*
X-21752184Y-37289774D02*
X-18374685Y-35339774D01*
X-22752184Y-35557724D02*
X-19374685Y-33607724D01*
X-21752184Y-37289774D02*
X-22752184Y-35557724D01*
X-12775870Y-20398748D02*
X-12775870Y-16498748D01*
X-14775870Y-20398748D02*
X-14775870Y-16498748D01*
X-12775870Y-20398748D02*
X-14775870Y-20398748D01*
X-27525870Y35201251D02*
X-27525870Y37201251D01*
X-27525870Y37201251D02*
X-23625870Y37201251D01*
X-27525870Y35201251D02*
X-23625870Y35201251D01*
X-63525870Y-32048749D02*
X-59625870Y-32048749D01*
X-63525870Y-34048749D02*
X-59625870Y-34048749D01*
X-63525870Y-34048749D02*
X-63525870Y-32048749D01*
X-3065870Y20697518D02*
X-3065870Y20404984D01*
X-4085870Y20697518D02*
X-4085870Y20404984D01*
X-9885870Y18042484D02*
X-9885870Y18335018D01*
X-8865870Y18042484D02*
X-8865870Y18335018D01*
X-1885870Y16504984D02*
X-1885870Y16797518D01*
X-865870Y16504984D02*
X-865870Y16797518D01*
X2115363Y14361251D02*
X2407897Y14361251D01*
X2115363Y13341251D02*
X2407897Y13341251D01*
X644130Y17111251D02*
X644130Y15651251D01*
X3804130Y17111251D02*
X3804130Y14951251D01*
X3804130Y17111251D02*
X2874130Y17111251D01*
X644130Y17111251D02*
X1574130Y17111251D01*
X-4646146Y13628751D02*
X-5155594Y13628751D01*
X-4646146Y14673751D02*
X-5155594Y14673751D01*
X-19355594Y7528751D02*
X-18846146Y7528751D01*
X-19355594Y8573751D02*
X-18846146Y8573751D01*
X-18846146Y5928751D02*
X-19355594Y5928751D01*
X-18846146Y6973751D02*
X-19355594Y6973751D01*
X-4633646Y32273751D02*
X-5143094Y32273751D01*
X-4633646Y31228751D02*
X-5143094Y31228751D01*
X5569406Y32273751D02*
X6078854Y32273751D01*
X5569406Y31228751D02*
X6078854Y31228751D01*
X5321630Y16096527D02*
X5321630Y16605975D01*
X4276630Y16096527D02*
X4276630Y16605975D01*
X6299130Y16401251D02*
X6599130Y16401251D01*
X9099130Y16401251D02*
X8799130Y16401251D01*
X6299130Y19701251D02*
X6299130Y16401251D01*
X9099130Y19701251D02*
X9099130Y16401251D01*
X8799130Y19701251D02*
X9099130Y19701251D01*
X6599130Y19701251D02*
X6299130Y19701251D01*
X-4900870Y15091251D02*
X-4100870Y15091251D01*
X-4900870Y18211251D02*
X-5700870Y18211251D01*
X-4900870Y15091251D02*
X-6700870Y15091251D01*
X-4900870Y18211251D02*
X-4100870Y18211251D01*
X-7735870Y20688751D02*
X-7735870Y19888751D01*
X-7735870Y20688751D02*
X-7735870Y21488751D01*
X-4615870Y20688751D02*
X-4615870Y21488751D01*
X-4615870Y20688751D02*
X-4615870Y18888751D01*
X-12475870Y19651251D02*
X-12275870Y19651251D01*
X-12475870Y18251251D02*
X-12275870Y18251251D01*
X-13925870Y18351251D02*
X-13925870Y19551251D01*
X-15822137Y18541251D02*
X-15529603Y18541251D01*
X-15822137Y19561251D02*
X-15529603Y19561251D01*
X8746630Y33405975D02*
X8746630Y32896527D01*
X7701630Y33405975D02*
X7701630Y32896527D01*
X299130Y20201251D02*
X3449130Y20201251D01*
X299130Y18501251D02*
X3449130Y18501251D01*
X299130Y18501251D02*
X299130Y20201251D01*
X-7278370Y33405975D02*
X-7278370Y32896527D01*
X-8323370Y33405975D02*
X-8323370Y32896527D01*
D15*
X-11650870Y13651251D02*
X-11650870Y14506251D01*
X-11650870Y17651251D02*
X-11650870Y16751251D01*
X-11650870Y17651251D02*
X-13997870Y17651251D01*
X-15900870Y14884251D02*
X-15900870Y16373251D01*
X-11650870Y13651251D02*
X-13863870Y13651251D01*
X9249130Y28401251D02*
X9249130Y22901251D01*
X8418130Y28651251D02*
X7280130Y28651251D01*
X10849130Y27676251D02*
X10849130Y26401251D01*
X6349130Y27151251D02*
X6349130Y25651251D01*
X7280130Y22651251D02*
X8418130Y22651251D01*
X6349130Y22882251D02*
X6349130Y22892251D01*
X9249130Y27676251D02*
X10849130Y27676251D01*
X10849130Y26401251D02*
X9249130Y26401251D01*
M02*
