M48
; DRILL file {KiCad (5.99.0-8557-g8988e46ab1)} date Saturday, February 20, 2021 at 09:12:55 AM
; FORMAT={-:-/ absolute / inch / decimal}
; #@! TF.CreationDate,2021-02-20T09:12:55-07:00
; #@! TF.GenerationSoftware,Kicad,Pcbnew,(5.99.0-8557-g8988e46ab1)
; #@! TF.FileFunction,Plated,1,2,PTH
FMAT,2
INCH
T1C0.0118
T2C0.0130
T3C0.0236
T4C0.0394
T5C0.0472
T6C0.0591
%
G90
G05
T1
X-0.8062Y1.0297
X-0.8062Y0.9797
X1.3769Y1.0297
X1.3769Y0.9797
T2
X-4.2353Y1.0886
X-4.2235Y0.4272
X-4.2235Y-0.2421
X-4.2235Y-0.9114
X-3.5148Y1.1359
X-3.5148Y0.4666
X-3.5148Y-0.2027
X-3.5148Y-0.872
X-2.8061Y1.3327
X-2.8061Y0.6634
X-2.8061Y-0.0059
X-2.8061Y-0.6751
X-2.0975Y1.3721
X-2.0975Y0.7028
X-2.0975Y0.0335
X-2.0975Y-0.6358
X-2.0975Y-1.4232
X-1.5857Y1.3327
X-1.5463Y0.9784
X-1.4282Y0.7973
X-1.3888Y0.6634
X-1.3888Y-0.0059
X-1.3888Y-0.6751
X-1.3888Y-1.5413
X-1.2274Y1.1556
X-1.1723Y1.1792
X-1.1368Y1.3249
X-1.1368Y1.2107
X-1.1053Y1.191
X-1.0857Y1.2619
X-1.0778Y0.9823
X-1.0699Y-0.5019
X-1.0699Y-1.2854
X-1.066Y0.9469
X-1.066Y0.8918
X-1.0424Y1.0689
X-1.0424Y0.9193
X-1.0424Y0.8682
X-1.0109Y0.8524
X-1.0109Y0.7343
X-1.003Y1.4154
X-0.9833Y0.8288
X-0.9754Y1.1004
X-0.9449Y0.2107
X-0.9046Y0.8367
X-0.875Y0.8111
X-0.8494Y0.1871
X-0.8022Y0.7028
X-0.7589Y0.7579
X-0.7589Y-0.0059
X-0.7116Y1.2225
X-0.688Y0.6792
X-0.6802Y-0.7539
X-0.5857Y1.3249
X-0.5857Y1.1831
X-0.5857Y1.0886
X-0.5857Y0.9863
X-0.4833Y1.3445
X-0.4754Y0.9154
X-0.4715Y1.2225
X-0.4518Y0.8524
X-0.4046Y-1.4232
X-0.3652Y1.1516
X-0.3573Y0.9981
X-0.3573Y0.9469
X-0.3534Y1.0453
X-0.3534Y0.7973
X-0.3494Y1.0965
X-0.3416Y0.5532
X-0.3258Y1.4745
X-0.3101Y0.7028
X-0.3061Y1.2107
X-0.3061Y1.1319
X-0.2943Y0.6713
X-0.2865Y1.0493
X-0.2628Y0.9469
X-0.255Y1.4745
X-0.2471Y1.1989
X-0.1408Y0.7751
X-0.129Y1.0808
X-0.1053Y1.2461
X-0.0896Y-1.2657
X-0.0581Y0.8445
X-0.0581Y0.7658
X-0.0542Y0.565
X-0.0502Y-0.5964
X-0.0305Y1.2146
X-0.0266Y1.2461
X-0.0069Y0.5689
X0.0265Y1.2481
X0.058Y1.2166
X0.1072Y-1.0295
X0.123Y1.2422
X0.1398Y0.7028
X0.1663Y0.8878
X0.1821Y0.8327
X0.2017Y1.1752
X0.2805Y0.5611
X0.312Y1.4745
X0.5661Y0.5375
X0.5818Y1.4705
X0.5897Y0.7146
X0.6054Y-0.3681
X0.6793Y1.1536
X0.693Y0.8111
X0.696Y0.8682
X0.7235Y-1.3129
X0.7521Y0.6438
X0.7787Y1.2934
X0.8102Y0.7579
X0.821Y1.1654
X0.8289Y1.2323
X0.8417Y-0.4468
X0.8997Y1.2323
X0.8997Y0.5453
X0.9293Y0.752
X0.9598Y-0.9586
X0.9676Y1.2934
X0.9991Y0.5768
X1.1172Y1.0099
X1.1172Y0.813
X1.1655Y1.1949
X1.196Y1.4823
X1.196Y0.7161
X1.2344Y0.7126
X1.2354Y-1.4311
X1.2472Y1.3524
X1.2521Y0.8957
X1.2639Y0.5552
X1.3732Y0.8839
X1.3919Y1.2441
X1.4115Y0.8603
X1.4233Y-0.3464
X1.5046Y0.8851
X1.5424Y0.7569
X1.5582Y-0.5019
X1.5789Y0.889
X1.5936Y1.165
X1.6015Y-0.7066
X1.6576Y0.7451
X1.6674Y1.3327
X1.6684Y0.9705
X1.6684Y-0.0137
X1.6684Y-0.5255
X1.6684Y-0.683
X1.7039Y1.1752
X1.7186Y0.5158
X1.7226Y0.7481
X1.7304Y0.6182
X1.7865Y0.8524
X1.8495Y1.1398
X1.944Y0.9312
X1.944Y-1.6673
X1.9795Y1.3288
X2.007Y1.2382
X2.0228Y0.5768
X2.0306Y0.7737
X2.1015Y0.9705
X2.1802Y-0.0925
X2.2196Y1.4036
X2.2196Y-0.7618
X2.7314Y1.4036
X2.8889Y0.6556
X2.8889Y-0.0137
X2.8889Y-0.683
X2.8889Y-1.5492
X3.1645Y1.4036
X3.5976Y0.0256
X3.5976Y-0.6437
X3.5976Y-1.4704
X3.6369Y1.4036
X3.6369Y0.8524
X3.6369Y0.6949
X4.1881Y1.4036
X4.3062Y-0.0137
X4.3062Y-0.683
X4.3456Y0.6556
X4.6793Y0.752
X4.8171Y0.752
X5.0149Y0.4587
X5.0149Y-0.8799
X5.0543Y1.128
X5.0543Y-0.2106
X5.5661Y1.0886
X5.7235Y0.4193
X5.7235Y-0.25
X5.7235Y-0.9192
T3
X-0.2028Y1.3448
X-0.2028Y1.3344
X-0.2028Y1.3148
X-0.2028Y1.5004
X-0.2028Y1.4884
X-0.2028Y1.4749
X-0.2028Y1.4634
X-0.2028Y1.3244
X-0.2028Y1.5114
X0.2362Y1.3448
X0.2362Y1.3344
X0.2362Y1.3148
X0.2362Y1.5009
X0.2362Y1.4889
X0.2362Y1.4754
X0.2362Y1.4639
X0.2362Y1.3244
X0.2362Y1.5119
X0.6527Y1.3448
X0.6527Y1.3344
X0.6527Y1.3148
X0.6527Y1.5004
X0.6527Y1.4884
X0.6527Y1.4749
X0.6527Y1.4634
X0.6527Y1.3244
X0.6527Y1.5114
X1.0917Y1.3448
X1.0917Y1.3344
X1.0917Y1.3148
X1.0917Y1.5009
X1.0917Y1.4889
X1.0917Y1.4754
X1.0917Y1.4639
X1.0917Y1.3244
X1.0917Y1.5119
T4
X-1.3573Y1.5107
X-1.3573Y1.4107
X-1.3573Y1.3107
X-1.3573Y1.2107
X-0.3967Y-0.4783
X-0.3967Y-0.6751
X0.1742Y-0.4783
X0.1742Y-0.5767
X0.1742Y-0.6751
X0.7147Y-0.4783
X0.7147Y-0.5767
X0.7147Y-0.6751
X1.2856Y-0.4783
X1.2856Y-0.6751
X1.4991Y1.2823
X1.4991Y1.1823
X1.4991Y1.0823
X1.4991Y0.9823
T5
X-4.7353Y0.9508
X-4.7353Y0.2815
X-4.7353Y-0.3877
X-4.7353Y-1.057
X-4.5384Y0.8642
X-4.5384Y0.1949
X-4.5384Y-0.4744
X-4.5384Y-1.1437
X-4.0266Y0.9902
X-4.0266Y0.3209
X-4.0266Y-0.3484
X-4.0266Y-1.0177
X-3.8298Y0.9036
X-3.8298Y0.2343
X-3.8298Y-0.435
X-3.8298Y-1.1043
X-3.3179Y1.1871
X-3.3179Y0.5178
X-3.3179Y-0.1515
X-3.3179Y-0.8208
X-3.1211Y1.1004
X-3.1211Y0.4312
X-3.1211Y-0.2381
X-3.1211Y-0.9074
X-2.6093Y1.2382
X-2.6093Y0.5689
X-2.6093Y-0.1003
X-2.6093Y-0.7696
X-2.6093Y-1.6358
X-2.4124Y1.1516
X-2.4124Y0.4823
X-2.4124Y-0.187
X-2.4124Y-0.8562
X-2.4124Y-1.7224
X-1.9006Y1.1871
X-1.9006Y0.5178
X-1.9006Y-0.1515
X-1.9006Y-0.8208
X-1.8967Y-1.687
X-1.7038Y1.1004
X-1.7038Y0.4312
X-1.7038Y-0.2381
X-1.7038Y-0.9074
X-1.6998Y-1.7736
X-1.192Y1.0926
X-1.192Y0.4233
X-1.192Y-0.246
X-1.192Y-0.9153
X-0.9951Y1.006
X-0.9951Y0.3367
X-0.9951Y-0.3326
X-0.9951Y-1.0019
X-0.8014Y-1.7737
X-0.5876Y-1.7503
X1.3493Y-1.5769
X1.4765Y-1.7503
X1.6871Y1.0926
X1.6871Y0.4233
X1.6871Y-0.246
X1.6871Y-0.9153
X1.884Y1.006
X1.884Y0.3367
X1.884Y-0.3326
X1.884Y-1.0019
X2.3919Y-1.687
X2.3958Y1.1871
X2.3958Y0.5178
X2.3958Y-0.1515
X2.3958Y-0.8208
X2.5887Y-1.7736
X2.5926Y1.1004
X2.5926Y0.4312
X2.5926Y-0.2381
X2.5926Y-0.9074
X3.1045Y1.2382
X3.1045Y0.5689
X3.1045Y-0.1003
X3.1045Y-0.7696
X3.1045Y-1.6358
X3.3013Y1.1516
X3.3013Y0.4823
X3.3013Y-0.187
X3.3013Y-0.8562
X3.3013Y-1.7224
X3.8131Y1.1871
X3.8131Y0.5178
X3.8131Y-0.1515
X3.8131Y-0.8208
X4.01Y1.1004
X4.01Y0.4312
X4.01Y-0.2381
X4.01Y-0.9074
X4.5218Y0.9902
X4.5218Y0.3209
X4.5218Y-0.3484
X4.5218Y-1.0177
X4.7186Y0.9036
X4.7186Y0.2343
X4.7186Y-0.435
X4.7186Y-1.1043
X5.2304Y0.9508
X5.2304Y0.2815
X5.2304Y-0.3877
X5.2304Y-1.057
X5.4273Y0.8642
X5.4273Y0.1949
X5.4273Y-0.4744
X5.4273Y-1.1437
T6
G00X-0.0955Y-0.3562
M15
G01X-0.1467Y-0.3562
M16
G05
G00X-0.0955Y-0.7972
M15
G01X-0.1467Y-0.7972
M16
G05
G00X0.9844Y-0.3562
M15
G01X1.0356Y-0.3562
M16
G05
G00X0.9844Y-0.7972
M15
G01X1.0356Y-0.7972
M16
G05
T0
M30
