G04 #@! TF.GenerationSoftware,KiCad,Pcbnew,(5.99.0-8557-g8988e46ab1)*
G04 #@! TF.CreationDate,2021-01-24T23:32:51-07:00*
G04 #@! TF.ProjectId,Panel,50616e65-6c2e-46b6-9963-61645f706362,rev?*
G04 #@! TF.SameCoordinates,PX85099e0PY51bada0*
G04 #@! TF.FileFunction,Profile,NP*
%FSLAX46Y46*%
G04 Gerber Fmt 4.6, Leading zero omitted, Abs format (unit mm)*
G04 Created by KiCad (PCBNEW (5.99.0-8557-g8988e46ab1)) date 2021-01-24 23:32:51*
%MOMM*%
%LPD*%
G01*
G04 APERTURE LIST*
G04 #@! TA.AperFunction,Profile*
%ADD10C,0.150000*%
G04 #@! TD*
G04 APERTURE END LIST*
D10*
X89249508Y-40552764D02*
G75*
G02*
X90499508Y-41794146I8588J-1241382D01*
G01*
X-143232246Y-38052764D02*
G75*
G03*
X-140732246Y-40552764I2500000J0D01*
G01*
X9707230Y32897236D02*
X9707230Y39230000D01*
X-60860142Y-56552645D02*
G75*
G02*
X-59610143Y-57785527I0J-1250118D01*
G01*
X110102532Y29476365D02*
G75*
G03*
X110396706Y29447236I294174J1470871D01*
G01*
X-101822728Y-41279566D02*
G75*
G03*
X-103585048Y-40552764I-1762320J-1773198D01*
G01*
X-8417770Y1647236D02*
X-8400534Y-17916843D01*
X-5113143Y-47017161D02*
X-3975068Y-48067315D01*
X124685429Y-41794146D02*
X124685429Y-43026910D01*
X-96103294Y39230000D02*
X-124853294Y31730000D01*
X4885490Y-48730006D02*
G75*
G03*
X3371411Y-49954151I-262174J-1224145D01*
G01*
X65499508Y-57794145D02*
X65499508Y-59044145D01*
X128896706Y-68052764D02*
X-143232246Y-68035528D01*
X90499508Y-41794146D02*
X90499508Y-43044146D01*
X-141143243Y29413221D02*
G75*
G03*
X-143232246Y26947236I410997J-2465985D01*
G01*
X-2279695Y-48730005D02*
G75*
G02*
X-814510Y-49971387I206710J-1241382D01*
G01*
X-143232246Y-43052764D02*
X-143232246Y-68035528D01*
X-139020969Y-41802764D02*
X-139020969Y-43035528D01*
X110102532Y29476365D02*
X83007699Y36713220D01*
X120557703Y30663221D02*
G75*
G02*
X119307703Y29413221I-1250000J0D01*
G01*
X41088681Y-57794145D02*
X41088681Y-59044145D01*
X-43909221Y-61295812D02*
X-52816627Y-56819016D01*
X-70949379Y36747236D02*
X-71496321Y36730000D01*
X6135490Y-49064941D02*
X27201017Y-61227128D01*
X128896706Y-38052764D02*
G75*
G02*
X126396706Y-40552764I-2500000J0D01*
G01*
X-109020969Y-41785528D02*
X-109020969Y-43035528D01*
X-55424221Y-57802763D02*
X-55424221Y-59052763D01*
X-84020969Y-57785527D02*
X-84020969Y-59035527D01*
X-94432242Y39247236D02*
X-96103294Y39230000D01*
X82203675Y39230000D02*
X110953675Y31913221D01*
X-138643243Y31913221D02*
X-143232246Y31913221D01*
X-5917770Y29147236D02*
X-5900534Y27083157D01*
X125935429Y-40544146D02*
G75*
G03*
X124685429Y-41794146I0J-1250000D01*
G01*
X-124000123Y29591355D02*
X-97343239Y36713221D01*
X-19221030Y-48730004D02*
G75*
G02*
X-17706951Y-49962769I255180J-1232765D01*
G01*
X76792678Y37978565D02*
X76792678Y39228565D01*
X-110270969Y-40535528D02*
G75*
G02*
X-109020969Y-41785528I0J-1250000D01*
G01*
X-104835048Y-41802764D02*
X-104835048Y-43052764D01*
X-22657246Y31647236D02*
X-22657246Y25347236D01*
X124743624Y30645985D02*
X124743624Y31895985D01*
X45274602Y-59026909D02*
X65499508Y-59044145D01*
X-52816627Y-56819016D02*
G75*
G03*
X-53939292Y-56552763I-1122665J-2233751D01*
G01*
X75542678Y36728565D02*
X62994785Y36711329D01*
X-134457322Y30645985D02*
X-134457322Y31730000D01*
X-134835048Y-41802764D02*
X-134835048Y-43052764D01*
X61744785Y37961329D02*
X61744785Y39211329D01*
X-814510Y-51221387D02*
X-13521030Y-51230005D01*
X-8417770Y20397236D02*
G75*
G02*
X-5917770Y20397236I1250000J0D01*
G01*
X-71496321Y36730000D02*
G75*
G02*
X-72746321Y37980000I0J1250000D01*
G01*
X25146706Y-64294146D02*
X32646706Y-64294146D01*
X-78182242Y36747236D02*
G75*
G03*
X-76932242Y37997236I0J1250000D01*
G01*
X-133207322Y29395985D02*
G75*
G02*
X-134457322Y30645985I0J1250000D01*
G01*
X-928294Y25347236D02*
X-928294Y31647236D01*
X3371411Y-49954151D02*
X3371411Y-51204151D01*
X-138643243Y30663221D02*
G75*
G02*
X-139893243Y29413221I-1250000J0D01*
G01*
X87487188Y-41279566D02*
G75*
G02*
X89249508Y-40552764I1762320J-1773198D01*
G01*
X-140270969Y-40552764D02*
X-140732246Y-40552764D01*
X64249508Y-56544145D02*
X46524602Y-56526909D01*
X-19221030Y-48730005D02*
G75*
G03*
X-20471030Y-49064941I-1J-2500000D01*
G01*
X128896706Y31895985D02*
X128896706Y44230000D01*
X-104835048Y-43052764D02*
X-89020969Y-59035527D01*
X-138643243Y30663221D02*
X-138643243Y31913221D01*
X124743624Y31895985D02*
X128896706Y31895985D01*
X29573681Y-61295812D02*
X38481087Y-56819016D01*
X20796706Y4897236D02*
X-3703294Y4897236D01*
X-3703294Y4897236D02*
X-3703294Y-15102764D01*
X-3703294Y-15102764D02*
X20796706Y-15102764D01*
X20796706Y-15102764D02*
X20796706Y4897236D01*
X-5900534Y-17916843D02*
G75*
G02*
X-8400534Y-17916843I-1250000J0D01*
G01*
X-95682242Y36747236D02*
X-96932242Y36747236D01*
X-133585048Y-40552764D02*
G75*
G03*
X-134835048Y-41802764I0J-1250000D01*
G01*
X-76932242Y37997236D02*
X-76932242Y39247236D01*
X-13407246Y31647236D02*
X-10917770Y31647236D01*
X57554200Y37978565D02*
G75*
G02*
X56461066Y36742565I-1245336J0D01*
G01*
X-23981849Y32880000D02*
X-23981849Y39230000D01*
X45274602Y-57776909D02*
X45274602Y-59026909D01*
X-928294Y31647236D02*
X-3417770Y31647236D01*
X46524602Y-56526909D02*
G75*
G03*
X45274602Y-57776909I0J-1250000D01*
G01*
X-5917770Y29147236D02*
G75*
G02*
X-3417770Y31647236I2500000J0D01*
G01*
X69685429Y-59026909D02*
X74685429Y-59026909D01*
X-28167770Y39230000D02*
X-72746321Y39230000D01*
X57554200Y37978565D02*
X57558864Y39228565D01*
X-95682242Y36747236D02*
G75*
G03*
X-94432242Y37997236I0J1250000D01*
G01*
X-5917770Y-24602764D02*
X-5900534Y-37916843D01*
X56461066Y36742565D02*
X14966011Y31651909D01*
X-70644404Y36728565D02*
X-29301551Y31651908D01*
X126807703Y29413221D02*
G75*
G02*
X128896706Y26947236I-410997J-2465985D01*
G01*
X-814510Y-49971387D02*
X-814510Y-51221387D01*
X-103585048Y-40552764D02*
G75*
G03*
X-104835048Y-41802764I0J-1250000D01*
G01*
X-96932242Y36747236D02*
G75*
G03*
X-97343239Y36713221I0J-2500000D01*
G01*
X82596702Y36747236D02*
X82228599Y36711329D01*
X-143232246Y31913221D02*
X-143232246Y44247236D01*
X9707230Y39230000D02*
X-23981849Y39230000D01*
X-5113143Y-47017162D02*
G75*
G02*
X-5917770Y-45179851I1695373J1837311D01*
G01*
X80978599Y37961329D02*
X80978599Y39211329D01*
X-43909221Y-61295812D02*
G75*
G03*
X-41536557Y-61227128I1122664J2233747D01*
G01*
X4885490Y-48730005D02*
G75*
G02*
X6135490Y-49064941I1J-2500000D01*
G01*
X69685429Y-57776909D02*
X69685429Y-59026909D01*
X-9222397Y-47017162D02*
G75*
G03*
X-8417770Y-45179851I-1695373J1837311D01*
G01*
X-109020969Y-43035528D02*
X-134835048Y-43052764D01*
X61744785Y37961329D02*
G75*
G03*
X62994785Y36711329I1250000J0D01*
G01*
X-13521030Y-49980005D02*
X-13521030Y-51230005D01*
X-9222397Y-47017161D02*
X-10360472Y-48067315D01*
X-140270969Y-40552764D02*
G75*
G02*
X-139020969Y-41802764I0J-1250000D01*
G01*
X-39482246Y-64302764D02*
X-46982246Y-64302764D01*
X120499508Y-41794146D02*
X120499508Y-43044146D01*
X-84020969Y-59035527D02*
X-89020969Y-59035527D01*
X119249508Y-40544146D02*
X95935429Y-40526910D01*
X-59610142Y-57785527D02*
X-59610142Y-59035527D01*
X80978599Y37961329D02*
G75*
G03*
X82228599Y36711329I1250000J0D01*
G01*
X110953675Y31913221D02*
X120557703Y31913221D01*
X41088681Y-59044145D02*
X32646706Y-64294146D01*
X71088681Y-56552763D02*
G75*
G03*
X69685429Y-57776909I-167676J-1224146D01*
G01*
X-70644404Y36728564D02*
G75*
G03*
X-70949379Y36747236I-304975J-2481328D01*
G01*
X-5900534Y8333157D02*
G75*
G02*
X-8400534Y8333157I-1250000J0D01*
G01*
X-5917770Y20397236D02*
X-5900534Y8333157D01*
X-17706951Y-51212769D02*
X-39482246Y-64302764D01*
X-87186540Y-55825961D02*
X-101822728Y-41279566D01*
X-12058964Y-48748125D02*
G75*
G03*
X-13521030Y-49980005I-212066J-1231880D01*
G01*
X-35132246Y4747236D02*
X-10632246Y4747236D01*
X-10632246Y4747236D02*
X-10632246Y-15252764D01*
X-10632246Y-15252764D02*
X-35132246Y-15252764D01*
X-35132246Y-15252764D02*
X-35132246Y4747236D01*
X-55424221Y-59052763D02*
X-46982246Y-64302764D01*
X57558864Y39228565D02*
X13893151Y39230000D01*
X-78585048Y-56552763D02*
G75*
G03*
X-79835048Y-57802763I0J-1250000D01*
G01*
X8321706Y25347236D02*
X-928294Y25347236D01*
X29573681Y-61295812D02*
G75*
G02*
X27201017Y-61227128I-1122664J2233747D01*
G01*
X-8417770Y-24602764D02*
G75*
G02*
X-5917770Y-24602764I1250000J0D01*
G01*
X-8417770Y1647236D02*
G75*
G02*
X-5917770Y1647236I1250000J0D01*
G01*
X-8417770Y-44602764D02*
G75*
G02*
X-5917770Y-44602764I1250000J0D01*
G01*
X-124000123Y29591355D02*
G75*
G02*
X-124643243Y29413221I-643120J1071867D01*
G01*
X126807703Y29413221D02*
X125993624Y29395985D01*
X-53939292Y-56552764D02*
G75*
G03*
X-55424221Y-57802763I-216346J-1249999D01*
G01*
X124685429Y-43026910D02*
X128896706Y-43044146D01*
X-139893243Y29413221D02*
X-141143243Y29413221D01*
X95935429Y-40526910D02*
G75*
G03*
X94685429Y-41776910I0J-1250000D01*
G01*
X76792678Y37978565D02*
G75*
G02*
X75542678Y36728565I-1250000J0D01*
G01*
X-76932242Y39247236D02*
X-90246321Y39230000D01*
X-2279695Y-48730005D02*
G75*
G02*
X-3975068Y-48067316I0J2500000D01*
G01*
X-8400534Y27083157D02*
X-8417770Y29147236D01*
X72851000Y-55825961D02*
G75*
G02*
X71088681Y-56552763I-1762319J1773198D01*
G01*
X3371411Y-51204151D02*
X25146706Y-64294146D01*
X76792678Y39228565D02*
X61744785Y39211329D01*
X64249508Y-56544145D02*
G75*
G02*
X65499508Y-57794145I0J-1250000D01*
G01*
X-94432242Y37997236D02*
X-94432242Y39247236D01*
X-85424221Y-56552763D02*
G75*
G02*
X-84020969Y-57785527I160131J-1232764D01*
G01*
X-8400534Y-37916843D02*
X-8417770Y-24602764D01*
X-72746321Y37980000D02*
X-72746321Y39230000D01*
X13893151Y32880000D02*
X13893151Y39230000D01*
X-5917770Y-45179851D02*
X-5917770Y-44602764D01*
X-8417770Y29147236D02*
G75*
G03*
X-10917770Y31647236I-2500000J0D01*
G01*
X-143232246Y-38052764D02*
X-143232246Y26947236D01*
X94685429Y-43026910D02*
X120499508Y-43044146D01*
X82596702Y36747236D02*
G75*
G02*
X83007699Y36713221I0J-2500000D01*
G01*
X-79835048Y-57802763D02*
X-79835048Y-59052763D01*
X-28167031Y32897236D02*
G75*
G02*
X-29301551Y31651908I-1250739J0D01*
G01*
X-17706951Y-49962769D02*
X-17706951Y-51212769D01*
X-110270969Y-40535528D02*
X-133585048Y-40552764D01*
X39838681Y-56544145D02*
X39603752Y-56552763D01*
X-12055845Y-48730005D02*
G75*
G03*
X-10360472Y-48067316I0J2500000D01*
G01*
X72851000Y-55825961D02*
X87487188Y-41279566D01*
X-143232246Y44247236D02*
X128896706Y44230000D01*
X-13407246Y25347236D02*
X-13407246Y31647236D01*
X94685429Y-41776910D02*
X94685429Y-43026910D01*
X-133207322Y29395985D02*
X-124643243Y29413221D01*
X119307703Y29413221D02*
X110396706Y29447236D01*
X90499508Y-43044146D02*
X74685429Y-59026909D01*
X8321706Y31647236D02*
X8321706Y25347236D01*
X-78182242Y36747236D02*
X-88996321Y36730000D01*
X39838681Y-56544145D02*
G75*
G02*
X41088681Y-57794145I0J-1250000D01*
G01*
X38481087Y-56819017D02*
G75*
G02*
X39603752Y-56552763I1122665J-2233747D01*
G01*
X124743624Y30645985D02*
G75*
G03*
X125993624Y29395985I1250000J0D01*
G01*
X-139020969Y-43035528D02*
X-143232246Y-43052764D01*
X119249508Y-40544146D02*
G75*
G02*
X120499508Y-41794146I0J-1250000D01*
G01*
X120557703Y30663221D02*
X120557703Y31913221D01*
X128896706Y-43044146D02*
X128896706Y-68052764D01*
X-59610142Y-59035527D02*
X-79835048Y-59052763D01*
X-90246321Y37980000D02*
G75*
G03*
X-88996321Y36730000I1250000J0D01*
G01*
X-8417770Y-45179851D02*
X-8417770Y-44602764D01*
X-87186540Y-55825961D02*
G75*
G03*
X-85424221Y-56552763I1762319J1773198D01*
G01*
X-5900534Y27083157D02*
G75*
G02*
X-8400534Y27083157I-1250000J0D01*
G01*
X-60860142Y-56552645D02*
X-78585048Y-56552763D01*
X-22657246Y25347236D02*
X-13407246Y25347236D01*
X80978599Y39211329D02*
X82203675Y39230000D01*
X-20471030Y-49064941D02*
X-41536557Y-61227128D01*
X-5900534Y-17916843D02*
X-5917770Y1647236D01*
X-23966868Y32880000D02*
G75*
G03*
X-22657246Y31647236I1235019J0D01*
G01*
X-124853294Y31730000D02*
X-134457322Y31730000D01*
X-28167770Y32897236D02*
X-28167770Y39230000D01*
X126396706Y-40552764D02*
X125935429Y-40544146D01*
X-8400534Y8333157D02*
X-8417770Y20397236D01*
X13902350Y32880000D02*
G75*
G03*
X14966011Y31651909I1240801J0D01*
G01*
X128896706Y-38052764D02*
X128896706Y26947236D01*
X9707229Y32897236D02*
G75*
G02*
X8321706Y31647236I-1256628J0D01*
G01*
X-5900534Y-37916843D02*
G75*
G02*
X-8400534Y-37916843I-1250000J0D01*
G01*
X-90246321Y37980000D02*
X-90246321Y39230000D01*
M02*
