G04 #@! TF.GenerationSoftware,KiCad,Pcbnew,(5.99.0-8557-g8988e46ab1)*
G04 #@! TF.CreationDate,2021-01-24T23:32:50-07:00*
G04 #@! TF.ProjectId,Panel,50616e65-6c2e-46b6-9963-61645f706362,rev?*
G04 #@! TF.SameCoordinates,PX85099e0PY51bada0*
G04 #@! TF.FileFunction,Legend,Top*
G04 #@! TF.FilePolarity,Positive*
%FSLAX46Y46*%
G04 Gerber Fmt 4.6, Leading zero omitted, Abs format (unit mm)*
G04 Created by KiCad (PCBNEW (5.99.0-8557-g8988e46ab1)) date 2021-01-24 23:32:50*
%MOMM*%
%LPD*%
G01*
G04 APERTURE LIST*
%ADD10C,0.200000*%
%ADD11C,0.150000*%
%ADD12C,0.120000*%
G04 APERTURE END LIST*
D10*
X-115250141Y30600879D02*
X-115084795Y30590954D01*
X-115020642Y30553915D01*
X-114942932Y30466280D01*
X-114902260Y30314492D01*
X-114925742Y30199743D01*
X-114962781Y30135589D01*
X-115050416Y30057879D01*
X-115455185Y29949421D01*
X-115739886Y31011940D01*
X-115385713Y31106840D01*
X-115270963Y31083358D01*
X-115206810Y31046319D01*
X-115129100Y30958684D01*
X-115101985Y30857492D01*
X-115125467Y30742743D01*
X-115162506Y30678589D01*
X-115250141Y30600879D01*
X-115604314Y30505979D01*
X-114240878Y30274794D02*
X-114355627Y30298276D01*
X-114433338Y30385911D01*
X-114677367Y31296641D01*
X-113570545Y31213612D02*
X-113380744Y30505266D01*
X-114025910Y31091597D02*
X-113876781Y30535040D01*
X-113799070Y30447405D01*
X-113684321Y30423923D01*
X-113532532Y30464594D01*
X-113444897Y30542305D01*
X-113407858Y30606458D01*
X-112483571Y30799892D02*
X-112571206Y30722181D01*
X-112773591Y30667952D01*
X-112888340Y30691434D01*
X-112966051Y30779069D01*
X-113074508Y31183838D01*
X-113051026Y31298587D01*
X-112963391Y31376298D01*
X-112761007Y31430527D01*
X-112646257Y31407045D01*
X-112568547Y31319410D01*
X-112541433Y31218218D01*
X-113020279Y30981454D01*
X-112028206Y30921906D02*
X-111862861Y30911982D01*
X-111609880Y30979768D01*
X-111522245Y31057478D01*
X-111485206Y31121631D01*
X-111461724Y31236381D01*
X-111488839Y31337573D01*
X-111566549Y31425208D01*
X-111630702Y31462247D01*
X-111745452Y31485729D01*
X-111961394Y31482096D01*
X-112076143Y31505578D01*
X-112140296Y31542617D01*
X-112218007Y31630252D01*
X-112245121Y31731444D01*
X-112221639Y31846193D01*
X-112184600Y31910347D01*
X-112096965Y31988057D01*
X-111843985Y32055843D01*
X-111678639Y32045919D01*
X-110800342Y31196683D02*
X-110915092Y31220164D01*
X-110979245Y31257203D01*
X-111056955Y31344838D01*
X-111138299Y31648415D01*
X-111114817Y31763164D01*
X-111077778Y31827318D01*
X-110990143Y31905028D01*
X-110838354Y31945700D01*
X-110723605Y31922218D01*
X-110659452Y31885179D01*
X-110581741Y31797544D01*
X-110500398Y31493967D01*
X-110523880Y31379218D01*
X-110560919Y31315065D01*
X-110648554Y31237354D01*
X-110800342Y31196683D01*
X-110332393Y32081272D02*
X-109927624Y32189729D01*
X-109990804Y31413598D02*
X-110234834Y32324328D01*
X-110211352Y32439077D01*
X-110123717Y32516788D01*
X-110022525Y32543902D01*
X-109010602Y32815046D02*
X-108371729Y31847428D01*
X-108302257Y33004846D01*
X-107971566Y32984997D02*
X-107934527Y33049151D01*
X-107846892Y33126861D01*
X-107593911Y33194647D01*
X-107479162Y33171165D01*
X-107415008Y33134126D01*
X-107337298Y33046491D01*
X-107310184Y32945299D01*
X-107320108Y32779954D01*
X-107764575Y32010114D01*
X-107106826Y32186357D01*
X-105841923Y32525287D02*
X-106126624Y33587805D01*
X-106018166Y33183037D02*
X-105930531Y33260747D01*
X-105728147Y33314976D01*
X-105613397Y33291494D01*
X-105549244Y33254455D01*
X-105471534Y33166820D01*
X-105390191Y32863243D01*
X-105413672Y32748494D01*
X-105450711Y32684341D01*
X-105538346Y32606630D01*
X-105740731Y32552401D01*
X-105855480Y32575883D01*
X-105171590Y33464105D02*
X-104728808Y32823545D01*
X-104665628Y33599677D02*
X-104728808Y32823545D01*
X-104762215Y32543450D01*
X-104799254Y32479297D01*
X-104886889Y32401586D01*
X-103410650Y33773261D02*
X-103056477Y33868161D01*
X-102755560Y33352276D02*
X-103261521Y33216704D01*
X-103546222Y34279222D01*
X-103040261Y34414794D01*
X-101693042Y33636976D02*
X-102182786Y34048037D01*
X-102300195Y33474290D02*
X-102584896Y34536809D01*
X-102180127Y34645266D01*
X-102065378Y34621784D01*
X-102001224Y34584745D01*
X-101923514Y34497110D01*
X-101882842Y34345322D01*
X-101906324Y34230573D01*
X-101943363Y34166419D01*
X-102030998Y34088709D01*
X-102435767Y33980251D01*
X-100731715Y33894563D02*
X-101237676Y33758991D01*
X-101522377Y34821510D01*
X88085374Y33880465D02*
X88223605Y33789198D01*
X88260644Y33725044D01*
X88284125Y33610295D01*
X88243454Y33458507D01*
X88165743Y33370872D01*
X88101590Y33333833D01*
X87986841Y33310351D01*
X87582072Y33418808D01*
X87866773Y34481327D01*
X88220945Y34386427D01*
X88308580Y34308716D01*
X88345619Y34244563D01*
X88369101Y34129813D01*
X88341987Y34028621D01*
X88264276Y33940986D01*
X88200123Y33903947D01*
X88085374Y33880465D01*
X87731201Y33975366D01*
X88796378Y33093436D02*
X88708743Y33171146D01*
X88685262Y33285896D01*
X88929291Y34196626D01*
X89846313Y33571309D02*
X89656512Y32862964D01*
X89390948Y33693324D02*
X89241819Y33136767D01*
X89265301Y33022017D01*
X89352936Y32944307D01*
X89504724Y32903635D01*
X89619473Y32927117D01*
X89683627Y32964156D01*
X90580800Y32669531D02*
X90466050Y32646049D01*
X90263666Y32700278D01*
X90176031Y32777988D01*
X90152549Y32892737D01*
X90261006Y33297506D01*
X90338717Y33385141D01*
X90453466Y33408623D01*
X90655851Y33354394D01*
X90743486Y33276684D01*
X90766968Y33161934D01*
X90739853Y33060742D01*
X90206778Y33095122D01*
X91036165Y32547516D02*
X91174396Y32456248D01*
X91427376Y32388462D01*
X91542126Y32411944D01*
X91606279Y32448983D01*
X91683990Y32536618D01*
X91711104Y32637810D01*
X91687622Y32752560D01*
X91650583Y32816713D01*
X91562948Y32894423D01*
X91374121Y32999248D01*
X91286486Y33076959D01*
X91249447Y33141112D01*
X91225965Y33255861D01*
X91253080Y33357054D01*
X91330790Y33444689D01*
X91394943Y33481728D01*
X91509693Y33505209D01*
X91762673Y33437423D01*
X91900905Y33346156D01*
X92236914Y32171547D02*
X92149279Y32249258D01*
X92112240Y32313411D01*
X92088759Y32428160D01*
X92170102Y32731737D01*
X92247812Y32819372D01*
X92311965Y32856411D01*
X92426715Y32879893D01*
X92578503Y32839221D01*
X92666138Y32761511D01*
X92703177Y32697357D01*
X92726659Y32582608D01*
X92645316Y32279031D01*
X92567605Y32191396D01*
X92503452Y32154357D01*
X92388703Y32130876D01*
X92236914Y32171547D01*
X93084464Y32703649D02*
X93489233Y32595192D01*
X93046452Y31954632D02*
X93290481Y32865362D01*
X93368192Y32952997D01*
X93482941Y32976479D01*
X93584134Y32949365D01*
X94596056Y32678221D02*
X94665528Y31520802D01*
X95304402Y32488420D01*
X95580864Y32305885D02*
X95645017Y32342924D01*
X95759767Y32366406D01*
X96012747Y32298620D01*
X96100382Y32220909D01*
X96137421Y32156756D01*
X96160903Y32042006D01*
X96133788Y31940814D01*
X96042521Y31802583D01*
X95272681Y31358116D01*
X95930431Y31181872D01*
X97195333Y30842943D02*
X97480034Y31905461D01*
X97371577Y31500692D02*
X97486326Y31524174D01*
X97688711Y31469945D01*
X97776346Y31392235D01*
X97813385Y31328081D01*
X97836867Y31213332D01*
X97755523Y30909755D01*
X97677813Y30822120D01*
X97613660Y30785081D01*
X97498910Y30761600D01*
X97296526Y30815828D01*
X97208891Y30893539D01*
X98245268Y31320816D02*
X98308448Y30544685D01*
X98751229Y31185244D02*
X98308448Y30544685D01*
X98139470Y30318818D01*
X98075317Y30281779D01*
X97960567Y30258298D01*
X99924864Y30708083D02*
X100279037Y30613183D01*
X100281696Y30015954D02*
X99775735Y30151526D01*
X100060436Y31214045D01*
X100566397Y31078473D01*
X101344215Y29731253D02*
X101125614Y30332115D01*
X100737062Y29893940D02*
X101021762Y30956458D01*
X101426531Y30848000D01*
X101514166Y30770290D01*
X101551205Y30706137D01*
X101574687Y30591387D01*
X101534016Y30439599D01*
X101456305Y30351964D01*
X101392152Y30314925D01*
X101277402Y30291443D01*
X100872633Y30399901D01*
X102305541Y29473667D02*
X101799580Y29609239D01*
X102084281Y30671757D01*
D11*
X-78765576Y33794856D02*
X-79098909Y34271046D01*
X-79337004Y33794856D02*
X-79337004Y34794856D01*
X-78956052Y34794856D01*
X-78860814Y34747236D01*
X-78813195Y34699617D01*
X-78765576Y34604379D01*
X-78765576Y34461522D01*
X-78813195Y34366284D01*
X-78860814Y34318665D01*
X-78956052Y34271046D01*
X-79337004Y34271046D01*
X-78337004Y34318665D02*
X-78003671Y34318665D01*
X-77860814Y33794856D02*
X-78337004Y33794856D01*
X-78337004Y34794856D01*
X-77860814Y34794856D01*
X-77098909Y34318665D02*
X-77432242Y34318665D01*
X-77432242Y33794856D02*
X-77432242Y34794856D01*
X-76956052Y34794856D01*
X-76432242Y34794856D02*
X-76432242Y34556760D01*
X-76670338Y34651998D02*
X-76432242Y34556760D01*
X-76194147Y34651998D01*
X-76575100Y34366284D02*
X-76432242Y34556760D01*
X-76289385Y34366284D01*
X-75670338Y34794856D02*
X-75670338Y34556760D01*
X-75908433Y34651998D02*
X-75670338Y34556760D01*
X-75432242Y34651998D01*
X-75813195Y34366284D02*
X-75670338Y34556760D01*
X-75527481Y34366284D01*
X-54600485Y27066284D02*
X-54552866Y27209141D01*
X-54552866Y27447236D01*
X-54600485Y27542475D01*
X-54648104Y27590094D01*
X-54743342Y27637713D01*
X-54838580Y27637713D01*
X-54933818Y27590094D01*
X-54981437Y27542475D01*
X-55029056Y27447236D01*
X-55076675Y27256760D01*
X-55124294Y27161522D01*
X-55171913Y27113903D01*
X-55267151Y27066284D01*
X-55362389Y27066284D01*
X-55457627Y27113903D01*
X-55505246Y27161522D01*
X-55552866Y27256760D01*
X-55552866Y27494856D01*
X-55505246Y27637713D01*
X-55552866Y27971046D02*
X-54552866Y28209141D01*
X-55267151Y28399617D01*
X-54552866Y28590094D01*
X-55552866Y28828189D01*
X-54552866Y29209141D02*
X-55552866Y29209141D01*
X-55552866Y29447236D01*
X-55505246Y29590094D01*
X-55410008Y29685332D01*
X-55314770Y29732951D01*
X-55124294Y29780570D01*
X-54981437Y29780570D01*
X-54790961Y29732951D01*
X-54695723Y29685332D01*
X-54600485Y29590094D01*
X-54552866Y29447236D01*
X-54552866Y29209141D01*
X-55600485Y30923427D02*
X-54314770Y30066284D01*
X-54648104Y31828189D02*
X-54600485Y31780570D01*
X-54552866Y31637713D01*
X-54552866Y31542475D01*
X-54600485Y31399617D01*
X-54695723Y31304379D01*
X-54790961Y31256760D01*
X-54981437Y31209141D01*
X-55124294Y31209141D01*
X-55314770Y31256760D01*
X-55410008Y31304379D01*
X-55505246Y31399617D01*
X-55552866Y31542475D01*
X-55552866Y31637713D01*
X-55505246Y31780570D01*
X-55457627Y31828189D01*
X-2965390Y-45186097D02*
X-3441580Y-45519430D01*
X-2965390Y-45757525D02*
X-3965390Y-45757525D01*
X-3965390Y-45376573D01*
X-3917770Y-45281335D01*
X-3870151Y-45233716D01*
X-3774913Y-45186097D01*
X-3632056Y-45186097D01*
X-3536818Y-45233716D01*
X-3489199Y-45281335D01*
X-3441580Y-45376573D01*
X-3441580Y-45757525D01*
X-3489199Y-44757525D02*
X-3489199Y-44424192D01*
X-2965390Y-44281335D02*
X-2965390Y-44757525D01*
X-3965390Y-44757525D01*
X-3965390Y-44281335D01*
X-3489199Y-43519430D02*
X-3489199Y-43852764D01*
X-2965390Y-43852764D02*
X-3965390Y-43852764D01*
X-3965390Y-43376573D01*
X-3965390Y-42852764D02*
X-3727294Y-42852764D01*
X-3822532Y-43090859D02*
X-3727294Y-42852764D01*
X-3822532Y-42614668D01*
X-3536818Y-42995621D02*
X-3727294Y-42852764D01*
X-3536818Y-42709906D01*
X-3965390Y-42090859D02*
X-3727294Y-42090859D01*
X-3822532Y-42328954D02*
X-3727294Y-42090859D01*
X-3822532Y-41852764D01*
X-3536818Y-42233716D02*
X-3727294Y-42090859D01*
X-3536818Y-41948002D01*
X-5317580Y28744856D02*
X-5317580Y29744856D01*
X-5079485Y29744856D01*
X-4936628Y29697236D01*
X-4841390Y29601998D01*
X-4793771Y29506760D01*
X-4746152Y29316284D01*
X-4746152Y29173427D01*
X-4793771Y28982951D01*
X-4841390Y28887713D01*
X-4936628Y28792475D01*
X-5079485Y28744856D01*
X-5317580Y28744856D01*
X-4412818Y29744856D02*
X-3793771Y29744856D01*
X-4127104Y29363903D01*
X-3984247Y29363903D01*
X-3889009Y29316284D01*
X-3841390Y29268665D01*
X-3793771Y29173427D01*
X-3793771Y28935332D01*
X-3841390Y28840094D01*
X-3889009Y28792475D01*
X-3984247Y28744856D01*
X-4269961Y28744856D01*
X-4365199Y28792475D01*
X-4412818Y28840094D01*
X-3412818Y29649617D02*
X-3365199Y29697236D01*
X-3269961Y29744856D01*
X-3031866Y29744856D01*
X-2936628Y29697236D01*
X-2889009Y29649617D01*
X-2841390Y29554379D01*
X-2841390Y29459141D01*
X-2889009Y29316284D01*
X-3460437Y28744856D01*
X-2841390Y28744856D01*
X74959344Y33776185D02*
X74626011Y34252375D01*
X74387916Y33776185D02*
X74387916Y34776185D01*
X74768868Y34776185D01*
X74864106Y34728565D01*
X74911725Y34680946D01*
X74959344Y34585708D01*
X74959344Y34442851D01*
X74911725Y34347613D01*
X74864106Y34299994D01*
X74768868Y34252375D01*
X74387916Y34252375D01*
X75387916Y34299994D02*
X75721249Y34299994D01*
X75864106Y33776185D02*
X75387916Y33776185D01*
X75387916Y34776185D01*
X75864106Y34776185D01*
X76626011Y34299994D02*
X76292678Y34299994D01*
X76292678Y33776185D02*
X76292678Y34776185D01*
X76768868Y34776185D01*
X77292678Y34776185D02*
X77292678Y34538089D01*
X77054582Y34633327D02*
X77292678Y34538089D01*
X77530773Y34633327D01*
X77149820Y34347613D02*
X77292678Y34538089D01*
X77435535Y34347613D01*
X78054582Y34776185D02*
X78054582Y34538089D01*
X77816487Y34633327D02*
X78054582Y34538089D01*
X78292678Y34633327D01*
X77911725Y34347613D02*
X78054582Y34538089D01*
X78197439Y34347613D01*
X37634801Y-12930144D02*
X37634801Y-11930144D01*
X37634801Y-12406335D02*
X38206229Y-12406335D01*
X38206229Y-12930144D02*
X38206229Y-11930144D01*
X39206229Y-12930144D02*
X38634801Y-12930144D01*
X38920515Y-12930144D02*
X38920515Y-11930144D01*
X38825277Y-12073002D01*
X38730039Y-12168240D01*
X38634801Y-12215859D01*
X-27819532Y28794856D02*
X-27819532Y29794856D01*
X-27581437Y29794856D01*
X-27438580Y29747236D01*
X-27343342Y29651998D01*
X-27295723Y29556760D01*
X-27248104Y29366284D01*
X-27248104Y29223427D01*
X-27295723Y29032951D01*
X-27343342Y28937713D01*
X-27438580Y28842475D01*
X-27581437Y28794856D01*
X-27819532Y28794856D01*
X-26914770Y29794856D02*
X-26295723Y29794856D01*
X-26629056Y29413903D01*
X-26486199Y29413903D01*
X-26390961Y29366284D01*
X-26343342Y29318665D01*
X-26295723Y29223427D01*
X-26295723Y28985332D01*
X-26343342Y28890094D01*
X-26390961Y28842475D01*
X-26486199Y28794856D01*
X-26771913Y28794856D01*
X-26867151Y28842475D01*
X-26914770Y28890094D01*
X-25343342Y28794856D02*
X-25914770Y28794856D01*
X-25629056Y28794856D02*
X-25629056Y29794856D01*
X-25724294Y29651998D01*
X-25819532Y29556760D01*
X-25914770Y29509141D01*
X-103001715Y-37600383D02*
X-102668382Y-38076573D01*
X-102430287Y-37600383D02*
X-102430287Y-38600383D01*
X-102811239Y-38600383D01*
X-102906477Y-38552764D01*
X-102954096Y-38505144D01*
X-103001715Y-38409906D01*
X-103001715Y-38267049D01*
X-102954096Y-38171811D01*
X-102906477Y-38124192D01*
X-102811239Y-38076573D01*
X-102430287Y-38076573D01*
X-103430287Y-38124192D02*
X-103763620Y-38124192D01*
X-103906477Y-37600383D02*
X-103430287Y-37600383D01*
X-103430287Y-38600383D01*
X-103906477Y-38600383D01*
X-104668382Y-38124192D02*
X-104335048Y-38124192D01*
X-104335048Y-37600383D02*
X-104335048Y-38600383D01*
X-104811239Y-38600383D01*
X-105335048Y-38600383D02*
X-105335048Y-38362287D01*
X-105096953Y-38457525D02*
X-105335048Y-38362287D01*
X-105573144Y-38457525D01*
X-105192191Y-38171811D02*
X-105335048Y-38362287D01*
X-105477906Y-38171811D01*
X-106096953Y-38600383D02*
X-106096953Y-38362287D01*
X-105858858Y-38457525D02*
X-106096953Y-38362287D01*
X-106335048Y-38457525D01*
X-105954096Y-38171811D02*
X-106096953Y-38362287D01*
X-106239810Y-38171811D01*
X17859801Y-28605144D02*
X17859801Y-27605144D01*
X17859801Y-28081335D02*
X18431229Y-28081335D01*
X18431229Y-28605144D02*
X18431229Y-27605144D01*
X18859801Y-27700383D02*
X18907420Y-27652764D01*
X19002658Y-27605144D01*
X19240753Y-27605144D01*
X19335991Y-27652764D01*
X19383610Y-27700383D01*
X19431229Y-27795621D01*
X19431229Y-27890859D01*
X19383610Y-28033716D01*
X18812182Y-28605144D01*
X19431229Y-28605144D01*
X7873896Y28694856D02*
X7540563Y29171046D01*
X7302468Y28694856D02*
X7302468Y29694856D01*
X7683420Y29694856D01*
X7778658Y29647236D01*
X7826277Y29599617D01*
X7873896Y29504379D01*
X7873896Y29361522D01*
X7826277Y29266284D01*
X7778658Y29218665D01*
X7683420Y29171046D01*
X7302468Y29171046D01*
X8302468Y29218665D02*
X8635801Y29218665D01*
X8778658Y28694856D02*
X8302468Y28694856D01*
X8302468Y29694856D01*
X8778658Y29694856D01*
X9540563Y29218665D02*
X9207230Y29218665D01*
X9207230Y28694856D02*
X9207230Y29694856D01*
X9683420Y29694856D01*
X10207230Y29694856D02*
X10207230Y29456760D01*
X9969134Y29551998D02*
X10207230Y29456760D01*
X10445325Y29551998D01*
X10064372Y29266284D02*
X10207230Y29456760D01*
X10350087Y29266284D01*
X10969134Y29694856D02*
X10969134Y29456760D01*
X10731039Y29551998D02*
X10969134Y29456760D01*
X11207230Y29551998D01*
X10826277Y29266284D02*
X10969134Y29456760D01*
X11111991Y29266284D01*
X109634801Y-17230144D02*
X109634801Y-16230144D01*
X109634801Y-16706335D02*
X110206229Y-16706335D01*
X110206229Y-17230144D02*
X110206229Y-16230144D01*
X110587182Y-16230144D02*
X111206229Y-16230144D01*
X110872896Y-16611097D01*
X111015753Y-16611097D01*
X111110991Y-16658716D01*
X111158610Y-16706335D01*
X111206229Y-16801573D01*
X111206229Y-17039668D01*
X111158610Y-17134906D01*
X111110991Y-17182525D01*
X111015753Y-17230144D01*
X110730039Y-17230144D01*
X110634801Y-17182525D01*
X110587182Y-17134906D01*
X-11687697Y-45777624D02*
X-11354364Y-46253814D01*
X-11116269Y-45777624D02*
X-11116269Y-46777624D01*
X-11497221Y-46777624D01*
X-11592459Y-46730005D01*
X-11640078Y-46682385D01*
X-11687697Y-46587147D01*
X-11687697Y-46444290D01*
X-11640078Y-46349052D01*
X-11592459Y-46301433D01*
X-11497221Y-46253814D01*
X-11116269Y-46253814D01*
X-12116269Y-46301433D02*
X-12449602Y-46301433D01*
X-12592459Y-45777624D02*
X-12116269Y-45777624D01*
X-12116269Y-46777624D01*
X-12592459Y-46777624D01*
X-13354364Y-46301433D02*
X-13021030Y-46301433D01*
X-13021030Y-45777624D02*
X-13021030Y-46777624D01*
X-13497221Y-46777624D01*
X-14021030Y-46777624D02*
X-14021030Y-46539528D01*
X-13782935Y-46634766D02*
X-14021030Y-46539528D01*
X-14259126Y-46634766D01*
X-13878173Y-46349052D02*
X-14021030Y-46539528D01*
X-14163888Y-46349052D01*
X-14782935Y-46777624D02*
X-14782935Y-46539528D01*
X-14544840Y-46634766D02*
X-14782935Y-46539528D01*
X-15021030Y-46634766D01*
X-14640078Y-46349052D02*
X-14782935Y-46539528D01*
X-14925792Y-46349052D01*
X-96265576Y33794856D02*
X-96598909Y34271046D01*
X-96837004Y33794856D02*
X-96837004Y34794856D01*
X-96456052Y34794856D01*
X-96360814Y34747236D01*
X-96313195Y34699617D01*
X-96265576Y34604379D01*
X-96265576Y34461522D01*
X-96313195Y34366284D01*
X-96360814Y34318665D01*
X-96456052Y34271046D01*
X-96837004Y34271046D01*
X-95837004Y34318665D02*
X-95503671Y34318665D01*
X-95360814Y33794856D02*
X-95837004Y33794856D01*
X-95837004Y34794856D01*
X-95360814Y34794856D01*
X-94598909Y34318665D02*
X-94932242Y34318665D01*
X-94932242Y33794856D02*
X-94932242Y34794856D01*
X-94456052Y34794856D01*
X-93932242Y34794856D02*
X-93932242Y34556760D01*
X-94170338Y34651998D02*
X-93932242Y34556760D01*
X-93694147Y34651998D01*
X-94075100Y34366284D02*
X-93932242Y34556760D01*
X-93789385Y34366284D01*
X-93170338Y34794856D02*
X-93170338Y34556760D01*
X-93408433Y34651998D02*
X-93170338Y34556760D01*
X-92932242Y34651998D01*
X-93313195Y34366284D02*
X-93170338Y34556760D01*
X-93027481Y34366284D01*
X55725530Y33776185D02*
X55392197Y34252375D01*
X55154102Y33776185D02*
X55154102Y34776185D01*
X55535054Y34776185D01*
X55630292Y34728565D01*
X55677911Y34680946D01*
X55725530Y34585708D01*
X55725530Y34442851D01*
X55677911Y34347613D01*
X55630292Y34299994D01*
X55535054Y34252375D01*
X55154102Y34252375D01*
X56154102Y34299994D02*
X56487435Y34299994D01*
X56630292Y33776185D02*
X56154102Y33776185D01*
X56154102Y34776185D01*
X56630292Y34776185D01*
X57392197Y34299994D02*
X57058864Y34299994D01*
X57058864Y33776185D02*
X57058864Y34776185D01*
X57535054Y34776185D01*
X58058864Y34776185D02*
X58058864Y34538089D01*
X57820768Y34633327D02*
X58058864Y34538089D01*
X58296959Y34633327D01*
X57916006Y34347613D02*
X58058864Y34538089D01*
X58201721Y34347613D01*
X58820768Y34776185D02*
X58820768Y34538089D01*
X58582673Y34633327D02*
X58820768Y34538089D01*
X59058864Y34633327D01*
X58677911Y34347613D02*
X58820768Y34538089D01*
X58963625Y34347613D01*
X-19814770Y-27557525D02*
X-19671913Y-27605144D01*
X-19433818Y-27605144D01*
X-19338580Y-27557525D01*
X-19290961Y-27509906D01*
X-19243342Y-27414668D01*
X-19243342Y-27319430D01*
X-19290961Y-27224192D01*
X-19338580Y-27176573D01*
X-19433818Y-27128954D01*
X-19624294Y-27081335D01*
X-19719532Y-27033716D01*
X-19767151Y-26986097D01*
X-19814770Y-26890859D01*
X-19814770Y-26795621D01*
X-19767151Y-26700383D01*
X-19719532Y-26652764D01*
X-19624294Y-26605144D01*
X-19386199Y-26605144D01*
X-19243342Y-26652764D01*
X-18910008Y-26605144D02*
X-18671913Y-27605144D01*
X-18481437Y-26890859D01*
X-18290961Y-27605144D01*
X-18052866Y-26605144D01*
X-17719532Y-26700383D02*
X-17671913Y-26652764D01*
X-17576675Y-26605144D01*
X-17338580Y-26605144D01*
X-17243342Y-26652764D01*
X-17195723Y-26700383D01*
X-17148104Y-26795621D01*
X-17148104Y-26890859D01*
X-17195723Y-27033716D01*
X-17767151Y-27605144D01*
X-17148104Y-27605144D01*
X-16243342Y-26605144D02*
X-16719532Y-26605144D01*
X-16767151Y-27081335D01*
X-16719532Y-27033716D01*
X-16624294Y-26986097D01*
X-16386199Y-26986097D01*
X-16290961Y-27033716D01*
X-16243342Y-27081335D01*
X-16195723Y-27176573D01*
X-16195723Y-27414668D01*
X-16243342Y-27509906D01*
X-16290961Y-27557525D01*
X-16386199Y-27605144D01*
X-16624294Y-27605144D01*
X-16719532Y-27557525D01*
X-16767151Y-27509906D01*
X11082420Y28844856D02*
X11082420Y29844856D01*
X11320515Y29844856D01*
X11463372Y29797236D01*
X11558610Y29701998D01*
X11606229Y29606760D01*
X11653848Y29416284D01*
X11653848Y29273427D01*
X11606229Y29082951D01*
X11558610Y28987713D01*
X11463372Y28892475D01*
X11320515Y28844856D01*
X11082420Y28844856D01*
X11987182Y29844856D02*
X12606229Y29844856D01*
X12272896Y29463903D01*
X12415753Y29463903D01*
X12510991Y29416284D01*
X12558610Y29368665D01*
X12606229Y29273427D01*
X12606229Y29035332D01*
X12558610Y28940094D01*
X12510991Y28892475D01*
X12415753Y28844856D01*
X12130039Y28844856D01*
X12034801Y28892475D01*
X11987182Y28940094D01*
X13558610Y28844856D02*
X12987182Y28844856D01*
X13272896Y28844856D02*
X13272896Y29844856D01*
X13177658Y29701998D01*
X13082420Y29606760D01*
X12987182Y29559141D01*
X37534801Y21069856D02*
X37534801Y22069856D01*
X37534801Y21593665D02*
X38106229Y21593665D01*
X38106229Y21069856D02*
X38106229Y22069856D01*
X39058610Y22069856D02*
X38582420Y22069856D01*
X38534801Y21593665D01*
X38582420Y21641284D01*
X38677658Y21688903D01*
X38915753Y21688903D01*
X39010991Y21641284D01*
X39058610Y21593665D01*
X39106229Y21498427D01*
X39106229Y21260332D01*
X39058610Y21165094D01*
X39010991Y21117475D01*
X38915753Y21069856D01*
X38677658Y21069856D01*
X38582420Y21117475D01*
X38534801Y21165094D01*
X118724369Y26460841D02*
X118391036Y26937031D01*
X118152941Y26460841D02*
X118152941Y27460841D01*
X118533893Y27460841D01*
X118629131Y27413221D01*
X118676750Y27365602D01*
X118724369Y27270364D01*
X118724369Y27127507D01*
X118676750Y27032269D01*
X118629131Y26984650D01*
X118533893Y26937031D01*
X118152941Y26937031D01*
X119152941Y26984650D02*
X119486274Y26984650D01*
X119629131Y26460841D02*
X119152941Y26460841D01*
X119152941Y27460841D01*
X119629131Y27460841D01*
X120391036Y26984650D02*
X120057703Y26984650D01*
X120057703Y26460841D02*
X120057703Y27460841D01*
X120533893Y27460841D01*
X121057703Y27460841D02*
X121057703Y27222745D01*
X120819607Y27317983D02*
X121057703Y27222745D01*
X121295798Y27317983D01*
X120914845Y27032269D02*
X121057703Y27222745D01*
X121200560Y27032269D01*
X121819607Y27460841D02*
X121819607Y27222745D01*
X121581512Y27317983D02*
X121819607Y27222745D01*
X122057703Y27317983D01*
X121676750Y27032269D02*
X121819607Y27222745D01*
X121962464Y27032269D01*
X-2965390Y1063903D02*
X-3441580Y730570D01*
X-2965390Y492475D02*
X-3965390Y492475D01*
X-3965390Y873427D01*
X-3917770Y968665D01*
X-3870151Y1016284D01*
X-3774913Y1063903D01*
X-3632056Y1063903D01*
X-3536818Y1016284D01*
X-3489199Y968665D01*
X-3441580Y873427D01*
X-3441580Y492475D01*
X-3489199Y1492475D02*
X-3489199Y1825808D01*
X-2965390Y1968665D02*
X-2965390Y1492475D01*
X-3965390Y1492475D01*
X-3965390Y1968665D01*
X-3489199Y2730570D02*
X-3489199Y2397236D01*
X-2965390Y2397236D02*
X-3965390Y2397236D01*
X-3965390Y2873427D01*
X-3965390Y3397236D02*
X-3727294Y3397236D01*
X-3822532Y3159141D02*
X-3727294Y3397236D01*
X-3822532Y3635332D01*
X-3536818Y3254379D02*
X-3727294Y3397236D01*
X-3536818Y3540094D01*
X-3965390Y4159141D02*
X-3727294Y4159141D01*
X-3822532Y3921046D02*
X-3727294Y4159141D01*
X-3822532Y4397236D01*
X-3536818Y4016284D02*
X-3727294Y4159141D01*
X-3536818Y4301998D01*
X21830039Y9040094D02*
X21782420Y8992475D01*
X21639563Y8944856D01*
X21544325Y8944856D01*
X21401467Y8992475D01*
X21306229Y9087713D01*
X21258610Y9182951D01*
X21210991Y9373427D01*
X21210991Y9516284D01*
X21258610Y9706760D01*
X21306229Y9801998D01*
X21401467Y9897236D01*
X21544325Y9944856D01*
X21639563Y9944856D01*
X21782420Y9897236D01*
X21830039Y9849617D01*
X22163372Y9944856D02*
X22782420Y9944856D01*
X22449086Y9563903D01*
X22591944Y9563903D01*
X22687182Y9516284D01*
X22734801Y9468665D01*
X22782420Y9373427D01*
X22782420Y9135332D01*
X22734801Y9040094D01*
X22687182Y8992475D01*
X22591944Y8944856D01*
X22306229Y8944856D01*
X22210991Y8992475D01*
X22163372Y9040094D01*
X26830039Y9040094D02*
X26782420Y8992475D01*
X26639563Y8944856D01*
X26544325Y8944856D01*
X26401467Y8992475D01*
X26306229Y9087713D01*
X26258610Y9182951D01*
X26210991Y9373427D01*
X26210991Y9516284D01*
X26258610Y9706760D01*
X26306229Y9801998D01*
X26401467Y9897236D01*
X26544325Y9944856D01*
X26639563Y9944856D01*
X26782420Y9897236D01*
X26830039Y9849617D01*
X27687182Y9611522D02*
X27687182Y8944856D01*
X27449086Y9992475D02*
X27210991Y9278189D01*
X27830039Y9278189D01*
X-2965390Y19813903D02*
X-3441580Y19480570D01*
X-2965390Y19242475D02*
X-3965390Y19242475D01*
X-3965390Y19623427D01*
X-3917770Y19718665D01*
X-3870151Y19766284D01*
X-3774913Y19813903D01*
X-3632056Y19813903D01*
X-3536818Y19766284D01*
X-3489199Y19718665D01*
X-3441580Y19623427D01*
X-3441580Y19242475D01*
X-3489199Y20242475D02*
X-3489199Y20575808D01*
X-2965390Y20718665D02*
X-2965390Y20242475D01*
X-3965390Y20242475D01*
X-3965390Y20718665D01*
X-3489199Y21480570D02*
X-3489199Y21147236D01*
X-2965390Y21147236D02*
X-3965390Y21147236D01*
X-3965390Y21623427D01*
X-3965390Y22147236D02*
X-3727294Y22147236D01*
X-3822532Y21909141D02*
X-3727294Y22147236D01*
X-3822532Y22385332D01*
X-3536818Y22004379D02*
X-3727294Y22147236D01*
X-3536818Y22290094D01*
X-3965390Y22909141D02*
X-3727294Y22909141D01*
X-3822532Y22671046D02*
X-3727294Y22909141D01*
X-3822532Y23147236D01*
X-3536818Y22766284D02*
X-3727294Y22909141D01*
X-3536818Y23051998D01*
X-2965390Y-25186097D02*
X-3441580Y-25519430D01*
X-2965390Y-25757525D02*
X-3965390Y-25757525D01*
X-3965390Y-25376573D01*
X-3917770Y-25281335D01*
X-3870151Y-25233716D01*
X-3774913Y-25186097D01*
X-3632056Y-25186097D01*
X-3536818Y-25233716D01*
X-3489199Y-25281335D01*
X-3441580Y-25376573D01*
X-3441580Y-25757525D01*
X-3489199Y-24757525D02*
X-3489199Y-24424192D01*
X-2965390Y-24281335D02*
X-2965390Y-24757525D01*
X-3965390Y-24757525D01*
X-3965390Y-24281335D01*
X-3489199Y-23519430D02*
X-3489199Y-23852764D01*
X-2965390Y-23852764D02*
X-3965390Y-23852764D01*
X-3965390Y-23376573D01*
X-3965390Y-22852764D02*
X-3727294Y-22852764D01*
X-3822532Y-23090859D02*
X-3727294Y-22852764D01*
X-3822532Y-22614668D01*
X-3536818Y-22995621D02*
X-3727294Y-22852764D01*
X-3536818Y-22709906D01*
X-3965390Y-22090859D02*
X-3727294Y-22090859D01*
X-3822532Y-22328954D02*
X-3727294Y-22090859D01*
X-3822532Y-21852764D01*
X-3536818Y-22233716D02*
X-3727294Y-22090859D01*
X-3536818Y-21948002D01*
X3359801Y23194856D02*
X3359801Y24194856D01*
X3359801Y23718665D02*
X3931229Y23718665D01*
X3931229Y23194856D02*
X3931229Y24194856D01*
X4835991Y23861522D02*
X4835991Y23194856D01*
X4597896Y24242475D02*
X4359801Y23528189D01*
X4978848Y23528189D01*
X-30001104Y28694856D02*
X-30334437Y29171046D01*
X-30572532Y28694856D02*
X-30572532Y29694856D01*
X-30191580Y29694856D01*
X-30096342Y29647236D01*
X-30048723Y29599617D01*
X-30001104Y29504379D01*
X-30001104Y29361522D01*
X-30048723Y29266284D01*
X-30096342Y29218665D01*
X-30191580Y29171046D01*
X-30572532Y29171046D01*
X-29572532Y29218665D02*
X-29239199Y29218665D01*
X-29096342Y28694856D02*
X-29572532Y28694856D01*
X-29572532Y29694856D01*
X-29096342Y29694856D01*
X-28334437Y29218665D02*
X-28667770Y29218665D01*
X-28667770Y28694856D02*
X-28667770Y29694856D01*
X-28191580Y29694856D01*
X-27667770Y29694856D02*
X-27667770Y29456760D01*
X-27905866Y29551998D02*
X-27667770Y29456760D01*
X-27429675Y29551998D01*
X-27810628Y29266284D02*
X-27667770Y29456760D01*
X-27524913Y29266284D01*
X-26905866Y29694856D02*
X-26905866Y29456760D01*
X-27143961Y29551998D02*
X-26905866Y29456760D01*
X-26667770Y29551998D01*
X-27048723Y29266284D02*
X-26905866Y29456760D01*
X-26763009Y29266284D01*
X-133001715Y-37600383D02*
X-132668382Y-38076573D01*
X-132430287Y-37600383D02*
X-132430287Y-38600383D01*
X-132811239Y-38600383D01*
X-132906477Y-38552764D01*
X-132954096Y-38505144D01*
X-133001715Y-38409906D01*
X-133001715Y-38267049D01*
X-132954096Y-38171811D01*
X-132906477Y-38124192D01*
X-132811239Y-38076573D01*
X-132430287Y-38076573D01*
X-133430287Y-38124192D02*
X-133763620Y-38124192D01*
X-133906477Y-37600383D02*
X-133430287Y-37600383D01*
X-133430287Y-38600383D01*
X-133906477Y-38600383D01*
X-134668382Y-38124192D02*
X-134335048Y-38124192D01*
X-134335048Y-37600383D02*
X-134335048Y-38600383D01*
X-134811239Y-38600383D01*
X-135335048Y-38600383D02*
X-135335048Y-38362287D01*
X-135096953Y-38457525D02*
X-135335048Y-38362287D01*
X-135573144Y-38457525D01*
X-135192191Y-38171811D02*
X-135335048Y-38362287D01*
X-135477906Y-38171811D01*
X-136096953Y-38600383D02*
X-136096953Y-38362287D01*
X-135858858Y-38457525D02*
X-136096953Y-38362287D01*
X-136335048Y-38457525D01*
X-135954096Y-38171811D02*
X-136096953Y-38362287D01*
X-136239810Y-38171811D01*
X-140476576Y26460841D02*
X-140809909Y26937031D01*
X-141048004Y26460841D02*
X-141048004Y27460841D01*
X-140667052Y27460841D01*
X-140571814Y27413221D01*
X-140524195Y27365602D01*
X-140476576Y27270364D01*
X-140476576Y27127507D01*
X-140524195Y27032269D01*
X-140571814Y26984650D01*
X-140667052Y26937031D01*
X-141048004Y26937031D01*
X-140048004Y26984650D02*
X-139714671Y26984650D01*
X-139571814Y26460841D02*
X-140048004Y26460841D01*
X-140048004Y27460841D01*
X-139571814Y27460841D01*
X-138809910Y26984650D02*
X-139143244Y26984650D01*
X-139143244Y26460841D02*
X-139143244Y27460841D01*
X-138667053Y27460841D01*
X-138143244Y27460841D02*
X-138143244Y27222745D01*
X-138381339Y27317983D02*
X-138143244Y27222745D01*
X-137905148Y27317983D01*
X-138286101Y27032269D02*
X-138143244Y27222745D01*
X-138000386Y27032269D01*
X-137381339Y27460841D02*
X-137381339Y27222745D01*
X-137619434Y27317983D02*
X-137381339Y27222745D01*
X-137143244Y27317983D01*
X-137524196Y27032269D02*
X-137381339Y27222745D01*
X-137238482Y27032269D01*
X-11519532Y28994856D02*
X-11519532Y29994856D01*
X-11281437Y29994856D01*
X-11138580Y29947236D01*
X-11043342Y29851998D01*
X-10995723Y29756760D01*
X-10948104Y29566284D01*
X-10948104Y29423427D01*
X-10995723Y29232951D01*
X-11043342Y29137713D01*
X-11138580Y29042475D01*
X-11281437Y28994856D01*
X-11519532Y28994856D01*
X-10614770Y29994856D02*
X-9995723Y29994856D01*
X-10329056Y29613903D01*
X-10186199Y29613903D01*
X-10090961Y29566284D01*
X-10043342Y29518665D01*
X-9995723Y29423427D01*
X-9995723Y29185332D01*
X-10043342Y29090094D01*
X-10090961Y29042475D01*
X-10186199Y28994856D01*
X-10471913Y28994856D01*
X-10567151Y29042475D01*
X-10614770Y29090094D01*
X-9614770Y29899617D02*
X-9567151Y29947236D01*
X-9471913Y29994856D01*
X-9233818Y29994856D01*
X-9138580Y29947236D01*
X-9090961Y29899617D01*
X-9043342Y29804379D01*
X-9043342Y29709141D01*
X-9090961Y29566284D01*
X-9662389Y28994856D01*
X-9043342Y28994856D01*
X-78001715Y-53600382D02*
X-77668382Y-54076572D01*
X-77430287Y-53600382D02*
X-77430287Y-54600382D01*
X-77811239Y-54600382D01*
X-77906477Y-54552763D01*
X-77954096Y-54505143D01*
X-78001715Y-54409905D01*
X-78001715Y-54267048D01*
X-77954096Y-54171810D01*
X-77906477Y-54124191D01*
X-77811239Y-54076572D01*
X-77430287Y-54076572D01*
X-78430287Y-54124191D02*
X-78763620Y-54124191D01*
X-78906477Y-53600382D02*
X-78430287Y-53600382D01*
X-78430287Y-54600382D01*
X-78906477Y-54600382D01*
X-79668382Y-54124191D02*
X-79335048Y-54124191D01*
X-79335048Y-53600382D02*
X-79335048Y-54600382D01*
X-79811239Y-54600382D01*
X-80335048Y-54600382D02*
X-80335048Y-54362286D01*
X-80096953Y-54457524D02*
X-80335048Y-54362286D01*
X-80573144Y-54457524D01*
X-80192191Y-54171810D02*
X-80335048Y-54362286D01*
X-80477906Y-54171810D01*
X-81096953Y-54600382D02*
X-81096953Y-54362286D01*
X-80858858Y-54457524D02*
X-81096953Y-54362286D01*
X-81335048Y-54457524D01*
X-80954096Y-54171810D02*
X-81096953Y-54362286D01*
X-81239810Y-54171810D01*
X109634801Y16969856D02*
X109634801Y17969856D01*
X109634801Y17493665D02*
X110206229Y17493665D01*
X110206229Y16969856D02*
X110206229Y17969856D01*
X111110991Y17969856D02*
X110920515Y17969856D01*
X110825277Y17922236D01*
X110777658Y17874617D01*
X110682420Y17731760D01*
X110634801Y17541284D01*
X110634801Y17160332D01*
X110682420Y17065094D01*
X110730039Y17017475D01*
X110825277Y16969856D01*
X111015753Y16969856D01*
X111110991Y17017475D01*
X111158610Y17065094D01*
X111206229Y17160332D01*
X111206229Y17398427D01*
X111158610Y17493665D01*
X111110991Y17541284D01*
X111015753Y17588903D01*
X110825277Y17588903D01*
X110730039Y17541284D01*
X110682420Y17493665D01*
X110634801Y17398427D01*
X-53590888Y-53600382D02*
X-53257555Y-54076572D01*
X-53019460Y-53600382D02*
X-53019460Y-54600382D01*
X-53400412Y-54600382D01*
X-53495650Y-54552763D01*
X-53543269Y-54505143D01*
X-53590888Y-54409905D01*
X-53590888Y-54267048D01*
X-53543269Y-54171810D01*
X-53495650Y-54124191D01*
X-53400412Y-54076572D01*
X-53019460Y-54076572D01*
X-54019460Y-54124191D02*
X-54352793Y-54124191D01*
X-54495650Y-53600382D02*
X-54019460Y-53600382D01*
X-54019460Y-54600382D01*
X-54495650Y-54600382D01*
X-55257555Y-54124191D02*
X-54924221Y-54124191D01*
X-54924221Y-53600382D02*
X-54924221Y-54600382D01*
X-55400412Y-54600382D01*
X-55924221Y-54600382D02*
X-55924221Y-54362286D01*
X-55686126Y-54457524D02*
X-55924221Y-54362286D01*
X-56162317Y-54457524D01*
X-55781364Y-54171810D02*
X-55924221Y-54362286D01*
X-56067079Y-54171810D01*
X-56686126Y-54600382D02*
X-56686126Y-54362286D01*
X-56448031Y-54457524D02*
X-56686126Y-54362286D01*
X-56924221Y-54457524D01*
X-56543269Y-54171810D02*
X-56686126Y-54362286D01*
X-56828983Y-54171810D01*
X1287182Y-28007525D02*
X1430039Y-28055144D01*
X1668134Y-28055144D01*
X1763372Y-28007525D01*
X1810991Y-27959906D01*
X1858610Y-27864668D01*
X1858610Y-27769430D01*
X1810991Y-27674192D01*
X1763372Y-27626573D01*
X1668134Y-27578954D01*
X1477658Y-27531335D01*
X1382420Y-27483716D01*
X1334801Y-27436097D01*
X1287182Y-27340859D01*
X1287182Y-27245621D01*
X1334801Y-27150383D01*
X1382420Y-27102764D01*
X1477658Y-27055144D01*
X1715753Y-27055144D01*
X1858610Y-27102764D01*
X2191944Y-27055144D02*
X2430039Y-28055144D01*
X2620515Y-27340859D01*
X2810991Y-28055144D01*
X3049086Y-27055144D01*
X3382420Y-27150383D02*
X3430039Y-27102764D01*
X3525277Y-27055144D01*
X3763372Y-27055144D01*
X3858610Y-27102764D01*
X3906229Y-27150383D01*
X3953848Y-27245621D01*
X3953848Y-27340859D01*
X3906229Y-27483716D01*
X3334801Y-28055144D01*
X3953848Y-28055144D01*
X4858610Y-27055144D02*
X4382420Y-27055144D01*
X4334801Y-27531335D01*
X4382420Y-27483716D01*
X4477658Y-27436097D01*
X4715753Y-27436097D01*
X4810991Y-27483716D01*
X4858610Y-27531335D01*
X4906229Y-27626573D01*
X4906229Y-27864668D01*
X4858610Y-27959906D01*
X4810991Y-28007525D01*
X4715753Y-28055144D01*
X4477658Y-28055144D01*
X4382420Y-28007525D01*
X4334801Y-27959906D01*
D12*
X-51602246Y22847236D02*
X-51602246Y21517236D01*
X-51602246Y24117236D02*
X-51602246Y31797236D01*
X-51602246Y21517236D02*
X-52932246Y21517236D01*
X-51602246Y24117236D02*
X-54262246Y24117236D01*
X-54262246Y24117236D02*
X-54262246Y31797236D01*
X-51602246Y31797236D02*
X-54262246Y31797236D01*
X-2218294Y27087236D02*
X-2218294Y28557236D01*
X-2218294Y28557236D02*
X-4678294Y28557236D01*
X-4678294Y27087236D02*
X-2218294Y27087236D01*
X-25357246Y28582236D02*
X-27817246Y28582236D01*
X-27817246Y27112236D02*
X-25357246Y27112236D01*
X-27817246Y28582236D02*
X-27817246Y27112236D01*
X-21532246Y-23052764D02*
X-21532246Y-22052764D01*
X-27632246Y-16652764D02*
X-23532246Y-16652764D01*
X-21032246Y-22552764D02*
X-22032246Y-22552764D01*
X-19532246Y-16652764D02*
X-15432246Y-16652764D01*
X-27632246Y-19052764D02*
X-27632246Y-16652764D01*
X-19532246Y-28452764D02*
X-15432246Y-28452764D01*
X-14032246Y-26352764D02*
X-13732246Y-26652764D01*
X-27632246Y-28452764D02*
X-27632246Y-26052764D01*
X-23532246Y-28452764D02*
X-27632246Y-28452764D01*
X-15432246Y-28452764D02*
X-15432246Y-16652764D01*
X-14332246Y-26652764D02*
X-14032246Y-26352764D01*
X-13732246Y-26652764D02*
X-14332246Y-26652764D01*
X-27632246Y-23852764D02*
X-27632246Y-21252764D01*
X-18532246Y-22552764D02*
G75*
G03*
X-18532246Y-22552764I-3000000J0D01*
G01*
X11021706Y27112236D02*
X13481706Y27112236D01*
X13481706Y28582236D02*
X11021706Y28582236D01*
X13481706Y27112236D02*
X13481706Y28582236D01*
X24169206Y10050969D02*
X24169206Y10343503D01*
X23149206Y10050969D02*
X23149206Y10343503D01*
X25806706Y10050969D02*
X25806706Y10343503D01*
X24786706Y10050969D02*
X24786706Y10343503D01*
X-9657246Y28557236D02*
X-12117246Y28557236D01*
X-12117246Y28557236D02*
X-12117246Y27087236D01*
X-12117246Y27087236D02*
X-9657246Y27087236D01*
X5196706Y-16652764D02*
X1096706Y-16652764D01*
X13296706Y-16652764D02*
X13296706Y-19052764D01*
X13296706Y-21252764D02*
X13296706Y-23852764D01*
X1096706Y-16652764D02*
X1096706Y-28452764D01*
X13296706Y-28452764D02*
X9196706Y-28452764D01*
X5196706Y-28452764D02*
X1096706Y-28452764D01*
X7196706Y-22052764D02*
X7196706Y-23052764D01*
X-3294Y-18452764D02*
X-303294Y-18752764D01*
X6696706Y-22552764D02*
X7696706Y-22552764D01*
X-303294Y-18752764D02*
X-603294Y-18452764D01*
X-603294Y-18452764D02*
X-3294Y-18452764D01*
X9196706Y-16652764D02*
X13296706Y-16652764D01*
X13296706Y-26052764D02*
X13296706Y-28452764D01*
X10196706Y-22552764D02*
G75*
G03*
X10196706Y-22552764I-3000000J0D01*
G01*
M02*
