M48
; DRILL file {KiCad (5.99.0-8557-g8988e46ab1)} date Sunday, January 24, 2021 at 11:32:54 PM
; FORMAT={-:-/ absolute / inch / decimal}
; #@! TF.CreationDate,2021-01-24T23:32:54-07:00
; #@! TF.GenerationSoftware,Kicad,Pcbnew,(5.99.0-8557-g8988e46ab1)
; #@! TF.FileFunction,Plated,1,2,PTH
FMAT,2
INCH
T1C0.0118
T2C0.0130
T3C0.0236
T4C0.0394
T5C0.0472
T6C0.0591
%
G90
G05
T1
X-1.5328Y0.7185
X-1.5328Y0.6685
X0.6503Y0.7185
X0.6503Y0.6685
T2
X-4.9619Y0.7775
X-4.9501Y0.116
X-4.9501Y-0.5533
X-4.9501Y-1.2225
X-4.2414Y0.8247
X-4.2414Y0.1554
X-4.2414Y-0.5139
X-4.2414Y-1.1832
X-3.5328Y1.0215
X-3.5328Y0.3523
X-3.5328Y-0.317
X-3.5328Y-0.9863
X-2.8241Y1.0609
X-2.8241Y0.3916
X-2.8241Y-0.2777
X-2.8241Y-0.947
X-2.8241Y-1.7344
X-2.3123Y1.0215
X-2.2729Y0.6672
X-2.1548Y0.4861
X-2.1154Y0.3523
X-2.1154Y-0.317
X-2.1154Y-0.9863
X-2.1154Y-1.8525
X-1.954Y0.8444
X-1.8989Y0.868
X-1.8635Y1.0137
X-1.8635Y0.8995
X-1.832Y0.8798
X-1.8123Y0.9507
X-1.8044Y0.6712
X-1.7965Y-0.8131
X-1.7965Y-1.5966
X-1.7926Y0.6357
X-1.7926Y0.5806
X-1.769Y0.7578
X-1.769Y0.6082
X-1.769Y0.557
X-1.7375Y0.5412
X-1.7375Y0.4231
X-1.7296Y1.1042
X-1.7099Y0.5176
X-1.7021Y0.7893
X-1.6715Y-0.1005
X-1.6312Y0.5255
X-1.6017Y0.4999
X-1.5761Y-0.1241
X-1.5288Y0.3916
X-1.4855Y0.4467
X-1.4855Y-0.317
X-1.4383Y0.9113
X-1.4147Y0.368
X-1.4068Y-1.0651
X-1.3123Y1.0137
X-1.3123Y0.8719
X-1.3123Y0.7775
X-1.3123Y0.6751
X-1.2099Y1.0334
X-1.2021Y0.6042
X-1.1981Y0.9113
X-1.1784Y0.5412
X-1.1312Y-1.7344
X-1.0918Y0.8404
X-1.0839Y0.6869
X-1.0839Y0.6357
X-1.08Y0.7341
X-1.0761Y0.7853
X-1.0682Y0.242
X-1.0603Y0.4625
X-1.0525Y1.1633
X-1.0367Y0.3916
X-1.0328Y0.8995
X-1.0328Y0.8208
X-1.021Y0.3601
X-1.0131Y0.7381
X-0.9895Y0.6357
X-0.9816Y1.1633
X-0.9737Y0.8877
X-0.8674Y0.464
X-0.8556Y0.7696
X-0.832Y0.9349
X-0.8162Y-1.5769
X-0.7847Y0.5334
X-0.7847Y0.4546
X-0.7808Y0.2538
X-0.7769Y-0.9076
X-0.7572Y0.9034
X-0.7532Y0.9349
X-0.7336Y0.2578
X-0.7001Y0.9369
X-0.6686Y0.9054
X-0.6194Y-1.3407
X-0.6036Y0.931
X-0.5868Y0.3916
X-0.5603Y0.5767
X-0.5446Y0.5215
X-0.5249Y0.8641
X-0.4462Y0.2499
X-0.4147Y1.1633
X-0.1606Y0.2263
X-0.1448Y1.1593
X-0.1369Y0.4034
X-0.1212Y-0.6792
X-0.0474Y0.8424
X-0.0336Y0.4999
X-0.0306Y0.557
X-0.0031Y-1.6241
X0.0255Y0.3326
X0.052Y0.9822
X0.0835Y0.4467
X0.0944Y0.8542
X0.1022Y0.9212
X0.115Y-0.758
X0.1731Y0.9212
X0.1731Y0.2341
X0.2026Y0.4408
X0.2331Y-1.2698
X0.241Y0.9822
X0.2725Y0.2656
X0.3906Y0.6987
X0.3906Y0.5019
X0.4388Y0.8837
X0.4694Y1.1712
X0.4694Y0.4049
X0.5077Y0.4015
X0.5087Y-1.7422
X0.5205Y1.0412
X0.5254Y0.5845
X0.5373Y0.244
X0.6465Y0.5727
X0.6652Y0.933
X0.6849Y0.5491
X0.6967Y-0.6576
X0.778Y0.5739
X0.8158Y0.4457
X0.8316Y-0.8131
X0.8522Y0.5779
X0.867Y0.8539
X0.8749Y-1.0178
X0.931Y0.4339
X0.9408Y1.0215
X0.9418Y0.6593
X0.9418Y-0.3249
X0.9418Y-0.8367
X0.9418Y-0.9942
X0.9772Y0.8641
X0.992Y0.2046
X0.9959Y0.4369
X1.0038Y0.307
X1.0599Y0.5412
X1.1229Y0.8286
X1.2174Y0.62
X1.2174Y-1.9785
X1.2528Y1.0176
X1.2804Y0.9271
X1.2961Y0.2656
X1.304Y0.4625
X1.3749Y0.6593
X1.4536Y-0.4037
X1.493Y1.0924
X1.493Y-1.0729
X2.0048Y1.0924
X2.1623Y0.3444
X2.1623Y-0.3249
X2.1623Y-0.9942
X2.1623Y-1.8603
X2.4379Y1.0924
X2.8709Y-0.2855
X2.8709Y-0.9548
X2.8709Y-1.7816
X2.9103Y1.0924
X2.9103Y0.5412
X2.9103Y0.3837
X3.4615Y1.0924
X3.5796Y-0.3249
X3.5796Y-0.9942
X3.619Y0.3444
X3.9526Y0.4408
X4.0904Y0.4408
X4.2883Y0.1475
X4.2883Y-1.1911
X4.3276Y0.8168
X4.3276Y-0.5218
X4.8394Y0.7775
X4.9969Y0.1082
X4.9969Y-0.5611
X4.9969Y-1.2304
T3
X-0.9294Y1.0336
X-0.9294Y1.0232
X-0.9294Y1.0036
X-0.9294Y1.1892
X-0.9294Y1.1772
X-0.9294Y1.1637
X-0.9294Y1.1522
X-0.9294Y1.0132
X-0.9294Y1.2002
X-0.4904Y1.0336
X-0.4904Y1.0232
X-0.4904Y1.0036
X-0.4904Y1.1897
X-0.4904Y1.1777
X-0.4904Y1.1642
X-0.4904Y1.1527
X-0.4904Y1.0132
X-0.4904Y1.2007
X-0.074Y1.0336
X-0.074Y1.0232
X-0.074Y1.0036
X-0.074Y1.1892
X-0.074Y1.1772
X-0.074Y1.1637
X-0.074Y1.1522
X-0.074Y1.0132
X-0.0739Y1.2002
X0.365Y1.0336
X0.365Y1.0232
X0.365Y1.0036
X0.365Y1.1897
X0.365Y1.1777
X0.365Y1.1642
X0.365Y1.1527
X0.365Y1.0132
X0.3651Y1.2007
T4
X-2.0839Y1.1995
X-2.0839Y1.0995
X-2.0839Y0.9995
X-2.0839Y0.8995
X-1.1725Y0.3365
X-1.1725Y0.2735
X-1.1233Y-0.7895
X-1.1233Y-0.9863
X-0.5525Y-0.7895
X-0.5525Y-0.8879
X-0.5525Y-0.9863
X-0.0119Y-0.7895
X-0.0119Y-0.8879
X-0.0119Y-0.9863
X0.5589Y-0.7895
X0.5589Y-0.9863
X0.619Y0.3385
X0.619Y0.2755
X0.7725Y0.9712
X0.7725Y0.8712
X0.7725Y0.7712
X0.7725Y0.6712
T5
X-5.4619Y0.6397
X-5.4619Y-0.0296
X-5.4619Y-0.6989
X-5.4619Y-1.3682
X-5.265Y0.553
X-5.265Y-0.1163
X-5.265Y-0.7855
X-5.265Y-1.4548
X-4.7532Y0.679
X-4.7532Y0.0097
X-4.7532Y-0.6596
X-4.7532Y-1.3288
X-4.5564Y0.5924
X-4.5564Y-0.0769
X-4.5564Y-0.7462
X-4.5564Y-1.4155
X-4.0446Y0.8759
X-4.0446Y0.2066
X-4.0446Y-0.4627
X-4.0446Y-1.132
X-3.8477Y0.7893
X-3.8477Y0.12
X-3.8477Y-0.5493
X-3.8477Y-1.2186
X-3.3359Y0.9271
X-3.3359Y0.2578
X-3.3359Y-0.4115
X-3.3359Y-1.0808
X-3.3359Y-1.947
X-3.1391Y0.8404
X-3.1391Y0.1712
X-3.1391Y-0.4981
X-3.1391Y-1.1674
X-3.1391Y-2.0336
X-2.6273Y0.8759
X-2.6273Y0.2066
X-2.6273Y-0.4627
X-2.6273Y-1.132
X-2.6233Y-1.9981
X-2.4304Y0.7893
X-2.4304Y0.12
X-2.4304Y-0.5493
X-2.4304Y-1.2186
X-2.4265Y-2.0848
X-1.9186Y0.7814
X-1.9186Y0.1121
X-1.9186Y-0.5572
X-1.9186Y-1.2265
X-1.7217Y0.6948
X-1.7217Y0.0255
X-1.7217Y-0.6438
X-1.7217Y-1.3131
X-1.528Y-2.0849
X-1.3143Y-2.0615
X0.6227Y-1.8881
X0.7499Y-2.0615
X0.9605Y0.7814
X0.9605Y0.1121
X0.9605Y-0.5572
X0.9605Y-1.2265
X1.1574Y0.6948
X1.1574Y0.0255
X1.1574Y-0.6438
X1.1574Y-1.3131
X1.6652Y-1.9981
X1.6692Y0.8759
X1.6692Y0.2066
X1.6692Y-0.4627
X1.6692Y-1.132
X1.8621Y-2.0848
X1.866Y0.7893
X1.866Y0.12
X1.866Y-0.5493
X1.866Y-1.2186
X2.3778Y0.9271
X2.3778Y0.2578
X2.3778Y-0.4115
X2.3778Y-1.0808
X2.3778Y-1.947
X2.5747Y0.8404
X2.5747Y0.1712
X2.5747Y-0.4981
X2.5747Y-1.1674
X2.5747Y-2.0336
X3.0865Y0.8759
X3.0865Y0.2066
X3.0865Y-0.4627
X3.0865Y-1.132
X3.2833Y0.7893
X3.2833Y0.12
X3.2833Y-0.5493
X3.2833Y-1.2186
X3.7951Y0.679
X3.7951Y0.0097
X3.7951Y-0.6596
X3.7951Y-1.3288
X3.992Y0.5924
X3.992Y-0.0769
X3.992Y-0.7462
X3.992Y-1.4155
X4.5038Y0.6397
X4.5038Y-0.0296
X4.5038Y-0.6989
X4.5038Y-1.3682
X4.7007Y0.553
X4.7007Y-0.1163
X4.7007Y-0.7855
X4.7007Y-1.4548
T6
G00X-0.8221Y-0.6674
M15
G01X-0.8733Y-0.6674
M16
G05
G00X-0.8221Y-1.1084
M15
G01X-0.8733Y-1.1084
M16
G05
G00X0.2577Y-0.6674
M15
G01X0.3089Y-0.6674
M16
G05
G00X0.2577Y-1.1084
M15
G01X0.3089Y-1.1084
M16
G05
T0
M30
