M48
; DRILL file {KiCad (5.99.0-8557-g8988e46ab1)} date Sunday, January 24, 2021 at 11:32:54 PM
; FORMAT={-:-/ absolute / inch / decimal}
; #@! TF.CreationDate,2021-01-24T23:32:54-07:00
; #@! TF.GenerationSoftware,Kicad,Pcbnew,(5.99.0-8557-g8988e46ab1)
; #@! TF.FileFunction,NonPlated,1,2,NPTH
FMAT,2
INCH
T1C0.0300
T2C0.0354
T3C0.0748
T4C0.1339
T5C0.1693
%
G90
G05
T1
X-5.462Y-1.6084
X-5.4466Y1.1698
X-5.4266Y-1.6084
X-5.4112Y1.1698
X-5.3911Y-1.6084
X-5.3757Y1.1698
X-5.3557Y-1.6084
X-5.3403Y1.1698
X-5.3203Y-1.6084
X-5.3049Y1.1698
X-4.2809Y-1.6084
X-4.2455Y-1.6084
X-4.21Y-1.6084
X-4.1746Y-1.6084
X-4.1392Y-1.6084
X-3.706Y1.4586
X-3.6706Y1.4586
X-3.6351Y1.4586
X-3.5997Y1.4586
X-3.5643Y1.4586
X-3.2967Y-2.2383
X-3.2612Y-2.2383
X-3.2258Y-2.2383
X-3.1904Y-2.2383
X-3.1549Y-2.2383
X-3.017Y1.4586
X-2.9816Y1.4586
X-2.9462Y1.4586
X-2.9107Y1.4586
X-2.8753Y1.4586
X-2.3356Y-2.2383
X-2.3002Y-2.2383
X-2.2647Y-2.2383
X-2.2293Y-2.2383
X-2.1939Y-2.2383
X-1.0972Y1.2578
X-1.0617Y1.2578
X-1.0263Y1.2578
X-0.9909Y1.2578
X-0.9554Y1.2578
X-0.6859Y-1.9303
X-0.6504Y-1.9303
X-0.615Y-1.9303
X-0.5796Y-1.9303
X-0.5441Y-1.9303
X-0.3196Y1.0058
X-0.3196Y0.9704
X-0.3196Y0.9349
X-0.3196Y0.8995
X-0.3196Y0.8641
X-0.3196Y0.2676
X-0.3196Y0.2322
X-0.3196Y0.1967
X-0.3196Y0.1613
X-0.3196Y0.1259
X-0.3196Y-0.7659
X-0.3196Y-0.8013
X-0.3196Y-0.8367
X-0.3196Y-0.8722
X-0.3196Y-0.9076
X-0.3196Y-1.5533
X-0.3196Y-1.5887
X-0.3196Y-1.6241
X-0.3196Y-1.6596
X-0.3196Y-1.695
X-0.2448Y1.0058
X-0.2448Y0.9704
X-0.2448Y0.9349
X-0.2448Y0.8995
X-0.2448Y0.8641
X-0.2448Y0.2676
X-0.2448Y0.2322
X-0.2448Y0.1967
X-0.2448Y0.1613
X-0.2448Y0.1259
X-0.2448Y-0.7659
X-0.2448Y-0.8013
X-0.2448Y-0.8367
X-0.2448Y-0.8722
X-0.2448Y-0.9076
X-0.2448Y-1.5533
X-0.2448Y-1.5887
X-0.2448Y-1.6241
X-0.2448Y-1.6596
X-0.2448Y-1.695
X-0.0203Y-1.93
X0.0152Y-1.93
X0.0506Y-1.93
X0.086Y-1.93
X0.1215Y-1.93
X0.394Y1.2578
X0.4294Y1.2578
X0.4649Y1.2578
X0.5003Y1.2578
X0.5357Y1.2578
X1.6295Y-2.238
X1.6649Y-2.238
X1.7003Y-2.238
X1.7358Y-2.238
X1.7712Y-2.238
X2.2779Y1.4578
X2.3133Y1.4578
X2.3488Y1.4578
X2.3842Y1.4578
X2.4196Y1.4578
X2.5905Y-2.238
X2.626Y-2.238
X2.6614Y-2.238
X2.6968Y-2.238
X2.7323Y-2.238
X3.0351Y1.4578
X3.0706Y1.4578
X3.106Y1.4578
X3.1414Y1.4578
X3.1769Y1.4578
X3.5748Y-1.608
X3.6102Y-1.608
X3.6456Y-1.608
X3.6811Y-1.608
X3.7165Y-1.608
X4.7559Y-1.608
X4.7582Y1.1698
X4.7913Y-1.608
X4.7936Y1.1698
X4.8268Y-1.608
X4.829Y1.1698
X4.8622Y-1.608
X4.8645Y1.1698
X4.8976Y-1.608
X4.8999Y1.1698
T2
X-0.4176Y0.7578
X-0.4176Y0.6397
X-0.1468Y0.7578
X-0.1468Y0.6397
T3
X-5.4816Y0.7853
X-5.4816Y0.116
X-5.4816Y-0.5533
X-5.4816Y-1.2225
X-5.0485Y0.7853
X-5.0485Y0.116
X-5.0485Y-0.5533
X-5.0485Y-1.2225
X-4.7729Y0.8247
X-4.7729Y0.1554
X-4.7729Y-0.5139
X-4.7729Y-1.1832
X-4.3399Y0.8247
X-4.3399Y0.1554
X-4.3399Y-0.5139
X-4.3399Y-1.1832
X-4.0643Y1.0215
X-4.0643Y0.3523
X-4.0643Y-0.317
X-4.0643Y-0.9863
X-3.6312Y1.0215
X-3.6312Y0.3523
X-3.6312Y-0.317
X-3.6312Y-0.9863
X-3.3556Y1.0727
X-3.3556Y0.4034
X-3.3556Y-0.2659
X-3.3556Y-0.9351
X-3.3556Y-1.8013
X-2.9225Y1.0727
X-2.9225Y0.4034
X-2.9225Y-0.2659
X-2.9225Y-0.9351
X-2.9225Y-1.8013
X-2.6469Y1.0215
X-2.6469Y0.3523
X-2.6469Y-0.317
X-2.6469Y-0.9863
X-2.643Y-1.8525
X-2.2139Y1.0215
X-2.2139Y0.3523
X-2.2139Y-0.317
X-2.2139Y-0.9863
X-2.2099Y-1.8525
X-1.9383Y0.9271
X-1.9383Y0.2578
X-1.9383Y-0.4115
X-1.9383Y-1.0808
X-1.6179Y-1.9686
X-1.5052Y0.9271
X-1.5052Y0.2578
X-1.5052Y-0.4115
X-1.5052Y-1.0808
X-1.2429Y-1.7521
X0.6785Y-1.7521
X0.9408Y0.9271
X0.9408Y0.2578
X0.9408Y-0.4115
X0.9408Y-1.0808
X1.0535Y-1.9686
X1.3739Y0.9271
X1.3739Y0.2578
X1.3739Y-0.4115
X1.3739Y-1.0808
X1.6455Y-1.8525
X1.6495Y1.0215
X1.6495Y0.3523
X1.6495Y-0.317
X1.6495Y-0.9863
X2.0786Y-1.8525
X2.0825Y1.0215
X2.0825Y0.3523
X2.0825Y-0.317
X2.0825Y-0.9863
X2.3581Y1.0727
X2.3581Y0.4034
X2.3581Y-0.2659
X2.3581Y-0.9351
X2.3581Y-1.8013
X2.7912Y1.0727
X2.7912Y0.4034
X2.7912Y-0.2659
X2.7912Y-0.9351
X2.7912Y-1.8013
X3.0668Y1.0215
X3.0668Y0.3523
X3.0668Y-0.317
X3.0668Y-0.9863
X3.4999Y1.0215
X3.4999Y0.3523
X3.4999Y-0.317
X3.4999Y-0.9863
X3.7755Y0.8247
X3.7755Y0.1554
X3.7755Y-0.5139
X3.7755Y-1.1832
X4.2085Y0.8247
X4.2085Y0.1554
X4.2085Y-0.5139
X4.2085Y-1.1832
X4.4841Y0.7853
X4.4841Y0.116
X4.4841Y-0.5533
X4.4841Y-1.2225
X4.9172Y0.7853
X4.9172Y0.116
X4.9172Y-0.5533
X4.9172Y-1.2225
T4
X-5.265Y0.7853
X-5.265Y0.116
X-5.265Y-0.5533
X-5.265Y-1.2225
X-4.5564Y0.8247
X-4.5564Y0.1554
X-4.5564Y-0.5139
X-4.5564Y-1.1832
X-3.8477Y1.0215
X-3.8477Y0.3523
X-3.8477Y-0.317
X-3.8477Y-0.9863
X-3.1391Y1.0727
X-3.1391Y0.4034
X-3.1391Y-0.2659
X-3.1391Y-0.9351
X-3.1391Y-1.8013
X-2.4304Y1.0215
X-2.4304Y0.3523
X-2.4304Y-0.317
X-2.4304Y-0.9863
X-2.4265Y-1.8525
X-1.7217Y0.9271
X-1.7217Y0.2578
X-1.7217Y-0.4115
X-1.7217Y-1.0808
X-1.4304Y-1.8603
X0.866Y-1.8603
X1.1574Y0.9271
X1.1574Y0.2578
X1.1574Y-0.4115
X1.1574Y-1.0808
X1.8621Y-1.8525
X1.866Y1.0215
X1.866Y0.3523
X1.866Y-0.317
X1.866Y-0.9863
X2.5747Y1.0727
X2.5747Y0.4034
X2.5747Y-0.2659
X2.5747Y-0.9351
X2.5747Y-1.8013
X3.2833Y1.0215
X3.2833Y0.3523
X3.2833Y-0.317
X3.2833Y-0.9863
X3.992Y0.8247
X3.992Y0.1554
X3.992Y-0.5139
X3.992Y-1.1832
X4.7007Y0.7853
X4.7007Y0.116
X4.7007Y-0.5533
X4.7007Y-1.2225
T5
X-4.9107Y0.4773
X-4.9107Y-0.8692
X-2.0761Y-0.6999
X-2.0721Y0.6387
X-1.2975Y-1.317
X-0.7267Y0.7223
X0.1623Y0.7223
X0.7331Y-1.317
X1.5077Y0.6387
X1.5117Y-0.6999
X4.3463Y0.4773
X4.3463Y-0.8692
T0
M30
