G04 #@! TF.GenerationSoftware,KiCad,Pcbnew,(5.99.0-8557-g8988e46ab1)*
G04 #@! TF.CreationDate,2021-01-24T23:32:50-07:00*
G04 #@! TF.ProjectId,Panel,50616e65-6c2e-46b6-9963-61645f706362,rev?*
G04 #@! TF.SameCoordinates,PX85099e0PY51bada0*
G04 #@! TF.FileFunction,Soldermask,Bot*
G04 #@! TF.FilePolarity,Negative*
%FSLAX46Y46*%
G04 Gerber Fmt 4.6, Leading zero omitted, Abs format (unit mm)*
G04 Created by KiCad (PCBNEW (5.99.0-8557-g8988e46ab1)) date 2021-01-24 23:32:50*
%MOMM*%
%LPD*%
G01*
G04 APERTURE LIST*
G04 Aperture macros list*
%AMRoundRect*
0 Rectangle with rounded corners*
0 $1 Rounding radius*
0 $2 $3 $4 $5 $6 $7 $8 $9 X,Y pos of 4 corners*
0 Add a 4 corners polygon primitive as box body*
4,1,4,$2,$3,$4,$5,$6,$7,$8,$9,$2,$3,0*
0 Add four circle primitives for the rounded corners*
1,1,$1+$1,$2,$3*
1,1,$1+$1,$4,$5*
1,1,$1+$1,$6,$7*
1,1,$1+$1,$8,$9*
0 Add four rect primitives between the rounded corners*
20,1,$1+$1,$2,$3,$4,$5,0*
20,1,$1+$1,$4,$5,$6,$7,0*
20,1,$1+$1,$6,$7,$8,$9,0*
20,1,$1+$1,$8,$9,$2,$3,0*%
%AMRotRect*
0 Rectangle, with rotation*
0 The origin of the aperture is its center*
0 $1 length*
0 $2 width*
0 $3 Rotation angle, in degrees counterclockwise*
0 Add horizontal line*
21,1,$1,$2,0,0,$3*%
G04 Aperture macros list end*
%ADD10C,1.900000*%
%ADD11C,3.400000*%
%ADD12C,2.000000*%
%ADD13C,0.800000*%
%ADD14R,1.700000X1.700000*%
%ADD15O,1.700000X1.700000*%
%ADD16C,4.300000*%
%ADD17R,2.000000X2.000000*%
%ADD18R,3.200000X2.000000*%
%ADD19R,1.050000X1.200000*%
%ADD20R,0.900000X1.200000*%
%ADD21R,1.200000X0.900000*%
%ADD22R,0.540000X0.800000*%
%ADD23R,0.300000X0.800000*%
%ADD24C,1.000000*%
%ADD25R,1.000000X0.650000*%
%ADD26R,0.650000X1.000000*%
%ADD27RoundRect,0.150000X-0.150000X0.512500X-0.150000X-0.512500X0.150000X-0.512500X0.150000X0.512500X0*%
%ADD28C,0.900000*%
%ADD29R,1.524000X0.600000*%
%ADD30R,0.700000X1.200000*%
%ADD31RoundRect,0.237500X0.250000X0.237500X-0.250000X0.237500X-0.250000X-0.237500X0.250000X-0.237500X0*%
%ADD32RoundRect,0.237500X-0.300000X-0.237500X0.300000X-0.237500X0.300000X0.237500X-0.300000X0.237500X0*%
%ADD33RoundRect,0.237500X-0.237500X0.250000X-0.237500X-0.250000X0.237500X-0.250000X0.237500X0.250000X0*%
%ADD34R,1.700000X0.900000*%
%ADD35RoundRect,0.237500X0.237500X-0.250000X0.237500X0.250000X-0.237500X0.250000X-0.237500X-0.250000X0*%
%ADD36RoundRect,0.237500X-0.237500X0.300000X-0.237500X-0.300000X0.237500X-0.300000X0.237500X0.300000X0*%
%ADD37RoundRect,0.237500X-0.250000X-0.237500X0.250000X-0.237500X0.250000X0.237500X-0.250000X0.237500X0*%
%ADD38R,1.000000X1.000000*%
%ADD39R,0.800000X0.900000*%
%ADD40RoundRect,0.237500X0.300000X0.237500X-0.300000X0.237500X-0.300000X-0.237500X0.300000X-0.237500X0*%
%ADD41R,1.550000X1.200000*%
%ADD42R,1.800000X1.200000*%
%ADD43RoundRect,0.150000X0.150000X-0.512500X0.150000X0.512500X-0.150000X0.512500X-0.150000X-0.512500X0*%
%ADD44RotRect,0.900000X1.200000X30.000000*%
%ADD45RotRect,0.900000X1.200000X330.000000*%
%ADD46RoundRect,0.237500X0.237500X-0.300000X0.237500X0.300000X-0.237500X0.300000X-0.237500X-0.300000X0*%
%ADD47RoundRect,0.150000X-0.512500X-0.150000X0.512500X-0.150000X0.512500X0.150000X-0.512500X0.150000X0*%
G04 APERTURE END LIST*
D10*
X-85232246Y-6752764D03*
D11*
X-79732246Y-6752764D03*
D10*
X-74232246Y-6752764D03*
D12*
X-84732246Y-10452764D03*
X-79732246Y-12652764D03*
D10*
X-110232246Y-13052764D03*
D11*
X-115732246Y-13052764D03*
D10*
X-121232246Y-13052764D03*
D12*
X-120732246Y-16752764D03*
X-115732246Y-18952764D03*
D13*
X-75732242Y37047236D03*
X-74832242Y37047236D03*
X-73932242Y37047236D03*
X-73032242Y37047236D03*
X-76632242Y37047236D03*
D14*
X-52932246Y22847236D03*
D15*
X-52932246Y25387236D03*
X-52932246Y27927236D03*
X-52932246Y30467236D03*
D13*
X-8117770Y-39452764D03*
X-6217770Y-40352764D03*
X-6217770Y-43052764D03*
X-6217770Y-39452764D03*
X-6217770Y-41252764D03*
X-8117770Y-40352764D03*
X-8117770Y-43052764D03*
X-8117770Y-41252764D03*
X-8117770Y-42152764D03*
X-6217770Y-42152764D03*
D10*
X-56132246Y-47052764D03*
X-67132246Y-47052764D03*
D11*
X-61632246Y-47052764D03*
D12*
X-66632246Y-50752764D03*
X-61632246Y-52952764D03*
D10*
X-49232246Y-10452764D03*
X-38232246Y-10452764D03*
D11*
X-43732246Y-10452764D03*
D12*
X-48732246Y-14152764D03*
X-43732246Y-16352764D03*
D13*
X78892678Y37028565D03*
X77992678Y37028565D03*
X79792678Y37028565D03*
X80692678Y37028565D03*
X77092678Y37028565D03*
D10*
X41796706Y-47052764D03*
D11*
X47296706Y-47052764D03*
D10*
X52796706Y-47052764D03*
D12*
X42296706Y-50752764D03*
X47296706Y-52952764D03*
D10*
X-103232246Y-25052764D03*
D11*
X-97732246Y-25052764D03*
D10*
X-92232246Y-25052764D03*
D12*
X-102732246Y-28752764D03*
X-97732246Y-30952764D03*
D11*
X47396706Y25947236D03*
D10*
X52896706Y25947236D03*
X41896706Y25947236D03*
D12*
X42396706Y22247236D03*
X47396706Y20047236D03*
D16*
X38396706Y-17777764D03*
D10*
X113896706Y-14052764D03*
D11*
X119396706Y-14052764D03*
D10*
X124896706Y-14052764D03*
D12*
X114396706Y-17752764D03*
X119396706Y-19952764D03*
D11*
X-97732246Y-8052764D03*
D10*
X-103232246Y-8052764D03*
X-92232246Y-8052764D03*
D12*
X-102732246Y-11752764D03*
X-97732246Y-13952764D03*
D10*
X-110232246Y20947236D03*
D11*
X-115732246Y20947236D03*
D10*
X-121232246Y20947236D03*
D12*
X-120732246Y17247236D03*
X-115732246Y15047236D03*
D10*
X34896706Y6547236D03*
D11*
X29396706Y6547236D03*
D10*
X23896706Y6547236D03*
D12*
X24396706Y2847236D03*
X29396706Y647236D03*
D10*
X-128232246Y2947236D03*
X-139232246Y2947236D03*
D11*
X-133732246Y2947236D03*
D12*
X-138732246Y-752764D03*
X-133732246Y-2952764D03*
D10*
X77896706Y-8052764D03*
D11*
X83396706Y-8052764D03*
D10*
X88896706Y-8052764D03*
D12*
X78396706Y-11752764D03*
X83396706Y-13952764D03*
D13*
X-107835048Y-40852764D03*
X-106035048Y-40852764D03*
X-108735048Y-40852764D03*
X-105135048Y-40852764D03*
X-106935048Y-40852764D03*
D11*
X-61732246Y25947236D03*
D10*
X-56232246Y25947236D03*
X-67232246Y25947236D03*
D12*
X-66732246Y22247236D03*
X-61732246Y20047236D03*
D16*
X18621706Y-33452764D03*
D11*
X-79732246Y-45752764D03*
D10*
X-74232246Y-45752764D03*
X-85232246Y-45752764D03*
D12*
X-84732246Y-49452764D03*
X-79732246Y-51652764D03*
D13*
X12707230Y31947236D03*
X10907230Y31947236D03*
X11807230Y31947236D03*
X10007230Y31947236D03*
X13607230Y31947236D03*
D10*
X-139232246Y19947236D03*
D11*
X-133732246Y19947236D03*
D10*
X-128232246Y19947236D03*
D12*
X-138732246Y16247236D03*
X-133732246Y14047236D03*
D16*
X110396706Y-22077764D03*
D13*
X-15621030Y-49030005D03*
X-17421030Y-49030005D03*
X-14721030Y-49030005D03*
X-13821030Y-49030005D03*
X-16521030Y-49030005D03*
D11*
X29396706Y-10452764D03*
D10*
X34896706Y-10452764D03*
X23896706Y-10452764D03*
D12*
X24396706Y-14152764D03*
X29396706Y-16352764D03*
D10*
X-41095386Y-50002764D03*
D11*
X-36332246Y-47252764D03*
D10*
X-31569106Y-44502764D03*
D12*
X-38812373Y-52957058D03*
X-33382246Y-52362314D03*
D13*
X-93232242Y37047236D03*
X-94132242Y37047236D03*
X-92332242Y37047236D03*
X-90532242Y37047236D03*
X-91432242Y37047236D03*
D10*
X23896706Y23547236D03*
D11*
X29396706Y23547236D03*
D10*
X34896706Y23547236D03*
D12*
X24396706Y19847236D03*
X29396706Y17647236D03*
D11*
X-61732246Y-25052764D03*
D10*
X-56232246Y-25052764D03*
X-67232246Y-25052764D03*
D12*
X-66732246Y-28752764D03*
X-61732246Y-30952764D03*
D10*
X70896706Y-23752764D03*
X59896706Y-23752764D03*
D11*
X65396706Y-23752764D03*
D12*
X60396706Y-27452764D03*
X65396706Y-29652764D03*
D10*
X88896706Y-25052764D03*
D11*
X83396706Y-25052764D03*
D10*
X77896706Y-25052764D03*
D12*
X78396706Y-28752764D03*
X83396706Y-30952764D03*
D11*
X-43732246Y6547236D03*
D10*
X-38232246Y6547236D03*
X-49232246Y6547236D03*
D12*
X-48732246Y2847236D03*
X-43732246Y647236D03*
D10*
X-49232246Y-27452764D03*
D11*
X-43732246Y-27452764D03*
D10*
X-38232246Y-27452764D03*
D12*
X-48732246Y-31152764D03*
X-43732246Y-33352764D03*
D13*
X59658864Y37028565D03*
X58758864Y37028565D03*
X61458864Y37028565D03*
X57858864Y37028565D03*
X60558864Y37028565D03*
D17*
X-14032246Y-25052764D03*
D12*
X-14032246Y-20052764D03*
X-14032246Y-22552764D03*
D18*
X-21532246Y-28152764D03*
X-21532246Y-16952764D03*
D12*
X-28532246Y-20052764D03*
X-28532246Y-25052764D03*
D11*
X47396706Y-25052764D03*
D10*
X52896706Y-25052764D03*
X41896706Y-25052764D03*
D12*
X42396706Y-28752764D03*
X47396706Y-30952764D03*
D10*
X-74232246Y-23752764D03*
D11*
X-79732246Y-23752764D03*
D10*
X-85232246Y-23752764D03*
D12*
X-84732246Y-27452764D03*
X-79732246Y-29652764D03*
D11*
X101396706Y3947236D03*
D10*
X95896706Y3947236D03*
X106896706Y3947236D03*
D12*
X96396706Y247236D03*
X101396706Y-1952764D03*
D11*
X-97732246Y25947236D03*
D10*
X-103232246Y25947236D03*
X-92232246Y25947236D03*
D12*
X-102732246Y22247236D03*
X-97732246Y20047236D03*
D16*
X38296706Y16222236D03*
D10*
X59896706Y10247236D03*
D11*
X65396706Y10247236D03*
D10*
X70896706Y10247236D03*
D12*
X60396706Y6547236D03*
X65396706Y4347236D03*
D13*
X124457703Y29713221D03*
X122657703Y29713221D03*
X121757703Y29713221D03*
X123557703Y29713221D03*
X120857703Y29713221D03*
D10*
X41896706Y-8052764D03*
D11*
X47396706Y-8052764D03*
D10*
X52896706Y-8052764D03*
D12*
X42396706Y-11752764D03*
X47396706Y-13952764D03*
D11*
X101396706Y-13052764D03*
D10*
X95896706Y-13052764D03*
X106896706Y-13052764D03*
D12*
X96396706Y-16752764D03*
X101396706Y-18952764D03*
D13*
X-6217770Y3197236D03*
X-8117770Y4097236D03*
X-6217770Y6797236D03*
X-8117770Y3197236D03*
X-8117770Y5897236D03*
X-6217770Y4097236D03*
X-8117770Y6797236D03*
X-8117770Y4997236D03*
X-6217770Y5897236D03*
X-6217770Y4997236D03*
D10*
X34896706Y-27452764D03*
D11*
X29396706Y-27452764D03*
D10*
X23896706Y-27452764D03*
D12*
X24396706Y-31152764D03*
X29396706Y-33352764D03*
D13*
X-8117770Y23747236D03*
X-6217770Y22847236D03*
X-8117770Y22847236D03*
X-8117770Y21947236D03*
X-6217770Y25547236D03*
X-6217770Y23747236D03*
X-8117770Y25547236D03*
X-6217770Y24647236D03*
X-8117770Y24647236D03*
X-6217770Y21947236D03*
D10*
X-139232246Y-14052764D03*
D11*
X-133732246Y-14052764D03*
D10*
X-128232246Y-14052764D03*
D12*
X-138732246Y-17752764D03*
X-133732246Y-19952764D03*
D10*
X113896706Y2947236D03*
X124896706Y2947236D03*
D11*
X119396706Y2947236D03*
D12*
X114396706Y-752764D03*
X119396706Y-2952764D03*
D11*
X-61732246Y-8052764D03*
D10*
X-67232246Y-8052764D03*
X-56232246Y-8052764D03*
D12*
X-66732246Y-11752764D03*
X-61732246Y-13952764D03*
D13*
X-8117770Y-22152764D03*
X-8117770Y-21252764D03*
X-6217770Y-20352764D03*
X-6217770Y-22152764D03*
X-8117770Y-23052764D03*
X-6217770Y-19452764D03*
X-8117770Y-19452764D03*
X-8117770Y-20352764D03*
X-6217770Y-21252764D03*
X-6217770Y-23052764D03*
D16*
X4121706Y18347236D03*
D13*
X-27867770Y31947236D03*
X-26967770Y31947236D03*
X-25167770Y31947236D03*
X-24267770Y31947236D03*
X-26067770Y31947236D03*
X-138735048Y-40852764D03*
X-136035048Y-40852764D03*
X-136935048Y-40852764D03*
X-137835048Y-40852764D03*
X-135135048Y-40852764D03*
X-134743243Y29713221D03*
X-135643243Y29713221D03*
X-136543243Y29713221D03*
X-138343243Y29713221D03*
X-137443243Y29713221D03*
D11*
X65396706Y-6752764D03*
D10*
X70896706Y-6752764D03*
X59896706Y-6752764D03*
D12*
X60396706Y-10452764D03*
X65396706Y-12652764D03*
D11*
X47396706Y8947236D03*
D10*
X52896706Y8947236D03*
X41896706Y8947236D03*
D12*
X42396706Y5247236D03*
X47396706Y3047236D03*
D10*
X77896706Y25947236D03*
X88896706Y25947236D03*
D11*
X83396706Y25947236D03*
D12*
X78396706Y22247236D03*
X83396706Y20047236D03*
D13*
X-82835048Y-56852763D03*
X-81935048Y-56852763D03*
X-83735048Y-56852763D03*
X-81035048Y-56852763D03*
X-80135048Y-56852763D03*
D10*
X95896706Y-30052764D03*
D11*
X101396706Y-30052764D03*
D10*
X106896706Y-30052764D03*
D12*
X96396706Y-33752764D03*
X101396706Y-35952764D03*
D16*
X110396706Y12122236D03*
D13*
X-58424221Y-56852763D03*
X-56624221Y-56852763D03*
X-55724221Y-56852763D03*
X-57524221Y-56852763D03*
X-59324221Y-56852763D03*
D10*
X-56232246Y8947236D03*
X-67232246Y8947236D03*
D11*
X-61732246Y8947236D03*
D12*
X-66732246Y5247236D03*
X-61732246Y3047236D03*
D10*
X124896706Y-31052764D03*
D11*
X119396706Y-31052764D03*
D10*
X113896706Y-31052764D03*
D12*
X114396706Y-34752764D03*
X119396706Y-36952764D03*
D11*
X-115732246Y3947236D03*
D10*
X-110232246Y3947236D03*
X-121232246Y3947236D03*
D12*
X-120732246Y247236D03*
X-115732246Y-1952764D03*
D10*
X106896706Y20947236D03*
D11*
X101396706Y20947236D03*
D10*
X95896706Y20947236D03*
D12*
X96396706Y17247236D03*
X101396706Y15047236D03*
D10*
X-49232246Y23547236D03*
D11*
X-43732246Y23547236D03*
D10*
X-38232246Y23547236D03*
D12*
X-48732246Y19847236D03*
X-43732246Y17647236D03*
D10*
X-139232246Y-31052764D03*
D11*
X-133732246Y-31052764D03*
D10*
X-128232246Y-31052764D03*
D12*
X-138732246Y-34752764D03*
X-133732246Y-36952764D03*
D10*
X59896706Y27247236D03*
X70896706Y27247236D03*
D11*
X65396706Y27247236D03*
D12*
X60396706Y23547236D03*
X65396706Y21347236D03*
D10*
X113896706Y19947236D03*
X124896706Y19947236D03*
D11*
X119396706Y19947236D03*
D12*
X114396706Y16247236D03*
X119396706Y14047236D03*
D10*
X-103232246Y8947236D03*
X-92232246Y8947236D03*
D11*
X-97732246Y8947236D03*
D12*
X-102732246Y5247236D03*
X-97732246Y3047236D03*
D10*
X77896706Y8947236D03*
X88896706Y8947236D03*
D11*
X83396706Y8947236D03*
D12*
X78396706Y5247236D03*
X83396706Y3047236D03*
D10*
X-74232246Y10247236D03*
D11*
X-79732246Y10247236D03*
D10*
X-85232246Y10247236D03*
D12*
X-84732246Y6547236D03*
X-79732246Y4347236D03*
D17*
X-303294Y-20052764D03*
D12*
X-303294Y-25052764D03*
X-303294Y-22552764D03*
D18*
X7196706Y-28152764D03*
X7196706Y-16952764D03*
D12*
X14196706Y-25052764D03*
X14196706Y-20052764D03*
D10*
X-74232246Y27247236D03*
D11*
X-79732246Y27247236D03*
D10*
X-85232246Y27247236D03*
D12*
X-84732246Y23547236D03*
X-79732246Y21347236D03*
D10*
X-110232246Y-30052764D03*
X-121232246Y-30052764D03*
D11*
X-115732246Y-30052764D03*
D12*
X-120732246Y-33752764D03*
X-115732246Y-35952764D03*
D10*
X17233566Y-44502764D03*
D11*
X21996706Y-47252764D03*
D10*
X26759846Y-50002764D03*
D12*
X15816579Y-47957058D03*
X19046706Y-52362314D03*
D11*
X65396706Y-45752764D03*
D10*
X59896706Y-45752764D03*
X70896706Y-45752764D03*
D12*
X60396706Y-49452764D03*
X65396706Y-51652764D03*
D19*
X23582661Y11084736D03*
X25232661Y11084736D03*
D20*
X-99332246Y13697236D03*
X-96032246Y13697236D03*
X63746706Y-2002764D03*
X67046706Y-2002764D03*
X-135332246Y7697236D03*
X-132032246Y7697236D03*
D13*
X1285490Y-49021387D03*
X3085490Y-49021387D03*
X385490Y-49021387D03*
X-514510Y-49021387D03*
X2185490Y-49021387D03*
D21*
X-32232246Y-27702763D03*
X-32232246Y-24402763D03*
D13*
X93499508Y-40844146D03*
X91699508Y-40844146D03*
X94399508Y-40844146D03*
X90799508Y-40844146D03*
X92599508Y-40844146D03*
D22*
X-14832246Y24972236D03*
X-21232246Y24972236D03*
X-20432246Y24972236D03*
X-15632246Y24972236D03*
D23*
X-19282246Y24972236D03*
X-18282246Y24972236D03*
X-17782246Y24972236D03*
X-16782246Y24972236D03*
X-16282246Y24972236D03*
X-17282246Y24972236D03*
X-18782246Y24972236D03*
X-19790246Y24972236D03*
D24*
X-12457246Y26253236D03*
X-23607846Y25990536D03*
X-23607546Y29902136D03*
X-23607846Y26253236D03*
X-12456946Y29571936D03*
X-12457246Y25990536D03*
X-12457246Y25491236D03*
X-23607546Y29559236D03*
X-12456946Y30219636D03*
X-23607246Y30486336D03*
X-12456946Y29279836D03*
X-23607546Y25736536D03*
X-12456946Y29914836D03*
X-12456946Y25736536D03*
X-23607546Y30206936D03*
X-23607846Y25491236D03*
X-23607546Y29267136D03*
X-12456646Y30499036D03*
D20*
X45946706Y-3252764D03*
X49246706Y-3252764D03*
D16*
X-18457246Y18347236D03*
D20*
X-81382246Y31997236D03*
X-78082246Y31997236D03*
D25*
X-28774201Y26377236D03*
X-28774201Y25107236D03*
X-28774201Y23837236D03*
X-28774201Y22567236D03*
X-28774201Y21297236D03*
X-28774201Y20027236D03*
X-28774201Y18757236D03*
X-28774201Y17487236D03*
X-28774201Y16217236D03*
X-28774201Y14947236D03*
D26*
X-30423201Y12728236D03*
X-31693201Y12728236D03*
X-32963201Y12728236D03*
X-34233201Y12728236D03*
X-35503201Y12728236D03*
X-36773201Y12728236D03*
X-38043201Y12728236D03*
X-39313201Y12728236D03*
D25*
X-41012201Y14947236D03*
X-41012201Y16217236D03*
X-38934201Y16979236D03*
X-41012201Y17487236D03*
X-38934201Y18249236D03*
X-41012201Y18757236D03*
X-41012201Y20027236D03*
X-41012201Y21297236D03*
X-41012201Y22567236D03*
X-41012201Y23837236D03*
X-41012201Y25107236D03*
X-41012201Y26377236D03*
D20*
X-81382246Y-2002764D03*
X-78082246Y-2002764D03*
X63746706Y14997236D03*
X67046706Y14997236D03*
X-99332246Y-3302764D03*
X-96032246Y-3302764D03*
D27*
X11921706Y10284736D03*
X12871706Y10284736D03*
X13821706Y10284736D03*
X13821706Y8009736D03*
X11921706Y8009736D03*
D20*
X-117332246Y-25302764D03*
X-114032246Y-25302764D03*
D28*
X-3728294Y19247236D03*
X-3728294Y16247236D03*
D29*
X-1478294Y15497236D03*
X-1478294Y18497236D03*
X-1478294Y19997236D03*
D30*
X-2578294Y14147236D03*
X-4878294Y14147236D03*
X-4878294Y21347236D03*
X-2578294Y21347236D03*
D20*
X-117382246Y-8302764D03*
X-114082246Y-8302764D03*
X-81382246Y-40952764D03*
X-78082246Y-40952764D03*
X45946706Y30647236D03*
X49246706Y30647236D03*
D31*
X-428294Y23347236D03*
X-2253294Y23347236D03*
D20*
X99696706Y-25302764D03*
X102996706Y-25302764D03*
X-63582246Y30647236D03*
X-60282246Y30647236D03*
X81696706Y-20302764D03*
X84996706Y-20302764D03*
X-99332246Y-20302764D03*
X-96032246Y-20302764D03*
X-117382246Y8697236D03*
X-114082246Y8697236D03*
X-63582246Y-3252764D03*
X-60282246Y-3252764D03*
D32*
X-17057246Y5947236D03*
X-15332246Y5947236D03*
D16*
X-124732246Y12122236D03*
D33*
X-4103294Y26159736D03*
X-4103294Y24334736D03*
D34*
X-10757246Y11847236D03*
X-10757246Y8447236D03*
X-3578294Y8447236D03*
X-3578294Y11847236D03*
D35*
X-13657246Y7534736D03*
X-13657246Y9359736D03*
D20*
X45646706Y13747236D03*
X48946706Y13747236D03*
D13*
X68499508Y-56844145D03*
X67599508Y-56844145D03*
X69399508Y-56844145D03*
X66699508Y-56844145D03*
X65799508Y-56844145D03*
D36*
X-22032246Y13509736D03*
X-22032246Y11784736D03*
D37*
X-13544746Y23847236D03*
X-11719746Y23847236D03*
D28*
X-10607246Y16247236D03*
X-10607246Y19247236D03*
D29*
X-12857246Y19997236D03*
X-12857246Y16997236D03*
X-12857246Y15497236D03*
D30*
X-9457246Y14147236D03*
X-9457246Y21347236D03*
X-11757246Y14147236D03*
X-11757246Y21347236D03*
D16*
X-52632246Y16222236D03*
D20*
X45746706Y-42252764D03*
X49046706Y-42252764D03*
D13*
X124399508Y-40844146D03*
X121699508Y-40844146D03*
X122599508Y-40844146D03*
X123499508Y-40844146D03*
X120799508Y-40844146D03*
D20*
X63746706Y-40952764D03*
X67046706Y-40952764D03*
X-45382246Y28297236D03*
X-42082246Y28297236D03*
X99746706Y-8302764D03*
X103046706Y-8302764D03*
D25*
X26676661Y26377236D03*
X26676661Y25107236D03*
X26676661Y23837236D03*
X26676661Y22567236D03*
X26676661Y21297236D03*
X26676661Y20027236D03*
X26676661Y18757236D03*
X26676661Y17487236D03*
X26676661Y16217236D03*
X26676661Y14947236D03*
D26*
X25027661Y12728236D03*
X23757661Y12728236D03*
X22487661Y12728236D03*
X21217661Y12728236D03*
X19947661Y12728236D03*
X18677661Y12728236D03*
X17407661Y12728236D03*
X16137661Y12728236D03*
D25*
X14438661Y14947236D03*
X14438661Y16217236D03*
X16516661Y16979236D03*
X14438661Y17487236D03*
X16516661Y18249236D03*
X14438661Y18757236D03*
X14438661Y20027236D03*
X14438661Y21297236D03*
X14438661Y22567236D03*
X14438661Y23837236D03*
X14438661Y25107236D03*
X14438661Y26377236D03*
D20*
X99746706Y25697236D03*
X103046706Y25697236D03*
D38*
X3171706Y11447236D03*
X671706Y11447236D03*
X-17507246Y11447236D03*
X-15007246Y11447236D03*
D20*
X63746706Y31997236D03*
X67046706Y31997236D03*
D39*
X-15282246Y7447236D03*
X-17182246Y7447236D03*
X-16232246Y9447236D03*
D20*
X-81382246Y14997236D03*
X-78082246Y14997236D03*
D37*
X-38469746Y147236D03*
X-36644746Y147236D03*
D20*
X-135332246Y-9302764D03*
X-132032246Y-9302764D03*
X-99382246Y30697236D03*
X-96082246Y30697236D03*
D16*
X-124732246Y-22077764D03*
D36*
X6121706Y9609736D03*
X6121706Y7884736D03*
D20*
X-135382246Y-26302764D03*
X-132082246Y-26302764D03*
D33*
X-10232246Y26159736D03*
X-10232246Y24334736D03*
D20*
X-63382246Y-42252764D03*
X-60082246Y-42252764D03*
X81696706Y13697236D03*
X84996706Y13697236D03*
X117746706Y24697236D03*
X121046706Y24697236D03*
X-81582246Y-19052764D03*
X-78282246Y-19052764D03*
D40*
X2721706Y5947236D03*
X996706Y5947236D03*
D37*
X22309206Y147236D03*
X24134206Y147236D03*
X8409206Y23697236D03*
X10234206Y23697236D03*
D20*
X-117382246Y25697236D03*
X-114082246Y25697236D03*
X81746706Y30697236D03*
X85046706Y30697236D03*
D41*
X15721706Y8597236D03*
X15721706Y6997236D03*
D42*
X19596706Y9597236D03*
X19596706Y5997236D03*
D31*
X-36644746Y-1452764D03*
X-38469746Y-1452764D03*
D14*
X19621706Y17047236D03*
D15*
X19621706Y19587236D03*
X19621706Y22127236D03*
X19621706Y24667236D03*
D16*
X-52732246Y-17777764D03*
D20*
X117746706Y-26302764D03*
X121046706Y-26302764D03*
X-135382246Y24697236D03*
X-132082246Y24697236D03*
D31*
X-22444746Y6247236D03*
X-24269746Y6247236D03*
D39*
X946706Y9447236D03*
X2846706Y9447236D03*
X1896706Y7447236D03*
D20*
X45746706Y-20352764D03*
X49046706Y-20352764D03*
X-63382246Y-20352764D03*
X-60082246Y-20352764D03*
X27696706Y11297236D03*
X30996706Y11297236D03*
X-45382246Y-5702764D03*
X-42082246Y-5702764D03*
D43*
X-23682246Y11647236D03*
X-24632246Y11647236D03*
X-25582246Y11647236D03*
X-25582246Y13922236D03*
X-23682246Y13922236D03*
D20*
X117696706Y-9302764D03*
X120996706Y-9302764D03*
D41*
X-29782246Y6947236D03*
X-29782246Y8547236D03*
D42*
X-33657246Y5947236D03*
X-33657246Y9547236D03*
D20*
X-45332246Y11297236D03*
X-42032246Y11297236D03*
X63946706Y-19052764D03*
X67246706Y-19052764D03*
D33*
X11921706Y26159736D03*
X11921706Y24334736D03*
X-678294Y9359736D03*
X-678294Y7534736D03*
D20*
X27746706Y-22702764D03*
X31046706Y-22702764D03*
D31*
X24134206Y-1452764D03*
X22309206Y-1452764D03*
D20*
X117696706Y7697236D03*
X120996706Y7697236D03*
D44*
X-40188945Y-44027764D03*
X-37331061Y-42377764D03*
D31*
X-22432246Y23847236D03*
X-24257246Y23847236D03*
D45*
X22995521Y-42377764D03*
X25853405Y-44027764D03*
D16*
X-32957246Y-33452764D03*
D46*
X-19832246Y7884736D03*
X-19832246Y9609736D03*
D32*
X-34994746Y11147236D03*
X-33269746Y11147236D03*
D20*
X99746706Y8697236D03*
X103046706Y8697236D03*
D19*
X-31657246Y11047236D03*
X-30007246Y11047236D03*
D47*
X-24494746Y7797236D03*
X-24494746Y8747236D03*
X-24494746Y9697236D03*
X-22219746Y9697236D03*
X-22219746Y7797236D03*
X7884206Y7797236D03*
X7884206Y8747236D03*
X7884206Y9697236D03*
X10159206Y9697236D03*
X10159206Y7797236D03*
D32*
X12059206Y6247236D03*
X13784206Y6247236D03*
D20*
X81696706Y-3302764D03*
X84996706Y-3302764D03*
D13*
X44088681Y-56844145D03*
X42288681Y-56844145D03*
X41388681Y-56844145D03*
X43188681Y-56844145D03*
X44988681Y-56844145D03*
D21*
X17896706Y-27702763D03*
X17896706Y-24402763D03*
D31*
X9934206Y6247236D03*
X8109206Y6247236D03*
D33*
X-26257246Y26159736D03*
X-26257246Y24334736D03*
D22*
X6896706Y24972236D03*
X496706Y24972236D03*
X6096706Y24972236D03*
X1296706Y24972236D03*
D23*
X2446706Y24972236D03*
X3446706Y24972236D03*
X3946706Y24972236D03*
X4946706Y24972236D03*
X5446706Y24972236D03*
X4446706Y24972236D03*
X2946706Y24972236D03*
X1938706Y24972236D03*
D24*
X-1878594Y29902136D03*
X-1878894Y26253236D03*
X9272006Y30219636D03*
X9272006Y25736536D03*
X9272006Y29914836D03*
X-1878894Y25491236D03*
X9271706Y25990536D03*
X-1878594Y29267136D03*
X9272006Y29279836D03*
X-1878594Y25736536D03*
X9272006Y29571936D03*
X-1878294Y30486336D03*
X9271706Y26253236D03*
X-1878594Y29559236D03*
X-1878594Y30206936D03*
X-1878894Y25990536D03*
X9272306Y30499036D03*
X9271706Y25491236D03*
D36*
X-28394746Y12609736D03*
X-28394746Y10884736D03*
D20*
X-45382246Y-22702764D03*
X-42082246Y-22702764D03*
X27746706Y-5702764D03*
X31046706Y-5702764D03*
X27746706Y28297236D03*
X31046706Y28297236D03*
X-63282246Y13747236D03*
X-59982246Y13747236D03*
M02*
