G04 #@! TF.GenerationSoftware,KiCad,Pcbnew,(5.99.0-8557-g8988e46ab1)*
G04 #@! TF.CreationDate,2021-01-24T23:32:50-07:00*
G04 #@! TF.ProjectId,Panel,50616e65-6c2e-46b6-9963-61645f706362,rev?*
G04 #@! TF.SameCoordinates,PX85099e0PY51bada0*
G04 #@! TF.FileFunction,Legend,Bot*
G04 #@! TF.FilePolarity,Positive*
%FSLAX46Y46*%
G04 Gerber Fmt 4.6, Leading zero omitted, Abs format (unit mm)*
G04 Created by KiCad (PCBNEW (5.99.0-8557-g8988e46ab1)) date 2021-01-24 23:32:50*
%MOMM*%
%LPD*%
G01*
G04 APERTURE LIST*
%ADD10C,0.150000*%
%ADD11C,0.200000*%
%ADD12C,0.152000*%
%ADD13C,0.015000*%
%ADD14C,0.120000*%
%ADD15C,0.254000*%
G04 APERTURE END LIST*
D10*
X20953848Y9311522D02*
X23239563Y9311522D01*
X-37036101Y6627507D02*
X-34750386Y6627507D01*
D11*
X101848709Y30165796D02*
X101683363Y30155871D01*
X101619210Y30118832D01*
X101541500Y30031197D01*
X101500828Y29879409D01*
X101524310Y29764660D01*
X101561349Y29700506D01*
X101648984Y29622796D01*
X102053753Y29514338D01*
X102338454Y30576857D01*
X101984281Y30671757D01*
X101869531Y30648275D01*
X101805378Y30611236D01*
X101727668Y30523601D01*
X101700553Y30422409D01*
X101724035Y30307660D01*
X101761074Y30243506D01*
X101848709Y30165796D01*
X102202882Y30070896D01*
X100839446Y29839711D02*
X100954195Y29863193D01*
X101031906Y29950828D01*
X101275935Y30861558D01*
X100169113Y30778529D02*
X99979312Y30070183D01*
X100624478Y30656514D02*
X100475349Y30099957D01*
X100397638Y30012322D01*
X100282889Y29988840D01*
X100131100Y30029511D01*
X100043465Y30107222D01*
X100006426Y30171375D01*
X99082139Y30364809D02*
X99169774Y30287098D01*
X99372159Y30232869D01*
X99486908Y30256351D01*
X99564619Y30343986D01*
X99673076Y30748755D01*
X99649594Y30863504D01*
X99561959Y30941215D01*
X99359575Y30995444D01*
X99244825Y30971962D01*
X99167115Y30884327D01*
X99140001Y30783135D01*
X99618847Y30546371D01*
X98626774Y30486823D02*
X98461429Y30476899D01*
X98208448Y30544685D01*
X98120813Y30622395D01*
X98083774Y30686548D01*
X98060292Y30801298D01*
X98087407Y30902490D01*
X98165117Y30990125D01*
X98229270Y31027164D01*
X98344020Y31050646D01*
X98559962Y31047013D01*
X98674711Y31070495D01*
X98738864Y31107534D01*
X98816575Y31195169D01*
X98843689Y31296361D01*
X98820207Y31411110D01*
X98783168Y31475264D01*
X98695533Y31552974D01*
X98442553Y31620760D01*
X98277207Y31610836D01*
X97398910Y30761600D02*
X97513660Y30785081D01*
X97577813Y30822120D01*
X97655523Y30909755D01*
X97736867Y31213332D01*
X97713385Y31328081D01*
X97676346Y31392235D01*
X97588711Y31469945D01*
X97436922Y31510617D01*
X97322173Y31487135D01*
X97258020Y31450096D01*
X97180309Y31362461D01*
X97098966Y31058884D01*
X97122448Y30944135D01*
X97159487Y30879982D01*
X97247122Y30802271D01*
X97398910Y30761600D01*
X96930961Y31646189D02*
X96526192Y31754646D01*
X96589372Y30978515D02*
X96833402Y31889245D01*
X96809920Y32003994D01*
X96722285Y32081705D01*
X96621093Y32108819D01*
X95609170Y32379963D02*
X94970297Y31412345D01*
X94900825Y32569763D01*
X94570134Y32549914D02*
X94533095Y32614068D01*
X94445460Y32691778D01*
X94192479Y32759564D01*
X94077730Y32736082D01*
X94013576Y32699043D01*
X93935866Y32611408D01*
X93908752Y32510216D01*
X93918676Y32344871D01*
X94363143Y31575031D01*
X93705394Y31751274D01*
X92440491Y32090204D02*
X92725192Y33152722D01*
X92616734Y32747954D02*
X92529099Y32825664D01*
X92326715Y32879893D01*
X92211965Y32856411D01*
X92147812Y32819372D01*
X92070102Y32731737D01*
X91988759Y32428160D01*
X92012240Y32313411D01*
X92049279Y32249258D01*
X92136914Y32171547D01*
X92339299Y32117318D01*
X92454048Y32140800D01*
X91770158Y33029022D02*
X91327376Y32388462D01*
X91264196Y33164594D02*
X91327376Y32388462D01*
X91360783Y32108367D01*
X91397822Y32044214D01*
X91485457Y31966503D01*
X90009218Y33338178D02*
X89655045Y33433078D01*
X89354128Y32917193D02*
X89860089Y32781621D01*
X90144790Y33844139D01*
X89638829Y33979711D01*
X88291610Y33201893D02*
X88781354Y33612954D01*
X88898763Y33039207D02*
X89183464Y34101726D01*
X88778695Y34210183D01*
X88663946Y34186701D01*
X88599792Y34149662D01*
X88522082Y34062027D01*
X88481410Y33910239D01*
X88504892Y33795490D01*
X88541931Y33731336D01*
X88629566Y33653626D01*
X89034335Y33545168D01*
X87330283Y33459480D02*
X87836244Y33323908D01*
X88120945Y34386427D01*
D10*
X22110991Y6540094D02*
X22110991Y4254379D01*
X23253848Y5397236D02*
X20968134Y5397236D01*
X-36178958Y10056079D02*
X-36178958Y7770364D01*
X-35036101Y8913221D02*
X-37321815Y8913221D01*
D11*
X-101481912Y34346450D02*
X-101620143Y34255183D01*
X-101657182Y34191029D01*
X-101680663Y34076280D01*
X-101639992Y33924492D01*
X-101562281Y33836857D01*
X-101498128Y33799818D01*
X-101383379Y33776336D01*
X-100978610Y33884793D01*
X-101263311Y34947312D01*
X-101617483Y34852412D01*
X-101705118Y34774701D01*
X-101742157Y34710548D01*
X-101765639Y34595798D01*
X-101738525Y34494606D01*
X-101660814Y34406971D01*
X-101596661Y34369932D01*
X-101481912Y34346450D01*
X-101127739Y34441351D01*
X-102192916Y33559421D02*
X-102105281Y33637131D01*
X-102081800Y33751881D01*
X-102325829Y34662611D01*
X-103242851Y34037294D02*
X-103053050Y33328949D01*
X-102787486Y34159309D02*
X-102638357Y33602752D01*
X-102661839Y33488002D01*
X-102749474Y33410292D01*
X-102901262Y33369620D01*
X-103016011Y33393102D01*
X-103080165Y33430141D01*
X-103977338Y33135516D02*
X-103862588Y33112034D01*
X-103660204Y33166263D01*
X-103572569Y33243973D01*
X-103549087Y33358722D01*
X-103657544Y33763491D01*
X-103735255Y33851126D01*
X-103850004Y33874608D01*
X-104052389Y33820379D01*
X-104140024Y33742669D01*
X-104163506Y33627919D01*
X-104136391Y33526727D01*
X-103603316Y33561107D01*
X-104432703Y33013501D02*
X-104570934Y32922233D01*
X-104823914Y32854447D01*
X-104938664Y32877929D01*
X-105002817Y32914968D01*
X-105080528Y33002603D01*
X-105107642Y33103795D01*
X-105084160Y33218545D01*
X-105047121Y33282698D01*
X-104959486Y33360408D01*
X-104770659Y33465233D01*
X-104683024Y33542944D01*
X-104645985Y33607097D01*
X-104622503Y33721846D01*
X-104649618Y33823039D01*
X-104727328Y33910674D01*
X-104791481Y33947713D01*
X-104906231Y33971194D01*
X-105159211Y33903408D01*
X-105297443Y33812141D01*
X-105633452Y32637532D02*
X-105545817Y32715243D01*
X-105508778Y32779396D01*
X-105485297Y32894145D01*
X-105566640Y33197722D01*
X-105644350Y33285357D01*
X-105708503Y33322396D01*
X-105823253Y33345878D01*
X-105975041Y33305206D01*
X-106062676Y33227496D01*
X-106099715Y33163342D01*
X-106123197Y33048593D01*
X-106041854Y32745016D01*
X-105964143Y32657381D01*
X-105899990Y32620342D01*
X-105785241Y32596861D01*
X-105633452Y32637532D01*
X-106481002Y33169634D02*
X-106885771Y33061177D01*
X-106442990Y32420617D02*
X-106687019Y33331347D01*
X-106764730Y33418982D01*
X-106879479Y33442464D01*
X-106980672Y33415350D01*
X-107992594Y33144206D02*
X-108062066Y31986787D01*
X-108700940Y32954405D01*
X-108977402Y32771870D02*
X-109041555Y32808909D01*
X-109156305Y32832391D01*
X-109409285Y32764605D01*
X-109496920Y32686894D01*
X-109533959Y32622741D01*
X-109557441Y32507991D01*
X-109530326Y32406799D01*
X-109439059Y32268568D01*
X-108669219Y31824101D01*
X-109326969Y31647857D01*
X-110591871Y31308928D02*
X-110876572Y32371446D01*
X-110768115Y31966677D02*
X-110882864Y31990159D01*
X-111085249Y31935930D01*
X-111172884Y31858220D01*
X-111209923Y31794066D01*
X-111233405Y31679317D01*
X-111152061Y31375740D01*
X-111074351Y31288105D01*
X-111010198Y31251066D01*
X-110895448Y31227585D01*
X-110693064Y31281813D01*
X-110605429Y31359524D01*
X-111641806Y31786801D02*
X-111704986Y31010670D01*
X-112147767Y31651229D02*
X-111704986Y31010670D01*
X-111536008Y30784803D01*
X-111471855Y30747764D01*
X-111357105Y30724283D01*
X-113321402Y31174068D02*
X-113675575Y31079168D01*
X-113678234Y30481939D02*
X-113172273Y30617511D01*
X-113456974Y31680030D01*
X-113962935Y31544458D01*
X-114740753Y30197238D02*
X-114522152Y30798100D01*
X-114133600Y30359925D02*
X-114418300Y31422443D01*
X-114823069Y31313985D01*
X-114910704Y31236275D01*
X-114947743Y31172122D01*
X-114971225Y31057372D01*
X-114930554Y30905584D01*
X-114852843Y30817949D01*
X-114788690Y30780910D01*
X-114673940Y30757428D01*
X-114269171Y30865886D01*
X-115702079Y29939652D02*
X-115196118Y30075224D01*
X-115480819Y31137742D01*
D10*
X22372896Y11121046D02*
X22372896Y10644856D01*
X22706229Y11644856D02*
X22372896Y11121046D01*
X22039563Y11644856D01*
X21182420Y10644856D02*
X21753848Y10644856D01*
X21468134Y10644856D02*
X21468134Y11644856D01*
X21563372Y11501998D01*
X21658610Y11406760D01*
X21753848Y11359141D01*
X-96467961Y11244856D02*
X-96467961Y12244856D01*
X-96706056Y12244856D01*
X-96848913Y12197236D01*
X-96944151Y12101998D01*
X-96991770Y12006760D01*
X-97039389Y11816284D01*
X-97039389Y11673427D01*
X-96991770Y11482951D01*
X-96944151Y11387713D01*
X-96848913Y11292475D01*
X-96706056Y11244856D01*
X-96467961Y11244856D01*
X-97991770Y11244856D02*
X-97420342Y11244856D01*
X-97706056Y11244856D02*
X-97706056Y12244856D01*
X-97610818Y12101998D01*
X-97515580Y12006760D01*
X-97420342Y11959141D01*
X-98610818Y12244856D02*
X-98706056Y12244856D01*
X-98801294Y12197236D01*
X-98848913Y12149617D01*
X-98896532Y12054379D01*
X-98944151Y11863903D01*
X-98944151Y11625808D01*
X-98896532Y11435332D01*
X-98848913Y11340094D01*
X-98801294Y11292475D01*
X-98706056Y11244856D01*
X-98610818Y11244856D01*
X-98515580Y11292475D01*
X-98467961Y11340094D01*
X-98420342Y11435332D01*
X-98372723Y11625808D01*
X-98372723Y11863903D01*
X-98420342Y12054379D01*
X-98467961Y12149617D01*
X-98515580Y12197236D01*
X-98610818Y12244856D01*
X66610991Y-4455144D02*
X66610991Y-3455144D01*
X66372896Y-3455144D01*
X66230039Y-3502764D01*
X66134801Y-3598002D01*
X66087182Y-3693240D01*
X66039563Y-3883716D01*
X66039563Y-4026573D01*
X66087182Y-4217049D01*
X66134801Y-4312287D01*
X66230039Y-4407525D01*
X66372896Y-4455144D01*
X66610991Y-4455144D01*
X65087182Y-4455144D02*
X65658610Y-4455144D01*
X65372896Y-4455144D02*
X65372896Y-3455144D01*
X65468134Y-3598002D01*
X65563372Y-3693240D01*
X65658610Y-3740859D01*
X64182420Y-3455144D02*
X64658610Y-3455144D01*
X64706229Y-3931335D01*
X64658610Y-3883716D01*
X64563372Y-3836097D01*
X64325277Y-3836097D01*
X64230039Y-3883716D01*
X64182420Y-3931335D01*
X64134801Y-4026573D01*
X64134801Y-4264668D01*
X64182420Y-4359906D01*
X64230039Y-4407525D01*
X64325277Y-4455144D01*
X64563372Y-4455144D01*
X64658610Y-4407525D01*
X64706229Y-4359906D01*
X-132467961Y5244856D02*
X-132467961Y6244856D01*
X-132706056Y6244856D01*
X-132848913Y6197236D01*
X-132944151Y6101998D01*
X-132991770Y6006760D01*
X-133039389Y5816284D01*
X-133039389Y5673427D01*
X-132991770Y5482951D01*
X-132944151Y5387713D01*
X-132848913Y5292475D01*
X-132706056Y5244856D01*
X-132467961Y5244856D01*
X-133991770Y5244856D02*
X-133420342Y5244856D01*
X-133706056Y5244856D02*
X-133706056Y6244856D01*
X-133610818Y6101998D01*
X-133515580Y6006760D01*
X-133420342Y5959141D01*
X-134372723Y6149617D02*
X-134420342Y6197236D01*
X-134515580Y6244856D01*
X-134753675Y6244856D01*
X-134848913Y6197236D01*
X-134896532Y6149617D01*
X-134944151Y6054379D01*
X-134944151Y5959141D01*
X-134896532Y5816284D01*
X-134325104Y5244856D01*
X-134944151Y5244856D01*
X18823Y-46673767D02*
X352156Y-46197577D01*
X590251Y-46673767D02*
X590251Y-45673767D01*
X209299Y-45673767D01*
X114061Y-45721387D01*
X66442Y-45769006D01*
X18823Y-45864244D01*
X18823Y-46007101D01*
X66442Y-46102339D01*
X114061Y-46149958D01*
X209299Y-46197577D01*
X590251Y-46197577D01*
X-409749Y-46149958D02*
X-743082Y-46149958D01*
X-885939Y-46673767D02*
X-409749Y-46673767D01*
X-409749Y-45673767D01*
X-885939Y-45673767D01*
X-1647844Y-46149958D02*
X-1314510Y-46149958D01*
X-1314510Y-46673767D02*
X-1314510Y-45673767D01*
X-1790701Y-45673767D01*
X-2314510Y-45673767D02*
X-2314510Y-45911863D01*
X-2076415Y-45816625D02*
X-2314510Y-45911863D01*
X-2552606Y-45816625D01*
X-2171653Y-46102339D02*
X-2314510Y-45911863D01*
X-2457368Y-46102339D01*
X-3076415Y-45673767D02*
X-3076415Y-45911863D01*
X-2838320Y-45816625D02*
X-3076415Y-45911863D01*
X-3314510Y-45816625D01*
X-2933558Y-46102339D02*
X-3076415Y-45911863D01*
X-3219272Y-46102339D01*
X-29779866Y-24838477D02*
X-30779866Y-24838477D01*
X-30779866Y-25076572D01*
X-30732246Y-25219429D01*
X-30637008Y-25314667D01*
X-30541770Y-25362286D01*
X-30351294Y-25409905D01*
X-30208437Y-25409905D01*
X-30017961Y-25362286D01*
X-29922723Y-25314667D01*
X-29827485Y-25219429D01*
X-29779866Y-25076572D01*
X-29779866Y-24838477D01*
X-30684627Y-25790858D02*
X-30732246Y-25838477D01*
X-30779866Y-25933715D01*
X-30779866Y-26171810D01*
X-30732246Y-26267048D01*
X-30684627Y-26314667D01*
X-30589389Y-26362286D01*
X-30494151Y-26362286D01*
X-30351294Y-26314667D01*
X-29779866Y-25743239D01*
X-29779866Y-26362286D01*
X-30779866Y-27267048D02*
X-30779866Y-26790858D01*
X-30303675Y-26743239D01*
X-30351294Y-26790858D01*
X-30398913Y-26886096D01*
X-30398913Y-27124191D01*
X-30351294Y-27219429D01*
X-30303675Y-27267048D01*
X-30208437Y-27314667D01*
X-29970342Y-27314667D01*
X-29875104Y-27267048D01*
X-29827485Y-27219429D01*
X-29779866Y-27124191D01*
X-29779866Y-26886096D01*
X-29827485Y-26790858D01*
X-29875104Y-26743239D01*
X91332841Y-38496526D02*
X91666174Y-38020336D01*
X91904269Y-38496526D02*
X91904269Y-37496526D01*
X91523317Y-37496526D01*
X91428079Y-37544146D01*
X91380460Y-37591765D01*
X91332841Y-37687003D01*
X91332841Y-37829860D01*
X91380460Y-37925098D01*
X91428079Y-37972717D01*
X91523317Y-38020336D01*
X91904269Y-38020336D01*
X90904269Y-37972717D02*
X90570936Y-37972717D01*
X90428079Y-38496526D02*
X90904269Y-38496526D01*
X90904269Y-37496526D01*
X90428079Y-37496526D01*
X89666174Y-37972717D02*
X89999508Y-37972717D01*
X89999508Y-38496526D02*
X89999508Y-37496526D01*
X89523317Y-37496526D01*
X88999508Y-37496526D02*
X88999508Y-37734622D01*
X89237603Y-37639384D02*
X88999508Y-37734622D01*
X88761412Y-37639384D01*
X89142365Y-37925098D02*
X88999508Y-37734622D01*
X88856650Y-37925098D01*
X88237603Y-37496526D02*
X88237603Y-37734622D01*
X88475698Y-37639384D02*
X88237603Y-37734622D01*
X87999508Y-37639384D01*
X88380460Y-37925098D02*
X88237603Y-37734622D01*
X88094746Y-37925098D01*
X48810991Y-5705144D02*
X48810991Y-4705144D01*
X48572896Y-4705144D01*
X48430039Y-4752764D01*
X48334801Y-4848002D01*
X48287182Y-4943240D01*
X48239563Y-5133716D01*
X48239563Y-5276573D01*
X48287182Y-5467049D01*
X48334801Y-5562287D01*
X48430039Y-5657525D01*
X48572896Y-5705144D01*
X48810991Y-5705144D01*
X47287182Y-5705144D02*
X47858610Y-5705144D01*
X47572896Y-5705144D02*
X47572896Y-4705144D01*
X47668134Y-4848002D01*
X47763372Y-4943240D01*
X47858610Y-4990859D01*
X46430039Y-5038478D02*
X46430039Y-5705144D01*
X46668134Y-4657525D02*
X46906229Y-5371811D01*
X46287182Y-5371811D01*
X-78994151Y29544856D02*
X-78994151Y30544856D01*
X-79232246Y30544856D01*
X-79375104Y30497236D01*
X-79470342Y30401998D01*
X-79517961Y30306760D01*
X-79565580Y30116284D01*
X-79565580Y29973427D01*
X-79517961Y29782951D01*
X-79470342Y29687713D01*
X-79375104Y29592475D01*
X-79232246Y29544856D01*
X-78994151Y29544856D01*
X-79898913Y30544856D02*
X-80517961Y30544856D01*
X-80184627Y30163903D01*
X-80327485Y30163903D01*
X-80422723Y30116284D01*
X-80470342Y30068665D01*
X-80517961Y29973427D01*
X-80517961Y29735332D01*
X-80470342Y29640094D01*
X-80422723Y29592475D01*
X-80327485Y29544856D01*
X-80041770Y29544856D01*
X-79946532Y29592475D01*
X-79898913Y29640094D01*
X-34130830Y20641631D02*
X-34130830Y19832107D01*
X-34178449Y19736869D01*
X-34226068Y19689250D01*
X-34321306Y19641631D01*
X-34511782Y19641631D01*
X-34607020Y19689250D01*
X-34654639Y19736869D01*
X-34702258Y19832107D01*
X-34702258Y20641631D01*
X-35130830Y20546392D02*
X-35178449Y20594011D01*
X-35273687Y20641631D01*
X-35511782Y20641631D01*
X-35607020Y20594011D01*
X-35654639Y20546392D01*
X-35702258Y20451154D01*
X-35702258Y20355916D01*
X-35654639Y20213059D01*
X-35083211Y19641631D01*
X-35702258Y19641631D01*
X-28678916Y28293665D02*
X-29012249Y28293665D01*
X-29155106Y27769856D02*
X-28678916Y27769856D01*
X-28678916Y28769856D01*
X-29155106Y28769856D01*
X-29488440Y28769856D02*
X-30155106Y28769856D01*
X-29726535Y27769856D01*
X-30440821Y28769856D02*
X-31059868Y28769856D01*
X-30726535Y28388903D01*
X-30869392Y28388903D01*
X-30964630Y28341284D01*
X-31012249Y28293665D01*
X-31059868Y28198427D01*
X-31059868Y27960332D01*
X-31012249Y27865094D01*
X-30964630Y27817475D01*
X-30869392Y27769856D01*
X-30583678Y27769856D01*
X-30488440Y27817475D01*
X-30440821Y27865094D01*
X-31488440Y28150808D02*
X-32250344Y28150808D01*
X-32678916Y28674617D02*
X-32726535Y28722236D01*
X-32821773Y28769856D01*
X-33059868Y28769856D01*
X-33155106Y28722236D01*
X-33202725Y28674617D01*
X-33250344Y28579379D01*
X-33250344Y28484141D01*
X-33202725Y28341284D01*
X-32631297Y27769856D01*
X-33250344Y27769856D01*
X-34202725Y28722236D02*
X-34107487Y28769856D01*
X-33964630Y28769856D01*
X-33821773Y28722236D01*
X-33726535Y28626998D01*
X-33678916Y28531760D01*
X-33631297Y28341284D01*
X-33631297Y28198427D01*
X-33678916Y28007951D01*
X-33726535Y27912713D01*
X-33821773Y27817475D01*
X-33964630Y27769856D01*
X-34059868Y27769856D01*
X-34202725Y27817475D01*
X-34250344Y27865094D01*
X-34250344Y28198427D01*
X-34059868Y28198427D01*
X-35107487Y28436522D02*
X-35107487Y27769856D01*
X-34869392Y28817475D02*
X-34631297Y28103189D01*
X-35250344Y28103189D01*
X-35631297Y27769856D02*
X-35631297Y28769856D01*
X-35964630Y28055570D01*
X-36297963Y28769856D01*
X-36297963Y27769856D01*
X-36964630Y28769856D02*
X-37059868Y28769856D01*
X-37155106Y28722236D01*
X-37202725Y28674617D01*
X-37250344Y28579379D01*
X-37297963Y28388903D01*
X-37297963Y28150808D01*
X-37250344Y27960332D01*
X-37202725Y27865094D01*
X-37155106Y27817475D01*
X-37059868Y27769856D01*
X-36964630Y27769856D01*
X-36869392Y27817475D01*
X-36821773Y27865094D01*
X-36774154Y27960332D01*
X-36726535Y28150808D01*
X-36726535Y28388903D01*
X-36774154Y28579379D01*
X-36821773Y28674617D01*
X-36869392Y28722236D01*
X-36964630Y28769856D01*
X-37869392Y28341284D02*
X-37774154Y28388903D01*
X-37726535Y28436522D01*
X-37678916Y28531760D01*
X-37678916Y28579379D01*
X-37726535Y28674617D01*
X-37774154Y28722236D01*
X-37869392Y28769856D01*
X-38059868Y28769856D01*
X-38155106Y28722236D01*
X-38202725Y28674617D01*
X-38250344Y28579379D01*
X-38250344Y28531760D01*
X-38202725Y28436522D01*
X-38155106Y28388903D01*
X-38059868Y28341284D01*
X-37869392Y28341284D01*
X-37774154Y28293665D01*
X-37726535Y28246046D01*
X-37678916Y28150808D01*
X-37678916Y27960332D01*
X-37726535Y27865094D01*
X-37774154Y27817475D01*
X-37869392Y27769856D01*
X-38059868Y27769856D01*
X-38155106Y27817475D01*
X-38202725Y27865094D01*
X-38250344Y27960332D01*
X-38250344Y28150808D01*
X-38202725Y28246046D01*
X-38155106Y28293665D01*
X-38059868Y28341284D01*
X-38631297Y27817475D02*
X-38774154Y27769856D01*
X-39012249Y27769856D01*
X-39107487Y27817475D01*
X-39155106Y27865094D01*
X-39202725Y27960332D01*
X-39202725Y28055570D01*
X-39155106Y28150808D01*
X-39107487Y28198427D01*
X-39012249Y28246046D01*
X-38821773Y28293665D01*
X-38726535Y28341284D01*
X-38678916Y28388903D01*
X-38631297Y28484141D01*
X-38631297Y28579379D01*
X-38678916Y28674617D01*
X-38726535Y28722236D01*
X-38821773Y28769856D01*
X-39059868Y28769856D01*
X-39202725Y28722236D01*
X-40155106Y27769856D02*
X-39583678Y27769856D01*
X-39869392Y27769856D02*
X-39869392Y28769856D01*
X-39774154Y28626998D01*
X-39678916Y28531760D01*
X-39583678Y28484141D01*
X-41155106Y27865094D02*
X-41107487Y27817475D01*
X-40964630Y27769856D01*
X-40869392Y27769856D01*
X-40726535Y27817475D01*
X-40631297Y27912713D01*
X-40583678Y28007951D01*
X-40536059Y28198427D01*
X-40536059Y28341284D01*
X-40583678Y28531760D01*
X-40631297Y28626998D01*
X-40726535Y28722236D01*
X-40869392Y28769856D01*
X-40964630Y28769856D01*
X-41107487Y28722236D01*
X-41155106Y28674617D01*
X-78517961Y-4455144D02*
X-78517961Y-3455144D01*
X-78756056Y-3455144D01*
X-78898913Y-3502764D01*
X-78994151Y-3598002D01*
X-79041770Y-3693240D01*
X-79089389Y-3883716D01*
X-79089389Y-4026573D01*
X-79041770Y-4217049D01*
X-78994151Y-4312287D01*
X-78898913Y-4407525D01*
X-78756056Y-4455144D01*
X-78517961Y-4455144D01*
X-80041770Y-4455144D02*
X-79470342Y-4455144D01*
X-79756056Y-4455144D02*
X-79756056Y-3455144D01*
X-79660818Y-3598002D01*
X-79565580Y-3693240D01*
X-79470342Y-3740859D01*
X-80946532Y-3455144D02*
X-80470342Y-3455144D01*
X-80422723Y-3931335D01*
X-80470342Y-3883716D01*
X-80565580Y-3836097D01*
X-80803675Y-3836097D01*
X-80898913Y-3883716D01*
X-80946532Y-3931335D01*
X-80994151Y-4026573D01*
X-80994151Y-4264668D01*
X-80946532Y-4359906D01*
X-80898913Y-4407525D01*
X-80803675Y-4455144D01*
X-80565580Y-4455144D01*
X-80470342Y-4407525D01*
X-80422723Y-4359906D01*
X66134801Y12544856D02*
X66134801Y13544856D01*
X65896706Y13544856D01*
X65753848Y13497236D01*
X65658610Y13401998D01*
X65610991Y13306760D01*
X65563372Y13116284D01*
X65563372Y12973427D01*
X65610991Y12782951D01*
X65658610Y12687713D01*
X65753848Y12592475D01*
X65896706Y12544856D01*
X66134801Y12544856D01*
X65087182Y12544856D02*
X64896706Y12544856D01*
X64801467Y12592475D01*
X64753848Y12640094D01*
X64658610Y12782951D01*
X64610991Y12973427D01*
X64610991Y13354379D01*
X64658610Y13449617D01*
X64706229Y13497236D01*
X64801467Y13544856D01*
X64991944Y13544856D01*
X65087182Y13497236D01*
X65134801Y13449617D01*
X65182420Y13354379D01*
X65182420Y13116284D01*
X65134801Y13021046D01*
X65087182Y12973427D01*
X64991944Y12925808D01*
X64801467Y12925808D01*
X64706229Y12973427D01*
X64658610Y13021046D01*
X64610991Y13116284D01*
X-96467961Y-5755144D02*
X-96467961Y-4755144D01*
X-96706056Y-4755144D01*
X-96848913Y-4802764D01*
X-96944151Y-4898002D01*
X-96991770Y-4993240D01*
X-97039389Y-5183716D01*
X-97039389Y-5326573D01*
X-96991770Y-5517049D01*
X-96944151Y-5612287D01*
X-96848913Y-5707525D01*
X-96706056Y-5755144D01*
X-96467961Y-5755144D01*
X-97991770Y-5755144D02*
X-97420342Y-5755144D01*
X-97706056Y-5755144D02*
X-97706056Y-4755144D01*
X-97610818Y-4898002D01*
X-97515580Y-4993240D01*
X-97420342Y-5040859D01*
X-98848913Y-4755144D02*
X-98658437Y-4755144D01*
X-98563199Y-4802764D01*
X-98515580Y-4850383D01*
X-98420342Y-4993240D01*
X-98372723Y-5183716D01*
X-98372723Y-5564668D01*
X-98420342Y-5659906D01*
X-98467961Y-5707525D01*
X-98563199Y-5755144D01*
X-98753675Y-5755144D01*
X-98848913Y-5707525D01*
X-98896532Y-5659906D01*
X-98944151Y-5564668D01*
X-98944151Y-5326573D01*
X-98896532Y-5231335D01*
X-98848913Y-5183716D01*
X-98753675Y-5136097D01*
X-98563199Y-5136097D01*
X-98467961Y-5183716D01*
X-98420342Y-5231335D01*
X-98372723Y-5326573D01*
X13658610Y12344856D02*
X13658610Y11535332D01*
X13610991Y11440094D01*
X13563372Y11392475D01*
X13468134Y11344856D01*
X13277658Y11344856D01*
X13182420Y11392475D01*
X13134801Y11440094D01*
X13087182Y11535332D01*
X13087182Y12344856D01*
X12706229Y12344856D02*
X12087182Y12344856D01*
X12420515Y11963903D01*
X12277658Y11963903D01*
X12182420Y11916284D01*
X12134801Y11868665D01*
X12087182Y11773427D01*
X12087182Y11535332D01*
X12134801Y11440094D01*
X12182420Y11392475D01*
X12277658Y11344856D01*
X12563372Y11344856D01*
X12658610Y11392475D01*
X12706229Y11440094D01*
X-114467961Y-27755144D02*
X-114467961Y-26755144D01*
X-114706056Y-26755144D01*
X-114848913Y-26802764D01*
X-114944151Y-26898002D01*
X-114991770Y-26993240D01*
X-115039389Y-27183716D01*
X-115039389Y-27326573D01*
X-114991770Y-27517049D01*
X-114944151Y-27612287D01*
X-114848913Y-27707525D01*
X-114706056Y-27755144D01*
X-114467961Y-27755144D01*
X-115420342Y-26850383D02*
X-115467961Y-26802764D01*
X-115563199Y-26755144D01*
X-115801294Y-26755144D01*
X-115896532Y-26802764D01*
X-115944151Y-26850383D01*
X-115991770Y-26945621D01*
X-115991770Y-27040859D01*
X-115944151Y-27183716D01*
X-115372723Y-27755144D01*
X-115991770Y-27755144D01*
X-116325104Y-26755144D02*
X-116944151Y-26755144D01*
X-116610818Y-27136097D01*
X-116753675Y-27136097D01*
X-116848913Y-27183716D01*
X-116896532Y-27231335D01*
X-116944151Y-27326573D01*
X-116944151Y-27564668D01*
X-116896532Y-27659906D01*
X-116848913Y-27707525D01*
X-116753675Y-27755144D01*
X-116467961Y-27755144D01*
X-116372723Y-27707525D01*
X-116325104Y-27659906D01*
D12*
X315063Y20873036D02*
X369491Y20709751D01*
X423920Y20655322D01*
X532777Y20600894D01*
X696063Y20600894D01*
X804920Y20655322D01*
X859348Y20709751D01*
X913777Y20818608D01*
X913777Y21254036D01*
X-229223Y21254036D01*
X-229223Y20873036D01*
X-174794Y20764179D01*
X-120366Y20709751D01*
X-11509Y20655322D01*
X97348Y20655322D01*
X206206Y20709751D01*
X260634Y20764179D01*
X315063Y20873036D01*
X315063Y21254036D01*
X587206Y20165465D02*
X587206Y19621179D01*
X913777Y20274322D02*
X-229223Y19893322D01*
X913777Y19512322D01*
X-229223Y19294608D02*
X-229223Y18641465D01*
X913777Y18968036D02*
X-229223Y18968036D01*
X-229223Y18423751D02*
X-229223Y17770608D01*
X913777Y18097179D02*
X-229223Y18097179D01*
X1022634Y17661751D02*
X1022634Y16790894D01*
X859348Y16573179D02*
X913777Y16409894D01*
X913777Y16137751D01*
X859348Y16028894D01*
X804920Y15974465D01*
X696063Y15920036D01*
X587206Y15920036D01*
X478348Y15974465D01*
X423920Y16028894D01*
X369491Y16137751D01*
X315063Y16355465D01*
X260634Y16464322D01*
X206206Y16518751D01*
X97348Y16573179D01*
X-11509Y16573179D01*
X-120366Y16518751D01*
X-174794Y16464322D01*
X-229223Y16355465D01*
X-229223Y16083322D01*
X-174794Y15920036D01*
X-229223Y15539036D02*
X913777Y15266894D01*
X97348Y15049179D01*
X913777Y14831465D01*
X-229223Y14559322D01*
D10*
X-114517961Y-10755144D02*
X-114517961Y-9755144D01*
X-114756056Y-9755144D01*
X-114898913Y-9802764D01*
X-114994151Y-9898002D01*
X-115041770Y-9993240D01*
X-115089389Y-10183716D01*
X-115089389Y-10326573D01*
X-115041770Y-10517049D01*
X-114994151Y-10612287D01*
X-114898913Y-10707525D01*
X-114756056Y-10755144D01*
X-114517961Y-10755144D01*
X-116041770Y-10755144D02*
X-115470342Y-10755144D01*
X-115756056Y-10755144D02*
X-115756056Y-9755144D01*
X-115660818Y-9898002D01*
X-115565580Y-9993240D01*
X-115470342Y-10040859D01*
X-116375104Y-9755144D02*
X-117041770Y-9755144D01*
X-116613199Y-10755144D01*
X-78517961Y-43405144D02*
X-78517961Y-42405144D01*
X-78756056Y-42405144D01*
X-78898913Y-42452764D01*
X-78994151Y-42548002D01*
X-79041770Y-42643240D01*
X-79089389Y-42833716D01*
X-79089389Y-42976573D01*
X-79041770Y-43167049D01*
X-78994151Y-43262287D01*
X-78898913Y-43357525D01*
X-78756056Y-43405144D01*
X-78517961Y-43405144D01*
X-79470342Y-42500383D02*
X-79517961Y-42452764D01*
X-79613199Y-42405144D01*
X-79851294Y-42405144D01*
X-79946532Y-42452764D01*
X-79994151Y-42500383D01*
X-80041770Y-42595621D01*
X-80041770Y-42690859D01*
X-79994151Y-42833716D01*
X-79422723Y-43405144D01*
X-80041770Y-43405144D01*
X-80613199Y-42833716D02*
X-80517961Y-42786097D01*
X-80470342Y-42738478D01*
X-80422723Y-42643240D01*
X-80422723Y-42595621D01*
X-80470342Y-42500383D01*
X-80517961Y-42452764D01*
X-80613199Y-42405144D01*
X-80803675Y-42405144D01*
X-80898913Y-42452764D01*
X-80946532Y-42500383D01*
X-80994151Y-42595621D01*
X-80994151Y-42643240D01*
X-80946532Y-42738478D01*
X-80898913Y-42786097D01*
X-80803675Y-42833716D01*
X-80613199Y-42833716D01*
X-80517961Y-42881335D01*
X-80470342Y-42928954D01*
X-80422723Y-43024192D01*
X-80422723Y-43214668D01*
X-80470342Y-43309906D01*
X-80517961Y-43357525D01*
X-80613199Y-43405144D01*
X-80803675Y-43405144D01*
X-80898913Y-43357525D01*
X-80946532Y-43309906D01*
X-80994151Y-43214668D01*
X-80994151Y-43024192D01*
X-80946532Y-42928954D01*
X-80898913Y-42881335D01*
X-80803675Y-42833716D01*
X48334801Y28194856D02*
X48334801Y29194856D01*
X48096706Y29194856D01*
X47953848Y29147236D01*
X47858610Y29051998D01*
X47810991Y28956760D01*
X47763372Y28766284D01*
X47763372Y28623427D01*
X47810991Y28432951D01*
X47858610Y28337713D01*
X47953848Y28242475D01*
X48096706Y28194856D01*
X48334801Y28194856D01*
X47382420Y29099617D02*
X47334801Y29147236D01*
X47239563Y29194856D01*
X47001467Y29194856D01*
X46906229Y29147236D01*
X46858610Y29099617D01*
X46810991Y29004379D01*
X46810991Y28909141D01*
X46858610Y28766284D01*
X47430039Y28194856D01*
X46810991Y28194856D01*
X1713372Y22869856D02*
X2046706Y23346046D01*
X2284801Y22869856D02*
X2284801Y23869856D01*
X1903848Y23869856D01*
X1808610Y23822236D01*
X1760991Y23774617D01*
X1713372Y23679379D01*
X1713372Y23536522D01*
X1760991Y23441284D01*
X1808610Y23393665D01*
X1903848Y23346046D01*
X2284801Y23346046D01*
X1380039Y23869856D02*
X713372Y23869856D01*
X1141944Y22869856D01*
X102560991Y-27755144D02*
X102560991Y-26755144D01*
X102322896Y-26755144D01*
X102180039Y-26802764D01*
X102084801Y-26898002D01*
X102037182Y-26993240D01*
X101989563Y-27183716D01*
X101989563Y-27326573D01*
X102037182Y-27517049D01*
X102084801Y-27612287D01*
X102180039Y-27707525D01*
X102322896Y-27755144D01*
X102560991Y-27755144D01*
X101608610Y-26850383D02*
X101560991Y-26802764D01*
X101465753Y-26755144D01*
X101227658Y-26755144D01*
X101132420Y-26802764D01*
X101084801Y-26850383D01*
X101037182Y-26945621D01*
X101037182Y-27040859D01*
X101084801Y-27183716D01*
X101656229Y-27755144D01*
X101037182Y-27755144D01*
X100703848Y-26755144D02*
X100084801Y-26755144D01*
X100418134Y-27136097D01*
X100275277Y-27136097D01*
X100180039Y-27183716D01*
X100132420Y-27231335D01*
X100084801Y-27326573D01*
X100084801Y-27564668D01*
X100132420Y-27659906D01*
X100180039Y-27707525D01*
X100275277Y-27755144D01*
X100560991Y-27755144D01*
X100656229Y-27707525D01*
X100703848Y-27659906D01*
X-61194151Y28194856D02*
X-61194151Y29194856D01*
X-61432246Y29194856D01*
X-61575104Y29147236D01*
X-61670342Y29051998D01*
X-61717961Y28956760D01*
X-61765580Y28766284D01*
X-61765580Y28623427D01*
X-61717961Y28432951D01*
X-61670342Y28337713D01*
X-61575104Y28242475D01*
X-61432246Y28194856D01*
X-61194151Y28194856D01*
X-62146532Y29099617D02*
X-62194151Y29147236D01*
X-62289389Y29194856D01*
X-62527485Y29194856D01*
X-62622723Y29147236D01*
X-62670342Y29099617D01*
X-62717961Y29004379D01*
X-62717961Y28909141D01*
X-62670342Y28766284D01*
X-62098913Y28194856D01*
X-62717961Y28194856D01*
X84560991Y-22755144D02*
X84560991Y-21755144D01*
X84322896Y-21755144D01*
X84180039Y-21802764D01*
X84084801Y-21898002D01*
X84037182Y-21993240D01*
X83989563Y-22183716D01*
X83989563Y-22326573D01*
X84037182Y-22517049D01*
X84084801Y-22612287D01*
X84180039Y-22707525D01*
X84322896Y-22755144D01*
X84560991Y-22755144D01*
X83608610Y-21850383D02*
X83560991Y-21802764D01*
X83465753Y-21755144D01*
X83227658Y-21755144D01*
X83132420Y-21802764D01*
X83084801Y-21850383D01*
X83037182Y-21945621D01*
X83037182Y-22040859D01*
X83084801Y-22183716D01*
X83656229Y-22755144D01*
X83037182Y-22755144D01*
X82656229Y-21850383D02*
X82608610Y-21802764D01*
X82513372Y-21755144D01*
X82275277Y-21755144D01*
X82180039Y-21802764D01*
X82132420Y-21850383D01*
X82084801Y-21945621D01*
X82084801Y-22040859D01*
X82132420Y-22183716D01*
X82703848Y-22755144D01*
X82084801Y-22755144D01*
X-96467961Y-22755144D02*
X-96467961Y-21755144D01*
X-96706056Y-21755144D01*
X-96848913Y-21802764D01*
X-96944151Y-21898002D01*
X-96991770Y-21993240D01*
X-97039389Y-22183716D01*
X-97039389Y-22326573D01*
X-96991770Y-22517049D01*
X-96944151Y-22612287D01*
X-96848913Y-22707525D01*
X-96706056Y-22755144D01*
X-96467961Y-22755144D01*
X-97420342Y-21850383D02*
X-97467961Y-21802764D01*
X-97563199Y-21755144D01*
X-97801294Y-21755144D01*
X-97896532Y-21802764D01*
X-97944151Y-21850383D01*
X-97991770Y-21945621D01*
X-97991770Y-22040859D01*
X-97944151Y-22183716D01*
X-97372723Y-22755144D01*
X-97991770Y-22755144D01*
X-98372723Y-21850383D02*
X-98420342Y-21802764D01*
X-98515580Y-21755144D01*
X-98753675Y-21755144D01*
X-98848913Y-21802764D01*
X-98896532Y-21850383D01*
X-98944151Y-21945621D01*
X-98944151Y-22040859D01*
X-98896532Y-22183716D01*
X-98325104Y-22755144D01*
X-98944151Y-22755144D01*
X-114517961Y6244856D02*
X-114517961Y7244856D01*
X-114756056Y7244856D01*
X-114898913Y7197236D01*
X-114994151Y7101998D01*
X-115041770Y7006760D01*
X-115089389Y6816284D01*
X-115089389Y6673427D01*
X-115041770Y6482951D01*
X-114994151Y6387713D01*
X-114898913Y6292475D01*
X-114756056Y6244856D01*
X-114517961Y6244856D01*
X-116041770Y6244856D02*
X-115470342Y6244856D01*
X-115756056Y6244856D02*
X-115756056Y7244856D01*
X-115660818Y7101998D01*
X-115565580Y7006760D01*
X-115470342Y6959141D01*
X-116994151Y6244856D02*
X-116422723Y6244856D01*
X-116708437Y6244856D02*
X-116708437Y7244856D01*
X-116613199Y7101998D01*
X-116517961Y7006760D01*
X-116422723Y6959141D01*
X-60717961Y-5705144D02*
X-60717961Y-4705144D01*
X-60956056Y-4705144D01*
X-61098913Y-4752764D01*
X-61194151Y-4848002D01*
X-61241770Y-4943240D01*
X-61289389Y-5133716D01*
X-61289389Y-5276573D01*
X-61241770Y-5467049D01*
X-61194151Y-5562287D01*
X-61098913Y-5657525D01*
X-60956056Y-5705144D01*
X-60717961Y-5705144D01*
X-62241770Y-5705144D02*
X-61670342Y-5705144D01*
X-61956056Y-5705144D02*
X-61956056Y-4705144D01*
X-61860818Y-4848002D01*
X-61765580Y-4943240D01*
X-61670342Y-4990859D01*
X-63098913Y-5038478D02*
X-63098913Y-5705144D01*
X-62860818Y-4657525D02*
X-62622723Y-5371811D01*
X-63241770Y-5371811D01*
X-13438580Y5290094D02*
X-13390961Y5242475D01*
X-13248104Y5194856D01*
X-13152866Y5194856D01*
X-13010008Y5242475D01*
X-12914770Y5337713D01*
X-12867151Y5432951D01*
X-12819532Y5623427D01*
X-12819532Y5766284D01*
X-12867151Y5956760D01*
X-12914770Y6051998D01*
X-13010008Y6147236D01*
X-13152866Y6194856D01*
X-13248104Y6194856D01*
X-13390961Y6147236D01*
X-13438580Y6099617D01*
X-13819532Y6099617D02*
X-13867151Y6147236D01*
X-13962389Y6194856D01*
X-14200485Y6194856D01*
X-14295723Y6147236D01*
X-14343342Y6099617D01*
X-14390961Y6004379D01*
X-14390961Y5909141D01*
X-14343342Y5766284D01*
X-13771913Y5194856D01*
X-14390961Y5194856D01*
X-3936628Y27044856D02*
X-3603294Y27521046D01*
X-3365199Y27044856D02*
X-3365199Y28044856D01*
X-3746152Y28044856D01*
X-3841390Y27997236D01*
X-3889009Y27949617D01*
X-3936628Y27854379D01*
X-3936628Y27711522D01*
X-3889009Y27616284D01*
X-3841390Y27568665D01*
X-3746152Y27521046D01*
X-3365199Y27521046D01*
X-4793771Y28044856D02*
X-4603294Y28044856D01*
X-4508056Y27997236D01*
X-4460437Y27949617D01*
X-4365199Y27806760D01*
X-4317580Y27616284D01*
X-4317580Y27235332D01*
X-4365199Y27140094D01*
X-4412818Y27092475D01*
X-4508056Y27044856D01*
X-4698533Y27044856D01*
X-4793771Y27092475D01*
X-4841390Y27140094D01*
X-4889009Y27235332D01*
X-4889009Y27473427D01*
X-4841390Y27568665D01*
X-4793771Y27616284D01*
X-4698533Y27663903D01*
X-4508056Y27663903D01*
X-4412818Y27616284D01*
X-4365199Y27568665D01*
X-4317580Y27473427D01*
X-9352866Y6394856D02*
X-9019532Y6871046D01*
X-8781437Y6394856D02*
X-8781437Y7394856D01*
X-9162389Y7394856D01*
X-9257627Y7347236D01*
X-9305246Y7299617D01*
X-9352866Y7204379D01*
X-9352866Y7061522D01*
X-9305246Y6966284D01*
X-9257627Y6918665D01*
X-9162389Y6871046D01*
X-8781437Y6871046D01*
X-9781437Y6918665D02*
X-10114770Y6918665D01*
X-10257627Y6394856D02*
X-9781437Y6394856D01*
X-9781437Y7394856D01*
X-10257627Y7394856D01*
X-10638580Y6442475D02*
X-10781437Y6394856D01*
X-11019532Y6394856D01*
X-11114770Y6442475D01*
X-11162389Y6490094D01*
X-11210008Y6585332D01*
X-11210008Y6680570D01*
X-11162389Y6775808D01*
X-11114770Y6823427D01*
X-11019532Y6871046D01*
X-10829056Y6918665D01*
X-10733818Y6966284D01*
X-10686199Y7013903D01*
X-10638580Y7109141D01*
X-10638580Y7204379D01*
X-10686199Y7299617D01*
X-10733818Y7347236D01*
X-10829056Y7394856D01*
X-11067151Y7394856D01*
X-11210008Y7347236D01*
X-11638580Y6918665D02*
X-11971913Y6918665D01*
X-12114770Y6394856D02*
X-11638580Y6394856D01*
X-11638580Y7394856D01*
X-12114770Y7394856D01*
X-12400485Y7394856D02*
X-12971913Y7394856D01*
X-12686199Y6394856D02*
X-12686199Y7394856D01*
X-2050914Y6544856D02*
X-1717580Y7021046D01*
X-1479485Y6544856D02*
X-1479485Y7544856D01*
X-1860437Y7544856D01*
X-1955675Y7497236D01*
X-2003294Y7449617D01*
X-2050914Y7354379D01*
X-2050914Y7211522D01*
X-2003294Y7116284D01*
X-1955675Y7068665D01*
X-1860437Y7021046D01*
X-1479485Y7021046D01*
X-2479485Y7068665D02*
X-2812818Y7068665D01*
X-2955675Y6544856D02*
X-2479485Y6544856D01*
X-2479485Y7544856D01*
X-2955675Y7544856D01*
X-3336628Y6592475D02*
X-3479485Y6544856D01*
X-3717580Y6544856D01*
X-3812818Y6592475D01*
X-3860437Y6640094D01*
X-3908056Y6735332D01*
X-3908056Y6830570D01*
X-3860437Y6925808D01*
X-3812818Y6973427D01*
X-3717580Y7021046D01*
X-3527104Y7068665D01*
X-3431866Y7116284D01*
X-3384247Y7163903D01*
X-3336628Y7259141D01*
X-3336628Y7354379D01*
X-3384247Y7449617D01*
X-3431866Y7497236D01*
X-3527104Y7544856D01*
X-3765199Y7544856D01*
X-3908056Y7497236D01*
X-4336628Y7068665D02*
X-4669961Y7068665D01*
X-4812818Y6544856D02*
X-4336628Y6544856D01*
X-4336628Y7544856D01*
X-4812818Y7544856D01*
X-5098533Y7544856D02*
X-5669961Y7544856D01*
X-5384247Y6544856D02*
X-5384247Y7544856D01*
X-13238580Y10194856D02*
X-12905246Y10671046D01*
X-12667151Y10194856D02*
X-12667151Y11194856D01*
X-13048104Y11194856D01*
X-13143342Y11147236D01*
X-13190961Y11099617D01*
X-13238580Y11004379D01*
X-13238580Y10861522D01*
X-13190961Y10766284D01*
X-13143342Y10718665D01*
X-13048104Y10671046D01*
X-12667151Y10671046D01*
X-13714770Y10194856D02*
X-13905246Y10194856D01*
X-14000485Y10242475D01*
X-14048104Y10290094D01*
X-14143342Y10432951D01*
X-14190961Y10623427D01*
X-14190961Y11004379D01*
X-14143342Y11099617D01*
X-14095723Y11147236D01*
X-14000485Y11194856D01*
X-13810008Y11194856D01*
X-13714770Y11147236D01*
X-13667151Y11099617D01*
X-13619532Y11004379D01*
X-13619532Y10766284D01*
X-13667151Y10671046D01*
X-13714770Y10623427D01*
X-13810008Y10575808D01*
X-14000485Y10575808D01*
X-14095723Y10623427D01*
X-14143342Y10671046D01*
X-14190961Y10766284D01*
X48034801Y11294856D02*
X48034801Y12294856D01*
X47796706Y12294856D01*
X47653848Y12247236D01*
X47558610Y12151998D01*
X47510991Y12056760D01*
X47463372Y11866284D01*
X47463372Y11723427D01*
X47510991Y11532951D01*
X47558610Y11437713D01*
X47653848Y11342475D01*
X47796706Y11294856D01*
X48034801Y11294856D01*
X46891944Y11866284D02*
X46987182Y11913903D01*
X47034801Y11961522D01*
X47082420Y12056760D01*
X47082420Y12104379D01*
X47034801Y12199617D01*
X46987182Y12247236D01*
X46891944Y12294856D01*
X46701467Y12294856D01*
X46606229Y12247236D01*
X46558610Y12199617D01*
X46510991Y12104379D01*
X46510991Y12056760D01*
X46558610Y11961522D01*
X46606229Y11913903D01*
X46701467Y11866284D01*
X46891944Y11866284D01*
X46987182Y11818665D01*
X47034801Y11771046D01*
X47082420Y11675808D01*
X47082420Y11485332D01*
X47034801Y11390094D01*
X46987182Y11342475D01*
X46891944Y11294856D01*
X46701467Y11294856D01*
X46606229Y11342475D01*
X46558610Y11390094D01*
X46510991Y11485332D01*
X46510991Y11675808D01*
X46558610Y11771046D01*
X46606229Y11818665D01*
X46701467Y11866284D01*
X66332841Y-54496525D02*
X66666174Y-54020335D01*
X66904269Y-54496525D02*
X66904269Y-53496525D01*
X66523317Y-53496525D01*
X66428079Y-53544145D01*
X66380460Y-53591764D01*
X66332841Y-53687002D01*
X66332841Y-53829859D01*
X66380460Y-53925097D01*
X66428079Y-53972716D01*
X66523317Y-54020335D01*
X66904269Y-54020335D01*
X65904269Y-53972716D02*
X65570936Y-53972716D01*
X65428079Y-54496525D02*
X65904269Y-54496525D01*
X65904269Y-53496525D01*
X65428079Y-53496525D01*
X64666174Y-53972716D02*
X64999508Y-53972716D01*
X64999508Y-54496525D02*
X64999508Y-53496525D01*
X64523317Y-53496525D01*
X63999508Y-53496525D02*
X63999508Y-53734621D01*
X64237603Y-53639383D02*
X63999508Y-53734621D01*
X63761412Y-53639383D01*
X64142365Y-53925097D02*
X63999508Y-53734621D01*
X63856650Y-53925097D01*
X63237603Y-53496525D02*
X63237603Y-53734621D01*
X63475698Y-53639383D02*
X63237603Y-53734621D01*
X62999508Y-53639383D01*
X63380460Y-53925097D02*
X63237603Y-53734621D01*
X63094746Y-53925097D01*
X-21665580Y14490094D02*
X-21617961Y14442475D01*
X-21475104Y14394856D01*
X-21379866Y14394856D01*
X-21237008Y14442475D01*
X-21141770Y14537713D01*
X-21094151Y14632951D01*
X-21046532Y14823427D01*
X-21046532Y14966284D01*
X-21094151Y15156760D01*
X-21141770Y15251998D01*
X-21237008Y15347236D01*
X-21379866Y15394856D01*
X-21475104Y15394856D01*
X-21617961Y15347236D01*
X-21665580Y15299617D01*
X-22570342Y15394856D02*
X-22094151Y15394856D01*
X-22046532Y14918665D01*
X-22094151Y14966284D01*
X-22189389Y15013903D01*
X-22427485Y15013903D01*
X-22522723Y14966284D01*
X-22570342Y14918665D01*
X-22617961Y14823427D01*
X-22617961Y14585332D01*
X-22570342Y14490094D01*
X-22522723Y14442475D01*
X-22427485Y14394856D01*
X-22189389Y14394856D01*
X-22094151Y14442475D01*
X-22046532Y14490094D01*
X-13338580Y21994856D02*
X-13005246Y22471046D01*
X-12767151Y21994856D02*
X-12767151Y22994856D01*
X-13148104Y22994856D01*
X-13243342Y22947236D01*
X-13290961Y22899617D01*
X-13338580Y22804379D01*
X-13338580Y22661522D01*
X-13290961Y22566284D01*
X-13243342Y22518665D01*
X-13148104Y22471046D01*
X-12767151Y22471046D01*
X-13910008Y22566284D02*
X-13814770Y22613903D01*
X-13767151Y22661522D01*
X-13719532Y22756760D01*
X-13719532Y22804379D01*
X-13767151Y22899617D01*
X-13814770Y22947236D01*
X-13910008Y22994856D01*
X-14100485Y22994856D01*
X-14195723Y22947236D01*
X-14243342Y22899617D01*
X-14290961Y22804379D01*
X-14290961Y22756760D01*
X-14243342Y22661522D01*
X-14195723Y22613903D01*
X-14100485Y22566284D01*
X-13910008Y22566284D01*
X-13814770Y22518665D01*
X-13767151Y22471046D01*
X-13719532Y22375808D01*
X-13719532Y22185332D01*
X-13767151Y22090094D01*
X-13814770Y22042475D01*
X-13910008Y21994856D01*
X-14100485Y21994856D01*
X-14195723Y22042475D01*
X-14243342Y22090094D01*
X-14290961Y22185332D01*
X-14290961Y22375808D01*
X-14243342Y22471046D01*
X-14195723Y22518665D01*
X-14100485Y22566284D01*
D12*
X-14686889Y20195294D02*
X-14632461Y20032008D01*
X-14578032Y19977579D01*
X-14469175Y19923151D01*
X-14305889Y19923151D01*
X-14197032Y19977579D01*
X-14142604Y20032008D01*
X-14088175Y20140865D01*
X-14088175Y20576294D01*
X-15231175Y20576294D01*
X-15231175Y20195294D01*
X-15176746Y20086436D01*
X-15122318Y20032008D01*
X-15013461Y19977579D01*
X-14904604Y19977579D01*
X-14795746Y20032008D01*
X-14741318Y20086436D01*
X-14686889Y20195294D01*
X-14686889Y20576294D01*
X-14414746Y19487722D02*
X-14414746Y18943436D01*
X-14088175Y19596579D02*
X-15231175Y19215579D01*
X-14088175Y18834579D01*
X-15231175Y18616865D02*
X-15231175Y17963722D01*
X-14088175Y18290294D02*
X-15231175Y18290294D01*
X-15231175Y17746008D02*
X-15231175Y17092865D01*
X-14088175Y17419436D02*
X-15231175Y17419436D01*
X-13979318Y16984008D02*
X-13979318Y16113151D01*
X-14142604Y15895436D02*
X-14088175Y15732151D01*
X-14088175Y15460008D01*
X-14142604Y15351151D01*
X-14197032Y15296722D01*
X-14305889Y15242294D01*
X-14414746Y15242294D01*
X-14523604Y15296722D01*
X-14578032Y15351151D01*
X-14632461Y15460008D01*
X-14686889Y15677722D01*
X-14741318Y15786579D01*
X-14795746Y15841008D01*
X-14904604Y15895436D01*
X-15013461Y15895436D01*
X-15122318Y15841008D01*
X-15176746Y15786579D01*
X-15231175Y15677722D01*
X-15231175Y15405579D01*
X-15176746Y15242294D01*
X-15231175Y14861294D02*
X-14088175Y14589151D01*
X-14904604Y14371436D01*
X-14088175Y14153722D01*
X-15231175Y13881579D01*
D10*
X48610991Y-44705144D02*
X48610991Y-43705144D01*
X48372896Y-43705144D01*
X48230039Y-43752764D01*
X48134801Y-43848002D01*
X48087182Y-43943240D01*
X48039563Y-44133716D01*
X48039563Y-44276573D01*
X48087182Y-44467049D01*
X48134801Y-44562287D01*
X48230039Y-44657525D01*
X48372896Y-44705144D01*
X48610991Y-44705144D01*
X47658610Y-43800383D02*
X47610991Y-43752764D01*
X47515753Y-43705144D01*
X47277658Y-43705144D01*
X47182420Y-43752764D01*
X47134801Y-43800383D01*
X47087182Y-43895621D01*
X47087182Y-43990859D01*
X47134801Y-44133716D01*
X47706229Y-44705144D01*
X47087182Y-44705144D01*
X46753848Y-43705144D02*
X46087182Y-43705144D01*
X46515753Y-44705144D01*
X121332841Y-38496526D02*
X121666174Y-38020336D01*
X121904269Y-38496526D02*
X121904269Y-37496526D01*
X121523317Y-37496526D01*
X121428079Y-37544146D01*
X121380460Y-37591765D01*
X121332841Y-37687003D01*
X121332841Y-37829860D01*
X121380460Y-37925098D01*
X121428079Y-37972717D01*
X121523317Y-38020336D01*
X121904269Y-38020336D01*
X120904269Y-37972717D02*
X120570936Y-37972717D01*
X120428079Y-38496526D02*
X120904269Y-38496526D01*
X120904269Y-37496526D01*
X120428079Y-37496526D01*
X119666174Y-37972717D02*
X119999508Y-37972717D01*
X119999508Y-38496526D02*
X119999508Y-37496526D01*
X119523317Y-37496526D01*
X118999508Y-37496526D02*
X118999508Y-37734622D01*
X119237603Y-37639384D02*
X118999508Y-37734622D01*
X118761412Y-37639384D01*
X119142365Y-37925098D02*
X118999508Y-37734622D01*
X118856650Y-37925098D01*
X118237603Y-37496526D02*
X118237603Y-37734622D01*
X118475698Y-37639384D02*
X118237603Y-37734622D01*
X117999508Y-37639384D01*
X118380460Y-37925098D02*
X118237603Y-37734622D01*
X118094746Y-37925098D01*
X66610991Y-43405144D02*
X66610991Y-42405144D01*
X66372896Y-42405144D01*
X66230039Y-42452764D01*
X66134801Y-42548002D01*
X66087182Y-42643240D01*
X66039563Y-42833716D01*
X66039563Y-42976573D01*
X66087182Y-43167049D01*
X66134801Y-43262287D01*
X66230039Y-43357525D01*
X66372896Y-43405144D01*
X66610991Y-43405144D01*
X65658610Y-42500383D02*
X65610991Y-42452764D01*
X65515753Y-42405144D01*
X65277658Y-42405144D01*
X65182420Y-42452764D01*
X65134801Y-42500383D01*
X65087182Y-42595621D01*
X65087182Y-42690859D01*
X65134801Y-42833716D01*
X65706229Y-43405144D01*
X65087182Y-43405144D01*
X64515753Y-42833716D02*
X64610991Y-42786097D01*
X64658610Y-42738478D01*
X64706229Y-42643240D01*
X64706229Y-42595621D01*
X64658610Y-42500383D01*
X64610991Y-42452764D01*
X64515753Y-42405144D01*
X64325277Y-42405144D01*
X64230039Y-42452764D01*
X64182420Y-42500383D01*
X64134801Y-42595621D01*
X64134801Y-42643240D01*
X64182420Y-42738478D01*
X64230039Y-42786097D01*
X64325277Y-42833716D01*
X64515753Y-42833716D01*
X64610991Y-42881335D01*
X64658610Y-42928954D01*
X64706229Y-43024192D01*
X64706229Y-43214668D01*
X64658610Y-43309906D01*
X64610991Y-43357525D01*
X64515753Y-43405144D01*
X64325277Y-43405144D01*
X64230039Y-43357525D01*
X64182420Y-43309906D01*
X64134801Y-43214668D01*
X64134801Y-43024192D01*
X64182420Y-42928954D01*
X64230039Y-42881335D01*
X64325277Y-42833716D01*
X-42994151Y25844856D02*
X-42994151Y26844856D01*
X-43232246Y26844856D01*
X-43375104Y26797236D01*
X-43470342Y26701998D01*
X-43517961Y26606760D01*
X-43565580Y26416284D01*
X-43565580Y26273427D01*
X-43517961Y26082951D01*
X-43470342Y25987713D01*
X-43375104Y25892475D01*
X-43232246Y25844856D01*
X-42994151Y25844856D01*
X-44517961Y25844856D02*
X-43946532Y25844856D01*
X-44232246Y25844856D02*
X-44232246Y26844856D01*
X-44137008Y26701998D01*
X-44041770Y26606760D01*
X-43946532Y26559141D01*
X102610991Y-10755144D02*
X102610991Y-9755144D01*
X102372896Y-9755144D01*
X102230039Y-9802764D01*
X102134801Y-9898002D01*
X102087182Y-9993240D01*
X102039563Y-10183716D01*
X102039563Y-10326573D01*
X102087182Y-10517049D01*
X102134801Y-10612287D01*
X102230039Y-10707525D01*
X102372896Y-10755144D01*
X102610991Y-10755144D01*
X101087182Y-10755144D02*
X101658610Y-10755144D01*
X101372896Y-10755144D02*
X101372896Y-9755144D01*
X101468134Y-9898002D01*
X101563372Y-9993240D01*
X101658610Y-10040859D01*
X100753848Y-9755144D02*
X100087182Y-9755144D01*
X100515753Y-10755144D01*
X29258610Y14044856D02*
X29258610Y13235332D01*
X29210991Y13140094D01*
X29163372Y13092475D01*
X29068134Y13044856D01*
X28877658Y13044856D01*
X28782420Y13092475D01*
X28734801Y13140094D01*
X28687182Y13235332D01*
X28687182Y14044856D01*
X28258610Y13949617D02*
X28210991Y13997236D01*
X28115753Y14044856D01*
X27877658Y14044856D01*
X27782420Y13997236D01*
X27734801Y13949617D01*
X27687182Y13854379D01*
X27687182Y13759141D01*
X27734801Y13616284D01*
X28306229Y13044856D01*
X27687182Y13044856D01*
X26771946Y28293665D02*
X26438613Y28293665D01*
X26295756Y27769856D02*
X26771946Y27769856D01*
X26771946Y28769856D01*
X26295756Y28769856D01*
X25962422Y28769856D02*
X25295756Y28769856D01*
X25724327Y27769856D01*
X25010041Y28769856D02*
X24390994Y28769856D01*
X24724327Y28388903D01*
X24581470Y28388903D01*
X24486232Y28341284D01*
X24438613Y28293665D01*
X24390994Y28198427D01*
X24390994Y27960332D01*
X24438613Y27865094D01*
X24486232Y27817475D01*
X24581470Y27769856D01*
X24867184Y27769856D01*
X24962422Y27817475D01*
X25010041Y27865094D01*
X23962422Y28150808D02*
X23200518Y28150808D01*
X22771946Y28674617D02*
X22724327Y28722236D01*
X22629089Y28769856D01*
X22390994Y28769856D01*
X22295756Y28722236D01*
X22248137Y28674617D01*
X22200518Y28579379D01*
X22200518Y28484141D01*
X22248137Y28341284D01*
X22819565Y27769856D01*
X22200518Y27769856D01*
X21248137Y28722236D02*
X21343375Y28769856D01*
X21486232Y28769856D01*
X21629089Y28722236D01*
X21724327Y28626998D01*
X21771946Y28531760D01*
X21819565Y28341284D01*
X21819565Y28198427D01*
X21771946Y28007951D01*
X21724327Y27912713D01*
X21629089Y27817475D01*
X21486232Y27769856D01*
X21390994Y27769856D01*
X21248137Y27817475D01*
X21200518Y27865094D01*
X21200518Y28198427D01*
X21390994Y28198427D01*
X20343375Y28436522D02*
X20343375Y27769856D01*
X20581470Y28817475D02*
X20819565Y28103189D01*
X20200518Y28103189D01*
X19819565Y27769856D02*
X19819565Y28769856D01*
X19486232Y28055570D01*
X19152899Y28769856D01*
X19152899Y27769856D01*
X18486232Y28769856D02*
X18390994Y28769856D01*
X18295756Y28722236D01*
X18248137Y28674617D01*
X18200518Y28579379D01*
X18152899Y28388903D01*
X18152899Y28150808D01*
X18200518Y27960332D01*
X18248137Y27865094D01*
X18295756Y27817475D01*
X18390994Y27769856D01*
X18486232Y27769856D01*
X18581470Y27817475D01*
X18629089Y27865094D01*
X18676708Y27960332D01*
X18724327Y28150808D01*
X18724327Y28388903D01*
X18676708Y28579379D01*
X18629089Y28674617D01*
X18581470Y28722236D01*
X18486232Y28769856D01*
X17581470Y28341284D02*
X17676708Y28388903D01*
X17724327Y28436522D01*
X17771946Y28531760D01*
X17771946Y28579379D01*
X17724327Y28674617D01*
X17676708Y28722236D01*
X17581470Y28769856D01*
X17390994Y28769856D01*
X17295756Y28722236D01*
X17248137Y28674617D01*
X17200518Y28579379D01*
X17200518Y28531760D01*
X17248137Y28436522D01*
X17295756Y28388903D01*
X17390994Y28341284D01*
X17581470Y28341284D01*
X17676708Y28293665D01*
X17724327Y28246046D01*
X17771946Y28150808D01*
X17771946Y27960332D01*
X17724327Y27865094D01*
X17676708Y27817475D01*
X17581470Y27769856D01*
X17390994Y27769856D01*
X17295756Y27817475D01*
X17248137Y27865094D01*
X17200518Y27960332D01*
X17200518Y28150808D01*
X17248137Y28246046D01*
X17295756Y28293665D01*
X17390994Y28341284D01*
X16819565Y27817475D02*
X16676708Y27769856D01*
X16438613Y27769856D01*
X16343375Y27817475D01*
X16295756Y27865094D01*
X16248137Y27960332D01*
X16248137Y28055570D01*
X16295756Y28150808D01*
X16343375Y28198427D01*
X16438613Y28246046D01*
X16629089Y28293665D01*
X16724327Y28341284D01*
X16771946Y28388903D01*
X16819565Y28484141D01*
X16819565Y28579379D01*
X16771946Y28674617D01*
X16724327Y28722236D01*
X16629089Y28769856D01*
X16390994Y28769856D01*
X16248137Y28722236D01*
X15295756Y27769856D02*
X15867184Y27769856D01*
X15581470Y27769856D02*
X15581470Y28769856D01*
X15676708Y28626998D01*
X15771946Y28531760D01*
X15867184Y28484141D01*
X14295756Y27865094D02*
X14343375Y27817475D01*
X14486232Y27769856D01*
X14581470Y27769856D01*
X14724327Y27817475D01*
X14819565Y27912713D01*
X14867184Y28007951D01*
X14914803Y28198427D01*
X14914803Y28341284D01*
X14867184Y28531760D01*
X14819565Y28626998D01*
X14724327Y28722236D01*
X14581470Y28769856D01*
X14486232Y28769856D01*
X14343375Y28722236D01*
X14295756Y28674617D01*
X102134801Y23244856D02*
X102134801Y24244856D01*
X101896706Y24244856D01*
X101753848Y24197236D01*
X101658610Y24101998D01*
X101610991Y24006760D01*
X101563372Y23816284D01*
X101563372Y23673427D01*
X101610991Y23482951D01*
X101658610Y23387713D01*
X101753848Y23292475D01*
X101896706Y23244856D01*
X102134801Y23244856D01*
X100658610Y24244856D02*
X101134801Y24244856D01*
X101182420Y23768665D01*
X101134801Y23816284D01*
X101039563Y23863903D01*
X100801467Y23863903D01*
X100706229Y23816284D01*
X100658610Y23768665D01*
X100610991Y23673427D01*
X100610991Y23435332D01*
X100658610Y23340094D01*
X100706229Y23292475D01*
X100801467Y23244856D01*
X101039563Y23244856D01*
X101134801Y23292475D01*
X101182420Y23340094D01*
X3310991Y12444856D02*
X3310991Y13444856D01*
X3072896Y13444856D01*
X2930039Y13397236D01*
X2834801Y13301998D01*
X2787182Y13206760D01*
X2739563Y13016284D01*
X2739563Y12873427D01*
X2787182Y12682951D01*
X2834801Y12587713D01*
X2930039Y12492475D01*
X3072896Y12444856D01*
X3310991Y12444856D01*
X2406229Y13444856D02*
X1787182Y13444856D01*
X2120515Y13063903D01*
X1977658Y13063903D01*
X1882420Y13016284D01*
X1834801Y12968665D01*
X1787182Y12873427D01*
X1787182Y12635332D01*
X1834801Y12540094D01*
X1882420Y12492475D01*
X1977658Y12444856D01*
X2263372Y12444856D01*
X2358610Y12492475D01*
X2406229Y12540094D01*
X1453848Y13444856D02*
X834801Y13444856D01*
X1168134Y13063903D01*
X1025277Y13063903D01*
X930039Y13016284D01*
X882420Y12968665D01*
X834801Y12873427D01*
X834801Y12635332D01*
X882420Y12540094D01*
X930039Y12492475D01*
X1025277Y12444856D01*
X1310991Y12444856D01*
X1406229Y12492475D01*
X1453848Y12540094D01*
X-14990961Y12594856D02*
X-14990961Y13594856D01*
X-15229056Y13594856D01*
X-15371913Y13547236D01*
X-15467151Y13451998D01*
X-15514770Y13356760D01*
X-15562389Y13166284D01*
X-15562389Y13023427D01*
X-15514770Y12832951D01*
X-15467151Y12737713D01*
X-15371913Y12642475D01*
X-15229056Y12594856D01*
X-14990961Y12594856D01*
X-15895723Y13594856D02*
X-16514770Y13594856D01*
X-16181437Y13213903D01*
X-16324294Y13213903D01*
X-16419532Y13166284D01*
X-16467151Y13118665D01*
X-16514770Y13023427D01*
X-16514770Y12785332D01*
X-16467151Y12690094D01*
X-16419532Y12642475D01*
X-16324294Y12594856D01*
X-16038580Y12594856D01*
X-15943342Y12642475D01*
X-15895723Y12690094D01*
X-16848104Y13594856D02*
X-17467151Y13594856D01*
X-17133818Y13213903D01*
X-17276675Y13213903D01*
X-17371913Y13166284D01*
X-17419532Y13118665D01*
X-17467151Y13023427D01*
X-17467151Y12785332D01*
X-17419532Y12690094D01*
X-17371913Y12642475D01*
X-17276675Y12594856D01*
X-16990961Y12594856D01*
X-16895723Y12642475D01*
X-16848104Y12690094D01*
X66134801Y29544856D02*
X66134801Y30544856D01*
X65896706Y30544856D01*
X65753848Y30497236D01*
X65658610Y30401998D01*
X65610991Y30306760D01*
X65563372Y30116284D01*
X65563372Y29973427D01*
X65610991Y29782951D01*
X65658610Y29687713D01*
X65753848Y29592475D01*
X65896706Y29544856D01*
X66134801Y29544856D01*
X65230039Y30544856D02*
X64610991Y30544856D01*
X64944325Y30163903D01*
X64801467Y30163903D01*
X64706229Y30116284D01*
X64658610Y30068665D01*
X64610991Y29973427D01*
X64610991Y29735332D01*
X64658610Y29640094D01*
X64706229Y29592475D01*
X64801467Y29544856D01*
X65087182Y29544856D01*
X65182420Y29592475D01*
X65230039Y29640094D01*
X-17264627Y9302475D02*
X-17312246Y9397713D01*
X-17407485Y9492951D01*
X-17550342Y9635808D01*
X-17597961Y9731046D01*
X-17597961Y9826284D01*
X-17359866Y9778665D02*
X-17407485Y9873903D01*
X-17502723Y9969141D01*
X-17693199Y10016760D01*
X-18026532Y10016760D01*
X-18217008Y9969141D01*
X-18312246Y9873903D01*
X-18359866Y9778665D01*
X-18359866Y9588189D01*
X-18312246Y9492951D01*
X-18217008Y9397713D01*
X-18026532Y9350094D01*
X-17693199Y9350094D01*
X-17502723Y9397713D01*
X-17407485Y9492951D01*
X-17359866Y9588189D01*
X-17359866Y9778665D01*
X-18264627Y8969141D02*
X-18312246Y8921522D01*
X-18359866Y8826284D01*
X-18359866Y8588189D01*
X-18312246Y8492951D01*
X-18264627Y8445332D01*
X-18169389Y8397713D01*
X-18074151Y8397713D01*
X-17931294Y8445332D01*
X-17359866Y9016760D01*
X-17359866Y8397713D01*
X-78994151Y12544856D02*
X-78994151Y13544856D01*
X-79232246Y13544856D01*
X-79375104Y13497236D01*
X-79470342Y13401998D01*
X-79517961Y13306760D01*
X-79565580Y13116284D01*
X-79565580Y12973427D01*
X-79517961Y12782951D01*
X-79470342Y12687713D01*
X-79375104Y12592475D01*
X-79232246Y12544856D01*
X-78994151Y12544856D01*
X-80041770Y12544856D02*
X-80232246Y12544856D01*
X-80327485Y12592475D01*
X-80375104Y12640094D01*
X-80470342Y12782951D01*
X-80517961Y12973427D01*
X-80517961Y13354379D01*
X-80470342Y13449617D01*
X-80422723Y13497236D01*
X-80327485Y13544856D01*
X-80137008Y13544856D01*
X-80041770Y13497236D01*
X-79994151Y13449617D01*
X-79946532Y13354379D01*
X-79946532Y13116284D01*
X-79994151Y13021046D01*
X-80041770Y12973427D01*
X-80137008Y12925808D01*
X-80327485Y12925808D01*
X-80422723Y12973427D01*
X-80470342Y13021046D01*
X-80517961Y13116284D01*
X-37378081Y1194856D02*
X-37044747Y1671046D01*
X-36806652Y1194856D02*
X-36806652Y2194856D01*
X-37187605Y2194856D01*
X-37282843Y2147236D01*
X-37330462Y2099617D01*
X-37378081Y2004379D01*
X-37378081Y1861522D01*
X-37330462Y1766284D01*
X-37282843Y1718665D01*
X-37187605Y1671046D01*
X-36806652Y1671046D01*
X-38235224Y1861522D02*
X-38235224Y1194856D01*
X-37997128Y2242475D02*
X-37759033Y1528189D01*
X-38378081Y1528189D01*
X-132467961Y-11755144D02*
X-132467961Y-10755144D01*
X-132706056Y-10755144D01*
X-132848913Y-10802764D01*
X-132944151Y-10898002D01*
X-132991770Y-10993240D01*
X-133039389Y-11183716D01*
X-133039389Y-11326573D01*
X-132991770Y-11517049D01*
X-132944151Y-11612287D01*
X-132848913Y-11707525D01*
X-132706056Y-11755144D01*
X-132467961Y-11755144D01*
X-133991770Y-11755144D02*
X-133420342Y-11755144D01*
X-133706056Y-11755144D02*
X-133706056Y-10755144D01*
X-133610818Y-10898002D01*
X-133515580Y-10993240D01*
X-133420342Y-11040859D01*
X-134563199Y-11183716D02*
X-134467961Y-11136097D01*
X-134420342Y-11088478D01*
X-134372723Y-10993240D01*
X-134372723Y-10945621D01*
X-134420342Y-10850383D01*
X-134467961Y-10802764D01*
X-134563199Y-10755144D01*
X-134753675Y-10755144D01*
X-134848913Y-10802764D01*
X-134896532Y-10850383D01*
X-134944151Y-10945621D01*
X-134944151Y-10993240D01*
X-134896532Y-11088478D01*
X-134848913Y-11136097D01*
X-134753675Y-11183716D01*
X-134563199Y-11183716D01*
X-134467961Y-11231335D01*
X-134420342Y-11278954D01*
X-134372723Y-11374192D01*
X-134372723Y-11564668D01*
X-134420342Y-11659906D01*
X-134467961Y-11707525D01*
X-134563199Y-11755144D01*
X-134753675Y-11755144D01*
X-134848913Y-11707525D01*
X-134896532Y-11659906D01*
X-134944151Y-11564668D01*
X-134944151Y-11374192D01*
X-134896532Y-11278954D01*
X-134848913Y-11231335D01*
X-134753675Y-11183716D01*
X-96994151Y28244856D02*
X-96994151Y29244856D01*
X-97232246Y29244856D01*
X-97375104Y29197236D01*
X-97470342Y29101998D01*
X-97517961Y29006760D01*
X-97565580Y28816284D01*
X-97565580Y28673427D01*
X-97517961Y28482951D01*
X-97470342Y28387713D01*
X-97375104Y28292475D01*
X-97232246Y28244856D01*
X-96994151Y28244856D01*
X-98422723Y28911522D02*
X-98422723Y28244856D01*
X-98184627Y29292475D02*
X-97946532Y28578189D01*
X-98565580Y28578189D01*
X6363372Y10640094D02*
X6410991Y10592475D01*
X6553848Y10544856D01*
X6649086Y10544856D01*
X6791944Y10592475D01*
X6887182Y10687713D01*
X6934801Y10782951D01*
X6982420Y10973427D01*
X6982420Y11116284D01*
X6934801Y11306760D01*
X6887182Y11401998D01*
X6791944Y11497236D01*
X6649086Y11544856D01*
X6553848Y11544856D01*
X6410991Y11497236D01*
X6363372Y11449617D01*
X5410991Y10544856D02*
X5982420Y10544856D01*
X5696706Y10544856D02*
X5696706Y11544856D01*
X5791944Y11401998D01*
X5887182Y11306760D01*
X5982420Y11259141D01*
X-132517961Y-28755144D02*
X-132517961Y-27755144D01*
X-132756056Y-27755144D01*
X-132898913Y-27802764D01*
X-132994151Y-27898002D01*
X-133041770Y-27993240D01*
X-133089389Y-28183716D01*
X-133089389Y-28326573D01*
X-133041770Y-28517049D01*
X-132994151Y-28612287D01*
X-132898913Y-28707525D01*
X-132756056Y-28755144D01*
X-132517961Y-28755144D01*
X-133470342Y-27850383D02*
X-133517961Y-27802764D01*
X-133613199Y-27755144D01*
X-133851294Y-27755144D01*
X-133946532Y-27802764D01*
X-133994151Y-27850383D01*
X-134041770Y-27945621D01*
X-134041770Y-28040859D01*
X-133994151Y-28183716D01*
X-133422723Y-28755144D01*
X-134041770Y-28755144D01*
X-134898913Y-28088478D02*
X-134898913Y-28755144D01*
X-134660818Y-27707525D02*
X-134422723Y-28421811D01*
X-135041770Y-28421811D01*
X-10038580Y27194856D02*
X-9705246Y27671046D01*
X-9467151Y27194856D02*
X-9467151Y28194856D01*
X-9848104Y28194856D01*
X-9943342Y28147236D01*
X-9990961Y28099617D01*
X-10038580Y28004379D01*
X-10038580Y27861522D01*
X-9990961Y27766284D01*
X-9943342Y27718665D01*
X-9848104Y27671046D01*
X-9467151Y27671046D01*
X-10895723Y28194856D02*
X-10705246Y28194856D01*
X-10610008Y28147236D01*
X-10562389Y28099617D01*
X-10467151Y27956760D01*
X-10419532Y27766284D01*
X-10419532Y27385332D01*
X-10467151Y27290094D01*
X-10514770Y27242475D01*
X-10610008Y27194856D01*
X-10800485Y27194856D01*
X-10895723Y27242475D01*
X-10943342Y27290094D01*
X-10990961Y27385332D01*
X-10990961Y27623427D01*
X-10943342Y27718665D01*
X-10895723Y27766284D01*
X-10800485Y27813903D01*
X-10610008Y27813903D01*
X-10514770Y27766284D01*
X-10467151Y27718665D01*
X-10419532Y27623427D01*
X-60517961Y-44705144D02*
X-60517961Y-43705144D01*
X-60756056Y-43705144D01*
X-60898913Y-43752764D01*
X-60994151Y-43848002D01*
X-61041770Y-43943240D01*
X-61089389Y-44133716D01*
X-61089389Y-44276573D01*
X-61041770Y-44467049D01*
X-60994151Y-44562287D01*
X-60898913Y-44657525D01*
X-60756056Y-44705144D01*
X-60517961Y-44705144D01*
X-61470342Y-43800383D02*
X-61517961Y-43752764D01*
X-61613199Y-43705144D01*
X-61851294Y-43705144D01*
X-61946532Y-43752764D01*
X-61994151Y-43800383D01*
X-62041770Y-43895621D01*
X-62041770Y-43990859D01*
X-61994151Y-44133716D01*
X-61422723Y-44705144D01*
X-62041770Y-44705144D01*
X-62375104Y-43705144D02*
X-63041770Y-43705144D01*
X-62613199Y-44705144D01*
X84560991Y11244856D02*
X84560991Y12244856D01*
X84322896Y12244856D01*
X84180039Y12197236D01*
X84084801Y12101998D01*
X84037182Y12006760D01*
X83989563Y11816284D01*
X83989563Y11673427D01*
X84037182Y11482951D01*
X84084801Y11387713D01*
X84180039Y11292475D01*
X84322896Y11244856D01*
X84560991Y11244856D01*
X83037182Y11244856D02*
X83608610Y11244856D01*
X83322896Y11244856D02*
X83322896Y12244856D01*
X83418134Y12101998D01*
X83513372Y12006760D01*
X83608610Y11959141D01*
X82418134Y12244856D02*
X82322896Y12244856D01*
X82227658Y12197236D01*
X82180039Y12149617D01*
X82132420Y12054379D01*
X82084801Y11863903D01*
X82084801Y11625808D01*
X82132420Y11435332D01*
X82180039Y11340094D01*
X82227658Y11292475D01*
X82322896Y11244856D01*
X82418134Y11244856D01*
X82513372Y11292475D01*
X82560991Y11340094D01*
X82608610Y11435332D01*
X82656229Y11625808D01*
X82656229Y11863903D01*
X82608610Y12054379D01*
X82560991Y12149617D01*
X82513372Y12197236D01*
X82418134Y12244856D01*
X120134801Y22244856D02*
X120134801Y23244856D01*
X119896706Y23244856D01*
X119753848Y23197236D01*
X119658610Y23101998D01*
X119610991Y23006760D01*
X119563372Y22816284D01*
X119563372Y22673427D01*
X119610991Y22482951D01*
X119658610Y22387713D01*
X119753848Y22292475D01*
X119896706Y22244856D01*
X120134801Y22244856D01*
X118706229Y23244856D02*
X118896706Y23244856D01*
X118991944Y23197236D01*
X119039563Y23149617D01*
X119134801Y23006760D01*
X119182420Y22816284D01*
X119182420Y22435332D01*
X119134801Y22340094D01*
X119087182Y22292475D01*
X118991944Y22244856D01*
X118801467Y22244856D01*
X118706229Y22292475D01*
X118658610Y22340094D01*
X118610991Y22435332D01*
X118610991Y22673427D01*
X118658610Y22768665D01*
X118706229Y22816284D01*
X118801467Y22863903D01*
X118991944Y22863903D01*
X119087182Y22816284D01*
X119134801Y22768665D01*
X119182420Y22673427D01*
X-78717961Y-21505144D02*
X-78717961Y-20505144D01*
X-78956056Y-20505144D01*
X-79098913Y-20552764D01*
X-79194151Y-20648002D01*
X-79241770Y-20743240D01*
X-79289389Y-20933716D01*
X-79289389Y-21076573D01*
X-79241770Y-21267049D01*
X-79194151Y-21362287D01*
X-79098913Y-21457525D01*
X-78956056Y-21505144D01*
X-78717961Y-21505144D01*
X-79670342Y-20600383D02*
X-79717961Y-20552764D01*
X-79813199Y-20505144D01*
X-80051294Y-20505144D01*
X-80146532Y-20552764D01*
X-80194151Y-20600383D01*
X-80241770Y-20695621D01*
X-80241770Y-20790859D01*
X-80194151Y-20933716D01*
X-79622723Y-21505144D01*
X-80241770Y-21505144D01*
X-81194151Y-21505144D02*
X-80622723Y-21505144D01*
X-80908437Y-21505144D02*
X-80908437Y-20505144D01*
X-80813199Y-20648002D01*
X-80717961Y-20743240D01*
X-80622723Y-20790859D01*
X4563372Y5340094D02*
X4610991Y5292475D01*
X4753848Y5244856D01*
X4849086Y5244856D01*
X4991944Y5292475D01*
X5087182Y5387713D01*
X5134801Y5482951D01*
X5182420Y5673427D01*
X5182420Y5816284D01*
X5134801Y6006760D01*
X5087182Y6101998D01*
X4991944Y6197236D01*
X4849086Y6244856D01*
X4753848Y6244856D01*
X4610991Y6197236D01*
X4563372Y6149617D01*
X4182420Y6149617D02*
X4134801Y6197236D01*
X4039563Y6244856D01*
X3801467Y6244856D01*
X3706229Y6197236D01*
X3658610Y6149617D01*
X3610991Y6054379D01*
X3610991Y5959141D01*
X3658610Y5816284D01*
X4230039Y5244856D01*
X3610991Y5244856D01*
X22663372Y1044856D02*
X22996706Y1521046D01*
X23234801Y1044856D02*
X23234801Y2044856D01*
X22853848Y2044856D01*
X22758610Y1997236D01*
X22710991Y1949617D01*
X22663372Y1854379D01*
X22663372Y1711522D01*
X22710991Y1616284D01*
X22758610Y1568665D01*
X22853848Y1521046D01*
X23234801Y1521046D01*
X21806229Y1711522D02*
X21806229Y1044856D01*
X22044325Y2092475D02*
X22282420Y1378189D01*
X21663372Y1378189D01*
X6663372Y22594856D02*
X6996706Y23071046D01*
X7234801Y22594856D02*
X7234801Y23594856D01*
X6853848Y23594856D01*
X6758610Y23547236D01*
X6710991Y23499617D01*
X6663372Y23404379D01*
X6663372Y23261522D01*
X6710991Y23166284D01*
X6758610Y23118665D01*
X6853848Y23071046D01*
X7234801Y23071046D01*
X6091944Y23166284D02*
X6187182Y23213903D01*
X6234801Y23261522D01*
X6282420Y23356760D01*
X6282420Y23404379D01*
X6234801Y23499617D01*
X6187182Y23547236D01*
X6091944Y23594856D01*
X5901467Y23594856D01*
X5806229Y23547236D01*
X5758610Y23499617D01*
X5710991Y23404379D01*
X5710991Y23356760D01*
X5758610Y23261522D01*
X5806229Y23213903D01*
X5901467Y23166284D01*
X6091944Y23166284D01*
X6187182Y23118665D01*
X6234801Y23071046D01*
X6282420Y22975808D01*
X6282420Y22785332D01*
X6234801Y22690094D01*
X6187182Y22642475D01*
X6091944Y22594856D01*
X5901467Y22594856D01*
X5806229Y22642475D01*
X5758610Y22690094D01*
X5710991Y22785332D01*
X5710991Y22975808D01*
X5758610Y23071046D01*
X5806229Y23118665D01*
X5901467Y23166284D01*
X-114994151Y23244856D02*
X-114994151Y24244856D01*
X-115232246Y24244856D01*
X-115375104Y24197236D01*
X-115470342Y24101998D01*
X-115517961Y24006760D01*
X-115565580Y23816284D01*
X-115565580Y23673427D01*
X-115517961Y23482951D01*
X-115470342Y23387713D01*
X-115375104Y23292475D01*
X-115232246Y23244856D01*
X-114994151Y23244856D01*
X-116470342Y24244856D02*
X-115994151Y24244856D01*
X-115946532Y23768665D01*
X-115994151Y23816284D01*
X-116089389Y23863903D01*
X-116327485Y23863903D01*
X-116422723Y23816284D01*
X-116470342Y23768665D01*
X-116517961Y23673427D01*
X-116517961Y23435332D01*
X-116470342Y23340094D01*
X-116422723Y23292475D01*
X-116327485Y23244856D01*
X-116089389Y23244856D01*
X-115994151Y23292475D01*
X-115946532Y23340094D01*
X84134801Y28244856D02*
X84134801Y29244856D01*
X83896706Y29244856D01*
X83753848Y29197236D01*
X83658610Y29101998D01*
X83610991Y29006760D01*
X83563372Y28816284D01*
X83563372Y28673427D01*
X83610991Y28482951D01*
X83658610Y28387713D01*
X83753848Y28292475D01*
X83896706Y28244856D01*
X84134801Y28244856D01*
X82706229Y28911522D02*
X82706229Y28244856D01*
X82944325Y29292475D02*
X83182420Y28578189D01*
X82563372Y28578189D01*
D13*
X17538692Y8955625D02*
X18254750Y8955625D01*
X18397961Y9003362D01*
X18493435Y9098836D01*
X18541172Y9242048D01*
X18541172Y9337522D01*
X18541172Y7953145D02*
X18541172Y8525991D01*
X18541172Y8239568D02*
X17538692Y8239568D01*
X17681904Y8335042D01*
X17777378Y8430516D01*
X17825115Y8525991D01*
X17634167Y7571248D02*
X17586430Y7523511D01*
X17538692Y7428036D01*
X17538692Y7189351D01*
X17586430Y7093876D01*
X17634167Y7046139D01*
X17729641Y6998402D01*
X17825115Y6998402D01*
X17968327Y7046139D01*
X18541172Y7618985D01*
X18541172Y6998402D01*
D10*
X-37390579Y-3405144D02*
X-37057245Y-2928954D01*
X-36819150Y-3405144D02*
X-36819150Y-2405144D01*
X-37200103Y-2405144D01*
X-37295341Y-2452764D01*
X-37342960Y-2500383D01*
X-37390579Y-2595621D01*
X-37390579Y-2738478D01*
X-37342960Y-2833716D01*
X-37295341Y-2881335D01*
X-37200103Y-2928954D01*
X-36819150Y-2928954D01*
X-38295341Y-2405144D02*
X-37819150Y-2405144D01*
X-37771531Y-2881335D01*
X-37819150Y-2833716D01*
X-37914388Y-2786097D01*
X-38152484Y-2786097D01*
X-38247722Y-2833716D01*
X-38295341Y-2881335D01*
X-38342960Y-2976573D01*
X-38342960Y-3214668D01*
X-38295341Y-3309906D01*
X-38247722Y-3357525D01*
X-38152484Y-3405144D01*
X-37914388Y-3405144D01*
X-37819150Y-3357525D01*
X-37771531Y-3309906D01*
X22353848Y14092475D02*
X22210991Y14044856D01*
X21972896Y14044856D01*
X21877658Y14092475D01*
X21830039Y14140094D01*
X21782420Y14235332D01*
X21782420Y14330570D01*
X21830039Y14425808D01*
X21877658Y14473427D01*
X21972896Y14521046D01*
X22163372Y14568665D01*
X22258610Y14616284D01*
X22306229Y14663903D01*
X22353848Y14759141D01*
X22353848Y14854379D01*
X22306229Y14949617D01*
X22258610Y14997236D01*
X22163372Y15044856D01*
X21925277Y15044856D01*
X21782420Y14997236D01*
X21449086Y15044856D02*
X21210991Y14044856D01*
X21020515Y14759141D01*
X20830039Y14044856D01*
X20591944Y15044856D01*
X20210991Y14044856D02*
X20210991Y15044856D01*
X19972896Y15044856D01*
X19830039Y14997236D01*
X19734801Y14901998D01*
X19687182Y14806760D01*
X19639563Y14616284D01*
X19639563Y14473427D01*
X19687182Y14282951D01*
X19734801Y14187713D01*
X19830039Y14092475D01*
X19972896Y14044856D01*
X20210991Y14044856D01*
X18496706Y15092475D02*
X19353848Y13806760D01*
X17591944Y14140094D02*
X17639563Y14092475D01*
X17782420Y14044856D01*
X17877658Y14044856D01*
X18020515Y14092475D01*
X18115753Y14187713D01*
X18163372Y14282951D01*
X18210991Y14473427D01*
X18210991Y14616284D01*
X18163372Y14806760D01*
X18115753Y14901998D01*
X18020515Y14997236D01*
X17877658Y15044856D01*
X17782420Y15044856D01*
X17639563Y14997236D01*
X17591944Y14949617D01*
X16639563Y14044856D02*
X17210991Y14044856D01*
X16925277Y14044856D02*
X16925277Y15044856D01*
X17020515Y14901998D01*
X17115753Y14806760D01*
X17210991Y14759141D01*
X120610991Y-28755144D02*
X120610991Y-27755144D01*
X120372896Y-27755144D01*
X120230039Y-27802764D01*
X120134801Y-27898002D01*
X120087182Y-27993240D01*
X120039563Y-28183716D01*
X120039563Y-28326573D01*
X120087182Y-28517049D01*
X120134801Y-28612287D01*
X120230039Y-28707525D01*
X120372896Y-28755144D01*
X120610991Y-28755144D01*
X119658610Y-27850383D02*
X119610991Y-27802764D01*
X119515753Y-27755144D01*
X119277658Y-27755144D01*
X119182420Y-27802764D01*
X119134801Y-27850383D01*
X119087182Y-27945621D01*
X119087182Y-28040859D01*
X119134801Y-28183716D01*
X119706229Y-28755144D01*
X119087182Y-28755144D01*
X118230039Y-28088478D02*
X118230039Y-28755144D01*
X118468134Y-27707525D02*
X118706229Y-28421811D01*
X118087182Y-28421811D01*
X-132994151Y22244856D02*
X-132994151Y23244856D01*
X-133232246Y23244856D01*
X-133375104Y23197236D01*
X-133470342Y23101998D01*
X-133517961Y23006760D01*
X-133565580Y22816284D01*
X-133565580Y22673427D01*
X-133517961Y22482951D01*
X-133470342Y22387713D01*
X-133375104Y22292475D01*
X-133232246Y22244856D01*
X-132994151Y22244856D01*
X-134422723Y23244856D02*
X-134232246Y23244856D01*
X-134137008Y23197236D01*
X-134089389Y23149617D01*
X-133994151Y23006760D01*
X-133946532Y22816284D01*
X-133946532Y22435332D01*
X-133994151Y22340094D01*
X-134041770Y22292475D01*
X-134137008Y22244856D01*
X-134327485Y22244856D01*
X-134422723Y22292475D01*
X-134470342Y22340094D01*
X-134517961Y22435332D01*
X-134517961Y22673427D01*
X-134470342Y22768665D01*
X-134422723Y22816284D01*
X-134327485Y22863903D01*
X-134137008Y22863903D01*
X-134041770Y22816284D01*
X-133994151Y22768665D01*
X-133946532Y22673427D01*
X-20638580Y5194856D02*
X-20305246Y5671046D01*
X-20067151Y5194856D02*
X-20067151Y6194856D01*
X-20448104Y6194856D01*
X-20543342Y6147236D01*
X-20590961Y6099617D01*
X-20638580Y6004379D01*
X-20638580Y5861522D01*
X-20590961Y5766284D01*
X-20543342Y5718665D01*
X-20448104Y5671046D01*
X-20067151Y5671046D01*
X-21019532Y6099617D02*
X-21067151Y6147236D01*
X-21162389Y6194856D01*
X-21400485Y6194856D01*
X-21495723Y6147236D01*
X-21543342Y6099617D01*
X-21590961Y6004379D01*
X-21590961Y5909141D01*
X-21543342Y5766284D01*
X-20971913Y5194856D01*
X-21590961Y5194856D01*
X4844325Y8692475D02*
X4796706Y8787713D01*
X4701467Y8882951D01*
X4558610Y9025808D01*
X4510991Y9121046D01*
X4510991Y9216284D01*
X4749086Y9168665D02*
X4701467Y9263903D01*
X4606229Y9359141D01*
X4415753Y9406760D01*
X4082420Y9406760D01*
X3891944Y9359141D01*
X3796706Y9263903D01*
X3749086Y9168665D01*
X3749086Y8978189D01*
X3796706Y8882951D01*
X3891944Y8787713D01*
X4082420Y8740094D01*
X4415753Y8740094D01*
X4606229Y8787713D01*
X4701467Y8882951D01*
X4749086Y8978189D01*
X4749086Y9168665D01*
X3844325Y8359141D02*
X3796706Y8311522D01*
X3749086Y8216284D01*
X3749086Y7978189D01*
X3796706Y7882951D01*
X3844325Y7835332D01*
X3939563Y7787713D01*
X4034801Y7787713D01*
X4177658Y7835332D01*
X4749086Y8406760D01*
X4749086Y7787713D01*
X48610991Y-22805144D02*
X48610991Y-21805144D01*
X48372896Y-21805144D01*
X48230039Y-21852764D01*
X48134801Y-21948002D01*
X48087182Y-22043240D01*
X48039563Y-22233716D01*
X48039563Y-22376573D01*
X48087182Y-22567049D01*
X48134801Y-22662287D01*
X48230039Y-22757525D01*
X48372896Y-22805144D01*
X48610991Y-22805144D01*
X47658610Y-21900383D02*
X47610991Y-21852764D01*
X47515753Y-21805144D01*
X47277658Y-21805144D01*
X47182420Y-21852764D01*
X47134801Y-21900383D01*
X47087182Y-21995621D01*
X47087182Y-22090859D01*
X47134801Y-22233716D01*
X47706229Y-22805144D01*
X47087182Y-22805144D01*
X46468134Y-21805144D02*
X46372896Y-21805144D01*
X46277658Y-21852764D01*
X46230039Y-21900383D01*
X46182420Y-21995621D01*
X46134801Y-22186097D01*
X46134801Y-22424192D01*
X46182420Y-22614668D01*
X46230039Y-22709906D01*
X46277658Y-22757525D01*
X46372896Y-22805144D01*
X46468134Y-22805144D01*
X46563372Y-22757525D01*
X46610991Y-22709906D01*
X46658610Y-22614668D01*
X46706229Y-22424192D01*
X46706229Y-22186097D01*
X46658610Y-21995621D01*
X46610991Y-21900383D01*
X46563372Y-21852764D01*
X46468134Y-21805144D01*
X-60517961Y-22805144D02*
X-60517961Y-21805144D01*
X-60756056Y-21805144D01*
X-60898913Y-21852764D01*
X-60994151Y-21948002D01*
X-61041770Y-22043240D01*
X-61089389Y-22233716D01*
X-61089389Y-22376573D01*
X-61041770Y-22567049D01*
X-60994151Y-22662287D01*
X-60898913Y-22757525D01*
X-60756056Y-22805144D01*
X-60517961Y-22805144D01*
X-61470342Y-21900383D02*
X-61517961Y-21852764D01*
X-61613199Y-21805144D01*
X-61851294Y-21805144D01*
X-61946532Y-21852764D01*
X-61994151Y-21900383D01*
X-62041770Y-21995621D01*
X-62041770Y-22090859D01*
X-61994151Y-22233716D01*
X-61422723Y-22805144D01*
X-62041770Y-22805144D01*
X-62660818Y-21805144D02*
X-62756056Y-21805144D01*
X-62851294Y-21852764D01*
X-62898913Y-21900383D01*
X-62946532Y-21995621D01*
X-62994151Y-22186097D01*
X-62994151Y-22424192D01*
X-62946532Y-22614668D01*
X-62898913Y-22709906D01*
X-62851294Y-22757525D01*
X-62756056Y-22805144D01*
X-62660818Y-22805144D01*
X-62565580Y-22757525D01*
X-62517961Y-22709906D01*
X-62470342Y-22614668D01*
X-62422723Y-22424192D01*
X-62422723Y-22186097D01*
X-62470342Y-21995621D01*
X-62517961Y-21900383D01*
X-62565580Y-21852764D01*
X-62660818Y-21805144D01*
X30084801Y8844856D02*
X30084801Y9844856D01*
X29846706Y9844856D01*
X29703848Y9797236D01*
X29608610Y9701998D01*
X29560991Y9606760D01*
X29513372Y9416284D01*
X29513372Y9273427D01*
X29560991Y9082951D01*
X29608610Y8987713D01*
X29703848Y8892475D01*
X29846706Y8844856D01*
X30084801Y8844856D01*
X29180039Y9844856D02*
X28513372Y9844856D01*
X28941944Y8844856D01*
X-42517961Y-8155144D02*
X-42517961Y-7155144D01*
X-42756056Y-7155144D01*
X-42898913Y-7202764D01*
X-42994151Y-7298002D01*
X-43041770Y-7393240D01*
X-43089389Y-7583716D01*
X-43089389Y-7726573D01*
X-43041770Y-7917049D01*
X-42994151Y-8012287D01*
X-42898913Y-8107525D01*
X-42756056Y-8155144D01*
X-42517961Y-8155144D01*
X-44041770Y-8155144D02*
X-43470342Y-8155144D01*
X-43756056Y-8155144D02*
X-43756056Y-7155144D01*
X-43660818Y-7298002D01*
X-43565580Y-7393240D01*
X-43470342Y-7440859D01*
X-44375104Y-7155144D02*
X-44994151Y-7155144D01*
X-44660818Y-7536097D01*
X-44803675Y-7536097D01*
X-44898913Y-7583716D01*
X-44946532Y-7631335D01*
X-44994151Y-7726573D01*
X-44994151Y-7964668D01*
X-44946532Y-8059906D01*
X-44898913Y-8107525D01*
X-44803675Y-8155144D01*
X-44517961Y-8155144D01*
X-44422723Y-8107525D01*
X-44375104Y-8059906D01*
X-23843342Y15994856D02*
X-23843342Y15185332D01*
X-23890961Y15090094D01*
X-23938580Y15042475D01*
X-24033818Y14994856D01*
X-24224294Y14994856D01*
X-24319532Y15042475D01*
X-24367151Y15090094D01*
X-24414770Y15185332D01*
X-24414770Y15994856D01*
X-24795723Y15994856D02*
X-25414770Y15994856D01*
X-25081437Y15613903D01*
X-25224294Y15613903D01*
X-25319532Y15566284D01*
X-25367151Y15518665D01*
X-25414770Y15423427D01*
X-25414770Y15185332D01*
X-25367151Y15090094D01*
X-25319532Y15042475D01*
X-25224294Y14994856D01*
X-24938580Y14994856D01*
X-24843342Y15042475D01*
X-24795723Y15090094D01*
X120560991Y-11755144D02*
X120560991Y-10755144D01*
X120322896Y-10755144D01*
X120180039Y-10802764D01*
X120084801Y-10898002D01*
X120037182Y-10993240D01*
X119989563Y-11183716D01*
X119989563Y-11326573D01*
X120037182Y-11517049D01*
X120084801Y-11612287D01*
X120180039Y-11707525D01*
X120322896Y-11755144D01*
X120560991Y-11755144D01*
X119037182Y-11755144D02*
X119608610Y-11755144D01*
X119322896Y-11755144D02*
X119322896Y-10755144D01*
X119418134Y-10898002D01*
X119513372Y-10993240D01*
X119608610Y-11040859D01*
X118465753Y-11183716D02*
X118560991Y-11136097D01*
X118608610Y-11088478D01*
X118656229Y-10993240D01*
X118656229Y-10945621D01*
X118608610Y-10850383D01*
X118560991Y-10802764D01*
X118465753Y-10755144D01*
X118275277Y-10755144D01*
X118180039Y-10802764D01*
X118132420Y-10850383D01*
X118084801Y-10945621D01*
X118084801Y-10993240D01*
X118132420Y-11088478D01*
X118180039Y-11136097D01*
X118275277Y-11183716D01*
X118465753Y-11183716D01*
X118560991Y-11231335D01*
X118608610Y-11278954D01*
X118656229Y-11374192D01*
X118656229Y-11564668D01*
X118608610Y-11659906D01*
X118560991Y-11707525D01*
X118465753Y-11755144D01*
X118275277Y-11755144D01*
X118180039Y-11707525D01*
X118132420Y-11659906D01*
X118084801Y-11564668D01*
X118084801Y-11374192D01*
X118132420Y-11278954D01*
X118180039Y-11231335D01*
X118275277Y-11183716D01*
D13*
X-32697188Y8211911D02*
X-31981130Y8211911D01*
X-31837919Y8259648D01*
X-31742445Y8355122D01*
X-31694708Y8498334D01*
X-31694708Y8593808D01*
X-31694708Y7209431D02*
X-31694708Y7782277D01*
X-31694708Y7495854D02*
X-32697188Y7495854D01*
X-32553976Y7591328D01*
X-32458502Y7686802D01*
X-32410765Y7782277D01*
X-32601713Y6827534D02*
X-32649450Y6779797D01*
X-32697188Y6684322D01*
X-32697188Y6445637D01*
X-32649450Y6350162D01*
X-32601713Y6302425D01*
X-32506239Y6254688D01*
X-32410765Y6254688D01*
X-32267553Y6302425D01*
X-31694708Y6875271D01*
X-31694708Y6254688D01*
D10*
X-42944151Y8844856D02*
X-42944151Y9844856D01*
X-43182246Y9844856D01*
X-43325104Y9797236D01*
X-43420342Y9701998D01*
X-43467961Y9606760D01*
X-43515580Y9416284D01*
X-43515580Y9273427D01*
X-43467961Y9082951D01*
X-43420342Y8987713D01*
X-43325104Y8892475D01*
X-43182246Y8844856D01*
X-42944151Y8844856D01*
X-43848913Y9844856D02*
X-44515580Y9844856D01*
X-44087008Y8844856D01*
X66810991Y-21505144D02*
X66810991Y-20505144D01*
X66572896Y-20505144D01*
X66430039Y-20552764D01*
X66334801Y-20648002D01*
X66287182Y-20743240D01*
X66239563Y-20933716D01*
X66239563Y-21076573D01*
X66287182Y-21267049D01*
X66334801Y-21362287D01*
X66430039Y-21457525D01*
X66572896Y-21505144D01*
X66810991Y-21505144D01*
X65858610Y-20600383D02*
X65810991Y-20552764D01*
X65715753Y-20505144D01*
X65477658Y-20505144D01*
X65382420Y-20552764D01*
X65334801Y-20600383D01*
X65287182Y-20695621D01*
X65287182Y-20790859D01*
X65334801Y-20933716D01*
X65906229Y-21505144D01*
X65287182Y-21505144D01*
X64334801Y-21505144D02*
X64906229Y-21505144D01*
X64620515Y-21505144D02*
X64620515Y-20505144D01*
X64715753Y-20648002D01*
X64810991Y-20743240D01*
X64906229Y-20790859D01*
X12374086Y28213903D02*
X11897896Y28547236D01*
X12374086Y28785332D02*
X11374086Y28785332D01*
X11374086Y28404379D01*
X11421706Y28309141D01*
X11469325Y28261522D01*
X11564563Y28213903D01*
X11707420Y28213903D01*
X11802658Y28261522D01*
X11850277Y28309141D01*
X11897896Y28404379D01*
X11897896Y28785332D01*
X12374086Y27261522D02*
X12374086Y27832951D01*
X12374086Y27547236D02*
X11374086Y27547236D01*
X11516944Y27642475D01*
X11612182Y27737713D01*
X11659801Y27832951D01*
X-936628Y10044856D02*
X-603294Y10521046D01*
X-365199Y10044856D02*
X-365199Y11044856D01*
X-746152Y11044856D01*
X-841390Y10997236D01*
X-889009Y10949617D01*
X-936628Y10854379D01*
X-936628Y10711522D01*
X-889009Y10616284D01*
X-841390Y10568665D01*
X-746152Y10521046D01*
X-365199Y10521046D01*
X-1412818Y10044856D02*
X-1603294Y10044856D01*
X-1698533Y10092475D01*
X-1746152Y10140094D01*
X-1841390Y10282951D01*
X-1889009Y10473427D01*
X-1889009Y10854379D01*
X-1841390Y10949617D01*
X-1793771Y10997236D01*
X-1698533Y11044856D01*
X-1508056Y11044856D01*
X-1412818Y10997236D01*
X-1365199Y10949617D01*
X-1317580Y10854379D01*
X-1317580Y10616284D01*
X-1365199Y10521046D01*
X-1412818Y10473427D01*
X-1508056Y10425808D01*
X-1698533Y10425808D01*
X-1793771Y10473427D01*
X-1841390Y10521046D01*
X-1889009Y10616284D01*
X30610991Y-25155144D02*
X30610991Y-24155144D01*
X30372896Y-24155144D01*
X30230039Y-24202764D01*
X30134801Y-24298002D01*
X30087182Y-24393240D01*
X30039563Y-24583716D01*
X30039563Y-24726573D01*
X30087182Y-24917049D01*
X30134801Y-25012287D01*
X30230039Y-25107525D01*
X30372896Y-25155144D01*
X30610991Y-25155144D01*
X29087182Y-25155144D02*
X29658610Y-25155144D01*
X29372896Y-25155144D02*
X29372896Y-24155144D01*
X29468134Y-24298002D01*
X29563372Y-24393240D01*
X29658610Y-24440859D01*
X28610991Y-25155144D02*
X28420515Y-25155144D01*
X28325277Y-25107525D01*
X28277658Y-25059906D01*
X28182420Y-24917049D01*
X28134801Y-24726573D01*
X28134801Y-24345621D01*
X28182420Y-24250383D01*
X28230039Y-24202764D01*
X28325277Y-24155144D01*
X28515753Y-24155144D01*
X28610991Y-24202764D01*
X28658610Y-24250383D01*
X28706229Y-24345621D01*
X28706229Y-24583716D01*
X28658610Y-24678954D01*
X28610991Y-24726573D01*
X28515753Y-24774192D01*
X28325277Y-24774192D01*
X28230039Y-24726573D01*
X28182420Y-24678954D01*
X28134801Y-24583716D01*
X22563372Y-3355144D02*
X22896706Y-2878954D01*
X23134801Y-3355144D02*
X23134801Y-2355144D01*
X22753848Y-2355144D01*
X22658610Y-2402764D01*
X22610991Y-2450383D01*
X22563372Y-2545621D01*
X22563372Y-2688478D01*
X22610991Y-2783716D01*
X22658610Y-2831335D01*
X22753848Y-2878954D01*
X23134801Y-2878954D01*
X21658610Y-2355144D02*
X22134801Y-2355144D01*
X22182420Y-2831335D01*
X22134801Y-2783716D01*
X22039563Y-2736097D01*
X21801467Y-2736097D01*
X21706229Y-2783716D01*
X21658610Y-2831335D01*
X21610991Y-2926573D01*
X21610991Y-3164668D01*
X21658610Y-3259906D01*
X21706229Y-3307525D01*
X21801467Y-3355144D01*
X22039563Y-3355144D01*
X22134801Y-3307525D01*
X22182420Y-3259906D01*
X120560991Y5244856D02*
X120560991Y6244856D01*
X120322896Y6244856D01*
X120180039Y6197236D01*
X120084801Y6101998D01*
X120037182Y6006760D01*
X119989563Y5816284D01*
X119989563Y5673427D01*
X120037182Y5482951D01*
X120084801Y5387713D01*
X120180039Y5292475D01*
X120322896Y5244856D01*
X120560991Y5244856D01*
X119037182Y5244856D02*
X119608610Y5244856D01*
X119322896Y5244856D02*
X119322896Y6244856D01*
X119418134Y6101998D01*
X119513372Y6006760D01*
X119608610Y5959141D01*
X118656229Y6149617D02*
X118608610Y6197236D01*
X118513372Y6244856D01*
X118275277Y6244856D01*
X118180039Y6197236D01*
X118132420Y6149617D01*
X118084801Y6054379D01*
X118084801Y5959141D01*
X118132420Y5816284D01*
X118703848Y5244856D01*
X118084801Y5244856D01*
X-36482211Y-44719445D02*
X-36982211Y-43853420D01*
X-37188407Y-43972467D01*
X-37288316Y-44085135D01*
X-37323175Y-44215233D01*
X-37316795Y-44321521D01*
X-37262797Y-44510288D01*
X-37191368Y-44634006D01*
X-37054891Y-44775153D01*
X-36966032Y-44833822D01*
X-36835935Y-44868682D01*
X-36688407Y-44838493D01*
X-36482211Y-44719445D01*
X-37759378Y-44412089D02*
X-37824427Y-44394659D01*
X-37930715Y-44401039D01*
X-38136911Y-44520086D01*
X-38195580Y-44608945D01*
X-38213010Y-44673993D01*
X-38206630Y-44780282D01*
X-38159011Y-44862760D01*
X-38046343Y-44962669D01*
X-37265758Y-45171826D01*
X-37801869Y-45481350D01*
X-39044176Y-45043896D02*
X-38879219Y-44948658D01*
X-38772931Y-44942278D01*
X-38707882Y-44959708D01*
X-38553975Y-45035807D01*
X-38417497Y-45176954D01*
X-38227021Y-45506869D01*
X-38220641Y-45613157D01*
X-38238071Y-45678206D01*
X-38296740Y-45767064D01*
X-38461697Y-45862302D01*
X-38567986Y-45868682D01*
X-38633034Y-45851252D01*
X-38721893Y-45792583D01*
X-38840940Y-45586387D01*
X-38847320Y-45480098D01*
X-38829890Y-45415050D01*
X-38771221Y-45326191D01*
X-38606264Y-45230953D01*
X-38499976Y-45224573D01*
X-38434927Y-45242003D01*
X-38346069Y-45300672D01*
X-23238580Y21794856D02*
X-22905246Y22271046D01*
X-22667151Y21794856D02*
X-22667151Y22794856D01*
X-23048104Y22794856D01*
X-23143342Y22747236D01*
X-23190961Y22699617D01*
X-23238580Y22604379D01*
X-23238580Y22461522D01*
X-23190961Y22366284D01*
X-23143342Y22318665D01*
X-23048104Y22271046D01*
X-22667151Y22271046D01*
X-23571913Y22794856D02*
X-24238580Y22794856D01*
X-23810008Y21794856D01*
X22599051Y-43935898D02*
X22099051Y-44801924D01*
X22305247Y-44920971D01*
X22452775Y-44951161D01*
X22582872Y-44916301D01*
X22671731Y-44857632D01*
X22808208Y-44716484D01*
X22879637Y-44592766D01*
X22933635Y-44404000D01*
X22940015Y-44297711D01*
X22905156Y-44167614D01*
X22805247Y-44054946D01*
X22599051Y-43935898D01*
X22971456Y-45195636D02*
X22988886Y-45260684D01*
X23047555Y-45349543D01*
X23253751Y-45468590D01*
X23360039Y-45474970D01*
X23425088Y-45457540D01*
X23513947Y-45398871D01*
X23561566Y-45316393D01*
X23591755Y-45168865D01*
X23382597Y-44388279D01*
X23918708Y-44697803D01*
X24161016Y-45992400D02*
X23996059Y-45897162D01*
X23937390Y-45808303D01*
X23919960Y-45743255D01*
X23908910Y-45571918D01*
X23962909Y-45383151D01*
X24153385Y-45053236D01*
X24242243Y-44994567D01*
X24307292Y-44977138D01*
X24413580Y-44983517D01*
X24578537Y-45078755D01*
X24637206Y-45167614D01*
X24654636Y-45232663D01*
X24648256Y-45338951D01*
X24529209Y-45545147D01*
X24440350Y-45603816D01*
X24375302Y-45621246D01*
X24269014Y-45614866D01*
X24104056Y-45519628D01*
X24045387Y-45430770D01*
X24027957Y-45365721D01*
X24034337Y-45259433D01*
X-19665581Y10690094D02*
X-19617962Y10642475D01*
X-19475105Y10594856D01*
X-19379867Y10594856D01*
X-19237009Y10642475D01*
X-19141771Y10737713D01*
X-19094152Y10832951D01*
X-19046533Y11023427D01*
X-19046533Y11166284D01*
X-19094152Y11356760D01*
X-19141771Y11451998D01*
X-19237009Y11547236D01*
X-19379867Y11594856D01*
X-19475105Y11594856D01*
X-19617962Y11547236D01*
X-19665581Y11499617D01*
X-20617962Y10594856D02*
X-20046533Y10594856D01*
X-20332247Y10594856D02*
X-20332247Y11594856D01*
X-20237009Y11451998D01*
X-20141771Y11356760D01*
X-20046533Y11309141D01*
X-36048104Y11313903D02*
X-36000485Y11361522D01*
X-35952866Y11504379D01*
X-35952866Y11599617D01*
X-36000485Y11742475D01*
X-36095723Y11837713D01*
X-36190961Y11885332D01*
X-36381437Y11932951D01*
X-36524294Y11932951D01*
X-36714770Y11885332D01*
X-36810008Y11837713D01*
X-36905246Y11742475D01*
X-36952866Y11599617D01*
X-36952866Y11504379D01*
X-36905246Y11361522D01*
X-36857627Y11313903D01*
X-36952866Y10980570D02*
X-36952866Y10361522D01*
X-36571913Y10694856D01*
X-36571913Y10551998D01*
X-36524294Y10456760D01*
X-36476675Y10409141D01*
X-36381437Y10361522D01*
X-36143342Y10361522D01*
X-36048104Y10409141D01*
X-36000485Y10456760D01*
X-35952866Y10551998D01*
X-35952866Y10837713D01*
X-36000485Y10932951D01*
X-36048104Y10980570D01*
X102610991Y6244856D02*
X102610991Y7244856D01*
X102372896Y7244856D01*
X102230039Y7197236D01*
X102134801Y7101998D01*
X102087182Y7006760D01*
X102039563Y6816284D01*
X102039563Y6673427D01*
X102087182Y6482951D01*
X102134801Y6387713D01*
X102230039Y6292475D01*
X102372896Y6244856D01*
X102610991Y6244856D01*
X101087182Y6244856D02*
X101658610Y6244856D01*
X101372896Y6244856D02*
X101372896Y7244856D01*
X101468134Y7101998D01*
X101563372Y7006760D01*
X101658610Y6959141D01*
X100134801Y6244856D02*
X100706229Y6244856D01*
X100420515Y6244856D02*
X100420515Y7244856D01*
X100515753Y7101998D01*
X100610991Y7006760D01*
X100706229Y6959141D01*
X-29071913Y9763903D02*
X-29071913Y9430570D01*
X-28838580Y10130570D02*
X-29071913Y9763903D01*
X-29305246Y10130570D01*
X-29905246Y9430570D02*
X-29505246Y9430570D01*
X-29705246Y9430570D02*
X-29705246Y10130570D01*
X-29638580Y10030570D01*
X-29571913Y9963903D01*
X-29505246Y9930570D01*
X-22143342Y9294856D02*
X-22143342Y8485332D01*
X-22190961Y8390094D01*
X-22238580Y8342475D01*
X-22333818Y8294856D01*
X-22524294Y8294856D01*
X-22619532Y8342475D01*
X-22667151Y8390094D01*
X-22714770Y8485332D01*
X-22714770Y9294856D01*
X-23714770Y8294856D02*
X-23143342Y8294856D01*
X-23429056Y8294856D02*
X-23429056Y9294856D01*
X-23333818Y9151998D01*
X-23238580Y9056760D01*
X-23143342Y9009141D01*
X9758610Y11544856D02*
X9758610Y10735332D01*
X9710991Y10640094D01*
X9663372Y10592475D01*
X9568134Y10544856D01*
X9377658Y10544856D01*
X9282420Y10592475D01*
X9234801Y10640094D01*
X9187182Y10735332D01*
X9187182Y11544856D01*
X8187182Y10544856D02*
X8758610Y10544856D01*
X8472896Y10544856D02*
X8472896Y11544856D01*
X8568134Y11401998D01*
X8663372Y11306760D01*
X8758610Y11259141D01*
X15463372Y5240094D02*
X15510991Y5192475D01*
X15653848Y5144856D01*
X15749086Y5144856D01*
X15891944Y5192475D01*
X15987182Y5287713D01*
X16034801Y5382951D01*
X16082420Y5573427D01*
X16082420Y5716284D01*
X16034801Y5906760D01*
X15987182Y6001998D01*
X15891944Y6097236D01*
X15749086Y6144856D01*
X15653848Y6144856D01*
X15510991Y6097236D01*
X15463372Y6049617D01*
X14558610Y6144856D02*
X15034801Y6144856D01*
X15082420Y5668665D01*
X15034801Y5716284D01*
X14939563Y5763903D01*
X14701467Y5763903D01*
X14606229Y5716284D01*
X14558610Y5668665D01*
X14510991Y5573427D01*
X14510991Y5335332D01*
X14558610Y5240094D01*
X14606229Y5192475D01*
X14701467Y5144856D01*
X14939563Y5144856D01*
X15034801Y5192475D01*
X15082420Y5240094D01*
X84560991Y-5755144D02*
X84560991Y-4755144D01*
X84322896Y-4755144D01*
X84180039Y-4802764D01*
X84084801Y-4898002D01*
X84037182Y-4993240D01*
X83989563Y-5183716D01*
X83989563Y-5326573D01*
X84037182Y-5517049D01*
X84084801Y-5612287D01*
X84180039Y-5707525D01*
X84322896Y-5755144D01*
X84560991Y-5755144D01*
X83037182Y-5755144D02*
X83608610Y-5755144D01*
X83322896Y-5755144D02*
X83322896Y-4755144D01*
X83418134Y-4898002D01*
X83513372Y-4993240D01*
X83608610Y-5040859D01*
X82180039Y-4755144D02*
X82370515Y-4755144D01*
X82465753Y-4802764D01*
X82513372Y-4850383D01*
X82608610Y-4993240D01*
X82656229Y-5183716D01*
X82656229Y-5564668D01*
X82608610Y-5659906D01*
X82560991Y-5707525D01*
X82465753Y-5755144D01*
X82275277Y-5755144D01*
X82180039Y-5707525D01*
X82132420Y-5659906D01*
X82084801Y-5564668D01*
X82084801Y-5326573D01*
X82132420Y-5231335D01*
X82180039Y-5183716D01*
X82275277Y-5136097D01*
X82465753Y-5136097D01*
X82560991Y-5183716D01*
X82608610Y-5231335D01*
X82656229Y-5326573D01*
X41922014Y-54496525D02*
X42255347Y-54020335D01*
X42493442Y-54496525D02*
X42493442Y-53496525D01*
X42112490Y-53496525D01*
X42017252Y-53544145D01*
X41969633Y-53591764D01*
X41922014Y-53687002D01*
X41922014Y-53829859D01*
X41969633Y-53925097D01*
X42017252Y-53972716D01*
X42112490Y-54020335D01*
X42493442Y-54020335D01*
X41493442Y-53972716D02*
X41160109Y-53972716D01*
X41017252Y-54496525D02*
X41493442Y-54496525D01*
X41493442Y-53496525D01*
X41017252Y-53496525D01*
X40255347Y-53972716D02*
X40588681Y-53972716D01*
X40588681Y-54496525D02*
X40588681Y-53496525D01*
X40112490Y-53496525D01*
X39588681Y-53496525D02*
X39588681Y-53734621D01*
X39826776Y-53639383D02*
X39588681Y-53734621D01*
X39350585Y-53639383D01*
X39731538Y-53925097D02*
X39588681Y-53734621D01*
X39445823Y-53925097D01*
X38826776Y-53496525D02*
X38826776Y-53734621D01*
X39064871Y-53639383D02*
X38826776Y-53734621D01*
X38588681Y-53639383D01*
X38969633Y-53925097D02*
X38826776Y-53734621D01*
X38683919Y-53925097D01*
X20349086Y-24838477D02*
X19349086Y-24838477D01*
X19349086Y-25076572D01*
X19396706Y-25219429D01*
X19491944Y-25314667D01*
X19587182Y-25362286D01*
X19777658Y-25409905D01*
X19920515Y-25409905D01*
X20110991Y-25362286D01*
X20206229Y-25314667D01*
X20301467Y-25219429D01*
X20349086Y-25076572D01*
X20349086Y-24838477D01*
X19444325Y-25790858D02*
X19396706Y-25838477D01*
X19349086Y-25933715D01*
X19349086Y-26171810D01*
X19396706Y-26267048D01*
X19444325Y-26314667D01*
X19539563Y-26362286D01*
X19634801Y-26362286D01*
X19777658Y-26314667D01*
X20349086Y-25743239D01*
X20349086Y-26362286D01*
X19349086Y-27267048D02*
X19349086Y-26790858D01*
X19825277Y-26743239D01*
X19777658Y-26790858D01*
X19730039Y-26886096D01*
X19730039Y-27124191D01*
X19777658Y-27219429D01*
X19825277Y-27267048D01*
X19920515Y-27314667D01*
X20158610Y-27314667D01*
X20253848Y-27267048D01*
X20301467Y-27219429D01*
X20349086Y-27124191D01*
X20349086Y-26886096D01*
X20301467Y-26790858D01*
X20253848Y-26743239D01*
X6563372Y5244856D02*
X6896706Y5721046D01*
X7134801Y5244856D02*
X7134801Y6244856D01*
X6753848Y6244856D01*
X6658610Y6197236D01*
X6610991Y6149617D01*
X6563372Y6054379D01*
X6563372Y5911522D01*
X6610991Y5816284D01*
X6658610Y5768665D01*
X6753848Y5721046D01*
X7134801Y5721046D01*
X6182420Y6149617D02*
X6134801Y6197236D01*
X6039563Y6244856D01*
X5801467Y6244856D01*
X5706229Y6197236D01*
X5658610Y6149617D01*
X5610991Y6054379D01*
X5610991Y5959141D01*
X5658610Y5816284D01*
X6230039Y5244856D01*
X5610991Y5244856D01*
X-26090580Y27194856D02*
X-25757246Y27671046D01*
X-25519151Y27194856D02*
X-25519151Y28194856D01*
X-25900104Y28194856D01*
X-25995342Y28147236D01*
X-26042961Y28099617D01*
X-26090580Y28004379D01*
X-26090580Y27861522D01*
X-26042961Y27766284D01*
X-25995342Y27718665D01*
X-25900104Y27671046D01*
X-25519151Y27671046D01*
X-27042961Y27194856D02*
X-26471532Y27194856D01*
X-26757246Y27194856D02*
X-26757246Y28194856D01*
X-26662008Y28051998D01*
X-26566770Y27956760D01*
X-26471532Y27909141D01*
X-26648104Y11913903D02*
X-26600485Y11961522D01*
X-26552866Y12104379D01*
X-26552866Y12199617D01*
X-26600485Y12342475D01*
X-26695723Y12437713D01*
X-26790961Y12485332D01*
X-26981437Y12532951D01*
X-27124294Y12532951D01*
X-27314770Y12485332D01*
X-27410008Y12437713D01*
X-27505246Y12342475D01*
X-27552866Y12199617D01*
X-27552866Y12104379D01*
X-27505246Y11961522D01*
X-27457627Y11913903D01*
X-27219532Y11056760D02*
X-26552866Y11056760D01*
X-27600485Y11294856D02*
X-26886199Y11532951D01*
X-26886199Y10913903D01*
X-42517961Y-25155144D02*
X-42517961Y-24155144D01*
X-42756056Y-24155144D01*
X-42898913Y-24202764D01*
X-42994151Y-24298002D01*
X-43041770Y-24393240D01*
X-43089389Y-24583716D01*
X-43089389Y-24726573D01*
X-43041770Y-24917049D01*
X-42994151Y-25012287D01*
X-42898913Y-25107525D01*
X-42756056Y-25155144D01*
X-42517961Y-25155144D01*
X-44041770Y-25155144D02*
X-43470342Y-25155144D01*
X-43756056Y-25155144D02*
X-43756056Y-24155144D01*
X-43660818Y-24298002D01*
X-43565580Y-24393240D01*
X-43470342Y-24440859D01*
X-44517961Y-25155144D02*
X-44708437Y-25155144D01*
X-44803675Y-25107525D01*
X-44851294Y-25059906D01*
X-44946532Y-24917049D01*
X-44994151Y-24726573D01*
X-44994151Y-24345621D01*
X-44946532Y-24250383D01*
X-44898913Y-24202764D01*
X-44803675Y-24155144D01*
X-44613199Y-24155144D01*
X-44517961Y-24202764D01*
X-44470342Y-24250383D01*
X-44422723Y-24345621D01*
X-44422723Y-24583716D01*
X-44470342Y-24678954D01*
X-44517961Y-24726573D01*
X-44613199Y-24774192D01*
X-44803675Y-24774192D01*
X-44898913Y-24726573D01*
X-44946532Y-24678954D01*
X-44994151Y-24583716D01*
X30610991Y-8155144D02*
X30610991Y-7155144D01*
X30372896Y-7155144D01*
X30230039Y-7202764D01*
X30134801Y-7298002D01*
X30087182Y-7393240D01*
X30039563Y-7583716D01*
X30039563Y-7726573D01*
X30087182Y-7917049D01*
X30134801Y-8012287D01*
X30230039Y-8107525D01*
X30372896Y-8155144D01*
X30610991Y-8155144D01*
X29087182Y-8155144D02*
X29658610Y-8155144D01*
X29372896Y-8155144D02*
X29372896Y-7155144D01*
X29468134Y-7298002D01*
X29563372Y-7393240D01*
X29658610Y-7440859D01*
X28753848Y-7155144D02*
X28134801Y-7155144D01*
X28468134Y-7536097D01*
X28325277Y-7536097D01*
X28230039Y-7583716D01*
X28182420Y-7631335D01*
X28134801Y-7726573D01*
X28134801Y-7964668D01*
X28182420Y-8059906D01*
X28230039Y-8107525D01*
X28325277Y-8155144D01*
X28610991Y-8155144D01*
X28706229Y-8107525D01*
X28753848Y-8059906D01*
X30134801Y25844856D02*
X30134801Y26844856D01*
X29896706Y26844856D01*
X29753848Y26797236D01*
X29658610Y26701998D01*
X29610991Y26606760D01*
X29563372Y26416284D01*
X29563372Y26273427D01*
X29610991Y26082951D01*
X29658610Y25987713D01*
X29753848Y25892475D01*
X29896706Y25844856D01*
X30134801Y25844856D01*
X28610991Y25844856D02*
X29182420Y25844856D01*
X28896706Y25844856D02*
X28896706Y26844856D01*
X28991944Y26701998D01*
X29087182Y26606760D01*
X29182420Y26559141D01*
X-60894151Y11294856D02*
X-60894151Y12294856D01*
X-61132246Y12294856D01*
X-61275104Y12247236D01*
X-61370342Y12151998D01*
X-61417961Y12056760D01*
X-61465580Y11866284D01*
X-61465580Y11723427D01*
X-61417961Y11532951D01*
X-61370342Y11437713D01*
X-61275104Y11342475D01*
X-61132246Y11294856D01*
X-60894151Y11294856D01*
X-62037008Y11866284D02*
X-61941770Y11913903D01*
X-61894151Y11961522D01*
X-61846532Y12056760D01*
X-61846532Y12104379D01*
X-61894151Y12199617D01*
X-61941770Y12247236D01*
X-62037008Y12294856D01*
X-62227485Y12294856D01*
X-62322723Y12247236D01*
X-62370342Y12199617D01*
X-62417961Y12104379D01*
X-62417961Y12056760D01*
X-62370342Y11961522D01*
X-62322723Y11913903D01*
X-62227485Y11866284D01*
X-62037008Y11866284D01*
X-61941770Y11818665D01*
X-61894151Y11771046D01*
X-61846532Y11675808D01*
X-61846532Y11485332D01*
X-61894151Y11390094D01*
X-61941770Y11342475D01*
X-62037008Y11294856D01*
X-62227485Y11294856D01*
X-62322723Y11342475D01*
X-62370342Y11390094D01*
X-62417961Y11485332D01*
X-62417961Y11675808D01*
X-62370342Y11771046D01*
X-62322723Y11818665D01*
X-62227485Y11866284D01*
D14*
X22857661Y10484736D02*
X22857661Y11684736D01*
X24307661Y11784736D02*
X24507661Y11784736D01*
X24307661Y10384736D02*
X24507661Y10384736D01*
X-99932246Y12697236D02*
X-96032246Y12697236D01*
X-99932246Y14697236D02*
X-96032246Y14697236D01*
X-99932246Y12697236D02*
X-99932246Y14697236D01*
X63146706Y-1002764D02*
X67046706Y-1002764D01*
X63146706Y-3002764D02*
X67046706Y-3002764D01*
X63146706Y-3002764D02*
X63146706Y-1002764D01*
X-135932246Y8697236D02*
X-132032246Y8697236D01*
X-135932246Y6697236D02*
X-135932246Y8697236D01*
X-135932246Y6697236D02*
X-132032246Y6697236D01*
X-31232246Y-28302763D02*
X-33232246Y-28302763D01*
X-31232246Y-28302763D02*
X-31232246Y-24402763D01*
X-33232246Y-28302763D02*
X-33232246Y-24402763D01*
X45346706Y-4252764D02*
X49246706Y-4252764D01*
X45346706Y-2252764D02*
X49246706Y-2252764D01*
X45346706Y-4252764D02*
X45346706Y-2252764D01*
X-81982246Y30997236D02*
X-78082246Y30997236D01*
X-81982246Y32997236D02*
X-78082246Y32997236D01*
X-81982246Y30997236D02*
X-81982246Y32997236D01*
X-81982246Y-1002764D02*
X-78082246Y-1002764D01*
X-81982246Y-3002764D02*
X-78082246Y-3002764D01*
X-81982246Y-3002764D02*
X-81982246Y-1002764D01*
X63146706Y15997236D02*
X67046706Y15997236D01*
X63146706Y13997236D02*
X63146706Y15997236D01*
X63146706Y13997236D02*
X67046706Y13997236D01*
X-99932246Y-4302764D02*
X-99932246Y-2302764D01*
X-99932246Y-4302764D02*
X-96032246Y-4302764D01*
X-99932246Y-2302764D02*
X-96032246Y-2302764D01*
X14431706Y9147236D02*
X14431706Y9947236D01*
X11311706Y9147236D02*
X11311706Y10947236D01*
X14431706Y9147236D02*
X14431706Y8347236D01*
X11311706Y9147236D02*
X11311706Y8347236D01*
X-117932246Y-26302764D02*
X-117932246Y-24302764D01*
X-117932246Y-24302764D02*
X-114032246Y-24302764D01*
X-117932246Y-26302764D02*
X-114032246Y-26302764D01*
D15*
X-5128294Y14997236D02*
X-5128294Y20497236D01*
X-5128294Y15722236D02*
X-6728294Y15722236D01*
X-2228294Y20516236D02*
X-2228294Y20506236D01*
X-3159294Y20747236D02*
X-4297294Y20747236D01*
X-6728294Y15722236D02*
X-6728294Y16997236D01*
X-6728294Y16997236D02*
X-5128294Y16997236D01*
X-2228294Y16247236D02*
X-2228294Y17747236D01*
X-4297294Y14747236D02*
X-3159294Y14747236D01*
D14*
X-117982246Y-9302764D02*
X-117982246Y-7302764D01*
X-117982246Y-9302764D02*
X-114082246Y-9302764D01*
X-117982246Y-7302764D02*
X-114082246Y-7302764D01*
X-81982246Y-41952764D02*
X-81982246Y-39952764D01*
X-81982246Y-39952764D02*
X-78082246Y-39952764D01*
X-81982246Y-41952764D02*
X-78082246Y-41952764D01*
X45346706Y29647236D02*
X45346706Y31647236D01*
X45346706Y31647236D02*
X49246706Y31647236D01*
X45346706Y29647236D02*
X49246706Y29647236D01*
X-1086070Y22824736D02*
X-1595518Y22824736D01*
X-1086070Y23869736D02*
X-1595518Y23869736D01*
X99096706Y-26302764D02*
X102996706Y-26302764D01*
X99096706Y-26302764D02*
X99096706Y-24302764D01*
X99096706Y-24302764D02*
X102996706Y-24302764D01*
X-64182246Y29647236D02*
X-64182246Y31647236D01*
X-64182246Y29647236D02*
X-60282246Y29647236D01*
X-64182246Y31647236D02*
X-60282246Y31647236D01*
X81096706Y-19302764D02*
X84996706Y-19302764D01*
X81096706Y-21302764D02*
X84996706Y-21302764D01*
X81096706Y-21302764D02*
X81096706Y-19302764D01*
X-99932246Y-21302764D02*
X-96032246Y-21302764D01*
X-99932246Y-21302764D02*
X-99932246Y-19302764D01*
X-99932246Y-19302764D02*
X-96032246Y-19302764D01*
X-117982246Y7697236D02*
X-114082246Y7697236D01*
X-117982246Y7697236D02*
X-117982246Y9697236D01*
X-117982246Y9697236D02*
X-114082246Y9697236D01*
X-64182246Y-4252764D02*
X-60282246Y-4252764D01*
X-64182246Y-2252764D02*
X-60282246Y-2252764D01*
X-64182246Y-4252764D02*
X-64182246Y-2252764D01*
X-16341013Y5437236D02*
X-16048479Y5437236D01*
X-16341013Y6457236D02*
X-16048479Y6457236D01*
X-3580794Y25501960D02*
X-3580794Y24992512D01*
X-4625794Y25501960D02*
X-4625794Y24992512D01*
X-9357246Y8497236D02*
X-9657246Y8497236D01*
X-9357246Y11797236D02*
X-9357246Y8497236D01*
X-11857246Y11797236D02*
X-12157246Y11797236D01*
X-12157246Y8497236D02*
X-11857246Y8497236D01*
X-12157246Y11797236D02*
X-12157246Y8497236D01*
X-9657246Y11797236D02*
X-9357246Y11797236D01*
X-2178294Y8497236D02*
X-2178294Y11797236D01*
X-2478294Y8497236D02*
X-2178294Y8497236D01*
X-4978294Y11797236D02*
X-4678294Y11797236D01*
X-2178294Y11797236D02*
X-2478294Y11797236D01*
X-4978294Y8497236D02*
X-4978294Y11797236D01*
X-4678294Y8497236D02*
X-4978294Y8497236D01*
X-14179746Y8192512D02*
X-14179746Y8701960D01*
X-13134746Y8192512D02*
X-13134746Y8701960D01*
X45046706Y12747236D02*
X45046706Y14747236D01*
X45046706Y14747236D02*
X48946706Y14747236D01*
X45046706Y12747236D02*
X48946706Y12747236D01*
X-22542246Y12793503D02*
X-22542246Y12500969D01*
X-21522246Y12793503D02*
X-21522246Y12500969D01*
X-12886970Y23324736D02*
X-12377522Y23324736D01*
X-12886970Y24369736D02*
X-12377522Y24369736D01*
D15*
X-9207246Y20497236D02*
X-9207246Y14997236D01*
X-12107246Y14978236D02*
X-12107246Y14988236D01*
X-11176246Y14747236D02*
X-10038246Y14747236D01*
X-9207246Y19772236D02*
X-7607246Y19772236D01*
X-10038246Y20747236D02*
X-11176246Y20747236D01*
X-7607246Y18497236D02*
X-9207246Y18497236D01*
X-7607246Y19772236D02*
X-7607246Y18497236D01*
X-12107246Y19247236D02*
X-12107246Y17747236D01*
D14*
X45146706Y-41252764D02*
X49046706Y-41252764D01*
X45146706Y-43252764D02*
X49046706Y-43252764D01*
X45146706Y-43252764D02*
X45146706Y-41252764D01*
X63146706Y-41952764D02*
X67046706Y-41952764D01*
X63146706Y-39952764D02*
X67046706Y-39952764D01*
X63146706Y-41952764D02*
X63146706Y-39952764D01*
X-45982246Y27297236D02*
X-45982246Y29297236D01*
X-45982246Y29297236D02*
X-42082246Y29297236D01*
X-45982246Y27297236D02*
X-42082246Y27297236D01*
X99146706Y-9302764D02*
X103046706Y-9302764D01*
X99146706Y-9302764D02*
X99146706Y-7302764D01*
X99146706Y-7302764D02*
X103046706Y-7302764D01*
X99146706Y24697236D02*
X103046706Y24697236D01*
X99146706Y26697236D02*
X103046706Y26697236D01*
X99146706Y24697236D02*
X99146706Y26697236D01*
X3821706Y12297236D02*
X3821706Y10597236D01*
X3821706Y12297236D02*
X671706Y12297236D01*
X3821706Y10597236D02*
X671706Y10597236D01*
X-18157246Y10597236D02*
X-18157246Y12297236D01*
X-18157246Y10597236D02*
X-15007246Y10597236D01*
X-18157246Y12297236D02*
X-15007246Y12297236D01*
X63146706Y32997236D02*
X67046706Y32997236D01*
X63146706Y30997236D02*
X63146706Y32997236D01*
X63146706Y30997236D02*
X67046706Y30997236D01*
X-14652246Y9207236D02*
X-15582246Y9207236D01*
X-14652246Y9207236D02*
X-14652246Y7047236D01*
X-17812246Y9207236D02*
X-17812246Y7747236D01*
X-17812246Y9207236D02*
X-16882246Y9207236D01*
X-81982246Y13997236D02*
X-81982246Y15997236D01*
X-81982246Y13997236D02*
X-78082246Y13997236D01*
X-81982246Y15997236D02*
X-78082246Y15997236D01*
X-37811970Y669736D02*
X-37302522Y669736D01*
X-37811970Y-375264D02*
X-37302522Y-375264D01*
X-135932246Y-8302764D02*
X-132032246Y-8302764D01*
X-135932246Y-10302764D02*
X-135932246Y-8302764D01*
X-135932246Y-10302764D02*
X-132032246Y-10302764D01*
X-99982246Y31697236D02*
X-96082246Y31697236D01*
X-99982246Y29697236D02*
X-96082246Y29697236D01*
X-99982246Y29697236D02*
X-99982246Y31697236D01*
X5611706Y8893503D02*
X5611706Y8600969D01*
X6631706Y8893503D02*
X6631706Y8600969D01*
X-135982246Y-27302764D02*
X-132082246Y-27302764D01*
X-135982246Y-25302764D02*
X-132082246Y-25302764D01*
X-135982246Y-27302764D02*
X-135982246Y-25302764D01*
X-9709746Y25501960D02*
X-9709746Y24992512D01*
X-10754746Y25501960D02*
X-10754746Y24992512D01*
X-63982246Y-43252764D02*
X-63982246Y-41252764D01*
X-63982246Y-41252764D02*
X-60082246Y-41252764D01*
X-63982246Y-43252764D02*
X-60082246Y-43252764D01*
X81096706Y14697236D02*
X84996706Y14697236D01*
X81096706Y12697236D02*
X84996706Y12697236D01*
X81096706Y12697236D02*
X81096706Y14697236D01*
X117146706Y23697236D02*
X117146706Y25697236D01*
X117146706Y25697236D02*
X121046706Y25697236D01*
X117146706Y23697236D02*
X121046706Y23697236D01*
X-82182246Y-18052764D02*
X-78282246Y-18052764D01*
X-82182246Y-20052764D02*
X-82182246Y-18052764D01*
X-82182246Y-20052764D02*
X-78282246Y-20052764D01*
X2005473Y6457236D02*
X1712939Y6457236D01*
X2005473Y5437236D02*
X1712939Y5437236D01*
X22966982Y-375264D02*
X23476430Y-375264D01*
X22966982Y669736D02*
X23476430Y669736D01*
X9066982Y24219736D02*
X9576430Y24219736D01*
X9066982Y23174736D02*
X9576430Y23174736D01*
X-117982246Y26697236D02*
X-114082246Y26697236D01*
X-117982246Y24697236D02*
X-114082246Y24697236D01*
X-117982246Y24697236D02*
X-117982246Y26697236D01*
X81146706Y29697236D02*
X81146706Y31697236D01*
X81146706Y31697236D02*
X85046706Y31697236D01*
X81146706Y29697236D02*
X85046706Y29697236D01*
D15*
X16046706Y9797236D02*
X18259706Y9797236D01*
X20296706Y8564236D02*
X20296706Y7075236D01*
X16046706Y5797236D02*
X16046706Y6297236D01*
X16046706Y9797236D02*
X16046706Y9297236D01*
X16046706Y5797236D02*
X18393706Y5797236D01*
D14*
X-37302522Y-1975264D02*
X-37811970Y-1975264D01*
X-37302522Y-930264D02*
X-37811970Y-930264D01*
X18291706Y18317236D02*
X20951706Y18317236D01*
X18291706Y17047236D02*
X18291706Y15717236D01*
X18291706Y15717236D02*
X19621706Y15717236D01*
X18291706Y18317236D02*
X18291706Y25997236D01*
X20951706Y18317236D02*
X20951706Y25997236D01*
X18291706Y25997236D02*
X20951706Y25997236D01*
X117146706Y-27302764D02*
X121046706Y-27302764D01*
X117146706Y-25302764D02*
X121046706Y-25302764D01*
X117146706Y-27302764D02*
X117146706Y-25302764D01*
X-135982246Y23697236D02*
X-135982246Y25697236D01*
X-135982246Y23697236D02*
X-132082246Y23697236D01*
X-135982246Y25697236D02*
X-132082246Y25697236D01*
X-23102522Y6769736D02*
X-23611970Y6769736D01*
X-23102522Y5724736D02*
X-23611970Y5724736D01*
X3476706Y7687236D02*
X3476706Y9147236D01*
X316706Y7687236D02*
X316706Y9847236D01*
X3476706Y7687236D02*
X2546706Y7687236D01*
X316706Y7687236D02*
X1246706Y7687236D01*
X45146706Y-21352764D02*
X45146706Y-19352764D01*
X45146706Y-19352764D02*
X49046706Y-19352764D01*
X45146706Y-21352764D02*
X49046706Y-21352764D01*
X-63982246Y-21352764D02*
X-60082246Y-21352764D01*
X-63982246Y-19352764D02*
X-60082246Y-19352764D01*
X-63982246Y-21352764D02*
X-63982246Y-19352764D01*
X27096706Y10297236D02*
X27096706Y12297236D01*
X27096706Y10297236D02*
X30996706Y10297236D01*
X27096706Y12297236D02*
X30996706Y12297236D01*
X-45982246Y-6702764D02*
X-42082246Y-6702764D01*
X-45982246Y-6702764D02*
X-45982246Y-4702764D01*
X-45982246Y-4702764D02*
X-42082246Y-4702764D01*
X-23072246Y12784736D02*
X-23072246Y13584736D01*
X-26192246Y12784736D02*
X-26192246Y11984736D01*
X-26192246Y12784736D02*
X-26192246Y13584736D01*
X-23072246Y12784736D02*
X-23072246Y10984736D01*
X117096706Y-8302764D02*
X120996706Y-8302764D01*
X117096706Y-10302764D02*
X120996706Y-10302764D01*
X117096706Y-10302764D02*
X117096706Y-8302764D01*
D15*
X-30107246Y9747236D02*
X-30107246Y9247236D01*
X-30107246Y9747236D02*
X-32454246Y9747236D01*
X-30107246Y5747236D02*
X-32320246Y5747236D01*
X-30107246Y5747236D02*
X-30107246Y6247236D01*
X-34357246Y6980236D02*
X-34357246Y8469236D01*
D14*
X-45932246Y10297236D02*
X-42032246Y10297236D01*
X-45932246Y12297236D02*
X-42032246Y12297236D01*
X-45932246Y10297236D02*
X-45932246Y12297236D01*
X63346706Y-20052764D02*
X63346706Y-18052764D01*
X63346706Y-20052764D02*
X67246706Y-20052764D01*
X63346706Y-18052764D02*
X67246706Y-18052764D01*
X11399206Y25501960D02*
X11399206Y24992512D01*
X12444206Y25501960D02*
X12444206Y24992512D01*
X-1200794Y8701960D02*
X-1200794Y8192512D01*
X-155794Y8701960D02*
X-155794Y8192512D01*
X27146706Y-23702764D02*
X31046706Y-23702764D01*
X27146706Y-21702764D02*
X31046706Y-21702764D01*
X27146706Y-23702764D02*
X27146706Y-21702764D01*
X23476430Y-930264D02*
X22966982Y-930264D01*
X23476430Y-1975264D02*
X22966982Y-1975264D01*
X117096706Y8697236D02*
X120996706Y8697236D01*
X117096706Y6697236D02*
X117096706Y8697236D01*
X117096706Y6697236D02*
X120996706Y6697236D01*
X-40208560Y-45193789D02*
X-41208560Y-43461739D01*
X-41208560Y-43461739D02*
X-37831061Y-41511739D01*
X-40208560Y-45193789D02*
X-36831061Y-43243789D01*
X-23090022Y23324736D02*
X-23599470Y23324736D01*
X-23090022Y24369736D02*
X-23599470Y24369736D01*
X22975906Y-41211739D02*
X26353405Y-43161739D01*
X21975906Y-42943789D02*
X22975906Y-41211739D01*
X21975906Y-42943789D02*
X25353405Y-44893789D01*
X-19322246Y8600969D02*
X-19322246Y8893503D01*
X-20342246Y8600969D02*
X-20342246Y8893503D01*
X-34278513Y10637236D02*
X-33985979Y10637236D01*
X-34278513Y11657236D02*
X-33985979Y11657236D01*
X99146706Y7697236D02*
X99146706Y9697236D01*
X99146706Y9697236D02*
X103046706Y9697236D01*
X99146706Y7697236D02*
X103046706Y7697236D01*
X-30932246Y11747236D02*
X-30732246Y11747236D01*
X-30932246Y10347236D02*
X-30732246Y10347236D01*
X-32382246Y10447236D02*
X-32382246Y11647236D01*
X-23357246Y10307236D02*
X-24157246Y10307236D01*
X-23357246Y7187236D02*
X-22557246Y7187236D01*
X-23357246Y10307236D02*
X-22557246Y10307236D01*
X-23357246Y7187236D02*
X-25157246Y7187236D01*
X9021706Y10307236D02*
X9821706Y10307236D01*
X9021706Y7187236D02*
X9821706Y7187236D01*
X9021706Y10307236D02*
X8221706Y10307236D01*
X9021706Y7187236D02*
X7221706Y7187236D01*
X12775439Y6757236D02*
X13067973Y6757236D01*
X12775439Y5737236D02*
X13067973Y5737236D01*
X81096706Y-4302764D02*
X84996706Y-4302764D01*
X81096706Y-4302764D02*
X81096706Y-2302764D01*
X81096706Y-2302764D02*
X84996706Y-2302764D01*
X16896706Y-28302763D02*
X16896706Y-24402763D01*
X18896706Y-28302763D02*
X18896706Y-24402763D01*
X18896706Y-28302763D02*
X16896706Y-28302763D01*
X9276430Y6769736D02*
X8766982Y6769736D01*
X9276430Y5724736D02*
X8766982Y5724736D01*
X-26779746Y25501960D02*
X-26779746Y24992512D01*
X-25734746Y25501960D02*
X-25734746Y24992512D01*
X-28904746Y11893503D02*
X-28904746Y11600969D01*
X-27884746Y11893503D02*
X-27884746Y11600969D01*
X-45982246Y-23702764D02*
X-45982246Y-21702764D01*
X-45982246Y-21702764D02*
X-42082246Y-21702764D01*
X-45982246Y-23702764D02*
X-42082246Y-23702764D01*
X27146706Y-6702764D02*
X31046706Y-6702764D01*
X27146706Y-4702764D02*
X31046706Y-4702764D01*
X27146706Y-6702764D02*
X27146706Y-4702764D01*
X27146706Y27297236D02*
X27146706Y29297236D01*
X27146706Y27297236D02*
X31046706Y27297236D01*
X27146706Y29297236D02*
X31046706Y29297236D01*
X-63882246Y12747236D02*
X-63882246Y14747236D01*
X-63882246Y12747236D02*
X-59982246Y12747236D01*
X-63882246Y14747236D02*
X-59982246Y14747236D01*
M02*
