G04 #@! TF.GenerationSoftware,KiCad,Pcbnew,(5.99.0-8557-g8988e46ab1)*
G04 #@! TF.CreationDate,2021-01-24T23:32:50-07:00*
G04 #@! TF.ProjectId,Panel,50616e65-6c2e-46b6-9963-61645f706362,rev?*
G04 #@! TF.SameCoordinates,PX85099e0PY51bada0*
G04 #@! TF.FileFunction,Other,Comment*
%FSLAX46Y46*%
G04 Gerber Fmt 4.6, Leading zero omitted, Abs format (unit mm)*
G04 Created by KiCad (PCBNEW (5.99.0-8557-g8988e46ab1)) date 2021-01-24 23:32:50*
%MOMM*%
%LPD*%
G01*
G04 APERTURE LIST*
%ADD10C,0.150000*%
%ADD11C,0.100000*%
%ADD12C,0.300000*%
%ADD13C,0.200000*%
%ADD14C,0.120000*%
G04 APERTURE END LIST*
D10*
X-101822728Y-41279566D02*
G75*
G03*
X-103585048Y-40552764I-1762320J-1773198D01*
G01*
X-2279695Y-48730005D02*
G75*
G02*
X-3975068Y-48067316I0J2500000D01*
G01*
X128896706Y-38052764D02*
G75*
G02*
X126396706Y-40552764I-2500000J0D01*
G01*
X-70644404Y36728564D02*
G75*
G03*
X-70949379Y36747236I-304975J-2481328D01*
G01*
D11*
X-117673819Y-60530213D02*
X-117524699Y-60540213D01*
D10*
X-928294Y31647236D02*
X-3417770Y31647236D01*
X126807703Y29413221D02*
X110396706Y29447236D01*
X-8417770Y29147236D02*
G75*
G03*
X-10917770Y31647236I-2500000J0D01*
G01*
X82596701Y36747236D02*
X56613839Y36747237D01*
X72851000Y-55825961D02*
X87487188Y-41279566D01*
X39603752Y-56552763D02*
X71088681Y-56552763D01*
X-12055844Y-48730005D02*
X-19221030Y-48730005D01*
X-29148778Y31647236D02*
X-22657246Y31647236D01*
X-70644404Y36728565D02*
X-29453753Y31665907D01*
X6135490Y-49064941D02*
X27201017Y-61227128D01*
X-143232246Y-38052764D02*
G75*
G03*
X-140732246Y-40552764I2500000J0D01*
G01*
X128896706Y-38052764D02*
X128896706Y26947236D01*
X110102532Y29476365D02*
G75*
G03*
X110396706Y29447236I294174J1470871D01*
G01*
X-928294Y25347236D02*
X-928294Y31647236D01*
X-22657246Y25347236D02*
X-13407246Y25347236D01*
X126807703Y29413221D02*
G75*
G02*
X128896706Y26947236I-410997J-2465985D01*
G01*
X-5113143Y-47017161D02*
X-3975068Y-48067315D01*
X72851000Y-55825961D02*
G75*
G02*
X71088681Y-56552763I-1762319J1773198D01*
G01*
X-143232246Y-38052764D02*
X-143232246Y26947236D01*
X-53939292Y-56552763D02*
X-85424221Y-56552763D01*
X-87186540Y-55825961D02*
X-101822728Y-41279566D01*
X-5917770Y-45179851D02*
X-5917770Y29147236D01*
X-141143243Y29413221D02*
X-124643243Y29413221D01*
X110102532Y29476365D02*
X83007699Y36713220D01*
X-43909221Y-61295812D02*
X-52816627Y-56819016D01*
X8321706Y25347236D02*
X-928294Y25347236D01*
X-5917770Y29147236D02*
G75*
G02*
X-3417770Y31647236I2500000J0D01*
G01*
X-96932242Y36747236D02*
G75*
G03*
X-97343239Y36713221I0J-2500000D01*
G01*
D11*
X103338279Y-60530213D02*
X103189159Y-60540213D01*
D10*
X29573681Y-61295812D02*
X38481087Y-56819016D01*
X-9222397Y-47017162D02*
G75*
G03*
X-8417770Y-45179851I-1695373J1837311D01*
G01*
X-2279696Y-48730005D02*
X4885490Y-48730005D01*
X-20471030Y-49064941D02*
X-41536557Y-61227128D01*
X56308864Y36728565D02*
X15118213Y31665907D01*
X-9222397Y-47017161D02*
X-10360472Y-48067315D01*
X-22657246Y31647236D02*
X-22657246Y25347236D01*
X-5113143Y-47017162D02*
G75*
G02*
X-5917770Y-45179851I1695373J1837311D01*
G01*
X-13407246Y31647236D02*
X-10917770Y31647236D01*
X-8417770Y-45179851D02*
X-8417770Y29147236D01*
X-13407246Y25347236D02*
X-13407246Y31647236D01*
X-19221030Y-48730005D02*
G75*
G03*
X-20471030Y-49064941I-1J-2500000D01*
G01*
X-124000123Y29591355D02*
G75*
G02*
X-124643243Y29413221I-643120J1071867D01*
G01*
X-43909221Y-61295812D02*
G75*
G03*
X-41536557Y-61227128I1122664J2233747D01*
G01*
X-141143243Y29413221D02*
G75*
G03*
X-143232246Y26947236I410997J-2465985D01*
G01*
X8321706Y31647236D02*
X8321706Y25347236D01*
X82596702Y36747236D02*
G75*
G02*
X83007699Y36713221I0J-2500000D01*
G01*
X14813238Y31647236D02*
X8321706Y31647236D01*
X38481087Y-56819017D02*
G75*
G02*
X39603752Y-56552763I1122665J-2233747D01*
G01*
X-87186540Y-55825961D02*
G75*
G03*
X-85424221Y-56552763I1762319J1773198D01*
G01*
X-52816627Y-56819017D02*
G75*
G03*
X-53939292Y-56552763I-1122665J-2233747D01*
G01*
X4885490Y-48730005D02*
G75*
G02*
X6135490Y-49064941I1J-2500000D01*
G01*
X-96932241Y36747236D02*
X-70949379Y36747237D01*
X-12055845Y-48730005D02*
G75*
G03*
X-10360472Y-48067316I0J2500000D01*
G01*
X-124000123Y29591355D02*
X-97343239Y36713221D01*
X87487188Y-41279566D02*
G75*
G02*
X89249508Y-40552764I1762320J-1773198D01*
G01*
X-103585048Y-40552764D02*
X-140732246Y-40552764D01*
X89249508Y-40552764D02*
X126396706Y-40552764D01*
X56308864Y36728564D02*
G75*
G02*
X56613839Y36747236I304975J-2481328D01*
G01*
X29573681Y-61295812D02*
G75*
G02*
X27201017Y-61227128I-1122664J2233747D01*
G01*
D12*
X80702685Y-52023857D02*
X80711489Y-52124488D01*
X80628466Y-52334554D01*
X80536639Y-52443989D01*
X80344182Y-52562228D01*
X80142920Y-52579836D01*
X79987572Y-52542726D01*
X79722788Y-52413790D01*
X79558636Y-52276050D01*
X79385680Y-52037679D01*
X79322158Y-51891135D01*
X79304550Y-51689873D01*
X79387573Y-51479807D01*
X79479400Y-51370372D01*
X79671857Y-51252133D01*
X79772488Y-51243329D01*
X80076274Y-50659045D02*
X81006471Y-51439573D01*
X81161819Y-51476682D01*
X81262450Y-51467878D01*
X81408994Y-51404357D01*
X81592648Y-51185487D01*
X81629757Y-51030139D01*
X81620953Y-50929508D01*
X81557431Y-50782964D01*
X80627235Y-50002436D01*
X80948628Y-49619414D02*
X81499589Y-48962804D01*
X82373175Y-50255290D02*
X81224109Y-49291109D01*
X82004637Y-48360912D02*
X82188290Y-48142042D01*
X82334834Y-48078521D01*
X82536096Y-48060913D01*
X82800879Y-48189849D01*
X83183902Y-48511242D01*
X83356858Y-48749614D01*
X83374466Y-48950875D01*
X83337357Y-49106224D01*
X83153703Y-49325093D01*
X83007159Y-49388615D01*
X82805897Y-49406223D01*
X82541114Y-49277287D01*
X82158092Y-48955893D01*
X81985135Y-48717522D01*
X81967527Y-48516260D01*
X82004637Y-48360912D01*
X82831078Y-47375998D02*
X83761275Y-48156526D01*
X83916623Y-48193635D01*
X84017254Y-48184831D01*
X84163798Y-48121309D01*
X84347452Y-47902439D01*
X84384561Y-47747091D01*
X84375757Y-47646460D01*
X84312235Y-47499916D01*
X83382039Y-46719388D01*
X83703432Y-46336366D02*
X84254393Y-45679756D01*
X85127980Y-46972243D02*
X83978913Y-46008061D01*
X16707909Y36360271D02*
X16636481Y36288843D01*
X16422195Y36217414D01*
X16279338Y36217414D01*
X16065052Y36288843D01*
X15922195Y36431700D01*
X15850766Y36574557D01*
X15779338Y36860271D01*
X15779338Y37074557D01*
X15850766Y37360271D01*
X15922195Y37503128D01*
X16065052Y37645985D01*
X16279338Y37717414D01*
X16422195Y37717414D01*
X16636481Y37645985D01*
X16707909Y37574557D01*
X17350766Y37717414D02*
X17350766Y36503128D01*
X17422195Y36360271D01*
X17493624Y36288843D01*
X17636481Y36217414D01*
X17922195Y36217414D01*
X18065052Y36288843D01*
X18136481Y36360271D01*
X18207909Y36503128D01*
X18207909Y37717414D01*
X18707909Y37717414D02*
X19565052Y37717414D01*
X19136481Y36217414D02*
X19136481Y37717414D01*
X20350766Y37717414D02*
X20636481Y37717414D01*
X20779338Y37645985D01*
X20922195Y37503128D01*
X20993624Y37217414D01*
X20993624Y36717414D01*
X20922195Y36431700D01*
X20779338Y36288843D01*
X20636481Y36217414D01*
X20350766Y36217414D01*
X20207909Y36288843D01*
X20065052Y36431700D01*
X19993624Y36717414D01*
X19993624Y37217414D01*
X20065052Y37503128D01*
X20207909Y37645985D01*
X20350766Y37717414D01*
X21636481Y37717414D02*
X21636481Y36503128D01*
X21707909Y36360271D01*
X21779338Y36288843D01*
X21922195Y36217414D01*
X22207909Y36217414D01*
X22350766Y36288843D01*
X22422195Y36360271D01*
X22493624Y36503128D01*
X22493624Y37717414D01*
X22993624Y37717414D02*
X23850766Y37717414D01*
X23422195Y36217414D02*
X23422195Y37717414D01*
X-17796532Y1711522D02*
X-17725104Y1640094D01*
X-17510818Y1568665D01*
X-17367961Y1568665D01*
X-17153675Y1640094D01*
X-17010818Y1782951D01*
X-16939389Y1925808D01*
X-16867961Y2211522D01*
X-16867961Y2425808D01*
X-16939389Y2711522D01*
X-17010818Y2854379D01*
X-17153675Y2997236D01*
X-17367961Y3068665D01*
X-17510818Y3068665D01*
X-17725104Y2997236D01*
X-17796532Y2925808D01*
X-18439389Y3068665D02*
X-18439389Y1854379D01*
X-18510818Y1711522D01*
X-18582246Y1640094D01*
X-18725104Y1568665D01*
X-19010818Y1568665D01*
X-19153675Y1640094D01*
X-19225104Y1711522D01*
X-19296532Y1854379D01*
X-19296532Y3068665D01*
X-19796532Y3068665D02*
X-20653675Y3068665D01*
X-20225104Y1568665D02*
X-20225104Y3068665D01*
X-21439389Y3068665D02*
X-21725104Y3068665D01*
X-21867961Y2997236D01*
X-22010818Y2854379D01*
X-22082246Y2568665D01*
X-22082246Y2068665D01*
X-22010818Y1782951D01*
X-21867961Y1640094D01*
X-21725104Y1568665D01*
X-21439389Y1568665D01*
X-21296532Y1640094D01*
X-21153675Y1782951D01*
X-21082246Y2068665D01*
X-21082246Y2568665D01*
X-21153675Y2854379D01*
X-21296532Y2997236D01*
X-21439389Y3068665D01*
X-22725104Y3068665D02*
X-22725104Y1854379D01*
X-22796532Y1711522D01*
X-22867961Y1640094D01*
X-23010818Y1568665D01*
X-23296532Y1568665D01*
X-23439389Y1640094D01*
X-23510818Y1711522D01*
X-23582246Y1854379D01*
X-23582246Y3068665D01*
X-24082246Y3068665D02*
X-24939389Y3068665D01*
X-24510818Y1568665D02*
X-24510818Y3068665D01*
X52707909Y-58389729D02*
X52636481Y-58461157D01*
X52422195Y-58532586D01*
X52279338Y-58532586D01*
X52065052Y-58461157D01*
X51922195Y-58318300D01*
X51850766Y-58175443D01*
X51779338Y-57889729D01*
X51779338Y-57675443D01*
X51850766Y-57389729D01*
X51922195Y-57246872D01*
X52065052Y-57104015D01*
X52279338Y-57032586D01*
X52422195Y-57032586D01*
X52636481Y-57104015D01*
X52707909Y-57175443D01*
X53350766Y-57032586D02*
X53350766Y-58246872D01*
X53422195Y-58389729D01*
X53493624Y-58461157D01*
X53636481Y-58532586D01*
X53922195Y-58532586D01*
X54065052Y-58461157D01*
X54136481Y-58389729D01*
X54207909Y-58246872D01*
X54207909Y-57032586D01*
X54707909Y-57032586D02*
X55565052Y-57032586D01*
X55136481Y-58532586D02*
X55136481Y-57032586D01*
X56350766Y-57032586D02*
X56636481Y-57032586D01*
X56779338Y-57104015D01*
X56922195Y-57246872D01*
X56993624Y-57532586D01*
X56993624Y-58032586D01*
X56922195Y-58318300D01*
X56779338Y-58461157D01*
X56636481Y-58532586D01*
X56350766Y-58532586D01*
X56207909Y-58461157D01*
X56065052Y-58318300D01*
X55993624Y-58032586D01*
X55993624Y-57532586D01*
X56065052Y-57246872D01*
X56207909Y-57104015D01*
X56350766Y-57032586D01*
X57636481Y-57032586D02*
X57636481Y-58246872D01*
X57707909Y-58389729D01*
X57779338Y-58461157D01*
X57922195Y-58532586D01*
X58207909Y-58532586D01*
X58350766Y-58461157D01*
X58422195Y-58389729D01*
X58493624Y-58246872D01*
X58493624Y-57032586D01*
X58993624Y-57032586D02*
X59850766Y-57032586D01*
X59422195Y-58532586D02*
X59422195Y-57032586D01*
X-10292091Y-50389729D02*
X-10363519Y-50461157D01*
X-10577805Y-50532586D01*
X-10720662Y-50532586D01*
X-10934948Y-50461157D01*
X-11077805Y-50318300D01*
X-11149234Y-50175443D01*
X-11220662Y-49889729D01*
X-11220662Y-49675443D01*
X-11149234Y-49389729D01*
X-11077805Y-49246872D01*
X-10934948Y-49104015D01*
X-10720662Y-49032586D01*
X-10577805Y-49032586D01*
X-10363519Y-49104015D01*
X-10292091Y-49175443D01*
X-9649234Y-49032586D02*
X-9649234Y-50246872D01*
X-9577805Y-50389729D01*
X-9506376Y-50461157D01*
X-9363519Y-50532586D01*
X-9077805Y-50532586D01*
X-8934948Y-50461157D01*
X-8863519Y-50389729D01*
X-8792091Y-50246872D01*
X-8792091Y-49032586D01*
X-8292091Y-49032586D02*
X-7434948Y-49032586D01*
X-7863519Y-50532586D02*
X-7863519Y-49032586D01*
X-6649234Y-49032586D02*
X-6363519Y-49032586D01*
X-6220662Y-49104015D01*
X-6077805Y-49246872D01*
X-6006376Y-49532586D01*
X-6006376Y-50032586D01*
X-6077805Y-50318300D01*
X-6220662Y-50461157D01*
X-6363519Y-50532586D01*
X-6649234Y-50532586D01*
X-6792091Y-50461157D01*
X-6934948Y-50318300D01*
X-7006376Y-50032586D01*
X-7006376Y-49532586D01*
X-6934948Y-49246872D01*
X-6792091Y-49104015D01*
X-6649234Y-49032586D01*
X-5363519Y-49032586D02*
X-5363519Y-50246872D01*
X-5292091Y-50389729D01*
X-5220662Y-50461157D01*
X-5077805Y-50532586D01*
X-4792091Y-50532586D01*
X-4649234Y-50461157D01*
X-4577805Y-50389729D01*
X-4506376Y-50246872D01*
X-4506376Y-49032586D01*
X-4006376Y-49032586D02*
X-3149234Y-49032586D01*
X-3577805Y-50532586D02*
X-3577805Y-49032586D01*
X560991Y27761522D02*
X489563Y27690094D01*
X275277Y27618665D01*
X132420Y27618665D01*
X-81866Y27690094D01*
X-224723Y27832951D01*
X-296152Y27975808D01*
X-367580Y28261522D01*
X-367580Y28475808D01*
X-296152Y28761522D01*
X-224723Y28904379D01*
X-81866Y29047236D01*
X132420Y29118665D01*
X275277Y29118665D01*
X489563Y29047236D01*
X560991Y28975808D01*
X1203848Y29118665D02*
X1203848Y27904379D01*
X1275277Y27761522D01*
X1346706Y27690094D01*
X1489563Y27618665D01*
X1775277Y27618665D01*
X1918134Y27690094D01*
X1989563Y27761522D01*
X2060991Y27904379D01*
X2060991Y29118665D01*
X2560991Y29118665D02*
X3418134Y29118665D01*
X2989563Y27618665D02*
X2989563Y29118665D01*
X4203848Y29118665D02*
X4489563Y29118665D01*
X4632420Y29047236D01*
X4775277Y28904379D01*
X4846706Y28618665D01*
X4846706Y28118665D01*
X4775277Y27832951D01*
X4632420Y27690094D01*
X4489563Y27618665D01*
X4203848Y27618665D01*
X4060991Y27690094D01*
X3918134Y27832951D01*
X3846706Y28118665D01*
X3846706Y28618665D01*
X3918134Y28904379D01*
X4060991Y29047236D01*
X4203848Y29118665D01*
X5489563Y29118665D02*
X5489563Y27904379D01*
X5560991Y27761522D01*
X5632420Y27690094D01*
X5775277Y27618665D01*
X6060991Y27618665D01*
X6203848Y27690094D01*
X6275277Y27761522D01*
X6346706Y27904379D01*
X6346706Y29118665D01*
X6846706Y29118665D02*
X7703848Y29118665D01*
X7275277Y27618665D02*
X7275277Y29118665D01*
D13*
X-6899234Y-13377824D02*
X-6851615Y-13425443D01*
X-6803996Y-13568300D01*
X-6803996Y-13663538D01*
X-6851615Y-13806395D01*
X-6946853Y-13901634D01*
X-7042091Y-13949253D01*
X-7232567Y-13996872D01*
X-7375424Y-13996872D01*
X-7565900Y-13949253D01*
X-7661138Y-13901634D01*
X-7756376Y-13806395D01*
X-7803996Y-13663538D01*
X-7803996Y-13568300D01*
X-7756376Y-13425443D01*
X-7708757Y-13377824D01*
X-7803996Y-12949253D02*
X-6994472Y-12949253D01*
X-6899234Y-12901634D01*
X-6851615Y-12854015D01*
X-6803996Y-12758776D01*
X-6803996Y-12568300D01*
X-6851615Y-12473062D01*
X-6899234Y-12425443D01*
X-6994472Y-12377824D01*
X-7803996Y-12377824D01*
X-7803996Y-12044491D02*
X-7803996Y-11473062D01*
X-6803996Y-11758776D02*
X-7803996Y-11758776D01*
X-7803996Y-10949253D02*
X-7803996Y-10758776D01*
X-7756376Y-10663538D01*
X-7661138Y-10568300D01*
X-7470662Y-10520681D01*
X-7137329Y-10520681D01*
X-6946853Y-10568300D01*
X-6851615Y-10663538D01*
X-6803996Y-10758776D01*
X-6803996Y-10949253D01*
X-6851615Y-11044491D01*
X-6946853Y-11139729D01*
X-7137329Y-11187348D01*
X-7470662Y-11187348D01*
X-7661138Y-11139729D01*
X-7756376Y-11044491D01*
X-7803996Y-10949253D01*
X-7803996Y-10092110D02*
X-6994472Y-10092110D01*
X-6899234Y-10044491D01*
X-6851615Y-9996872D01*
X-6803996Y-9901634D01*
X-6803996Y-9711157D01*
X-6851615Y-9615919D01*
X-6899234Y-9568300D01*
X-6994472Y-9520681D01*
X-7803996Y-9520681D01*
X-7803996Y-9187348D02*
X-7803996Y-8615919D01*
X-6803996Y-8901634D02*
X-7803996Y-8901634D01*
D12*
X25707909Y-63389729D02*
X25636481Y-63461157D01*
X25422195Y-63532586D01*
X25279338Y-63532586D01*
X25065052Y-63461157D01*
X24922195Y-63318300D01*
X24850766Y-63175443D01*
X24779338Y-62889729D01*
X24779338Y-62675443D01*
X24850766Y-62389729D01*
X24922195Y-62246872D01*
X25065052Y-62104015D01*
X25279338Y-62032586D01*
X25422195Y-62032586D01*
X25636481Y-62104015D01*
X25707909Y-62175443D01*
X26350766Y-62032586D02*
X26350766Y-63246872D01*
X26422195Y-63389729D01*
X26493624Y-63461157D01*
X26636481Y-63532586D01*
X26922195Y-63532586D01*
X27065052Y-63461157D01*
X27136481Y-63389729D01*
X27207909Y-63246872D01*
X27207909Y-62032586D01*
X27707909Y-62032586D02*
X28565052Y-62032586D01*
X28136481Y-63532586D02*
X28136481Y-62032586D01*
X29350766Y-62032586D02*
X29636481Y-62032586D01*
X29779338Y-62104015D01*
X29922195Y-62246872D01*
X29993624Y-62532586D01*
X29993624Y-63032586D01*
X29922195Y-63318300D01*
X29779338Y-63461157D01*
X29636481Y-63532586D01*
X29350766Y-63532586D01*
X29207909Y-63461157D01*
X29065052Y-63318300D01*
X28993624Y-63032586D01*
X28993624Y-62532586D01*
X29065052Y-62246872D01*
X29207909Y-62104015D01*
X29350766Y-62032586D01*
X30636481Y-62032586D02*
X30636481Y-63246872D01*
X30707909Y-63389729D01*
X30779338Y-63461157D01*
X30922195Y-63532586D01*
X31207909Y-63532586D01*
X31350766Y-63461157D01*
X31422195Y-63389729D01*
X31493624Y-63246872D01*
X31493624Y-62032586D01*
X31993624Y-62032586D02*
X32850766Y-62032586D01*
X32422195Y-63532586D02*
X32422195Y-62032586D01*
X-132042091Y30110271D02*
X-132113519Y30038843D01*
X-132327805Y29967414D01*
X-132470662Y29967414D01*
X-132684948Y30038843D01*
X-132827805Y30181700D01*
X-132899234Y30324557D01*
X-132970662Y30610271D01*
X-132970662Y30824557D01*
X-132899234Y31110271D01*
X-132827805Y31253128D01*
X-132684948Y31395985D01*
X-132470662Y31467414D01*
X-132327805Y31467414D01*
X-132113519Y31395985D01*
X-132042091Y31324557D01*
X-131399234Y31467414D02*
X-131399234Y30253128D01*
X-131327805Y30110271D01*
X-131256376Y30038843D01*
X-131113519Y29967414D01*
X-130827805Y29967414D01*
X-130684948Y30038843D01*
X-130613519Y30110271D01*
X-130542091Y30253128D01*
X-130542091Y31467414D01*
X-130042091Y31467414D02*
X-129184948Y31467414D01*
X-129613519Y29967414D02*
X-129613519Y31467414D01*
X-128399234Y31467414D02*
X-128113519Y31467414D01*
X-127970662Y31395985D01*
X-127827805Y31253128D01*
X-127756376Y30967414D01*
X-127756376Y30467414D01*
X-127827805Y30181700D01*
X-127970662Y30038843D01*
X-128113519Y29967414D01*
X-128399234Y29967414D01*
X-128542091Y30038843D01*
X-128684948Y30181700D01*
X-128756376Y30467414D01*
X-128756376Y30967414D01*
X-128684948Y31253128D01*
X-128542091Y31395985D01*
X-128399234Y31467414D01*
X-127113519Y31467414D02*
X-127113519Y30253128D01*
X-127042091Y30110271D01*
X-126970662Y30038843D01*
X-126827805Y29967414D01*
X-126542091Y29967414D01*
X-126399234Y30038843D01*
X-126327805Y30110271D01*
X-126256377Y30253128D01*
X-126256377Y31467414D01*
X-125756377Y31467414D02*
X-124899234Y31467414D01*
X-125327805Y29967414D02*
X-125327805Y31467414D01*
D13*
X-6793392Y11622176D02*
X-6745773Y11574557D01*
X-6698154Y11431700D01*
X-6698154Y11336462D01*
X-6745773Y11193605D01*
X-6841011Y11098366D01*
X-6936249Y11050747D01*
X-7126725Y11003128D01*
X-7269582Y11003128D01*
X-7460058Y11050747D01*
X-7555296Y11098366D01*
X-7650534Y11193605D01*
X-7698154Y11336462D01*
X-7698154Y11431700D01*
X-7650534Y11574557D01*
X-7602915Y11622176D01*
X-7698154Y12050747D02*
X-6888630Y12050747D01*
X-6793392Y12098366D01*
X-6745773Y12145985D01*
X-6698154Y12241224D01*
X-6698154Y12431700D01*
X-6745773Y12526938D01*
X-6793392Y12574557D01*
X-6888630Y12622176D01*
X-7698154Y12622176D01*
X-7698154Y12955509D02*
X-7698154Y13526938D01*
X-6698154Y13241224D02*
X-7698154Y13241224D01*
X-7698154Y14050747D02*
X-7698154Y14241224D01*
X-7650534Y14336462D01*
X-7555296Y14431700D01*
X-7364820Y14479319D01*
X-7031487Y14479319D01*
X-6841011Y14431700D01*
X-6745773Y14336462D01*
X-6698154Y14241224D01*
X-6698154Y14050747D01*
X-6745773Y13955509D01*
X-6841011Y13860271D01*
X-7031487Y13812652D01*
X-7364820Y13812652D01*
X-7555296Y13860271D01*
X-7650534Y13955509D01*
X-7698154Y14050747D01*
X-7698154Y14907890D02*
X-6888630Y14907890D01*
X-6793392Y14955509D01*
X-6745773Y15003128D01*
X-6698154Y15098366D01*
X-6698154Y15288843D01*
X-6745773Y15384081D01*
X-6793392Y15431700D01*
X-6888630Y15479319D01*
X-7698154Y15479319D01*
X-7698154Y15812652D02*
X-7698154Y16384081D01*
X-6698154Y16098366D02*
X-7698154Y16098366D01*
X-6793392Y-34377824D02*
X-6745773Y-34425443D01*
X-6698154Y-34568300D01*
X-6698154Y-34663538D01*
X-6745773Y-34806395D01*
X-6841011Y-34901634D01*
X-6936249Y-34949253D01*
X-7126725Y-34996872D01*
X-7269582Y-34996872D01*
X-7460058Y-34949253D01*
X-7555296Y-34901634D01*
X-7650534Y-34806395D01*
X-7698154Y-34663538D01*
X-7698154Y-34568300D01*
X-7650534Y-34425443D01*
X-7602915Y-34377824D01*
X-7698154Y-33949253D02*
X-6888630Y-33949253D01*
X-6793392Y-33901634D01*
X-6745773Y-33854015D01*
X-6698154Y-33758776D01*
X-6698154Y-33568300D01*
X-6745773Y-33473062D01*
X-6793392Y-33425443D01*
X-6888630Y-33377824D01*
X-7698154Y-33377824D01*
X-7698154Y-33044491D02*
X-7698154Y-32473062D01*
X-6698154Y-32758776D02*
X-7698154Y-32758776D01*
X-7698154Y-31949253D02*
X-7698154Y-31758776D01*
X-7650534Y-31663538D01*
X-7555296Y-31568300D01*
X-7364820Y-31520681D01*
X-7031487Y-31520681D01*
X-6841011Y-31568300D01*
X-6745773Y-31663538D01*
X-6698154Y-31758776D01*
X-6698154Y-31949253D01*
X-6745773Y-32044491D01*
X-6841011Y-32139729D01*
X-7031487Y-32187348D01*
X-7364820Y-32187348D01*
X-7555296Y-32139729D01*
X-7650534Y-32044491D01*
X-7698154Y-31949253D01*
X-7698154Y-31092110D02*
X-6888630Y-31092110D01*
X-6793392Y-31044491D01*
X-6745773Y-30996872D01*
X-6698154Y-30901634D01*
X-6698154Y-30711157D01*
X-6745773Y-30615919D01*
X-6793392Y-30568300D01*
X-6888630Y-30520681D01*
X-7698154Y-30520681D01*
X-7698154Y-30187348D02*
X-7698154Y-29615919D01*
X-6698154Y-29901634D02*
X-7698154Y-29901634D01*
D12*
X-98868077Y-47372873D02*
X-98968708Y-47364069D01*
X-99161166Y-47245830D01*
X-99252992Y-47136395D01*
X-99336015Y-46926329D01*
X-99318407Y-46725067D01*
X-99254885Y-46578523D01*
X-99081929Y-46340152D01*
X-98917777Y-46202412D01*
X-98652993Y-46073476D01*
X-98497645Y-46036366D01*
X-98296383Y-46053975D01*
X-98103926Y-46172214D01*
X-98012099Y-46281648D01*
X-97929076Y-46491714D01*
X-97937880Y-46592345D01*
X-97415225Y-46992975D02*
X-98345421Y-47773503D01*
X-98408943Y-47920048D01*
X-98417747Y-48020678D01*
X-98380638Y-48176027D01*
X-98196984Y-48394897D01*
X-98050440Y-48458418D01*
X-97949809Y-48467222D01*
X-97794461Y-48430113D01*
X-96864264Y-47649585D01*
X-96542870Y-48032607D02*
X-95991909Y-48689217D01*
X-97416456Y-49325093D02*
X-96267390Y-48360912D01*
X-95486862Y-49291109D02*
X-95303208Y-49509979D01*
X-95266099Y-49665327D01*
X-95283707Y-49866589D01*
X-95456663Y-50104960D01*
X-95839686Y-50426354D01*
X-96104469Y-50555290D01*
X-96305731Y-50537682D01*
X-96452275Y-50474160D01*
X-96635928Y-50255290D01*
X-96673038Y-50099942D01*
X-96655430Y-49898680D01*
X-96482473Y-49660309D01*
X-96099451Y-49338915D01*
X-95834668Y-49209979D01*
X-95633406Y-49227587D01*
X-95486862Y-49291109D01*
X-94660421Y-50276023D02*
X-95590617Y-51056551D01*
X-95654139Y-51203095D01*
X-95662943Y-51303726D01*
X-95625834Y-51459074D01*
X-95442180Y-51677944D01*
X-95295636Y-51741466D01*
X-95195005Y-51750270D01*
X-95039657Y-51713160D01*
X-94109460Y-50932633D01*
X-93788066Y-51315655D02*
X-93237105Y-51972264D01*
X-94661652Y-52608141D02*
X-93512586Y-51643960D01*
X111707909Y30110271D02*
X111636481Y30038843D01*
X111422195Y29967414D01*
X111279338Y29967414D01*
X111065052Y30038843D01*
X110922195Y30181700D01*
X110850766Y30324557D01*
X110779338Y30610271D01*
X110779338Y30824557D01*
X110850766Y31110271D01*
X110922195Y31253128D01*
X111065052Y31395985D01*
X111279338Y31467414D01*
X111422195Y31467414D01*
X111636481Y31395985D01*
X111707909Y31324557D01*
X112350766Y31467414D02*
X112350766Y30253128D01*
X112422195Y30110271D01*
X112493624Y30038843D01*
X112636481Y29967414D01*
X112922195Y29967414D01*
X113065052Y30038843D01*
X113136481Y30110271D01*
X113207909Y30253128D01*
X113207909Y31467414D01*
X113707909Y31467414D02*
X114565052Y31467414D01*
X114136481Y29967414D02*
X114136481Y31467414D01*
X115350766Y31467414D02*
X115636481Y31467414D01*
X115779338Y31395985D01*
X115922195Y31253128D01*
X115993624Y30967414D01*
X115993624Y30467414D01*
X115922195Y30181700D01*
X115779338Y30038843D01*
X115636481Y29967414D01*
X115350766Y29967414D01*
X115207909Y30038843D01*
X115065052Y30181700D01*
X114993624Y30467414D01*
X114993624Y30967414D01*
X115065052Y31253128D01*
X115207909Y31395985D01*
X115350766Y31467414D01*
X116636481Y31467414D02*
X116636481Y30253128D01*
X116707909Y30110271D01*
X116779338Y30038843D01*
X116922195Y29967414D01*
X117207909Y29967414D01*
X117350766Y30038843D01*
X117422195Y30110271D01*
X117493624Y30253128D01*
X117493624Y31467414D01*
X117993624Y31467414D02*
X118850766Y31467414D01*
X118422195Y29967414D02*
X118422195Y31467414D01*
X-37042091Y36360271D02*
X-37113519Y36288843D01*
X-37327805Y36217414D01*
X-37470662Y36217414D01*
X-37684948Y36288843D01*
X-37827805Y36431700D01*
X-37899234Y36574557D01*
X-37970662Y36860271D01*
X-37970662Y37074557D01*
X-37899234Y37360271D01*
X-37827805Y37503128D01*
X-37684948Y37645985D01*
X-37470662Y37717414D01*
X-37327805Y37717414D01*
X-37113519Y37645985D01*
X-37042091Y37574557D01*
X-36399234Y37717414D02*
X-36399234Y36503128D01*
X-36327805Y36360271D01*
X-36256376Y36288843D01*
X-36113519Y36217414D01*
X-35827805Y36217414D01*
X-35684948Y36288843D01*
X-35613519Y36360271D01*
X-35542091Y36503128D01*
X-35542091Y37717414D01*
X-35042091Y37717414D02*
X-34184948Y37717414D01*
X-34613519Y36217414D02*
X-34613519Y37717414D01*
X-33399234Y37717414D02*
X-33113519Y37717414D01*
X-32970662Y37645985D01*
X-32827805Y37503128D01*
X-32756376Y37217414D01*
X-32756376Y36717414D01*
X-32827805Y36431700D01*
X-32970662Y36288843D01*
X-33113519Y36217414D01*
X-33399234Y36217414D01*
X-33542091Y36288843D01*
X-33684948Y36431700D01*
X-33756376Y36717414D01*
X-33756376Y37217414D01*
X-33684948Y37503128D01*
X-33542091Y37645985D01*
X-33399234Y37717414D01*
X-32113519Y37717414D02*
X-32113519Y36503128D01*
X-32042091Y36360271D01*
X-31970662Y36288843D01*
X-31827805Y36217414D01*
X-31542091Y36217414D01*
X-31399234Y36288843D01*
X-31327805Y36360271D01*
X-31256376Y36503128D01*
X-31256376Y37717414D01*
X-30756376Y37717414D02*
X-29899234Y37717414D01*
X-30327805Y36217414D02*
X-30327805Y37717414D01*
X-45792091Y-63639729D02*
X-45863519Y-63711157D01*
X-46077805Y-63782586D01*
X-46220662Y-63782586D01*
X-46434948Y-63711157D01*
X-46577805Y-63568300D01*
X-46649234Y-63425443D01*
X-46720662Y-63139729D01*
X-46720662Y-62925443D01*
X-46649234Y-62639729D01*
X-46577805Y-62496872D01*
X-46434948Y-62354015D01*
X-46220662Y-62282586D01*
X-46077805Y-62282586D01*
X-45863519Y-62354015D01*
X-45792091Y-62425443D01*
X-45149234Y-62282586D02*
X-45149234Y-63496872D01*
X-45077805Y-63639729D01*
X-45006376Y-63711157D01*
X-44863519Y-63782586D01*
X-44577805Y-63782586D01*
X-44434948Y-63711157D01*
X-44363519Y-63639729D01*
X-44292091Y-63496872D01*
X-44292091Y-62282586D01*
X-43792091Y-62282586D02*
X-42934948Y-62282586D01*
X-43363519Y-63782586D02*
X-43363519Y-62282586D01*
X-42149234Y-62282586D02*
X-41863519Y-62282586D01*
X-41720662Y-62354015D01*
X-41577805Y-62496872D01*
X-41506376Y-62782586D01*
X-41506376Y-63282586D01*
X-41577805Y-63568300D01*
X-41720662Y-63711157D01*
X-41863519Y-63782586D01*
X-42149234Y-63782586D01*
X-42292091Y-63711157D01*
X-42434948Y-63568300D01*
X-42506376Y-63282586D01*
X-42506376Y-62782586D01*
X-42434948Y-62496872D01*
X-42292091Y-62354015D01*
X-42149234Y-62282586D01*
X-40863519Y-62282586D02*
X-40863519Y-63496872D01*
X-40792091Y-63639729D01*
X-40720662Y-63711157D01*
X-40577805Y-63782586D01*
X-40292091Y-63782586D01*
X-40149234Y-63711157D01*
X-40077805Y-63639729D01*
X-40006376Y-63496872D01*
X-40006376Y-62282586D01*
X-39506376Y-62282586D02*
X-38649234Y-62282586D01*
X-39077805Y-63782586D02*
X-39077805Y-62282586D01*
D10*
X-140601614Y41193605D02*
X-140601614Y40479319D01*
X-140649233Y40336462D01*
X-140744471Y40241224D01*
X-140887328Y40193605D01*
X-140982566Y40193605D01*
X-139649233Y40193605D02*
X-140125423Y40193605D01*
X-140125423Y41193605D01*
X-138744472Y40288843D02*
X-138792091Y40241224D01*
X-138934948Y40193605D01*
X-139030186Y40193605D01*
X-139173043Y40241224D01*
X-139268281Y40336462D01*
X-139315900Y40431700D01*
X-139363519Y40622176D01*
X-139363519Y40765033D01*
X-139315900Y40955509D01*
X-139268281Y41050747D01*
X-139173043Y41145985D01*
X-139030186Y41193605D01*
X-138934948Y41193605D01*
X-138792091Y41145985D01*
X-138744472Y41098366D01*
X-137268281Y41193605D02*
X-137268281Y40479319D01*
X-137315900Y40336462D01*
X-137411138Y40241224D01*
X-137553996Y40193605D01*
X-137649234Y40193605D01*
X-136315900Y40193605D02*
X-136792091Y40193605D01*
X-136792091Y41193605D01*
X-135411138Y40288843D02*
X-135458757Y40241224D01*
X-135601615Y40193605D01*
X-135696853Y40193605D01*
X-135839710Y40241224D01*
X-135934948Y40336462D01*
X-135982567Y40431700D01*
X-136030186Y40622176D01*
X-136030186Y40765033D01*
X-135982567Y40955509D01*
X-135934948Y41050747D01*
X-135839710Y41145985D01*
X-135696853Y41193605D01*
X-135601615Y41193605D01*
X-135458757Y41145985D01*
X-135411138Y41098366D01*
X-133934948Y41193605D02*
X-133934948Y40479319D01*
X-133982567Y40336462D01*
X-134077805Y40241224D01*
X-134220662Y40193605D01*
X-134315900Y40193605D01*
X-132982567Y40193605D02*
X-133458757Y40193605D01*
X-133458757Y41193605D01*
X-132077805Y40288843D02*
X-132125424Y40241224D01*
X-132268281Y40193605D01*
X-132363519Y40193605D01*
X-132506376Y40241224D01*
X-132601615Y40336462D01*
X-132649234Y40431700D01*
X-132696853Y40622176D01*
X-132696853Y40765033D01*
X-132649234Y40955509D01*
X-132601615Y41050747D01*
X-132506376Y41145985D01*
X-132363519Y41193605D01*
X-132268281Y41193605D01*
X-132125424Y41145985D01*
X-132077805Y41098366D01*
D12*
X-12185718Y35110271D02*
X-12257146Y35038843D01*
X-12471432Y34967414D01*
X-12614289Y34967414D01*
X-12828575Y35038843D01*
X-12971432Y35181700D01*
X-13042861Y35324557D01*
X-13114289Y35610271D01*
X-13114289Y35824557D01*
X-13042861Y36110271D01*
X-12971432Y36253128D01*
X-12828575Y36395985D01*
X-12614289Y36467414D01*
X-12471432Y36467414D01*
X-12257146Y36395985D01*
X-12185718Y36324557D01*
X-11542861Y36467414D02*
X-11542861Y35253128D01*
X-11471432Y35110271D01*
X-11400003Y35038843D01*
X-11257146Y34967414D01*
X-10971432Y34967414D01*
X-10828575Y35038843D01*
X-10757146Y35110271D01*
X-10685718Y35253128D01*
X-10685718Y36467414D01*
X-10185718Y36467414D02*
X-9328575Y36467414D01*
X-9757146Y34967414D02*
X-9757146Y36467414D01*
X-8542861Y36467414D02*
X-8257146Y36467414D01*
X-8114289Y36395985D01*
X-7971432Y36253128D01*
X-7900003Y35967414D01*
X-7900003Y35467414D01*
X-7971432Y35181700D01*
X-8114289Y35038843D01*
X-8257146Y34967414D01*
X-8542861Y34967414D01*
X-8685718Y35038843D01*
X-8828575Y35181700D01*
X-8900003Y35467414D01*
X-8900003Y35967414D01*
X-8828575Y36253128D01*
X-8685718Y36395985D01*
X-8542861Y36467414D01*
X-7257146Y36467414D02*
X-7257146Y35253128D01*
X-7185718Y35110271D01*
X-7114289Y35038843D01*
X-6971432Y34967414D01*
X-6685718Y34967414D01*
X-6542861Y35038843D01*
X-6471432Y35110271D01*
X-6400003Y35253128D01*
X-6400003Y36467414D01*
X-5900003Y36467414D02*
X-5042861Y36467414D01*
X-5471432Y34967414D02*
X-5471432Y36467414D01*
X65457909Y37610271D02*
X65386481Y37538843D01*
X65172195Y37467414D01*
X65029338Y37467414D01*
X64815052Y37538843D01*
X64672195Y37681700D01*
X64600766Y37824557D01*
X64529338Y38110271D01*
X64529338Y38324557D01*
X64600766Y38610271D01*
X64672195Y38753128D01*
X64815052Y38895985D01*
X65029338Y38967414D01*
X65172195Y38967414D01*
X65386481Y38895985D01*
X65457909Y38824557D01*
X66100766Y38967414D02*
X66100766Y37753128D01*
X66172195Y37610271D01*
X66243624Y37538843D01*
X66386481Y37467414D01*
X66672195Y37467414D01*
X66815052Y37538843D01*
X66886481Y37610271D01*
X66957909Y37753128D01*
X66957909Y38967414D01*
X67457909Y38967414D02*
X68315052Y38967414D01*
X67886481Y37467414D02*
X67886481Y38967414D01*
X69100766Y38967414D02*
X69386481Y38967414D01*
X69529338Y38895985D01*
X69672195Y38753128D01*
X69743624Y38467414D01*
X69743624Y37967414D01*
X69672195Y37681700D01*
X69529338Y37538843D01*
X69386481Y37467414D01*
X69100766Y37467414D01*
X68957909Y37538843D01*
X68815052Y37681700D01*
X68743624Y37967414D01*
X68743624Y38467414D01*
X68815052Y38753128D01*
X68957909Y38895985D01*
X69100766Y38967414D01*
X70386481Y38967414D02*
X70386481Y37753128D01*
X70457909Y37610271D01*
X70529338Y37538843D01*
X70672195Y37467414D01*
X70957909Y37467414D01*
X71100766Y37538843D01*
X71172195Y37610271D01*
X71243624Y37753128D01*
X71243624Y38967414D01*
X71743624Y38967414D02*
X72600766Y38967414D01*
X72172195Y37467414D02*
X72172195Y38967414D01*
X-87042091Y37610271D02*
X-87113519Y37538843D01*
X-87327805Y37467414D01*
X-87470662Y37467414D01*
X-87684948Y37538843D01*
X-87827805Y37681700D01*
X-87899234Y37824557D01*
X-87970662Y38110271D01*
X-87970662Y38324557D01*
X-87899234Y38610271D01*
X-87827805Y38753128D01*
X-87684948Y38895985D01*
X-87470662Y38967414D01*
X-87327805Y38967414D01*
X-87113519Y38895985D01*
X-87042091Y38824557D01*
X-86399234Y38967414D02*
X-86399234Y37753128D01*
X-86327805Y37610271D01*
X-86256376Y37538843D01*
X-86113519Y37467414D01*
X-85827805Y37467414D01*
X-85684948Y37538843D01*
X-85613519Y37610271D01*
X-85542091Y37753128D01*
X-85542091Y38967414D01*
X-85042091Y38967414D02*
X-84184948Y38967414D01*
X-84613519Y37467414D02*
X-84613519Y38967414D01*
X-83399234Y38967414D02*
X-83113519Y38967414D01*
X-82970662Y38895985D01*
X-82827805Y38753128D01*
X-82756376Y38467414D01*
X-82756376Y37967414D01*
X-82827805Y37681700D01*
X-82970662Y37538843D01*
X-83113519Y37467414D01*
X-83399234Y37467414D01*
X-83542091Y37538843D01*
X-83684948Y37681700D01*
X-83756376Y37967414D01*
X-83756376Y38467414D01*
X-83684948Y38753128D01*
X-83542091Y38895985D01*
X-83399234Y38967414D01*
X-82113519Y38967414D02*
X-82113519Y37753128D01*
X-82042091Y37610271D01*
X-81970662Y37538843D01*
X-81827805Y37467414D01*
X-81542091Y37467414D01*
X-81399234Y37538843D01*
X-81327805Y37610271D01*
X-81256376Y37753128D01*
X-81256376Y38967414D01*
X-80756376Y38967414D02*
X-79899234Y38967414D01*
X-80327805Y37467414D02*
X-80327805Y38967414D01*
X3460991Y1711522D02*
X3389563Y1640094D01*
X3175277Y1568665D01*
X3032420Y1568665D01*
X2818134Y1640094D01*
X2675277Y1782951D01*
X2603848Y1925808D01*
X2532420Y2211522D01*
X2532420Y2425808D01*
X2603848Y2711522D01*
X2675277Y2854379D01*
X2818134Y2997236D01*
X3032420Y3068665D01*
X3175277Y3068665D01*
X3389563Y2997236D01*
X3460991Y2925808D01*
X4103848Y3068665D02*
X4103848Y1854379D01*
X4175277Y1711522D01*
X4246706Y1640094D01*
X4389563Y1568665D01*
X4675277Y1568665D01*
X4818134Y1640094D01*
X4889563Y1711522D01*
X4960991Y1854379D01*
X4960991Y3068665D01*
X5460991Y3068665D02*
X6318134Y3068665D01*
X5889563Y1568665D02*
X5889563Y3068665D01*
X7103848Y3068665D02*
X7389563Y3068665D01*
X7532420Y2997236D01*
X7675277Y2854379D01*
X7746706Y2568665D01*
X7746706Y2068665D01*
X7675277Y1782951D01*
X7532420Y1640094D01*
X7389563Y1568665D01*
X7103848Y1568665D01*
X6960991Y1640094D01*
X6818134Y1782951D01*
X6746706Y2068665D01*
X6746706Y2568665D01*
X6818134Y2854379D01*
X6960991Y2997236D01*
X7103848Y3068665D01*
X8389563Y3068665D02*
X8389563Y1854379D01*
X8460991Y1711522D01*
X8532420Y1640094D01*
X8675277Y1568665D01*
X8960991Y1568665D01*
X9103848Y1640094D01*
X9175277Y1711522D01*
X9246706Y1854379D01*
X9246706Y3068665D01*
X9746706Y3068665D02*
X10603848Y3068665D01*
X10175277Y1568665D02*
X10175277Y3068665D01*
X-72042091Y-58639729D02*
X-72113519Y-58711157D01*
X-72327805Y-58782586D01*
X-72470662Y-58782586D01*
X-72684948Y-58711157D01*
X-72827805Y-58568300D01*
X-72899234Y-58425443D01*
X-72970662Y-58139729D01*
X-72970662Y-57925443D01*
X-72899234Y-57639729D01*
X-72827805Y-57496872D01*
X-72684948Y-57354015D01*
X-72470662Y-57282586D01*
X-72327805Y-57282586D01*
X-72113519Y-57354015D01*
X-72042091Y-57425443D01*
X-71399234Y-57282586D02*
X-71399234Y-58496872D01*
X-71327805Y-58639729D01*
X-71256376Y-58711157D01*
X-71113519Y-58782586D01*
X-70827805Y-58782586D01*
X-70684948Y-58711157D01*
X-70613519Y-58639729D01*
X-70542091Y-58496872D01*
X-70542091Y-57282586D01*
X-70042091Y-57282586D02*
X-69184948Y-57282586D01*
X-69613519Y-58782586D02*
X-69613519Y-57282586D01*
X-68399234Y-57282586D02*
X-68113519Y-57282586D01*
X-67970662Y-57354015D01*
X-67827805Y-57496872D01*
X-67756376Y-57782586D01*
X-67756376Y-58282586D01*
X-67827805Y-58568300D01*
X-67970662Y-58711157D01*
X-68113519Y-58782586D01*
X-68399234Y-58782586D01*
X-68542091Y-58711157D01*
X-68684948Y-58568300D01*
X-68756376Y-58282586D01*
X-68756376Y-57782586D01*
X-68684948Y-57496872D01*
X-68542091Y-57354015D01*
X-68399234Y-57282586D01*
X-67113519Y-57282586D02*
X-67113519Y-58496872D01*
X-67042091Y-58639729D01*
X-66970662Y-58711157D01*
X-66827805Y-58782586D01*
X-66542091Y-58782586D01*
X-66399234Y-58711157D01*
X-66327805Y-58639729D01*
X-66256376Y-58496872D01*
X-66256376Y-57282586D01*
X-65756376Y-57282586D02*
X-64899234Y-57282586D01*
X-65327805Y-58782586D02*
X-65327805Y-57282586D01*
X-130792091Y-42389729D02*
X-130863519Y-42461157D01*
X-131077805Y-42532586D01*
X-131220662Y-42532586D01*
X-131434948Y-42461157D01*
X-131577805Y-42318300D01*
X-131649234Y-42175443D01*
X-131720662Y-41889729D01*
X-131720662Y-41675443D01*
X-131649234Y-41389729D01*
X-131577805Y-41246872D01*
X-131434948Y-41104015D01*
X-131220662Y-41032586D01*
X-131077805Y-41032586D01*
X-130863519Y-41104015D01*
X-130792091Y-41175443D01*
X-130149234Y-41032586D02*
X-130149234Y-42246872D01*
X-130077805Y-42389729D01*
X-130006376Y-42461157D01*
X-129863519Y-42532586D01*
X-129577805Y-42532586D01*
X-129434948Y-42461157D01*
X-129363519Y-42389729D01*
X-129292091Y-42246872D01*
X-129292091Y-41032586D01*
X-128792091Y-41032586D02*
X-127934948Y-41032586D01*
X-128363519Y-42532586D02*
X-128363519Y-41032586D01*
X-127149234Y-41032586D02*
X-126863519Y-41032586D01*
X-126720662Y-41104015D01*
X-126577805Y-41246872D01*
X-126506376Y-41532586D01*
X-126506376Y-42032586D01*
X-126577805Y-42318300D01*
X-126720662Y-42461157D01*
X-126863519Y-42532586D01*
X-127149234Y-42532586D01*
X-127292091Y-42461157D01*
X-127434948Y-42318300D01*
X-127506376Y-42032586D01*
X-127506376Y-41532586D01*
X-127434948Y-41246872D01*
X-127292091Y-41104015D01*
X-127149234Y-41032586D01*
X-125863519Y-41032586D02*
X-125863519Y-42246872D01*
X-125792091Y-42389729D01*
X-125720662Y-42461157D01*
X-125577805Y-42532586D01*
X-125292091Y-42532586D01*
X-125149234Y-42461157D01*
X-125077805Y-42389729D01*
X-125006377Y-42246872D01*
X-125006377Y-41032586D01*
X-124506377Y-41032586D02*
X-123649234Y-41032586D01*
X-124077805Y-42532586D02*
X-124077805Y-41032586D01*
D10*
X-3992580Y18228189D02*
X-3183056Y18228189D01*
X-3087818Y18180570D01*
X-3040199Y18132951D01*
X-2992580Y18037713D01*
X-2992580Y17894856D01*
X-3040199Y17799617D01*
X-3373533Y18228189D02*
X-3325914Y18132951D01*
X-3325914Y17942475D01*
X-3373533Y17847236D01*
X-3421152Y17799617D01*
X-3516390Y17751998D01*
X-3802104Y17751998D01*
X-3897342Y17799617D01*
X-3944961Y17847236D01*
X-3992580Y17942475D01*
X-3992580Y18132951D01*
X-3944961Y18228189D01*
X-3992580Y19132951D02*
X-3183056Y19132951D01*
X-3087818Y19085332D01*
X-3040199Y19037713D01*
X-2992580Y18942475D01*
X-2992580Y18799617D01*
X-3040199Y18704379D01*
X-3373533Y19132951D02*
X-3325914Y19037713D01*
X-3325914Y18847236D01*
X-3373533Y18751998D01*
X-3421152Y18704379D01*
X-3516390Y18656760D01*
X-3802104Y18656760D01*
X-3897342Y18704379D01*
X-3944961Y18751998D01*
X-3992580Y18847236D01*
X-3992580Y19037713D01*
X-3944961Y19132951D01*
X-3373533Y19990094D02*
X-3325914Y19894856D01*
X-3325914Y19704379D01*
X-3373533Y19609141D01*
X-3468771Y19561522D01*
X-3849723Y19561522D01*
X-3944961Y19609141D01*
X-3992580Y19704379D01*
X-3992580Y19894856D01*
X-3944961Y19990094D01*
X-3849723Y20037713D01*
X-3754485Y20037713D01*
X-3659247Y19561522D01*
X-4325914Y20371046D02*
X-4325914Y21037713D01*
X-3325914Y20609141D01*
X-4325914Y21609141D02*
X-4325914Y21704379D01*
X-4278294Y21799617D01*
X-4230675Y21847236D01*
X-4135437Y21894856D01*
X-3944961Y21942475D01*
X-3706866Y21942475D01*
X-3516390Y21894856D01*
X-3421152Y21847236D01*
X-3373533Y21799617D01*
X-3325914Y21704379D01*
X-3325914Y21609141D01*
X-3373533Y21513903D01*
X-3421152Y21466284D01*
X-3516390Y21418665D01*
X-3706866Y21371046D01*
X-3944961Y21371046D01*
X-4135437Y21418665D01*
X-4230675Y21466284D01*
X-4278294Y21513903D01*
X-4325914Y21609141D01*
X-10771532Y14028189D02*
X-9962008Y14028189D01*
X-9866770Y13980570D01*
X-9819151Y13932951D01*
X-9771532Y13837713D01*
X-9771532Y13694856D01*
X-9819151Y13599617D01*
X-10152485Y14028189D02*
X-10104866Y13932951D01*
X-10104866Y13742475D01*
X-10152485Y13647236D01*
X-10200104Y13599617D01*
X-10295342Y13551998D01*
X-10581056Y13551998D01*
X-10676294Y13599617D01*
X-10723913Y13647236D01*
X-10771532Y13742475D01*
X-10771532Y13932951D01*
X-10723913Y14028189D01*
X-10771532Y14932951D02*
X-9962008Y14932951D01*
X-9866770Y14885332D01*
X-9819151Y14837713D01*
X-9771532Y14742475D01*
X-9771532Y14599617D01*
X-9819151Y14504379D01*
X-10152485Y14932951D02*
X-10104866Y14837713D01*
X-10104866Y14647236D01*
X-10152485Y14551998D01*
X-10200104Y14504379D01*
X-10295342Y14456760D01*
X-10581056Y14456760D01*
X-10676294Y14504379D01*
X-10723913Y14551998D01*
X-10771532Y14647236D01*
X-10771532Y14837713D01*
X-10723913Y14932951D01*
X-10152485Y15790094D02*
X-10104866Y15694856D01*
X-10104866Y15504379D01*
X-10152485Y15409141D01*
X-10247723Y15361522D01*
X-10628675Y15361522D01*
X-10723913Y15409141D01*
X-10771532Y15504379D01*
X-10771532Y15694856D01*
X-10723913Y15790094D01*
X-10628675Y15837713D01*
X-10533437Y15837713D01*
X-10438199Y15361522D01*
X-11104866Y16171046D02*
X-11104866Y16837713D01*
X-10104866Y16409141D01*
X-11104866Y17409141D02*
X-11104866Y17504379D01*
X-11057246Y17599617D01*
X-11009627Y17647236D01*
X-10914389Y17694856D01*
X-10723913Y17742475D01*
X-10485818Y17742475D01*
X-10295342Y17694856D01*
X-10200104Y17647236D01*
X-10152485Y17599617D01*
X-10104866Y17504379D01*
X-10104866Y17409141D01*
X-10152485Y17313903D01*
X-10200104Y17266284D01*
X-10295342Y17218665D01*
X-10485818Y17171046D01*
X-10723913Y17171046D01*
X-10914389Y17218665D01*
X-11009627Y17266284D01*
X-11057246Y17313903D01*
X-11104866Y17409141D01*
D14*
X-76932242Y37997236D02*
G75*
G02*
X-78182242Y36747236I-1250000J0D01*
G01*
X-71496321Y36730000D02*
G75*
G02*
X-72746321Y37980000I0J1250000D01*
G01*
X-5900534Y-37916843D02*
G75*
G02*
X-8400534Y-37916843I-1250000J0D01*
G01*
X-8417770Y-44602764D02*
G75*
G02*
X-5917770Y-44602764I1250000J0D01*
G01*
X82228599Y36711329D02*
G75*
G02*
X80978599Y37961329I0J1250000D01*
G01*
X76792678Y37978565D02*
G75*
G02*
X75542678Y36728565I-1250000J0D01*
G01*
D10*
X42696706Y-17777764D02*
G75*
G03*
X42696706Y-17777764I-4300000J0D01*
G01*
D14*
X-110270969Y-40535528D02*
G75*
G02*
X-109020969Y-41785528I0J-1250000D01*
G01*
X-104835048Y-41802764D02*
G75*
G02*
X-103585048Y-40552764I1250000J0D01*
G01*
D10*
X22921706Y-33452764D02*
G75*
G03*
X22921706Y-33452764I-4300000J0D01*
G01*
D14*
X9707230Y32897236D02*
G75*
G02*
X8457230Y31647236I-1250000J0D01*
G01*
X15143151Y31630000D02*
G75*
G02*
X13893151Y32880000I0J1250000D01*
G01*
D10*
X114696706Y-22077764D02*
G75*
G03*
X114696706Y-22077764I-4300000J0D01*
G01*
D14*
X-13521030Y-49980005D02*
G75*
G02*
X-12271030Y-48730005I1250000J0D01*
G01*
X-18956951Y-48712769D02*
G75*
G02*
X-17706951Y-49962769I0J-1250000D01*
G01*
X-88996321Y36730000D02*
G75*
G02*
X-90246321Y37980000I0J1250000D01*
G01*
X-94432242Y37997236D02*
G75*
G02*
X-95682242Y36747236I-1250000J0D01*
G01*
X57558864Y37978565D02*
G75*
G02*
X56308864Y36728565I-1250000J0D01*
G01*
X62994785Y36711329D02*
G75*
G02*
X61744785Y37961329I0J1250000D01*
G01*
D10*
X42596706Y16222236D02*
G75*
G03*
X42596706Y16222236I-4300000J0D01*
G01*
D14*
X120557703Y30663221D02*
G75*
G02*
X119307703Y29413221I-1250000J0D01*
G01*
X125993624Y29395985D02*
G75*
G02*
X124743624Y30645985I0J1250000D01*
G01*
X-5900534Y8333157D02*
G75*
G02*
X-8400534Y8333157I-1250000J0D01*
G01*
X-8417770Y1647236D02*
G75*
G02*
X-5917770Y1647236I1250000J0D01*
G01*
X-8417770Y20397236D02*
G75*
G02*
X-5917770Y20397236I1250000J0D01*
G01*
X-5900534Y27083157D02*
G75*
G02*
X-8400534Y27083157I-1250000J0D01*
G01*
X-8417770Y-24602764D02*
G75*
G02*
X-5917770Y-24602764I1250000J0D01*
G01*
X-5900534Y-17916843D02*
G75*
G02*
X-8400534Y-17916843I-1250000J0D01*
G01*
D10*
X8421706Y18347236D02*
G75*
G03*
X8421706Y18347236I-4300000J0D01*
G01*
D14*
X-22731849Y31630000D02*
G75*
G02*
X-23981849Y32880000I0J1250000D01*
G01*
X-28167770Y32897236D02*
G75*
G02*
X-29417770Y31647236I-1250000J0D01*
G01*
X-134835048Y-41802764D02*
G75*
G02*
X-133585048Y-40552764I1250000J0D01*
G01*
X-140270969Y-40535528D02*
G75*
G02*
X-139020969Y-41785528I0J-1250000D01*
G01*
X-133207322Y29395985D02*
G75*
G02*
X-134457322Y30645985I0J1250000D01*
G01*
X-138643243Y30663221D02*
G75*
G02*
X-139893243Y29413221I-1250000J0D01*
G01*
X-85270969Y-56535527D02*
G75*
G02*
X-84020969Y-57785527I0J-1250000D01*
G01*
X-79835048Y-57802763D02*
G75*
G02*
X-78585048Y-56552763I1250000J0D01*
G01*
D10*
X114696706Y12122236D02*
G75*
G03*
X114696706Y12122236I-4300000J0D01*
G01*
D14*
X-60860142Y-56535527D02*
G75*
G02*
X-59610142Y-57785527I0J-1250000D01*
G01*
X-55424221Y-57802763D02*
G75*
G02*
X-54174221Y-56552763I1250000J0D01*
G01*
X-814510Y-49971387D02*
G75*
G03*
X-2064510Y-48721387I-1250000J0D01*
G01*
X4621411Y-48704151D02*
G75*
G03*
X3371411Y-49954151I0J-1250000D01*
G01*
X95935429Y-40526910D02*
G75*
G03*
X94685429Y-41776910I0J-1250000D01*
G01*
X90499508Y-41794146D02*
G75*
G03*
X89249508Y-40544146I-1250000J0D01*
G01*
D10*
X-14157246Y18347236D02*
G75*
G03*
X-14157246Y18347236I-4300000J0D01*
G01*
X-120432246Y12122236D02*
G75*
G03*
X-120432246Y12122236I-4300000J0D01*
G01*
D14*
X70935429Y-56526909D02*
G75*
G03*
X69685429Y-57776909I0J-1250000D01*
G01*
X65499508Y-57794145D02*
G75*
G03*
X64249508Y-56544145I-1250000J0D01*
G01*
D10*
X-48332246Y16222236D02*
G75*
G03*
X-48332246Y16222236I-4300000J0D01*
G01*
D14*
X120499508Y-41794146D02*
G75*
G03*
X119249508Y-40544146I-1250000J0D01*
G01*
X125935429Y-40526910D02*
G75*
G03*
X124685429Y-41776910I0J-1250000D01*
G01*
D10*
X-120432246Y-22077764D02*
G75*
G03*
X-120432246Y-22077764I-4300000J0D01*
G01*
X-48432246Y-17777764D02*
G75*
G03*
X-48432246Y-17777764I-4300000J0D01*
G01*
X-28657246Y-33452764D02*
G75*
G03*
X-28657246Y-33452764I-4300000J0D01*
G01*
D14*
X46524602Y-56526909D02*
G75*
G03*
X45274602Y-57776909I0J-1250000D01*
G01*
X41088681Y-57794145D02*
G75*
G03*
X39838681Y-56544145I-1250000J0D01*
G01*
M02*
