G04 #@! TF.GenerationSoftware,KiCad,Pcbnew,(5.99.0-8557-g8988e46ab1)*
G04 #@! TF.CreationDate,2021-02-21T06:36:03-07:00*
G04 #@! TF.ProjectId,BottomCover,426f7474-6f6d-4436-9f76-65722e6b6963,rev?*
G04 #@! TF.SameCoordinates,PX85099e0PY51bada0*
G04 #@! TF.FileFunction,Copper,L2,Bot*
G04 #@! TF.FilePolarity,Positive*
%FSLAX46Y46*%
G04 Gerber Fmt 4.6, Leading zero omitted, Abs format (unit mm)*
G04 Created by KiCad (PCBNEW (5.99.0-8557-g8988e46ab1)) date 2021-02-21 06:36:03*
%MOMM*%
%LPD*%
G01*
G04 APERTURE LIST*
G04 #@! TA.AperFunction,ComponentPad*
%ADD10C,3.500000*%
G04 #@! TD*
G04 APERTURE END LIST*
D10*
X36373000Y-9725000D03*
X-35627000Y20175000D03*
X36473000Y24275000D03*
X70648000Y26400000D03*
X-35627000Y-14025000D03*
X56148000Y-25400000D03*
G04 #@! TA.AperFunction,Conductor*
G36*
X18094668Y44290818D02*
G01*
X18126606Y44286413D01*
X18216195Y44287972D01*
X18226086Y44287755D01*
X18237143Y44287078D01*
X18328662Y44281474D01*
X18338505Y44280483D01*
X18367949Y44276343D01*
X18423986Y44268464D01*
X18428459Y44268475D01*
X18428465Y44268475D01*
X18458179Y44268551D01*
X18460527Y44268557D01*
X18476218Y44267616D01*
X57549348Y39465219D01*
X59507651Y39224528D01*
X59528811Y39220057D01*
X59542246Y39215987D01*
X59547057Y39215310D01*
X59547073Y39215307D01*
X59634839Y39202966D01*
X59644238Y39201279D01*
X59657788Y39198312D01*
X59670857Y39197512D01*
X59680694Y39196520D01*
X59690402Y39195155D01*
X59694872Y39195166D01*
X59694876Y39195166D01*
X59701386Y39195183D01*
X59704580Y39195191D01*
X59712589Y39194956D01*
X59760876Y39192000D01*
X59827450Y39187924D01*
X59836966Y39186977D01*
X59845885Y39185747D01*
X59845889Y39185747D01*
X59850708Y39185082D01*
X59863795Y39185310D01*
X59873683Y39185093D01*
X59883466Y39184494D01*
X59887934Y39184857D01*
X59887937Y39184857D01*
X59891206Y39185123D01*
X59897605Y39185643D01*
X59905596Y39186037D01*
X60000300Y39187685D01*
X60004728Y39188398D01*
X60004729Y39188398D01*
X60017150Y39190398D01*
X60037179Y39192000D01*
X78104968Y39192000D01*
X78126523Y39190143D01*
X78140334Y39187745D01*
X78145201Y39187660D01*
X78148201Y39187608D01*
X78267442Y39185526D01*
X78273418Y39185277D01*
X78339965Y39180916D01*
X78348167Y39180108D01*
X78544757Y39154226D01*
X78552884Y39152884D01*
X78589105Y39145680D01*
X78597202Y39144069D01*
X78605231Y39142197D01*
X78796788Y39090870D01*
X78804670Y39088479D01*
X78847467Y39073951D01*
X78855165Y39071054D01*
X79038379Y38995164D01*
X79045881Y38991765D01*
X79086417Y38971775D01*
X79093688Y38967888D01*
X79265406Y38868747D01*
X79272408Y38864393D01*
X79309997Y38839277D01*
X79316697Y38834475D01*
X79474009Y38713765D01*
X79480364Y38708549D01*
X79514366Y38678729D01*
X79520382Y38673094D01*
X79660569Y38532907D01*
X79666206Y38526889D01*
X79696021Y38492891D01*
X79701252Y38486518D01*
X79821964Y38329203D01*
X79826767Y38322500D01*
X79851868Y38284933D01*
X79856221Y38277932D01*
X79955362Y38106216D01*
X79959249Y38098944D01*
X79979240Y38058406D01*
X79982643Y38050896D01*
X80058526Y37867699D01*
X80061430Y37859983D01*
X80075953Y37817200D01*
X80078345Y37809316D01*
X80091851Y37758913D01*
X80129672Y37617763D01*
X80131540Y37609750D01*
X80140365Y37565383D01*
X80141701Y37557289D01*
X80153553Y37467264D01*
X80167584Y37360684D01*
X80168392Y37352481D01*
X80172752Y37285963D01*
X80173001Y37279973D01*
X80175164Y37156136D01*
X80175876Y37151717D01*
X80177873Y37139318D01*
X80179476Y37119281D01*
X80179476Y-37045337D01*
X80177723Y-37066280D01*
X80174995Y-37082464D01*
X80174206Y-37145314D01*
X80173350Y-37213571D01*
X80173141Y-37219415D01*
X80170946Y-37256599D01*
X80170290Y-37263995D01*
X80163751Y-37319192D01*
X80147385Y-37457320D01*
X80146293Y-37464671D01*
X80141927Y-37489091D01*
X80140405Y-37496360D01*
X80094915Y-37685629D01*
X80092967Y-37692799D01*
X80085755Y-37716546D01*
X80083388Y-37723586D01*
X80055487Y-37799129D01*
X80015932Y-37906221D01*
X80013181Y-37913044D01*
X80003197Y-37935841D01*
X80000045Y-37942499D01*
X79911568Y-38115927D01*
X79908022Y-38122398D01*
X79895417Y-38143877D01*
X79891482Y-38150149D01*
X79783330Y-38311790D01*
X79783258Y-38311897D01*
X79778954Y-38317937D01*
X79763926Y-38337761D01*
X79759269Y-38343542D01*
X79632758Y-38491439D01*
X79627771Y-38496932D01*
X79601869Y-38523826D01*
X79597717Y-38527942D01*
X79521856Y-38599725D01*
X79504899Y-38615770D01*
X79502117Y-38619276D01*
X79492743Y-38631089D01*
X79479502Y-38645356D01*
X79474488Y-38649982D01*
X79474480Y-38649986D01*
X79474482Y-38649988D01*
X78460612Y-39585532D01*
X78443777Y-39598611D01*
X78435105Y-39604241D01*
X78435099Y-39604245D01*
X78431015Y-39606897D01*
X78427388Y-39610145D01*
X78427385Y-39610147D01*
X78334739Y-39693104D01*
X78330233Y-39696952D01*
X78290220Y-39729517D01*
X78284030Y-39734243D01*
X78124437Y-39848428D01*
X78117971Y-39852756D01*
X78088359Y-39871277D01*
X78081615Y-39875210D01*
X77909139Y-39968724D01*
X77902150Y-39972237D01*
X77870497Y-39986935D01*
X77863315Y-39990003D01*
X77680550Y-40061442D01*
X77673201Y-40064054D01*
X77639957Y-40074722D01*
X77632458Y-40076874D01*
X77521087Y-40105124D01*
X77442302Y-40125108D01*
X77434668Y-40126795D01*
X77400327Y-40133268D01*
X77392598Y-40134477D01*
X77338736Y-40141202D01*
X77197928Y-40158781D01*
X77190163Y-40159507D01*
X77163809Y-40161146D01*
X77138693Y-40162707D01*
X77132761Y-40162936D01*
X77032719Y-40164433D01*
X77006817Y-40164821D01*
X76988735Y-40167687D01*
X76969011Y-40169241D01*
X69962632Y-40169241D01*
X69945425Y-40168061D01*
X69942349Y-40167637D01*
X69913442Y-40163652D01*
X69719030Y-40167048D01*
X69713865Y-40167032D01*
X69691450Y-40166504D01*
X69686615Y-40167141D01*
X69686366Y-40167154D01*
X69681977Y-40167637D01*
X69681157Y-40167710D01*
X69676678Y-40167788D01*
X69672258Y-40168500D01*
X69672257Y-40168500D01*
X69656007Y-40171117D01*
X69652418Y-40171642D01*
X69326771Y-40214514D01*
X69323826Y-40214867D01*
X69309750Y-40216384D01*
X69300118Y-40217422D01*
X69295707Y-40218604D01*
X69294430Y-40218772D01*
X69293423Y-40219054D01*
X69293424Y-40219054D01*
X69280846Y-40222578D01*
X69279463Y-40222957D01*
X68944786Y-40312632D01*
X68941914Y-40313365D01*
X68923518Y-40317833D01*
X68923509Y-40317836D01*
X68918782Y-40318984D01*
X68914568Y-40320730D01*
X68913316Y-40321065D01*
X68912343Y-40321481D01*
X68912340Y-40321482D01*
X68900301Y-40326630D01*
X68899027Y-40327167D01*
X68587941Y-40456022D01*
X68583173Y-40457883D01*
X68562089Y-40465620D01*
X68557833Y-40467979D01*
X68557612Y-40468080D01*
X68553701Y-40470141D01*
X68552965Y-40470509D01*
X68548818Y-40472227D01*
X68544966Y-40474509D01*
X68544955Y-40474515D01*
X68530808Y-40482898D01*
X68527662Y-40484702D01*
X68429449Y-40539141D01*
X68354978Y-40580420D01*
X68333601Y-40596616D01*
X68325826Y-40602507D01*
X68312735Y-40611196D01*
X56859061Y-47223978D01*
X53765411Y-49010098D01*
X53362636Y-49242640D01*
X47385780Y-52693379D01*
X47366506Y-52702430D01*
X47352129Y-52707749D01*
X47347882Y-52710118D01*
X47347880Y-52710119D01*
X47239085Y-52770808D01*
X47233840Y-52773573D01*
X47188841Y-52795967D01*
X47181764Y-52799220D01*
X47077455Y-52843314D01*
X47001149Y-52875570D01*
X46993884Y-52878379D01*
X46961797Y-52889661D01*
X46954372Y-52892017D01*
X46765758Y-52945493D01*
X46758201Y-52947385D01*
X46724938Y-52954629D01*
X46717280Y-52956051D01*
X46647620Y-52966765D01*
X46523470Y-52985859D01*
X46515777Y-52986798D01*
X46481876Y-52989884D01*
X46474108Y-52990350D01*
X46278130Y-52996023D01*
X46270353Y-52996008D01*
X46255939Y-52995534D01*
X46236322Y-52994888D01*
X46228549Y-52994391D01*
X46033370Y-52975847D01*
X46025645Y-52974871D01*
X46006280Y-52971815D01*
X45992042Y-52969567D01*
X45984410Y-52968120D01*
X45875988Y-52944058D01*
X45792979Y-52925636D01*
X45785440Y-52923717D01*
X45752732Y-52914304D01*
X45745331Y-52911923D01*
X45560599Y-52846149D01*
X45553351Y-52843314D01*
X45507120Y-52823555D01*
X45501730Y-52821100D01*
X45418938Y-52781010D01*
X45388181Y-52766116D01*
X45370636Y-52760521D01*
X45352346Y-52753062D01*
X36587162Y-48347746D01*
X36571754Y-48338573D01*
X36547826Y-48321912D01*
X36442912Y-48270743D01*
X36392819Y-48246311D01*
X36387241Y-48243417D01*
X36369193Y-48233469D01*
X36364617Y-48231802D01*
X36364478Y-48231739D01*
X36359455Y-48229606D01*
X36359428Y-48229672D01*
X36355280Y-48228003D01*
X36351246Y-48226035D01*
X36346977Y-48224660D01*
X36346969Y-48224657D01*
X36332254Y-48219918D01*
X36327759Y-48218377D01*
X36065353Y-48122803D01*
X36060906Y-48121087D01*
X36039667Y-48112423D01*
X36034927Y-48111299D01*
X36034822Y-48111265D01*
X36030766Y-48110206D01*
X36026887Y-48108793D01*
X36022506Y-48107873D01*
X36022500Y-48107871D01*
X36006347Y-48104478D01*
X36003174Y-48103768D01*
X35725065Y-48037811D01*
X35720424Y-48036617D01*
X35698312Y-48030476D01*
X35693478Y-48029911D01*
X35693357Y-48029887D01*
X35689206Y-48029306D01*
X35685195Y-48028355D01*
X35667839Y-48026778D01*
X35664314Y-48026457D01*
X35661085Y-48026121D01*
X35507779Y-48008191D01*
X35382385Y-47993525D01*
X35376163Y-47992639D01*
X35360667Y-47990036D01*
X35360658Y-47990035D01*
X35355870Y-47989231D01*
X35351011Y-47989173D01*
X35350823Y-47989156D01*
X35345406Y-47988808D01*
X35345403Y-47988878D01*
X35340920Y-47988675D01*
X35336472Y-47988155D01*
X35316473Y-47988671D01*
X35311759Y-47988704D01*
X35230626Y-47987735D01*
X35141645Y-47986672D01*
X35141639Y-47986672D01*
X35137170Y-47986619D01*
X35132739Y-47987200D01*
X35132733Y-47987200D01*
X35104264Y-47990931D01*
X35087893Y-47991999D01*
X3763503Y-47991999D01*
X3741972Y-47990146D01*
X3732863Y-47988566D01*
X3732860Y-47988566D01*
X3728070Y-47987735D01*
X3697098Y-47987200D01*
X3600839Y-47985537D01*
X3594808Y-47985288D01*
X3568206Y-47983552D01*
X3529407Y-47981018D01*
X3521266Y-47980220D01*
X3380465Y-47961757D01*
X3324851Y-47954464D01*
X3316748Y-47953132D01*
X3273140Y-47944493D01*
X3265138Y-47942635D01*
X3073759Y-47891564D01*
X3065900Y-47889190D01*
X3023785Y-47874955D01*
X3016098Y-47872074D01*
X2832956Y-47796544D01*
X2825487Y-47793175D01*
X2785585Y-47773586D01*
X2778336Y-47769729D01*
X2606598Y-47671046D01*
X2599615Y-47666725D01*
X2562583Y-47642105D01*
X2555895Y-47637337D01*
X2398438Y-47517156D01*
X2392074Y-47511962D01*
X2342688Y-47468897D01*
X2338235Y-47464822D01*
X2252044Y-47382070D01*
X2248811Y-47378966D01*
X2234897Y-47368973D01*
X2219577Y-47356002D01*
X-3684705Y-41487943D01*
X-12303761Y-32921764D01*
X-12315136Y-32908792D01*
X-12334643Y-32883201D01*
X-12474333Y-32749083D01*
X-12478012Y-32745402D01*
X-12493495Y-32729255D01*
X-12497366Y-32726301D01*
X-12497560Y-32726127D01*
X-12500927Y-32723443D01*
X-12501765Y-32722746D01*
X-12504997Y-32719643D01*
X-12521992Y-32707438D01*
X-12524941Y-32705254D01*
X-12544148Y-32690594D01*
X-12784588Y-32507076D01*
X-12786955Y-32505224D01*
X-12801797Y-32493319D01*
X-12801798Y-32493318D01*
X-12805591Y-32490276D01*
X-12809670Y-32487932D01*
X-12810797Y-32487072D01*
X-12813754Y-32485419D01*
X-12813764Y-32485413D01*
X-12823734Y-32479840D01*
X-12825031Y-32479105D01*
X-12908484Y-32431151D01*
X-13123101Y-32307829D01*
X-13125649Y-32306324D01*
X-13146111Y-32293902D01*
X-13150461Y-32292108D01*
X-13151688Y-32291403D01*
X-13165440Y-32285921D01*
X-13166765Y-32285384D01*
X-13185047Y-32277844D01*
X-13300546Y-32230211D01*
X-13484671Y-32154275D01*
X-13487460Y-32153085D01*
X-13504816Y-32145434D01*
X-13509273Y-32143469D01*
X-13513806Y-32142259D01*
X-13515126Y-32141715D01*
X-13518430Y-32140875D01*
X-13518451Y-32140869D01*
X-13529611Y-32138032D01*
X-13531056Y-32137656D01*
X-13730090Y-32084544D01*
X-13863085Y-32049054D01*
X-13865978Y-32048245D01*
X-13884247Y-32042895D01*
X-13884255Y-32042893D01*
X-13888911Y-32041530D01*
X-13893574Y-32040918D01*
X-13894944Y-32040553D01*
X-13898323Y-32040151D01*
X-13898327Y-32040150D01*
X-13909673Y-32038799D01*
X-13911112Y-32038619D01*
X-14242532Y-31995159D01*
X-14247665Y-31994378D01*
X-14264928Y-31991384D01*
X-14264930Y-31991384D01*
X-14269726Y-31990552D01*
X-14274588Y-31990468D01*
X-14274862Y-31990442D01*
X-14279143Y-31990278D01*
X-14280257Y-31990212D01*
X-14284688Y-31989631D01*
X-14289163Y-31989684D01*
X-14289165Y-31989684D01*
X-14305599Y-31989879D01*
X-14309269Y-31989869D01*
X-14501369Y-31986551D01*
X-14501375Y-31986551D01*
X-14505850Y-31986474D01*
X-14537437Y-31990442D01*
X-14542014Y-31991017D01*
X-14557719Y-31992000D01*
X-51544492Y-31992000D01*
X-51566047Y-31990143D01*
X-51567568Y-31989879D01*
X-51579858Y-31987745D01*
X-51584725Y-31987660D01*
X-51587725Y-31987608D01*
X-51706966Y-31985526D01*
X-51712942Y-31985277D01*
X-51779495Y-31980915D01*
X-51787682Y-31980109D01*
X-51984276Y-31954227D01*
X-51992408Y-31952884D01*
X-52036727Y-31944068D01*
X-52044755Y-31942196D01*
X-52236315Y-31890869D01*
X-52244188Y-31888481D01*
X-52286994Y-31873950D01*
X-52294674Y-31871060D01*
X-52412003Y-31822461D01*
X-52477912Y-31795160D01*
X-52485414Y-31791760D01*
X-52525950Y-31771770D01*
X-52533208Y-31767891D01*
X-52704925Y-31668750D01*
X-52711926Y-31664397D01*
X-52717927Y-31660388D01*
X-52749526Y-31639274D01*
X-52756211Y-31634482D01*
X-52913516Y-31513778D01*
X-52919889Y-31508548D01*
X-52953881Y-31478738D01*
X-52959899Y-31473101D01*
X-53100093Y-31332907D01*
X-53105730Y-31326889D01*
X-53135554Y-31292881D01*
X-53140784Y-31286508D01*
X-53261478Y-31129218D01*
X-53266266Y-31122537D01*
X-53291401Y-31084920D01*
X-53295746Y-31077932D01*
X-53394890Y-30906209D01*
X-53398777Y-30898937D01*
X-53418763Y-30858409D01*
X-53422166Y-30850899D01*
X-53498050Y-30667699D01*
X-53500954Y-30659983D01*
X-53515477Y-30617200D01*
X-53517871Y-30609309D01*
X-53519287Y-30604024D01*
X-53569198Y-30417755D01*
X-53571064Y-30409750D01*
X-53579889Y-30365383D01*
X-53581225Y-30357289D01*
X-53600940Y-30207535D01*
X-53607108Y-30160684D01*
X-53607916Y-30152481D01*
X-53609154Y-30133599D01*
X-53612276Y-30085963D01*
X-53612525Y-30079973D01*
X-53614688Y-29956136D01*
X-53617397Y-29939318D01*
X-53619000Y-29919281D01*
X-53619000Y-27166178D01*
X54746855Y-27166178D01*
X54754674Y-27176889D01*
X54866187Y-27264641D01*
X54873088Y-27269366D01*
X55124063Y-27417792D01*
X55131510Y-27421554D01*
X55399933Y-27535493D01*
X55407801Y-27538233D01*
X55688928Y-27615668D01*
X55697107Y-27617347D01*
X55985998Y-27656919D01*
X55994323Y-27657502D01*
X56285909Y-27658519D01*
X56294242Y-27657995D01*
X56583416Y-27620439D01*
X56591581Y-27618822D01*
X56873258Y-27543347D01*
X56881137Y-27540665D01*
X57150351Y-27428602D01*
X57157823Y-27424893D01*
X57409842Y-27278214D01*
X57416760Y-27273548D01*
X57540744Y-27177376D01*
X57549213Y-27165649D01*
X57542638Y-27153849D01*
X56160810Y-25772020D01*
X56146869Y-25764408D01*
X56145034Y-25764539D01*
X56138420Y-25768790D01*
X54753858Y-27153353D01*
X54746855Y-27166178D01*
X-53619000Y-27166178D01*
X-53619000Y-25490576D01*
X53887087Y-25490576D01*
X53887437Y-25498928D01*
X53918928Y-25788809D01*
X53920377Y-25797026D01*
X53989931Y-26080197D01*
X53992458Y-26088162D01*
X54098849Y-26359642D01*
X54102405Y-26367199D01*
X54243775Y-26622236D01*
X54248284Y-26629234D01*
X54370137Y-26793308D01*
X54381329Y-26801752D01*
X54393835Y-26794954D01*
X55775980Y-25412810D01*
X55782357Y-25401131D01*
X56512408Y-25401131D01*
X56512539Y-25402966D01*
X56516790Y-25409580D01*
X57901908Y-26794697D01*
X57914348Y-26801490D01*
X57925559Y-26793125D01*
X58039086Y-26642470D01*
X58043647Y-26635499D01*
X58186797Y-26381449D01*
X58190399Y-26373929D01*
X58298690Y-26103182D01*
X58301265Y-26095259D01*
X58372796Y-25812569D01*
X58374303Y-25804361D01*
X58407970Y-25513381D01*
X58408368Y-25507691D01*
X58410930Y-25402855D01*
X58410811Y-25397155D01*
X58391398Y-25104875D01*
X58390295Y-25096606D01*
X58332659Y-24810769D01*
X58330469Y-24802708D01*
X58235536Y-24527002D01*
X58232305Y-24519315D01*
X58101743Y-24258590D01*
X58097513Y-24251381D01*
X57933619Y-24010217D01*
X57928720Y-24003946D01*
X57915323Y-23995628D01*
X57905881Y-24001330D01*
X56520020Y-25387190D01*
X56512408Y-25401131D01*
X55782357Y-25401131D01*
X55783592Y-25398869D01*
X55783461Y-25397034D01*
X55779210Y-25390420D01*
X54394496Y-24005707D01*
X54381296Y-23998499D01*
X54371102Y-24005778D01*
X54310607Y-24079425D01*
X54305752Y-24086206D01*
X54152090Y-24334038D01*
X54148177Y-24341398D01*
X54028647Y-24607364D01*
X54025737Y-24615187D01*
X53942429Y-24894637D01*
X53940584Y-24902758D01*
X53894968Y-25190770D01*
X53894212Y-25199081D01*
X53887087Y-25490576D01*
X-53619000Y-25490576D01*
X-53619000Y-23631592D01*
X54745013Y-23631592D01*
X54752017Y-23644806D01*
X56135190Y-25027980D01*
X56149131Y-25035592D01*
X56150966Y-25035461D01*
X56157580Y-25031210D01*
X57543147Y-23645642D01*
X57550556Y-23632075D01*
X57543814Y-23622420D01*
X57506758Y-23590660D01*
X57500088Y-23585671D01*
X57255536Y-23426856D01*
X57248246Y-23422782D01*
X56984848Y-23297712D01*
X56977080Y-23294636D01*
X56699449Y-23205499D01*
X56691360Y-23203482D01*
X56404360Y-23151842D01*
X56396082Y-23150914D01*
X56104777Y-23137685D01*
X56096455Y-23137859D01*
X55805954Y-23163275D01*
X55797716Y-23164550D01*
X55513140Y-23228160D01*
X55505136Y-23230516D01*
X55231475Y-23331205D01*
X55223859Y-23334595D01*
X54965924Y-23470589D01*
X54958808Y-23474967D01*
X54753409Y-23620937D01*
X54745013Y-23631592D01*
X-53619000Y-23631592D01*
X-53619000Y-15791178D01*
X-37028145Y-15791178D01*
X-37020326Y-15801889D01*
X-36908813Y-15889641D01*
X-36901912Y-15894366D01*
X-36650937Y-16042792D01*
X-36643490Y-16046554D01*
X-36375067Y-16160493D01*
X-36367199Y-16163233D01*
X-36086072Y-16240668D01*
X-36077893Y-16242347D01*
X-35789002Y-16281919D01*
X-35780677Y-16282502D01*
X-35489091Y-16283519D01*
X-35480758Y-16282995D01*
X-35191584Y-16245439D01*
X-35183419Y-16243822D01*
X-34901742Y-16168347D01*
X-34893863Y-16165665D01*
X-34624649Y-16053602D01*
X-34617177Y-16049893D01*
X-34365158Y-15903214D01*
X-34358240Y-15898548D01*
X-34234256Y-15802376D01*
X-34225787Y-15790649D01*
X-34232362Y-15778849D01*
X-35614190Y-14397020D01*
X-35628131Y-14389408D01*
X-35629966Y-14389539D01*
X-35636580Y-14393790D01*
X-37021142Y-15778353D01*
X-37028145Y-15791178D01*
X-53619000Y-15791178D01*
X-53619000Y-14115576D01*
X-37887913Y-14115576D01*
X-37887563Y-14123928D01*
X-37856072Y-14413809D01*
X-37854623Y-14422026D01*
X-37785069Y-14705197D01*
X-37782542Y-14713162D01*
X-37676151Y-14984642D01*
X-37672595Y-14992199D01*
X-37531225Y-15247236D01*
X-37526716Y-15254234D01*
X-37404863Y-15418308D01*
X-37393671Y-15426752D01*
X-37381165Y-15419954D01*
X-35999020Y-14037810D01*
X-35992643Y-14026131D01*
X-35262592Y-14026131D01*
X-35262461Y-14027966D01*
X-35258210Y-14034580D01*
X-33873092Y-15419697D01*
X-33860652Y-15426490D01*
X-33849441Y-15418125D01*
X-33735914Y-15267470D01*
X-33731353Y-15260499D01*
X-33588203Y-15006449D01*
X-33584601Y-14998929D01*
X-33476310Y-14728182D01*
X-33473735Y-14720259D01*
X-33402204Y-14437569D01*
X-33400697Y-14429361D01*
X-33367030Y-14138381D01*
X-33366632Y-14132691D01*
X-33364070Y-14027855D01*
X-33364189Y-14022155D01*
X-33383602Y-13729875D01*
X-33384705Y-13721606D01*
X-33442341Y-13435769D01*
X-33444531Y-13427708D01*
X-33539464Y-13152002D01*
X-33542695Y-13144315D01*
X-33673257Y-12883590D01*
X-33677487Y-12876381D01*
X-33841381Y-12635217D01*
X-33846280Y-12628946D01*
X-33859677Y-12620628D01*
X-33869119Y-12626330D01*
X-35254980Y-14012190D01*
X-35262592Y-14026131D01*
X-35992643Y-14026131D01*
X-35991408Y-14023869D01*
X-35991539Y-14022034D01*
X-35995790Y-14015420D01*
X-37380504Y-12630707D01*
X-37393704Y-12623499D01*
X-37403898Y-12630778D01*
X-37464393Y-12704425D01*
X-37469248Y-12711206D01*
X-37622910Y-12959038D01*
X-37626823Y-12966398D01*
X-37746353Y-13232364D01*
X-37749263Y-13240187D01*
X-37832571Y-13519637D01*
X-37834416Y-13527758D01*
X-37880032Y-13815770D01*
X-37880788Y-13824081D01*
X-37887913Y-14115576D01*
X-53619000Y-14115576D01*
X-53619000Y-12256592D01*
X-37029987Y-12256592D01*
X-37022983Y-12269806D01*
X-35639810Y-13652980D01*
X-35625869Y-13660592D01*
X-35624034Y-13660461D01*
X-35617420Y-13656210D01*
X-34231853Y-12270642D01*
X-34224444Y-12257075D01*
X-34231186Y-12247420D01*
X-34268242Y-12215660D01*
X-34274912Y-12210671D01*
X-34519464Y-12051856D01*
X-34526754Y-12047782D01*
X-34790152Y-11922712D01*
X-34797920Y-11919636D01*
X-35075551Y-11830499D01*
X-35083640Y-11828482D01*
X-35370640Y-11776842D01*
X-35378918Y-11775914D01*
X-35670223Y-11762685D01*
X-35678545Y-11762859D01*
X-35969046Y-11788275D01*
X-35977284Y-11789550D01*
X-36261860Y-11853160D01*
X-36269864Y-11855516D01*
X-36543525Y-11956205D01*
X-36551141Y-11959595D01*
X-36809076Y-12095589D01*
X-36816192Y-12099967D01*
X-37021591Y-12245937D01*
X-37029987Y-12256592D01*
X-53619000Y-12256592D01*
X-53619000Y-11491178D01*
X34971855Y-11491178D01*
X34979674Y-11501889D01*
X35091187Y-11589641D01*
X35098088Y-11594366D01*
X35349063Y-11742792D01*
X35356510Y-11746554D01*
X35624933Y-11860493D01*
X35632801Y-11863233D01*
X35913928Y-11940668D01*
X35922107Y-11942347D01*
X36210998Y-11981919D01*
X36219323Y-11982502D01*
X36510909Y-11983519D01*
X36519242Y-11982995D01*
X36808416Y-11945439D01*
X36816581Y-11943822D01*
X37098258Y-11868347D01*
X37106137Y-11865665D01*
X37375351Y-11753602D01*
X37382823Y-11749893D01*
X37634842Y-11603214D01*
X37641760Y-11598548D01*
X37765744Y-11502376D01*
X37774213Y-11490649D01*
X37767638Y-11478849D01*
X36385810Y-10097020D01*
X36371869Y-10089408D01*
X36370034Y-10089539D01*
X36363420Y-10093790D01*
X34978858Y-11478353D01*
X34971855Y-11491178D01*
X-53619000Y-11491178D01*
X-53619000Y-9815576D01*
X34112087Y-9815576D01*
X34112437Y-9823928D01*
X34143928Y-10113809D01*
X34145377Y-10122026D01*
X34214931Y-10405197D01*
X34217458Y-10413162D01*
X34323849Y-10684642D01*
X34327405Y-10692199D01*
X34468775Y-10947236D01*
X34473284Y-10954234D01*
X34595137Y-11118308D01*
X34606329Y-11126752D01*
X34618835Y-11119954D01*
X36000980Y-9737810D01*
X36007357Y-9726131D01*
X36737408Y-9726131D01*
X36737539Y-9727966D01*
X36741790Y-9734580D01*
X38126908Y-11119697D01*
X38139348Y-11126490D01*
X38150559Y-11118125D01*
X38264086Y-10967470D01*
X38268647Y-10960499D01*
X38411797Y-10706449D01*
X38415399Y-10698929D01*
X38523690Y-10428182D01*
X38526265Y-10420259D01*
X38597796Y-10137569D01*
X38599303Y-10129361D01*
X38632970Y-9838381D01*
X38633368Y-9832691D01*
X38635930Y-9727855D01*
X38635811Y-9722155D01*
X38616398Y-9429875D01*
X38615295Y-9421606D01*
X38557659Y-9135769D01*
X38555469Y-9127708D01*
X38460536Y-8852002D01*
X38457305Y-8844315D01*
X38326743Y-8583590D01*
X38322513Y-8576381D01*
X38158619Y-8335217D01*
X38153720Y-8328946D01*
X38140323Y-8320628D01*
X38130881Y-8326330D01*
X36745020Y-9712190D01*
X36737408Y-9726131D01*
X36007357Y-9726131D01*
X36008592Y-9723869D01*
X36008461Y-9722034D01*
X36004210Y-9715420D01*
X34619496Y-8330707D01*
X34606296Y-8323499D01*
X34596102Y-8330778D01*
X34535607Y-8404425D01*
X34530752Y-8411206D01*
X34377090Y-8659038D01*
X34373177Y-8666398D01*
X34253647Y-8932364D01*
X34250737Y-8940187D01*
X34167429Y-9219637D01*
X34165584Y-9227758D01*
X34119968Y-9515770D01*
X34119212Y-9524081D01*
X34112087Y-9815576D01*
X-53619000Y-9815576D01*
X-53619000Y-7956592D01*
X34970013Y-7956592D01*
X34977017Y-7969806D01*
X36360190Y-9352980D01*
X36374131Y-9360592D01*
X36375966Y-9360461D01*
X36382580Y-9356210D01*
X37768147Y-7970642D01*
X37775556Y-7957075D01*
X37768814Y-7947420D01*
X37731758Y-7915660D01*
X37725088Y-7910671D01*
X37480536Y-7751856D01*
X37473246Y-7747782D01*
X37209848Y-7622712D01*
X37202080Y-7619636D01*
X36924449Y-7530499D01*
X36916360Y-7528482D01*
X36629360Y-7476842D01*
X36621082Y-7475914D01*
X36329777Y-7462685D01*
X36321455Y-7462859D01*
X36030954Y-7488275D01*
X36022716Y-7489550D01*
X35738140Y-7553160D01*
X35730136Y-7555516D01*
X35456475Y-7656205D01*
X35448859Y-7659595D01*
X35190924Y-7795589D01*
X35183808Y-7799967D01*
X34978409Y-7945937D01*
X34970013Y-7956592D01*
X-53619000Y-7956592D01*
X-53619000Y18408822D01*
X-37028145Y18408822D01*
X-37020326Y18398111D01*
X-36908813Y18310359D01*
X-36901912Y18305634D01*
X-36650937Y18157208D01*
X-36643490Y18153446D01*
X-36375067Y18039507D01*
X-36367199Y18036767D01*
X-36086072Y17959332D01*
X-36077893Y17957653D01*
X-35789002Y17918081D01*
X-35780677Y17917498D01*
X-35489091Y17916481D01*
X-35480758Y17917005D01*
X-35191584Y17954561D01*
X-35183419Y17956178D01*
X-34901742Y18031653D01*
X-34893863Y18034335D01*
X-34624649Y18146398D01*
X-34617177Y18150107D01*
X-34365158Y18296786D01*
X-34358240Y18301452D01*
X-34234256Y18397624D01*
X-34225787Y18409351D01*
X-34232362Y18421151D01*
X-35614190Y19802980D01*
X-35628131Y19810592D01*
X-35629966Y19810461D01*
X-35636580Y19806210D01*
X-37021142Y18421647D01*
X-37028145Y18408822D01*
X-53619000Y18408822D01*
X-53619000Y20084424D01*
X-37887913Y20084424D01*
X-37887563Y20076072D01*
X-37856072Y19786191D01*
X-37854623Y19777974D01*
X-37785069Y19494803D01*
X-37782542Y19486838D01*
X-37676151Y19215358D01*
X-37672595Y19207801D01*
X-37531225Y18952764D01*
X-37526716Y18945766D01*
X-37404863Y18781692D01*
X-37393671Y18773248D01*
X-37381165Y18780046D01*
X-35999020Y20162190D01*
X-35992643Y20173869D01*
X-35262592Y20173869D01*
X-35262461Y20172034D01*
X-35258210Y20165420D01*
X-33873092Y18780303D01*
X-33860652Y18773510D01*
X-33849441Y18781875D01*
X-33735914Y18932530D01*
X-33731353Y18939501D01*
X-33588203Y19193551D01*
X-33584601Y19201071D01*
X-33476310Y19471818D01*
X-33473735Y19479741D01*
X-33402204Y19762431D01*
X-33400697Y19770639D01*
X-33367030Y20061619D01*
X-33366632Y20067309D01*
X-33364070Y20172145D01*
X-33364189Y20177845D01*
X-33383602Y20470125D01*
X-33384705Y20478394D01*
X-33442341Y20764231D01*
X-33444531Y20772292D01*
X-33539464Y21047998D01*
X-33542695Y21055685D01*
X-33673257Y21316410D01*
X-33677487Y21323619D01*
X-33841381Y21564783D01*
X-33846280Y21571054D01*
X-33859677Y21579372D01*
X-33869119Y21573670D01*
X-35254980Y20187810D01*
X-35262592Y20173869D01*
X-35992643Y20173869D01*
X-35991408Y20176131D01*
X-35991539Y20177966D01*
X-35995790Y20184580D01*
X-37380504Y21569293D01*
X-37393704Y21576501D01*
X-37403898Y21569222D01*
X-37464393Y21495575D01*
X-37469248Y21488794D01*
X-37622910Y21240962D01*
X-37626823Y21233602D01*
X-37746353Y20967636D01*
X-37749263Y20959813D01*
X-37832571Y20680363D01*
X-37834416Y20672242D01*
X-37880032Y20384230D01*
X-37880788Y20375919D01*
X-37887913Y20084424D01*
X-53619000Y20084424D01*
X-53619000Y21943408D01*
X-37029987Y21943408D01*
X-37022983Y21930194D01*
X-35639810Y20547020D01*
X-35625869Y20539408D01*
X-35624034Y20539539D01*
X-35617420Y20543790D01*
X-34231853Y21929358D01*
X-34224444Y21942925D01*
X-34231186Y21952580D01*
X-34268242Y21984340D01*
X-34274912Y21989329D01*
X-34519464Y22148144D01*
X-34526754Y22152218D01*
X-34790152Y22277288D01*
X-34797920Y22280364D01*
X-35075551Y22369501D01*
X-35083640Y22371518D01*
X-35370640Y22423158D01*
X-35378918Y22424086D01*
X-35670223Y22437315D01*
X-35678545Y22437141D01*
X-35969046Y22411725D01*
X-35977284Y22410450D01*
X-36261860Y22346840D01*
X-36269864Y22344484D01*
X-36543525Y22243795D01*
X-36551141Y22240405D01*
X-36809076Y22104411D01*
X-36816192Y22100033D01*
X-37021591Y21954063D01*
X-37029987Y21943408D01*
X-53619000Y21943408D01*
X-53619000Y22508822D01*
X35071855Y22508822D01*
X35079674Y22498111D01*
X35191187Y22410359D01*
X35198088Y22405634D01*
X35449063Y22257208D01*
X35456510Y22253446D01*
X35724933Y22139507D01*
X35732801Y22136767D01*
X36013928Y22059332D01*
X36022107Y22057653D01*
X36310998Y22018081D01*
X36319323Y22017498D01*
X36610909Y22016481D01*
X36619242Y22017005D01*
X36908416Y22054561D01*
X36916581Y22056178D01*
X37198258Y22131653D01*
X37206137Y22134335D01*
X37475351Y22246398D01*
X37482823Y22250107D01*
X37734842Y22396786D01*
X37741760Y22401452D01*
X37865744Y22497624D01*
X37874213Y22509351D01*
X37867638Y22521151D01*
X36485810Y23902980D01*
X36471869Y23910592D01*
X36470034Y23910461D01*
X36463420Y23906210D01*
X35078858Y22521647D01*
X35071855Y22508822D01*
X-53619000Y22508822D01*
X-53619000Y24184424D01*
X34212087Y24184424D01*
X34212437Y24176072D01*
X34243928Y23886191D01*
X34245377Y23877974D01*
X34314931Y23594803D01*
X34317458Y23586838D01*
X34423849Y23315358D01*
X34427405Y23307801D01*
X34568775Y23052764D01*
X34573284Y23045766D01*
X34695137Y22881692D01*
X34706329Y22873248D01*
X34718835Y22880046D01*
X36100980Y24262190D01*
X36107357Y24273869D01*
X36837408Y24273869D01*
X36837539Y24272034D01*
X36841790Y24265420D01*
X38226908Y22880303D01*
X38239348Y22873510D01*
X38250559Y22881875D01*
X38364086Y23032530D01*
X38368647Y23039501D01*
X38511797Y23293551D01*
X38515399Y23301071D01*
X38623690Y23571818D01*
X38626265Y23579741D01*
X38697796Y23862431D01*
X38699303Y23870639D01*
X38732970Y24161619D01*
X38733368Y24167309D01*
X38735930Y24272145D01*
X38735811Y24277845D01*
X38716398Y24570125D01*
X38715295Y24578394D01*
X38704119Y24633822D01*
X69246855Y24633822D01*
X69254674Y24623111D01*
X69366187Y24535359D01*
X69373088Y24530634D01*
X69624063Y24382208D01*
X69631510Y24378446D01*
X69899933Y24264507D01*
X69907801Y24261767D01*
X70188928Y24184332D01*
X70197107Y24182653D01*
X70485998Y24143081D01*
X70494323Y24142498D01*
X70785909Y24141481D01*
X70794242Y24142005D01*
X71083416Y24179561D01*
X71091581Y24181178D01*
X71373258Y24256653D01*
X71381137Y24259335D01*
X71650351Y24371398D01*
X71657823Y24375107D01*
X71909842Y24521786D01*
X71916760Y24526452D01*
X72040744Y24622624D01*
X72049213Y24634351D01*
X72042638Y24646151D01*
X70660810Y26027980D01*
X70646869Y26035592D01*
X70645034Y26035461D01*
X70638420Y26031210D01*
X69253858Y24646647D01*
X69246855Y24633822D01*
X38704119Y24633822D01*
X38657659Y24864231D01*
X38655469Y24872292D01*
X38560536Y25147998D01*
X38557305Y25155685D01*
X38426743Y25416410D01*
X38422513Y25423619D01*
X38258619Y25664783D01*
X38253720Y25671054D01*
X38240323Y25679372D01*
X38230881Y25673670D01*
X36845020Y24287810D01*
X36837408Y24273869D01*
X36107357Y24273869D01*
X36108592Y24276131D01*
X36108461Y24277966D01*
X36104210Y24284580D01*
X34719496Y25669293D01*
X34706296Y25676501D01*
X34696102Y25669222D01*
X34635607Y25595575D01*
X34630752Y25588794D01*
X34477090Y25340962D01*
X34473177Y25333602D01*
X34353647Y25067636D01*
X34350737Y25059813D01*
X34267429Y24780363D01*
X34265584Y24772242D01*
X34219968Y24484230D01*
X34219212Y24475919D01*
X34212087Y24184424D01*
X-53619000Y24184424D01*
X-53619000Y26043408D01*
X35070013Y26043408D01*
X35077017Y26030194D01*
X36460190Y24647020D01*
X36474131Y24639408D01*
X36475966Y24639539D01*
X36482580Y24643790D01*
X37868147Y26029358D01*
X37875556Y26042925D01*
X37868814Y26052580D01*
X37831758Y26084340D01*
X37825088Y26089329D01*
X37580536Y26248144D01*
X37573246Y26252218D01*
X37452770Y26309424D01*
X68387087Y26309424D01*
X68387437Y26301072D01*
X68418928Y26011191D01*
X68420377Y26002974D01*
X68489931Y25719803D01*
X68492458Y25711838D01*
X68598849Y25440358D01*
X68602405Y25432801D01*
X68743775Y25177764D01*
X68748284Y25170766D01*
X68870137Y25006692D01*
X68881329Y24998248D01*
X68893835Y25005046D01*
X70275980Y26387190D01*
X70282357Y26398869D01*
X71012408Y26398869D01*
X71012539Y26397034D01*
X71016790Y26390420D01*
X72401908Y25005303D01*
X72414348Y24998510D01*
X72425559Y25006875D01*
X72539086Y25157530D01*
X72543647Y25164501D01*
X72686797Y25418551D01*
X72690399Y25426071D01*
X72798690Y25696818D01*
X72801265Y25704741D01*
X72872796Y25987431D01*
X72874303Y25995639D01*
X72907970Y26286619D01*
X72908368Y26292309D01*
X72910930Y26397145D01*
X72910811Y26402845D01*
X72891398Y26695125D01*
X72890295Y26703394D01*
X72832659Y26989231D01*
X72830469Y26997292D01*
X72735536Y27272998D01*
X72732305Y27280685D01*
X72601743Y27541410D01*
X72597513Y27548619D01*
X72433619Y27789783D01*
X72428720Y27796054D01*
X72415323Y27804372D01*
X72405881Y27798670D01*
X71020020Y26412810D01*
X71012408Y26398869D01*
X70282357Y26398869D01*
X70283592Y26401131D01*
X70283461Y26402966D01*
X70279210Y26409580D01*
X68894496Y27794293D01*
X68881296Y27801501D01*
X68871102Y27794222D01*
X68810607Y27720575D01*
X68805752Y27713794D01*
X68652090Y27465962D01*
X68648177Y27458602D01*
X68528647Y27192636D01*
X68525737Y27184813D01*
X68442429Y26905363D01*
X68440584Y26897242D01*
X68394968Y26609230D01*
X68394212Y26600919D01*
X68387087Y26309424D01*
X37452770Y26309424D01*
X37309848Y26377288D01*
X37302080Y26380364D01*
X37024449Y26469501D01*
X37016360Y26471518D01*
X36729360Y26523158D01*
X36721082Y26524086D01*
X36429777Y26537315D01*
X36421455Y26537141D01*
X36130954Y26511725D01*
X36122716Y26510450D01*
X35838140Y26446840D01*
X35830136Y26444484D01*
X35556475Y26343795D01*
X35548859Y26340405D01*
X35290924Y26204411D01*
X35283808Y26200033D01*
X35078409Y26054063D01*
X35070013Y26043408D01*
X-53619000Y26043408D01*
X-53619000Y28168408D01*
X69245013Y28168408D01*
X69252017Y28155194D01*
X70635190Y26772020D01*
X70649131Y26764408D01*
X70650966Y26764539D01*
X70657580Y26768790D01*
X72043147Y28154358D01*
X72050556Y28167925D01*
X72043814Y28177580D01*
X72006758Y28209340D01*
X72000088Y28214329D01*
X71755536Y28373144D01*
X71748246Y28377218D01*
X71484848Y28502288D01*
X71477080Y28505364D01*
X71199449Y28594501D01*
X71191360Y28596518D01*
X70904360Y28648158D01*
X70896082Y28649086D01*
X70604777Y28662315D01*
X70596455Y28662141D01*
X70305954Y28636725D01*
X70297716Y28635450D01*
X70013140Y28571840D01*
X70005136Y28569484D01*
X69731475Y28468795D01*
X69723859Y28465405D01*
X69465924Y28329411D01*
X69458808Y28325033D01*
X69253409Y28179063D01*
X69245013Y28168408D01*
X-53619000Y28168408D01*
X-53619000Y34917677D01*
X-53617167Y34939089D01*
X-53615519Y34948648D01*
X-53614691Y34953448D01*
X-53612602Y35081530D01*
X-53612362Y35087520D01*
X-53608553Y35147053D01*
X-53607783Y35155065D01*
X-53582645Y35350711D01*
X-53581364Y35358658D01*
X-53573655Y35398383D01*
X-53571870Y35406231D01*
X-53522007Y35597071D01*
X-53519724Y35604792D01*
X-53507013Y35643216D01*
X-53504243Y35650772D01*
X-53430467Y35833698D01*
X-53427220Y35841062D01*
X-53409716Y35877554D01*
X-53406004Y35884697D01*
X-53309512Y36056739D01*
X-53305352Y36063631D01*
X-53283343Y36097590D01*
X-53278753Y36104200D01*
X-53274233Y36110284D01*
X-53161102Y36262570D01*
X-53156133Y36268831D01*
X-53129957Y36299731D01*
X-53124568Y36305694D01*
X-52987735Y36447738D01*
X-52981969Y36453354D01*
X-52952061Y36480673D01*
X-52945968Y36485891D01*
X-52792115Y36609365D01*
X-52785680Y36614199D01*
X-52752577Y36637454D01*
X-52745846Y36641868D01*
X-52740255Y36645284D01*
X-52577536Y36744714D01*
X-52570538Y36748689D01*
X-52557844Y36755372D01*
X-52534723Y36767545D01*
X-52527492Y36771062D01*
X-52347431Y36851627D01*
X-52339998Y36854673D01*
X-52302059Y36868816D01*
X-52294432Y36871384D01*
X-52105621Y36928333D01*
X-52097844Y36930410D01*
X-52039727Y36943959D01*
X-52033856Y36945181D01*
X-51975344Y36955916D01*
X-51952607Y36957985D01*
X-35616113Y36957985D01*
X-35599581Y36956896D01*
X-35569270Y36952884D01*
X-35569266Y36952884D01*
X-35564447Y36952246D01*
X-35559585Y36952357D01*
X-35559581Y36952357D01*
X-35481246Y36954149D01*
X-35378702Y36956495D01*
X-35377015Y36956776D01*
X-35375862Y36956895D01*
X-35370998Y36957020D01*
X-35366217Y36957891D01*
X-35366214Y36957891D01*
X-35353379Y36960229D01*
X-35322842Y36965790D01*
X-35321070Y36966098D01*
X-35268621Y36974838D01*
X-35266265Y36975975D01*
X-35264487Y36976417D01*
X-35179961Y36991810D01*
X-35175521Y36992354D01*
X-35170752Y36991978D01*
X-35161969Y36993812D01*
X-35161967Y36993812D01*
X-35146795Y36996980D01*
X-35115692Y37003474D01*
X-35112628Y37004073D01*
X-35077401Y37010488D01*
X-35073156Y37011906D01*
X-35068797Y37013025D01*
X-35068759Y37012879D01*
X-35066191Y37013573D01*
X-35063319Y37014408D01*
X-35058549Y37015404D01*
X-35028420Y37026754D01*
X-35023940Y37028346D01*
X-34980065Y37043002D01*
X-34980063Y37043003D01*
X-34971552Y37045846D01*
X-34965654Y37049941D01*
X-34958121Y37053238D01*
X-34779284Y37120610D01*
X-34777772Y37121441D01*
X-34776737Y37121929D01*
X-34772191Y37123656D01*
X-34767969Y37126060D01*
X-34767962Y37126063D01*
X-34729770Y37147807D01*
X-34728118Y37148731D01*
X-34691507Y37168852D01*
X-34663344Y37180159D01*
X-25170798Y39716264D01*
X-8187556Y44253643D01*
X-8176201Y44256122D01*
X-8077165Y44272991D01*
X-8066424Y44274348D01*
X-7915412Y44286845D01*
X-7904586Y44287273D01*
X-7793911Y44286879D01*
X-7789479Y44287498D01*
X-7789473Y44287498D01*
X-7765889Y44290790D01*
X-7748472Y44292000D01*
X18077453Y44292000D01*
X18094668Y44290818D01*
G37*
G04 #@! TD.AperFunction*
M02*
