%TF.GenerationSoftware,KiCad,Pcbnew,(5.99.0-8557-g8988e46ab1)*%
%TF.CreationDate,2021-02-27T10:01:51-07:00*%
%TF.ProjectId,SP56,53503536-2e6b-4696-9361-645f70636258,rev?*%
%TF.SameCoordinates,Original*%
%TF.FileFunction,Soldermask,Bot*%
%TF.FilePolarity,Negative*%
%FSLAX46Y46*%
G04 Gerber Fmt 4.6, Leading zero omitted, Abs format (unit mm)*
G04 Created by KiCad (PCBNEW (5.99.0-8557-g8988e46ab1)) date 2021-02-27 10:01:51*
%MOMM*%
%LPD*%
G01*
G04 APERTURE LIST*
G04 Aperture macros list*
%AMRoundRect*
0 Rectangle with rounded corners*
0 $1 Rounding radius*
0 $2 $3 $4 $5 $6 $7 $8 $9 X,Y pos of 4 corners*
0 Add a 4 corners polygon primitive as box body*
4,1,4,$2,$3,$4,$5,$6,$7,$8,$9,$2,$3,0*
0 Add four circle primitives for the rounded corners*
1,1,$1+$1,$2,$3*
1,1,$1+$1,$4,$5*
1,1,$1+$1,$6,$7*
1,1,$1+$1,$8,$9*
0 Add four rect primitives between the rounded corners*
20,1,$1+$1,$2,$3,$4,$5,0*
20,1,$1+$1,$4,$5,$6,$7,0*
20,1,$1+$1,$6,$7,$8,$9,0*
20,1,$1+$1,$8,$9,$2,$3,0*%
%AMRotRect*
0 Rectangle, with rotation*
0 The origin of the aperture is its center*
0 $1 length*
0 $2 width*
0 $3 Rotation angle, in degrees counterclockwise*
0 Add horizontal line*
21,1,$1,$2,0,0,$3*%
G04 Aperture macros list end*
%ADD10R,2.000000X0.800000*%
%ADD11R,1.200000X0.800000*%
%ADD12R,0.800000X2.000000*%
%ADD13R,0.800000X1.200000*%
%ADD14R,2.000000X0.700000*%
%ADD15R,1.200000X0.700000*%
%ADD16R,0.700000X1.200000*%
%ADD17C,4.300000*%
%ADD18C,1.900000*%
%ADD19C,3.400000*%
%ADD20C,2.000000*%
%ADD21R,1.700000X1.700000*%
%ADD22O,1.700000X1.700000*%
%ADD23R,1.000000X1.000000*%
%ADD24C,0.500000*%
%ADD25C,0.600000*%
%ADD26R,2.000000X2.000000*%
%ADD27R,3.200000X2.000000*%
%ADD28R,0.900000X1.200000*%
%ADD29R,1.200000X0.900000*%
%ADD30R,0.800000X0.900000*%
%ADD31RoundRect,0.200000X0.200000X0.275000X-0.200000X0.275000X-0.200000X-0.275000X0.200000X-0.275000X0*%
%ADD32RoundRect,0.150000X-0.512500X-0.150000X0.512500X-0.150000X0.512500X0.150000X-0.512500X0.150000X0*%
%ADD33RoundRect,0.200000X-0.275000X0.200000X-0.275000X-0.200000X0.275000X-0.200000X0.275000X0.200000X0*%
%ADD34RoundRect,0.225000X-0.250000X0.225000X-0.250000X-0.225000X0.250000X-0.225000X0.250000X0.225000X0*%
%ADD35RotRect,0.900000X1.200000X30.000000*%
%ADD36RoundRect,0.200000X0.275000X-0.200000X0.275000X0.200000X-0.275000X0.200000X-0.275000X-0.200000X0*%
%ADD37RoundRect,0.225000X0.250000X-0.225000X0.250000X0.225000X-0.250000X0.225000X-0.250000X-0.225000X0*%
%ADD38RoundRect,0.225000X-0.225000X-0.250000X0.225000X-0.250000X0.225000X0.250000X-0.225000X0.250000X0*%
%ADD39R,1.050000X1.200000*%
%ADD40R,1.550000X0.600000*%
%ADD41R,1.800000X1.200000*%
%ADD42RoundRect,0.200000X-0.200000X-0.275000X0.200000X-0.275000X0.200000X0.275000X-0.200000X0.275000X0*%
%ADD43RoundRect,0.225000X0.225000X0.250000X-0.225000X0.250000X-0.225000X-0.250000X0.225000X-0.250000X0*%
%ADD44C,0.900000*%
%ADD45R,1.524000X0.600000*%
%ADD46R,1.000000X1.500000*%
%ADD47RoundRect,0.150000X0.150000X-0.512500X0.150000X0.512500X-0.150000X0.512500X-0.150000X-0.512500X0*%
%ADD48R,1.700000X0.900000*%
%ADD49RoundRect,0.150000X-0.150000X0.512500X-0.150000X-0.512500X0.150000X-0.512500X0.150000X0.512500X0*%
%ADD50RotRect,0.900000X1.200000X330.000000*%
%ADD51R,0.540000X0.800000*%
%ADD52R,0.300000X0.800000*%
%ADD53C,1.000000*%
G04 APERTURE END LIST*
D10*
%TO.C,U2*%
X327575000Y-10585000D03*
D11*
X329875000Y-11220000D03*
D10*
X327575000Y-11855000D03*
X327575000Y-13125000D03*
D11*
X329875000Y-13760000D03*
D10*
X327575000Y-14395000D03*
D11*
X329875000Y-15030000D03*
D10*
X327575000Y-15665000D03*
D11*
X329875000Y-16300000D03*
D10*
X327575000Y-16935000D03*
X327575000Y-18205000D03*
D11*
X329875000Y-18840000D03*
D10*
X327575000Y-19475000D03*
D11*
X329875000Y-20110000D03*
D10*
X327575000Y-20745000D03*
X327575000Y-22015000D03*
D12*
X329630000Y-24615000D03*
D13*
X330265000Y-22315000D03*
D12*
X330900000Y-24615000D03*
D13*
X331535000Y-22315000D03*
D12*
X332170000Y-24615000D03*
D13*
X332805000Y-22315000D03*
D12*
X333440000Y-24615000D03*
D13*
X334075000Y-22315000D03*
D12*
X334710000Y-24615000D03*
D13*
X335345000Y-22315000D03*
D12*
X335980000Y-24615000D03*
D13*
X336615000Y-22315000D03*
D12*
X337250000Y-24615000D03*
D13*
X337885000Y-22315000D03*
D12*
X338520000Y-24615000D03*
D10*
X340575000Y-22015000D03*
X340575000Y-20745000D03*
X340575000Y-19475000D03*
X340575000Y-18205000D03*
D14*
X340575000Y-16935000D03*
X340575000Y-15665000D03*
X340575000Y-14395000D03*
D10*
X340575000Y-13125000D03*
X340575000Y-11855000D03*
X340575000Y-10585000D03*
%TD*%
%TO.C,U102*%
X108375000Y-10485000D03*
D15*
X110675000Y-11120000D03*
D10*
X108375000Y-11755000D03*
D15*
X110675000Y-12390000D03*
D10*
X108375000Y-13025000D03*
X108375000Y-14295000D03*
D11*
X110675000Y-14930000D03*
D14*
X108375000Y-15565000D03*
D11*
X110675000Y-16200000D03*
D14*
X108375000Y-16835000D03*
D11*
X110675000Y-17470000D03*
D10*
X108375000Y-18105000D03*
D11*
X110675000Y-18740000D03*
D10*
X108375000Y-19375000D03*
D11*
X110675000Y-20010000D03*
D10*
X108375000Y-20645000D03*
X108375000Y-21915000D03*
D12*
X110430000Y-24515000D03*
D13*
X111065000Y-22215000D03*
D12*
X111700000Y-24515000D03*
D13*
X112335000Y-22215000D03*
D12*
X112970000Y-24515000D03*
D13*
X113605000Y-22215000D03*
D12*
X114240000Y-24515000D03*
D13*
X114875000Y-22215000D03*
D12*
X115510000Y-24515000D03*
D16*
X116145000Y-22215000D03*
D12*
X116780000Y-24515000D03*
D16*
X117415000Y-22215000D03*
D12*
X118050000Y-24515000D03*
D13*
X118685000Y-22215000D03*
D12*
X119320000Y-24515000D03*
D10*
X121375000Y-21915000D03*
X121375000Y-20645000D03*
X121375000Y-19375000D03*
X121375000Y-18105000D03*
X121375000Y-16835000D03*
X121375000Y-15565000D03*
X121375000Y-14295000D03*
X121375000Y-13025000D03*
X121375000Y-11755000D03*
X121375000Y-10485000D03*
%TD*%
D17*
%TO.C,H14*%
X98400000Y-77600000D03*
%TD*%
D18*
%TO.C,SW126*%
X121038140Y-86950000D03*
X111511860Y-81450000D03*
D19*
X116275000Y-84200000D03*
D20*
X110094873Y-84904294D03*
X113325000Y-89309550D03*
%TD*%
D21*
%TO.C,SWD/C1*%
X332875000Y-19500000D03*
D22*
X332875000Y-14420000D03*
X332875000Y-11880000D03*
%TD*%
D18*
%TO.C,SW113*%
X129175000Y-47400000D03*
D19*
X123675000Y-47400000D03*
D18*
X118175000Y-47400000D03*
D20*
X118675000Y-51100000D03*
X123675000Y-53300000D03*
%TD*%
D19*
%TO.C,SW2*%
X307175000Y-11000000D03*
D18*
X312675000Y-11000000D03*
X301675000Y-11000000D03*
D20*
X302175000Y-14700000D03*
X307175000Y-16900000D03*
%TD*%
D18*
%TO.C,SW21*%
X283675000Y-60700000D03*
X294675000Y-60700000D03*
D19*
X289175000Y-60700000D03*
D20*
X284175000Y-64400000D03*
X289175000Y-66600000D03*
%TD*%
D18*
%TO.C,SW9*%
X283675000Y-26700000D03*
D19*
X289175000Y-26700000D03*
D18*
X294675000Y-26700000D03*
D20*
X284175000Y-30400000D03*
X289175000Y-32600000D03*
%TD*%
D18*
%TO.C,SW1*%
X319675000Y-13400000D03*
D19*
X325175000Y-13400000D03*
D18*
X330675000Y-13400000D03*
D20*
X320175000Y-17100000D03*
X325175000Y-19300000D03*
%TD*%
D23*
%TO.C,J3*%
X316250000Y-35800000D03*
%TD*%
D19*
%TO.C,SW11*%
X253175000Y-33000000D03*
D18*
X258675000Y-33000000D03*
X247675000Y-33000000D03*
D20*
X248175000Y-36700000D03*
X253175000Y-38900000D03*
%TD*%
D19*
%TO.C,SW119*%
X123675000Y-64400000D03*
D18*
X129175000Y-64400000D03*
X118175000Y-64400000D03*
D20*
X118675000Y-68100000D03*
X123675000Y-70300000D03*
%TD*%
D23*
%TO.C,J2*%
X316250000Y-39400000D03*
%TD*%
D18*
%TO.C,SW106*%
X219175000Y-17000000D03*
D19*
X213675000Y-17000000D03*
D18*
X208175000Y-17000000D03*
D20*
X208675000Y-20700000D03*
X213675000Y-22900000D03*
%TD*%
D18*
%TO.C,SW28*%
X294675000Y-82700000D03*
X283675000Y-82700000D03*
D19*
X289175000Y-82700000D03*
D20*
X284175000Y-86400000D03*
X289175000Y-88600000D03*
%TD*%
D19*
%TO.C,SW127*%
X141575000Y-84000000D03*
D18*
X136075000Y-84000000D03*
X147075000Y-84000000D03*
D20*
X136575000Y-87700000D03*
X141575000Y-89900000D03*
%TD*%
D18*
%TO.C,SW26*%
X337338140Y-81450000D03*
X327811860Y-86950000D03*
D19*
X332575000Y-84200000D03*
D20*
X330094873Y-89904294D03*
X335525000Y-89309550D03*
%TD*%
D19*
%TO.C,SW123*%
X195675000Y-67000000D03*
D18*
X201175000Y-67000000D03*
X190175000Y-67000000D03*
D20*
X190675000Y-70700000D03*
X195675000Y-72900000D03*
%TD*%
D19*
%TO.C,SW115*%
X159675000Y-43700000D03*
D18*
X165175000Y-43700000D03*
X154175000Y-43700000D03*
D20*
X154675000Y-47400000D03*
X159675000Y-49600000D03*
%TD*%
D18*
%TO.C,SW18*%
X229675000Y-51000000D03*
X240675000Y-51000000D03*
D19*
X235175000Y-51000000D03*
D20*
X230175000Y-54700000D03*
X235175000Y-56900000D03*
%TD*%
D18*
%TO.C,SW27*%
X301775000Y-84000000D03*
D19*
X307275000Y-84000000D03*
D18*
X312775000Y-84000000D03*
D20*
X302275000Y-87700000D03*
X307275000Y-89900000D03*
%TD*%
D18*
%TO.C,SW19*%
X330675000Y-64400000D03*
X319675000Y-64400000D03*
D19*
X325175000Y-64400000D03*
D20*
X320175000Y-68100000D03*
X325175000Y-70300000D03*
%TD*%
D18*
%TO.C,SW17*%
X258675000Y-50000000D03*
D19*
X253175000Y-50000000D03*
D18*
X247675000Y-50000000D03*
D20*
X248175000Y-53700000D03*
X253175000Y-55900000D03*
%TD*%
D17*
%TO.C,H10*%
X132575000Y-20725000D03*
%TD*%
D24*
%TO.C,REF\u002A\u002A*%
X225675000Y-70500000D03*
X223175000Y-70500000D03*
X225675000Y-72500000D03*
X225675000Y-71500000D03*
X223175000Y-73500000D03*
X225675000Y-73500000D03*
D25*
X223175000Y-74500000D03*
X225675000Y-69500000D03*
D24*
X223175000Y-71500000D03*
X223175000Y-72500000D03*
D25*
X223175000Y-69500000D03*
X225675000Y-74500000D03*
%TD*%
D18*
%TO.C,SW7*%
X330675000Y-30400000D03*
X319675000Y-30400000D03*
D19*
X325175000Y-30400000D03*
D20*
X320175000Y-34100000D03*
X325175000Y-36300000D03*
%TD*%
D18*
%TO.C,SW103*%
X165175000Y-9700000D03*
D19*
X159675000Y-9700000D03*
D18*
X154175000Y-9700000D03*
D20*
X154675000Y-13400000D03*
X159675000Y-15600000D03*
%TD*%
D17*
%TO.C,H8*%
X275450000Y-77600000D03*
%TD*%
%TO.C,H13*%
X132675000Y-54725000D03*
%TD*%
D18*
%TO.C,SW15*%
X283675000Y-43700000D03*
D19*
X289175000Y-43700000D03*
D18*
X294675000Y-43700000D03*
D20*
X284175000Y-47400000D03*
X289175000Y-49600000D03*
%TD*%
D17*
%TO.C,H11*%
X204675000Y-24825000D03*
%TD*%
D19*
%TO.C,SW104*%
X177675000Y-11000000D03*
D18*
X183175000Y-11000000D03*
X172175000Y-11000000D03*
D20*
X172675000Y-14700000D03*
X177675000Y-16900000D03*
%TD*%
D23*
%TO.C,J104*%
X132700000Y-41600000D03*
%TD*%
D18*
%TO.C,SW20*%
X312675000Y-62000000D03*
X301675000Y-62000000D03*
D19*
X307175000Y-62000000D03*
D20*
X302175000Y-65700000D03*
X307175000Y-67900000D03*
%TD*%
D18*
%TO.C,SW22*%
X265675000Y-62000000D03*
D19*
X271175000Y-62000000D03*
D18*
X276675000Y-62000000D03*
D20*
X266175000Y-65700000D03*
X271175000Y-67900000D03*
%TD*%
D18*
%TO.C,SW16*%
X276675000Y-45000000D03*
D19*
X271175000Y-45000000D03*
D18*
X265675000Y-45000000D03*
D20*
X266175000Y-48700000D03*
X271175000Y-50900000D03*
%TD*%
D18*
%TO.C,SW118*%
X219175000Y-51000000D03*
X208175000Y-51000000D03*
D19*
X213675000Y-51000000D03*
D20*
X208675000Y-54700000D03*
X213675000Y-56900000D03*
%TD*%
D18*
%TO.C,SW10*%
X276675000Y-28000000D03*
D19*
X271175000Y-28000000D03*
D18*
X265675000Y-28000000D03*
D20*
X266175000Y-31700000D03*
X271175000Y-33900000D03*
%TD*%
D19*
%TO.C,SW101*%
X123675000Y-13400000D03*
D18*
X118175000Y-13400000D03*
X129175000Y-13400000D03*
D20*
X128675000Y-9700000D03*
X123675000Y-7500000D03*
%TD*%
D18*
%TO.C,SW23*%
X247675000Y-67000000D03*
X258675000Y-67000000D03*
D19*
X253175000Y-67000000D03*
D20*
X248175000Y-70700000D03*
X253175000Y-72900000D03*
%TD*%
D18*
%TO.C,SW5*%
X258675000Y-16000000D03*
X247675000Y-16000000D03*
D19*
X253175000Y-16000000D03*
D20*
X248175000Y-19700000D03*
X253175000Y-21900000D03*
%TD*%
D24*
%TO.C,REF\u002A\u002A*%
X223175000Y-43000000D03*
D25*
X223175000Y-45000000D03*
X225675000Y-40000000D03*
D24*
X223175000Y-44000000D03*
D25*
X225675000Y-45000000D03*
D24*
X225675000Y-43000000D03*
X225675000Y-44000000D03*
X223175000Y-42000000D03*
X223175000Y-41000000D03*
X225675000Y-41000000D03*
X225675000Y-42000000D03*
D25*
X223175000Y-40000000D03*
%TD*%
D18*
%TO.C,SW110*%
X183175000Y-28000000D03*
X172175000Y-28000000D03*
D19*
X177675000Y-28000000D03*
D20*
X172675000Y-31700000D03*
X177675000Y-33900000D03*
%TD*%
D19*
%TO.C,SW8*%
X307175000Y-28000000D03*
D18*
X312675000Y-28000000D03*
X301675000Y-28000000D03*
D20*
X302175000Y-31700000D03*
X307175000Y-33900000D03*
%TD*%
D18*
%TO.C,SW114*%
X147175000Y-45000000D03*
D19*
X141675000Y-45000000D03*
D18*
X136175000Y-45000000D03*
D20*
X136675000Y-48700000D03*
X141675000Y-50900000D03*
%TD*%
D19*
%TO.C,SW4*%
X271175000Y-11000000D03*
D18*
X276675000Y-11000000D03*
X265675000Y-11000000D03*
D20*
X266175000Y-14700000D03*
X271175000Y-16900000D03*
%TD*%
D17*
%TO.C,H12*%
X204675000Y-59025000D03*
%TD*%
D19*
%TO.C,SW13*%
X325175000Y-47400000D03*
D18*
X319675000Y-47400000D03*
X330675000Y-47400000D03*
D20*
X320175000Y-51100000D03*
X325175000Y-53300000D03*
%TD*%
D17*
%TO.C,H15*%
X129400000Y-77600000D03*
%TD*%
D18*
%TO.C,SW124*%
X219175000Y-68000000D03*
D19*
X213675000Y-68000000D03*
D18*
X208175000Y-68000000D03*
D20*
X208675000Y-71700000D03*
X213675000Y-73900000D03*
%TD*%
D26*
%TO.C,SW125*%
X93975000Y-57000000D03*
D20*
X93975000Y-62000000D03*
X93975000Y-59500000D03*
D27*
X101475000Y-53900000D03*
X101475000Y-65100000D03*
D20*
X108475000Y-62000000D03*
X108475000Y-57000000D03*
%TD*%
D18*
%TO.C,SW108*%
X147175000Y-28000000D03*
X136175000Y-28000000D03*
D19*
X141675000Y-28000000D03*
D20*
X136675000Y-31700000D03*
X141675000Y-33900000D03*
%TD*%
D17*
%TO.C,H7*%
X319450000Y-77600000D03*
%TD*%
D18*
%TO.C,SW128*%
X165175000Y-82700000D03*
D19*
X159675000Y-82700000D03*
D18*
X154175000Y-82700000D03*
D20*
X154675000Y-86400000D03*
X159675000Y-88600000D03*
%TD*%
D18*
%TO.C,SW111*%
X190175000Y-33000000D03*
D19*
X195675000Y-33000000D03*
D18*
X201175000Y-33000000D03*
D20*
X190675000Y-36700000D03*
X195675000Y-38900000D03*
%TD*%
D19*
%TO.C,SW122*%
X177675000Y-62000000D03*
D18*
X183175000Y-62000000D03*
X172175000Y-62000000D03*
D20*
X172675000Y-65700000D03*
X177675000Y-67900000D03*
%TD*%
D19*
%TO.C,SW112*%
X213675000Y-34000000D03*
D18*
X219175000Y-34000000D03*
X208175000Y-34000000D03*
D20*
X208675000Y-37700000D03*
X213675000Y-39900000D03*
%TD*%
D17*
%TO.C,H16*%
X173400000Y-77600000D03*
%TD*%
D19*
%TO.C,SW24*%
X235175000Y-68000000D03*
D18*
X240675000Y-68000000D03*
X229675000Y-68000000D03*
D20*
X230175000Y-71700000D03*
X235175000Y-73900000D03*
%TD*%
D19*
%TO.C,SW12*%
X235175000Y-34000000D03*
D18*
X229675000Y-34000000D03*
X240675000Y-34000000D03*
D20*
X230175000Y-37700000D03*
X235175000Y-39900000D03*
%TD*%
D25*
%TO.C,REF\u002A\u002A*%
X223175000Y-10500000D03*
D24*
X225675000Y-11500000D03*
D25*
X225675000Y-15500000D03*
D24*
X223175000Y-13500000D03*
X223175000Y-12500000D03*
X225675000Y-12500000D03*
X225675000Y-13500000D03*
X223175000Y-14500000D03*
D25*
X223175000Y-15500000D03*
D24*
X223175000Y-11500000D03*
X225675000Y-14500000D03*
D25*
X225675000Y-10500000D03*
%TD*%
D18*
%TO.C,SW120*%
X147175000Y-62000000D03*
D19*
X141675000Y-62000000D03*
D18*
X136175000Y-62000000D03*
D20*
X136675000Y-65700000D03*
X141675000Y-67900000D03*
%TD*%
D18*
%TO.C,SW109*%
X165175000Y-26700000D03*
X154175000Y-26700000D03*
D19*
X159675000Y-26700000D03*
D20*
X154675000Y-30400000D03*
X159675000Y-32600000D03*
%TD*%
D19*
%TO.C,SW105*%
X195675000Y-16000000D03*
D18*
X190175000Y-16000000D03*
X201175000Y-16000000D03*
D20*
X190675000Y-19700000D03*
X195675000Y-21900000D03*
%TD*%
D18*
%TO.C,SW107*%
X129175000Y-30400000D03*
X118175000Y-30400000D03*
D19*
X123675000Y-30400000D03*
D20*
X118675000Y-34100000D03*
X123675000Y-36300000D03*
%TD*%
D18*
%TO.C,SW3*%
X283675000Y-9700000D03*
D19*
X289175000Y-9700000D03*
D18*
X294675000Y-9700000D03*
D20*
X284175000Y-13400000D03*
X289175000Y-15600000D03*
%TD*%
D18*
%TO.C,SW6*%
X229675000Y-17000000D03*
D19*
X235175000Y-17000000D03*
D18*
X240675000Y-17000000D03*
D20*
X230175000Y-20700000D03*
X235175000Y-22900000D03*
%TD*%
D18*
%TO.C,SW14*%
X301675000Y-45000000D03*
D19*
X307175000Y-45000000D03*
D18*
X312675000Y-45000000D03*
D20*
X302175000Y-48700000D03*
X307175000Y-50900000D03*
%TD*%
D23*
%TO.C,J103*%
X132700000Y-38000000D03*
%TD*%
D18*
%TO.C,SW117*%
X201175000Y-50000000D03*
D19*
X195675000Y-50000000D03*
D18*
X190175000Y-50000000D03*
D20*
X190675000Y-53700000D03*
X195675000Y-55900000D03*
%TD*%
D18*
%TO.C,SW102*%
X136175000Y-11000000D03*
D19*
X141675000Y-11000000D03*
D18*
X147175000Y-11000000D03*
D20*
X136675000Y-14700000D03*
X141675000Y-16900000D03*
%TD*%
D17*
%TO.C,H9*%
X98400000Y-18600000D03*
%TD*%
D18*
%TO.C,SW116*%
X172175000Y-45000000D03*
X183175000Y-45000000D03*
D19*
X177675000Y-45000000D03*
D20*
X172675000Y-48700000D03*
X177675000Y-50900000D03*
%TD*%
D18*
%TO.C,SW121*%
X154175000Y-60700000D03*
D19*
X159675000Y-60700000D03*
D18*
X165175000Y-60700000D03*
D20*
X154675000Y-64400000D03*
X159675000Y-66600000D03*
%TD*%
D26*
%TO.C,SW25*%
X354875000Y-62000000D03*
D20*
X354875000Y-57000000D03*
X354875000Y-59500000D03*
D27*
X347375000Y-65100000D03*
X347375000Y-53900000D03*
D20*
X340375000Y-57000000D03*
X340375000Y-62000000D03*
%TD*%
D28*
%TO.C,D103*%
X158025000Y-4950000D03*
X161325000Y-4950000D03*
%TD*%
D29*
%TO.C,D125*%
X112175000Y-64649999D03*
X112175000Y-61349999D03*
%TD*%
D30*
%TO.C,Q1*%
X353625000Y-29500000D03*
X351725000Y-29500000D03*
X352675000Y-27500000D03*
%TD*%
D31*
%TO.C,R105*%
X118325000Y-38400000D03*
X116675000Y-38400000D03*
%TD*%
D32*
%TO.C,U101*%
X102162500Y-29150000D03*
X102162500Y-28200000D03*
X102162500Y-27250000D03*
X104437500Y-27250000D03*
X104437500Y-29150000D03*
%TD*%
D23*
%TO.C,D33*%
X351400000Y-25500000D03*
X353900000Y-25500000D03*
%TD*%
D33*
%TO.C,R101*%
X90175000Y-10875000D03*
X90175000Y-12525000D03*
%TD*%
D28*
%TO.C,D101*%
X127635955Y-6362500D03*
X130935955Y-6362500D03*
%TD*%
%TO.C,D120*%
X140025000Y-57300000D03*
X143325000Y-57300000D03*
%TD*%
%TO.C,D109*%
X158025000Y-21950000D03*
X161325000Y-21950000D03*
%TD*%
D34*
%TO.C,C101*%
X100400000Y-27425000D03*
X100400000Y-28975000D03*
%TD*%
D35*
%TO.C,D26*%
X328718301Y-80975000D03*
X331576185Y-79325000D03*
%TD*%
D28*
%TO.C,D112*%
X211975000Y-29250000D03*
X215275000Y-29250000D03*
%TD*%
%TO.C,D127*%
X140025000Y-79200000D03*
X143325000Y-79200000D03*
%TD*%
D33*
%TO.C,R103*%
X93600000Y-27675000D03*
X93600000Y-29325000D03*
%TD*%
D28*
%TO.C,D116*%
X175975000Y-40250000D03*
X179275000Y-40250000D03*
%TD*%
%TO.C,D118*%
X211975000Y-46250000D03*
X215275000Y-46250000D03*
%TD*%
D36*
%TO.C,R9*%
X355250000Y-29325000D03*
X355250000Y-27675000D03*
%TD*%
D28*
%TO.C,D14*%
X305325000Y-40200000D03*
X308625000Y-40200000D03*
%TD*%
D17*
%TO.C,H1*%
X316175000Y-54725000D03*
%TD*%
D28*
%TO.C,D111*%
X194025000Y-28250000D03*
X197325000Y-28250000D03*
%TD*%
%TO.C,D105*%
X194025000Y-11250000D03*
X197325000Y-11250000D03*
%TD*%
%TO.C,D110*%
X175975000Y-23250000D03*
X179275000Y-23250000D03*
%TD*%
%TO.C,D117*%
X194025000Y-45250000D03*
X197325000Y-45250000D03*
%TD*%
D37*
%TO.C,C3*%
X349075000Y-28975000D03*
X349075000Y-27425000D03*
%TD*%
D28*
%TO.C,D121*%
X158225000Y-56000000D03*
X161525000Y-56000000D03*
%TD*%
%TO.C,D11*%
X251525000Y-28250000D03*
X254825000Y-28250000D03*
%TD*%
D38*
%TO.C,C4*%
X351937500Y-31000000D03*
X353487500Y-31000000D03*
%TD*%
D17*
%TO.C,H3*%
X244175000Y-59025000D03*
%TD*%
D31*
%TO.C,R2*%
X346375000Y-30700000D03*
X344725000Y-30700000D03*
%TD*%
D28*
%TO.C,D19*%
X323525000Y-59650000D03*
X326825000Y-59650000D03*
%TD*%
D39*
%TO.C,Y101*%
X117860955Y-26700000D03*
X119510955Y-26700000D03*
%TD*%
D28*
%TO.C,D27*%
X305525000Y-79200000D03*
X308825000Y-79200000D03*
%TD*%
D31*
%TO.C,R102*%
X104125000Y-30700000D03*
X102475000Y-30700000D03*
%TD*%
D33*
%TO.C,R6*%
X358675000Y-10875000D03*
X358675000Y-12525000D03*
%TD*%
D28*
%TO.C,D16*%
X269575000Y-40250000D03*
X272875000Y-40250000D03*
%TD*%
%TO.C,D6*%
X233525000Y-12250000D03*
X236825000Y-12250000D03*
%TD*%
D39*
%TO.C,Y1*%
X339625000Y-26800000D03*
X341275000Y-26800000D03*
%TD*%
D28*
%TO.C,D122*%
X175975000Y-57250000D03*
X179275000Y-57250000D03*
%TD*%
%TO.C,D21*%
X287325000Y-56000000D03*
X290625000Y-56000000D03*
%TD*%
%TO.C,D22*%
X269575000Y-57250000D03*
X272875000Y-57250000D03*
%TD*%
D38*
%TO.C,C105*%
X106425000Y-30700000D03*
X107975000Y-30700000D03*
%TD*%
D28*
%TO.C,D17*%
X251525000Y-45250000D03*
X254825000Y-45250000D03*
%TD*%
D37*
%TO.C,C2*%
X342475000Y-30175000D03*
X342475000Y-28625000D03*
%TD*%
D40*
%TO.C,J106*%
X110000000Y-28650000D03*
X110000000Y-29650000D03*
D41*
X113875000Y-27350000D03*
X113875000Y-30950000D03*
%TD*%
D28*
%TO.C,D2*%
X305325000Y-6300000D03*
X308625000Y-6300000D03*
%TD*%
%TO.C,D7*%
X323575000Y-25650000D03*
X326875000Y-25650000D03*
%TD*%
D42*
%TO.C,R108*%
X102775000Y-13250000D03*
X104425000Y-13250000D03*
%TD*%
D28*
%TO.C,D113*%
X122025000Y-42650000D03*
X125325000Y-42650000D03*
%TD*%
D43*
%TO.C,C103*%
X123035955Y-26962500D03*
X121485955Y-26962500D03*
%TD*%
D33*
%TO.C,R106*%
X106200000Y-10875000D03*
X106200000Y-12525000D03*
%TD*%
D42*
%TO.C,R4*%
X330525000Y-36800000D03*
X332175000Y-36800000D03*
%TD*%
D28*
%TO.C,D10*%
X269575000Y-23250000D03*
X272875000Y-23250000D03*
%TD*%
%TO.C,D123*%
X193975000Y-62250000D03*
X197275000Y-62250000D03*
%TD*%
%TO.C,D12*%
X233575000Y-29250000D03*
X236875000Y-29250000D03*
%TD*%
D40*
%TO.C,J9*%
X338750000Y-29700000D03*
X338750000Y-28700000D03*
D41*
X334875000Y-31000000D03*
X334875000Y-27400000D03*
%TD*%
D44*
%TO.C,BATT101*%
X90550000Y-17700000D03*
X90550000Y-20700000D03*
D45*
X92800000Y-21450000D03*
X92800000Y-18450000D03*
X92800000Y-16950000D03*
D16*
X89400000Y-22800000D03*
X89400000Y-15600000D03*
X91700000Y-15600000D03*
X91700000Y-22800000D03*
%TD*%
D37*
%TO.C,C107*%
X97175000Y-58075000D03*
X97175000Y-56525000D03*
%TD*%
D21*
%TO.C,SWD/C101*%
X113900000Y-19900000D03*
D22*
X113900000Y-14820000D03*
X113900000Y-12280000D03*
%TD*%
D28*
%TO.C,D114*%
X140225000Y-40200000D03*
X143525000Y-40200000D03*
%TD*%
%TO.C,D28*%
X287525000Y-77900000D03*
X290825000Y-77900000D03*
%TD*%
%TO.C,D20*%
X305525000Y-57300000D03*
X308825000Y-57300000D03*
%TD*%
D46*
%TO.C,BattJumper1*%
X331900000Y-33100000D03*
X330600000Y-33100000D03*
%TD*%
D47*
%TO.C,U3*%
X345225000Y-25300000D03*
X344275000Y-25300000D03*
X343325000Y-25300000D03*
X343325000Y-23025000D03*
X345225000Y-23025000D03*
%TD*%
D42*
%TO.C,R8*%
X355450000Y-13100000D03*
X357100000Y-13100000D03*
%TD*%
D28*
%TO.C,D4*%
X269525000Y-6250000D03*
X272825000Y-6250000D03*
%TD*%
D31*
%TO.C,R107*%
X93762500Y-13600000D03*
X92112500Y-13600000D03*
%TD*%
D28*
%TO.C,D115*%
X158025000Y-38950000D03*
X161325000Y-38950000D03*
%TD*%
D34*
%TO.C,C5*%
X346875000Y-23525000D03*
X346875000Y-25075000D03*
%TD*%
D48*
%TO.C,RESET101*%
X90700000Y-28500000D03*
X90700000Y-25100000D03*
%TD*%
D28*
%TO.C,D18*%
X233575000Y-46250000D03*
X236875000Y-46250000D03*
%TD*%
D37*
%TO.C,C106*%
X97175000Y-62375000D03*
X97175000Y-60825000D03*
%TD*%
D28*
%TO.C,D124*%
X212025000Y-63250000D03*
X215325000Y-63250000D03*
%TD*%
D17*
%TO.C,H6*%
X244175000Y-24825000D03*
%TD*%
D28*
%TO.C,D1*%
X322725000Y-8650000D03*
X326025000Y-8650000D03*
%TD*%
%TO.C,D128*%
X158025000Y-77900000D03*
X161325000Y-77900000D03*
%TD*%
D23*
%TO.C,D133*%
X97450000Y-25500000D03*
X94950000Y-25500000D03*
%TD*%
D33*
%TO.C,R1*%
X343275000Y-10875000D03*
X343275000Y-12525000D03*
%TD*%
D28*
%TO.C,D9*%
X287525000Y-21950000D03*
X290825000Y-21950000D03*
%TD*%
D49*
%TO.C,U103*%
X106200000Y-26662500D03*
X107150000Y-26662500D03*
X108100000Y-26662500D03*
X108100000Y-28937500D03*
X106200000Y-28937500D03*
%TD*%
D42*
%TO.C,R104*%
X116675000Y-36800000D03*
X118325000Y-36800000D03*
%TD*%
D31*
%TO.C,R7*%
X346387500Y-13100000D03*
X344737500Y-13100000D03*
%TD*%
D17*
%TO.C,H5*%
X316275000Y-20725000D03*
%TD*%
D28*
%TO.C,D8*%
X305625000Y-23200000D03*
X308925000Y-23200000D03*
%TD*%
D29*
%TO.C,D25*%
X336675000Y-64649999D03*
X336675000Y-61349999D03*
%TD*%
D28*
%TO.C,D108*%
X139925000Y-23200000D03*
X143225000Y-23200000D03*
%TD*%
%TO.C,D106*%
X212025000Y-12250000D03*
X215325000Y-12250000D03*
%TD*%
D48*
%TO.C,RESET1*%
X358150000Y-25100000D03*
X358150000Y-28500000D03*
%TD*%
D34*
%TO.C,C7*%
X351375000Y-60925000D03*
X351375000Y-62475000D03*
%TD*%
D43*
%TO.C,C102*%
X96912500Y-31000000D03*
X95362500Y-31000000D03*
%TD*%
D28*
%TO.C,D15*%
X287525000Y-38950000D03*
X290825000Y-38950000D03*
%TD*%
%TO.C,D3*%
X287525000Y-4950000D03*
X290825000Y-4950000D03*
%TD*%
%TO.C,D5*%
X251525000Y-11250000D03*
X254825000Y-11250000D03*
%TD*%
D17*
%TO.C,H2*%
X350450000Y-77600000D03*
%TD*%
D46*
%TO.C,BattJumper101*%
X117750000Y-44550000D03*
X119050000Y-44550000D03*
%TD*%
D28*
%TO.C,D23*%
X251575000Y-62250000D03*
X254875000Y-62250000D03*
%TD*%
D50*
%TO.C,D126*%
X117273815Y-79325000D03*
X120131699Y-80975000D03*
%TD*%
D32*
%TO.C,U1*%
X344412500Y-29150000D03*
X344412500Y-28200000D03*
X344412500Y-27250000D03*
X346687500Y-27250000D03*
X346687500Y-29150000D03*
%TD*%
D28*
%TO.C,D102*%
X140225000Y-6300000D03*
X143525000Y-6300000D03*
%TD*%
D43*
%TO.C,C104*%
X123060955Y-25400000D03*
X121510955Y-25400000D03*
%TD*%
D51*
%TO.C,J101*%
X101175000Y-11975000D03*
X94775000Y-11975000D03*
X95575000Y-11975000D03*
X100375000Y-11975000D03*
D52*
X96725000Y-11975000D03*
X97725000Y-11975000D03*
X98225000Y-11975000D03*
X99225000Y-11975000D03*
X99725000Y-11975000D03*
X98725000Y-11975000D03*
X97225000Y-11975000D03*
X96217000Y-11975000D03*
D53*
X92399700Y-7680100D03*
X103550300Y-7667400D03*
X92399400Y-10694000D03*
X103550300Y-11210700D03*
X103550000Y-11456000D03*
X92400000Y-6460900D03*
X103550300Y-7032400D03*
X92399400Y-10956700D03*
X103550000Y-10694000D03*
X92399700Y-6740300D03*
X92399700Y-11210700D03*
X103550600Y-6448200D03*
X92399400Y-11456000D03*
X103550300Y-6727600D03*
X103550000Y-10956700D03*
X103550300Y-7375300D03*
X92399700Y-7045100D03*
X92399700Y-7388000D03*
%TD*%
D17*
%TO.C,H4*%
X350450000Y-18600000D03*
%TD*%
D30*
%TO.C,Q102*%
X95225000Y-27500000D03*
X97125000Y-27500000D03*
X96175000Y-29500000D03*
%TD*%
D28*
%TO.C,D119*%
X122025000Y-59650000D03*
X125325000Y-59650000D03*
%TD*%
D34*
%TO.C,C6*%
X351375000Y-56525000D03*
X351375000Y-58075000D03*
%TD*%
D44*
%TO.C,BATT1*%
X358300000Y-20700000D03*
X358300000Y-17700000D03*
D45*
X356050000Y-16950000D03*
X356050000Y-19950000D03*
X356050000Y-21450000D03*
D16*
X359450000Y-15600000D03*
X359450000Y-22800000D03*
X357150000Y-22800000D03*
X357150000Y-15600000D03*
%TD*%
D28*
%TO.C,D107*%
X124750000Y-26800000D03*
X128050000Y-26800000D03*
%TD*%
D31*
%TO.C,R5*%
X332175000Y-38400000D03*
X330525000Y-38400000D03*
%TD*%
D37*
%TO.C,C1*%
X340975000Y-30175000D03*
X340975000Y-28625000D03*
%TD*%
D51*
%TO.C,J1*%
X354075000Y-11975000D03*
X347675000Y-11975000D03*
X348475000Y-11975000D03*
X353275000Y-11975000D03*
D52*
X349625000Y-11975000D03*
X350625000Y-11975000D03*
X351125000Y-11975000D03*
X352125000Y-11975000D03*
X352625000Y-11975000D03*
X351625000Y-11975000D03*
X350125000Y-11975000D03*
X349117000Y-11975000D03*
D53*
X345299700Y-7680100D03*
X356450300Y-7667400D03*
X345299400Y-10694000D03*
X356450300Y-11210700D03*
X356450000Y-11456000D03*
X345300000Y-6460900D03*
X356450300Y-7032400D03*
X345299400Y-10956700D03*
X356450000Y-10694000D03*
X345299700Y-6740300D03*
X345299700Y-11210700D03*
X356450600Y-6448200D03*
X345299400Y-11456000D03*
X356450300Y-6727600D03*
X356450000Y-10956700D03*
X356450300Y-7375300D03*
X345299700Y-7045100D03*
X345299700Y-7388000D03*
%TD*%
D28*
%TO.C,D13*%
X323525000Y-42650000D03*
X326825000Y-42650000D03*
%TD*%
%TO.C,D24*%
X233525000Y-63250000D03*
X236825000Y-63250000D03*
%TD*%
%TO.C,D104*%
X176025000Y-6250000D03*
X179325000Y-6250000D03*
%TD*%
M02*
