M48
; DRILL file {KiCad (5.99.0-8557-g8988e46ab1)} date Tuesday, February 23, 2021 at 06:20:17 PM
; FORMAT={-:-/ absolute / inch / decimal}
; #@! TF.CreationDate,2021-02-23T18:20:17-07:00
; #@! TF.GenerationSoftware,Kicad,Pcbnew,(5.99.0-8557-g8988e46ab1)
; #@! TF.FileFunction,NonPlated,1,2,NPTH
FMAT,2
INCH
T1C0.0197
T2C0.0236
T3C0.0354
T4C0.0748
T5C0.1339
T6C0.1693
%
G90
G05
T1
X8.7864Y-0.4528
X8.7864Y-0.4921
X8.7864Y-0.5315
X8.7864Y-0.5709
X8.7864Y-1.6142
X8.7864Y-1.6535
X8.7864Y-1.6929
X8.7864Y-1.7323
X8.7864Y-2.7756
X8.7864Y-2.815
X8.7864Y-2.8543
X8.7864Y-2.8937
X8.8652Y-0.4528
X8.8652Y-0.4921
X8.8652Y-0.5315
X8.8652Y-0.5709
X8.8652Y-1.6142
X8.8652Y-1.6535
X8.8652Y-1.6929
X8.8652Y-1.7323
X8.8652Y-2.7756
X8.8652Y-2.815
X8.8652Y-2.8543
X8.8652Y-2.8937
T2
X8.7864Y-0.4134
X8.7864Y-0.6102
X8.7864Y-1.5748
X8.7864Y-1.7717
X8.7864Y-2.7362
X8.7864Y-2.9331
X8.8652Y-0.4134
X8.8652Y-0.6102
X8.8652Y-1.5748
X8.8652Y-1.7717
X8.8652Y-2.7362
X8.8652Y-2.9331
T3
X3.565Y-0.6969
X3.565Y-0.815
X14.0866Y-0.6969
X14.0866Y-0.815
T4
X4.3902Y-3.2067
X4.6526Y-0.5276
X4.6526Y-1.1969
X4.6526Y-1.8661
X4.6526Y-2.5354
X4.7653Y-3.4232
X5.0856Y-0.5276
X5.0856Y-1.1969
X5.0856Y-1.8661
X5.0856Y-2.5354
X5.3573Y-3.3071
X5.3612Y-0.4331
X5.3612Y-1.1024
X5.3612Y-1.7717
X5.3612Y-2.4409
X5.7904Y-3.3071
X5.7943Y-0.4331
X5.7943Y-1.1024
X5.7943Y-1.7717
X5.7943Y-2.4409
X6.0699Y-0.3819
X6.0699Y-1.0512
X6.0699Y-1.7205
X6.0699Y-2.3898
X6.0699Y-3.2559
X6.503Y-0.3819
X6.503Y-1.0512
X6.503Y-1.7205
X6.503Y-2.3898
X6.503Y-3.2559
X6.7785Y-0.4331
X6.7785Y-1.1024
X6.7785Y-1.7717
X6.7785Y-2.4409
X7.2116Y-0.4331
X7.2116Y-1.1024
X7.2116Y-1.7717
X7.2116Y-2.4409
X7.4872Y-0.6299
X7.4872Y-1.2992
X7.4872Y-1.9685
X7.4872Y-2.6378
X7.9203Y-0.6299
X7.9203Y-1.2992
X7.9203Y-1.9685
X7.9203Y-2.6378
X8.1959Y-0.6693
X8.1959Y-1.3386
X8.1959Y-2.0079
X8.1959Y-2.6772
X8.6289Y-0.6693
X8.6289Y-1.3386
X8.6289Y-2.0079
X8.6289Y-2.6772
X9.0226Y-0.6693
X9.0226Y-1.3386
X9.0226Y-2.0079
X9.0226Y-2.6772
X9.4557Y-0.6693
X9.4557Y-1.3386
X9.4557Y-2.0079
X9.4557Y-2.6772
X9.7313Y-0.6299
X9.7313Y-1.2992
X9.7313Y-1.9685
X9.7313Y-2.6378
X10.1644Y-0.6299
X10.1644Y-1.2992
X10.1644Y-1.9685
X10.1644Y-2.6378
X10.44Y-0.4331
X10.44Y-1.1024
X10.44Y-1.7717
X10.44Y-2.4409
X10.873Y-0.4331
X10.873Y-1.1024
X10.873Y-1.7717
X10.873Y-2.4409
X11.1486Y-0.3819
X11.1486Y-1.0512
X11.1486Y-1.7205
X11.1486Y-2.3898
X11.1486Y-3.2559
X11.5817Y-0.3819
X11.5817Y-1.0512
X11.5817Y-1.7205
X11.5817Y-2.3898
X11.5817Y-3.2559
X11.8573Y-0.4331
X11.8573Y-1.1024
X11.8573Y-1.7717
X11.8573Y-2.4409
X11.8612Y-3.3071
X12.2904Y-0.4331
X12.2904Y-1.1024
X12.2904Y-1.7717
X12.2904Y-2.4409
X12.2943Y-3.3071
X12.5659Y-0.5276
X12.5659Y-1.1969
X12.5659Y-1.8661
X12.5659Y-2.5354
X12.8863Y-3.4232
X12.999Y-0.5276
X12.999Y-1.1969
X12.999Y-1.8661
X12.999Y-2.5354
X13.2613Y-3.2067
T5
X4.5778Y-3.315
X4.8691Y-0.5276
X4.8691Y-1.1969
X4.8691Y-1.8661
X4.8691Y-2.5354
X5.5738Y-3.3071
X5.5778Y-0.4331
X5.5778Y-1.1024
X5.5778Y-1.7717
X5.5778Y-2.4409
X6.2864Y-0.3819
X6.2864Y-1.0512
X6.2864Y-1.7205
X6.2864Y-2.3898
X6.2864Y-3.2559
X6.9951Y-0.4331
X6.9951Y-1.1024
X6.9951Y-1.7717
X6.9951Y-2.4409
X7.7037Y-0.6299
X7.7037Y-1.2992
X7.7037Y-1.9685
X7.7037Y-2.6378
X8.4124Y-0.6693
X8.4124Y-1.3386
X8.4124Y-2.0079
X8.4124Y-2.6772
X9.2392Y-0.6693
X9.2392Y-1.3386
X9.2392Y-2.0079
X9.2392Y-2.6772
X9.9478Y-0.6299
X9.9478Y-1.2992
X9.9478Y-1.9685
X9.9478Y-2.6378
X10.6565Y-0.4331
X10.6565Y-1.1024
X10.6565Y-1.7717
X10.6565Y-2.4409
X11.3652Y-0.3819
X11.3652Y-1.0512
X11.3652Y-1.7205
X11.3652Y-2.3898
X11.3652Y-3.2559
X12.0738Y-0.4331
X12.0738Y-1.1024
X12.0738Y-1.7717
X12.0738Y-2.4409
X12.0778Y-3.3071
X12.7825Y-0.5276
X12.7825Y-1.1969
X12.7825Y-1.8661
X12.7825Y-2.5354
X13.0738Y-3.315
T6
X3.874Y-0.7323
X3.874Y-3.0551
X5.0945Y-3.0551
X5.2195Y-0.8159
X5.2234Y-2.1545
X6.8268Y-3.0551
X8.0581Y-0.9774
X8.0581Y-2.3238
X9.5935Y-0.9774
X9.5935Y-2.3238
X10.8248Y-3.0551
X12.4281Y-2.1545
X12.4321Y-0.8159
X12.5571Y-3.0551
X13.7776Y-0.7323
X13.7776Y-3.0551
T0
M30
