%TF.GenerationSoftware,KiCad,Pcbnew,(5.99.0-8557-g8988e46ab1)*%
%TF.CreationDate,2021-02-27T10:01:51-07:00*%
%TF.ProjectId,SP56,53503536-2e6b-4696-9361-645f70636258,rev?*%
%TF.SameCoordinates,Original*%
%TF.FileFunction,Legend,Bot*%
%TF.FilePolarity,Positive*%
%FSLAX46Y46*%
G04 Gerber Fmt 4.6, Leading zero omitted, Abs format (unit mm)*
G04 Created by KiCad (PCBNEW (5.99.0-8557-g8988e46ab1)) date 2021-02-27 10:01:51*
%MOMM*%
%LPD*%
G01*
G04 APERTURE LIST*
%ADD10C,0.150000*%
%ADD11C,0.300000*%
%ADD12C,0.200000*%
%ADD13C,0.152000*%
%ADD14C,0.125000*%
%ADD15C,0.015000*%
%ADD16C,0.254000*%
%ADD17C,0.120000*%
G04 APERTURE END LIST*
D10*
X115232142Y-27635714D02*
X117517857Y-27635714D01*
D11*
X130878571Y-39492857D02*
X130664285Y-39564285D01*
X130592857Y-39635714D01*
X130521428Y-39778571D01*
X130521428Y-39992857D01*
X130592857Y-40135714D01*
X130664285Y-40207142D01*
X130807142Y-40278571D01*
X131378571Y-40278571D01*
X131378571Y-38778571D01*
X130878571Y-38778571D01*
X130735714Y-38850000D01*
X130664285Y-38921428D01*
X130592857Y-39064285D01*
X130592857Y-39207142D01*
X130664285Y-39350000D01*
X130735714Y-39421428D01*
X130878571Y-39492857D01*
X131378571Y-39492857D01*
X129950000Y-39850000D02*
X129235714Y-39850000D01*
X130092857Y-40278571D02*
X129592857Y-38778571D01*
X129092857Y-40278571D01*
X128807142Y-38778571D02*
X127950000Y-38778571D01*
X128378571Y-40278571D02*
X128378571Y-38778571D01*
X127664285Y-38778571D02*
X126807142Y-38778571D01*
X127235714Y-40278571D02*
X127235714Y-38778571D01*
D10*
X354353571Y-17630952D02*
X354401190Y-17773809D01*
X354448809Y-17821428D01*
X354544047Y-17869047D01*
X354686904Y-17869047D01*
X354782142Y-17821428D01*
X354829761Y-17773809D01*
X354877380Y-17678571D01*
X354877380Y-17297619D01*
X353877380Y-17297619D01*
X353877380Y-17630952D01*
X353925000Y-17726190D01*
X353972619Y-17773809D01*
X354067857Y-17821428D01*
X354163095Y-17821428D01*
X354258333Y-17773809D01*
X354305952Y-17726190D01*
X354353571Y-17630952D01*
X354353571Y-17297619D01*
X354591666Y-18250000D02*
X354591666Y-18726190D01*
X354877380Y-18154761D02*
X353877380Y-18488095D01*
X354877380Y-18821428D01*
X353877380Y-19011904D02*
X353877380Y-19583333D01*
X354877380Y-19297619D02*
X353877380Y-19297619D01*
X353877380Y-19773809D02*
X353877380Y-20345238D01*
X354877380Y-20059523D02*
X353877380Y-20059523D01*
X261913214Y-11642857D02*
X262722738Y-11642857D01*
X262817976Y-11595238D01*
X262865595Y-11547619D01*
X262913214Y-11452380D01*
X262913214Y-11309523D01*
X262865595Y-11214285D01*
X262532261Y-11642857D02*
X262579880Y-11547619D01*
X262579880Y-11357142D01*
X262532261Y-11261904D01*
X262484642Y-11214285D01*
X262389404Y-11166666D01*
X262103690Y-11166666D01*
X262008452Y-11214285D01*
X261960833Y-11261904D01*
X261913214Y-11357142D01*
X261913214Y-11547619D01*
X261960833Y-11642857D01*
X262579880Y-12119047D02*
X261913214Y-12119047D01*
X261579880Y-12119047D02*
X261627500Y-12071428D01*
X261675119Y-12119047D01*
X261627500Y-12166666D01*
X261579880Y-12119047D01*
X261675119Y-12119047D01*
X261913214Y-12452380D02*
X261913214Y-12833333D01*
X261579880Y-12595238D02*
X262437023Y-12595238D01*
X262532261Y-12642857D01*
X262579880Y-12738095D01*
X262579880Y-12833333D01*
X262579880Y-13166666D02*
X261579880Y-13166666D01*
X262579880Y-13595238D02*
X262056071Y-13595238D01*
X261960833Y-13547619D01*
X261913214Y-13452380D01*
X261913214Y-13309523D01*
X261960833Y-13214285D01*
X262008452Y-13166666D01*
X261913214Y-14500000D02*
X262579880Y-14500000D01*
X261913214Y-14071428D02*
X262437023Y-14071428D01*
X262532261Y-14119047D01*
X262579880Y-14214285D01*
X262579880Y-14357142D01*
X262532261Y-14452380D01*
X262484642Y-14500000D01*
X262579880Y-14976190D02*
X261579880Y-14976190D01*
X261960833Y-14976190D02*
X261913214Y-15071428D01*
X261913214Y-15261904D01*
X261960833Y-15357142D01*
X262008452Y-15404761D01*
X262103690Y-15452380D01*
X262389404Y-15452380D01*
X262484642Y-15404761D01*
X262532261Y-15357142D01*
X262579880Y-15261904D01*
X262579880Y-15071428D01*
X262532261Y-14976190D01*
X262484642Y-15880952D02*
X262532261Y-15928571D01*
X262579880Y-15880952D01*
X262532261Y-15833333D01*
X262484642Y-15880952D01*
X262579880Y-15880952D01*
X262532261Y-16785714D02*
X262579880Y-16690476D01*
X262579880Y-16500000D01*
X262532261Y-16404761D01*
X262484642Y-16357142D01*
X262389404Y-16309523D01*
X262103690Y-16309523D01*
X262008452Y-16357142D01*
X261960833Y-16404761D01*
X261913214Y-16500000D01*
X261913214Y-16690476D01*
X261960833Y-16785714D01*
X262579880Y-17357142D02*
X262532261Y-17261904D01*
X262484642Y-17214285D01*
X262389404Y-17166666D01*
X262103690Y-17166666D01*
X262008452Y-17214285D01*
X261960833Y-17261904D01*
X261913214Y-17357142D01*
X261913214Y-17500000D01*
X261960833Y-17595238D01*
X262008452Y-17642857D01*
X262103690Y-17690476D01*
X262389404Y-17690476D01*
X262484642Y-17642857D01*
X262532261Y-17595238D01*
X262579880Y-17500000D01*
X262579880Y-17357142D01*
X262579880Y-18119047D02*
X261913214Y-18119047D01*
X262008452Y-18119047D02*
X261960833Y-18166666D01*
X261913214Y-18261904D01*
X261913214Y-18404761D01*
X261960833Y-18500000D01*
X262056071Y-18547619D01*
X262579880Y-18547619D01*
X262056071Y-18547619D02*
X261960833Y-18595238D01*
X261913214Y-18690476D01*
X261913214Y-18833333D01*
X261960833Y-18928571D01*
X262056071Y-18976190D01*
X262579880Y-18976190D01*
X261532261Y-20166666D02*
X262817976Y-19309523D01*
X262532261Y-20880952D02*
X262579880Y-20785714D01*
X262579880Y-20595238D01*
X262532261Y-20500000D01*
X262437023Y-20452380D01*
X262056071Y-20452380D01*
X261960833Y-20500000D01*
X261913214Y-20595238D01*
X261913214Y-20785714D01*
X261960833Y-20880952D01*
X262056071Y-20928571D01*
X262151309Y-20928571D01*
X262246547Y-20452380D01*
X262579880Y-21357142D02*
X261913214Y-21357142D01*
X262103690Y-21357142D02*
X262008452Y-21404761D01*
X261960833Y-21452380D01*
X261913214Y-21547619D01*
X261913214Y-21642857D01*
X262579880Y-21976190D02*
X261913214Y-21976190D01*
X261579880Y-21976190D02*
X261627500Y-21928571D01*
X261675119Y-21976190D01*
X261627500Y-22023809D01*
X261579880Y-21976190D01*
X261675119Y-21976190D01*
X262532261Y-22880952D02*
X262579880Y-22785714D01*
X262579880Y-22595238D01*
X262532261Y-22500000D01*
X262484642Y-22452380D01*
X262389404Y-22404761D01*
X262103690Y-22404761D01*
X262008452Y-22452380D01*
X261960833Y-22500000D01*
X261913214Y-22595238D01*
X261913214Y-22785714D01*
X261960833Y-22880952D01*
X262579880Y-23309523D02*
X261913214Y-23309523D01*
X262103690Y-23309523D02*
X262008452Y-23357142D01*
X261960833Y-23404761D01*
X261913214Y-23500000D01*
X261913214Y-23595238D01*
X262579880Y-24071428D02*
X262532261Y-23976190D01*
X262437023Y-23928571D01*
X261579880Y-23928571D01*
X262579880Y-24880952D02*
X262056071Y-24880952D01*
X261960833Y-24833333D01*
X261913214Y-24738095D01*
X261913214Y-24547619D01*
X261960833Y-24452380D01*
X262532261Y-24880952D02*
X262579880Y-24785714D01*
X262579880Y-24547619D01*
X262532261Y-24452380D01*
X262437023Y-24404761D01*
X262341785Y-24404761D01*
X262246547Y-24452380D01*
X262198928Y-24547619D01*
X262198928Y-24785714D01*
X262151309Y-24880952D01*
X261913214Y-25785714D02*
X262579880Y-25785714D01*
X261913214Y-25357142D02*
X262437023Y-25357142D01*
X262532261Y-25404761D01*
X262579880Y-25500000D01*
X262579880Y-25642857D01*
X262532261Y-25738095D01*
X262484642Y-25785714D01*
X129814285Y-41057142D02*
X129814285Y-43342857D01*
X130957142Y-42200000D02*
X128671428Y-42200000D01*
X94306071Y-17630952D02*
X94353690Y-17773809D01*
X94401309Y-17821428D01*
X94496547Y-17869047D01*
X94639404Y-17869047D01*
X94734642Y-17821428D01*
X94782261Y-17773809D01*
X94829880Y-17678571D01*
X94829880Y-17297619D01*
X93829880Y-17297619D01*
X93829880Y-17630952D01*
X93877500Y-17726190D01*
X93925119Y-17773809D01*
X94020357Y-17821428D01*
X94115595Y-17821428D01*
X94210833Y-17773809D01*
X94258452Y-17726190D01*
X94306071Y-17630952D01*
X94306071Y-17297619D01*
X94544166Y-18250000D02*
X94544166Y-18726190D01*
X94829880Y-18154761D02*
X93829880Y-18488095D01*
X94829880Y-18821428D01*
X93829880Y-19011904D02*
X93829880Y-19583333D01*
X94829880Y-19297619D02*
X93829880Y-19297619D01*
X93829880Y-19773809D02*
X93829880Y-20345238D01*
X94829880Y-20059523D02*
X93829880Y-20059523D01*
X359627380Y-30202380D02*
X359960714Y-29726190D01*
X360198809Y-30202380D02*
X360198809Y-29202380D01*
X359817857Y-29202380D01*
X359722619Y-29250000D01*
X359675000Y-29297619D01*
X359627380Y-29392857D01*
X359627380Y-29535714D01*
X359675000Y-29630952D01*
X359722619Y-29678571D01*
X359817857Y-29726190D01*
X360198809Y-29726190D01*
X359198809Y-29678571D02*
X358865476Y-29678571D01*
X358722619Y-30202380D02*
X359198809Y-30202380D01*
X359198809Y-29202380D01*
X358722619Y-29202380D01*
X358341666Y-30154761D02*
X358198809Y-30202380D01*
X357960714Y-30202380D01*
X357865476Y-30154761D01*
X357817857Y-30107142D01*
X357770238Y-30011904D01*
X357770238Y-29916666D01*
X357817857Y-29821428D01*
X357865476Y-29773809D01*
X357960714Y-29726190D01*
X358151190Y-29678571D01*
X358246428Y-29630952D01*
X358294047Y-29583333D01*
X358341666Y-29488095D01*
X358341666Y-29392857D01*
X358294047Y-29297619D01*
X358246428Y-29250000D01*
X358151190Y-29202380D01*
X357913095Y-29202380D01*
X357770238Y-29250000D01*
X357341666Y-29678571D02*
X357008333Y-29678571D01*
X356865476Y-30202380D02*
X357341666Y-30202380D01*
X357341666Y-29202380D01*
X356865476Y-29202380D01*
X356579761Y-29202380D02*
X356008333Y-29202380D01*
X356294047Y-30202380D02*
X356294047Y-29202380D01*
D12*
X266979051Y-3262654D02*
X266840820Y-3353922D01*
X266587839Y-3421708D01*
X266473090Y-3398226D01*
X266408937Y-3361187D01*
X266331226Y-3273552D01*
X266304112Y-3172360D01*
X266327593Y-3057611D01*
X266364632Y-2993457D01*
X266452267Y-2915747D01*
X266641095Y-2810922D01*
X266728730Y-2733211D01*
X266765769Y-2669058D01*
X266789250Y-2554309D01*
X266762136Y-2453117D01*
X266684425Y-2365481D01*
X266620272Y-2328443D01*
X266505523Y-2304961D01*
X266252542Y-2372747D01*
X266114311Y-2464014D01*
X265930090Y-3597951D02*
X265645389Y-2535433D01*
X265240620Y-2643891D01*
X265152985Y-2721601D01*
X265115946Y-2785754D01*
X265092464Y-2900504D01*
X265133136Y-3052292D01*
X265210846Y-3139927D01*
X265275000Y-3176966D01*
X265389749Y-3200448D01*
X265794518Y-3091990D01*
X264076909Y-2955706D02*
X264582870Y-2820134D01*
X264769038Y-3312538D01*
X264704885Y-3275499D01*
X264590136Y-3252017D01*
X264337155Y-3319803D01*
X264249520Y-3397514D01*
X264212481Y-3461667D01*
X264188999Y-3576416D01*
X264256785Y-3829397D01*
X264334496Y-3917032D01*
X264398649Y-3954071D01*
X264513399Y-3977553D01*
X264766379Y-3909767D01*
X264854014Y-3832056D01*
X264891053Y-3767903D01*
X263115583Y-3213292D02*
X263317968Y-3159064D01*
X263432717Y-3182545D01*
X263496870Y-3219584D01*
X263638734Y-3344258D01*
X263743559Y-3533086D01*
X263852016Y-3937854D01*
X263828535Y-4052604D01*
X263791496Y-4116757D01*
X263703861Y-4194468D01*
X263501476Y-4248696D01*
X263386727Y-4225215D01*
X263322574Y-4188176D01*
X263244863Y-4100541D01*
X263177077Y-3847560D01*
X263200559Y-3732811D01*
X263237598Y-3668657D01*
X263325233Y-3590947D01*
X263527617Y-3536718D01*
X263642367Y-3560200D01*
X263706520Y-3597239D01*
X263784230Y-3684874D01*
X261901276Y-3538665D02*
X261831804Y-4696084D01*
X261192931Y-3728466D01*
X260566902Y-5035013D02*
X261174055Y-4872327D01*
X260870478Y-4953670D02*
X260585777Y-3891152D01*
X260727641Y-4015826D01*
X260855948Y-4089904D01*
X260970697Y-4113385D01*
X259301999Y-5373943D02*
X259017298Y-4311425D01*
X259125755Y-4716194D02*
X259011006Y-4692712D01*
X258808621Y-4746941D01*
X258720986Y-4824651D01*
X258683947Y-4888804D01*
X258660466Y-5003554D01*
X258741809Y-5307130D01*
X258819519Y-5394766D01*
X258883673Y-5431804D01*
X258998422Y-5455286D01*
X259200807Y-5401057D01*
X259288442Y-5323347D01*
X258252064Y-4896070D02*
X258188884Y-5672201D01*
X257746103Y-5031642D02*
X258188884Y-5672201D01*
X258357862Y-5898067D01*
X258422016Y-5935106D01*
X258536765Y-5958588D01*
X256572468Y-5508802D02*
X256218295Y-5603703D01*
X256215636Y-6200932D02*
X256721597Y-6065360D01*
X256436896Y-5002841D01*
X255930935Y-5138413D01*
X255153117Y-6485632D02*
X255371718Y-5884771D01*
X255760271Y-6322946D02*
X255475570Y-5260428D01*
X255070801Y-5368885D01*
X254983166Y-5446596D01*
X254946127Y-5510749D01*
X254922645Y-5625499D01*
X254963317Y-5777287D01*
X255041027Y-5864922D01*
X255105181Y-5901961D01*
X255219930Y-5925443D01*
X255624699Y-5816985D01*
X254191791Y-6743219D02*
X254697752Y-6607647D01*
X254413051Y-5545129D01*
D10*
X331871145Y-30319729D02*
X334156860Y-30319729D01*
X92127380Y-30452380D02*
X92460714Y-29976190D01*
X92698809Y-30452380D02*
X92698809Y-29452380D01*
X92317857Y-29452380D01*
X92222619Y-29500000D01*
X92175000Y-29547619D01*
X92127380Y-29642857D01*
X92127380Y-29785714D01*
X92175000Y-29880952D01*
X92222619Y-29928571D01*
X92317857Y-29976190D01*
X92698809Y-29976190D01*
X91698809Y-29928571D02*
X91365476Y-29928571D01*
X91222619Y-30452380D02*
X91698809Y-30452380D01*
X91698809Y-29452380D01*
X91222619Y-29452380D01*
X90841666Y-30404761D02*
X90698809Y-30452380D01*
X90460714Y-30452380D01*
X90365476Y-30404761D01*
X90317857Y-30357142D01*
X90270238Y-30261904D01*
X90270238Y-30166666D01*
X90317857Y-30071428D01*
X90365476Y-30023809D01*
X90460714Y-29976190D01*
X90651190Y-29928571D01*
X90746428Y-29880952D01*
X90794047Y-29833333D01*
X90841666Y-29738095D01*
X90841666Y-29642857D01*
X90794047Y-29547619D01*
X90746428Y-29500000D01*
X90651190Y-29452380D01*
X90413095Y-29452380D01*
X90270238Y-29500000D01*
X89841666Y-29928571D02*
X89508333Y-29928571D01*
X89365476Y-30452380D02*
X89841666Y-30452380D01*
X89841666Y-29452380D01*
X89365476Y-29452380D01*
X89079761Y-29452380D02*
X88508333Y-29452380D01*
X88794047Y-30452380D02*
X88794047Y-29452380D01*
X312107142Y-39885714D02*
X314392857Y-39885714D01*
X332728288Y-26891157D02*
X332728288Y-29176872D01*
X333871145Y-28034015D02*
X331585431Y-28034015D01*
X313264285Y-34157142D02*
X313264285Y-36442857D01*
X314407142Y-35300000D02*
X312121428Y-35300000D01*
X119544047Y-42678571D02*
X119401190Y-42726190D01*
X119353571Y-42773809D01*
X119305952Y-42869047D01*
X119305952Y-43011904D01*
X119353571Y-43107142D01*
X119401190Y-43154761D01*
X119496428Y-43202380D01*
X119877380Y-43202380D01*
X119877380Y-42202380D01*
X119544047Y-42202380D01*
X119448809Y-42250000D01*
X119401190Y-42297619D01*
X119353571Y-42392857D01*
X119353571Y-42488095D01*
X119401190Y-42583333D01*
X119448809Y-42630952D01*
X119544047Y-42678571D01*
X119877380Y-42678571D01*
X118925000Y-42916666D02*
X118448809Y-42916666D01*
X119020238Y-43202380D02*
X118686904Y-42202380D01*
X118353571Y-43202380D01*
X118163095Y-42202380D02*
X117591666Y-42202380D01*
X117877380Y-43202380D02*
X117877380Y-42202380D01*
X117401190Y-42202380D02*
X116829761Y-42202380D01*
X117115476Y-43202380D02*
X117115476Y-42202380D01*
D11*
X314328569Y-37792857D02*
X314114283Y-37864285D01*
X314042855Y-37935714D01*
X313971426Y-38078571D01*
X313971426Y-38292857D01*
X314042855Y-38435714D01*
X314114283Y-38507142D01*
X314257140Y-38578571D01*
X314828569Y-38578571D01*
X314828569Y-37078571D01*
X314328569Y-37078571D01*
X314185712Y-37150000D01*
X314114283Y-37221428D01*
X314042855Y-37364285D01*
X314042855Y-37507142D01*
X314114283Y-37650000D01*
X314185712Y-37721428D01*
X314328569Y-37792857D01*
X314828569Y-37792857D01*
X313399998Y-38150000D02*
X312685712Y-38150000D01*
X313542855Y-38578571D02*
X313042855Y-37078571D01*
X312542855Y-38578571D01*
X312257140Y-37078571D02*
X311399998Y-37078571D01*
X311828569Y-38578571D02*
X311828569Y-37078571D01*
X311114283Y-37078571D02*
X310257140Y-37078571D01*
X310685712Y-38578571D02*
X310685712Y-37078571D01*
D10*
X130942857Y-37514285D02*
X128657142Y-37514285D01*
X329103571Y-31880952D02*
X329151190Y-32023809D01*
X329198809Y-32071428D01*
X329294047Y-32119047D01*
X329436904Y-32119047D01*
X329532142Y-32071428D01*
X329579761Y-32023809D01*
X329627380Y-31928571D01*
X329627380Y-31547619D01*
X328627380Y-31547619D01*
X328627380Y-31880952D01*
X328675000Y-31976190D01*
X328722619Y-32023809D01*
X328817857Y-32071428D01*
X328913095Y-32071428D01*
X329008333Y-32023809D01*
X329055952Y-31976190D01*
X329103571Y-31880952D01*
X329103571Y-31547619D01*
X329341666Y-32500000D02*
X329341666Y-32976190D01*
X329627380Y-32404761D02*
X328627380Y-32738095D01*
X329627380Y-33071428D01*
X328627380Y-33261904D02*
X328627380Y-33833333D01*
X329627380Y-33547619D02*
X328627380Y-33547619D01*
X328627380Y-34023809D02*
X328627380Y-34595238D01*
X329627380Y-34309523D02*
X328627380Y-34309523D01*
D12*
X195409576Y-7131494D02*
X195244230Y-7141418D01*
X194991250Y-7073632D01*
X194903615Y-6995922D01*
X194866576Y-6931768D01*
X194843094Y-6817019D01*
X194870208Y-6715827D01*
X194947919Y-6628192D01*
X195012072Y-6591153D01*
X195126822Y-6567671D01*
X195342763Y-6571304D01*
X195457513Y-6547822D01*
X195521666Y-6510783D01*
X195599376Y-6423148D01*
X195626491Y-6321956D01*
X195603009Y-6207206D01*
X195565970Y-6143053D01*
X195478335Y-6065343D01*
X195225355Y-5997557D01*
X195060009Y-6007481D01*
X194333500Y-6897389D02*
X194618201Y-5834870D01*
X194213432Y-5726413D01*
X194098683Y-5749895D01*
X194034530Y-5786933D01*
X193956819Y-5874569D01*
X193916147Y-6026357D01*
X193939629Y-6141106D01*
X193976668Y-6205260D01*
X194064303Y-6282970D01*
X194469072Y-6391428D01*
X193049722Y-5414598D02*
X193555683Y-5550169D01*
X193470707Y-6069688D01*
X193433668Y-6005534D01*
X193346033Y-5927824D01*
X193093052Y-5860038D01*
X192978303Y-5883520D01*
X192914150Y-5920559D01*
X192836439Y-6008194D01*
X192768653Y-6261174D01*
X192792135Y-6375924D01*
X192829174Y-6440077D01*
X192916809Y-6517787D01*
X193169790Y-6585573D01*
X193284539Y-6562092D01*
X193348692Y-6525053D01*
X192088395Y-5157011D02*
X192290780Y-5211240D01*
X192378415Y-5288950D01*
X192415454Y-5353103D01*
X192475975Y-5532006D01*
X192472342Y-5747948D01*
X192363884Y-6152717D01*
X192286174Y-6240352D01*
X192222021Y-6277391D01*
X192107271Y-6300872D01*
X191904887Y-6246644D01*
X191817252Y-6168933D01*
X191780213Y-6104780D01*
X191756731Y-5990031D01*
X191824517Y-5737050D01*
X191902227Y-5649415D01*
X191966381Y-5612376D01*
X192081130Y-5588894D01*
X192283515Y-5643123D01*
X192371150Y-5720833D01*
X192408189Y-5784987D01*
X192431670Y-5899736D01*
X190874089Y-4831638D02*
X190235215Y-5799257D01*
X190165743Y-4641838D01*
X188970312Y-5460327D02*
X189577465Y-5623013D01*
X189273889Y-5541670D02*
X189558590Y-4479152D01*
X189619110Y-4658054D01*
X189693188Y-4786361D01*
X189780823Y-4864071D01*
X187705409Y-5121397D02*
X187990110Y-4058879D01*
X187881653Y-4463648D02*
X187794018Y-4385937D01*
X187591633Y-4331708D01*
X187476884Y-4355190D01*
X187412730Y-4392229D01*
X187335020Y-4479864D01*
X187253677Y-4783441D01*
X187277159Y-4898190D01*
X187314197Y-4962343D01*
X187401832Y-5040054D01*
X187604217Y-5094283D01*
X187718966Y-5070801D01*
X187035076Y-4182579D02*
X186592295Y-4823139D01*
X186529115Y-4047007D02*
X186592295Y-4823139D01*
X186625701Y-5103234D01*
X186662740Y-5167387D01*
X186750375Y-5245098D01*
X185274136Y-3873423D02*
X184919964Y-3778523D01*
X184619046Y-4294409D02*
X185125007Y-4429981D01*
X185409708Y-3367462D01*
X184903747Y-3231890D01*
X183556528Y-4009708D02*
X184046272Y-3598647D01*
X184163681Y-4172394D02*
X184448382Y-3109876D01*
X184043613Y-3001418D01*
X183928864Y-3024900D01*
X183864710Y-3061939D01*
X183787000Y-3149574D01*
X183746328Y-3301362D01*
X183769810Y-3416111D01*
X183806849Y-3480265D01*
X183894484Y-3557975D01*
X184299253Y-3666433D01*
X182595202Y-3752121D02*
X183101163Y-3887693D01*
X183385864Y-2825175D01*
D10*
X186413214Y-11392857D02*
X187222738Y-11392857D01*
X187317976Y-11345238D01*
X187365595Y-11297619D01*
X187413214Y-11202380D01*
X187413214Y-11059523D01*
X187365595Y-10964285D01*
X187032261Y-11392857D02*
X187079880Y-11297619D01*
X187079880Y-11107142D01*
X187032261Y-11011904D01*
X186984642Y-10964285D01*
X186889404Y-10916666D01*
X186603690Y-10916666D01*
X186508452Y-10964285D01*
X186460833Y-11011904D01*
X186413214Y-11107142D01*
X186413214Y-11297619D01*
X186460833Y-11392857D01*
X187079880Y-11869047D02*
X186413214Y-11869047D01*
X186079880Y-11869047D02*
X186127500Y-11821428D01*
X186175119Y-11869047D01*
X186127500Y-11916666D01*
X186079880Y-11869047D01*
X186175119Y-11869047D01*
X186413214Y-12202380D02*
X186413214Y-12583333D01*
X186079880Y-12345238D02*
X186937023Y-12345238D01*
X187032261Y-12392857D01*
X187079880Y-12488095D01*
X187079880Y-12583333D01*
X187079880Y-12916666D02*
X186079880Y-12916666D01*
X187079880Y-13345238D02*
X186556071Y-13345238D01*
X186460833Y-13297619D01*
X186413214Y-13202380D01*
X186413214Y-13059523D01*
X186460833Y-12964285D01*
X186508452Y-12916666D01*
X186413214Y-14250000D02*
X187079880Y-14250000D01*
X186413214Y-13821428D02*
X186937023Y-13821428D01*
X187032261Y-13869047D01*
X187079880Y-13964285D01*
X187079880Y-14107142D01*
X187032261Y-14202380D01*
X186984642Y-14250000D01*
X187079880Y-14726190D02*
X186079880Y-14726190D01*
X186460833Y-14726190D02*
X186413214Y-14821428D01*
X186413214Y-15011904D01*
X186460833Y-15107142D01*
X186508452Y-15154761D01*
X186603690Y-15202380D01*
X186889404Y-15202380D01*
X186984642Y-15154761D01*
X187032261Y-15107142D01*
X187079880Y-15011904D01*
X187079880Y-14821428D01*
X187032261Y-14726190D01*
X186984642Y-15630952D02*
X187032261Y-15678571D01*
X187079880Y-15630952D01*
X187032261Y-15583333D01*
X186984642Y-15630952D01*
X187079880Y-15630952D01*
X187032261Y-16535714D02*
X187079880Y-16440476D01*
X187079880Y-16250000D01*
X187032261Y-16154761D01*
X186984642Y-16107142D01*
X186889404Y-16059523D01*
X186603690Y-16059523D01*
X186508452Y-16107142D01*
X186460833Y-16154761D01*
X186413214Y-16250000D01*
X186413214Y-16440476D01*
X186460833Y-16535714D01*
X187079880Y-17107142D02*
X187032261Y-17011904D01*
X186984642Y-16964285D01*
X186889404Y-16916666D01*
X186603690Y-16916666D01*
X186508452Y-16964285D01*
X186460833Y-17011904D01*
X186413214Y-17107142D01*
X186413214Y-17250000D01*
X186460833Y-17345238D01*
X186508452Y-17392857D01*
X186603690Y-17440476D01*
X186889404Y-17440476D01*
X186984642Y-17392857D01*
X187032261Y-17345238D01*
X187079880Y-17250000D01*
X187079880Y-17107142D01*
X187079880Y-17869047D02*
X186413214Y-17869047D01*
X186508452Y-17869047D02*
X186460833Y-17916666D01*
X186413214Y-18011904D01*
X186413214Y-18154761D01*
X186460833Y-18250000D01*
X186556071Y-18297619D01*
X187079880Y-18297619D01*
X186556071Y-18297619D02*
X186460833Y-18345238D01*
X186413214Y-18440476D01*
X186413214Y-18583333D01*
X186460833Y-18678571D01*
X186556071Y-18726190D01*
X187079880Y-18726190D01*
X186032261Y-19916666D02*
X187317976Y-19059523D01*
X187032261Y-20630952D02*
X187079880Y-20535714D01*
X187079880Y-20345238D01*
X187032261Y-20250000D01*
X186937023Y-20202380D01*
X186556071Y-20202380D01*
X186460833Y-20250000D01*
X186413214Y-20345238D01*
X186413214Y-20535714D01*
X186460833Y-20630952D01*
X186556071Y-20678571D01*
X186651309Y-20678571D01*
X186746547Y-20202380D01*
X187079880Y-21107142D02*
X186413214Y-21107142D01*
X186603690Y-21107142D02*
X186508452Y-21154761D01*
X186460833Y-21202380D01*
X186413214Y-21297619D01*
X186413214Y-21392857D01*
X187079880Y-21726190D02*
X186413214Y-21726190D01*
X186079880Y-21726190D02*
X186127500Y-21678571D01*
X186175119Y-21726190D01*
X186127500Y-21773809D01*
X186079880Y-21726190D01*
X186175119Y-21726190D01*
X187032261Y-22630952D02*
X187079880Y-22535714D01*
X187079880Y-22345238D01*
X187032261Y-22250000D01*
X186984642Y-22202380D01*
X186889404Y-22154761D01*
X186603690Y-22154761D01*
X186508452Y-22202380D01*
X186460833Y-22250000D01*
X186413214Y-22345238D01*
X186413214Y-22535714D01*
X186460833Y-22630952D01*
X187079880Y-23059523D02*
X186413214Y-23059523D01*
X186603690Y-23059523D02*
X186508452Y-23107142D01*
X186460833Y-23154761D01*
X186413214Y-23250000D01*
X186413214Y-23345238D01*
X187079880Y-23821428D02*
X187032261Y-23726190D01*
X186937023Y-23678571D01*
X186079880Y-23678571D01*
X187079880Y-24630952D02*
X186556071Y-24630952D01*
X186460833Y-24583333D01*
X186413214Y-24488095D01*
X186413214Y-24297619D01*
X186460833Y-24202380D01*
X187032261Y-24630952D02*
X187079880Y-24535714D01*
X187079880Y-24297619D01*
X187032261Y-24202380D01*
X186937023Y-24154761D01*
X186841785Y-24154761D01*
X186746547Y-24202380D01*
X186698928Y-24297619D01*
X186698928Y-24535714D01*
X186651309Y-24630952D01*
X186413214Y-25535714D02*
X187079880Y-25535714D01*
X186413214Y-25107142D02*
X186937023Y-25107142D01*
X187032261Y-25154761D01*
X187079880Y-25250000D01*
X187079880Y-25392857D01*
X187032261Y-25488095D01*
X186984642Y-25535714D01*
X116389285Y-30407142D02*
X116389285Y-32692857D01*
X117532142Y-31550000D02*
X115246428Y-31550000D01*
D13*
%TO.C,U2*%
X337687657Y-17974071D02*
X337687657Y-18899357D01*
X337633228Y-19008214D01*
X337578800Y-19062642D01*
X337469942Y-19117071D01*
X337252228Y-19117071D01*
X337143371Y-19062642D01*
X337088942Y-19008214D01*
X337034514Y-18899357D01*
X337034514Y-17974071D01*
X336544657Y-18082928D02*
X336490228Y-18028500D01*
X336381371Y-17974071D01*
X336109228Y-17974071D01*
X336000371Y-18028500D01*
X335945942Y-18082928D01*
X335891514Y-18191785D01*
X335891514Y-18300642D01*
X335945942Y-18463928D01*
X336599085Y-19117071D01*
X335891514Y-19117071D01*
%TO.C,U102*%
X119464800Y-18974071D02*
X119464800Y-19899357D01*
X119410371Y-20008214D01*
X119355942Y-20062642D01*
X119247085Y-20117071D01*
X119029371Y-20117071D01*
X118920514Y-20062642D01*
X118866085Y-20008214D01*
X118811657Y-19899357D01*
X118811657Y-18974071D01*
X117668657Y-20117071D02*
X118321800Y-20117071D01*
X117995228Y-20117071D02*
X117995228Y-18974071D01*
X118104085Y-19137357D01*
X118212942Y-19246214D01*
X118321800Y-19300642D01*
X116961085Y-18974071D02*
X116852228Y-18974071D01*
X116743371Y-19028500D01*
X116688942Y-19082928D01*
X116634514Y-19191785D01*
X116580085Y-19409500D01*
X116580085Y-19681642D01*
X116634514Y-19899357D01*
X116688942Y-20008214D01*
X116743371Y-20062642D01*
X116852228Y-20117071D01*
X116961085Y-20117071D01*
X117069942Y-20062642D01*
X117124371Y-20008214D01*
X117178800Y-19899357D01*
X117233228Y-19681642D01*
X117233228Y-19409500D01*
X117178800Y-19191785D01*
X117124371Y-19082928D01*
X117069942Y-19028500D01*
X116961085Y-18974071D01*
X116144657Y-19082928D02*
X116090228Y-19028500D01*
X115981371Y-18974071D01*
X115709228Y-18974071D01*
X115600371Y-19028500D01*
X115545942Y-19082928D01*
X115491514Y-19191785D01*
X115491514Y-19300642D01*
X115545942Y-19463928D01*
X116199085Y-20117071D01*
X115491514Y-20117071D01*
D10*
%TO.C,D103*%
X161365476Y-7402380D02*
X161365476Y-6402380D01*
X161127380Y-6402380D01*
X160984523Y-6450000D01*
X160889285Y-6545238D01*
X160841666Y-6640476D01*
X160794047Y-6830952D01*
X160794047Y-6973809D01*
X160841666Y-7164285D01*
X160889285Y-7259523D01*
X160984523Y-7354761D01*
X161127380Y-7402380D01*
X161365476Y-7402380D01*
X159841666Y-7402380D02*
X160413095Y-7402380D01*
X160127380Y-7402380D02*
X160127380Y-6402380D01*
X160222619Y-6545238D01*
X160317857Y-6640476D01*
X160413095Y-6688095D01*
X159222619Y-6402380D02*
X159127380Y-6402380D01*
X159032142Y-6450000D01*
X158984523Y-6497619D01*
X158936904Y-6592857D01*
X158889285Y-6783333D01*
X158889285Y-7021428D01*
X158936904Y-7211904D01*
X158984523Y-7307142D01*
X159032142Y-7354761D01*
X159127380Y-7402380D01*
X159222619Y-7402380D01*
X159317857Y-7354761D01*
X159365476Y-7307142D01*
X159413095Y-7211904D01*
X159460714Y-7021428D01*
X159460714Y-6783333D01*
X159413095Y-6592857D01*
X159365476Y-6497619D01*
X159317857Y-6450000D01*
X159222619Y-6402380D01*
X158555952Y-6402380D02*
X157936904Y-6402380D01*
X158270238Y-6783333D01*
X158127380Y-6783333D01*
X158032142Y-6830952D01*
X157984523Y-6878571D01*
X157936904Y-6973809D01*
X157936904Y-7211904D01*
X157984523Y-7307142D01*
X158032142Y-7354761D01*
X158127380Y-7402380D01*
X158413095Y-7402380D01*
X158508333Y-7354761D01*
X158555952Y-7307142D01*
%TO.C,D125*%
X114627380Y-61309522D02*
X113627380Y-61309522D01*
X113627380Y-61547618D01*
X113675000Y-61690475D01*
X113770238Y-61785713D01*
X113865476Y-61833332D01*
X114055952Y-61880951D01*
X114198809Y-61880951D01*
X114389285Y-61833332D01*
X114484523Y-61785713D01*
X114579761Y-61690475D01*
X114627380Y-61547618D01*
X114627380Y-61309522D01*
X114627380Y-62833332D02*
X114627380Y-62261903D01*
X114627380Y-62547618D02*
X113627380Y-62547618D01*
X113770238Y-62452379D01*
X113865476Y-62357141D01*
X113913095Y-62261903D01*
X113722619Y-63214284D02*
X113675000Y-63261903D01*
X113627380Y-63357141D01*
X113627380Y-63595237D01*
X113675000Y-63690475D01*
X113722619Y-63738094D01*
X113817857Y-63785713D01*
X113913095Y-63785713D01*
X114055952Y-63738094D01*
X114627380Y-63166665D01*
X114627380Y-63785713D01*
X113627380Y-64690475D02*
X113627380Y-64214284D01*
X114103571Y-64166665D01*
X114055952Y-64214284D01*
X114008333Y-64309522D01*
X114008333Y-64547618D01*
X114055952Y-64642856D01*
X114103571Y-64690475D01*
X114198809Y-64738094D01*
X114436904Y-64738094D01*
X114532142Y-64690475D01*
X114579761Y-64642856D01*
X114627380Y-64547618D01*
X114627380Y-64309522D01*
X114579761Y-64214284D01*
X114532142Y-64166665D01*
%TO.C,Q1*%
X350897619Y-28904761D02*
X350850000Y-28809523D01*
X350754761Y-28714285D01*
X350611904Y-28571428D01*
X350564285Y-28476190D01*
X350564285Y-28380952D01*
X350802380Y-28428571D02*
X350754761Y-28333333D01*
X350659523Y-28238095D01*
X350469047Y-28190476D01*
X350135714Y-28190476D01*
X349945238Y-28238095D01*
X349850000Y-28333333D01*
X349802380Y-28428571D01*
X349802380Y-28619047D01*
X349850000Y-28714285D01*
X349945238Y-28809523D01*
X350135714Y-28857142D01*
X350469047Y-28857142D01*
X350659523Y-28809523D01*
X350754761Y-28714285D01*
X350802380Y-28619047D01*
X350802380Y-28428571D01*
X350802380Y-29809523D02*
X350802380Y-29238095D01*
X350802380Y-29523809D02*
X349802380Y-29523809D01*
X349945238Y-29428571D01*
X350040476Y-29333333D01*
X350088095Y-29238095D01*
%TO.C,R105*%
X121794047Y-38952380D02*
X122127380Y-38476190D01*
X122365476Y-38952380D02*
X122365476Y-37952380D01*
X121984523Y-37952380D01*
X121889285Y-38000000D01*
X121841666Y-38047619D01*
X121794047Y-38142857D01*
X121794047Y-38285714D01*
X121841666Y-38380952D01*
X121889285Y-38428571D01*
X121984523Y-38476190D01*
X122365476Y-38476190D01*
X120841666Y-38952380D02*
X121413095Y-38952380D01*
X121127380Y-38952380D02*
X121127380Y-37952380D01*
X121222619Y-38095238D01*
X121317857Y-38190476D01*
X121413095Y-38238095D01*
X120222619Y-37952380D02*
X120127380Y-37952380D01*
X120032142Y-38000000D01*
X119984523Y-38047619D01*
X119936904Y-38142857D01*
X119889285Y-38333333D01*
X119889285Y-38571428D01*
X119936904Y-38761904D01*
X119984523Y-38857142D01*
X120032142Y-38904761D01*
X120127380Y-38952380D01*
X120222619Y-38952380D01*
X120317857Y-38904761D01*
X120365476Y-38857142D01*
X120413095Y-38761904D01*
X120460714Y-38571428D01*
X120460714Y-38333333D01*
X120413095Y-38142857D01*
X120365476Y-38047619D01*
X120317857Y-38000000D01*
X120222619Y-37952380D01*
X118984523Y-37952380D02*
X119460714Y-37952380D01*
X119508333Y-38428571D01*
X119460714Y-38380952D01*
X119365476Y-38333333D01*
X119127380Y-38333333D01*
X119032142Y-38380952D01*
X118984523Y-38428571D01*
X118936904Y-38523809D01*
X118936904Y-38761904D01*
X118984523Y-38857142D01*
X119032142Y-38904761D01*
X119127380Y-38952380D01*
X119365476Y-38952380D01*
X119460714Y-38904761D01*
X119508333Y-38857142D01*
%TO.C,U101*%
X104989285Y-25402380D02*
X104989285Y-26211904D01*
X104941666Y-26307142D01*
X104894047Y-26354761D01*
X104798809Y-26402380D01*
X104608333Y-26402380D01*
X104513095Y-26354761D01*
X104465476Y-26307142D01*
X104417857Y-26211904D01*
X104417857Y-25402380D01*
X103417857Y-26402380D02*
X103989285Y-26402380D01*
X103703571Y-26402380D02*
X103703571Y-25402380D01*
X103798809Y-25545238D01*
X103894047Y-25640476D01*
X103989285Y-25688095D01*
X102798809Y-25402380D02*
X102703571Y-25402380D01*
X102608333Y-25450000D01*
X102560714Y-25497619D01*
X102513095Y-25592857D01*
X102465476Y-25783333D01*
X102465476Y-26021428D01*
X102513095Y-26211904D01*
X102560714Y-26307142D01*
X102608333Y-26354761D01*
X102703571Y-26402380D01*
X102798809Y-26402380D01*
X102894047Y-26354761D01*
X102941666Y-26307142D01*
X102989285Y-26211904D01*
X103036904Y-26021428D01*
X103036904Y-25783333D01*
X102989285Y-25592857D01*
X102941666Y-25497619D01*
X102894047Y-25450000D01*
X102798809Y-25402380D01*
X101513095Y-26402380D02*
X102084523Y-26402380D01*
X101798809Y-26402380D02*
X101798809Y-25402380D01*
X101894047Y-25545238D01*
X101989285Y-25640476D01*
X102084523Y-25688095D01*
%TO.C,D33*%
X353964285Y-24452380D02*
X353964285Y-23452380D01*
X353726190Y-23452380D01*
X353583333Y-23500000D01*
X353488095Y-23595238D01*
X353440476Y-23690476D01*
X353392857Y-23880952D01*
X353392857Y-24023809D01*
X353440476Y-24214285D01*
X353488095Y-24309523D01*
X353583333Y-24404761D01*
X353726190Y-24452380D01*
X353964285Y-24452380D01*
X353059523Y-23452380D02*
X352440476Y-23452380D01*
X352773809Y-23833333D01*
X352630952Y-23833333D01*
X352535714Y-23880952D01*
X352488095Y-23928571D01*
X352440476Y-24023809D01*
X352440476Y-24261904D01*
X352488095Y-24357142D01*
X352535714Y-24404761D01*
X352630952Y-24452380D01*
X352916666Y-24452380D01*
X353011904Y-24404761D01*
X353059523Y-24357142D01*
X352107142Y-23452380D02*
X351488095Y-23452380D01*
X351821428Y-23833333D01*
X351678571Y-23833333D01*
X351583333Y-23880952D01*
X351535714Y-23928571D01*
X351488095Y-24023809D01*
X351488095Y-24261904D01*
X351535714Y-24357142D01*
X351583333Y-24404761D01*
X351678571Y-24452380D01*
X351964285Y-24452380D01*
X352059523Y-24404761D01*
X352107142Y-24357142D01*
%TO.C,R101*%
X91269047Y-10052380D02*
X91602380Y-9576190D01*
X91840476Y-10052380D02*
X91840476Y-9052380D01*
X91459523Y-9052380D01*
X91364285Y-9100000D01*
X91316666Y-9147619D01*
X91269047Y-9242857D01*
X91269047Y-9385714D01*
X91316666Y-9480952D01*
X91364285Y-9528571D01*
X91459523Y-9576190D01*
X91840476Y-9576190D01*
X90316666Y-10052380D02*
X90888095Y-10052380D01*
X90602380Y-10052380D02*
X90602380Y-9052380D01*
X90697619Y-9195238D01*
X90792857Y-9290476D01*
X90888095Y-9338095D01*
X89697619Y-9052380D02*
X89602380Y-9052380D01*
X89507142Y-9100000D01*
X89459523Y-9147619D01*
X89411904Y-9242857D01*
X89364285Y-9433333D01*
X89364285Y-9671428D01*
X89411904Y-9861904D01*
X89459523Y-9957142D01*
X89507142Y-10004761D01*
X89602380Y-10052380D01*
X89697619Y-10052380D01*
X89792857Y-10004761D01*
X89840476Y-9957142D01*
X89888095Y-9861904D01*
X89935714Y-9671428D01*
X89935714Y-9433333D01*
X89888095Y-9242857D01*
X89840476Y-9147619D01*
X89792857Y-9100000D01*
X89697619Y-9052380D01*
X88411904Y-10052380D02*
X88983333Y-10052380D01*
X88697619Y-10052380D02*
X88697619Y-9052380D01*
X88792857Y-9195238D01*
X88888095Y-9290476D01*
X88983333Y-9338095D01*
%TO.C,D101*%
X130654483Y-5186395D02*
X130654483Y-4186395D01*
X130416387Y-4186395D01*
X130273530Y-4234015D01*
X130178292Y-4329253D01*
X130130673Y-4424491D01*
X130083054Y-4614967D01*
X130083054Y-4757824D01*
X130130673Y-4948300D01*
X130178292Y-5043538D01*
X130273530Y-5138776D01*
X130416387Y-5186395D01*
X130654483Y-5186395D01*
X129130673Y-5186395D02*
X129702102Y-5186395D01*
X129416387Y-5186395D02*
X129416387Y-4186395D01*
X129511626Y-4329253D01*
X129606864Y-4424491D01*
X129702102Y-4472110D01*
X128511626Y-4186395D02*
X128416387Y-4186395D01*
X128321149Y-4234015D01*
X128273530Y-4281634D01*
X128225911Y-4376872D01*
X128178292Y-4567348D01*
X128178292Y-4805443D01*
X128225911Y-4995919D01*
X128273530Y-5091157D01*
X128321149Y-5138776D01*
X128416387Y-5186395D01*
X128511626Y-5186395D01*
X128606864Y-5138776D01*
X128654483Y-5091157D01*
X128702102Y-4995919D01*
X128749721Y-4805443D01*
X128749721Y-4567348D01*
X128702102Y-4376872D01*
X128654483Y-4281634D01*
X128606864Y-4234015D01*
X128511626Y-4186395D01*
X127225911Y-5186395D02*
X127797340Y-5186395D01*
X127511626Y-5186395D02*
X127511626Y-4186395D01*
X127606864Y-4329253D01*
X127702102Y-4424491D01*
X127797340Y-4472110D01*
%TO.C,D120*%
X143365476Y-59752380D02*
X143365476Y-58752380D01*
X143127380Y-58752380D01*
X142984523Y-58800000D01*
X142889285Y-58895238D01*
X142841666Y-58990476D01*
X142794047Y-59180952D01*
X142794047Y-59323809D01*
X142841666Y-59514285D01*
X142889285Y-59609523D01*
X142984523Y-59704761D01*
X143127380Y-59752380D01*
X143365476Y-59752380D01*
X141841666Y-59752380D02*
X142413095Y-59752380D01*
X142127380Y-59752380D02*
X142127380Y-58752380D01*
X142222619Y-58895238D01*
X142317857Y-58990476D01*
X142413095Y-59038095D01*
X141460714Y-58847619D02*
X141413095Y-58800000D01*
X141317857Y-58752380D01*
X141079761Y-58752380D01*
X140984523Y-58800000D01*
X140936904Y-58847619D01*
X140889285Y-58942857D01*
X140889285Y-59038095D01*
X140936904Y-59180952D01*
X141508333Y-59752380D01*
X140889285Y-59752380D01*
X140270238Y-58752380D02*
X140175000Y-58752380D01*
X140079761Y-58800000D01*
X140032142Y-58847619D01*
X139984523Y-58942857D01*
X139936904Y-59133333D01*
X139936904Y-59371428D01*
X139984523Y-59561904D01*
X140032142Y-59657142D01*
X140079761Y-59704761D01*
X140175000Y-59752380D01*
X140270238Y-59752380D01*
X140365476Y-59704761D01*
X140413095Y-59657142D01*
X140460714Y-59561904D01*
X140508333Y-59371428D01*
X140508333Y-59133333D01*
X140460714Y-58942857D01*
X140413095Y-58847619D01*
X140365476Y-58800000D01*
X140270238Y-58752380D01*
%TO.C,D109*%
X161365476Y-24402380D02*
X161365476Y-23402380D01*
X161127380Y-23402380D01*
X160984523Y-23450000D01*
X160889285Y-23545238D01*
X160841666Y-23640476D01*
X160794047Y-23830952D01*
X160794047Y-23973809D01*
X160841666Y-24164285D01*
X160889285Y-24259523D01*
X160984523Y-24354761D01*
X161127380Y-24402380D01*
X161365476Y-24402380D01*
X159841666Y-24402380D02*
X160413095Y-24402380D01*
X160127380Y-24402380D02*
X160127380Y-23402380D01*
X160222619Y-23545238D01*
X160317857Y-23640476D01*
X160413095Y-23688095D01*
X159222619Y-23402380D02*
X159127380Y-23402380D01*
X159032142Y-23450000D01*
X158984523Y-23497619D01*
X158936904Y-23592857D01*
X158889285Y-23783333D01*
X158889285Y-24021428D01*
X158936904Y-24211904D01*
X158984523Y-24307142D01*
X159032142Y-24354761D01*
X159127380Y-24402380D01*
X159222619Y-24402380D01*
X159317857Y-24354761D01*
X159365476Y-24307142D01*
X159413095Y-24211904D01*
X159460714Y-24021428D01*
X159460714Y-23783333D01*
X159413095Y-23592857D01*
X159365476Y-23497619D01*
X159317857Y-23450000D01*
X159222619Y-23402380D01*
X158413095Y-24402380D02*
X158222619Y-24402380D01*
X158127380Y-24354761D01*
X158079761Y-24307142D01*
X157984523Y-24164285D01*
X157936904Y-23973809D01*
X157936904Y-23592857D01*
X157984523Y-23497619D01*
X158032142Y-23450000D01*
X158127380Y-23402380D01*
X158317857Y-23402380D01*
X158413095Y-23450000D01*
X158460714Y-23497619D01*
X158508333Y-23592857D01*
X158508333Y-23830952D01*
X158460714Y-23926190D01*
X158413095Y-23973809D01*
X158317857Y-24021428D01*
X158127380Y-24021428D01*
X158032142Y-23973809D01*
X157984523Y-23926190D01*
X157936904Y-23830952D01*
%TO.C,C101*%
X100782142Y-24130952D02*
X100829761Y-24083333D01*
X100877380Y-23940476D01*
X100877380Y-23845238D01*
X100829761Y-23702380D01*
X100734523Y-23607142D01*
X100639285Y-23559523D01*
X100448809Y-23511904D01*
X100305952Y-23511904D01*
X100115476Y-23559523D01*
X100020238Y-23607142D01*
X99925000Y-23702380D01*
X99877380Y-23845238D01*
X99877380Y-23940476D01*
X99925000Y-24083333D01*
X99972619Y-24130952D01*
X100877380Y-25083333D02*
X100877380Y-24511904D01*
X100877380Y-24797619D02*
X99877380Y-24797619D01*
X100020238Y-24702380D01*
X100115476Y-24607142D01*
X100163095Y-24511904D01*
X99877380Y-25702380D02*
X99877380Y-25797619D01*
X99925000Y-25892857D01*
X99972619Y-25940476D01*
X100067857Y-25988095D01*
X100258333Y-26035714D01*
X100496428Y-26035714D01*
X100686904Y-25988095D01*
X100782142Y-25940476D01*
X100829761Y-25892857D01*
X100877380Y-25797619D01*
X100877380Y-25702380D01*
X100829761Y-25607142D01*
X100782142Y-25559523D01*
X100686904Y-25511904D01*
X100496428Y-25464285D01*
X100258333Y-25464285D01*
X100067857Y-25511904D01*
X99972619Y-25559523D01*
X99925000Y-25607142D01*
X99877380Y-25702380D01*
X100877380Y-26988095D02*
X100877380Y-26416666D01*
X100877380Y-26702380D02*
X99877380Y-26702380D01*
X100020238Y-26607142D01*
X100115476Y-26511904D01*
X100163095Y-26416666D01*
%TO.C,D26*%
X332425035Y-81666681D02*
X331925035Y-80800656D01*
X331718839Y-80919703D01*
X331618930Y-81032371D01*
X331584071Y-81162469D01*
X331590451Y-81268757D01*
X331644449Y-81457524D01*
X331715878Y-81581242D01*
X331852355Y-81722389D01*
X331941214Y-81781058D01*
X332071311Y-81815918D01*
X332218839Y-81785729D01*
X332425035Y-81666681D01*
X331147868Y-81359325D02*
X331082819Y-81341895D01*
X330976531Y-81348275D01*
X330770335Y-81467322D01*
X330711666Y-81556181D01*
X330694236Y-81621229D01*
X330700616Y-81727518D01*
X330748235Y-81809996D01*
X330860903Y-81909905D01*
X331641488Y-82119062D01*
X331105377Y-82428586D01*
X329863070Y-81991132D02*
X330028027Y-81895894D01*
X330134315Y-81889514D01*
X330199364Y-81906944D01*
X330353271Y-81983043D01*
X330489749Y-82124190D01*
X330680225Y-82454105D01*
X330686605Y-82560393D01*
X330669175Y-82625442D01*
X330610506Y-82714300D01*
X330445549Y-82809538D01*
X330339260Y-82815918D01*
X330274212Y-82798488D01*
X330185353Y-82739819D01*
X330066306Y-82533623D01*
X330059926Y-82427334D01*
X330077356Y-82362286D01*
X330136025Y-82273427D01*
X330300982Y-82178189D01*
X330407270Y-82171809D01*
X330472319Y-82189239D01*
X330561177Y-82247908D01*
%TO.C,D112*%
X215315476Y-31702380D02*
X215315476Y-30702380D01*
X215077380Y-30702380D01*
X214934523Y-30750000D01*
X214839285Y-30845238D01*
X214791666Y-30940476D01*
X214744047Y-31130952D01*
X214744047Y-31273809D01*
X214791666Y-31464285D01*
X214839285Y-31559523D01*
X214934523Y-31654761D01*
X215077380Y-31702380D01*
X215315476Y-31702380D01*
X213791666Y-31702380D02*
X214363095Y-31702380D01*
X214077380Y-31702380D02*
X214077380Y-30702380D01*
X214172619Y-30845238D01*
X214267857Y-30940476D01*
X214363095Y-30988095D01*
X212839285Y-31702380D02*
X213410714Y-31702380D01*
X213125000Y-31702380D02*
X213125000Y-30702380D01*
X213220238Y-30845238D01*
X213315476Y-30940476D01*
X213410714Y-30988095D01*
X212458333Y-30797619D02*
X212410714Y-30750000D01*
X212315476Y-30702380D01*
X212077380Y-30702380D01*
X211982142Y-30750000D01*
X211934523Y-30797619D01*
X211886904Y-30892857D01*
X211886904Y-30988095D01*
X211934523Y-31130952D01*
X212505952Y-31702380D01*
X211886904Y-31702380D01*
%TO.C,D127*%
X143365476Y-81652380D02*
X143365476Y-80652380D01*
X143127380Y-80652380D01*
X142984523Y-80700000D01*
X142889285Y-80795238D01*
X142841666Y-80890476D01*
X142794047Y-81080952D01*
X142794047Y-81223809D01*
X142841666Y-81414285D01*
X142889285Y-81509523D01*
X142984523Y-81604761D01*
X143127380Y-81652380D01*
X143365476Y-81652380D01*
X141841666Y-81652380D02*
X142413095Y-81652380D01*
X142127380Y-81652380D02*
X142127380Y-80652380D01*
X142222619Y-80795238D01*
X142317857Y-80890476D01*
X142413095Y-80938095D01*
X141460714Y-80747619D02*
X141413095Y-80700000D01*
X141317857Y-80652380D01*
X141079761Y-80652380D01*
X140984523Y-80700000D01*
X140936904Y-80747619D01*
X140889285Y-80842857D01*
X140889285Y-80938095D01*
X140936904Y-81080952D01*
X141508333Y-81652380D01*
X140889285Y-81652380D01*
X140555952Y-80652380D02*
X139889285Y-80652380D01*
X140317857Y-81652380D01*
%TO.C,R103*%
X94102380Y-24130952D02*
X93626190Y-23797619D01*
X94102380Y-23559523D02*
X93102380Y-23559523D01*
X93102380Y-23940476D01*
X93150000Y-24035714D01*
X93197619Y-24083333D01*
X93292857Y-24130952D01*
X93435714Y-24130952D01*
X93530952Y-24083333D01*
X93578571Y-24035714D01*
X93626190Y-23940476D01*
X93626190Y-23559523D01*
X94102380Y-25083333D02*
X94102380Y-24511904D01*
X94102380Y-24797619D02*
X93102380Y-24797619D01*
X93245238Y-24702380D01*
X93340476Y-24607142D01*
X93388095Y-24511904D01*
X93102380Y-25702380D02*
X93102380Y-25797619D01*
X93150000Y-25892857D01*
X93197619Y-25940476D01*
X93292857Y-25988095D01*
X93483333Y-26035714D01*
X93721428Y-26035714D01*
X93911904Y-25988095D01*
X94007142Y-25940476D01*
X94054761Y-25892857D01*
X94102380Y-25797619D01*
X94102380Y-25702380D01*
X94054761Y-25607142D01*
X94007142Y-25559523D01*
X93911904Y-25511904D01*
X93721428Y-25464285D01*
X93483333Y-25464285D01*
X93292857Y-25511904D01*
X93197619Y-25559523D01*
X93150000Y-25607142D01*
X93102380Y-25702380D01*
X93102380Y-26369047D02*
X93102380Y-26988095D01*
X93483333Y-26654761D01*
X93483333Y-26797619D01*
X93530952Y-26892857D01*
X93578571Y-26940476D01*
X93673809Y-26988095D01*
X93911904Y-26988095D01*
X94007142Y-26940476D01*
X94054761Y-26892857D01*
X94102380Y-26797619D01*
X94102380Y-26511904D01*
X94054761Y-26416666D01*
X94007142Y-26369047D01*
%TO.C,D116*%
X179315476Y-42702380D02*
X179315476Y-41702380D01*
X179077380Y-41702380D01*
X178934523Y-41750000D01*
X178839285Y-41845238D01*
X178791666Y-41940476D01*
X178744047Y-42130952D01*
X178744047Y-42273809D01*
X178791666Y-42464285D01*
X178839285Y-42559523D01*
X178934523Y-42654761D01*
X179077380Y-42702380D01*
X179315476Y-42702380D01*
X177791666Y-42702380D02*
X178363095Y-42702380D01*
X178077380Y-42702380D02*
X178077380Y-41702380D01*
X178172619Y-41845238D01*
X178267857Y-41940476D01*
X178363095Y-41988095D01*
X176839285Y-42702380D02*
X177410714Y-42702380D01*
X177125000Y-42702380D02*
X177125000Y-41702380D01*
X177220238Y-41845238D01*
X177315476Y-41940476D01*
X177410714Y-41988095D01*
X175982142Y-41702380D02*
X176172619Y-41702380D01*
X176267857Y-41750000D01*
X176315476Y-41797619D01*
X176410714Y-41940476D01*
X176458333Y-42130952D01*
X176458333Y-42511904D01*
X176410714Y-42607142D01*
X176363095Y-42654761D01*
X176267857Y-42702380D01*
X176077380Y-42702380D01*
X175982142Y-42654761D01*
X175934523Y-42607142D01*
X175886904Y-42511904D01*
X175886904Y-42273809D01*
X175934523Y-42178571D01*
X175982142Y-42130952D01*
X176077380Y-42083333D01*
X176267857Y-42083333D01*
X176363095Y-42130952D01*
X176410714Y-42178571D01*
X176458333Y-42273809D01*
%TO.C,D118*%
X215315476Y-48702380D02*
X215315476Y-47702380D01*
X215077380Y-47702380D01*
X214934523Y-47750000D01*
X214839285Y-47845238D01*
X214791666Y-47940476D01*
X214744047Y-48130952D01*
X214744047Y-48273809D01*
X214791666Y-48464285D01*
X214839285Y-48559523D01*
X214934523Y-48654761D01*
X215077380Y-48702380D01*
X215315476Y-48702380D01*
X213791666Y-48702380D02*
X214363095Y-48702380D01*
X214077380Y-48702380D02*
X214077380Y-47702380D01*
X214172619Y-47845238D01*
X214267857Y-47940476D01*
X214363095Y-47988095D01*
X212839285Y-48702380D02*
X213410714Y-48702380D01*
X213125000Y-48702380D02*
X213125000Y-47702380D01*
X213220238Y-47845238D01*
X213315476Y-47940476D01*
X213410714Y-47988095D01*
X212267857Y-48130952D02*
X212363095Y-48083333D01*
X212410714Y-48035714D01*
X212458333Y-47940476D01*
X212458333Y-47892857D01*
X212410714Y-47797619D01*
X212363095Y-47750000D01*
X212267857Y-47702380D01*
X212077380Y-47702380D01*
X211982142Y-47750000D01*
X211934523Y-47797619D01*
X211886904Y-47892857D01*
X211886904Y-47940476D01*
X211934523Y-48035714D01*
X211982142Y-48083333D01*
X212077380Y-48130952D01*
X212267857Y-48130952D01*
X212363095Y-48178571D01*
X212410714Y-48226190D01*
X212458333Y-48321428D01*
X212458333Y-48511904D01*
X212410714Y-48607142D01*
X212363095Y-48654761D01*
X212267857Y-48702380D01*
X212077380Y-48702380D01*
X211982142Y-48654761D01*
X211934523Y-48607142D01*
X211886904Y-48511904D01*
X211886904Y-48321428D01*
X211934523Y-48226190D01*
X211982142Y-48178571D01*
X212077380Y-48130952D01*
%TO.C,R9*%
X355802380Y-26083333D02*
X355326190Y-25750000D01*
X355802380Y-25511904D02*
X354802380Y-25511904D01*
X354802380Y-25892857D01*
X354850000Y-25988095D01*
X354897619Y-26035714D01*
X354992857Y-26083333D01*
X355135714Y-26083333D01*
X355230952Y-26035714D01*
X355278571Y-25988095D01*
X355326190Y-25892857D01*
X355326190Y-25511904D01*
X355802380Y-26559523D02*
X355802380Y-26750000D01*
X355754761Y-26845238D01*
X355707142Y-26892857D01*
X355564285Y-26988095D01*
X355373809Y-27035714D01*
X354992857Y-27035714D01*
X354897619Y-26988095D01*
X354850000Y-26940476D01*
X354802380Y-26845238D01*
X354802380Y-26654761D01*
X354850000Y-26559523D01*
X354897619Y-26511904D01*
X354992857Y-26464285D01*
X355230952Y-26464285D01*
X355326190Y-26511904D01*
X355373809Y-26559523D01*
X355421428Y-26654761D01*
X355421428Y-26845238D01*
X355373809Y-26940476D01*
X355326190Y-26988095D01*
X355230952Y-27035714D01*
%TO.C,D14*%
X308189285Y-42652380D02*
X308189285Y-41652380D01*
X307951190Y-41652380D01*
X307808333Y-41700000D01*
X307713095Y-41795238D01*
X307665476Y-41890476D01*
X307617857Y-42080952D01*
X307617857Y-42223809D01*
X307665476Y-42414285D01*
X307713095Y-42509523D01*
X307808333Y-42604761D01*
X307951190Y-42652380D01*
X308189285Y-42652380D01*
X306665476Y-42652380D02*
X307236904Y-42652380D01*
X306951190Y-42652380D02*
X306951190Y-41652380D01*
X307046428Y-41795238D01*
X307141666Y-41890476D01*
X307236904Y-41938095D01*
X305808333Y-41985714D02*
X305808333Y-42652380D01*
X306046428Y-41604761D02*
X306284523Y-42319047D01*
X305665476Y-42319047D01*
%TO.C,D111*%
X197365476Y-30702380D02*
X197365476Y-29702380D01*
X197127380Y-29702380D01*
X196984523Y-29750000D01*
X196889285Y-29845238D01*
X196841666Y-29940476D01*
X196794047Y-30130952D01*
X196794047Y-30273809D01*
X196841666Y-30464285D01*
X196889285Y-30559523D01*
X196984523Y-30654761D01*
X197127380Y-30702380D01*
X197365476Y-30702380D01*
X195841666Y-30702380D02*
X196413095Y-30702380D01*
X196127380Y-30702380D02*
X196127380Y-29702380D01*
X196222619Y-29845238D01*
X196317857Y-29940476D01*
X196413095Y-29988095D01*
X194889285Y-30702380D02*
X195460714Y-30702380D01*
X195175000Y-30702380D02*
X195175000Y-29702380D01*
X195270238Y-29845238D01*
X195365476Y-29940476D01*
X195460714Y-29988095D01*
X193936904Y-30702380D02*
X194508333Y-30702380D01*
X194222619Y-30702380D02*
X194222619Y-29702380D01*
X194317857Y-29845238D01*
X194413095Y-29940476D01*
X194508333Y-29988095D01*
%TO.C,D105*%
X197365476Y-13702380D02*
X197365476Y-12702380D01*
X197127380Y-12702380D01*
X196984523Y-12750000D01*
X196889285Y-12845238D01*
X196841666Y-12940476D01*
X196794047Y-13130952D01*
X196794047Y-13273809D01*
X196841666Y-13464285D01*
X196889285Y-13559523D01*
X196984523Y-13654761D01*
X197127380Y-13702380D01*
X197365476Y-13702380D01*
X195841666Y-13702380D02*
X196413095Y-13702380D01*
X196127380Y-13702380D02*
X196127380Y-12702380D01*
X196222619Y-12845238D01*
X196317857Y-12940476D01*
X196413095Y-12988095D01*
X195222619Y-12702380D02*
X195127380Y-12702380D01*
X195032142Y-12750000D01*
X194984523Y-12797619D01*
X194936904Y-12892857D01*
X194889285Y-13083333D01*
X194889285Y-13321428D01*
X194936904Y-13511904D01*
X194984523Y-13607142D01*
X195032142Y-13654761D01*
X195127380Y-13702380D01*
X195222619Y-13702380D01*
X195317857Y-13654761D01*
X195365476Y-13607142D01*
X195413095Y-13511904D01*
X195460714Y-13321428D01*
X195460714Y-13083333D01*
X195413095Y-12892857D01*
X195365476Y-12797619D01*
X195317857Y-12750000D01*
X195222619Y-12702380D01*
X193984523Y-12702380D02*
X194460714Y-12702380D01*
X194508333Y-13178571D01*
X194460714Y-13130952D01*
X194365476Y-13083333D01*
X194127380Y-13083333D01*
X194032142Y-13130952D01*
X193984523Y-13178571D01*
X193936904Y-13273809D01*
X193936904Y-13511904D01*
X193984523Y-13607142D01*
X194032142Y-13654761D01*
X194127380Y-13702380D01*
X194365476Y-13702380D01*
X194460714Y-13654761D01*
X194508333Y-13607142D01*
%TO.C,D110*%
X179315476Y-25702380D02*
X179315476Y-24702380D01*
X179077380Y-24702380D01*
X178934523Y-24750000D01*
X178839285Y-24845238D01*
X178791666Y-24940476D01*
X178744047Y-25130952D01*
X178744047Y-25273809D01*
X178791666Y-25464285D01*
X178839285Y-25559523D01*
X178934523Y-25654761D01*
X179077380Y-25702380D01*
X179315476Y-25702380D01*
X177791666Y-25702380D02*
X178363095Y-25702380D01*
X178077380Y-25702380D02*
X178077380Y-24702380D01*
X178172619Y-24845238D01*
X178267857Y-24940476D01*
X178363095Y-24988095D01*
X176839285Y-25702380D02*
X177410714Y-25702380D01*
X177125000Y-25702380D02*
X177125000Y-24702380D01*
X177220238Y-24845238D01*
X177315476Y-24940476D01*
X177410714Y-24988095D01*
X176220238Y-24702380D02*
X176125000Y-24702380D01*
X176029761Y-24750000D01*
X175982142Y-24797619D01*
X175934523Y-24892857D01*
X175886904Y-25083333D01*
X175886904Y-25321428D01*
X175934523Y-25511904D01*
X175982142Y-25607142D01*
X176029761Y-25654761D01*
X176125000Y-25702380D01*
X176220238Y-25702380D01*
X176315476Y-25654761D01*
X176363095Y-25607142D01*
X176410714Y-25511904D01*
X176458333Y-25321428D01*
X176458333Y-25083333D01*
X176410714Y-24892857D01*
X176363095Y-24797619D01*
X176315476Y-24750000D01*
X176220238Y-24702380D01*
%TO.C,D117*%
X197365476Y-47702380D02*
X197365476Y-46702380D01*
X197127380Y-46702380D01*
X196984523Y-46750000D01*
X196889285Y-46845238D01*
X196841666Y-46940476D01*
X196794047Y-47130952D01*
X196794047Y-47273809D01*
X196841666Y-47464285D01*
X196889285Y-47559523D01*
X196984523Y-47654761D01*
X197127380Y-47702380D01*
X197365476Y-47702380D01*
X195841666Y-47702380D02*
X196413095Y-47702380D01*
X196127380Y-47702380D02*
X196127380Y-46702380D01*
X196222619Y-46845238D01*
X196317857Y-46940476D01*
X196413095Y-46988095D01*
X194889285Y-47702380D02*
X195460714Y-47702380D01*
X195175000Y-47702380D02*
X195175000Y-46702380D01*
X195270238Y-46845238D01*
X195365476Y-46940476D01*
X195460714Y-46988095D01*
X194555952Y-46702380D02*
X193889285Y-46702380D01*
X194317857Y-47702380D01*
%TO.C,C3*%
X349216666Y-26557142D02*
X349264285Y-26604761D01*
X349407142Y-26652380D01*
X349502380Y-26652380D01*
X349645238Y-26604761D01*
X349740476Y-26509523D01*
X349788095Y-26414285D01*
X349835714Y-26223809D01*
X349835714Y-26080952D01*
X349788095Y-25890476D01*
X349740476Y-25795238D01*
X349645238Y-25700000D01*
X349502380Y-25652380D01*
X349407142Y-25652380D01*
X349264285Y-25700000D01*
X349216666Y-25747619D01*
X348883333Y-25652380D02*
X348264285Y-25652380D01*
X348597619Y-26033333D01*
X348454761Y-26033333D01*
X348359523Y-26080952D01*
X348311904Y-26128571D01*
X348264285Y-26223809D01*
X348264285Y-26461904D01*
X348311904Y-26557142D01*
X348359523Y-26604761D01*
X348454761Y-26652380D01*
X348740476Y-26652380D01*
X348835714Y-26604761D01*
X348883333Y-26557142D01*
%TO.C,D121*%
X161565476Y-58452380D02*
X161565476Y-57452380D01*
X161327380Y-57452380D01*
X161184523Y-57500000D01*
X161089285Y-57595238D01*
X161041666Y-57690476D01*
X160994047Y-57880952D01*
X160994047Y-58023809D01*
X161041666Y-58214285D01*
X161089285Y-58309523D01*
X161184523Y-58404761D01*
X161327380Y-58452380D01*
X161565476Y-58452380D01*
X160041666Y-58452380D02*
X160613095Y-58452380D01*
X160327380Y-58452380D02*
X160327380Y-57452380D01*
X160422619Y-57595238D01*
X160517857Y-57690476D01*
X160613095Y-57738095D01*
X159660714Y-57547619D02*
X159613095Y-57500000D01*
X159517857Y-57452380D01*
X159279761Y-57452380D01*
X159184523Y-57500000D01*
X159136904Y-57547619D01*
X159089285Y-57642857D01*
X159089285Y-57738095D01*
X159136904Y-57880952D01*
X159708333Y-58452380D01*
X159089285Y-58452380D01*
X158136904Y-58452380D02*
X158708333Y-58452380D01*
X158422619Y-58452380D02*
X158422619Y-57452380D01*
X158517857Y-57595238D01*
X158613095Y-57690476D01*
X158708333Y-57738095D01*
%TO.C,D11*%
X254389285Y-30702380D02*
X254389285Y-29702380D01*
X254151190Y-29702380D01*
X254008333Y-29750000D01*
X253913095Y-29845238D01*
X253865476Y-29940476D01*
X253817857Y-30130952D01*
X253817857Y-30273809D01*
X253865476Y-30464285D01*
X253913095Y-30559523D01*
X254008333Y-30654761D01*
X254151190Y-30702380D01*
X254389285Y-30702380D01*
X252865476Y-30702380D02*
X253436904Y-30702380D01*
X253151190Y-30702380D02*
X253151190Y-29702380D01*
X253246428Y-29845238D01*
X253341666Y-29940476D01*
X253436904Y-29988095D01*
X251913095Y-30702380D02*
X252484523Y-30702380D01*
X252198809Y-30702380D02*
X252198809Y-29702380D01*
X252294047Y-29845238D01*
X252389285Y-29940476D01*
X252484523Y-29988095D01*
%TO.C,C4*%
X355091666Y-31607142D02*
X355139285Y-31654761D01*
X355282142Y-31702380D01*
X355377380Y-31702380D01*
X355520238Y-31654761D01*
X355615476Y-31559523D01*
X355663095Y-31464285D01*
X355710714Y-31273809D01*
X355710714Y-31130952D01*
X355663095Y-30940476D01*
X355615476Y-30845238D01*
X355520238Y-30750000D01*
X355377380Y-30702380D01*
X355282142Y-30702380D01*
X355139285Y-30750000D01*
X355091666Y-30797619D01*
X354234523Y-31035714D02*
X354234523Y-31702380D01*
X354472619Y-30654761D02*
X354710714Y-31369047D01*
X354091666Y-31369047D01*
%TO.C,R2*%
X348141666Y-31752380D02*
X348475000Y-31276190D01*
X348713095Y-31752380D02*
X348713095Y-30752380D01*
X348332142Y-30752380D01*
X348236904Y-30800000D01*
X348189285Y-30847619D01*
X348141666Y-30942857D01*
X348141666Y-31085714D01*
X348189285Y-31180952D01*
X348236904Y-31228571D01*
X348332142Y-31276190D01*
X348713095Y-31276190D01*
X347760714Y-30847619D02*
X347713095Y-30800000D01*
X347617857Y-30752380D01*
X347379761Y-30752380D01*
X347284523Y-30800000D01*
X347236904Y-30847619D01*
X347189285Y-30942857D01*
X347189285Y-31038095D01*
X347236904Y-31180952D01*
X347808333Y-31752380D01*
X347189285Y-31752380D01*
%TO.C,D19*%
X326389285Y-62102380D02*
X326389285Y-61102380D01*
X326151190Y-61102380D01*
X326008333Y-61150000D01*
X325913095Y-61245238D01*
X325865476Y-61340476D01*
X325817857Y-61530952D01*
X325817857Y-61673809D01*
X325865476Y-61864285D01*
X325913095Y-61959523D01*
X326008333Y-62054761D01*
X326151190Y-62102380D01*
X326389285Y-62102380D01*
X324865476Y-62102380D02*
X325436904Y-62102380D01*
X325151190Y-62102380D02*
X325151190Y-61102380D01*
X325246428Y-61245238D01*
X325341666Y-61340476D01*
X325436904Y-61388095D01*
X324389285Y-62102380D02*
X324198809Y-62102380D01*
X324103571Y-62054761D01*
X324055952Y-62007142D01*
X323960714Y-61864285D01*
X323913095Y-61673809D01*
X323913095Y-61292857D01*
X323960714Y-61197619D01*
X324008333Y-61150000D01*
X324103571Y-61102380D01*
X324294047Y-61102380D01*
X324389285Y-61150000D01*
X324436904Y-61197619D01*
X324484523Y-61292857D01*
X324484523Y-61530952D01*
X324436904Y-61626190D01*
X324389285Y-61673809D01*
X324294047Y-61721428D01*
X324103571Y-61721428D01*
X324008333Y-61673809D01*
X323960714Y-61626190D01*
X323913095Y-61530952D01*
%TO.C,Y101*%
X116446428Y-26282142D02*
X116446428Y-26639285D01*
X116696428Y-25889285D02*
X116446428Y-26282142D01*
X116196428Y-25889285D01*
X115553571Y-26639285D02*
X115982142Y-26639285D01*
X115767857Y-26639285D02*
X115767857Y-25889285D01*
X115839285Y-25996428D01*
X115910714Y-26067857D01*
X115982142Y-26103571D01*
X115089285Y-25889285D02*
X115017857Y-25889285D01*
X114946428Y-25925000D01*
X114910714Y-25960714D01*
X114875000Y-26032142D01*
X114839285Y-26175000D01*
X114839285Y-26353571D01*
X114875000Y-26496428D01*
X114910714Y-26567857D01*
X114946428Y-26603571D01*
X115017857Y-26639285D01*
X115089285Y-26639285D01*
X115160714Y-26603571D01*
X115196428Y-26567857D01*
X115232142Y-26496428D01*
X115267857Y-26353571D01*
X115267857Y-26175000D01*
X115232142Y-26032142D01*
X115196428Y-25960714D01*
X115160714Y-25925000D01*
X115089285Y-25889285D01*
X114125000Y-26639285D02*
X114553571Y-26639285D01*
X114339285Y-26639285D02*
X114339285Y-25889285D01*
X114410714Y-25996428D01*
X114482142Y-26067857D01*
X114553571Y-26103571D01*
%TO.C,D27*%
X308389285Y-81652380D02*
X308389285Y-80652380D01*
X308151190Y-80652380D01*
X308008333Y-80700000D01*
X307913095Y-80795238D01*
X307865476Y-80890476D01*
X307817857Y-81080952D01*
X307817857Y-81223809D01*
X307865476Y-81414285D01*
X307913095Y-81509523D01*
X308008333Y-81604761D01*
X308151190Y-81652380D01*
X308389285Y-81652380D01*
X307436904Y-80747619D02*
X307389285Y-80700000D01*
X307294047Y-80652380D01*
X307055952Y-80652380D01*
X306960714Y-80700000D01*
X306913095Y-80747619D01*
X306865476Y-80842857D01*
X306865476Y-80938095D01*
X306913095Y-81080952D01*
X307484523Y-81652380D01*
X306865476Y-81652380D01*
X306532142Y-80652380D02*
X305865476Y-80652380D01*
X306294047Y-81652380D01*
%TO.C,R102*%
X101294047Y-31302380D02*
X101627380Y-30826190D01*
X101865476Y-31302380D02*
X101865476Y-30302380D01*
X101484523Y-30302380D01*
X101389285Y-30350000D01*
X101341666Y-30397619D01*
X101294047Y-30492857D01*
X101294047Y-30635714D01*
X101341666Y-30730952D01*
X101389285Y-30778571D01*
X101484523Y-30826190D01*
X101865476Y-30826190D01*
X100341666Y-31302380D02*
X100913095Y-31302380D01*
X100627380Y-31302380D02*
X100627380Y-30302380D01*
X100722619Y-30445238D01*
X100817857Y-30540476D01*
X100913095Y-30588095D01*
X99722619Y-30302380D02*
X99627380Y-30302380D01*
X99532142Y-30350000D01*
X99484523Y-30397619D01*
X99436904Y-30492857D01*
X99389285Y-30683333D01*
X99389285Y-30921428D01*
X99436904Y-31111904D01*
X99484523Y-31207142D01*
X99532142Y-31254761D01*
X99627380Y-31302380D01*
X99722619Y-31302380D01*
X99817857Y-31254761D01*
X99865476Y-31207142D01*
X99913095Y-31111904D01*
X99960714Y-30921428D01*
X99960714Y-30683333D01*
X99913095Y-30492857D01*
X99865476Y-30397619D01*
X99817857Y-30350000D01*
X99722619Y-30302380D01*
X99008333Y-30397619D02*
X98960714Y-30350000D01*
X98865476Y-30302380D01*
X98627380Y-30302380D01*
X98532142Y-30350000D01*
X98484523Y-30397619D01*
X98436904Y-30492857D01*
X98436904Y-30588095D01*
X98484523Y-30730952D01*
X99055952Y-31302380D01*
X98436904Y-31302380D01*
%TO.C,R6*%
X358816666Y-10052380D02*
X359150000Y-9576190D01*
X359388095Y-10052380D02*
X359388095Y-9052380D01*
X359007142Y-9052380D01*
X358911904Y-9100000D01*
X358864285Y-9147619D01*
X358816666Y-9242857D01*
X358816666Y-9385714D01*
X358864285Y-9480952D01*
X358911904Y-9528571D01*
X359007142Y-9576190D01*
X359388095Y-9576190D01*
X357959523Y-9052380D02*
X358150000Y-9052380D01*
X358245238Y-9100000D01*
X358292857Y-9147619D01*
X358388095Y-9290476D01*
X358435714Y-9480952D01*
X358435714Y-9861904D01*
X358388095Y-9957142D01*
X358340476Y-10004761D01*
X358245238Y-10052380D01*
X358054761Y-10052380D01*
X357959523Y-10004761D01*
X357911904Y-9957142D01*
X357864285Y-9861904D01*
X357864285Y-9623809D01*
X357911904Y-9528571D01*
X357959523Y-9480952D01*
X358054761Y-9433333D01*
X358245238Y-9433333D01*
X358340476Y-9480952D01*
X358388095Y-9528571D01*
X358435714Y-9623809D01*
%TO.C,D16*%
X272439285Y-42702380D02*
X272439285Y-41702380D01*
X272201190Y-41702380D01*
X272058333Y-41750000D01*
X271963095Y-41845238D01*
X271915476Y-41940476D01*
X271867857Y-42130952D01*
X271867857Y-42273809D01*
X271915476Y-42464285D01*
X271963095Y-42559523D01*
X272058333Y-42654761D01*
X272201190Y-42702380D01*
X272439285Y-42702380D01*
X270915476Y-42702380D02*
X271486904Y-42702380D01*
X271201190Y-42702380D02*
X271201190Y-41702380D01*
X271296428Y-41845238D01*
X271391666Y-41940476D01*
X271486904Y-41988095D01*
X270058333Y-41702380D02*
X270248809Y-41702380D01*
X270344047Y-41750000D01*
X270391666Y-41797619D01*
X270486904Y-41940476D01*
X270534523Y-42130952D01*
X270534523Y-42511904D01*
X270486904Y-42607142D01*
X270439285Y-42654761D01*
X270344047Y-42702380D01*
X270153571Y-42702380D01*
X270058333Y-42654761D01*
X270010714Y-42607142D01*
X269963095Y-42511904D01*
X269963095Y-42273809D01*
X270010714Y-42178571D01*
X270058333Y-42130952D01*
X270153571Y-42083333D01*
X270344047Y-42083333D01*
X270439285Y-42130952D01*
X270486904Y-42178571D01*
X270534523Y-42273809D01*
%TO.C,D6*%
X235913095Y-14702380D02*
X235913095Y-13702380D01*
X235675000Y-13702380D01*
X235532142Y-13750000D01*
X235436904Y-13845238D01*
X235389285Y-13940476D01*
X235341666Y-14130952D01*
X235341666Y-14273809D01*
X235389285Y-14464285D01*
X235436904Y-14559523D01*
X235532142Y-14654761D01*
X235675000Y-14702380D01*
X235913095Y-14702380D01*
X234484523Y-13702380D02*
X234675000Y-13702380D01*
X234770238Y-13750000D01*
X234817857Y-13797619D01*
X234913095Y-13940476D01*
X234960714Y-14130952D01*
X234960714Y-14511904D01*
X234913095Y-14607142D01*
X234865476Y-14654761D01*
X234770238Y-14702380D01*
X234579761Y-14702380D01*
X234484523Y-14654761D01*
X234436904Y-14607142D01*
X234389285Y-14511904D01*
X234389285Y-14273809D01*
X234436904Y-14178571D01*
X234484523Y-14130952D01*
X234579761Y-14083333D01*
X234770238Y-14083333D01*
X234865476Y-14130952D01*
X234913095Y-14178571D01*
X234960714Y-14273809D01*
%TO.C,Y1*%
X338308333Y-26483333D02*
X338308333Y-26816666D01*
X338541666Y-26116666D02*
X338308333Y-26483333D01*
X338075000Y-26116666D01*
X337475000Y-26816666D02*
X337875000Y-26816666D01*
X337675000Y-26816666D02*
X337675000Y-26116666D01*
X337741666Y-26216666D01*
X337808333Y-26283333D01*
X337875000Y-26316666D01*
%TO.C,D122*%
X179315476Y-59702380D02*
X179315476Y-58702380D01*
X179077380Y-58702380D01*
X178934523Y-58750000D01*
X178839285Y-58845238D01*
X178791666Y-58940476D01*
X178744047Y-59130952D01*
X178744047Y-59273809D01*
X178791666Y-59464285D01*
X178839285Y-59559523D01*
X178934523Y-59654761D01*
X179077380Y-59702380D01*
X179315476Y-59702380D01*
X177791666Y-59702380D02*
X178363095Y-59702380D01*
X178077380Y-59702380D02*
X178077380Y-58702380D01*
X178172619Y-58845238D01*
X178267857Y-58940476D01*
X178363095Y-58988095D01*
X177410714Y-58797619D02*
X177363095Y-58750000D01*
X177267857Y-58702380D01*
X177029761Y-58702380D01*
X176934523Y-58750000D01*
X176886904Y-58797619D01*
X176839285Y-58892857D01*
X176839285Y-58988095D01*
X176886904Y-59130952D01*
X177458333Y-59702380D01*
X176839285Y-59702380D01*
X176458333Y-58797619D02*
X176410714Y-58750000D01*
X176315476Y-58702380D01*
X176077380Y-58702380D01*
X175982142Y-58750000D01*
X175934523Y-58797619D01*
X175886904Y-58892857D01*
X175886904Y-58988095D01*
X175934523Y-59130952D01*
X176505952Y-59702380D01*
X175886904Y-59702380D01*
%TO.C,D21*%
X290189285Y-58452380D02*
X290189285Y-57452380D01*
X289951190Y-57452380D01*
X289808333Y-57500000D01*
X289713095Y-57595238D01*
X289665476Y-57690476D01*
X289617857Y-57880952D01*
X289617857Y-58023809D01*
X289665476Y-58214285D01*
X289713095Y-58309523D01*
X289808333Y-58404761D01*
X289951190Y-58452380D01*
X290189285Y-58452380D01*
X289236904Y-57547619D02*
X289189285Y-57500000D01*
X289094047Y-57452380D01*
X288855952Y-57452380D01*
X288760714Y-57500000D01*
X288713095Y-57547619D01*
X288665476Y-57642857D01*
X288665476Y-57738095D01*
X288713095Y-57880952D01*
X289284523Y-58452380D01*
X288665476Y-58452380D01*
X287713095Y-58452380D02*
X288284523Y-58452380D01*
X287998809Y-58452380D02*
X287998809Y-57452380D01*
X288094047Y-57595238D01*
X288189285Y-57690476D01*
X288284523Y-57738095D01*
%TO.C,D22*%
X272439285Y-59702380D02*
X272439285Y-58702380D01*
X272201190Y-58702380D01*
X272058333Y-58750000D01*
X271963095Y-58845238D01*
X271915476Y-58940476D01*
X271867857Y-59130952D01*
X271867857Y-59273809D01*
X271915476Y-59464285D01*
X271963095Y-59559523D01*
X272058333Y-59654761D01*
X272201190Y-59702380D01*
X272439285Y-59702380D01*
X271486904Y-58797619D02*
X271439285Y-58750000D01*
X271344047Y-58702380D01*
X271105952Y-58702380D01*
X271010714Y-58750000D01*
X270963095Y-58797619D01*
X270915476Y-58892857D01*
X270915476Y-58988095D01*
X270963095Y-59130952D01*
X271534523Y-59702380D01*
X270915476Y-59702380D01*
X270534523Y-58797619D02*
X270486904Y-58750000D01*
X270391666Y-58702380D01*
X270153571Y-58702380D01*
X270058333Y-58750000D01*
X270010714Y-58797619D01*
X269963095Y-58892857D01*
X269963095Y-58988095D01*
X270010714Y-59130952D01*
X270582142Y-59702380D01*
X269963095Y-59702380D01*
D14*
%TO.C,C105*%
X105603571Y-30190476D02*
X105627380Y-30166666D01*
X105651190Y-30095238D01*
X105651190Y-30047619D01*
X105627380Y-29976190D01*
X105579761Y-29928571D01*
X105532142Y-29904761D01*
X105436904Y-29880952D01*
X105365476Y-29880952D01*
X105270238Y-29904761D01*
X105222619Y-29928571D01*
X105175000Y-29976190D01*
X105151190Y-30047619D01*
X105151190Y-30095238D01*
X105175000Y-30166666D01*
X105198809Y-30190476D01*
X105651190Y-30666666D02*
X105651190Y-30380952D01*
X105651190Y-30523809D02*
X105151190Y-30523809D01*
X105222619Y-30476190D01*
X105270238Y-30428571D01*
X105294047Y-30380952D01*
X105151190Y-30976190D02*
X105151190Y-31023809D01*
X105175000Y-31071428D01*
X105198809Y-31095238D01*
X105246428Y-31119047D01*
X105341666Y-31142857D01*
X105460714Y-31142857D01*
X105555952Y-31119047D01*
X105603571Y-31095238D01*
X105627380Y-31071428D01*
X105651190Y-31023809D01*
X105651190Y-30976190D01*
X105627380Y-30928571D01*
X105603571Y-30904761D01*
X105555952Y-30880952D01*
X105460714Y-30857142D01*
X105341666Y-30857142D01*
X105246428Y-30880952D01*
X105198809Y-30904761D01*
X105175000Y-30928571D01*
X105151190Y-30976190D01*
X105151190Y-31595238D02*
X105151190Y-31357142D01*
X105389285Y-31333333D01*
X105365476Y-31357142D01*
X105341666Y-31404761D01*
X105341666Y-31523809D01*
X105365476Y-31571428D01*
X105389285Y-31595238D01*
X105436904Y-31619047D01*
X105555952Y-31619047D01*
X105603571Y-31595238D01*
X105627380Y-31571428D01*
X105651190Y-31523809D01*
X105651190Y-31404761D01*
X105627380Y-31357142D01*
X105603571Y-31333333D01*
D10*
%TO.C,D17*%
X254389285Y-47702380D02*
X254389285Y-46702380D01*
X254151190Y-46702380D01*
X254008333Y-46750000D01*
X253913095Y-46845238D01*
X253865476Y-46940476D01*
X253817857Y-47130952D01*
X253817857Y-47273809D01*
X253865476Y-47464285D01*
X253913095Y-47559523D01*
X254008333Y-47654761D01*
X254151190Y-47702380D01*
X254389285Y-47702380D01*
X252865476Y-47702380D02*
X253436904Y-47702380D01*
X253151190Y-47702380D02*
X253151190Y-46702380D01*
X253246428Y-46845238D01*
X253341666Y-46940476D01*
X253436904Y-46988095D01*
X252532142Y-46702380D02*
X251865476Y-46702380D01*
X252294047Y-47702380D01*
%TO.C,C2*%
X342841666Y-31857142D02*
X342889285Y-31904761D01*
X343032142Y-31952380D01*
X343127380Y-31952380D01*
X343270238Y-31904761D01*
X343365476Y-31809523D01*
X343413095Y-31714285D01*
X343460714Y-31523809D01*
X343460714Y-31380952D01*
X343413095Y-31190476D01*
X343365476Y-31095238D01*
X343270238Y-31000000D01*
X343127380Y-30952380D01*
X343032142Y-30952380D01*
X342889285Y-31000000D01*
X342841666Y-31047619D01*
X342460714Y-31047619D02*
X342413095Y-31000000D01*
X342317857Y-30952380D01*
X342079761Y-30952380D01*
X341984523Y-31000000D01*
X341936904Y-31047619D01*
X341889285Y-31142857D01*
X341889285Y-31238095D01*
X341936904Y-31380952D01*
X342508333Y-31952380D01*
X341889285Y-31952380D01*
D15*
%TO.C,J106*%
X111816986Y-27514240D02*
X112533044Y-27514240D01*
X112676255Y-27466503D01*
X112771729Y-27371028D01*
X112819466Y-27227817D01*
X112819466Y-27132343D01*
X112819466Y-28516720D02*
X112819466Y-27943874D01*
X112819466Y-28230297D02*
X111816986Y-28230297D01*
X111960198Y-28134823D01*
X112055672Y-28039348D01*
X112103409Y-27943874D01*
X111816986Y-29137303D02*
X111816986Y-29232777D01*
X111864724Y-29328251D01*
X111912461Y-29375988D01*
X112007935Y-29423725D01*
X112198884Y-29471463D01*
X112437569Y-29471463D01*
X112628518Y-29423725D01*
X112723992Y-29375988D01*
X112771729Y-29328251D01*
X112819466Y-29232777D01*
X112819466Y-29137303D01*
X112771729Y-29041828D01*
X112723992Y-28994091D01*
X112628518Y-28946354D01*
X112437569Y-28898617D01*
X112198884Y-28898617D01*
X112007935Y-28946354D01*
X111912461Y-28994091D01*
X111864724Y-29041828D01*
X111816986Y-29137303D01*
X111816986Y-30330731D02*
X111816986Y-30139783D01*
X111864724Y-30044308D01*
X111912461Y-29996571D01*
X112055672Y-29901097D01*
X112246621Y-29853360D01*
X112628518Y-29853360D01*
X112723992Y-29901097D01*
X112771729Y-29948834D01*
X112819466Y-30044308D01*
X112819466Y-30235257D01*
X112771729Y-30330731D01*
X112723992Y-30378468D01*
X112628518Y-30426205D01*
X112389832Y-30426205D01*
X112294358Y-30378468D01*
X112246621Y-30330731D01*
X112198884Y-30235257D01*
X112198884Y-30044308D01*
X112246621Y-29948834D01*
X112294358Y-29901097D01*
X112389832Y-29853360D01*
D10*
%TO.C,D2*%
X307713095Y-8752380D02*
X307713095Y-7752380D01*
X307475000Y-7752380D01*
X307332142Y-7800000D01*
X307236904Y-7895238D01*
X307189285Y-7990476D01*
X307141666Y-8180952D01*
X307141666Y-8323809D01*
X307189285Y-8514285D01*
X307236904Y-8609523D01*
X307332142Y-8704761D01*
X307475000Y-8752380D01*
X307713095Y-8752380D01*
X306760714Y-7847619D02*
X306713095Y-7800000D01*
X306617857Y-7752380D01*
X306379761Y-7752380D01*
X306284523Y-7800000D01*
X306236904Y-7847619D01*
X306189285Y-7942857D01*
X306189285Y-8038095D01*
X306236904Y-8180952D01*
X306808333Y-8752380D01*
X306189285Y-8752380D01*
%TO.C,D7*%
X325963095Y-28102380D02*
X325963095Y-27102380D01*
X325725000Y-27102380D01*
X325582142Y-27150000D01*
X325486904Y-27245238D01*
X325439285Y-27340476D01*
X325391666Y-27530952D01*
X325391666Y-27673809D01*
X325439285Y-27864285D01*
X325486904Y-27959523D01*
X325582142Y-28054761D01*
X325725000Y-28102380D01*
X325963095Y-28102380D01*
X325058333Y-27102380D02*
X324391666Y-27102380D01*
X324820238Y-28102380D01*
%TO.C,R108*%
X104719047Y-14952380D02*
X105052380Y-14476190D01*
X105290476Y-14952380D02*
X105290476Y-13952380D01*
X104909523Y-13952380D01*
X104814285Y-14000000D01*
X104766666Y-14047619D01*
X104719047Y-14142857D01*
X104719047Y-14285714D01*
X104766666Y-14380952D01*
X104814285Y-14428571D01*
X104909523Y-14476190D01*
X105290476Y-14476190D01*
X103766666Y-14952380D02*
X104338095Y-14952380D01*
X104052380Y-14952380D02*
X104052380Y-13952380D01*
X104147619Y-14095238D01*
X104242857Y-14190476D01*
X104338095Y-14238095D01*
X103147619Y-13952380D02*
X103052380Y-13952380D01*
X102957142Y-14000000D01*
X102909523Y-14047619D01*
X102861904Y-14142857D01*
X102814285Y-14333333D01*
X102814285Y-14571428D01*
X102861904Y-14761904D01*
X102909523Y-14857142D01*
X102957142Y-14904761D01*
X103052380Y-14952380D01*
X103147619Y-14952380D01*
X103242857Y-14904761D01*
X103290476Y-14857142D01*
X103338095Y-14761904D01*
X103385714Y-14571428D01*
X103385714Y-14333333D01*
X103338095Y-14142857D01*
X103290476Y-14047619D01*
X103242857Y-14000000D01*
X103147619Y-13952380D01*
X102242857Y-14380952D02*
X102338095Y-14333333D01*
X102385714Y-14285714D01*
X102433333Y-14190476D01*
X102433333Y-14142857D01*
X102385714Y-14047619D01*
X102338095Y-14000000D01*
X102242857Y-13952380D01*
X102052380Y-13952380D01*
X101957142Y-14000000D01*
X101909523Y-14047619D01*
X101861904Y-14142857D01*
X101861904Y-14190476D01*
X101909523Y-14285714D01*
X101957142Y-14333333D01*
X102052380Y-14380952D01*
X102242857Y-14380952D01*
X102338095Y-14428571D01*
X102385714Y-14476190D01*
X102433333Y-14571428D01*
X102433333Y-14761904D01*
X102385714Y-14857142D01*
X102338095Y-14904761D01*
X102242857Y-14952380D01*
X102052380Y-14952380D01*
X101957142Y-14904761D01*
X101909523Y-14857142D01*
X101861904Y-14761904D01*
X101861904Y-14571428D01*
X101909523Y-14476190D01*
X101957142Y-14428571D01*
X102052380Y-14380952D01*
%TO.C,D113*%
X125365476Y-45102380D02*
X125365476Y-44102380D01*
X125127380Y-44102380D01*
X124984523Y-44150000D01*
X124889285Y-44245238D01*
X124841666Y-44340476D01*
X124794047Y-44530952D01*
X124794047Y-44673809D01*
X124841666Y-44864285D01*
X124889285Y-44959523D01*
X124984523Y-45054761D01*
X125127380Y-45102380D01*
X125365476Y-45102380D01*
X123841666Y-45102380D02*
X124413095Y-45102380D01*
X124127380Y-45102380D02*
X124127380Y-44102380D01*
X124222619Y-44245238D01*
X124317857Y-44340476D01*
X124413095Y-44388095D01*
X122889285Y-45102380D02*
X123460714Y-45102380D01*
X123175000Y-45102380D02*
X123175000Y-44102380D01*
X123270238Y-44245238D01*
X123365476Y-44340476D01*
X123460714Y-44388095D01*
X122555952Y-44102380D02*
X121936904Y-44102380D01*
X122270238Y-44483333D01*
X122127380Y-44483333D01*
X122032142Y-44530952D01*
X121984523Y-44578571D01*
X121936904Y-44673809D01*
X121936904Y-44911904D01*
X121984523Y-45007142D01*
X122032142Y-45054761D01*
X122127380Y-45102380D01*
X122413095Y-45102380D01*
X122508333Y-45054761D01*
X122555952Y-45007142D01*
%TO.C,C103*%
X121994047Y-28757142D02*
X122041666Y-28804761D01*
X122184523Y-28852380D01*
X122279761Y-28852380D01*
X122422619Y-28804761D01*
X122517857Y-28709523D01*
X122565476Y-28614285D01*
X122613095Y-28423809D01*
X122613095Y-28280952D01*
X122565476Y-28090476D01*
X122517857Y-27995238D01*
X122422619Y-27900000D01*
X122279761Y-27852380D01*
X122184523Y-27852380D01*
X122041666Y-27900000D01*
X121994047Y-27947619D01*
X121041666Y-28852380D02*
X121613095Y-28852380D01*
X121327380Y-28852380D02*
X121327380Y-27852380D01*
X121422619Y-27995238D01*
X121517857Y-28090476D01*
X121613095Y-28138095D01*
X120422619Y-27852380D02*
X120327380Y-27852380D01*
X120232142Y-27900000D01*
X120184523Y-27947619D01*
X120136904Y-28042857D01*
X120089285Y-28233333D01*
X120089285Y-28471428D01*
X120136904Y-28661904D01*
X120184523Y-28757142D01*
X120232142Y-28804761D01*
X120327380Y-28852380D01*
X120422619Y-28852380D01*
X120517857Y-28804761D01*
X120565476Y-28757142D01*
X120613095Y-28661904D01*
X120660714Y-28471428D01*
X120660714Y-28233333D01*
X120613095Y-28042857D01*
X120565476Y-27947619D01*
X120517857Y-27900000D01*
X120422619Y-27852380D01*
X119755952Y-27852380D02*
X119136904Y-27852380D01*
X119470238Y-28233333D01*
X119327380Y-28233333D01*
X119232142Y-28280952D01*
X119184523Y-28328571D01*
X119136904Y-28423809D01*
X119136904Y-28661904D01*
X119184523Y-28757142D01*
X119232142Y-28804761D01*
X119327380Y-28852380D01*
X119613095Y-28852380D01*
X119708333Y-28804761D01*
X119755952Y-28757142D01*
%TO.C,R106*%
X107044047Y-9652380D02*
X107377380Y-9176190D01*
X107615476Y-9652380D02*
X107615476Y-8652380D01*
X107234523Y-8652380D01*
X107139285Y-8700000D01*
X107091666Y-8747619D01*
X107044047Y-8842857D01*
X107044047Y-8985714D01*
X107091666Y-9080952D01*
X107139285Y-9128571D01*
X107234523Y-9176190D01*
X107615476Y-9176190D01*
X106091666Y-9652380D02*
X106663095Y-9652380D01*
X106377380Y-9652380D02*
X106377380Y-8652380D01*
X106472619Y-8795238D01*
X106567857Y-8890476D01*
X106663095Y-8938095D01*
X105472619Y-8652380D02*
X105377380Y-8652380D01*
X105282142Y-8700000D01*
X105234523Y-8747619D01*
X105186904Y-8842857D01*
X105139285Y-9033333D01*
X105139285Y-9271428D01*
X105186904Y-9461904D01*
X105234523Y-9557142D01*
X105282142Y-9604761D01*
X105377380Y-9652380D01*
X105472619Y-9652380D01*
X105567857Y-9604761D01*
X105615476Y-9557142D01*
X105663095Y-9461904D01*
X105710714Y-9271428D01*
X105710714Y-9033333D01*
X105663095Y-8842857D01*
X105615476Y-8747619D01*
X105567857Y-8700000D01*
X105472619Y-8652380D01*
X104282142Y-8652380D02*
X104472619Y-8652380D01*
X104567857Y-8700000D01*
X104615476Y-8747619D01*
X104710714Y-8890476D01*
X104758333Y-9080952D01*
X104758333Y-9461904D01*
X104710714Y-9557142D01*
X104663095Y-9604761D01*
X104567857Y-9652380D01*
X104377380Y-9652380D01*
X104282142Y-9604761D01*
X104234523Y-9557142D01*
X104186904Y-9461904D01*
X104186904Y-9223809D01*
X104234523Y-9128571D01*
X104282142Y-9080952D01*
X104377380Y-9033333D01*
X104567857Y-9033333D01*
X104663095Y-9080952D01*
X104710714Y-9128571D01*
X104758333Y-9223809D01*
%TO.C,R4*%
X331516666Y-35952380D02*
X331850000Y-35476190D01*
X332088095Y-35952380D02*
X332088095Y-34952380D01*
X331707142Y-34952380D01*
X331611904Y-35000000D01*
X331564285Y-35047619D01*
X331516666Y-35142857D01*
X331516666Y-35285714D01*
X331564285Y-35380952D01*
X331611904Y-35428571D01*
X331707142Y-35476190D01*
X332088095Y-35476190D01*
X330659523Y-35285714D02*
X330659523Y-35952380D01*
X330897619Y-34904761D02*
X331135714Y-35619047D01*
X330516666Y-35619047D01*
%TO.C,D10*%
X272439285Y-25702380D02*
X272439285Y-24702380D01*
X272201190Y-24702380D01*
X272058333Y-24750000D01*
X271963095Y-24845238D01*
X271915476Y-24940476D01*
X271867857Y-25130952D01*
X271867857Y-25273809D01*
X271915476Y-25464285D01*
X271963095Y-25559523D01*
X272058333Y-25654761D01*
X272201190Y-25702380D01*
X272439285Y-25702380D01*
X270915476Y-25702380D02*
X271486904Y-25702380D01*
X271201190Y-25702380D02*
X271201190Y-24702380D01*
X271296428Y-24845238D01*
X271391666Y-24940476D01*
X271486904Y-24988095D01*
X270296428Y-24702380D02*
X270201190Y-24702380D01*
X270105952Y-24750000D01*
X270058333Y-24797619D01*
X270010714Y-24892857D01*
X269963095Y-25083333D01*
X269963095Y-25321428D01*
X270010714Y-25511904D01*
X270058333Y-25607142D01*
X270105952Y-25654761D01*
X270201190Y-25702380D01*
X270296428Y-25702380D01*
X270391666Y-25654761D01*
X270439285Y-25607142D01*
X270486904Y-25511904D01*
X270534523Y-25321428D01*
X270534523Y-25083333D01*
X270486904Y-24892857D01*
X270439285Y-24797619D01*
X270391666Y-24750000D01*
X270296428Y-24702380D01*
%TO.C,D123*%
X197315476Y-64702380D02*
X197315476Y-63702380D01*
X197077380Y-63702380D01*
X196934523Y-63750000D01*
X196839285Y-63845238D01*
X196791666Y-63940476D01*
X196744047Y-64130952D01*
X196744047Y-64273809D01*
X196791666Y-64464285D01*
X196839285Y-64559523D01*
X196934523Y-64654761D01*
X197077380Y-64702380D01*
X197315476Y-64702380D01*
X195791666Y-64702380D02*
X196363095Y-64702380D01*
X196077380Y-64702380D02*
X196077380Y-63702380D01*
X196172619Y-63845238D01*
X196267857Y-63940476D01*
X196363095Y-63988095D01*
X195410714Y-63797619D02*
X195363095Y-63750000D01*
X195267857Y-63702380D01*
X195029761Y-63702380D01*
X194934523Y-63750000D01*
X194886904Y-63797619D01*
X194839285Y-63892857D01*
X194839285Y-63988095D01*
X194886904Y-64130952D01*
X195458333Y-64702380D01*
X194839285Y-64702380D01*
X194505952Y-63702380D02*
X193886904Y-63702380D01*
X194220238Y-64083333D01*
X194077380Y-64083333D01*
X193982142Y-64130952D01*
X193934523Y-64178571D01*
X193886904Y-64273809D01*
X193886904Y-64511904D01*
X193934523Y-64607142D01*
X193982142Y-64654761D01*
X194077380Y-64702380D01*
X194363095Y-64702380D01*
X194458333Y-64654761D01*
X194505952Y-64607142D01*
%TO.C,D12*%
X236439285Y-31702380D02*
X236439285Y-30702380D01*
X236201190Y-30702380D01*
X236058333Y-30750000D01*
X235963095Y-30845238D01*
X235915476Y-30940476D01*
X235867857Y-31130952D01*
X235867857Y-31273809D01*
X235915476Y-31464285D01*
X235963095Y-31559523D01*
X236058333Y-31654761D01*
X236201190Y-31702380D01*
X236439285Y-31702380D01*
X234915476Y-31702380D02*
X235486904Y-31702380D01*
X235201190Y-31702380D02*
X235201190Y-30702380D01*
X235296428Y-30845238D01*
X235391666Y-30940476D01*
X235486904Y-30988095D01*
X234534523Y-30797619D02*
X234486904Y-30750000D01*
X234391666Y-30702380D01*
X234153571Y-30702380D01*
X234058333Y-30750000D01*
X234010714Y-30797619D01*
X233963095Y-30892857D01*
X233963095Y-30988095D01*
X234010714Y-31130952D01*
X234582142Y-31702380D01*
X233963095Y-31702380D01*
D15*
%TO.C,J9*%
X335835058Y-29212697D02*
X336551116Y-29212697D01*
X336694327Y-29164959D01*
X336789801Y-29069485D01*
X336837538Y-28926274D01*
X336837538Y-28830799D01*
X336837538Y-29737805D02*
X336837538Y-29928754D01*
X336789801Y-30024228D01*
X336742064Y-30071965D01*
X336598853Y-30167439D01*
X336407904Y-30215177D01*
X336026007Y-30215177D01*
X335930533Y-30167439D01*
X335882796Y-30119702D01*
X335835058Y-30024228D01*
X335835058Y-29833279D01*
X335882796Y-29737805D01*
X335930533Y-29690068D01*
X336026007Y-29642331D01*
X336264693Y-29642331D01*
X336360167Y-29690068D01*
X336407904Y-29737805D01*
X336455641Y-29833279D01*
X336455641Y-30024228D01*
X336407904Y-30119702D01*
X336360167Y-30167439D01*
X336264693Y-30215177D01*
D10*
%TO.C,C107*%
X98962142Y-56180952D02*
X99009761Y-56133333D01*
X99057380Y-55990476D01*
X99057380Y-55895238D01*
X99009761Y-55752380D01*
X98914523Y-55657142D01*
X98819285Y-55609523D01*
X98628809Y-55561904D01*
X98485952Y-55561904D01*
X98295476Y-55609523D01*
X98200238Y-55657142D01*
X98105000Y-55752380D01*
X98057380Y-55895238D01*
X98057380Y-55990476D01*
X98105000Y-56133333D01*
X98152619Y-56180952D01*
X99057380Y-57133333D02*
X99057380Y-56561904D01*
X99057380Y-56847619D02*
X98057380Y-56847619D01*
X98200238Y-56752380D01*
X98295476Y-56657142D01*
X98343095Y-56561904D01*
X98057380Y-57752380D02*
X98057380Y-57847619D01*
X98105000Y-57942857D01*
X98152619Y-57990476D01*
X98247857Y-58038095D01*
X98438333Y-58085714D01*
X98676428Y-58085714D01*
X98866904Y-58038095D01*
X98962142Y-57990476D01*
X99009761Y-57942857D01*
X99057380Y-57847619D01*
X99057380Y-57752380D01*
X99009761Y-57657142D01*
X98962142Y-57609523D01*
X98866904Y-57561904D01*
X98676428Y-57514285D01*
X98438333Y-57514285D01*
X98247857Y-57561904D01*
X98152619Y-57609523D01*
X98105000Y-57657142D01*
X98057380Y-57752380D01*
X98057380Y-58419047D02*
X98057380Y-59085714D01*
X99057380Y-58657142D01*
%TO.C,D114*%
X143565476Y-42652380D02*
X143565476Y-41652380D01*
X143327380Y-41652380D01*
X143184523Y-41700000D01*
X143089285Y-41795238D01*
X143041666Y-41890476D01*
X142994047Y-42080952D01*
X142994047Y-42223809D01*
X143041666Y-42414285D01*
X143089285Y-42509523D01*
X143184523Y-42604761D01*
X143327380Y-42652380D01*
X143565476Y-42652380D01*
X142041666Y-42652380D02*
X142613095Y-42652380D01*
X142327380Y-42652380D02*
X142327380Y-41652380D01*
X142422619Y-41795238D01*
X142517857Y-41890476D01*
X142613095Y-41938095D01*
X141089285Y-42652380D02*
X141660714Y-42652380D01*
X141375000Y-42652380D02*
X141375000Y-41652380D01*
X141470238Y-41795238D01*
X141565476Y-41890476D01*
X141660714Y-41938095D01*
X140232142Y-41985714D02*
X140232142Y-42652380D01*
X140470238Y-41604761D02*
X140708333Y-42319047D01*
X140089285Y-42319047D01*
%TO.C,D28*%
X290389285Y-80352380D02*
X290389285Y-79352380D01*
X290151190Y-79352380D01*
X290008333Y-79400000D01*
X289913095Y-79495238D01*
X289865476Y-79590476D01*
X289817857Y-79780952D01*
X289817857Y-79923809D01*
X289865476Y-80114285D01*
X289913095Y-80209523D01*
X290008333Y-80304761D01*
X290151190Y-80352380D01*
X290389285Y-80352380D01*
X289436904Y-79447619D02*
X289389285Y-79400000D01*
X289294047Y-79352380D01*
X289055952Y-79352380D01*
X288960714Y-79400000D01*
X288913095Y-79447619D01*
X288865476Y-79542857D01*
X288865476Y-79638095D01*
X288913095Y-79780952D01*
X289484523Y-80352380D01*
X288865476Y-80352380D01*
X288294047Y-79780952D02*
X288389285Y-79733333D01*
X288436904Y-79685714D01*
X288484523Y-79590476D01*
X288484523Y-79542857D01*
X288436904Y-79447619D01*
X288389285Y-79400000D01*
X288294047Y-79352380D01*
X288103571Y-79352380D01*
X288008333Y-79400000D01*
X287960714Y-79447619D01*
X287913095Y-79542857D01*
X287913095Y-79590476D01*
X287960714Y-79685714D01*
X288008333Y-79733333D01*
X288103571Y-79780952D01*
X288294047Y-79780952D01*
X288389285Y-79828571D01*
X288436904Y-79876190D01*
X288484523Y-79971428D01*
X288484523Y-80161904D01*
X288436904Y-80257142D01*
X288389285Y-80304761D01*
X288294047Y-80352380D01*
X288103571Y-80352380D01*
X288008333Y-80304761D01*
X287960714Y-80257142D01*
X287913095Y-80161904D01*
X287913095Y-79971428D01*
X287960714Y-79876190D01*
X288008333Y-79828571D01*
X288103571Y-79780952D01*
%TO.C,D20*%
X308389285Y-59752380D02*
X308389285Y-58752380D01*
X308151190Y-58752380D01*
X308008333Y-58800000D01*
X307913095Y-58895238D01*
X307865476Y-58990476D01*
X307817857Y-59180952D01*
X307817857Y-59323809D01*
X307865476Y-59514285D01*
X307913095Y-59609523D01*
X308008333Y-59704761D01*
X308151190Y-59752380D01*
X308389285Y-59752380D01*
X307436904Y-58847619D02*
X307389285Y-58800000D01*
X307294047Y-58752380D01*
X307055952Y-58752380D01*
X306960714Y-58800000D01*
X306913095Y-58847619D01*
X306865476Y-58942857D01*
X306865476Y-59038095D01*
X306913095Y-59180952D01*
X307484523Y-59752380D01*
X306865476Y-59752380D01*
X306246428Y-58752380D02*
X306151190Y-58752380D01*
X306055952Y-58800000D01*
X306008333Y-58847619D01*
X305960714Y-58942857D01*
X305913095Y-59133333D01*
X305913095Y-59371428D01*
X305960714Y-59561904D01*
X306008333Y-59657142D01*
X306055952Y-59704761D01*
X306151190Y-59752380D01*
X306246428Y-59752380D01*
X306341666Y-59704761D01*
X306389285Y-59657142D01*
X306436904Y-59561904D01*
X306484523Y-59371428D01*
X306484523Y-59133333D01*
X306436904Y-58942857D01*
X306389285Y-58847619D01*
X306341666Y-58800000D01*
X306246428Y-58752380D01*
%TO.C,U3*%
X345063904Y-20952380D02*
X345063904Y-21761904D01*
X345016285Y-21857142D01*
X344968666Y-21904761D01*
X344873428Y-21952380D01*
X344682952Y-21952380D01*
X344587714Y-21904761D01*
X344540095Y-21857142D01*
X344492476Y-21761904D01*
X344492476Y-20952380D01*
X344111523Y-20952380D02*
X343492476Y-20952380D01*
X343825809Y-21333333D01*
X343682952Y-21333333D01*
X343587714Y-21380952D01*
X343540095Y-21428571D01*
X343492476Y-21523809D01*
X343492476Y-21761904D01*
X343540095Y-21857142D01*
X343587714Y-21904761D01*
X343682952Y-21952380D01*
X343968666Y-21952380D01*
X344063904Y-21904761D01*
X344111523Y-21857142D01*
%TO.C,R8*%
X355616666Y-14982380D02*
X355950000Y-14506190D01*
X356188095Y-14982380D02*
X356188095Y-13982380D01*
X355807142Y-13982380D01*
X355711904Y-14030000D01*
X355664285Y-14077619D01*
X355616666Y-14172857D01*
X355616666Y-14315714D01*
X355664285Y-14410952D01*
X355711904Y-14458571D01*
X355807142Y-14506190D01*
X356188095Y-14506190D01*
X355045238Y-14410952D02*
X355140476Y-14363333D01*
X355188095Y-14315714D01*
X355235714Y-14220476D01*
X355235714Y-14172857D01*
X355188095Y-14077619D01*
X355140476Y-14030000D01*
X355045238Y-13982380D01*
X354854761Y-13982380D01*
X354759523Y-14030000D01*
X354711904Y-14077619D01*
X354664285Y-14172857D01*
X354664285Y-14220476D01*
X354711904Y-14315714D01*
X354759523Y-14363333D01*
X354854761Y-14410952D01*
X355045238Y-14410952D01*
X355140476Y-14458571D01*
X355188095Y-14506190D01*
X355235714Y-14601428D01*
X355235714Y-14791904D01*
X355188095Y-14887142D01*
X355140476Y-14934761D01*
X355045238Y-14982380D01*
X354854761Y-14982380D01*
X354759523Y-14934761D01*
X354711904Y-14887142D01*
X354664285Y-14791904D01*
X354664285Y-14601428D01*
X354711904Y-14506190D01*
X354759523Y-14458571D01*
X354854761Y-14410952D01*
%TO.C,D4*%
X271913095Y-8702380D02*
X271913095Y-7702380D01*
X271675000Y-7702380D01*
X271532142Y-7750000D01*
X271436904Y-7845238D01*
X271389285Y-7940476D01*
X271341666Y-8130952D01*
X271341666Y-8273809D01*
X271389285Y-8464285D01*
X271436904Y-8559523D01*
X271532142Y-8654761D01*
X271675000Y-8702380D01*
X271913095Y-8702380D01*
X270484523Y-8035714D02*
X270484523Y-8702380D01*
X270722619Y-7654761D02*
X270960714Y-8369047D01*
X270341666Y-8369047D01*
%TO.C,R107*%
X94470238Y-15161904D02*
X94736904Y-14780952D01*
X94927380Y-15161904D02*
X94927380Y-14361904D01*
X94622619Y-14361904D01*
X94546428Y-14400000D01*
X94508333Y-14438095D01*
X94470238Y-14514285D01*
X94470238Y-14628571D01*
X94508333Y-14704761D01*
X94546428Y-14742857D01*
X94622619Y-14780952D01*
X94927380Y-14780952D01*
X93708333Y-15161904D02*
X94165476Y-15161904D01*
X93936904Y-15161904D02*
X93936904Y-14361904D01*
X94013095Y-14476190D01*
X94089285Y-14552380D01*
X94165476Y-14590476D01*
X93213095Y-14361904D02*
X93136904Y-14361904D01*
X93060714Y-14400000D01*
X93022619Y-14438095D01*
X92984523Y-14514285D01*
X92946428Y-14666666D01*
X92946428Y-14857142D01*
X92984523Y-15009523D01*
X93022619Y-15085714D01*
X93060714Y-15123809D01*
X93136904Y-15161904D01*
X93213095Y-15161904D01*
X93289285Y-15123809D01*
X93327380Y-15085714D01*
X93365476Y-15009523D01*
X93403571Y-14857142D01*
X93403571Y-14666666D01*
X93365476Y-14514285D01*
X93327380Y-14438095D01*
X93289285Y-14400000D01*
X93213095Y-14361904D01*
X92679761Y-14361904D02*
X92146428Y-14361904D01*
X92489285Y-15161904D01*
%TO.C,D115*%
X161365476Y-41402380D02*
X161365476Y-40402380D01*
X161127380Y-40402380D01*
X160984523Y-40450000D01*
X160889285Y-40545238D01*
X160841666Y-40640476D01*
X160794047Y-40830952D01*
X160794047Y-40973809D01*
X160841666Y-41164285D01*
X160889285Y-41259523D01*
X160984523Y-41354761D01*
X161127380Y-41402380D01*
X161365476Y-41402380D01*
X159841666Y-41402380D02*
X160413095Y-41402380D01*
X160127380Y-41402380D02*
X160127380Y-40402380D01*
X160222619Y-40545238D01*
X160317857Y-40640476D01*
X160413095Y-40688095D01*
X158889285Y-41402380D02*
X159460714Y-41402380D01*
X159175000Y-41402380D02*
X159175000Y-40402380D01*
X159270238Y-40545238D01*
X159365476Y-40640476D01*
X159460714Y-40688095D01*
X157984523Y-40402380D02*
X158460714Y-40402380D01*
X158508333Y-40878571D01*
X158460714Y-40830952D01*
X158365476Y-40783333D01*
X158127380Y-40783333D01*
X158032142Y-40830952D01*
X157984523Y-40878571D01*
X157936904Y-40973809D01*
X157936904Y-41211904D01*
X157984523Y-41307142D01*
X158032142Y-41354761D01*
X158127380Y-41402380D01*
X158365476Y-41402380D01*
X158460714Y-41354761D01*
X158508333Y-41307142D01*
%TO.C,C5*%
X348707142Y-23833333D02*
X348754761Y-23785714D01*
X348802380Y-23642857D01*
X348802380Y-23547619D01*
X348754761Y-23404761D01*
X348659523Y-23309523D01*
X348564285Y-23261904D01*
X348373809Y-23214285D01*
X348230952Y-23214285D01*
X348040476Y-23261904D01*
X347945238Y-23309523D01*
X347850000Y-23404761D01*
X347802380Y-23547619D01*
X347802380Y-23642857D01*
X347850000Y-23785714D01*
X347897619Y-23833333D01*
X347802380Y-24738095D02*
X347802380Y-24261904D01*
X348278571Y-24214285D01*
X348230952Y-24261904D01*
X348183333Y-24357142D01*
X348183333Y-24595238D01*
X348230952Y-24690476D01*
X348278571Y-24738095D01*
X348373809Y-24785714D01*
X348611904Y-24785714D01*
X348707142Y-24738095D01*
X348754761Y-24690476D01*
X348802380Y-24595238D01*
X348802380Y-24357142D01*
X348754761Y-24261904D01*
X348707142Y-24214285D01*
%TO.C,D18*%
X236439285Y-48702380D02*
X236439285Y-47702380D01*
X236201190Y-47702380D01*
X236058333Y-47750000D01*
X235963095Y-47845238D01*
X235915476Y-47940476D01*
X235867857Y-48130952D01*
X235867857Y-48273809D01*
X235915476Y-48464285D01*
X235963095Y-48559523D01*
X236058333Y-48654761D01*
X236201190Y-48702380D01*
X236439285Y-48702380D01*
X234915476Y-48702380D02*
X235486904Y-48702380D01*
X235201190Y-48702380D02*
X235201190Y-47702380D01*
X235296428Y-47845238D01*
X235391666Y-47940476D01*
X235486904Y-47988095D01*
X234344047Y-48130952D02*
X234439285Y-48083333D01*
X234486904Y-48035714D01*
X234534523Y-47940476D01*
X234534523Y-47892857D01*
X234486904Y-47797619D01*
X234439285Y-47750000D01*
X234344047Y-47702380D01*
X234153571Y-47702380D01*
X234058333Y-47750000D01*
X234010714Y-47797619D01*
X233963095Y-47892857D01*
X233963095Y-47940476D01*
X234010714Y-48035714D01*
X234058333Y-48083333D01*
X234153571Y-48130952D01*
X234344047Y-48130952D01*
X234439285Y-48178571D01*
X234486904Y-48226190D01*
X234534523Y-48321428D01*
X234534523Y-48511904D01*
X234486904Y-48607142D01*
X234439285Y-48654761D01*
X234344047Y-48702380D01*
X234153571Y-48702380D01*
X234058333Y-48654761D01*
X234010714Y-48607142D01*
X233963095Y-48511904D01*
X233963095Y-48321428D01*
X234010714Y-48226190D01*
X234058333Y-48178571D01*
X234153571Y-48130952D01*
%TO.C,C106*%
X98962142Y-60480952D02*
X99009761Y-60433333D01*
X99057380Y-60290476D01*
X99057380Y-60195238D01*
X99009761Y-60052380D01*
X98914523Y-59957142D01*
X98819285Y-59909523D01*
X98628809Y-59861904D01*
X98485952Y-59861904D01*
X98295476Y-59909523D01*
X98200238Y-59957142D01*
X98105000Y-60052380D01*
X98057380Y-60195238D01*
X98057380Y-60290476D01*
X98105000Y-60433333D01*
X98152619Y-60480952D01*
X99057380Y-61433333D02*
X99057380Y-60861904D01*
X99057380Y-61147619D02*
X98057380Y-61147619D01*
X98200238Y-61052380D01*
X98295476Y-60957142D01*
X98343095Y-60861904D01*
X98057380Y-62052380D02*
X98057380Y-62147619D01*
X98105000Y-62242857D01*
X98152619Y-62290476D01*
X98247857Y-62338095D01*
X98438333Y-62385714D01*
X98676428Y-62385714D01*
X98866904Y-62338095D01*
X98962142Y-62290476D01*
X99009761Y-62242857D01*
X99057380Y-62147619D01*
X99057380Y-62052380D01*
X99009761Y-61957142D01*
X98962142Y-61909523D01*
X98866904Y-61861904D01*
X98676428Y-61814285D01*
X98438333Y-61814285D01*
X98247857Y-61861904D01*
X98152619Y-61909523D01*
X98105000Y-61957142D01*
X98057380Y-62052380D01*
X98057380Y-63242857D02*
X98057380Y-63052380D01*
X98105000Y-62957142D01*
X98152619Y-62909523D01*
X98295476Y-62814285D01*
X98485952Y-62766666D01*
X98866904Y-62766666D01*
X98962142Y-62814285D01*
X99009761Y-62861904D01*
X99057380Y-62957142D01*
X99057380Y-63147619D01*
X99009761Y-63242857D01*
X98962142Y-63290476D01*
X98866904Y-63338095D01*
X98628809Y-63338095D01*
X98533571Y-63290476D01*
X98485952Y-63242857D01*
X98438333Y-63147619D01*
X98438333Y-62957142D01*
X98485952Y-62861904D01*
X98533571Y-62814285D01*
X98628809Y-62766666D01*
%TO.C,D124*%
X215365476Y-65702380D02*
X215365476Y-64702380D01*
X215127380Y-64702380D01*
X214984523Y-64750000D01*
X214889285Y-64845238D01*
X214841666Y-64940476D01*
X214794047Y-65130952D01*
X214794047Y-65273809D01*
X214841666Y-65464285D01*
X214889285Y-65559523D01*
X214984523Y-65654761D01*
X215127380Y-65702380D01*
X215365476Y-65702380D01*
X213841666Y-65702380D02*
X214413095Y-65702380D01*
X214127380Y-65702380D02*
X214127380Y-64702380D01*
X214222619Y-64845238D01*
X214317857Y-64940476D01*
X214413095Y-64988095D01*
X213460714Y-64797619D02*
X213413095Y-64750000D01*
X213317857Y-64702380D01*
X213079761Y-64702380D01*
X212984523Y-64750000D01*
X212936904Y-64797619D01*
X212889285Y-64892857D01*
X212889285Y-64988095D01*
X212936904Y-65130952D01*
X213508333Y-65702380D01*
X212889285Y-65702380D01*
X212032142Y-65035714D02*
X212032142Y-65702380D01*
X212270238Y-64654761D02*
X212508333Y-65369047D01*
X211889285Y-65369047D01*
%TO.C,D1*%
X325113095Y-11102380D02*
X325113095Y-10102380D01*
X324875000Y-10102380D01*
X324732142Y-10150000D01*
X324636904Y-10245238D01*
X324589285Y-10340476D01*
X324541666Y-10530952D01*
X324541666Y-10673809D01*
X324589285Y-10864285D01*
X324636904Y-10959523D01*
X324732142Y-11054761D01*
X324875000Y-11102380D01*
X325113095Y-11102380D01*
X323589285Y-11102380D02*
X324160714Y-11102380D01*
X323875000Y-11102380D02*
X323875000Y-10102380D01*
X323970238Y-10245238D01*
X324065476Y-10340476D01*
X324160714Y-10388095D01*
%TO.C,D128*%
X161365476Y-80352380D02*
X161365476Y-79352380D01*
X161127380Y-79352380D01*
X160984523Y-79400000D01*
X160889285Y-79495238D01*
X160841666Y-79590476D01*
X160794047Y-79780952D01*
X160794047Y-79923809D01*
X160841666Y-80114285D01*
X160889285Y-80209523D01*
X160984523Y-80304761D01*
X161127380Y-80352380D01*
X161365476Y-80352380D01*
X159841666Y-80352380D02*
X160413095Y-80352380D01*
X160127380Y-80352380D02*
X160127380Y-79352380D01*
X160222619Y-79495238D01*
X160317857Y-79590476D01*
X160413095Y-79638095D01*
X159460714Y-79447619D02*
X159413095Y-79400000D01*
X159317857Y-79352380D01*
X159079761Y-79352380D01*
X158984523Y-79400000D01*
X158936904Y-79447619D01*
X158889285Y-79542857D01*
X158889285Y-79638095D01*
X158936904Y-79780952D01*
X159508333Y-80352380D01*
X158889285Y-80352380D01*
X158317857Y-79780952D02*
X158413095Y-79733333D01*
X158460714Y-79685714D01*
X158508333Y-79590476D01*
X158508333Y-79542857D01*
X158460714Y-79447619D01*
X158413095Y-79400000D01*
X158317857Y-79352380D01*
X158127380Y-79352380D01*
X158032142Y-79400000D01*
X157984523Y-79447619D01*
X157936904Y-79542857D01*
X157936904Y-79590476D01*
X157984523Y-79685714D01*
X158032142Y-79733333D01*
X158127380Y-79780952D01*
X158317857Y-79780952D01*
X158413095Y-79828571D01*
X158460714Y-79876190D01*
X158508333Y-79971428D01*
X158508333Y-80161904D01*
X158460714Y-80257142D01*
X158413095Y-80304761D01*
X158317857Y-80352380D01*
X158127380Y-80352380D01*
X158032142Y-80304761D01*
X157984523Y-80257142D01*
X157936904Y-80161904D01*
X157936904Y-79971428D01*
X157984523Y-79876190D01*
X158032142Y-79828571D01*
X158127380Y-79780952D01*
%TO.C,D133*%
X98065476Y-24502380D02*
X98065476Y-23502380D01*
X97827380Y-23502380D01*
X97684523Y-23550000D01*
X97589285Y-23645238D01*
X97541666Y-23740476D01*
X97494047Y-23930952D01*
X97494047Y-24073809D01*
X97541666Y-24264285D01*
X97589285Y-24359523D01*
X97684523Y-24454761D01*
X97827380Y-24502380D01*
X98065476Y-24502380D01*
X96541666Y-24502380D02*
X97113095Y-24502380D01*
X96827380Y-24502380D02*
X96827380Y-23502380D01*
X96922619Y-23645238D01*
X97017857Y-23740476D01*
X97113095Y-23788095D01*
X96208333Y-23502380D02*
X95589285Y-23502380D01*
X95922619Y-23883333D01*
X95779761Y-23883333D01*
X95684523Y-23930952D01*
X95636904Y-23978571D01*
X95589285Y-24073809D01*
X95589285Y-24311904D01*
X95636904Y-24407142D01*
X95684523Y-24454761D01*
X95779761Y-24502380D01*
X96065476Y-24502380D01*
X96160714Y-24454761D01*
X96208333Y-24407142D01*
X95255952Y-23502380D02*
X94636904Y-23502380D01*
X94970238Y-23883333D01*
X94827380Y-23883333D01*
X94732142Y-23930952D01*
X94684523Y-23978571D01*
X94636904Y-24073809D01*
X94636904Y-24311904D01*
X94684523Y-24407142D01*
X94732142Y-24454761D01*
X94827380Y-24502380D01*
X95113095Y-24502380D01*
X95208333Y-24454761D01*
X95255952Y-24407142D01*
%TO.C,R1*%
X343341666Y-10052380D02*
X343675000Y-9576190D01*
X343913095Y-10052380D02*
X343913095Y-9052380D01*
X343532142Y-9052380D01*
X343436904Y-9100000D01*
X343389285Y-9147619D01*
X343341666Y-9242857D01*
X343341666Y-9385714D01*
X343389285Y-9480952D01*
X343436904Y-9528571D01*
X343532142Y-9576190D01*
X343913095Y-9576190D01*
X342389285Y-10052380D02*
X342960714Y-10052380D01*
X342675000Y-10052380D02*
X342675000Y-9052380D01*
X342770238Y-9195238D01*
X342865476Y-9290476D01*
X342960714Y-9338095D01*
%TO.C,D9*%
X289913095Y-24402380D02*
X289913095Y-23402380D01*
X289675000Y-23402380D01*
X289532142Y-23450000D01*
X289436904Y-23545238D01*
X289389285Y-23640476D01*
X289341666Y-23830952D01*
X289341666Y-23973809D01*
X289389285Y-24164285D01*
X289436904Y-24259523D01*
X289532142Y-24354761D01*
X289675000Y-24402380D01*
X289913095Y-24402380D01*
X288865476Y-24402380D02*
X288675000Y-24402380D01*
X288579761Y-24354761D01*
X288532142Y-24307142D01*
X288436904Y-24164285D01*
X288389285Y-23973809D01*
X288389285Y-23592857D01*
X288436904Y-23497619D01*
X288484523Y-23450000D01*
X288579761Y-23402380D01*
X288770238Y-23402380D01*
X288865476Y-23450000D01*
X288913095Y-23497619D01*
X288960714Y-23592857D01*
X288960714Y-23830952D01*
X288913095Y-23926190D01*
X288865476Y-23973809D01*
X288770238Y-24021428D01*
X288579761Y-24021428D01*
X288484523Y-23973809D01*
X288436904Y-23926190D01*
X288389285Y-23830952D01*
%TO.C,U103*%
X109289285Y-24852380D02*
X109289285Y-25661904D01*
X109241666Y-25757142D01*
X109194047Y-25804761D01*
X109098809Y-25852380D01*
X108908333Y-25852380D01*
X108813095Y-25804761D01*
X108765476Y-25757142D01*
X108717857Y-25661904D01*
X108717857Y-24852380D01*
X107717857Y-25852380D02*
X108289285Y-25852380D01*
X108003571Y-25852380D02*
X108003571Y-24852380D01*
X108098809Y-24995238D01*
X108194047Y-25090476D01*
X108289285Y-25138095D01*
X107098809Y-24852380D02*
X107003571Y-24852380D01*
X106908333Y-24900000D01*
X106860714Y-24947619D01*
X106813095Y-25042857D01*
X106765476Y-25233333D01*
X106765476Y-25471428D01*
X106813095Y-25661904D01*
X106860714Y-25757142D01*
X106908333Y-25804761D01*
X107003571Y-25852380D01*
X107098809Y-25852380D01*
X107194047Y-25804761D01*
X107241666Y-25757142D01*
X107289285Y-25661904D01*
X107336904Y-25471428D01*
X107336904Y-25233333D01*
X107289285Y-25042857D01*
X107241666Y-24947619D01*
X107194047Y-24900000D01*
X107098809Y-24852380D01*
X106432142Y-24852380D02*
X105813095Y-24852380D01*
X106146428Y-25233333D01*
X106003571Y-25233333D01*
X105908333Y-25280952D01*
X105860714Y-25328571D01*
X105813095Y-25423809D01*
X105813095Y-25661904D01*
X105860714Y-25757142D01*
X105908333Y-25804761D01*
X106003571Y-25852380D01*
X106289285Y-25852380D01*
X106384523Y-25804761D01*
X106432142Y-25757142D01*
%TO.C,R104*%
X121794047Y-37302380D02*
X122127380Y-36826190D01*
X122365476Y-37302380D02*
X122365476Y-36302380D01*
X121984523Y-36302380D01*
X121889285Y-36350000D01*
X121841666Y-36397619D01*
X121794047Y-36492857D01*
X121794047Y-36635714D01*
X121841666Y-36730952D01*
X121889285Y-36778571D01*
X121984523Y-36826190D01*
X122365476Y-36826190D01*
X120841666Y-37302380D02*
X121413095Y-37302380D01*
X121127380Y-37302380D02*
X121127380Y-36302380D01*
X121222619Y-36445238D01*
X121317857Y-36540476D01*
X121413095Y-36588095D01*
X120222619Y-36302380D02*
X120127380Y-36302380D01*
X120032142Y-36350000D01*
X119984523Y-36397619D01*
X119936904Y-36492857D01*
X119889285Y-36683333D01*
X119889285Y-36921428D01*
X119936904Y-37111904D01*
X119984523Y-37207142D01*
X120032142Y-37254761D01*
X120127380Y-37302380D01*
X120222619Y-37302380D01*
X120317857Y-37254761D01*
X120365476Y-37207142D01*
X120413095Y-37111904D01*
X120460714Y-36921428D01*
X120460714Y-36683333D01*
X120413095Y-36492857D01*
X120365476Y-36397619D01*
X120317857Y-36350000D01*
X120222619Y-36302380D01*
X119032142Y-36635714D02*
X119032142Y-37302380D01*
X119270238Y-36254761D02*
X119508333Y-36969047D01*
X118889285Y-36969047D01*
%TO.C,R7*%
X345916666Y-14852380D02*
X346250000Y-14376190D01*
X346488095Y-14852380D02*
X346488095Y-13852380D01*
X346107142Y-13852380D01*
X346011904Y-13900000D01*
X345964285Y-13947619D01*
X345916666Y-14042857D01*
X345916666Y-14185714D01*
X345964285Y-14280952D01*
X346011904Y-14328571D01*
X346107142Y-14376190D01*
X346488095Y-14376190D01*
X345583333Y-13852380D02*
X344916666Y-13852380D01*
X345345238Y-14852380D01*
%TO.C,D8*%
X308013095Y-25652380D02*
X308013095Y-24652380D01*
X307775000Y-24652380D01*
X307632142Y-24700000D01*
X307536904Y-24795238D01*
X307489285Y-24890476D01*
X307441666Y-25080952D01*
X307441666Y-25223809D01*
X307489285Y-25414285D01*
X307536904Y-25509523D01*
X307632142Y-25604761D01*
X307775000Y-25652380D01*
X308013095Y-25652380D01*
X306870238Y-25080952D02*
X306965476Y-25033333D01*
X307013095Y-24985714D01*
X307060714Y-24890476D01*
X307060714Y-24842857D01*
X307013095Y-24747619D01*
X306965476Y-24700000D01*
X306870238Y-24652380D01*
X306679761Y-24652380D01*
X306584523Y-24700000D01*
X306536904Y-24747619D01*
X306489285Y-24842857D01*
X306489285Y-24890476D01*
X306536904Y-24985714D01*
X306584523Y-25033333D01*
X306679761Y-25080952D01*
X306870238Y-25080952D01*
X306965476Y-25128571D01*
X307013095Y-25176190D01*
X307060714Y-25271428D01*
X307060714Y-25461904D01*
X307013095Y-25557142D01*
X306965476Y-25604761D01*
X306870238Y-25652380D01*
X306679761Y-25652380D01*
X306584523Y-25604761D01*
X306536904Y-25557142D01*
X306489285Y-25461904D01*
X306489285Y-25271428D01*
X306536904Y-25176190D01*
X306584523Y-25128571D01*
X306679761Y-25080952D01*
%TO.C,D25*%
X339127380Y-61785713D02*
X338127380Y-61785713D01*
X338127380Y-62023808D01*
X338175000Y-62166665D01*
X338270238Y-62261903D01*
X338365476Y-62309522D01*
X338555952Y-62357141D01*
X338698809Y-62357141D01*
X338889285Y-62309522D01*
X338984523Y-62261903D01*
X339079761Y-62166665D01*
X339127380Y-62023808D01*
X339127380Y-61785713D01*
X338222619Y-62738094D02*
X338175000Y-62785713D01*
X338127380Y-62880951D01*
X338127380Y-63119046D01*
X338175000Y-63214284D01*
X338222619Y-63261903D01*
X338317857Y-63309522D01*
X338413095Y-63309522D01*
X338555952Y-63261903D01*
X339127380Y-62690475D01*
X339127380Y-63309522D01*
X338127380Y-64214284D02*
X338127380Y-63738094D01*
X338603571Y-63690475D01*
X338555952Y-63738094D01*
X338508333Y-63833332D01*
X338508333Y-64071427D01*
X338555952Y-64166665D01*
X338603571Y-64214284D01*
X338698809Y-64261903D01*
X338936904Y-64261903D01*
X339032142Y-64214284D01*
X339079761Y-64166665D01*
X339127380Y-64071427D01*
X339127380Y-63833332D01*
X339079761Y-63738094D01*
X339032142Y-63690475D01*
%TO.C,D108*%
X143265476Y-25652380D02*
X143265476Y-24652380D01*
X143027380Y-24652380D01*
X142884523Y-24700000D01*
X142789285Y-24795238D01*
X142741666Y-24890476D01*
X142694047Y-25080952D01*
X142694047Y-25223809D01*
X142741666Y-25414285D01*
X142789285Y-25509523D01*
X142884523Y-25604761D01*
X143027380Y-25652380D01*
X143265476Y-25652380D01*
X141741666Y-25652380D02*
X142313095Y-25652380D01*
X142027380Y-25652380D02*
X142027380Y-24652380D01*
X142122619Y-24795238D01*
X142217857Y-24890476D01*
X142313095Y-24938095D01*
X141122619Y-24652380D02*
X141027380Y-24652380D01*
X140932142Y-24700000D01*
X140884523Y-24747619D01*
X140836904Y-24842857D01*
X140789285Y-25033333D01*
X140789285Y-25271428D01*
X140836904Y-25461904D01*
X140884523Y-25557142D01*
X140932142Y-25604761D01*
X141027380Y-25652380D01*
X141122619Y-25652380D01*
X141217857Y-25604761D01*
X141265476Y-25557142D01*
X141313095Y-25461904D01*
X141360714Y-25271428D01*
X141360714Y-25033333D01*
X141313095Y-24842857D01*
X141265476Y-24747619D01*
X141217857Y-24700000D01*
X141122619Y-24652380D01*
X140217857Y-25080952D02*
X140313095Y-25033333D01*
X140360714Y-24985714D01*
X140408333Y-24890476D01*
X140408333Y-24842857D01*
X140360714Y-24747619D01*
X140313095Y-24700000D01*
X140217857Y-24652380D01*
X140027380Y-24652380D01*
X139932142Y-24700000D01*
X139884523Y-24747619D01*
X139836904Y-24842857D01*
X139836904Y-24890476D01*
X139884523Y-24985714D01*
X139932142Y-25033333D01*
X140027380Y-25080952D01*
X140217857Y-25080952D01*
X140313095Y-25128571D01*
X140360714Y-25176190D01*
X140408333Y-25271428D01*
X140408333Y-25461904D01*
X140360714Y-25557142D01*
X140313095Y-25604761D01*
X140217857Y-25652380D01*
X140027380Y-25652380D01*
X139932142Y-25604761D01*
X139884523Y-25557142D01*
X139836904Y-25461904D01*
X139836904Y-25271428D01*
X139884523Y-25176190D01*
X139932142Y-25128571D01*
X140027380Y-25080952D01*
%TO.C,D106*%
X215365476Y-14702380D02*
X215365476Y-13702380D01*
X215127380Y-13702380D01*
X214984523Y-13750000D01*
X214889285Y-13845238D01*
X214841666Y-13940476D01*
X214794047Y-14130952D01*
X214794047Y-14273809D01*
X214841666Y-14464285D01*
X214889285Y-14559523D01*
X214984523Y-14654761D01*
X215127380Y-14702380D01*
X215365476Y-14702380D01*
X213841666Y-14702380D02*
X214413095Y-14702380D01*
X214127380Y-14702380D02*
X214127380Y-13702380D01*
X214222619Y-13845238D01*
X214317857Y-13940476D01*
X214413095Y-13988095D01*
X213222619Y-13702380D02*
X213127380Y-13702380D01*
X213032142Y-13750000D01*
X212984523Y-13797619D01*
X212936904Y-13892857D01*
X212889285Y-14083333D01*
X212889285Y-14321428D01*
X212936904Y-14511904D01*
X212984523Y-14607142D01*
X213032142Y-14654761D01*
X213127380Y-14702380D01*
X213222619Y-14702380D01*
X213317857Y-14654761D01*
X213365476Y-14607142D01*
X213413095Y-14511904D01*
X213460714Y-14321428D01*
X213460714Y-14083333D01*
X213413095Y-13892857D01*
X213365476Y-13797619D01*
X213317857Y-13750000D01*
X213222619Y-13702380D01*
X212032142Y-13702380D02*
X212222619Y-13702380D01*
X212317857Y-13750000D01*
X212365476Y-13797619D01*
X212460714Y-13940476D01*
X212508333Y-14130952D01*
X212508333Y-14511904D01*
X212460714Y-14607142D01*
X212413095Y-14654761D01*
X212317857Y-14702380D01*
X212127380Y-14702380D01*
X212032142Y-14654761D01*
X211984523Y-14607142D01*
X211936904Y-14511904D01*
X211936904Y-14273809D01*
X211984523Y-14178571D01*
X212032142Y-14130952D01*
X212127380Y-14083333D01*
X212317857Y-14083333D01*
X212413095Y-14130952D01*
X212460714Y-14178571D01*
X212508333Y-14273809D01*
%TO.C,C7*%
X350302142Y-61533333D02*
X350349761Y-61485714D01*
X350397380Y-61342857D01*
X350397380Y-61247619D01*
X350349761Y-61104761D01*
X350254523Y-61009523D01*
X350159285Y-60961904D01*
X349968809Y-60914285D01*
X349825952Y-60914285D01*
X349635476Y-60961904D01*
X349540238Y-61009523D01*
X349445000Y-61104761D01*
X349397380Y-61247619D01*
X349397380Y-61342857D01*
X349445000Y-61485714D01*
X349492619Y-61533333D01*
X349397380Y-61866666D02*
X349397380Y-62533333D01*
X350397380Y-62104761D01*
%TO.C,C102*%
X94044047Y-31607142D02*
X94091666Y-31654761D01*
X94234523Y-31702380D01*
X94329761Y-31702380D01*
X94472619Y-31654761D01*
X94567857Y-31559523D01*
X94615476Y-31464285D01*
X94663095Y-31273809D01*
X94663095Y-31130952D01*
X94615476Y-30940476D01*
X94567857Y-30845238D01*
X94472619Y-30750000D01*
X94329761Y-30702380D01*
X94234523Y-30702380D01*
X94091666Y-30750000D01*
X94044047Y-30797619D01*
X93091666Y-31702380D02*
X93663095Y-31702380D01*
X93377380Y-31702380D02*
X93377380Y-30702380D01*
X93472619Y-30845238D01*
X93567857Y-30940476D01*
X93663095Y-30988095D01*
X92472619Y-30702380D02*
X92377380Y-30702380D01*
X92282142Y-30750000D01*
X92234523Y-30797619D01*
X92186904Y-30892857D01*
X92139285Y-31083333D01*
X92139285Y-31321428D01*
X92186904Y-31511904D01*
X92234523Y-31607142D01*
X92282142Y-31654761D01*
X92377380Y-31702380D01*
X92472619Y-31702380D01*
X92567857Y-31654761D01*
X92615476Y-31607142D01*
X92663095Y-31511904D01*
X92710714Y-31321428D01*
X92710714Y-31083333D01*
X92663095Y-30892857D01*
X92615476Y-30797619D01*
X92567857Y-30750000D01*
X92472619Y-30702380D01*
X91758333Y-30797619D02*
X91710714Y-30750000D01*
X91615476Y-30702380D01*
X91377380Y-30702380D01*
X91282142Y-30750000D01*
X91234523Y-30797619D01*
X91186904Y-30892857D01*
X91186904Y-30988095D01*
X91234523Y-31130952D01*
X91805952Y-31702380D01*
X91186904Y-31702380D01*
%TO.C,D15*%
X290389285Y-41402380D02*
X290389285Y-40402380D01*
X290151190Y-40402380D01*
X290008333Y-40450000D01*
X289913095Y-40545238D01*
X289865476Y-40640476D01*
X289817857Y-40830952D01*
X289817857Y-40973809D01*
X289865476Y-41164285D01*
X289913095Y-41259523D01*
X290008333Y-41354761D01*
X290151190Y-41402380D01*
X290389285Y-41402380D01*
X288865476Y-41402380D02*
X289436904Y-41402380D01*
X289151190Y-41402380D02*
X289151190Y-40402380D01*
X289246428Y-40545238D01*
X289341666Y-40640476D01*
X289436904Y-40688095D01*
X287960714Y-40402380D02*
X288436904Y-40402380D01*
X288484523Y-40878571D01*
X288436904Y-40830952D01*
X288341666Y-40783333D01*
X288103571Y-40783333D01*
X288008333Y-40830952D01*
X287960714Y-40878571D01*
X287913095Y-40973809D01*
X287913095Y-41211904D01*
X287960714Y-41307142D01*
X288008333Y-41354761D01*
X288103571Y-41402380D01*
X288341666Y-41402380D01*
X288436904Y-41354761D01*
X288484523Y-41307142D01*
%TO.C,D3*%
X289913095Y-7402380D02*
X289913095Y-6402380D01*
X289675000Y-6402380D01*
X289532142Y-6450000D01*
X289436904Y-6545238D01*
X289389285Y-6640476D01*
X289341666Y-6830952D01*
X289341666Y-6973809D01*
X289389285Y-7164285D01*
X289436904Y-7259523D01*
X289532142Y-7354761D01*
X289675000Y-7402380D01*
X289913095Y-7402380D01*
X289008333Y-6402380D02*
X288389285Y-6402380D01*
X288722619Y-6783333D01*
X288579761Y-6783333D01*
X288484523Y-6830952D01*
X288436904Y-6878571D01*
X288389285Y-6973809D01*
X288389285Y-7211904D01*
X288436904Y-7307142D01*
X288484523Y-7354761D01*
X288579761Y-7402380D01*
X288865476Y-7402380D01*
X288960714Y-7354761D01*
X289008333Y-7307142D01*
%TO.C,D5*%
X253913095Y-13702380D02*
X253913095Y-12702380D01*
X253675000Y-12702380D01*
X253532142Y-12750000D01*
X253436904Y-12845238D01*
X253389285Y-12940476D01*
X253341666Y-13130952D01*
X253341666Y-13273809D01*
X253389285Y-13464285D01*
X253436904Y-13559523D01*
X253532142Y-13654761D01*
X253675000Y-13702380D01*
X253913095Y-13702380D01*
X252436904Y-12702380D02*
X252913095Y-12702380D01*
X252960714Y-13178571D01*
X252913095Y-13130952D01*
X252817857Y-13083333D01*
X252579761Y-13083333D01*
X252484523Y-13130952D01*
X252436904Y-13178571D01*
X252389285Y-13273809D01*
X252389285Y-13511904D01*
X252436904Y-13607142D01*
X252484523Y-13654761D01*
X252579761Y-13702380D01*
X252817857Y-13702380D01*
X252913095Y-13654761D01*
X252960714Y-13607142D01*
%TO.C,D23*%
X254439285Y-64702380D02*
X254439285Y-63702380D01*
X254201190Y-63702380D01*
X254058333Y-63750000D01*
X253963095Y-63845238D01*
X253915476Y-63940476D01*
X253867857Y-64130952D01*
X253867857Y-64273809D01*
X253915476Y-64464285D01*
X253963095Y-64559523D01*
X254058333Y-64654761D01*
X254201190Y-64702380D01*
X254439285Y-64702380D01*
X253486904Y-63797619D02*
X253439285Y-63750000D01*
X253344047Y-63702380D01*
X253105952Y-63702380D01*
X253010714Y-63750000D01*
X252963095Y-63797619D01*
X252915476Y-63892857D01*
X252915476Y-63988095D01*
X252963095Y-64130952D01*
X253534523Y-64702380D01*
X252915476Y-64702380D01*
X252582142Y-63702380D02*
X251963095Y-63702380D01*
X252296428Y-64083333D01*
X252153571Y-64083333D01*
X252058333Y-64130952D01*
X252010714Y-64178571D01*
X251963095Y-64273809D01*
X251963095Y-64511904D01*
X252010714Y-64607142D01*
X252058333Y-64654761D01*
X252153571Y-64702380D01*
X252439285Y-64702380D01*
X252534523Y-64654761D01*
X252582142Y-64607142D01*
%TO.C,D126*%
X116464952Y-80645039D02*
X115964952Y-81511064D01*
X116171148Y-81630112D01*
X116318676Y-81660301D01*
X116448773Y-81625442D01*
X116537632Y-81566773D01*
X116674109Y-81425625D01*
X116745538Y-81301907D01*
X116799536Y-81113140D01*
X116805916Y-81006852D01*
X116771057Y-80876755D01*
X116671148Y-80764087D01*
X116464952Y-80645039D01*
X117784609Y-81406944D02*
X117289738Y-81121229D01*
X117537174Y-81264087D02*
X117037174Y-82130112D01*
X117026124Y-81958775D01*
X116991264Y-81828677D01*
X116932595Y-81739819D01*
X117662143Y-82380967D02*
X117679573Y-82446016D01*
X117738242Y-82534874D01*
X117944438Y-82653922D01*
X118050726Y-82660301D01*
X118115775Y-82642872D01*
X118204634Y-82584202D01*
X118252253Y-82501724D01*
X118282442Y-82354196D01*
X118073285Y-81573610D01*
X118609396Y-81883134D01*
X118851703Y-83177731D02*
X118686746Y-83082493D01*
X118628077Y-82993635D01*
X118610647Y-82928586D01*
X118599597Y-82757249D01*
X118653596Y-82568482D01*
X118844072Y-82238568D01*
X118932930Y-82179899D01*
X118997979Y-82162469D01*
X119104267Y-82168849D01*
X119269224Y-82264087D01*
X119327893Y-82352945D01*
X119345323Y-82417994D01*
X119338944Y-82524282D01*
X119219896Y-82730478D01*
X119131038Y-82789148D01*
X119065989Y-82806577D01*
X118959701Y-82800198D01*
X118794743Y-82704959D01*
X118736074Y-82616101D01*
X118718644Y-82551052D01*
X118725024Y-82444764D01*
%TO.C,U1*%
X346711904Y-27652380D02*
X346711904Y-28461904D01*
X346664285Y-28557142D01*
X346616666Y-28604761D01*
X346521428Y-28652380D01*
X346330952Y-28652380D01*
X346235714Y-28604761D01*
X346188095Y-28557142D01*
X346140476Y-28461904D01*
X346140476Y-27652380D01*
X345140476Y-28652380D02*
X345711904Y-28652380D01*
X345426190Y-28652380D02*
X345426190Y-27652380D01*
X345521428Y-27795238D01*
X345616666Y-27890476D01*
X345711904Y-27938095D01*
%TO.C,D102*%
X143565476Y-8752380D02*
X143565476Y-7752380D01*
X143327380Y-7752380D01*
X143184523Y-7800000D01*
X143089285Y-7895238D01*
X143041666Y-7990476D01*
X142994047Y-8180952D01*
X142994047Y-8323809D01*
X143041666Y-8514285D01*
X143089285Y-8609523D01*
X143184523Y-8704761D01*
X143327380Y-8752380D01*
X143565476Y-8752380D01*
X142041666Y-8752380D02*
X142613095Y-8752380D01*
X142327380Y-8752380D02*
X142327380Y-7752380D01*
X142422619Y-7895238D01*
X142517857Y-7990476D01*
X142613095Y-8038095D01*
X141422619Y-7752380D02*
X141327380Y-7752380D01*
X141232142Y-7800000D01*
X141184523Y-7847619D01*
X141136904Y-7942857D01*
X141089285Y-8133333D01*
X141089285Y-8371428D01*
X141136904Y-8561904D01*
X141184523Y-8657142D01*
X141232142Y-8704761D01*
X141327380Y-8752380D01*
X141422619Y-8752380D01*
X141517857Y-8704761D01*
X141565476Y-8657142D01*
X141613095Y-8561904D01*
X141660714Y-8371428D01*
X141660714Y-8133333D01*
X141613095Y-7942857D01*
X141565476Y-7847619D01*
X141517857Y-7800000D01*
X141422619Y-7752380D01*
X140708333Y-7847619D02*
X140660714Y-7800000D01*
X140565476Y-7752380D01*
X140327380Y-7752380D01*
X140232142Y-7800000D01*
X140184523Y-7847619D01*
X140136904Y-7942857D01*
X140136904Y-8038095D01*
X140184523Y-8180952D01*
X140755952Y-8752380D01*
X140136904Y-8752380D01*
%TO.C,C104*%
X125094047Y-24457142D02*
X125141666Y-24504761D01*
X125284523Y-24552380D01*
X125379761Y-24552380D01*
X125522619Y-24504761D01*
X125617857Y-24409523D01*
X125665476Y-24314285D01*
X125713095Y-24123809D01*
X125713095Y-23980952D01*
X125665476Y-23790476D01*
X125617857Y-23695238D01*
X125522619Y-23600000D01*
X125379761Y-23552380D01*
X125284523Y-23552380D01*
X125141666Y-23600000D01*
X125094047Y-23647619D01*
X124141666Y-24552380D02*
X124713095Y-24552380D01*
X124427380Y-24552380D02*
X124427380Y-23552380D01*
X124522619Y-23695238D01*
X124617857Y-23790476D01*
X124713095Y-23838095D01*
X123522619Y-23552380D02*
X123427380Y-23552380D01*
X123332142Y-23600000D01*
X123284523Y-23647619D01*
X123236904Y-23742857D01*
X123189285Y-23933333D01*
X123189285Y-24171428D01*
X123236904Y-24361904D01*
X123284523Y-24457142D01*
X123332142Y-24504761D01*
X123427380Y-24552380D01*
X123522619Y-24552380D01*
X123617857Y-24504761D01*
X123665476Y-24457142D01*
X123713095Y-24361904D01*
X123760714Y-24171428D01*
X123760714Y-23933333D01*
X123713095Y-23742857D01*
X123665476Y-23647619D01*
X123617857Y-23600000D01*
X123522619Y-23552380D01*
X122332142Y-23885714D02*
X122332142Y-24552380D01*
X122570238Y-23504761D02*
X122808333Y-24219047D01*
X122189285Y-24219047D01*
%TO.C,Q102*%
X99122619Y-27302380D02*
X99075000Y-27207142D01*
X98979761Y-27111904D01*
X98836904Y-26969047D01*
X98789285Y-26873809D01*
X98789285Y-26778571D01*
X99027380Y-26826190D02*
X98979761Y-26730952D01*
X98884523Y-26635714D01*
X98694047Y-26588095D01*
X98360714Y-26588095D01*
X98170238Y-26635714D01*
X98075000Y-26730952D01*
X98027380Y-26826190D01*
X98027380Y-27016666D01*
X98075000Y-27111904D01*
X98170238Y-27207142D01*
X98360714Y-27254761D01*
X98694047Y-27254761D01*
X98884523Y-27207142D01*
X98979761Y-27111904D01*
X99027380Y-27016666D01*
X99027380Y-26826190D01*
X99027380Y-28207142D02*
X99027380Y-27635714D01*
X99027380Y-27921428D02*
X98027380Y-27921428D01*
X98170238Y-27826190D01*
X98265476Y-27730952D01*
X98313095Y-27635714D01*
X98027380Y-28826190D02*
X98027380Y-28921428D01*
X98075000Y-29016666D01*
X98122619Y-29064285D01*
X98217857Y-29111904D01*
X98408333Y-29159523D01*
X98646428Y-29159523D01*
X98836904Y-29111904D01*
X98932142Y-29064285D01*
X98979761Y-29016666D01*
X99027380Y-28921428D01*
X99027380Y-28826190D01*
X98979761Y-28730952D01*
X98932142Y-28683333D01*
X98836904Y-28635714D01*
X98646428Y-28588095D01*
X98408333Y-28588095D01*
X98217857Y-28635714D01*
X98122619Y-28683333D01*
X98075000Y-28730952D01*
X98027380Y-28826190D01*
X98122619Y-29540476D02*
X98075000Y-29588095D01*
X98027380Y-29683333D01*
X98027380Y-29921428D01*
X98075000Y-30016666D01*
X98122619Y-30064285D01*
X98217857Y-30111904D01*
X98313095Y-30111904D01*
X98455952Y-30064285D01*
X99027380Y-29492857D01*
X99027380Y-30111904D01*
%TO.C,D119*%
X125365476Y-62102380D02*
X125365476Y-61102380D01*
X125127380Y-61102380D01*
X124984523Y-61150000D01*
X124889285Y-61245238D01*
X124841666Y-61340476D01*
X124794047Y-61530952D01*
X124794047Y-61673809D01*
X124841666Y-61864285D01*
X124889285Y-61959523D01*
X124984523Y-62054761D01*
X125127380Y-62102380D01*
X125365476Y-62102380D01*
X123841666Y-62102380D02*
X124413095Y-62102380D01*
X124127380Y-62102380D02*
X124127380Y-61102380D01*
X124222619Y-61245238D01*
X124317857Y-61340476D01*
X124413095Y-61388095D01*
X122889285Y-62102380D02*
X123460714Y-62102380D01*
X123175000Y-62102380D02*
X123175000Y-61102380D01*
X123270238Y-61245238D01*
X123365476Y-61340476D01*
X123460714Y-61388095D01*
X122413095Y-62102380D02*
X122222619Y-62102380D01*
X122127380Y-62054761D01*
X122079761Y-62007142D01*
X121984523Y-61864285D01*
X121936904Y-61673809D01*
X121936904Y-61292857D01*
X121984523Y-61197619D01*
X122032142Y-61150000D01*
X122127380Y-61102380D01*
X122317857Y-61102380D01*
X122413095Y-61150000D01*
X122460714Y-61197619D01*
X122508333Y-61292857D01*
X122508333Y-61530952D01*
X122460714Y-61626190D01*
X122413095Y-61673809D01*
X122317857Y-61721428D01*
X122127380Y-61721428D01*
X122032142Y-61673809D01*
X121984523Y-61626190D01*
X121936904Y-61530952D01*
%TO.C,C6*%
X350302142Y-57133333D02*
X350349761Y-57085714D01*
X350397380Y-56942857D01*
X350397380Y-56847619D01*
X350349761Y-56704761D01*
X350254523Y-56609523D01*
X350159285Y-56561904D01*
X349968809Y-56514285D01*
X349825952Y-56514285D01*
X349635476Y-56561904D01*
X349540238Y-56609523D01*
X349445000Y-56704761D01*
X349397380Y-56847619D01*
X349397380Y-56942857D01*
X349445000Y-57085714D01*
X349492619Y-57133333D01*
X349397380Y-57990476D02*
X349397380Y-57800000D01*
X349445000Y-57704761D01*
X349492619Y-57657142D01*
X349635476Y-57561904D01*
X349825952Y-57514285D01*
X350206904Y-57514285D01*
X350302142Y-57561904D01*
X350349761Y-57609523D01*
X350397380Y-57704761D01*
X350397380Y-57895238D01*
X350349761Y-57990476D01*
X350302142Y-58038095D01*
X350206904Y-58085714D01*
X349968809Y-58085714D01*
X349873571Y-58038095D01*
X349825952Y-57990476D01*
X349778333Y-57895238D01*
X349778333Y-57704761D01*
X349825952Y-57609523D01*
X349873571Y-57561904D01*
X349968809Y-57514285D01*
%TO.C,D107*%
X128090476Y-29252380D02*
X128090476Y-28252380D01*
X127852380Y-28252380D01*
X127709523Y-28300000D01*
X127614285Y-28395238D01*
X127566666Y-28490476D01*
X127519047Y-28680952D01*
X127519047Y-28823809D01*
X127566666Y-29014285D01*
X127614285Y-29109523D01*
X127709523Y-29204761D01*
X127852380Y-29252380D01*
X128090476Y-29252380D01*
X126566666Y-29252380D02*
X127138095Y-29252380D01*
X126852380Y-29252380D02*
X126852380Y-28252380D01*
X126947619Y-28395238D01*
X127042857Y-28490476D01*
X127138095Y-28538095D01*
X125947619Y-28252380D02*
X125852380Y-28252380D01*
X125757142Y-28300000D01*
X125709523Y-28347619D01*
X125661904Y-28442857D01*
X125614285Y-28633333D01*
X125614285Y-28871428D01*
X125661904Y-29061904D01*
X125709523Y-29157142D01*
X125757142Y-29204761D01*
X125852380Y-29252380D01*
X125947619Y-29252380D01*
X126042857Y-29204761D01*
X126090476Y-29157142D01*
X126138095Y-29061904D01*
X126185714Y-28871428D01*
X126185714Y-28633333D01*
X126138095Y-28442857D01*
X126090476Y-28347619D01*
X126042857Y-28300000D01*
X125947619Y-28252380D01*
X125280952Y-28252380D02*
X124614285Y-28252380D01*
X125042857Y-29252380D01*
%TO.C,R5*%
X331516666Y-40252380D02*
X331850000Y-39776190D01*
X332088095Y-40252380D02*
X332088095Y-39252380D01*
X331707142Y-39252380D01*
X331611904Y-39300000D01*
X331564285Y-39347619D01*
X331516666Y-39442857D01*
X331516666Y-39585714D01*
X331564285Y-39680952D01*
X331611904Y-39728571D01*
X331707142Y-39776190D01*
X332088095Y-39776190D01*
X330611904Y-39252380D02*
X331088095Y-39252380D01*
X331135714Y-39728571D01*
X331088095Y-39680952D01*
X330992857Y-39633333D01*
X330754761Y-39633333D01*
X330659523Y-39680952D01*
X330611904Y-39728571D01*
X330564285Y-39823809D01*
X330564285Y-40061904D01*
X330611904Y-40157142D01*
X330659523Y-40204761D01*
X330754761Y-40252380D01*
X330992857Y-40252380D01*
X331088095Y-40204761D01*
X331135714Y-40157142D01*
%TO.C,C1*%
X340941666Y-31857142D02*
X340989285Y-31904761D01*
X341132142Y-31952380D01*
X341227380Y-31952380D01*
X341370238Y-31904761D01*
X341465476Y-31809523D01*
X341513095Y-31714285D01*
X341560714Y-31523809D01*
X341560714Y-31380952D01*
X341513095Y-31190476D01*
X341465476Y-31095238D01*
X341370238Y-31000000D01*
X341227380Y-30952380D01*
X341132142Y-30952380D01*
X340989285Y-31000000D01*
X340941666Y-31047619D01*
X339989285Y-31952380D02*
X340560714Y-31952380D01*
X340275000Y-31952380D02*
X340275000Y-30952380D01*
X340370238Y-31095238D01*
X340465476Y-31190476D01*
X340560714Y-31238095D01*
%TO.C,D13*%
X326389285Y-45102380D02*
X326389285Y-44102380D01*
X326151190Y-44102380D01*
X326008333Y-44150000D01*
X325913095Y-44245238D01*
X325865476Y-44340476D01*
X325817857Y-44530952D01*
X325817857Y-44673809D01*
X325865476Y-44864285D01*
X325913095Y-44959523D01*
X326008333Y-45054761D01*
X326151190Y-45102380D01*
X326389285Y-45102380D01*
X324865476Y-45102380D02*
X325436904Y-45102380D01*
X325151190Y-45102380D02*
X325151190Y-44102380D01*
X325246428Y-44245238D01*
X325341666Y-44340476D01*
X325436904Y-44388095D01*
X324532142Y-44102380D02*
X323913095Y-44102380D01*
X324246428Y-44483333D01*
X324103571Y-44483333D01*
X324008333Y-44530952D01*
X323960714Y-44578571D01*
X323913095Y-44673809D01*
X323913095Y-44911904D01*
X323960714Y-45007142D01*
X324008333Y-45054761D01*
X324103571Y-45102380D01*
X324389285Y-45102380D01*
X324484523Y-45054761D01*
X324532142Y-45007142D01*
%TO.C,D24*%
X236389285Y-65702380D02*
X236389285Y-64702380D01*
X236151190Y-64702380D01*
X236008333Y-64750000D01*
X235913095Y-64845238D01*
X235865476Y-64940476D01*
X235817857Y-65130952D01*
X235817857Y-65273809D01*
X235865476Y-65464285D01*
X235913095Y-65559523D01*
X236008333Y-65654761D01*
X236151190Y-65702380D01*
X236389285Y-65702380D01*
X235436904Y-64797619D02*
X235389285Y-64750000D01*
X235294047Y-64702380D01*
X235055952Y-64702380D01*
X234960714Y-64750000D01*
X234913095Y-64797619D01*
X234865476Y-64892857D01*
X234865476Y-64988095D01*
X234913095Y-65130952D01*
X235484523Y-65702380D01*
X234865476Y-65702380D01*
X234008333Y-65035714D02*
X234008333Y-65702380D01*
X234246428Y-64654761D02*
X234484523Y-65369047D01*
X233865476Y-65369047D01*
%TO.C,D104*%
X179365476Y-8702380D02*
X179365476Y-7702380D01*
X179127380Y-7702380D01*
X178984523Y-7750000D01*
X178889285Y-7845238D01*
X178841666Y-7940476D01*
X178794047Y-8130952D01*
X178794047Y-8273809D01*
X178841666Y-8464285D01*
X178889285Y-8559523D01*
X178984523Y-8654761D01*
X179127380Y-8702380D01*
X179365476Y-8702380D01*
X177841666Y-8702380D02*
X178413095Y-8702380D01*
X178127380Y-8702380D02*
X178127380Y-7702380D01*
X178222619Y-7845238D01*
X178317857Y-7940476D01*
X178413095Y-7988095D01*
X177222619Y-7702380D02*
X177127380Y-7702380D01*
X177032142Y-7750000D01*
X176984523Y-7797619D01*
X176936904Y-7892857D01*
X176889285Y-8083333D01*
X176889285Y-8321428D01*
X176936904Y-8511904D01*
X176984523Y-8607142D01*
X177032142Y-8654761D01*
X177127380Y-8702380D01*
X177222619Y-8702380D01*
X177317857Y-8654761D01*
X177365476Y-8607142D01*
X177413095Y-8511904D01*
X177460714Y-8321428D01*
X177460714Y-8083333D01*
X177413095Y-7892857D01*
X177365476Y-7797619D01*
X177317857Y-7750000D01*
X177222619Y-7702380D01*
X176032142Y-8035714D02*
X176032142Y-8702380D01*
X176270238Y-7654761D02*
X176508333Y-8369047D01*
X175889285Y-8369047D01*
D16*
%TO.C,U2*%
X342203000Y-10631000D02*
G75*
G03*
X342203000Y-10631000I-127000J0D01*
G01*
X340575000Y-6601000D02*
X327575000Y-6601000D01*
X327575000Y-16304000D02*
X327575000Y-16296000D01*
X340575000Y-11224000D02*
X340575000Y-11216000D01*
X339151000Y-24601000D02*
X340575000Y-24601000D01*
X340575000Y-24601000D02*
X340575000Y-22646000D01*
X340575000Y-9954000D02*
X340575000Y-6601000D01*
X339155000Y-9361000D02*
X339155000Y-7202000D01*
X327575000Y-18844000D02*
X327575000Y-18836000D01*
X330138000Y-7964000D02*
X330138000Y-8472000D01*
X332801000Y-24601000D02*
X332809000Y-24601000D01*
X340575000Y-12494000D02*
X340575000Y-12486000D01*
X330261000Y-24601000D02*
X330269000Y-24601000D01*
X327575000Y-12494000D02*
X327575000Y-12486000D01*
X327575000Y-17574000D02*
X327575000Y-17566000D01*
X328995000Y-9361000D02*
X339155000Y-9361000D01*
X327575000Y-13764000D02*
X327575000Y-13756000D01*
X334071000Y-24601000D02*
X334079000Y-24601000D01*
X327575000Y-24601000D02*
X327575000Y-22646000D01*
X330138000Y-8472000D02*
X331535000Y-8472000D01*
X327575000Y-9954000D02*
X327575000Y-6601000D01*
X327575000Y-21384000D02*
X327575000Y-21376000D01*
X331535000Y-7964000D02*
X330138000Y-7964000D01*
X340575000Y-17574000D02*
X340575000Y-17566000D01*
X328995000Y-7202000D02*
X328995000Y-9361000D01*
X327575000Y-15034000D02*
X327575000Y-15026000D01*
X340575000Y-13764000D02*
X340575000Y-13756000D01*
X336611000Y-24601000D02*
X336619000Y-24601000D01*
X340575000Y-15034000D02*
X340575000Y-15026000D01*
X339155000Y-7202000D02*
X328995000Y-7202000D01*
X331531000Y-24601000D02*
X331539000Y-24601000D01*
X340575000Y-20114000D02*
X340575000Y-20106000D01*
X340575000Y-18844000D02*
X340575000Y-18836000D01*
X335341000Y-24601000D02*
X335349000Y-24601000D01*
X327575000Y-11224000D02*
X327575000Y-11216000D01*
X340575000Y-21384000D02*
X340575000Y-21376000D01*
X331535000Y-8472000D02*
X331535000Y-7964000D01*
X340575000Y-16304000D02*
X340575000Y-16296000D01*
X337881000Y-24601000D02*
X337889000Y-24601000D01*
X327575000Y-20114000D02*
X327575000Y-20106000D01*
X327575000Y-24601000D02*
X328999000Y-24601000D01*
%TO.C,U102*%
X123003000Y-10531000D02*
G75*
G03*
X123003000Y-10531000I-127000J0D01*
G01*
X121375000Y-6501000D02*
X108375000Y-6501000D01*
X108375000Y-16204000D02*
X108375000Y-16196000D01*
X121375000Y-11124000D02*
X121375000Y-11116000D01*
X119951000Y-24501000D02*
X121375000Y-24501000D01*
X121375000Y-24501000D02*
X121375000Y-22546000D01*
X121375000Y-9854000D02*
X121375000Y-6501000D01*
X119955000Y-9261000D02*
X119955000Y-7102000D01*
X108375000Y-18744000D02*
X108375000Y-18736000D01*
X110938000Y-7864000D02*
X110938000Y-8372000D01*
X113601000Y-24501000D02*
X113609000Y-24501000D01*
X121375000Y-12394000D02*
X121375000Y-12386000D01*
X111061000Y-24501000D02*
X111069000Y-24501000D01*
X108375000Y-12394000D02*
X108375000Y-12386000D01*
X108375000Y-17474000D02*
X108375000Y-17466000D01*
X109795000Y-9261000D02*
X119955000Y-9261000D01*
X108375000Y-13664000D02*
X108375000Y-13656000D01*
X114871000Y-24501000D02*
X114879000Y-24501000D01*
X108375000Y-24501000D02*
X108375000Y-22546000D01*
X110938000Y-8372000D02*
X112335000Y-8372000D01*
X108375000Y-9854000D02*
X108375000Y-6501000D01*
X108375000Y-21284000D02*
X108375000Y-21276000D01*
X112335000Y-7864000D02*
X110938000Y-7864000D01*
X121375000Y-17474000D02*
X121375000Y-17466000D01*
X109795000Y-7102000D02*
X109795000Y-9261000D01*
X108375000Y-14934000D02*
X108375000Y-14926000D01*
X121375000Y-13664000D02*
X121375000Y-13656000D01*
X117411000Y-24501000D02*
X117419000Y-24501000D01*
X121375000Y-14934000D02*
X121375000Y-14926000D01*
X119955000Y-7102000D02*
X109795000Y-7102000D01*
X112331000Y-24501000D02*
X112339000Y-24501000D01*
X121375000Y-20014000D02*
X121375000Y-20006000D01*
X121375000Y-18744000D02*
X121375000Y-18736000D01*
X116141000Y-24501000D02*
X116149000Y-24501000D01*
X108375000Y-11124000D02*
X108375000Y-11116000D01*
X121375000Y-21284000D02*
X121375000Y-21276000D01*
X112335000Y-8372000D02*
X112335000Y-7864000D01*
X121375000Y-16204000D02*
X121375000Y-16196000D01*
X118681000Y-24501000D02*
X118689000Y-24501000D01*
X108375000Y-20014000D02*
X108375000Y-20006000D01*
X108375000Y-24501000D02*
X109799000Y-24501000D01*
D17*
%TO.C,D103*%
X157425000Y-3950000D02*
X161325000Y-3950000D01*
X157425000Y-5950000D02*
X157425000Y-3950000D01*
X157425000Y-5950000D02*
X161325000Y-5950000D01*
%TO.C,D125*%
X113175000Y-65249999D02*
X113175000Y-61349999D01*
X111175000Y-65249999D02*
X111175000Y-61349999D01*
X113175000Y-65249999D02*
X111175000Y-65249999D01*
%TO.C,Q1*%
X351095000Y-27740000D02*
X351095000Y-29200000D01*
X354255000Y-27740000D02*
X354255000Y-29900000D01*
X354255000Y-27740000D02*
X353325000Y-27740000D01*
X351095000Y-27740000D02*
X352025000Y-27740000D01*
%TO.C,R105*%
X117737258Y-38922500D02*
X117262742Y-38922500D01*
X117737258Y-37877500D02*
X117262742Y-37877500D01*
%TO.C,U101*%
X103300000Y-29760000D02*
X104100000Y-29760000D01*
X103300000Y-26640000D02*
X102500000Y-26640000D01*
X103300000Y-29760000D02*
X101500000Y-29760000D01*
X103300000Y-26640000D02*
X104100000Y-26640000D01*
%TO.C,D33*%
X350750000Y-24650000D02*
X353900000Y-24650000D01*
X350750000Y-26350000D02*
X353900000Y-26350000D01*
X350750000Y-26350000D02*
X350750000Y-24650000D01*
%TO.C,R101*%
X89652500Y-11462742D02*
X89652500Y-11937258D01*
X90697500Y-11462742D02*
X90697500Y-11937258D01*
%TO.C,D101*%
X127035955Y-7362500D02*
X127035955Y-5362500D01*
X127035955Y-5362500D02*
X130935955Y-5362500D01*
X127035955Y-7362500D02*
X130935955Y-7362500D01*
%TO.C,D120*%
X139425000Y-58300000D02*
X139425000Y-56300000D01*
X139425000Y-58300000D02*
X143325000Y-58300000D01*
X139425000Y-56300000D02*
X143325000Y-56300000D01*
%TO.C,D109*%
X157425000Y-20950000D02*
X161325000Y-20950000D01*
X157425000Y-22950000D02*
X157425000Y-20950000D01*
X157425000Y-22950000D02*
X161325000Y-22950000D01*
%TO.C,C101*%
X100910000Y-28059420D02*
X100910000Y-28340580D01*
X99890000Y-28059420D02*
X99890000Y-28340580D01*
%TO.C,D26*%
X328698686Y-82141025D02*
X332076185Y-80191025D01*
X327698686Y-80408975D02*
X331076185Y-78458975D01*
X328698686Y-82141025D02*
X327698686Y-80408975D01*
%TO.C,D112*%
X211375000Y-28250000D02*
X215275000Y-28250000D01*
X211375000Y-30250000D02*
X211375000Y-28250000D01*
X211375000Y-30250000D02*
X215275000Y-30250000D01*
%TO.C,D127*%
X139425000Y-80200000D02*
X143325000Y-80200000D01*
X139425000Y-80200000D02*
X139425000Y-78200000D01*
X139425000Y-78200000D02*
X143325000Y-78200000D01*
%TO.C,R103*%
X93077500Y-28262742D02*
X93077500Y-28737258D01*
X94122500Y-28262742D02*
X94122500Y-28737258D01*
%TO.C,D116*%
X175375000Y-39250000D02*
X179275000Y-39250000D01*
X175375000Y-41250000D02*
X175375000Y-39250000D01*
X175375000Y-41250000D02*
X179275000Y-41250000D01*
%TO.C,D118*%
X211375000Y-47250000D02*
X215275000Y-47250000D01*
X211375000Y-45250000D02*
X215275000Y-45250000D01*
X211375000Y-47250000D02*
X211375000Y-45250000D01*
%TO.C,R9*%
X354727500Y-28737258D02*
X354727500Y-28262742D01*
X355772500Y-28737258D02*
X355772500Y-28262742D01*
%TO.C,D14*%
X304725000Y-41200000D02*
X304725000Y-39200000D01*
X304725000Y-39200000D02*
X308625000Y-39200000D01*
X304725000Y-41200000D02*
X308625000Y-41200000D01*
%TO.C,D111*%
X193425000Y-27250000D02*
X197325000Y-27250000D01*
X193425000Y-29250000D02*
X197325000Y-29250000D01*
X193425000Y-29250000D02*
X193425000Y-27250000D01*
%TO.C,D105*%
X193425000Y-12250000D02*
X197325000Y-12250000D01*
X193425000Y-10250000D02*
X197325000Y-10250000D01*
X193425000Y-12250000D02*
X193425000Y-10250000D01*
%TO.C,D110*%
X175375000Y-24250000D02*
X175375000Y-22250000D01*
X175375000Y-22250000D02*
X179275000Y-22250000D01*
X175375000Y-24250000D02*
X179275000Y-24250000D01*
%TO.C,D117*%
X193425000Y-44250000D02*
X197325000Y-44250000D01*
X193425000Y-46250000D02*
X193425000Y-44250000D01*
X193425000Y-46250000D02*
X197325000Y-46250000D01*
%TO.C,C3*%
X349585000Y-28340580D02*
X349585000Y-28059420D01*
X348565000Y-28340580D02*
X348565000Y-28059420D01*
%TO.C,D121*%
X157625000Y-55000000D02*
X161525000Y-55000000D01*
X157625000Y-57000000D02*
X157625000Y-55000000D01*
X157625000Y-57000000D02*
X161525000Y-57000000D01*
%TO.C,D11*%
X250925000Y-27250000D02*
X254825000Y-27250000D01*
X250925000Y-29250000D02*
X254825000Y-29250000D01*
X250925000Y-29250000D02*
X250925000Y-27250000D01*
%TO.C,C4*%
X352571920Y-30490000D02*
X352853080Y-30490000D01*
X352571920Y-31510000D02*
X352853080Y-31510000D01*
%TO.C,R2*%
X345787258Y-30177500D02*
X345312742Y-30177500D01*
X345787258Y-31222500D02*
X345312742Y-31222500D01*
%TO.C,D19*%
X322925000Y-60650000D02*
X326825000Y-60650000D01*
X322925000Y-60650000D02*
X322925000Y-58650000D01*
X322925000Y-58650000D02*
X326825000Y-58650000D01*
%TO.C,Y101*%
X118585955Y-27400000D02*
X118785955Y-27400000D01*
X118585955Y-26000000D02*
X118785955Y-26000000D01*
X117135955Y-27300000D02*
X117135955Y-26100000D01*
%TO.C,D27*%
X304925000Y-80200000D02*
X308825000Y-80200000D01*
X304925000Y-80200000D02*
X304925000Y-78200000D01*
X304925000Y-78200000D02*
X308825000Y-78200000D01*
%TO.C,R102*%
X103537258Y-30177500D02*
X103062742Y-30177500D01*
X103537258Y-31222500D02*
X103062742Y-31222500D01*
%TO.C,R6*%
X358152500Y-11462742D02*
X358152500Y-11937258D01*
X359197500Y-11462742D02*
X359197500Y-11937258D01*
%TO.C,D16*%
X268975000Y-39250000D02*
X272875000Y-39250000D01*
X268975000Y-41250000D02*
X268975000Y-39250000D01*
X268975000Y-41250000D02*
X272875000Y-41250000D01*
%TO.C,D6*%
X232925000Y-13250000D02*
X232925000Y-11250000D01*
X232925000Y-11250000D02*
X236825000Y-11250000D01*
X232925000Y-13250000D02*
X236825000Y-13250000D01*
%TO.C,Y1*%
X340350000Y-26100000D02*
X340550000Y-26100000D01*
X340350000Y-27500000D02*
X340550000Y-27500000D01*
X338900000Y-27400000D02*
X338900000Y-26200000D01*
%TO.C,D122*%
X175375000Y-58250000D02*
X175375000Y-56250000D01*
X175375000Y-58250000D02*
X179275000Y-58250000D01*
X175375000Y-56250000D02*
X179275000Y-56250000D01*
%TO.C,D21*%
X286725000Y-55000000D02*
X290625000Y-55000000D01*
X286725000Y-57000000D02*
X286725000Y-55000000D01*
X286725000Y-57000000D02*
X290625000Y-57000000D01*
%TO.C,D22*%
X268975000Y-58250000D02*
X268975000Y-56250000D01*
X268975000Y-58250000D02*
X272875000Y-58250000D01*
X268975000Y-56250000D02*
X272875000Y-56250000D01*
%TO.C,C105*%
X107059420Y-31210000D02*
X107340580Y-31210000D01*
X107059420Y-30190000D02*
X107340580Y-30190000D01*
%TO.C,D17*%
X250925000Y-44250000D02*
X254825000Y-44250000D01*
X250925000Y-46250000D02*
X250925000Y-44250000D01*
X250925000Y-46250000D02*
X254825000Y-46250000D01*
%TO.C,C2*%
X341965000Y-29540580D02*
X341965000Y-29259420D01*
X342985000Y-29540580D02*
X342985000Y-29259420D01*
D16*
%TO.C,J106*%
X110325000Y-27150000D02*
X110325000Y-28005000D01*
X110325000Y-31150000D02*
X112672000Y-31150000D01*
X110325000Y-27150000D02*
X112538000Y-27150000D01*
X114575000Y-28383000D02*
X114575000Y-29872000D01*
X110325000Y-31150000D02*
X110325000Y-30250000D01*
D17*
%TO.C,D2*%
X304725000Y-7300000D02*
X304725000Y-5300000D01*
X304725000Y-7300000D02*
X308625000Y-7300000D01*
X304725000Y-5300000D02*
X308625000Y-5300000D01*
%TO.C,D7*%
X322975000Y-26650000D02*
X326875000Y-26650000D01*
X322975000Y-24650000D02*
X326875000Y-24650000D01*
X322975000Y-26650000D02*
X322975000Y-24650000D01*
%TO.C,R108*%
X103362742Y-13772500D02*
X103837258Y-13772500D01*
X103362742Y-12727500D02*
X103837258Y-12727500D01*
%TO.C,D113*%
X121425000Y-41650000D02*
X125325000Y-41650000D01*
X121425000Y-43650000D02*
X121425000Y-41650000D01*
X121425000Y-43650000D02*
X125325000Y-43650000D01*
%TO.C,C103*%
X122401535Y-26452500D02*
X122120375Y-26452500D01*
X122401535Y-27472500D02*
X122120375Y-27472500D01*
%TO.C,R106*%
X106722500Y-11462742D02*
X106722500Y-11937258D01*
X105677500Y-11462742D02*
X105677500Y-11937258D01*
%TO.C,R4*%
X331112742Y-37322500D02*
X331587258Y-37322500D01*
X331112742Y-36277500D02*
X331587258Y-36277500D01*
%TO.C,D10*%
X268975000Y-24250000D02*
X268975000Y-22250000D01*
X268975000Y-22250000D02*
X272875000Y-22250000D01*
X268975000Y-24250000D02*
X272875000Y-24250000D01*
%TO.C,D123*%
X193375000Y-63250000D02*
X193375000Y-61250000D01*
X193375000Y-63250000D02*
X197275000Y-63250000D01*
X193375000Y-61250000D02*
X197275000Y-61250000D01*
%TO.C,D12*%
X232975000Y-28250000D02*
X236875000Y-28250000D01*
X232975000Y-30250000D02*
X232975000Y-28250000D01*
X232975000Y-30250000D02*
X236875000Y-30250000D01*
D16*
%TO.C,J9*%
X338425000Y-31200000D02*
X338425000Y-30345000D01*
X338425000Y-27200000D02*
X338425000Y-28100000D01*
X338425000Y-27200000D02*
X336078000Y-27200000D01*
X334175000Y-29967000D02*
X334175000Y-28478000D01*
X338425000Y-31200000D02*
X336212000Y-31200000D01*
%TO.C,BATT101*%
X89150000Y-21950000D02*
X89150000Y-16450000D01*
X89981000Y-22200000D02*
X91119000Y-22200000D01*
X87550000Y-21225000D02*
X87550000Y-19950000D01*
X92050000Y-20700000D02*
X92050000Y-19200000D01*
X91119000Y-16200000D02*
X89981000Y-16200000D01*
X92050000Y-16431000D02*
X92050000Y-16441000D01*
X89150000Y-21225000D02*
X87550000Y-21225000D01*
X87550000Y-19950000D02*
X89150000Y-19950000D01*
D17*
%TO.C,C107*%
X96665000Y-57440580D02*
X96665000Y-57159420D01*
X97685000Y-57440580D02*
X97685000Y-57159420D01*
%TO.C,D114*%
X139625000Y-41200000D02*
X139625000Y-39200000D01*
X139625000Y-39200000D02*
X143525000Y-39200000D01*
X139625000Y-41200000D02*
X143525000Y-41200000D01*
%TO.C,D28*%
X286925000Y-76900000D02*
X290825000Y-76900000D01*
X286925000Y-78900000D02*
X290825000Y-78900000D01*
X286925000Y-78900000D02*
X286925000Y-76900000D01*
%TO.C,D20*%
X304925000Y-58300000D02*
X304925000Y-56300000D01*
X304925000Y-58300000D02*
X308825000Y-58300000D01*
X304925000Y-56300000D02*
X308825000Y-56300000D01*
%TO.C,BattJumper1*%
X329850000Y-34100000D02*
X332650000Y-34100000D01*
X332650000Y-32100000D02*
X329850000Y-32100000D01*
X329850000Y-32100000D02*
X329850000Y-34100000D01*
X332650000Y-34100000D02*
X332650000Y-32100000D01*
%TO.C,U3*%
X342715000Y-24162500D02*
X342715000Y-24962500D01*
X342715000Y-24162500D02*
X342715000Y-23362500D01*
X345835000Y-24162500D02*
X345835000Y-23362500D01*
X345835000Y-24162500D02*
X345835000Y-25962500D01*
%TO.C,R8*%
X356037742Y-12577500D02*
X356512258Y-12577500D01*
X356037742Y-13622500D02*
X356512258Y-13622500D01*
%TO.C,D4*%
X268925000Y-7250000D02*
X272825000Y-7250000D01*
X268925000Y-5250000D02*
X272825000Y-5250000D01*
X268925000Y-7250000D02*
X268925000Y-5250000D01*
%TO.C,R107*%
X93174758Y-13077500D02*
X92700242Y-13077500D01*
X93174758Y-14122500D02*
X92700242Y-14122500D01*
%TO.C,D115*%
X157425000Y-37950000D02*
X161325000Y-37950000D01*
X157425000Y-39950000D02*
X157425000Y-37950000D01*
X157425000Y-39950000D02*
X161325000Y-39950000D01*
%TO.C,C5*%
X347385000Y-24159420D02*
X347385000Y-24440580D01*
X346365000Y-24159420D02*
X346365000Y-24440580D01*
%TO.C,RESET101*%
X92100000Y-25150000D02*
X91800000Y-25150000D01*
X89300000Y-25150000D02*
X89600000Y-25150000D01*
X92100000Y-28450000D02*
X92100000Y-25150000D01*
X89300000Y-28450000D02*
X89300000Y-25150000D01*
X89600000Y-28450000D02*
X89300000Y-28450000D01*
X91800000Y-28450000D02*
X92100000Y-28450000D01*
%TO.C,D18*%
X232975000Y-47250000D02*
X236875000Y-47250000D01*
X232975000Y-45250000D02*
X236875000Y-45250000D01*
X232975000Y-47250000D02*
X232975000Y-45250000D01*
%TO.C,C106*%
X96665000Y-61740580D02*
X96665000Y-61459420D01*
X97685000Y-61740580D02*
X97685000Y-61459420D01*
%TO.C,D124*%
X211425000Y-62250000D02*
X215325000Y-62250000D01*
X211425000Y-64250000D02*
X215325000Y-64250000D01*
X211425000Y-64250000D02*
X211425000Y-62250000D01*
%TO.C,D1*%
X322125000Y-9650000D02*
X322125000Y-7650000D01*
X322125000Y-7650000D02*
X326025000Y-7650000D01*
X322125000Y-9650000D02*
X326025000Y-9650000D01*
%TO.C,D128*%
X157425000Y-76900000D02*
X161325000Y-76900000D01*
X157425000Y-78900000D02*
X161325000Y-78900000D01*
X157425000Y-78900000D02*
X157425000Y-76900000D01*
%TO.C,D133*%
X98100000Y-26350000D02*
X94950000Y-26350000D01*
X98100000Y-24650000D02*
X94950000Y-24650000D01*
X98100000Y-24650000D02*
X98100000Y-26350000D01*
%TO.C,R1*%
X343797500Y-11462742D02*
X343797500Y-11937258D01*
X342752500Y-11462742D02*
X342752500Y-11937258D01*
%TO.C,D9*%
X286925000Y-20950000D02*
X290825000Y-20950000D01*
X286925000Y-22950000D02*
X286925000Y-20950000D01*
X286925000Y-22950000D02*
X290825000Y-22950000D01*
%TO.C,U103*%
X108710000Y-27800000D02*
X108710000Y-27000000D01*
X108710000Y-27800000D02*
X108710000Y-28600000D01*
X105590000Y-27800000D02*
X105590000Y-28600000D01*
X105590000Y-27800000D02*
X105590000Y-26000000D01*
%TO.C,R104*%
X117262742Y-37322500D02*
X117737258Y-37322500D01*
X117262742Y-36277500D02*
X117737258Y-36277500D01*
%TO.C,R7*%
X345799758Y-12577500D02*
X345325242Y-12577500D01*
X345799758Y-13622500D02*
X345325242Y-13622500D01*
%TO.C,D8*%
X305025000Y-24200000D02*
X305025000Y-22200000D01*
X305025000Y-24200000D02*
X308925000Y-24200000D01*
X305025000Y-22200000D02*
X308925000Y-22200000D01*
%TO.C,D25*%
X337675000Y-65249999D02*
X337675000Y-61349999D01*
X335675000Y-65249999D02*
X335675000Y-61349999D01*
X337675000Y-65249999D02*
X335675000Y-65249999D01*
%TO.C,D108*%
X139325000Y-24200000D02*
X139325000Y-22200000D01*
X139325000Y-24200000D02*
X143225000Y-24200000D01*
X139325000Y-22200000D02*
X143225000Y-22200000D01*
%TO.C,D106*%
X211425000Y-13250000D02*
X211425000Y-11250000D01*
X211425000Y-11250000D02*
X215325000Y-11250000D01*
X211425000Y-13250000D02*
X215325000Y-13250000D01*
%TO.C,RESET1*%
X356750000Y-28450000D02*
X357050000Y-28450000D01*
X359550000Y-28450000D02*
X359250000Y-28450000D01*
X356750000Y-25150000D02*
X356750000Y-28450000D01*
X359550000Y-25150000D02*
X359550000Y-28450000D01*
X359250000Y-25150000D02*
X359550000Y-25150000D01*
X357050000Y-25150000D02*
X356750000Y-25150000D01*
%TO.C,C7*%
X350865000Y-61559420D02*
X350865000Y-61840580D01*
X351885000Y-61559420D02*
X351885000Y-61840580D01*
%TO.C,C102*%
X96278080Y-30490000D02*
X95996920Y-30490000D01*
X96278080Y-31510000D02*
X95996920Y-31510000D01*
%TO.C,D15*%
X286925000Y-37950000D02*
X290825000Y-37950000D01*
X286925000Y-39950000D02*
X286925000Y-37950000D01*
X286925000Y-39950000D02*
X290825000Y-39950000D01*
%TO.C,D3*%
X286925000Y-3950000D02*
X290825000Y-3950000D01*
X286925000Y-5950000D02*
X286925000Y-3950000D01*
X286925000Y-5950000D02*
X290825000Y-5950000D01*
%TO.C,D5*%
X250925000Y-12250000D02*
X254825000Y-12250000D01*
X250925000Y-10250000D02*
X254825000Y-10250000D01*
X250925000Y-12250000D02*
X250925000Y-10250000D01*
%TO.C,BattJumper101*%
X117000000Y-45550000D02*
X119800000Y-45550000D01*
X117000000Y-43550000D02*
X117000000Y-45550000D01*
X119800000Y-43550000D02*
X117000000Y-43550000D01*
X119800000Y-45550000D02*
X119800000Y-43550000D01*
%TO.C,D23*%
X250975000Y-63250000D02*
X250975000Y-61250000D01*
X250975000Y-63250000D02*
X254875000Y-63250000D01*
X250975000Y-61250000D02*
X254875000Y-61250000D01*
%TO.C,D126*%
X116254200Y-79891025D02*
X119631699Y-81841025D01*
X117254200Y-78158975D02*
X120631699Y-80108975D01*
X116254200Y-79891025D02*
X117254200Y-78158975D01*
%TO.C,U1*%
X345550000Y-29760000D02*
X346350000Y-29760000D01*
X345550000Y-26640000D02*
X344750000Y-26640000D01*
X345550000Y-29760000D02*
X343750000Y-29760000D01*
X345550000Y-26640000D02*
X346350000Y-26640000D01*
%TO.C,D102*%
X139625000Y-7300000D02*
X139625000Y-5300000D01*
X139625000Y-7300000D02*
X143525000Y-7300000D01*
X139625000Y-5300000D02*
X143525000Y-5300000D01*
%TO.C,C104*%
X122426535Y-25910000D02*
X122145375Y-25910000D01*
X122426535Y-24890000D02*
X122145375Y-24890000D01*
%TO.C,Q102*%
X97755000Y-29260000D02*
X97755000Y-27800000D01*
X94595000Y-29260000D02*
X94595000Y-27100000D01*
X94595000Y-29260000D02*
X95525000Y-29260000D01*
X97755000Y-29260000D02*
X96825000Y-29260000D01*
%TO.C,D119*%
X121425000Y-60650000D02*
X125325000Y-60650000D01*
X121425000Y-60650000D02*
X121425000Y-58650000D01*
X121425000Y-58650000D02*
X125325000Y-58650000D01*
%TO.C,C6*%
X351885000Y-57159420D02*
X351885000Y-57440580D01*
X350865000Y-57159420D02*
X350865000Y-57440580D01*
D16*
%TO.C,BATT1*%
X359700000Y-16450000D02*
X359700000Y-21950000D01*
X358869000Y-16200000D02*
X357731000Y-16200000D01*
X361300000Y-17175000D02*
X361300000Y-18450000D01*
X356800000Y-17700000D02*
X356800000Y-19200000D01*
X357731000Y-22200000D02*
X358869000Y-22200000D01*
X356800000Y-21969000D02*
X356800000Y-21959000D01*
X359700000Y-17175000D02*
X361300000Y-17175000D01*
X361300000Y-18450000D02*
X359700000Y-18450000D01*
D17*
%TO.C,D107*%
X124150000Y-27800000D02*
X128050000Y-27800000D01*
X124150000Y-25800000D02*
X128050000Y-25800000D01*
X124150000Y-27800000D02*
X124150000Y-25800000D01*
%TO.C,R5*%
X331587258Y-37877500D02*
X331112742Y-37877500D01*
X331587258Y-38922500D02*
X331112742Y-38922500D01*
%TO.C,C1*%
X340465000Y-29540580D02*
X340465000Y-29259420D01*
X341485000Y-29540580D02*
X341485000Y-29259420D01*
%TO.C,D13*%
X322925000Y-41650000D02*
X326825000Y-41650000D01*
X322925000Y-43650000D02*
X322925000Y-41650000D01*
X322925000Y-43650000D02*
X326825000Y-43650000D01*
%TO.C,D24*%
X232925000Y-62250000D02*
X236825000Y-62250000D01*
X232925000Y-64250000D02*
X236825000Y-64250000D01*
X232925000Y-64250000D02*
X232925000Y-62250000D01*
%TO.C,D104*%
X175425000Y-7250000D02*
X179325000Y-7250000D01*
X175425000Y-5250000D02*
X179325000Y-5250000D01*
X175425000Y-7250000D02*
X175425000Y-5250000D01*
%TD*%
M02*
