M48
; DRILL file {KiCad (5.99.0-8557-g8988e46ab1)} date Saturday, March 06, 2021 at 02:17:42 PM
; FORMAT={-:-/ absolute / inch / decimal}
; #@! TF.CreationDate,2021-03-06T14:17:42-07:00
; #@! TF.GenerationSoftware,Kicad,Pcbnew,(5.99.0-8557-g8988e46ab1)
; #@! TF.FileFunction,Plated,1,2,PTH
FMAT,2
INCH
T1C0.0118
T2C0.0130
T3C0.0157
T4C0.0236
T5C0.0276
T6C0.0394
T7C0.0472
T8C0.0591
%
G90
G05
T1
X4.9439Y-0.3465
X12.6014Y-0.8307
X12.7864Y-0.8386
X13.0384Y-0.4291
X13.2077Y-0.8071
X13.4331Y-0.252
X13.4331Y-0.311
X13.4724Y-0.4567
T2
X3.5512Y-1.2283
X3.5669Y-0.2953
X3.5748Y-1.0512
X3.5906Y-2.1339
X3.6644Y-0.6122
X3.6781Y-0.9547
X3.7087Y-3.0787
X3.7372Y-1.122
X3.747Y-0.5079
X3.8061Y-0.6004
X3.814Y-0.5335
X3.877Y-2.1969
X3.8839Y-0.9882
X3.8848Y-0.5335
X3.8848Y-1.2205
X3.9144Y-1.0138
X3.9449Y-2.7244
X3.975Y-0.5092
X3.9843Y-1.189
X4.0226Y-2.2717
X4.1024Y-0.7559
X4.1024Y-0.9528
X4.1506Y-0.5709
X4.1801Y-0.3898
X4.189Y-0.9685
X4.2037Y-0.8701
X4.2185Y-0.998
X4.2205Y-3.1969
X4.2402Y-0.2638
X4.2402Y-0.3228
X4.2972Y-1.2106
X4.3258Y-1.0906
X4.373Y-0.8268
X4.4055Y-0.7421
X4.4085Y-0.7953
X4.4085Y-2.1122
X4.5433Y-2.2677
X4.563Y-0.7126
X4.5699Y-0.4094
X4.5866Y-2.4724
X4.6417Y-1.6378
X4.6526Y-0.4331
X4.6535Y-2.2913
X4.6535Y-2.4488
X4.6929Y-1.5669
X4.7234Y-0.6142
X4.7352Y-1.1614
X4.8538Y-1.1009
X4.9291Y-0.8346
X4.9291Y-3.4331
X4.9921Y-0.4946
X5.0079Y-1.189
X5.0157Y-0.9921
X5.0866Y-0.7953
X5.1654Y-1.8583
X5.2047Y-0.3622
X5.2047Y-2.5276
X5.7165Y-0.3622
X5.874Y-1.1102
X5.874Y-1.7795
X5.874Y-2.4488
X5.874Y-3.315
X6.1496Y-0.3622
X6.5827Y-1.7402
X6.5827Y-2.4094
X6.5827Y-3.2362
X6.622Y-0.3622
X6.622Y-0.9134
X6.622Y-1.0709
X7.1732Y-0.3622
X7.2913Y-1.7795
X7.2913Y-2.4488
X7.3307Y-1.1102
X7.6644Y-1.0138
X7.8022Y-1.0138
X8.0Y-1.3071
X8.0Y-2.6457
X8.0394Y-0.6378
X8.0394Y-1.9764
X8.5512Y-0.6772
X8.7087Y-1.3465
X8.7087Y-2.0157
X8.7087Y-2.685
X9.562Y-0.6772
X9.5738Y-1.3386
X9.5738Y-2.0079
X9.5738Y-2.6772
X10.2825Y-0.6299
X10.2825Y-1.2992
X10.2825Y-1.9685
X10.2825Y-2.6378
X10.9911Y-0.4331
X10.9911Y-1.1024
X10.9911Y-1.7717
X10.9911Y-2.4409
X11.6998Y-0.3937
X11.6998Y-1.063
X11.6998Y-1.7323
X11.6998Y-2.4016
X11.6998Y-3.189
X12.2116Y-0.4331
X12.251Y-0.7874
X12.4085Y-1.1024
X12.4085Y-1.7717
X12.4085Y-2.4409
X12.4085Y-3.3071
X12.6604Y-0.4409
X12.6604Y-0.5551
X12.6919Y-0.5748
X12.7274Y-2.2677
X12.7274Y-3.0512
X12.7392Y-0.8031
X12.7549Y-0.6969
X12.7549Y-0.8504
X12.7667Y-0.3425
X12.7746Y-0.8858
X12.7864Y-1.0315
X12.8061Y-0.9055
X12.8376Y-0.9134
X12.873Y-0.9134
X12.9163Y-0.9961
X12.94Y-1.0197
X12.9478Y-1.5787
X12.9705Y-1.5236
X13.0384Y-1.7717
X13.1171Y-2.5197
X13.2077Y-0.7638
X13.2116Y-0.4685
X13.2116Y-0.5827
X13.314Y-0.4213
X13.3258Y-0.5433
X13.3494Y-0.8307
X13.3573Y-0.6142
X13.3927Y-3.189
X13.4675Y-0.9449
X13.4754Y-0.6614
X13.4754Y-0.7205
X13.4754Y-0.7638
X13.4764Y-0.4016
X13.4793Y-0.8031
X13.499Y-0.5512
X13.5069Y-1.0669
X13.5108Y-1.2323
X13.5384Y-0.7953
X13.5502Y-0.5669
X13.563Y-0.3543
X13.6004Y-2.8976
X13.6066Y-1.11
X13.6683Y-0.685
X13.6919Y-0.5197
X13.7087Y-0.9882
X13.747Y-2.3622
X13.7667Y-0.5512
X13.7707Y-0.5197
X13.8238Y-0.5177
X13.8553Y-0.5492
X13.9203Y-0.5236
X13.9371Y-1.063
X13.9636Y-0.878
X13.9972Y-2.8323
X13.999Y-0.5906
X14.0778Y-1.2047
X14.1093Y-0.2913
T3
X4.2943Y-0.9449
X12.6132Y-0.5984
X12.7274Y-0.5787
X12.9675Y-1.2441
X12.9951Y-1.0669
X13.0463Y-1.0669
X13.0502Y-1.1378
X13.0738Y-1.0315
X13.1053Y-1.3937
X13.2623Y-1.1491
X13.3455Y-0.5
X13.4085Y-0.9291
X13.4321Y-0.9921
X13.5502Y-0.8543
X13.7431Y-0.9213
X13.7431Y-1.2008
X13.9833Y-0.9311
T4
X3.6378Y-0.421
X3.6378Y-0.4314
X3.6378Y-0.451
X3.6378Y-0.2654
X3.6378Y-0.2774
X3.6378Y-0.2909
X3.6378Y-0.3024
X3.6378Y-0.4414
X3.6378Y-0.2544
X4.0768Y-0.421
X4.0768Y-0.4314
X4.0768Y-0.451
X4.0768Y-0.2649
X4.0768Y-0.2769
X4.0768Y-0.2904
X4.0768Y-0.3019
X4.0768Y-0.4414
X4.0768Y-0.2539
X13.5945Y-0.421
X13.5945Y-0.4314
X13.5945Y-0.451
X13.5945Y-0.2654
X13.5945Y-0.2774
X13.5945Y-0.2909
X13.5945Y-0.3024
X13.5945Y-0.4414
X13.5945Y-0.2544
X14.0335Y-0.421
X14.0335Y-0.4314
X14.0335Y-0.451
X14.0335Y-0.2649
X14.0335Y-0.2769
X14.0335Y-0.2904
X14.0335Y-0.3019
X14.0335Y-0.4414
X14.0335Y-0.2539
T5
X5.2244Y-1.4961
X5.2244Y-1.6378
X12.4508Y-1.4094
X12.4508Y-1.5512
T6
X3.6998Y-2.2441
X3.6998Y-2.3425
X3.6998Y-2.4409
X4.2707Y-2.2441
X4.2707Y-2.4409
X4.4843Y-0.4835
X4.4843Y-0.5835
X4.4843Y-0.7835
X13.1053Y-0.4677
X13.1053Y-0.5677
X13.1053Y-0.7677
X13.4006Y-2.2441
X13.4006Y-2.4409
X13.9715Y-2.2441
X13.9715Y-2.3425
X13.9715Y-2.4409
T7
X4.3344Y-3.3427
X4.4616Y-3.5161
X4.6722Y-1.3425
X4.6722Y-2.0118
X4.6722Y-2.6811
X4.8691Y-0.2953
X4.8691Y-1.4291
X4.8691Y-2.0984
X4.8691Y-2.7677
X5.0659Y-0.3819
X5.377Y-3.4528
X5.3809Y-0.5787
X5.3809Y-1.248
X5.3809Y-1.9173
X5.3809Y-2.5866
X5.5738Y-3.5394
X5.5778Y-0.6654
X5.5778Y-1.3346
X5.5778Y-2.0039
X5.5778Y-2.6732
X6.0896Y-0.5276
X6.0896Y-1.1969
X6.0896Y-1.8661
X6.0896Y-2.5354
X6.0896Y-3.4016
X6.2864Y-0.6142
X6.2864Y-1.2835
X6.2864Y-1.9528
X6.2864Y-2.622
X6.2864Y-3.4882
X6.7982Y-0.5787
X6.7982Y-1.248
X6.7982Y-1.9173
X6.7982Y-2.5866
X6.9951Y-0.6654
X6.9951Y-1.3346
X6.9951Y-2.0039
X6.9951Y-2.6732
X7.5069Y-0.7756
X7.5069Y-1.4449
X7.5069Y-2.1142
X7.5069Y-2.7835
X7.7037Y-0.8622
X7.7037Y-1.5315
X7.7037Y-2.2008
X7.7037Y-2.8701
X8.2156Y-0.815
X8.2156Y-1.4843
X8.2156Y-2.1535
X8.2156Y-2.8228
X8.4124Y-0.9016
X8.4124Y-1.5709
X8.4124Y-2.2402
X8.4124Y-2.9094
X9.062Y-0.815
X9.062Y-1.4843
X9.062Y-2.1535
X9.062Y-2.8228
X9.2589Y-0.9016
X9.2589Y-1.5709
X9.2589Y-2.2402
X9.2589Y-2.9094
X9.7707Y-0.7756
X9.7707Y-1.4449
X9.7707Y-2.1142
X9.7707Y-2.7835
X9.9675Y-0.8622
X9.9675Y-1.5315
X9.9675Y-2.2008
X9.9675Y-2.8701
X10.4793Y-0.5787
X10.4793Y-1.248
X10.4793Y-1.9173
X10.4793Y-2.5866
X10.6762Y-0.6654
X10.6762Y-1.3346
X10.6762Y-2.0039
X10.6762Y-2.6732
X11.188Y-0.5276
X11.188Y-1.1969
X11.188Y-1.8661
X11.188Y-2.5354
X11.188Y-3.4016
X11.3848Y-0.6142
X11.3848Y-1.2835
X11.3848Y-1.9528
X11.3848Y-2.622
X11.3848Y-3.4882
X11.8967Y-0.5787
X11.8967Y-1.248
X11.8967Y-1.9173
X11.8967Y-2.5866
X11.9006Y-3.4528
X12.0935Y-0.6654
X12.0935Y-1.3346
X12.0935Y-2.0039
X12.0935Y-2.6732
X12.0974Y-3.5394
X12.6053Y-0.6732
X12.6053Y-1.3425
X12.6053Y-2.0118
X12.6053Y-2.6811
X12.8022Y-0.7598
X12.8022Y-1.4291
X12.8022Y-2.0984
X12.8022Y-2.7677
X12.9959Y-3.5395
X13.2096Y-3.5161
T8
G00X3.9695Y-2.122
M15
G01X4.0207Y-2.122
M16
G05
G00X3.9695Y-2.563
M15
G01X4.0207Y-2.563
M16
G05
G00X13.7018Y-2.122
M15
G01X13.6506Y-2.122
M16
G05
G00X13.7018Y-2.563
M15
G01X13.6506Y-2.563
M16
G05
T0
M30
