%TF.GenerationSoftware,KiCad,Pcbnew,(5.99.0-8557-g8988e46ab1)*%
%TF.CreationDate,2021-03-06T14:17:40-07:00*%
%TF.ProjectId,SP56,53503536-2e6b-4696-9361-645f70636258,rev?*%
%TF.SameCoordinates,Original*%
%TF.FileFunction,Profile,NP*%
%FSLAX46Y46*%
G04 Gerber Fmt 4.6, Leading zero omitted, Abs format (unit mm)*
G04 Created by KiCad (PCBNEW (5.99.0-8557-g8988e46ab1)) date 2021-03-06 14:17:40*
%MOMM*%
%LPD*%
G01*
G04 APERTURE LIST*
%TA.AperFunction,Profile*%
%ADD10C,0.150000*%
%TD*%
G04 APERTURE END LIST*
D10*
X221085997Y-7534015D02*
G75*
G02*
X223175000Y-10000000I-410997J-2465985D01*
G01*
X88360524Y-82127087D02*
X88360524Y-7800000D01*
X225675000Y-69500000D02*
G75*
G02*
X223175000Y-69500000I-1250000J0D01*
G01*
X316090619Y-93766253D02*
G75*
G03*
X314967954Y-93499999I-1122665J-2233747D01*
G01*
X225675000Y-10500000D02*
G75*
G02*
X223175000Y-10500000I-1250000J0D01*
G01*
X348436216Y-86012177D02*
X327370689Y-98174364D01*
X346250000Y-11600000D02*
X355500000Y-11600000D01*
X355500000Y-11600000D02*
X355500000Y-5300000D01*
X123851975Y-98243048D02*
X132759381Y-93766252D01*
X223175000Y-74500000D02*
G75*
G02*
X225675000Y-74500000I1250000J0D01*
G01*
X132759381Y-93766253D02*
G75*
G02*
X133882046Y-93499999I1122665J-2233747D01*
G01*
X99163784Y-85677241D02*
G75*
G02*
X100413784Y-86012177I1J-2500000D01*
G01*
X349686216Y-85677241D02*
G75*
G03*
X348436216Y-86012177I-1J-2500000D01*
G01*
X223175000Y-69500000D02*
X223175000Y-45000000D01*
X359684849Y-83964398D02*
G75*
G03*
X360489476Y-82127087I-1695373J1837311D01*
G01*
X150587158Y-218672D02*
G75*
G02*
X150892133Y-200000I304975J-2481328D01*
G01*
X181765482Y-78226802D02*
G75*
G02*
X183527802Y-77500000I1762320J-1773198D01*
G01*
X223175000Y-10000000D02*
X223175000Y-10500000D01*
X355500000Y-5300000D02*
X357989476Y-5300000D01*
X244907123Y-7355881D02*
G75*
G02*
X244264003Y-7534015I-643120J1071867D01*
G01*
X93350000Y-11600000D02*
X93350000Y-5300000D01*
X360489476Y-82127087D02*
X360489476Y-7800000D01*
X324998025Y-98243048D02*
G75*
G03*
X327370689Y-98174364I1122664J2233747D01*
G01*
X298262842Y-218672D02*
G75*
G03*
X297957867Y-200000I-304975J-2481328D01*
G01*
X225675000Y-40000000D02*
G75*
G02*
X223175000Y-40000000I-1250000J0D01*
G01*
X102600000Y-5300000D02*
X102600000Y-11600000D01*
X225675000Y-10000000D02*
X225675000Y-10500000D01*
X281720706Y-92773197D02*
X267084518Y-78226802D01*
X324998025Y-98243048D02*
X316090619Y-93766252D01*
X100413784Y-86012177D02*
X121479311Y-98174364D01*
X356851401Y-85677241D02*
G75*
G03*
X358546774Y-85014552I0J2500000D01*
G01*
X360489476Y-7800000D02*
G75*
G03*
X357989476Y-5300000I-2500000J0D01*
G01*
X339453493Y-5281328D02*
G75*
G03*
X339758468Y-5300000I304975J2481328D01*
G01*
X225675000Y-75000000D02*
G75*
G03*
X228175000Y-77500000I2500000J0D01*
G01*
X223175000Y-15500000D02*
G75*
G02*
X225675000Y-15500000I1250000J0D01*
G01*
X281720706Y-92773197D02*
G75*
G03*
X283483025Y-93499999I1762319J1773198D01*
G01*
X115075000Y-32050000D02*
X90575000Y-32050000D01*
X90575000Y-32050000D02*
X90575000Y-52050000D01*
X90575000Y-52050000D02*
X115075000Y-52050000D01*
X115075000Y-52050000D02*
X115075000Y-32050000D01*
X91998599Y-85677241D02*
G75*
G02*
X90303226Y-85014552I0J2500000D01*
G01*
X109396507Y-5281328D02*
G75*
G02*
X109091532Y-5300000I-304975J2481328D01*
G01*
X225675000Y-75000000D02*
X225675000Y-74500000D01*
X221085997Y-7534015D02*
X204675000Y-7500000D01*
X339758468Y-5300000D02*
X346250000Y-5300000D01*
X227764003Y-7534015D02*
G75*
G03*
X225675000Y-10000000I410997J-2465985D01*
G01*
X176874996Y-200000D02*
G75*
G02*
X177285993Y-234015I0J-2500000D01*
G01*
X346250000Y-5300000D02*
X346250000Y-11600000D01*
X102600000Y-11600000D02*
X93350000Y-11600000D01*
X356851402Y-85677241D02*
X349686216Y-85677241D01*
X88360524Y-7800000D02*
G75*
G02*
X90860524Y-5300000I2500000J0D01*
G01*
X223175000Y-45000000D02*
G75*
G02*
X225675000Y-45000000I1250000J0D01*
G01*
X271975005Y-200000D02*
X297957867Y-199999D01*
X133882046Y-93499999D02*
X165366975Y-93499999D01*
X333775000Y-32200000D02*
X358275000Y-32200000D01*
X358275000Y-32200000D02*
X358275000Y-52200000D01*
X358275000Y-52200000D02*
X333775000Y-52200000D01*
X333775000Y-52200000D02*
X333775000Y-32200000D01*
X298262842Y-218671D02*
X339453493Y-5281329D01*
X89165151Y-83964397D02*
X90303226Y-85014551D01*
X227764003Y-7534015D02*
X244264003Y-7534015D01*
X223175000Y-40000000D02*
X223175000Y-15500000D01*
X225675000Y-40000000D02*
X225675000Y-15500000D01*
X109091532Y-5300000D02*
X102600000Y-5300000D01*
X167129294Y-92773197D02*
X181765482Y-78226802D01*
X167129294Y-92773197D02*
G75*
G02*
X165366975Y-93499999I-1762319J1773198D01*
G01*
X204380826Y-7470871D02*
G75*
G03*
X204675000Y-7500000I294174J1470871D01*
G01*
X244907123Y-7355881D02*
X271564007Y-234015D01*
X225675000Y-69500000D02*
X225675000Y-45000000D01*
X223175000Y-75000000D02*
X223175000Y-74500000D01*
X93350000Y-5300000D02*
X90860524Y-5300000D01*
X204380826Y-7470871D02*
X177285993Y-234016D01*
X314967954Y-93499999D02*
X283483025Y-93499999D01*
X359684849Y-83964397D02*
X358546774Y-85014551D01*
X271975004Y-200000D02*
G75*
G03*
X271564007Y-234015I0J-2500000D01*
G01*
X150587158Y-218671D02*
X109396507Y-5281329D01*
X123851975Y-98243048D02*
G75*
G02*
X121479311Y-98174364I-1122664J2233747D01*
G01*
X183527802Y-77500000D02*
X220675000Y-77500000D01*
X223175000Y-75000000D02*
G75*
G02*
X220675000Y-77500000I-2500000J0D01*
G01*
X267084518Y-78226802D02*
G75*
G03*
X265322198Y-77500000I-1762320J-1773198D01*
G01*
X265322198Y-77500000D02*
X228175000Y-77500000D01*
X91998598Y-85677241D02*
X99163784Y-85677241D01*
X176874995Y-200000D02*
X150892133Y-199999D01*
X89165151Y-83964398D02*
G75*
G02*
X88360524Y-82127087I1695373J1837311D01*
G01*
M02*
