%TF.GenerationSoftware,KiCad,Pcbnew,(5.99.0-8557-g8988e46ab1)*%
%TF.CreationDate,2021-03-06T14:17:40-07:00*%
%TF.ProjectId,SP56,53503536-2e6b-4696-9361-645f70636258,rev?*%
%TF.SameCoordinates,Original*%
%TF.FileFunction,Legend,Top*%
%TF.FilePolarity,Positive*%
%FSLAX46Y46*%
G04 Gerber Fmt 4.6, Leading zero omitted, Abs format (unit mm)*
G04 Created by KiCad (PCBNEW (5.99.0-8557-g8988e46ab1)) date 2021-03-06 14:17:40*
%MOMM*%
%LPD*%
G01*
G04 APERTURE LIST*
%ADD10C,0.200000*%
%ADD11C,0.150000*%
%ADD12C,0.120000*%
G04 APERTURE END LIST*
D10*
X182809951Y-3728639D02*
X182948182Y-3819907D01*
X183201163Y-3887693D01*
X183315912Y-3864211D01*
X183380065Y-3827172D01*
X183457776Y-3739537D01*
X183484890Y-3638345D01*
X183461409Y-3523596D01*
X183424370Y-3459442D01*
X183336735Y-3381732D01*
X183147907Y-3276907D01*
X183060272Y-3199196D01*
X183023233Y-3135043D01*
X182999752Y-3020294D01*
X183026866Y-2919102D01*
X183104577Y-2831466D01*
X183168730Y-2794428D01*
X183283479Y-2770946D01*
X183536460Y-2838732D01*
X183674691Y-2929999D01*
X183858912Y-4063936D02*
X184143613Y-3001418D01*
X184548382Y-3109876D01*
X184636017Y-3187586D01*
X184673056Y-3251739D01*
X184696538Y-3366489D01*
X184655866Y-3518277D01*
X184578156Y-3605912D01*
X184514002Y-3642951D01*
X184399253Y-3666433D01*
X183994484Y-3557975D01*
X185712093Y-3421691D02*
X185206132Y-3286119D01*
X185019964Y-3778523D01*
X185084117Y-3741484D01*
X185198866Y-3718002D01*
X185451847Y-3785788D01*
X185539482Y-3863499D01*
X185576521Y-3927652D01*
X185600003Y-4042401D01*
X185532217Y-4295382D01*
X185454506Y-4383017D01*
X185390353Y-4420056D01*
X185275603Y-4443538D01*
X185022623Y-4375752D01*
X184934988Y-4298041D01*
X184897949Y-4233888D01*
X186673419Y-3679277D02*
X186471034Y-3625049D01*
X186356285Y-3648530D01*
X186292132Y-3685569D01*
X186150268Y-3810243D01*
X186045443Y-3999071D01*
X185936986Y-4403839D01*
X185960467Y-4518589D01*
X185997506Y-4582742D01*
X186085141Y-4660453D01*
X186287526Y-4714681D01*
X186402275Y-4691200D01*
X186466428Y-4654161D01*
X186544139Y-4566526D01*
X186611925Y-4313545D01*
X186588443Y-4198796D01*
X186551404Y-4134642D01*
X186463769Y-4056932D01*
X186261385Y-4002703D01*
X186146635Y-4026185D01*
X186082482Y-4063224D01*
X186004772Y-4150859D01*
X187887726Y-4004650D02*
X187957198Y-5162069D01*
X188596071Y-4194451D01*
X189222100Y-5500998D02*
X188614947Y-5338312D01*
X188918524Y-5419655D02*
X189203225Y-4357137D01*
X189061361Y-4481811D01*
X188933054Y-4555889D01*
X188818305Y-4579370D01*
X190487003Y-5839928D02*
X190771704Y-4777410D01*
X190663247Y-5182179D02*
X190777996Y-5158697D01*
X190980381Y-5212926D01*
X191068016Y-5290636D01*
X191105055Y-5354789D01*
X191128536Y-5469539D01*
X191047193Y-5773115D01*
X190969483Y-5860751D01*
X190905329Y-5897789D01*
X190790580Y-5921271D01*
X190588195Y-5867042D01*
X190500560Y-5789332D01*
X191536938Y-5362055D02*
X191600118Y-6138186D01*
X192042899Y-5497627D02*
X191600118Y-6138186D01*
X191431140Y-6364052D01*
X191366986Y-6401091D01*
X191252237Y-6424573D01*
X193216534Y-5974787D02*
X193570707Y-6069688D01*
X193573366Y-6666917D02*
X193067405Y-6531345D01*
X193352106Y-5468826D01*
X193858067Y-5604398D01*
X194635885Y-6951617D02*
X194417284Y-6350756D01*
X194028731Y-6788931D02*
X194313432Y-5726413D01*
X194718201Y-5834870D01*
X194805836Y-5912581D01*
X194842875Y-5976734D01*
X194866357Y-6091484D01*
X194825685Y-6243272D01*
X194747975Y-6330907D01*
X194683821Y-6367946D01*
X194569072Y-6391428D01*
X194164303Y-6282970D01*
X195597211Y-7209204D02*
X195091250Y-7073632D01*
X195375951Y-6011114D01*
D11*
X261960714Y-25357142D02*
X262770238Y-25357142D01*
X262865476Y-25404761D01*
X262913095Y-25452380D01*
X262960714Y-25547619D01*
X262960714Y-25690476D01*
X262913095Y-25785714D01*
X262579761Y-25357142D02*
X262627380Y-25452380D01*
X262627380Y-25642857D01*
X262579761Y-25738095D01*
X262532142Y-25785714D01*
X262436904Y-25833333D01*
X262151190Y-25833333D01*
X262055952Y-25785714D01*
X262008333Y-25738095D01*
X261960714Y-25642857D01*
X261960714Y-25452380D01*
X262008333Y-25357142D01*
X262627380Y-24880952D02*
X261960714Y-24880952D01*
X261627380Y-24880952D02*
X261675000Y-24928571D01*
X261722619Y-24880952D01*
X261675000Y-24833333D01*
X261627380Y-24880952D01*
X261722619Y-24880952D01*
X261960714Y-24547619D02*
X261960714Y-24166666D01*
X261627380Y-24404761D02*
X262484523Y-24404761D01*
X262579761Y-24357142D01*
X262627380Y-24261904D01*
X262627380Y-24166666D01*
X262627380Y-23833333D02*
X261627380Y-23833333D01*
X262627380Y-23404761D02*
X262103571Y-23404761D01*
X262008333Y-23452380D01*
X261960714Y-23547619D01*
X261960714Y-23690476D01*
X262008333Y-23785714D01*
X262055952Y-23833333D01*
X261960714Y-22500000D02*
X262627380Y-22500000D01*
X261960714Y-22928571D02*
X262484523Y-22928571D01*
X262579761Y-22880952D01*
X262627380Y-22785714D01*
X262627380Y-22642857D01*
X262579761Y-22547619D01*
X262532142Y-22500000D01*
X262627380Y-22023809D02*
X261627380Y-22023809D01*
X262008333Y-22023809D02*
X261960714Y-21928571D01*
X261960714Y-21738095D01*
X262008333Y-21642857D01*
X262055952Y-21595238D01*
X262151190Y-21547619D01*
X262436904Y-21547619D01*
X262532142Y-21595238D01*
X262579761Y-21642857D01*
X262627380Y-21738095D01*
X262627380Y-21928571D01*
X262579761Y-22023809D01*
X262532142Y-21119047D02*
X262579761Y-21071428D01*
X262627380Y-21119047D01*
X262579761Y-21166666D01*
X262532142Y-21119047D01*
X262627380Y-21119047D01*
X262579761Y-20214285D02*
X262627380Y-20309523D01*
X262627380Y-20500000D01*
X262579761Y-20595238D01*
X262532142Y-20642857D01*
X262436904Y-20690476D01*
X262151190Y-20690476D01*
X262055952Y-20642857D01*
X262008333Y-20595238D01*
X261960714Y-20500000D01*
X261960714Y-20309523D01*
X262008333Y-20214285D01*
X262627380Y-19642857D02*
X262579761Y-19738095D01*
X262532142Y-19785714D01*
X262436904Y-19833333D01*
X262151190Y-19833333D01*
X262055952Y-19785714D01*
X262008333Y-19738095D01*
X261960714Y-19642857D01*
X261960714Y-19500000D01*
X262008333Y-19404761D01*
X262055952Y-19357142D01*
X262151190Y-19309523D01*
X262436904Y-19309523D01*
X262532142Y-19357142D01*
X262579761Y-19404761D01*
X262627380Y-19500000D01*
X262627380Y-19642857D01*
X262627380Y-18880952D02*
X261960714Y-18880952D01*
X262055952Y-18880952D02*
X262008333Y-18833333D01*
X261960714Y-18738095D01*
X261960714Y-18595238D01*
X262008333Y-18500000D01*
X262103571Y-18452380D01*
X262627380Y-18452380D01*
X262103571Y-18452380D02*
X262008333Y-18404761D01*
X261960714Y-18309523D01*
X261960714Y-18166666D01*
X262008333Y-18071428D01*
X262103571Y-18023809D01*
X262627380Y-18023809D01*
X261579761Y-16833333D02*
X262865476Y-17690476D01*
X262579761Y-16119047D02*
X262627380Y-16214285D01*
X262627380Y-16404761D01*
X262579761Y-16500000D01*
X262484523Y-16547619D01*
X262103571Y-16547619D01*
X262008333Y-16500000D01*
X261960714Y-16404761D01*
X261960714Y-16214285D01*
X262008333Y-16119047D01*
X262103571Y-16071428D01*
X262198809Y-16071428D01*
X262294047Y-16547619D01*
X262627380Y-15642857D02*
X261960714Y-15642857D01*
X262151190Y-15642857D02*
X262055952Y-15595238D01*
X262008333Y-15547619D01*
X261960714Y-15452380D01*
X261960714Y-15357142D01*
X262627380Y-15023809D02*
X261960714Y-15023809D01*
X261627380Y-15023809D02*
X261675000Y-15071428D01*
X261722619Y-15023809D01*
X261675000Y-14976190D01*
X261627380Y-15023809D01*
X261722619Y-15023809D01*
X262579761Y-14119047D02*
X262627380Y-14214285D01*
X262627380Y-14404761D01*
X262579761Y-14500000D01*
X262532142Y-14547619D01*
X262436904Y-14595238D01*
X262151190Y-14595238D01*
X262055952Y-14547619D01*
X262008333Y-14500000D01*
X261960714Y-14404761D01*
X261960714Y-14214285D01*
X262008333Y-14119047D01*
X262627380Y-13690476D02*
X261960714Y-13690476D01*
X262151190Y-13690476D02*
X262055952Y-13642857D01*
X262008333Y-13595238D01*
X261960714Y-13500000D01*
X261960714Y-13404761D01*
X262627380Y-12928571D02*
X262579761Y-13023809D01*
X262484523Y-13071428D01*
X261627380Y-13071428D01*
X262627380Y-12119047D02*
X262103571Y-12119047D01*
X262008333Y-12166666D01*
X261960714Y-12261904D01*
X261960714Y-12452380D01*
X262008333Y-12547619D01*
X262579761Y-12119047D02*
X262627380Y-12214285D01*
X262627380Y-12452380D01*
X262579761Y-12547619D01*
X262484523Y-12595238D01*
X262389285Y-12595238D01*
X262294047Y-12547619D01*
X262246428Y-12452380D01*
X262246428Y-12214285D01*
X262198809Y-12119047D01*
X261960714Y-11214285D02*
X262627380Y-11214285D01*
X261960714Y-11642857D02*
X262484523Y-11642857D01*
X262579761Y-11595238D01*
X262627380Y-11500000D01*
X262627380Y-11357142D01*
X262579761Y-11261904D01*
X262532142Y-11214285D01*
X186460714Y-25107142D02*
X187270238Y-25107142D01*
X187365476Y-25154761D01*
X187413095Y-25202380D01*
X187460714Y-25297619D01*
X187460714Y-25440476D01*
X187413095Y-25535714D01*
X187079761Y-25107142D02*
X187127380Y-25202380D01*
X187127380Y-25392857D01*
X187079761Y-25488095D01*
X187032142Y-25535714D01*
X186936904Y-25583333D01*
X186651190Y-25583333D01*
X186555952Y-25535714D01*
X186508333Y-25488095D01*
X186460714Y-25392857D01*
X186460714Y-25202380D01*
X186508333Y-25107142D01*
X187127380Y-24630952D02*
X186460714Y-24630952D01*
X186127380Y-24630952D02*
X186175000Y-24678571D01*
X186222619Y-24630952D01*
X186175000Y-24583333D01*
X186127380Y-24630952D01*
X186222619Y-24630952D01*
X186460714Y-24297619D02*
X186460714Y-23916666D01*
X186127380Y-24154761D02*
X186984523Y-24154761D01*
X187079761Y-24107142D01*
X187127380Y-24011904D01*
X187127380Y-23916666D01*
X187127380Y-23583333D02*
X186127380Y-23583333D01*
X187127380Y-23154761D02*
X186603571Y-23154761D01*
X186508333Y-23202380D01*
X186460714Y-23297619D01*
X186460714Y-23440476D01*
X186508333Y-23535714D01*
X186555952Y-23583333D01*
X186460714Y-22250000D02*
X187127380Y-22250000D01*
X186460714Y-22678571D02*
X186984523Y-22678571D01*
X187079761Y-22630952D01*
X187127380Y-22535714D01*
X187127380Y-22392857D01*
X187079761Y-22297619D01*
X187032142Y-22250000D01*
X187127380Y-21773809D02*
X186127380Y-21773809D01*
X186508333Y-21773809D02*
X186460714Y-21678571D01*
X186460714Y-21488095D01*
X186508333Y-21392857D01*
X186555952Y-21345238D01*
X186651190Y-21297619D01*
X186936904Y-21297619D01*
X187032142Y-21345238D01*
X187079761Y-21392857D01*
X187127380Y-21488095D01*
X187127380Y-21678571D01*
X187079761Y-21773809D01*
X187032142Y-20869047D02*
X187079761Y-20821428D01*
X187127380Y-20869047D01*
X187079761Y-20916666D01*
X187032142Y-20869047D01*
X187127380Y-20869047D01*
X187079761Y-19964285D02*
X187127380Y-20059523D01*
X187127380Y-20250000D01*
X187079761Y-20345238D01*
X187032142Y-20392857D01*
X186936904Y-20440476D01*
X186651190Y-20440476D01*
X186555952Y-20392857D01*
X186508333Y-20345238D01*
X186460714Y-20250000D01*
X186460714Y-20059523D01*
X186508333Y-19964285D01*
X187127380Y-19392857D02*
X187079761Y-19488095D01*
X187032142Y-19535714D01*
X186936904Y-19583333D01*
X186651190Y-19583333D01*
X186555952Y-19535714D01*
X186508333Y-19488095D01*
X186460714Y-19392857D01*
X186460714Y-19250000D01*
X186508333Y-19154761D01*
X186555952Y-19107142D01*
X186651190Y-19059523D01*
X186936904Y-19059523D01*
X187032142Y-19107142D01*
X187079761Y-19154761D01*
X187127380Y-19250000D01*
X187127380Y-19392857D01*
X187127380Y-18630952D02*
X186460714Y-18630952D01*
X186555952Y-18630952D02*
X186508333Y-18583333D01*
X186460714Y-18488095D01*
X186460714Y-18345238D01*
X186508333Y-18250000D01*
X186603571Y-18202380D01*
X187127380Y-18202380D01*
X186603571Y-18202380D02*
X186508333Y-18154761D01*
X186460714Y-18059523D01*
X186460714Y-17916666D01*
X186508333Y-17821428D01*
X186603571Y-17773809D01*
X187127380Y-17773809D01*
X186079761Y-16583333D02*
X187365476Y-17440476D01*
X187079761Y-15869047D02*
X187127380Y-15964285D01*
X187127380Y-16154761D01*
X187079761Y-16250000D01*
X186984523Y-16297619D01*
X186603571Y-16297619D01*
X186508333Y-16250000D01*
X186460714Y-16154761D01*
X186460714Y-15964285D01*
X186508333Y-15869047D01*
X186603571Y-15821428D01*
X186698809Y-15821428D01*
X186794047Y-16297619D01*
X187127380Y-15392857D02*
X186460714Y-15392857D01*
X186651190Y-15392857D02*
X186555952Y-15345238D01*
X186508333Y-15297619D01*
X186460714Y-15202380D01*
X186460714Y-15107142D01*
X187127380Y-14773809D02*
X186460714Y-14773809D01*
X186127380Y-14773809D02*
X186175000Y-14821428D01*
X186222619Y-14773809D01*
X186175000Y-14726190D01*
X186127380Y-14773809D01*
X186222619Y-14773809D01*
X187079761Y-13869047D02*
X187127380Y-13964285D01*
X187127380Y-14154761D01*
X187079761Y-14250000D01*
X187032142Y-14297619D01*
X186936904Y-14345238D01*
X186651190Y-14345238D01*
X186555952Y-14297619D01*
X186508333Y-14250000D01*
X186460714Y-14154761D01*
X186460714Y-13964285D01*
X186508333Y-13869047D01*
X187127380Y-13440476D02*
X186460714Y-13440476D01*
X186651190Y-13440476D02*
X186555952Y-13392857D01*
X186508333Y-13345238D01*
X186460714Y-13250000D01*
X186460714Y-13154761D01*
X187127380Y-12678571D02*
X187079761Y-12773809D01*
X186984523Y-12821428D01*
X186127380Y-12821428D01*
X187127380Y-11869047D02*
X186603571Y-11869047D01*
X186508333Y-11916666D01*
X186460714Y-12011904D01*
X186460714Y-12202380D01*
X186508333Y-12297619D01*
X187079761Y-11869047D02*
X187127380Y-11964285D01*
X187127380Y-12202380D01*
X187079761Y-12297619D01*
X186984523Y-12345238D01*
X186889285Y-12345238D01*
X186794047Y-12297619D01*
X186746428Y-12202380D01*
X186746428Y-11964285D01*
X186698809Y-11869047D01*
X186460714Y-10964285D02*
X187127380Y-10964285D01*
X186460714Y-11392857D02*
X186984523Y-11392857D01*
X187079761Y-11345238D01*
X187127380Y-11250000D01*
X187127380Y-11107142D01*
X187079761Y-11011904D01*
X187032142Y-10964285D01*
D10*
X254190423Y-6631494D02*
X254355769Y-6641418D01*
X254608749Y-6573632D01*
X254696384Y-6495922D01*
X254733423Y-6431768D01*
X254756905Y-6317019D01*
X254729791Y-6215827D01*
X254652080Y-6128192D01*
X254587927Y-6091153D01*
X254473177Y-6067671D01*
X254257236Y-6071304D01*
X254142486Y-6047822D01*
X254078333Y-6010783D01*
X254000623Y-5923148D01*
X253973508Y-5821956D01*
X253996990Y-5707206D01*
X254034029Y-5643053D01*
X254121664Y-5565343D01*
X254374644Y-5497557D01*
X254539990Y-5507481D01*
X255266499Y-6397389D02*
X254981798Y-5334870D01*
X255386567Y-5226413D01*
X255501316Y-5249895D01*
X255565469Y-5286933D01*
X255643180Y-5374569D01*
X255683852Y-5526357D01*
X255660370Y-5641106D01*
X255623331Y-5705260D01*
X255535696Y-5782970D01*
X255130927Y-5891428D01*
X256550277Y-4914598D02*
X256044316Y-5050169D01*
X256129292Y-5569688D01*
X256166331Y-5505534D01*
X256253966Y-5427824D01*
X256506947Y-5360038D01*
X256621696Y-5383520D01*
X256685849Y-5420559D01*
X256763560Y-5508194D01*
X256831346Y-5761174D01*
X256807864Y-5875924D01*
X256770825Y-5940077D01*
X256683190Y-6017787D01*
X256430209Y-6085573D01*
X256315460Y-6062092D01*
X256251307Y-6025053D01*
X257511604Y-4657011D02*
X257309219Y-4711240D01*
X257221584Y-4788950D01*
X257184545Y-4853103D01*
X257124024Y-5032006D01*
X257127657Y-5247948D01*
X257236115Y-5652717D01*
X257313825Y-5740352D01*
X257377978Y-5777391D01*
X257492728Y-5800872D01*
X257695112Y-5746644D01*
X257782747Y-5668933D01*
X257819786Y-5604780D01*
X257843268Y-5490031D01*
X257775482Y-5237050D01*
X257697772Y-5149415D01*
X257633618Y-5112376D01*
X257518869Y-5088894D01*
X257316484Y-5143123D01*
X257228849Y-5220833D01*
X257191810Y-5284987D01*
X257168329Y-5399736D01*
X258725910Y-4331638D02*
X259364784Y-5299257D01*
X259434256Y-4141838D01*
X260629687Y-4960327D02*
X260022534Y-5123013D01*
X260326110Y-5041670D02*
X260041409Y-3979152D01*
X259980889Y-4158054D01*
X259906811Y-4286361D01*
X259819176Y-4364071D01*
X261894590Y-4621397D02*
X261609889Y-3558879D01*
X261718346Y-3963648D02*
X261805981Y-3885937D01*
X262008366Y-3831708D01*
X262123115Y-3855190D01*
X262187269Y-3892229D01*
X262264979Y-3979864D01*
X262346322Y-4283441D01*
X262322840Y-4398190D01*
X262285802Y-4462343D01*
X262198167Y-4540054D01*
X261995782Y-4594283D01*
X261881033Y-4570801D01*
X262564923Y-3682579D02*
X263007704Y-4323139D01*
X263070884Y-3547007D02*
X263007704Y-4323139D01*
X262974298Y-4603234D01*
X262937259Y-4667387D01*
X262849624Y-4745098D01*
X264325863Y-3373423D02*
X264680035Y-3278523D01*
X264980953Y-3794409D02*
X264474992Y-3929981D01*
X264190291Y-2867462D01*
X264696252Y-2731890D01*
X266043471Y-3509708D02*
X265553727Y-3098647D01*
X265436318Y-3672394D02*
X265151617Y-2609876D01*
X265556386Y-2501418D01*
X265671135Y-2524900D01*
X265735289Y-2561939D01*
X265812999Y-2649574D01*
X265853671Y-2801362D01*
X265830189Y-2916111D01*
X265793150Y-2980265D01*
X265705515Y-3057975D01*
X265300746Y-3166433D01*
X267004797Y-3252121D02*
X266498836Y-3387693D01*
X266214135Y-2325175D01*
D11*
%TO.C,D132*%
X104409523Y-10982380D02*
X104409523Y-9982380D01*
X104647619Y-9982380D01*
X104790476Y-10030000D01*
X104885714Y-10125238D01*
X104933333Y-10220476D01*
X104980952Y-10410952D01*
X104980952Y-10553809D01*
X104933333Y-10744285D01*
X104885714Y-10839523D01*
X104790476Y-10934761D01*
X104647619Y-10982380D01*
X104409523Y-10982380D01*
X105933333Y-10982380D02*
X105361904Y-10982380D01*
X105647619Y-10982380D02*
X105647619Y-9982380D01*
X105552380Y-10125238D01*
X105457142Y-10220476D01*
X105361904Y-10268095D01*
X106266666Y-9982380D02*
X106885714Y-9982380D01*
X106552380Y-10363333D01*
X106695238Y-10363333D01*
X106790476Y-10410952D01*
X106838095Y-10458571D01*
X106885714Y-10553809D01*
X106885714Y-10791904D01*
X106838095Y-10887142D01*
X106790476Y-10934761D01*
X106695238Y-10982380D01*
X106409523Y-10982380D01*
X106314285Y-10934761D01*
X106266666Y-10887142D01*
X107266666Y-10077619D02*
X107314285Y-10030000D01*
X107409523Y-9982380D01*
X107647619Y-9982380D01*
X107742857Y-10030000D01*
X107790476Y-10077619D01*
X107838095Y-10172857D01*
X107838095Y-10268095D01*
X107790476Y-10410952D01*
X107219047Y-10982380D01*
X107838095Y-10982380D01*
%TO.C,D31*%
X341535714Y-8122380D02*
X341535714Y-7122380D01*
X341773809Y-7122380D01*
X341916666Y-7170000D01*
X342011904Y-7265238D01*
X342059523Y-7360476D01*
X342107142Y-7550952D01*
X342107142Y-7693809D01*
X342059523Y-7884285D01*
X342011904Y-7979523D01*
X341916666Y-8074761D01*
X341773809Y-8122380D01*
X341535714Y-8122380D01*
X342440476Y-7122380D02*
X343059523Y-7122380D01*
X342726190Y-7503333D01*
X342869047Y-7503333D01*
X342964285Y-7550952D01*
X343011904Y-7598571D01*
X343059523Y-7693809D01*
X343059523Y-7931904D01*
X343011904Y-8027142D01*
X342964285Y-8074761D01*
X342869047Y-8122380D01*
X342583333Y-8122380D01*
X342488095Y-8074761D01*
X342440476Y-8027142D01*
X344011904Y-8122380D02*
X343440476Y-8122380D01*
X343726190Y-8122380D02*
X343726190Y-7122380D01*
X343630952Y-7265238D01*
X343535714Y-7360476D01*
X343440476Y-7408095D01*
%TO.C,D32*%
X357235714Y-8147380D02*
X357235714Y-7147380D01*
X357473809Y-7147380D01*
X357616666Y-7195000D01*
X357711904Y-7290238D01*
X357759523Y-7385476D01*
X357807142Y-7575952D01*
X357807142Y-7718809D01*
X357759523Y-7909285D01*
X357711904Y-8004523D01*
X357616666Y-8099761D01*
X357473809Y-8147380D01*
X357235714Y-8147380D01*
X358140476Y-7147380D02*
X358759523Y-7147380D01*
X358426190Y-7528333D01*
X358569047Y-7528333D01*
X358664285Y-7575952D01*
X358711904Y-7623571D01*
X358759523Y-7718809D01*
X358759523Y-7956904D01*
X358711904Y-8052142D01*
X358664285Y-8099761D01*
X358569047Y-8147380D01*
X358283333Y-8147380D01*
X358188095Y-8099761D01*
X358140476Y-8052142D01*
X359140476Y-7242619D02*
X359188095Y-7195000D01*
X359283333Y-7147380D01*
X359521428Y-7147380D01*
X359616666Y-7195000D01*
X359664285Y-7242619D01*
X359711904Y-7337857D01*
X359711904Y-7433095D01*
X359664285Y-7575952D01*
X359092857Y-8147380D01*
X359711904Y-8147380D01*
%TO.C,D131*%
X88822619Y-10961904D02*
X88822619Y-10161904D01*
X89013095Y-10161904D01*
X89127380Y-10200000D01*
X89203571Y-10276190D01*
X89241666Y-10352380D01*
X89279761Y-10504761D01*
X89279761Y-10619047D01*
X89241666Y-10771428D01*
X89203571Y-10847619D01*
X89127380Y-10923809D01*
X89013095Y-10961904D01*
X88822619Y-10961904D01*
X90041666Y-10961904D02*
X89584523Y-10961904D01*
X89813095Y-10961904D02*
X89813095Y-10161904D01*
X89736904Y-10276190D01*
X89660714Y-10352380D01*
X89584523Y-10390476D01*
X90308333Y-10161904D02*
X90803571Y-10161904D01*
X90536904Y-10466666D01*
X90651190Y-10466666D01*
X90727380Y-10504761D01*
X90765476Y-10542857D01*
X90803571Y-10619047D01*
X90803571Y-10809523D01*
X90765476Y-10885714D01*
X90727380Y-10923809D01*
X90651190Y-10961904D01*
X90422619Y-10961904D01*
X90346428Y-10923809D01*
X90308333Y-10885714D01*
X91565476Y-10961904D02*
X91108333Y-10961904D01*
X91336904Y-10961904D02*
X91336904Y-10161904D01*
X91260714Y-10276190D01*
X91184523Y-10352380D01*
X91108333Y-10390476D01*
D12*
%TO.C,D132*%
X107585000Y-9835000D02*
X107585000Y-8365000D01*
X105300000Y-9835000D02*
X107585000Y-9835000D01*
X107585000Y-8365000D02*
X105300000Y-8365000D01*
%TO.C,D31*%
X341265000Y-9835000D02*
X343550000Y-9835000D01*
X343550000Y-8365000D02*
X341265000Y-8365000D01*
X341265000Y-8365000D02*
X341265000Y-9835000D01*
%TO.C,SW125*%
X93675000Y-55400000D02*
X94275000Y-55400000D01*
X94275000Y-55400000D02*
X93975000Y-55700000D01*
X93975000Y-55700000D02*
X93675000Y-55400000D01*
%TO.C,D32*%
X356965000Y-9860000D02*
X359250000Y-9860000D01*
X359250000Y-8390000D02*
X356965000Y-8390000D01*
X356965000Y-8390000D02*
X356965000Y-9860000D01*
%TO.C,D131*%
X91885000Y-8390000D02*
X89600000Y-8390000D01*
X91885000Y-9860000D02*
X91885000Y-8390000D01*
X89600000Y-9860000D02*
X91885000Y-9860000D01*
%TO.C,SW25*%
X355175000Y-63600000D02*
X354575000Y-63600000D01*
X354575000Y-63600000D02*
X354875000Y-63300000D01*
X354875000Y-63300000D02*
X355175000Y-63600000D01*
%TD*%
M02*
