%TF.GenerationSoftware,KiCad,Pcbnew,(5.99.0-8557-g8988e46ab1)*%
%TF.CreationDate,2021-02-23T18:20:14-07:00*%
%TF.ProjectId,SP56,53503536-2e6b-4696-9361-645f70636258,rev?*%
%TF.SameCoordinates,Original*%
%TF.FileFunction,Paste,Bot*%
%TF.FilePolarity,Positive*%
%FSLAX46Y46*%
G04 Gerber Fmt 4.6, Leading zero omitted, Abs format (unit mm)*
G04 Created by KiCad (PCBNEW (5.99.0-8557-g8988e46ab1)) date 2021-02-23 18:20:14*
%MOMM*%
%LPD*%
G01*
G04 APERTURE LIST*
G04 Aperture macros list*
%AMRoundRect*
0 Rectangle with rounded corners*
0 $1 Rounding radius*
0 $2 $3 $4 $5 $6 $7 $8 $9 X,Y pos of 4 corners*
0 Add a 4 corners polygon primitive as box body*
4,1,4,$2,$3,$4,$5,$6,$7,$8,$9,$2,$3,0*
0 Add four circle primitives for the rounded corners*
1,1,$1+$1,$2,$3*
1,1,$1+$1,$4,$5*
1,1,$1+$1,$6,$7*
1,1,$1+$1,$8,$9*
0 Add four rect primitives between the rounded corners*
20,1,$1+$1,$2,$3,$4,$5,0*
20,1,$1+$1,$4,$5,$6,$7,0*
20,1,$1+$1,$6,$7,$8,$9,0*
20,1,$1+$1,$8,$9,$2,$3,0*%
%AMRotRect*
0 Rectangle, with rotation*
0 The origin of the aperture is its center*
0 $1 length*
0 $2 width*
0 $3 Rotation angle, in degrees counterclockwise*
0 Add horizontal line*
21,1,$1,$2,0,0,$3*%
G04 Aperture macros list end*
%ADD10R,0.900000X1.200000*%
%ADD11R,1.200000X0.900000*%
%ADD12R,0.800000X0.900000*%
%ADD13RoundRect,0.200000X0.200000X0.275000X-0.200000X0.275000X-0.200000X-0.275000X0.200000X-0.275000X0*%
%ADD14RoundRect,0.150000X-0.512500X-0.150000X0.512500X-0.150000X0.512500X0.150000X-0.512500X0.150000X0*%
%ADD15R,1.000000X1.000000*%
%ADD16RoundRect,0.200000X-0.275000X0.200000X-0.275000X-0.200000X0.275000X-0.200000X0.275000X0.200000X0*%
%ADD17RoundRect,0.225000X-0.250000X0.225000X-0.250000X-0.225000X0.250000X-0.225000X0.250000X0.225000X0*%
%ADD18RotRect,0.900000X1.200000X30.000000*%
%ADD19RoundRect,0.200000X0.275000X-0.200000X0.275000X0.200000X-0.275000X0.200000X-0.275000X-0.200000X0*%
%ADD20RoundRect,0.225000X0.250000X-0.225000X0.250000X0.225000X-0.250000X0.225000X-0.250000X-0.225000X0*%
%ADD21RoundRect,0.225000X-0.225000X-0.250000X0.225000X-0.250000X0.225000X0.250000X-0.225000X0.250000X0*%
%ADD22R,1.050000X1.200000*%
%ADD23R,1.550000X0.600000*%
%ADD24R,1.800000X1.200000*%
%ADD25RoundRect,0.200000X-0.200000X-0.275000X0.200000X-0.275000X0.200000X0.275000X-0.200000X0.275000X0*%
%ADD26RoundRect,0.225000X0.225000X0.250000X-0.225000X0.250000X-0.225000X-0.250000X0.225000X-0.250000X0*%
%ADD27R,1.524000X0.600000*%
%ADD28R,0.700000X1.200000*%
%ADD29R,1.000000X0.650000*%
%ADD30R,0.650000X1.000000*%
%ADD31RoundRect,0.150000X0.150000X-0.512500X0.150000X0.512500X-0.150000X0.512500X-0.150000X-0.512500X0*%
%ADD32R,1.700000X0.900000*%
%ADD33RoundRect,0.150000X-0.150000X0.512500X-0.150000X-0.512500X0.150000X-0.512500X0.150000X0.512500X0*%
%ADD34RotRect,0.900000X1.200000X330.000000*%
%ADD35R,0.540000X0.800000*%
%ADD36R,0.300000X0.800000*%
G04 APERTURE END LIST*
D10*
%TO.C,D103*%
X158025000Y-4950000D03*
X161325000Y-4950000D03*
%TD*%
D11*
%TO.C,D125*%
X112175000Y-64649999D03*
X112175000Y-61349999D03*
%TD*%
D12*
%TO.C,Q1*%
X353125000Y-29500000D03*
X351225000Y-29500000D03*
X352175000Y-27500000D03*
%TD*%
D13*
%TO.C,R105*%
X118325000Y-38400000D03*
X116675000Y-38400000D03*
%TD*%
D14*
%TO.C,U101*%
X102162500Y-29150000D03*
X102162500Y-28200000D03*
X102162500Y-27250000D03*
X104437500Y-27250000D03*
X104437500Y-29150000D03*
%TD*%
D15*
%TO.C,D33*%
X350900000Y-25500000D03*
X353400000Y-25500000D03*
%TD*%
D16*
%TO.C,R101*%
X90175000Y-10875000D03*
X90175000Y-12525000D03*
%TD*%
D10*
%TO.C,D101*%
X127635955Y-6362500D03*
X130935955Y-6362500D03*
%TD*%
%TO.C,D120*%
X140025000Y-57300000D03*
X143325000Y-57300000D03*
%TD*%
%TO.C,D109*%
X158025000Y-21950000D03*
X161325000Y-21950000D03*
%TD*%
D17*
%TO.C,C101*%
X100400000Y-27425000D03*
X100400000Y-28975000D03*
%TD*%
D18*
%TO.C,D26*%
X328218301Y-80975000D03*
X331076185Y-79325000D03*
%TD*%
D10*
%TO.C,D112*%
X211975000Y-29250000D03*
X215275000Y-29250000D03*
%TD*%
%TO.C,D127*%
X140025000Y-79200000D03*
X143325000Y-79200000D03*
%TD*%
D16*
%TO.C,R103*%
X93600000Y-27675000D03*
X93600000Y-29325000D03*
%TD*%
D10*
%TO.C,D116*%
X175975000Y-40250000D03*
X179275000Y-40250000D03*
%TD*%
%TO.C,D118*%
X211975000Y-46250000D03*
X215275000Y-46250000D03*
%TD*%
D19*
%TO.C,R9*%
X354750000Y-29325000D03*
X354750000Y-27675000D03*
%TD*%
D10*
%TO.C,D14*%
X304825000Y-40200000D03*
X308125000Y-40200000D03*
%TD*%
%TO.C,D111*%
X194025000Y-28250000D03*
X197325000Y-28250000D03*
%TD*%
%TO.C,D105*%
X194025000Y-11250000D03*
X197325000Y-11250000D03*
%TD*%
%TO.C,D110*%
X175975000Y-23250000D03*
X179275000Y-23250000D03*
%TD*%
%TO.C,D117*%
X194025000Y-45250000D03*
X197325000Y-45250000D03*
%TD*%
D20*
%TO.C,C3*%
X348575000Y-28975000D03*
X348575000Y-27425000D03*
%TD*%
D10*
%TO.C,D121*%
X158225000Y-56000000D03*
X161525000Y-56000000D03*
%TD*%
%TO.C,D11*%
X251025000Y-28250000D03*
X254325000Y-28250000D03*
%TD*%
D21*
%TO.C,C4*%
X351437500Y-31000000D03*
X352987500Y-31000000D03*
%TD*%
D13*
%TO.C,R2*%
X345875000Y-30700000D03*
X344225000Y-30700000D03*
%TD*%
D10*
%TO.C,D19*%
X323025000Y-59650000D03*
X326325000Y-59650000D03*
%TD*%
D22*
%TO.C,Y101*%
X117860955Y-25862500D03*
X119510955Y-25862500D03*
%TD*%
D10*
%TO.C,D27*%
X305025000Y-79200000D03*
X308325000Y-79200000D03*
%TD*%
D13*
%TO.C,R102*%
X104125000Y-30700000D03*
X102475000Y-30700000D03*
%TD*%
D16*
%TO.C,R6*%
X358175000Y-10875000D03*
X358175000Y-12525000D03*
%TD*%
D10*
%TO.C,D16*%
X269075000Y-40250000D03*
X272375000Y-40250000D03*
%TD*%
%TO.C,D6*%
X233025000Y-12250000D03*
X236325000Y-12250000D03*
%TD*%
D22*
%TO.C,Y1*%
X336750000Y-25900000D03*
X338400000Y-25900000D03*
%TD*%
D10*
%TO.C,D122*%
X175975000Y-57250000D03*
X179275000Y-57250000D03*
%TD*%
%TO.C,D21*%
X286825000Y-56000000D03*
X290125000Y-56000000D03*
%TD*%
%TO.C,D22*%
X269075000Y-57250000D03*
X272375000Y-57250000D03*
%TD*%
D21*
%TO.C,C105*%
X106425000Y-30700000D03*
X107975000Y-30700000D03*
%TD*%
D10*
%TO.C,D17*%
X251025000Y-45250000D03*
X254325000Y-45250000D03*
%TD*%
D20*
%TO.C,C2*%
X340950000Y-27437500D03*
X340950000Y-25887500D03*
%TD*%
D23*
%TO.C,J106*%
X110000000Y-28650000D03*
X110000000Y-29650000D03*
D24*
X113875000Y-27350000D03*
X113875000Y-30950000D03*
%TD*%
D10*
%TO.C,D2*%
X304825000Y-6300000D03*
X308125000Y-6300000D03*
%TD*%
%TO.C,D7*%
X323075000Y-25650000D03*
X326375000Y-25650000D03*
%TD*%
D25*
%TO.C,R108*%
X102775000Y-13250000D03*
X104425000Y-13250000D03*
%TD*%
D10*
%TO.C,D113*%
X122025000Y-42650000D03*
X125325000Y-42650000D03*
%TD*%
D26*
%TO.C,C103*%
X123035955Y-26562500D03*
X121485955Y-26562500D03*
%TD*%
D16*
%TO.C,R106*%
X106200000Y-10875000D03*
X106200000Y-12525000D03*
%TD*%
D25*
%TO.C,R4*%
X330025000Y-36800000D03*
X331675000Y-36800000D03*
%TD*%
D10*
%TO.C,D10*%
X269075000Y-23250000D03*
X272375000Y-23250000D03*
%TD*%
%TO.C,D123*%
X193975000Y-62250000D03*
X197275000Y-62250000D03*
%TD*%
%TO.C,D12*%
X233075000Y-29250000D03*
X236375000Y-29250000D03*
%TD*%
D23*
%TO.C,J9*%
X338625000Y-29700000D03*
X338625000Y-28700000D03*
D24*
X334750000Y-31000000D03*
X334750000Y-27400000D03*
%TD*%
D27*
%TO.C,BATT101*%
X92800000Y-21450000D03*
X92800000Y-18450000D03*
X92800000Y-16950000D03*
D28*
X89400000Y-22800000D03*
X89400000Y-15600000D03*
X91700000Y-15600000D03*
X91700000Y-22800000D03*
%TD*%
D29*
%TO.C,U102*%
X120954955Y-10570000D03*
X120954955Y-11840000D03*
X120954955Y-13110000D03*
X120954955Y-14380000D03*
X120954955Y-15650000D03*
X120954955Y-16920000D03*
X120954955Y-18190000D03*
X120954955Y-19460000D03*
X120954955Y-20730000D03*
X120954955Y-22000000D03*
D30*
X119305955Y-24219000D03*
X118668955Y-22508000D03*
X118035955Y-24219000D03*
X117398955Y-22508000D03*
X116765955Y-24219000D03*
X116128955Y-22508000D03*
X115495955Y-24219000D03*
X114858955Y-22508000D03*
X114225955Y-24219000D03*
X113588955Y-22508000D03*
X112955955Y-24219000D03*
X112318955Y-22508000D03*
X111685955Y-24219000D03*
X111048955Y-22508000D03*
X110415955Y-24219000D03*
D29*
X108716955Y-22000000D03*
X108716955Y-20730000D03*
X110794955Y-19968000D03*
X108716955Y-19460000D03*
X110794955Y-18698000D03*
X108716955Y-18190000D03*
X110794955Y-17428000D03*
X108716955Y-16920000D03*
X110794955Y-16158000D03*
X108716955Y-15650000D03*
X110794955Y-14888000D03*
X108716955Y-14380000D03*
X110794955Y-13618000D03*
X108716955Y-13110000D03*
X110794955Y-12348000D03*
X108716955Y-11840000D03*
X110794955Y-11078000D03*
X108716955Y-10570000D03*
%TD*%
D10*
%TO.C,D114*%
X140225000Y-40200000D03*
X143525000Y-40200000D03*
%TD*%
%TO.C,D28*%
X287025000Y-77900000D03*
X290325000Y-77900000D03*
%TD*%
%TO.C,D20*%
X305025000Y-57300000D03*
X308325000Y-57300000D03*
%TD*%
D31*
%TO.C,U3*%
X344725000Y-25300000D03*
X343775000Y-25300000D03*
X342825000Y-25300000D03*
X342825000Y-23025000D03*
X344725000Y-23025000D03*
%TD*%
D25*
%TO.C,R8*%
X354950000Y-13100000D03*
X356600000Y-13100000D03*
%TD*%
D10*
%TO.C,D4*%
X269025000Y-6250000D03*
X272325000Y-6250000D03*
%TD*%
D13*
%TO.C,R107*%
X93762500Y-13600000D03*
X92112500Y-13600000D03*
%TD*%
D10*
%TO.C,D115*%
X158025000Y-38950000D03*
X161325000Y-38950000D03*
%TD*%
D17*
%TO.C,C5*%
X346375000Y-23525000D03*
X346375000Y-25075000D03*
%TD*%
D32*
%TO.C,RESET101*%
X90700000Y-28500000D03*
X90700000Y-25100000D03*
%TD*%
D10*
%TO.C,D18*%
X233075000Y-46250000D03*
X236375000Y-46250000D03*
%TD*%
%TO.C,D124*%
X212025000Y-63250000D03*
X215325000Y-63250000D03*
%TD*%
%TO.C,D1*%
X323025000Y-8650000D03*
X326325000Y-8650000D03*
%TD*%
%TO.C,D128*%
X158025000Y-77900000D03*
X161325000Y-77900000D03*
%TD*%
D15*
%TO.C,D133*%
X97450000Y-25500000D03*
X94950000Y-25500000D03*
%TD*%
D16*
%TO.C,R1*%
X342150000Y-10875000D03*
X342150000Y-12525000D03*
%TD*%
D10*
%TO.C,D9*%
X287025000Y-21950000D03*
X290325000Y-21950000D03*
%TD*%
D33*
%TO.C,U103*%
X106200000Y-26662500D03*
X107150000Y-26662500D03*
X108100000Y-26662500D03*
X108100000Y-28937500D03*
X106200000Y-28937500D03*
%TD*%
D25*
%TO.C,R104*%
X116675000Y-36800000D03*
X118325000Y-36800000D03*
%TD*%
D13*
%TO.C,R7*%
X345887500Y-13100000D03*
X344237500Y-13100000D03*
%TD*%
D10*
%TO.C,D8*%
X305125000Y-23200000D03*
X308425000Y-23200000D03*
%TD*%
D11*
%TO.C,D25*%
X336175000Y-64649999D03*
X336175000Y-61349999D03*
%TD*%
D10*
%TO.C,D108*%
X139925000Y-23200000D03*
X143225000Y-23200000D03*
%TD*%
%TO.C,D106*%
X212025000Y-12250000D03*
X215325000Y-12250000D03*
%TD*%
D32*
%TO.C,RESET1*%
X357650000Y-25100000D03*
X357650000Y-28500000D03*
%TD*%
D26*
%TO.C,C102*%
X96912500Y-31000000D03*
X95362500Y-31000000D03*
%TD*%
D10*
%TO.C,D15*%
X287025000Y-38950000D03*
X290325000Y-38950000D03*
%TD*%
%TO.C,D3*%
X287025000Y-4950000D03*
X290325000Y-4950000D03*
%TD*%
%TO.C,D5*%
X251025000Y-11250000D03*
X254325000Y-11250000D03*
%TD*%
%TO.C,D23*%
X251075000Y-62250000D03*
X254375000Y-62250000D03*
%TD*%
D34*
%TO.C,D126*%
X117273815Y-79325000D03*
X120131699Y-80975000D03*
%TD*%
D14*
%TO.C,U1*%
X343912500Y-29150000D03*
X343912500Y-28200000D03*
X343912500Y-27250000D03*
X346187500Y-27250000D03*
X346187500Y-29150000D03*
%TD*%
D10*
%TO.C,D102*%
X140225000Y-6300000D03*
X143525000Y-6300000D03*
%TD*%
D26*
%TO.C,C104*%
X123060955Y-25000000D03*
X121510955Y-25000000D03*
%TD*%
D35*
%TO.C,J101*%
X101175000Y-11975000D03*
X94775000Y-11975000D03*
X95575000Y-11975000D03*
X100375000Y-11975000D03*
D36*
X96725000Y-11975000D03*
X97725000Y-11975000D03*
X98225000Y-11975000D03*
X99225000Y-11975000D03*
X99725000Y-11975000D03*
X98725000Y-11975000D03*
X97225000Y-11975000D03*
X96217000Y-11975000D03*
%TD*%
D12*
%TO.C,Q102*%
X95225000Y-27500000D03*
X97125000Y-27500000D03*
X96175000Y-29500000D03*
%TD*%
D29*
%TO.C,U2*%
X339633045Y-10570000D03*
X339633045Y-11840000D03*
X339633045Y-13110000D03*
X339633045Y-14380000D03*
X339633045Y-15650000D03*
X339633045Y-16920000D03*
X339633045Y-18190000D03*
X339633045Y-19460000D03*
X339633045Y-20730000D03*
X339633045Y-22000000D03*
D30*
X337984045Y-24219000D03*
X337347045Y-22508000D03*
X336714045Y-24219000D03*
X336077045Y-22508000D03*
X335444045Y-24219000D03*
X334807045Y-22508000D03*
X334174045Y-24219000D03*
X333537045Y-22508000D03*
X332904045Y-24219000D03*
X332267045Y-22508000D03*
X331634045Y-24219000D03*
X330997045Y-22508000D03*
X330364045Y-24219000D03*
X329727045Y-22508000D03*
X329094045Y-24219000D03*
D29*
X327395045Y-22000000D03*
X327395045Y-20730000D03*
X329473045Y-19968000D03*
X327395045Y-19460000D03*
X329473045Y-18698000D03*
X327395045Y-18190000D03*
X329473045Y-17428000D03*
X327395045Y-16920000D03*
X329473045Y-16158000D03*
X327395045Y-15650000D03*
X329473045Y-14888000D03*
X327395045Y-14380000D03*
X329473045Y-13618000D03*
X327395045Y-13110000D03*
X329473045Y-12348000D03*
X327395045Y-11840000D03*
X329473045Y-11078000D03*
X327395045Y-10570000D03*
%TD*%
D10*
%TO.C,D119*%
X122025000Y-59650000D03*
X125325000Y-59650000D03*
%TD*%
D27*
%TO.C,BATT1*%
X355550000Y-16950000D03*
X355550000Y-19950000D03*
X355550000Y-21450000D03*
D28*
X358950000Y-15600000D03*
X358950000Y-22800000D03*
X356650000Y-22800000D03*
X356650000Y-15600000D03*
%TD*%
D10*
%TO.C,D107*%
X124750000Y-26800000D03*
X128050000Y-26800000D03*
%TD*%
D13*
%TO.C,R5*%
X331675000Y-38400000D03*
X330025000Y-38400000D03*
%TD*%
D21*
%TO.C,C1*%
X333500000Y-25800000D03*
X335050000Y-25800000D03*
%TD*%
D35*
%TO.C,J1*%
X353575000Y-11975000D03*
X347175000Y-11975000D03*
X347975000Y-11975000D03*
X352775000Y-11975000D03*
D36*
X349125000Y-11975000D03*
X350125000Y-11975000D03*
X350625000Y-11975000D03*
X351625000Y-11975000D03*
X352125000Y-11975000D03*
X351125000Y-11975000D03*
X349625000Y-11975000D03*
X348617000Y-11975000D03*
%TD*%
D10*
%TO.C,D13*%
X323025000Y-42650000D03*
X326325000Y-42650000D03*
%TD*%
%TO.C,D24*%
X233025000Y-63250000D03*
X236325000Y-63250000D03*
%TD*%
%TO.C,D104*%
X176025000Y-6250000D03*
X179325000Y-6250000D03*
%TD*%
M02*
