G04 #@! TF.GenerationSoftware,KiCad,Pcbnew,(5.1.8-0-10_14)*
G04 #@! TF.CreationDate,2020-12-13T20:18:22-07:00*
G04 #@! TF.ProjectId,BlueSof,426c7565-536f-4662-9e6b-696361645f70,rev?*
G04 #@! TF.SameCoordinates,Original*
G04 #@! TF.FileFunction,Profile,NP*
%FSLAX46Y46*%
G04 Gerber Fmt 4.6, Leading zero omitted, Abs format (unit mm)*
G04 Created by KiCad (PCBNEW (5.1.8-0-10_14)) date 2020-12-13 20:18:22*
%MOMM*%
%LPD*%
G01*
G04 APERTURE LIST*
G04 #@! TA.AperFunction,Profile*
%ADD10C,0.250000*%
G04 #@! TD*
G04 #@! TA.AperFunction,Profile*
%ADD11C,0.150000*%
G04 #@! TD*
G04 #@! TA.AperFunction,Profile*
%ADD12C,0.100000*%
G04 #@! TD*
G04 APERTURE END LIST*
D10*
X196507105Y-132817650D02*
G75*
G02*
X195144035Y-133221930I-1363070J2095720D01*
G01*
X178228128Y-133221930D02*
X195144035Y-133221930D01*
X218396521Y-48873763D02*
G75*
G02*
X220485524Y-51339748I-410997J-2465985D01*
G01*
X220485524Y-51339748D02*
X220485524Y-115865678D01*
X107818012Y-141942459D02*
G75*
G02*
X105191508Y-141459642I-931131J2320128D01*
G01*
X86990151Y-124664398D02*
X105191508Y-141459642D01*
X141434014Y-128451441D02*
G75*
G02*
X142358104Y-128271579I931131J-2320128D01*
G01*
X107818012Y-141942459D02*
X141434014Y-128451440D01*
X86990151Y-124664398D02*
G75*
G02*
X86185524Y-122827087I1695373J1837311D01*
G01*
X86185524Y-48500000D02*
X86185524Y-122827087D01*
X107069591Y-46000000D02*
X88685524Y-46000000D01*
X178228128Y-133221930D02*
G75*
G02*
X177555550Y-133129759I0J2500000D01*
G01*
X177555550Y-133129759D02*
X160318952Y-128315067D01*
X140071047Y-41943860D02*
G75*
G02*
X140401456Y-41921930I330409J-2478070D01*
G01*
X176478617Y-41921930D02*
X140401456Y-41921930D01*
X176478618Y-41921931D02*
G75*
G02*
X176889615Y-41955946I-1J-2499999D01*
G01*
X176889615Y-41955946D02*
X218396521Y-48873763D01*
X86185524Y-48500000D02*
G75*
G02*
X88685524Y-46000000I2500000J0D01*
G01*
X220485523Y-115865678D02*
G75*
G02*
X219348593Y-117961397I-2499999J0D01*
G01*
X219348593Y-117961397D02*
X196507104Y-132817650D01*
X159639333Y-128222906D02*
G75*
G02*
X160318952Y-128315067I7041J-2499990D01*
G01*
X142358104Y-128271579D02*
X159639333Y-128222906D01*
X107069591Y-46000000D02*
X140071047Y-41943861D01*
D11*
X88700000Y-63900000D02*
X88700000Y-87400000D01*
X109200000Y-87400000D02*
X109200000Y-63900000D01*
X109200000Y-63900000D02*
X88700000Y-63900000D01*
X88700000Y-87400000D02*
X109200000Y-87400000D01*
D12*
X49676679Y38227998D02*
X49676679Y38227998D01*
M02*
