G04 #@! TF.GenerationSoftware,KiCad,Pcbnew,(5.1.8-0-10_14)*
G04 #@! TF.CreationDate,2020-12-08T08:42:12-07:00*
G04 #@! TF.ProjectId,BlueSof,426c7565-536f-4662-9e6b-696361645f70,rev?*
G04 #@! TF.SameCoordinates,Original*
G04 #@! TF.FileFunction,Copper,L2,Bot*
G04 #@! TF.FilePolarity,Positive*
%FSLAX46Y46*%
G04 Gerber Fmt 4.6, Leading zero omitted, Abs format (unit mm)*
G04 Created by KiCad (PCBNEW (5.1.8-0-10_14)) date 2020-12-08 08:42:12*
%MOMM*%
%LPD*%
G01*
G04 APERTURE LIST*
G04 #@! TA.AperFunction,ComponentPad*
%ADD10R,0.650000X1.000000*%
G04 #@! TD*
G04 #@! TA.AperFunction,ComponentPad*
%ADD11R,1.000000X0.650000*%
G04 #@! TD*
G04 #@! TA.AperFunction,ComponentPad*
%ADD12R,1.700000X1.700000*%
G04 #@! TD*
G04 #@! TA.AperFunction,ComponentPad*
%ADD13O,1.700000X1.700000*%
G04 #@! TD*
G04 #@! TA.AperFunction,ComponentPad*
%ADD14O,1.000000X2.100000*%
G04 #@! TD*
G04 #@! TA.AperFunction,ComponentPad*
%ADD15O,1.000000X1.600000*%
G04 #@! TD*
G04 #@! TA.AperFunction,ComponentPad*
%ADD16R,1.800000X1.500000*%
G04 #@! TD*
G04 #@! TA.AperFunction,ComponentPad*
%ADD17C,2.000000*%
G04 #@! TD*
G04 #@! TA.AperFunction,ComponentPad*
%ADD18C,0.100000*%
G04 #@! TD*
G04 #@! TA.AperFunction,ComponentPad*
%ADD19R,1.500000X1.800000*%
G04 #@! TD*
G04 #@! TA.AperFunction,ComponentPad*
%ADD20R,2.000000X2.000000*%
G04 #@! TD*
G04 #@! TA.AperFunction,ComponentPad*
%ADD21R,3.200000X2.000000*%
G04 #@! TD*
G04 APERTURE END LIST*
D10*
X103368000Y-105859000D03*
X102098000Y-105859000D03*
X100828000Y-105859000D03*
X99558000Y-105859000D03*
X98288000Y-105859000D03*
X97018000Y-105859000D03*
X95748000Y-105859000D03*
X94478000Y-105859000D03*
D11*
X105908000Y-112463000D03*
X105908000Y-113733000D03*
X105908000Y-108653000D03*
X105908000Y-111193000D03*
X105908000Y-107383000D03*
X105908000Y-106113000D03*
X105908000Y-109923000D03*
D12*
X106250000Y-61900000D03*
X95000000Y-61900000D03*
D13*
X130500000Y-90270000D03*
X130500000Y-87730000D03*
X130500000Y-85190000D03*
D12*
X130500000Y-82650000D03*
D14*
X93180000Y-53530000D03*
X101820000Y-53530000D03*
D15*
X101820000Y-49350000D03*
X93180000Y-49350000D03*
D16*
X183300000Y-119100000D03*
X186700000Y-119100000D03*
D17*
X103390450Y-129100000D03*
X102795706Y-123669873D03*
X107795706Y-132330127D03*
D16*
X165300000Y-114950000D03*
X168700000Y-114950000D03*
X147500000Y-114950000D03*
X150900000Y-114950000D03*
G04 #@! TA.AperFunction,ComponentPad*
D18*
G36*
X128831208Y-116972579D02*
G01*
X128961942Y-118466871D01*
X127168792Y-118623751D01*
X127038058Y-117129459D01*
X128831208Y-116972579D01*
G37*
G04 #@! TD.AperFunction*
G04 #@! TA.AperFunction,ComponentPad*
G36*
X132218270Y-116676249D02*
G01*
X132349004Y-118170541D01*
X130555854Y-118327421D01*
X130425120Y-116833129D01*
X132218270Y-116676249D01*
G37*
G04 #@! TD.AperFunction*
G04 #@! TA.AperFunction,ComponentPad*
G36*
X112749519Y-122582180D02*
G01*
X111450481Y-123332180D01*
X110550481Y-121773334D01*
X111849519Y-121023334D01*
X112749519Y-122582180D01*
G37*
G04 #@! TD.AperFunction*
G04 #@! TA.AperFunction,ComponentPad*
G36*
X114449519Y-125526666D02*
G01*
X113150481Y-126276666D01*
X112250481Y-124717820D01*
X113549519Y-123967820D01*
X114449519Y-125526666D01*
G37*
G04 #@! TD.AperFunction*
D19*
X111000000Y-93400000D03*
X111000000Y-90000000D03*
D16*
X209800000Y-103950000D03*
X213200000Y-103950000D03*
X191750000Y-102950000D03*
X195150000Y-102950000D03*
X173750000Y-97950000D03*
X177150000Y-97950000D03*
X156000000Y-97200000D03*
X159400000Y-97200000D03*
X137800000Y-98700000D03*
X141200000Y-98700000D03*
X118800000Y-100350000D03*
X122200000Y-100350000D03*
X209750000Y-86950000D03*
X213150000Y-86950000D03*
X191800000Y-85950000D03*
X195200000Y-85950000D03*
X173750000Y-80950000D03*
X177150000Y-80950000D03*
X155800000Y-79650000D03*
X159200000Y-79650000D03*
X138000000Y-81700000D03*
X141400000Y-81700000D03*
X119800000Y-83350000D03*
X123200000Y-83350000D03*
X209750000Y-69950000D03*
X213150000Y-69950000D03*
X191800000Y-68950000D03*
X195200000Y-68950000D03*
X173750000Y-63950000D03*
X177150000Y-63950000D03*
X155800000Y-62650000D03*
X159200000Y-62650000D03*
X137800000Y-64700000D03*
X141200000Y-64700000D03*
X119750000Y-66350000D03*
X123150000Y-66350000D03*
X209800000Y-52950000D03*
X213200000Y-52950000D03*
X191800000Y-51950000D03*
X195200000Y-51950000D03*
X173800000Y-46950000D03*
X177200000Y-46950000D03*
X155800000Y-45650000D03*
X159200000Y-45650000D03*
X138000000Y-47700000D03*
X141400000Y-47700000D03*
X119800000Y-49350000D03*
X123200000Y-49350000D03*
D17*
X185000000Y-130550000D03*
X180000000Y-128350000D03*
X190000000Y-128350000D03*
X167000000Y-125600000D03*
X162000000Y-123400000D03*
X172000000Y-123400000D03*
X149000000Y-125600000D03*
X144000000Y-123400000D03*
X154000000Y-123400000D03*
X130514219Y-128277549D03*
X125341503Y-126521699D03*
X135303450Y-125650142D03*
X211500000Y-114600000D03*
X206500000Y-112400000D03*
X216500000Y-112400000D03*
X193500000Y-113600000D03*
X188500000Y-111400000D03*
X198500000Y-111400000D03*
X175500000Y-108600000D03*
X170500000Y-106400000D03*
X180500000Y-106400000D03*
X157500000Y-107300000D03*
X152500000Y-105100000D03*
X162500000Y-105100000D03*
X139500000Y-108600000D03*
X134500000Y-106400000D03*
X144500000Y-106400000D03*
X120500000Y-111000000D03*
X115500000Y-108800000D03*
X125500000Y-108800000D03*
X211500000Y-97600000D03*
X206500000Y-95400000D03*
X216500000Y-95400000D03*
X193500000Y-96600000D03*
X188500000Y-94400000D03*
X198500000Y-94400000D03*
X175500000Y-91600000D03*
X170500000Y-89400000D03*
X180500000Y-89400000D03*
X157500000Y-90300000D03*
X152500000Y-88100000D03*
X162500000Y-88100000D03*
X139500000Y-91600000D03*
X134500000Y-89400000D03*
X144500000Y-89400000D03*
X121500000Y-94000000D03*
X116500000Y-91800000D03*
X126500000Y-91800000D03*
X211500000Y-80600000D03*
X206500000Y-78400000D03*
X216500000Y-78400000D03*
X193500000Y-79600000D03*
X188500000Y-77400000D03*
X198500000Y-77400000D03*
X175500000Y-74600000D03*
X170500000Y-72400000D03*
X180500000Y-72400000D03*
X157500000Y-73300000D03*
X152500000Y-71100000D03*
X162500000Y-71100000D03*
X139500000Y-74600000D03*
X134500000Y-72400000D03*
X144500000Y-72400000D03*
X121500000Y-77000000D03*
X116500000Y-74800000D03*
X126500000Y-74800000D03*
X211500000Y-63600000D03*
X206500000Y-61400000D03*
X216500000Y-61400000D03*
X193500000Y-62600000D03*
X188500000Y-60400000D03*
X198500000Y-60400000D03*
X175500000Y-57600000D03*
X170500000Y-55400000D03*
X180500000Y-55400000D03*
X157500000Y-56300000D03*
X152500000Y-54100000D03*
X162500000Y-54100000D03*
X139500000Y-57600000D03*
X134500000Y-55400000D03*
X144500000Y-55400000D03*
X121500000Y-60000000D03*
X116500000Y-57800000D03*
X126500000Y-57800000D03*
D20*
X93000000Y-92400000D03*
D17*
X93000000Y-94900000D03*
X93000000Y-97400000D03*
D21*
X100500000Y-89300000D03*
X100500000Y-100500000D03*
D17*
X107500000Y-92400000D03*
X107500000Y-97400000D03*
M02*
