M48
; DRILL file {KiCad (5.1.8-0-10_14)} date Sunday, December 13, 2020 at 09:21:40 AM
; FORMAT={-:-/ absolute / inch / decimal}
; #@! TF.CreationDate,2020-12-13T09:21:40-07:00
; #@! TF.GenerationSoftware,Kicad,Pcbnew,(5.1.8-0-10_14)
; #@! TF.FileFunction,NonPlated,1,2,NPTH
FMAT,2
INCH
T1C0.0256
T2C0.0748
T3C0.1063
T4C0.1575
%
G90
G05
T1
X3.6972Y-2.0768
X3.9248Y-2.0768
X3.6972Y-2.0768
X3.9248Y-2.0768
T2
X6.6929Y-3.374
X7.126Y-3.374
X8.1102Y-2.9409
X8.5433Y-2.9409
X7.4016Y-2.2323
X7.8346Y-2.2323
X4.5669Y-2.1299
X5.0Y-2.1299
X8.1102Y-4.2795
X8.5433Y-4.2795
X7.4016Y-3.5709
X7.8346Y-3.5709
X4.5669Y-3.4685
X5.0Y-3.4685
X8.1102Y-2.2717
X8.5433Y-2.2717
X5.2756Y-2.0354
X5.7087Y-2.0354
X8.1102Y-3.6102
X8.5433Y-3.6102
X4.5669Y-2.7992
X5.0Y-2.7992
X4.5669Y-4.1378
X5.0Y-4.1378
X5.2756Y-2.7047
X5.7087Y-2.7047
X4.9483Y-4.8738
X5.3666Y-4.7617
X5.9843Y-3.9921
X6.4173Y-3.9921
X5.2756Y-3.374
X5.7087Y-3.374
X5.2756Y-4.0433
X5.7087Y-4.0433
X5.9843Y-2.6535
X6.4173Y-2.6535
X4.1831Y-4.7495
X4.3996Y-5.1245
X5.7283Y-4.7126
X6.1614Y-4.7126
X6.6929Y-4.0433
X7.126Y-4.0433
X6.6929Y-2.7047
X7.126Y-2.7047
X5.9843Y-1.9843
X6.4173Y-1.9843
X6.437Y-4.7126
X6.8701Y-4.7126
X7.4016Y-4.2402
X7.8346Y-4.2402
X7.1417Y-4.9094
X7.5748Y-4.9094
X5.9843Y-3.3228
X6.4173Y-3.3228
X7.4016Y-2.9016
X7.8346Y-2.9016
X6.6929Y-2.0354
X7.126Y-2.0354
T3
X5.1378Y-2.4646
X7.9724Y-2.6024
X7.9724Y-3.9016
X5.1378Y-4.374
X3.7913Y-4.9055
T4
X6.9094Y-2.7047
X6.2008Y-1.9843
X6.6535Y-4.7126
X7.6181Y-4.2402
X7.3583Y-4.9094
X6.2008Y-3.3228
X7.6181Y-2.9016
X6.9094Y-2.0354
X6.9094Y-3.374
X8.3268Y-2.9409
X7.6181Y-2.2323
X4.7835Y-2.1299
X8.3268Y-4.2795
X7.6181Y-3.5709
X4.7835Y-3.4685
X8.3268Y-2.2717
X5.4921Y-2.0354
X8.3268Y-3.6102
X4.7835Y-2.7992
X4.7835Y-4.1378
X5.4921Y-2.7047
X5.1575Y-4.8177
X6.2008Y-3.9921
X5.4921Y-3.374
X5.4921Y-4.0433
X6.2008Y-2.6535
X4.2913Y-4.937
X5.9449Y-4.7126
X6.9094Y-4.0433
T0
M30
