M48
; DRILL file {KiCad (5.1.8-0-10_14)} date Sunday, December 13, 2020 at 09:21:40 AM
; FORMAT={-:-/ absolute / inch / decimal}
; #@! TF.CreationDate,2020-12-13T09:21:40-07:00
; #@! TF.GenerationSoftware,Kicad,Pcbnew,(5.1.8-0-10_14)
; #@! TF.FileFunction,Plated,1,2,PTH
FMAT,2
INCH
T1C0.0118
T2C0.0157
T3C0.0236
T4C0.0394
T5C0.0472
T6C0.0591
%
G90
G05
T1
X3.4146Y-2.2596
X3.4616Y-2.2106
X3.4685Y-2.502
X3.4843Y-2.4331
X3.4873Y-2.2037
X3.4969Y-2.0373
X3.5039Y-3.9724
X3.5276Y-2.1417
X3.5349Y-2.2795
X3.5881Y-4.4508
X3.6092Y-4.5187
X3.6398Y-4.6732
X3.6457Y-3.8976
X3.6489Y-4.3733
X3.6569Y-4.0332
X3.6614Y-2.3386
X3.6708Y-4.5026
X3.673Y-2.214
X3.6742Y-4.2892
X3.6815Y-2.2379
X3.691Y-4.2101
X3.7002Y-3.9348
X3.7128Y-4.1226
X3.7204Y-4.5249
X3.733Y-3.9854
X3.7441Y-2.0236
X3.7497Y-2.2325
X3.7504Y-2.1821
X3.7574Y-4.61
X3.7793Y-4.0455
X3.7919Y-4.1354
X3.8047Y-2.1851
X3.8182Y-2.0876
X3.8307Y-4.6496
X3.8339Y-4.6046
X3.8416Y-4.3466
X3.877Y-4.4279
X3.8829Y-2.2795
X3.8849Y-4.7887
X3.9023Y-4.1505
X3.9226Y-4.3694
X3.9748Y-3.9153
X4.0079Y-3.7835
X4.0157Y-3.5394
X4.0337Y-3.9568
X4.0373Y-4.4283
X4.063Y-3.9864
X4.0696Y-4.6194
X4.0832Y-2.2121
X4.0846Y-2.4173
X4.1366Y-3.9202
X4.1417Y-4.8937
X4.1614Y-3.7165
X4.1732Y-4.9646
X4.1829Y-4.6357
X4.1944Y-1.9163
X4.2008Y-5.1063
X4.2061Y-4.2885
X4.2106Y-2.2761
X4.2135Y-2.0707
X4.2625Y-2.202
X4.2687Y-2.3063
X4.2847Y-2.1261
X4.3228Y-4.1535
X4.3622Y-4.2638
X4.3982Y-4.0814
X4.4035Y-4.1496
X4.4606Y-4.4016
X4.4642Y-3.4899
X4.4659Y-2.1444
X4.4724Y-2.311
X4.4752Y-3.8944
X4.477Y-4.1309
X4.5591Y-4.6496
X4.563Y-2.6063
X4.6138Y-1.981
X4.7244Y-4.8622
X4.7362Y-3.8268
X4.7469Y-3.6518
X5.4567Y-4.6614
T2
X6.8406Y-3.8563
X6.9744Y-3.8563
X4.4173Y-4.7896
X4.4843Y-4.9055
X7.5512Y-2.0453
X7.685Y-2.0453
X6.1339Y-1.7972
X6.2677Y-1.7972
X6.8406Y-3.187
X6.9744Y-3.187
X7.5512Y-2.7146
X7.685Y-2.7146
X5.0535Y-4.6512
X5.1828Y-4.6165
X8.2598Y-2.0846
X8.3937Y-2.0846
X6.8425Y-1.8484
X6.9764Y-1.8484
X7.5512Y-3.3839
X7.685Y-3.3839
X8.2579Y-2.7539
X8.3917Y-2.7539
X7.2953Y-4.7244
X7.4291Y-4.7244
X8.2579Y-3.4232
X8.3917Y-3.4232
X4.7165Y-3.2815
X4.8504Y-3.2815
X4.6772Y-3.9508
X4.811Y-3.9508
X5.8858Y-4.5256
X6.0197Y-4.5256
X4.7146Y-2.6122
X4.8484Y-2.6122
X7.5492Y-4.0531
X7.6831Y-4.0531
X6.5866Y-4.5256
X6.7205Y-4.5256
X5.4252Y-2.5472
X5.5591Y-2.5472
X8.2598Y-4.0925
X8.3937Y-4.0925
X4.7165Y-1.9429
X4.8504Y-1.9429
X5.4331Y-3.2165
X5.5669Y-3.2165
X6.1339Y-2.4665
X6.2677Y-2.4665
X5.4252Y-3.8858
X5.5591Y-3.8858
X6.1417Y-3.8268
X6.2756Y-3.8268
X4.2598Y-3.5433
X4.2598Y-3.6772
X5.4331Y-1.878
X5.5669Y-1.878
X6.1339Y-3.1358
X6.2677Y-3.1358
X6.8406Y-2.5177
X6.9744Y-2.5177
T4
X3.5512Y-3.6378
X3.5512Y-3.7362
X3.5512Y-3.8346
X4.122Y-3.6378
X4.122Y-3.8346
X4.2106Y-2.4272
X5.1378Y-3.2539
X5.1378Y-3.3539
X5.1378Y-3.4539
X5.1378Y-3.5539
X3.5709Y-2.4291
T5
X8.1299Y-2.4173
X8.3268Y-2.5039
X8.5236Y-2.4173
X5.2953Y-2.1811
X5.4921Y-2.2677
X5.689Y-2.1811
X8.1299Y-3.7559
X8.3268Y-3.8425
X8.5236Y-3.7559
X4.5866Y-2.9449
X4.7835Y-3.0315
X4.9803Y-2.9449
X4.5866Y-4.2835
X4.7835Y-4.3701
X4.9803Y-4.2835
X5.2953Y-2.8504
X5.4921Y-2.937
X5.689Y-2.8504
X5.005Y-5.0094
X5.2176Y-5.0421
X5.3853Y-4.9075
X6.0039Y-4.1378
X6.2008Y-4.2244
X6.3976Y-4.1378
X5.2953Y-3.5197
X5.4921Y-3.6063
X5.689Y-3.5197
X5.2953Y-4.189
X5.4921Y-4.2756
X5.689Y-4.189
X6.0039Y-2.7992
X6.2008Y-2.8858
X6.3976Y-2.7992
X4.0668Y-4.8394
X4.0902Y-5.0531
X4.2636Y-5.1803
X5.748Y-4.8583
X5.9449Y-4.9449
X6.1417Y-4.8583
X6.7126Y-4.189
X6.9094Y-4.2756
X7.1063Y-4.189
X6.7126Y-2.8504
X6.9094Y-2.937
X7.1063Y-2.8504
X6.0039Y-2.1299
X6.2008Y-2.2165
X6.3976Y-2.1299
X6.4567Y-4.8583
X6.6535Y-4.9449
X6.8504Y-4.8583
X7.4213Y-4.3858
X7.6181Y-4.4724
X7.815Y-4.3858
X7.1614Y-5.0551
X7.3583Y-5.1417
X7.5551Y-5.0551
X6.0039Y-3.4685
X6.2008Y-3.5551
X6.3976Y-3.4685
X7.4213Y-3.0472
X7.6181Y-3.1339
X7.815Y-3.0472
X6.7126Y-2.1811
X6.9094Y-2.2677
X7.1063Y-2.1811
X6.7126Y-3.5197
X6.9094Y-3.6063
X7.1063Y-3.5197
X8.1299Y-3.0866
X8.3268Y-3.1732
X8.5236Y-3.0866
X7.4213Y-2.378
X7.6181Y-2.4646
X7.815Y-2.378
X4.5866Y-2.2756
X4.7835Y-2.3622
X4.9803Y-2.2756
X8.1299Y-4.4252
X8.3268Y-4.5118
X8.5236Y-4.4252
X7.4213Y-3.7165
X7.6181Y-3.8031
X7.815Y-3.7165
X4.5866Y-3.6142
X4.7835Y-3.7008
X4.9803Y-3.6142
T3
G00X3.6409Y-1.9213
M15
G01X3.6409Y-1.9449
M16
G05
G00X3.6409Y-2.076
M15
G01X3.6409Y-2.1193
M16
G05
G00X3.9811Y-1.9213
M15
G01X3.9811Y-1.9449
M16
G05
G00X3.9811Y-2.076
M15
G01X3.9811Y-2.1193
M16
G05
G00X3.6409Y-1.9449
M15
G01X3.6409Y-1.9213
M16
G05
G00X3.6409Y-2.1193
M15
G01X3.6409Y-2.076
M16
G05
G00X3.9811Y-1.9449
M15
G01X3.9811Y-1.9213
M16
G05
G00X3.9811Y-2.1193
M15
G01X3.9811Y-2.076
M16
G05
T6
G00X3.8209Y-3.5157
M15
G01X3.872Y-3.5157
M16
G05
G00X3.8209Y-3.9567
M15
G01X3.872Y-3.9567
M16
G05
T0
M30
