G04 #@! TF.GenerationSoftware,KiCad,Pcbnew,(5.1.8-0-10_14)*
G04 #@! TF.CreationDate,2020-12-08T08:42:12-07:00*
G04 #@! TF.ProjectId,BlueSof,426c7565-536f-4662-9e6b-696361645f70,rev?*
G04 #@! TF.SameCoordinates,Original*
G04 #@! TF.FileFunction,Soldermask,Bot*
G04 #@! TF.FilePolarity,Negative*
%FSLAX46Y46*%
G04 Gerber Fmt 4.6, Leading zero omitted, Abs format (unit mm)*
G04 Created by KiCad (PCBNEW (5.1.8-0-10_14)) date 2020-12-08 08:42:12*
%MOMM*%
%LPD*%
G01*
G04 APERTURE LIST*
%ADD10O,2.100000X2.100000*%
%ADD11O,1.400000X2.500000*%
%ADD12C,1.050000*%
%ADD13O,1.400000X2.000000*%
%ADD14C,2.300000*%
%ADD15C,4.400000*%
%ADD16C,2.400000*%
G04 APERTURE END LIST*
G36*
G01*
X103893000Y-105359000D02*
X103893000Y-106359000D01*
G75*
G02*
X103693000Y-106559000I-200000J0D01*
G01*
X103043000Y-106559000D01*
G75*
G02*
X102843000Y-106359000I0J200000D01*
G01*
X102843000Y-105359000D01*
G75*
G02*
X103043000Y-105159000I200000J0D01*
G01*
X103693000Y-105159000D01*
G75*
G02*
X103893000Y-105359000I0J-200000D01*
G01*
G37*
G36*
G01*
X102623000Y-105359000D02*
X102623000Y-106359000D01*
G75*
G02*
X102423000Y-106559000I-200000J0D01*
G01*
X101773000Y-106559000D01*
G75*
G02*
X101573000Y-106359000I0J200000D01*
G01*
X101573000Y-105359000D01*
G75*
G02*
X101773000Y-105159000I200000J0D01*
G01*
X102423000Y-105159000D01*
G75*
G02*
X102623000Y-105359000I0J-200000D01*
G01*
G37*
G36*
G01*
X101353000Y-105359000D02*
X101353000Y-106359000D01*
G75*
G02*
X101153000Y-106559000I-200000J0D01*
G01*
X100503000Y-106559000D01*
G75*
G02*
X100303000Y-106359000I0J200000D01*
G01*
X100303000Y-105359000D01*
G75*
G02*
X100503000Y-105159000I200000J0D01*
G01*
X101153000Y-105159000D01*
G75*
G02*
X101353000Y-105359000I0J-200000D01*
G01*
G37*
G36*
G01*
X100083000Y-105359000D02*
X100083000Y-106359000D01*
G75*
G02*
X99883000Y-106559000I-200000J0D01*
G01*
X99233000Y-106559000D01*
G75*
G02*
X99033000Y-106359000I0J200000D01*
G01*
X99033000Y-105359000D01*
G75*
G02*
X99233000Y-105159000I200000J0D01*
G01*
X99883000Y-105159000D01*
G75*
G02*
X100083000Y-105359000I0J-200000D01*
G01*
G37*
G36*
G01*
X98813000Y-105359000D02*
X98813000Y-106359000D01*
G75*
G02*
X98613000Y-106559000I-200000J0D01*
G01*
X97963000Y-106559000D01*
G75*
G02*
X97763000Y-106359000I0J200000D01*
G01*
X97763000Y-105359000D01*
G75*
G02*
X97963000Y-105159000I200000J0D01*
G01*
X98613000Y-105159000D01*
G75*
G02*
X98813000Y-105359000I0J-200000D01*
G01*
G37*
G36*
G01*
X97543000Y-105359000D02*
X97543000Y-106359000D01*
G75*
G02*
X97343000Y-106559000I-200000J0D01*
G01*
X96693000Y-106559000D01*
G75*
G02*
X96493000Y-106359000I0J200000D01*
G01*
X96493000Y-105359000D01*
G75*
G02*
X96693000Y-105159000I200000J0D01*
G01*
X97343000Y-105159000D01*
G75*
G02*
X97543000Y-105359000I0J-200000D01*
G01*
G37*
G36*
G01*
X96273000Y-105359000D02*
X96273000Y-106359000D01*
G75*
G02*
X96073000Y-106559000I-200000J0D01*
G01*
X95423000Y-106559000D01*
G75*
G02*
X95223000Y-106359000I0J200000D01*
G01*
X95223000Y-105359000D01*
G75*
G02*
X95423000Y-105159000I200000J0D01*
G01*
X96073000Y-105159000D01*
G75*
G02*
X96273000Y-105359000I0J-200000D01*
G01*
G37*
G36*
G01*
X95003000Y-105359000D02*
X95003000Y-106359000D01*
G75*
G02*
X94803000Y-106559000I-200000J0D01*
G01*
X94153000Y-106559000D01*
G75*
G02*
X93953000Y-106359000I0J200000D01*
G01*
X93953000Y-105359000D01*
G75*
G02*
X94153000Y-105159000I200000J0D01*
G01*
X94803000Y-105159000D01*
G75*
G02*
X95003000Y-105359000I0J-200000D01*
G01*
G37*
G36*
G01*
X105408000Y-111938000D02*
X106408000Y-111938000D01*
G75*
G02*
X106608000Y-112138000I0J-200000D01*
G01*
X106608000Y-112788000D01*
G75*
G02*
X106408000Y-112988000I-200000J0D01*
G01*
X105408000Y-112988000D01*
G75*
G02*
X105208000Y-112788000I0J200000D01*
G01*
X105208000Y-112138000D01*
G75*
G02*
X105408000Y-111938000I200000J0D01*
G01*
G37*
G36*
G01*
X105408000Y-113208000D02*
X106408000Y-113208000D01*
G75*
G02*
X106608000Y-113408000I0J-200000D01*
G01*
X106608000Y-114058000D01*
G75*
G02*
X106408000Y-114258000I-200000J0D01*
G01*
X105408000Y-114258000D01*
G75*
G02*
X105208000Y-114058000I0J200000D01*
G01*
X105208000Y-113408000D01*
G75*
G02*
X105408000Y-113208000I200000J0D01*
G01*
G37*
G36*
G01*
X105408000Y-108128000D02*
X106408000Y-108128000D01*
G75*
G02*
X106608000Y-108328000I0J-200000D01*
G01*
X106608000Y-108978000D01*
G75*
G02*
X106408000Y-109178000I-200000J0D01*
G01*
X105408000Y-109178000D01*
G75*
G02*
X105208000Y-108978000I0J200000D01*
G01*
X105208000Y-108328000D01*
G75*
G02*
X105408000Y-108128000I200000J0D01*
G01*
G37*
G36*
G01*
X105408000Y-110668000D02*
X106408000Y-110668000D01*
G75*
G02*
X106608000Y-110868000I0J-200000D01*
G01*
X106608000Y-111518000D01*
G75*
G02*
X106408000Y-111718000I-200000J0D01*
G01*
X105408000Y-111718000D01*
G75*
G02*
X105208000Y-111518000I0J200000D01*
G01*
X105208000Y-110868000D01*
G75*
G02*
X105408000Y-110668000I200000J0D01*
G01*
G37*
G36*
G01*
X105408000Y-106858000D02*
X106408000Y-106858000D01*
G75*
G02*
X106608000Y-107058000I0J-200000D01*
G01*
X106608000Y-107708000D01*
G75*
G02*
X106408000Y-107908000I-200000J0D01*
G01*
X105408000Y-107908000D01*
G75*
G02*
X105208000Y-107708000I0J200000D01*
G01*
X105208000Y-107058000D01*
G75*
G02*
X105408000Y-106858000I200000J0D01*
G01*
G37*
G36*
G01*
X105408000Y-105588000D02*
X106408000Y-105588000D01*
G75*
G02*
X106608000Y-105788000I0J-200000D01*
G01*
X106608000Y-106438000D01*
G75*
G02*
X106408000Y-106638000I-200000J0D01*
G01*
X105408000Y-106638000D01*
G75*
G02*
X105208000Y-106438000I0J200000D01*
G01*
X105208000Y-105788000D01*
G75*
G02*
X105408000Y-105588000I200000J0D01*
G01*
G37*
G36*
G01*
X105408000Y-109398000D02*
X106408000Y-109398000D01*
G75*
G02*
X106608000Y-109598000I0J-200000D01*
G01*
X106608000Y-110248000D01*
G75*
G02*
X106408000Y-110448000I-200000J0D01*
G01*
X105408000Y-110448000D01*
G75*
G02*
X105208000Y-110248000I0J200000D01*
G01*
X105208000Y-109598000D01*
G75*
G02*
X105408000Y-109398000I200000J0D01*
G01*
G37*
G36*
G01*
X107100000Y-62950000D02*
X105400000Y-62950000D01*
G75*
G02*
X105200000Y-62750000I0J200000D01*
G01*
X105200000Y-61050000D01*
G75*
G02*
X105400000Y-60850000I200000J0D01*
G01*
X107100000Y-60850000D01*
G75*
G02*
X107300000Y-61050000I0J-200000D01*
G01*
X107300000Y-62750000D01*
G75*
G02*
X107100000Y-62950000I-200000J0D01*
G01*
G37*
G36*
G01*
X95850000Y-62950000D02*
X94150000Y-62950000D01*
G75*
G02*
X93950000Y-62750000I0J200000D01*
G01*
X93950000Y-61050000D01*
G75*
G02*
X94150000Y-60850000I200000J0D01*
G01*
X95850000Y-60850000D01*
G75*
G02*
X96050000Y-61050000I0J-200000D01*
G01*
X96050000Y-62750000D01*
G75*
G02*
X95850000Y-62950000I-200000J0D01*
G01*
G37*
D10*
X130500000Y-90270000D03*
X130500000Y-87730000D03*
X130500000Y-85190000D03*
G36*
G01*
X129450000Y-83500000D02*
X129450000Y-81800000D01*
G75*
G02*
X129650000Y-81600000I200000J0D01*
G01*
X131350000Y-81600000D01*
G75*
G02*
X131550000Y-81800000I0J-200000D01*
G01*
X131550000Y-83500000D01*
G75*
G02*
X131350000Y-83700000I-200000J0D01*
G01*
X129650000Y-83700000D01*
G75*
G02*
X129450000Y-83500000I0J200000D01*
G01*
G37*
D11*
X93180000Y-53530000D03*
X101820000Y-53530000D03*
D12*
X100390000Y-53000000D03*
D13*
X101820000Y-49350000D03*
D12*
X94610000Y-53000000D03*
D13*
X93180000Y-49350000D03*
G36*
G01*
X184400000Y-118350000D02*
X184400000Y-119850000D01*
G75*
G02*
X184200000Y-120050000I-200000J0D01*
G01*
X182400000Y-120050000D01*
G75*
G02*
X182200000Y-119850000I0J200000D01*
G01*
X182200000Y-118350000D01*
G75*
G02*
X182400000Y-118150000I200000J0D01*
G01*
X184200000Y-118150000D01*
G75*
G02*
X184400000Y-118350000I0J-200000D01*
G01*
G37*
G36*
G01*
X187800000Y-118350000D02*
X187800000Y-119850000D01*
G75*
G02*
X187600000Y-120050000I-200000J0D01*
G01*
X185800000Y-120050000D01*
G75*
G02*
X185600000Y-119850000I0J200000D01*
G01*
X185600000Y-118350000D01*
G75*
G02*
X185800000Y-118150000I200000J0D01*
G01*
X187600000Y-118150000D01*
G75*
G02*
X187800000Y-118350000I0J-200000D01*
G01*
G37*
D14*
X111250000Y-130913140D03*
X105750000Y-121386860D03*
D15*
X108500000Y-126150000D03*
D16*
X103390450Y-129100000D03*
X102795706Y-123669873D03*
X107795706Y-132330127D03*
G36*
G01*
X166400000Y-114200000D02*
X166400000Y-115700000D01*
G75*
G02*
X166200000Y-115900000I-200000J0D01*
G01*
X164400000Y-115900000D01*
G75*
G02*
X164200000Y-115700000I0J200000D01*
G01*
X164200000Y-114200000D01*
G75*
G02*
X164400000Y-114000000I200000J0D01*
G01*
X166200000Y-114000000D01*
G75*
G02*
X166400000Y-114200000I0J-200000D01*
G01*
G37*
G36*
G01*
X169800000Y-114200000D02*
X169800000Y-115700000D01*
G75*
G02*
X169600000Y-115900000I-200000J0D01*
G01*
X167800000Y-115900000D01*
G75*
G02*
X167600000Y-115700000I0J200000D01*
G01*
X167600000Y-114200000D01*
G75*
G02*
X167800000Y-114000000I200000J0D01*
G01*
X169600000Y-114000000D01*
G75*
G02*
X169800000Y-114200000I0J-200000D01*
G01*
G37*
G36*
G01*
X148600000Y-114200000D02*
X148600000Y-115700000D01*
G75*
G02*
X148400000Y-115900000I-200000J0D01*
G01*
X146600000Y-115900000D01*
G75*
G02*
X146400000Y-115700000I0J200000D01*
G01*
X146400000Y-114200000D01*
G75*
G02*
X146600000Y-114000000I200000J0D01*
G01*
X148400000Y-114000000D01*
G75*
G02*
X148600000Y-114200000I0J-200000D01*
G01*
G37*
G36*
G01*
X152000000Y-114200000D02*
X152000000Y-115700000D01*
G75*
G02*
X151800000Y-115900000I-200000J0D01*
G01*
X150000000Y-115900000D01*
G75*
G02*
X149800000Y-115700000I0J200000D01*
G01*
X149800000Y-114200000D01*
G75*
G02*
X150000000Y-114000000I200000J0D01*
G01*
X151800000Y-114000000D01*
G75*
G02*
X152000000Y-114200000I0J-200000D01*
G01*
G37*
G36*
G01*
X129030447Y-116955148D02*
X129161181Y-118449440D01*
G75*
G02*
X128979373Y-118666110I-199239J-17431D01*
G01*
X127186223Y-118822990D01*
G75*
G02*
X126969553Y-118641182I-17431J199239D01*
G01*
X126838819Y-117146890D01*
G75*
G02*
X127020627Y-116930220I199239J17431D01*
G01*
X128813777Y-116773340D01*
G75*
G02*
X129030447Y-116955148I17431J-199239D01*
G01*
G37*
G36*
G01*
X132417509Y-116658818D02*
X132548243Y-118153110D01*
G75*
G02*
X132366435Y-118369780I-199239J-17431D01*
G01*
X130573285Y-118526660D01*
G75*
G02*
X130356615Y-118344852I-17431J199239D01*
G01*
X130225881Y-116850560D01*
G75*
G02*
X130407689Y-116633890I199239J17431D01*
G01*
X132200839Y-116477010D01*
G75*
G02*
X132417509Y-116658818I17431J-199239D01*
G01*
G37*
G36*
G01*
X112849519Y-122755385D02*
X111550481Y-123505385D01*
G75*
G02*
X111277276Y-123432180I-100000J173205D01*
G01*
X110377276Y-121873334D01*
G75*
G02*
X110450481Y-121600129I173205J100000D01*
G01*
X111749519Y-120850129D01*
G75*
G02*
X112022724Y-120923334I100000J-173205D01*
G01*
X112922724Y-122482180D01*
G75*
G02*
X112849519Y-122755385I-173205J-100000D01*
G01*
G37*
G36*
G01*
X114549519Y-125699871D02*
X113250481Y-126449871D01*
G75*
G02*
X112977276Y-126376666I-100000J173205D01*
G01*
X112077276Y-124817820D01*
G75*
G02*
X112150481Y-124544615I173205J100000D01*
G01*
X113449519Y-123794615D01*
G75*
G02*
X113722724Y-123867820I100000J-173205D01*
G01*
X114622724Y-125426666D01*
G75*
G02*
X114549519Y-125699871I-173205J-100000D01*
G01*
G37*
G36*
G01*
X110250000Y-92300000D02*
X111750000Y-92300000D01*
G75*
G02*
X111950000Y-92500000I0J-200000D01*
G01*
X111950000Y-94300000D01*
G75*
G02*
X111750000Y-94500000I-200000J0D01*
G01*
X110250000Y-94500000D01*
G75*
G02*
X110050000Y-94300000I0J200000D01*
G01*
X110050000Y-92500000D01*
G75*
G02*
X110250000Y-92300000I200000J0D01*
G01*
G37*
G36*
G01*
X110250000Y-88900000D02*
X111750000Y-88900000D01*
G75*
G02*
X111950000Y-89100000I0J-200000D01*
G01*
X111950000Y-90900000D01*
G75*
G02*
X111750000Y-91100000I-200000J0D01*
G01*
X110250000Y-91100000D01*
G75*
G02*
X110050000Y-90900000I0J200000D01*
G01*
X110050000Y-89100000D01*
G75*
G02*
X110250000Y-88900000I200000J0D01*
G01*
G37*
G36*
G01*
X210900000Y-103200000D02*
X210900000Y-104700000D01*
G75*
G02*
X210700000Y-104900000I-200000J0D01*
G01*
X208900000Y-104900000D01*
G75*
G02*
X208700000Y-104700000I0J200000D01*
G01*
X208700000Y-103200000D01*
G75*
G02*
X208900000Y-103000000I200000J0D01*
G01*
X210700000Y-103000000D01*
G75*
G02*
X210900000Y-103200000I0J-200000D01*
G01*
G37*
G36*
G01*
X214300000Y-103200000D02*
X214300000Y-104700000D01*
G75*
G02*
X214100000Y-104900000I-200000J0D01*
G01*
X212300000Y-104900000D01*
G75*
G02*
X212100000Y-104700000I0J200000D01*
G01*
X212100000Y-103200000D01*
G75*
G02*
X212300000Y-103000000I200000J0D01*
G01*
X214100000Y-103000000D01*
G75*
G02*
X214300000Y-103200000I0J-200000D01*
G01*
G37*
G36*
G01*
X192850000Y-102200000D02*
X192850000Y-103700000D01*
G75*
G02*
X192650000Y-103900000I-200000J0D01*
G01*
X190850000Y-103900000D01*
G75*
G02*
X190650000Y-103700000I0J200000D01*
G01*
X190650000Y-102200000D01*
G75*
G02*
X190850000Y-102000000I200000J0D01*
G01*
X192650000Y-102000000D01*
G75*
G02*
X192850000Y-102200000I0J-200000D01*
G01*
G37*
G36*
G01*
X196250000Y-102200000D02*
X196250000Y-103700000D01*
G75*
G02*
X196050000Y-103900000I-200000J0D01*
G01*
X194250000Y-103900000D01*
G75*
G02*
X194050000Y-103700000I0J200000D01*
G01*
X194050000Y-102200000D01*
G75*
G02*
X194250000Y-102000000I200000J0D01*
G01*
X196050000Y-102000000D01*
G75*
G02*
X196250000Y-102200000I0J-200000D01*
G01*
G37*
G36*
G01*
X174850000Y-97200000D02*
X174850000Y-98700000D01*
G75*
G02*
X174650000Y-98900000I-200000J0D01*
G01*
X172850000Y-98900000D01*
G75*
G02*
X172650000Y-98700000I0J200000D01*
G01*
X172650000Y-97200000D01*
G75*
G02*
X172850000Y-97000000I200000J0D01*
G01*
X174650000Y-97000000D01*
G75*
G02*
X174850000Y-97200000I0J-200000D01*
G01*
G37*
G36*
G01*
X178250000Y-97200000D02*
X178250000Y-98700000D01*
G75*
G02*
X178050000Y-98900000I-200000J0D01*
G01*
X176250000Y-98900000D01*
G75*
G02*
X176050000Y-98700000I0J200000D01*
G01*
X176050000Y-97200000D01*
G75*
G02*
X176250000Y-97000000I200000J0D01*
G01*
X178050000Y-97000000D01*
G75*
G02*
X178250000Y-97200000I0J-200000D01*
G01*
G37*
G36*
G01*
X157100000Y-96450000D02*
X157100000Y-97950000D01*
G75*
G02*
X156900000Y-98150000I-200000J0D01*
G01*
X155100000Y-98150000D01*
G75*
G02*
X154900000Y-97950000I0J200000D01*
G01*
X154900000Y-96450000D01*
G75*
G02*
X155100000Y-96250000I200000J0D01*
G01*
X156900000Y-96250000D01*
G75*
G02*
X157100000Y-96450000I0J-200000D01*
G01*
G37*
G36*
G01*
X160500000Y-96450000D02*
X160500000Y-97950000D01*
G75*
G02*
X160300000Y-98150000I-200000J0D01*
G01*
X158500000Y-98150000D01*
G75*
G02*
X158300000Y-97950000I0J200000D01*
G01*
X158300000Y-96450000D01*
G75*
G02*
X158500000Y-96250000I200000J0D01*
G01*
X160300000Y-96250000D01*
G75*
G02*
X160500000Y-96450000I0J-200000D01*
G01*
G37*
G36*
G01*
X138900000Y-97950000D02*
X138900000Y-99450000D01*
G75*
G02*
X138700000Y-99650000I-200000J0D01*
G01*
X136900000Y-99650000D01*
G75*
G02*
X136700000Y-99450000I0J200000D01*
G01*
X136700000Y-97950000D01*
G75*
G02*
X136900000Y-97750000I200000J0D01*
G01*
X138700000Y-97750000D01*
G75*
G02*
X138900000Y-97950000I0J-200000D01*
G01*
G37*
G36*
G01*
X142300000Y-97950000D02*
X142300000Y-99450000D01*
G75*
G02*
X142100000Y-99650000I-200000J0D01*
G01*
X140300000Y-99650000D01*
G75*
G02*
X140100000Y-99450000I0J200000D01*
G01*
X140100000Y-97950000D01*
G75*
G02*
X140300000Y-97750000I200000J0D01*
G01*
X142100000Y-97750000D01*
G75*
G02*
X142300000Y-97950000I0J-200000D01*
G01*
G37*
G36*
G01*
X119900000Y-99600000D02*
X119900000Y-101100000D01*
G75*
G02*
X119700000Y-101300000I-200000J0D01*
G01*
X117900000Y-101300000D01*
G75*
G02*
X117700000Y-101100000I0J200000D01*
G01*
X117700000Y-99600000D01*
G75*
G02*
X117900000Y-99400000I200000J0D01*
G01*
X119700000Y-99400000D01*
G75*
G02*
X119900000Y-99600000I0J-200000D01*
G01*
G37*
G36*
G01*
X123300000Y-99600000D02*
X123300000Y-101100000D01*
G75*
G02*
X123100000Y-101300000I-200000J0D01*
G01*
X121300000Y-101300000D01*
G75*
G02*
X121100000Y-101100000I0J200000D01*
G01*
X121100000Y-99600000D01*
G75*
G02*
X121300000Y-99400000I200000J0D01*
G01*
X123100000Y-99400000D01*
G75*
G02*
X123300000Y-99600000I0J-200000D01*
G01*
G37*
G36*
G01*
X210850000Y-86200000D02*
X210850000Y-87700000D01*
G75*
G02*
X210650000Y-87900000I-200000J0D01*
G01*
X208850000Y-87900000D01*
G75*
G02*
X208650000Y-87700000I0J200000D01*
G01*
X208650000Y-86200000D01*
G75*
G02*
X208850000Y-86000000I200000J0D01*
G01*
X210650000Y-86000000D01*
G75*
G02*
X210850000Y-86200000I0J-200000D01*
G01*
G37*
G36*
G01*
X214250000Y-86200000D02*
X214250000Y-87700000D01*
G75*
G02*
X214050000Y-87900000I-200000J0D01*
G01*
X212250000Y-87900000D01*
G75*
G02*
X212050000Y-87700000I0J200000D01*
G01*
X212050000Y-86200000D01*
G75*
G02*
X212250000Y-86000000I200000J0D01*
G01*
X214050000Y-86000000D01*
G75*
G02*
X214250000Y-86200000I0J-200000D01*
G01*
G37*
G36*
G01*
X192900000Y-85200000D02*
X192900000Y-86700000D01*
G75*
G02*
X192700000Y-86900000I-200000J0D01*
G01*
X190900000Y-86900000D01*
G75*
G02*
X190700000Y-86700000I0J200000D01*
G01*
X190700000Y-85200000D01*
G75*
G02*
X190900000Y-85000000I200000J0D01*
G01*
X192700000Y-85000000D01*
G75*
G02*
X192900000Y-85200000I0J-200000D01*
G01*
G37*
G36*
G01*
X196300000Y-85200000D02*
X196300000Y-86700000D01*
G75*
G02*
X196100000Y-86900000I-200000J0D01*
G01*
X194300000Y-86900000D01*
G75*
G02*
X194100000Y-86700000I0J200000D01*
G01*
X194100000Y-85200000D01*
G75*
G02*
X194300000Y-85000000I200000J0D01*
G01*
X196100000Y-85000000D01*
G75*
G02*
X196300000Y-85200000I0J-200000D01*
G01*
G37*
G36*
G01*
X174850000Y-80200000D02*
X174850000Y-81700000D01*
G75*
G02*
X174650000Y-81900000I-200000J0D01*
G01*
X172850000Y-81900000D01*
G75*
G02*
X172650000Y-81700000I0J200000D01*
G01*
X172650000Y-80200000D01*
G75*
G02*
X172850000Y-80000000I200000J0D01*
G01*
X174650000Y-80000000D01*
G75*
G02*
X174850000Y-80200000I0J-200000D01*
G01*
G37*
G36*
G01*
X178250000Y-80200000D02*
X178250000Y-81700000D01*
G75*
G02*
X178050000Y-81900000I-200000J0D01*
G01*
X176250000Y-81900000D01*
G75*
G02*
X176050000Y-81700000I0J200000D01*
G01*
X176050000Y-80200000D01*
G75*
G02*
X176250000Y-80000000I200000J0D01*
G01*
X178050000Y-80000000D01*
G75*
G02*
X178250000Y-80200000I0J-200000D01*
G01*
G37*
G36*
G01*
X156900000Y-78900000D02*
X156900000Y-80400000D01*
G75*
G02*
X156700000Y-80600000I-200000J0D01*
G01*
X154900000Y-80600000D01*
G75*
G02*
X154700000Y-80400000I0J200000D01*
G01*
X154700000Y-78900000D01*
G75*
G02*
X154900000Y-78700000I200000J0D01*
G01*
X156700000Y-78700000D01*
G75*
G02*
X156900000Y-78900000I0J-200000D01*
G01*
G37*
G36*
G01*
X160300000Y-78900000D02*
X160300000Y-80400000D01*
G75*
G02*
X160100000Y-80600000I-200000J0D01*
G01*
X158300000Y-80600000D01*
G75*
G02*
X158100000Y-80400000I0J200000D01*
G01*
X158100000Y-78900000D01*
G75*
G02*
X158300000Y-78700000I200000J0D01*
G01*
X160100000Y-78700000D01*
G75*
G02*
X160300000Y-78900000I0J-200000D01*
G01*
G37*
G36*
G01*
X139100000Y-80950000D02*
X139100000Y-82450000D01*
G75*
G02*
X138900000Y-82650000I-200000J0D01*
G01*
X137100000Y-82650000D01*
G75*
G02*
X136900000Y-82450000I0J200000D01*
G01*
X136900000Y-80950000D01*
G75*
G02*
X137100000Y-80750000I200000J0D01*
G01*
X138900000Y-80750000D01*
G75*
G02*
X139100000Y-80950000I0J-200000D01*
G01*
G37*
G36*
G01*
X142500000Y-80950000D02*
X142500000Y-82450000D01*
G75*
G02*
X142300000Y-82650000I-200000J0D01*
G01*
X140500000Y-82650000D01*
G75*
G02*
X140300000Y-82450000I0J200000D01*
G01*
X140300000Y-80950000D01*
G75*
G02*
X140500000Y-80750000I200000J0D01*
G01*
X142300000Y-80750000D01*
G75*
G02*
X142500000Y-80950000I0J-200000D01*
G01*
G37*
G36*
G01*
X120900000Y-82600000D02*
X120900000Y-84100000D01*
G75*
G02*
X120700000Y-84300000I-200000J0D01*
G01*
X118900000Y-84300000D01*
G75*
G02*
X118700000Y-84100000I0J200000D01*
G01*
X118700000Y-82600000D01*
G75*
G02*
X118900000Y-82400000I200000J0D01*
G01*
X120700000Y-82400000D01*
G75*
G02*
X120900000Y-82600000I0J-200000D01*
G01*
G37*
G36*
G01*
X124300000Y-82600000D02*
X124300000Y-84100000D01*
G75*
G02*
X124100000Y-84300000I-200000J0D01*
G01*
X122300000Y-84300000D01*
G75*
G02*
X122100000Y-84100000I0J200000D01*
G01*
X122100000Y-82600000D01*
G75*
G02*
X122300000Y-82400000I200000J0D01*
G01*
X124100000Y-82400000D01*
G75*
G02*
X124300000Y-82600000I0J-200000D01*
G01*
G37*
G36*
G01*
X210850000Y-69200000D02*
X210850000Y-70700000D01*
G75*
G02*
X210650000Y-70900000I-200000J0D01*
G01*
X208850000Y-70900000D01*
G75*
G02*
X208650000Y-70700000I0J200000D01*
G01*
X208650000Y-69200000D01*
G75*
G02*
X208850000Y-69000000I200000J0D01*
G01*
X210650000Y-69000000D01*
G75*
G02*
X210850000Y-69200000I0J-200000D01*
G01*
G37*
G36*
G01*
X214250000Y-69200000D02*
X214250000Y-70700000D01*
G75*
G02*
X214050000Y-70900000I-200000J0D01*
G01*
X212250000Y-70900000D01*
G75*
G02*
X212050000Y-70700000I0J200000D01*
G01*
X212050000Y-69200000D01*
G75*
G02*
X212250000Y-69000000I200000J0D01*
G01*
X214050000Y-69000000D01*
G75*
G02*
X214250000Y-69200000I0J-200000D01*
G01*
G37*
G36*
G01*
X192900000Y-68200000D02*
X192900000Y-69700000D01*
G75*
G02*
X192700000Y-69900000I-200000J0D01*
G01*
X190900000Y-69900000D01*
G75*
G02*
X190700000Y-69700000I0J200000D01*
G01*
X190700000Y-68200000D01*
G75*
G02*
X190900000Y-68000000I200000J0D01*
G01*
X192700000Y-68000000D01*
G75*
G02*
X192900000Y-68200000I0J-200000D01*
G01*
G37*
G36*
G01*
X196300000Y-68200000D02*
X196300000Y-69700000D01*
G75*
G02*
X196100000Y-69900000I-200000J0D01*
G01*
X194300000Y-69900000D01*
G75*
G02*
X194100000Y-69700000I0J200000D01*
G01*
X194100000Y-68200000D01*
G75*
G02*
X194300000Y-68000000I200000J0D01*
G01*
X196100000Y-68000000D01*
G75*
G02*
X196300000Y-68200000I0J-200000D01*
G01*
G37*
G36*
G01*
X174850000Y-63200000D02*
X174850000Y-64700000D01*
G75*
G02*
X174650000Y-64900000I-200000J0D01*
G01*
X172850000Y-64900000D01*
G75*
G02*
X172650000Y-64700000I0J200000D01*
G01*
X172650000Y-63200000D01*
G75*
G02*
X172850000Y-63000000I200000J0D01*
G01*
X174650000Y-63000000D01*
G75*
G02*
X174850000Y-63200000I0J-200000D01*
G01*
G37*
G36*
G01*
X178250000Y-63200000D02*
X178250000Y-64700000D01*
G75*
G02*
X178050000Y-64900000I-200000J0D01*
G01*
X176250000Y-64900000D01*
G75*
G02*
X176050000Y-64700000I0J200000D01*
G01*
X176050000Y-63200000D01*
G75*
G02*
X176250000Y-63000000I200000J0D01*
G01*
X178050000Y-63000000D01*
G75*
G02*
X178250000Y-63200000I0J-200000D01*
G01*
G37*
G36*
G01*
X156900000Y-61900000D02*
X156900000Y-63400000D01*
G75*
G02*
X156700000Y-63600000I-200000J0D01*
G01*
X154900000Y-63600000D01*
G75*
G02*
X154700000Y-63400000I0J200000D01*
G01*
X154700000Y-61900000D01*
G75*
G02*
X154900000Y-61700000I200000J0D01*
G01*
X156700000Y-61700000D01*
G75*
G02*
X156900000Y-61900000I0J-200000D01*
G01*
G37*
G36*
G01*
X160300000Y-61900000D02*
X160300000Y-63400000D01*
G75*
G02*
X160100000Y-63600000I-200000J0D01*
G01*
X158300000Y-63600000D01*
G75*
G02*
X158100000Y-63400000I0J200000D01*
G01*
X158100000Y-61900000D01*
G75*
G02*
X158300000Y-61700000I200000J0D01*
G01*
X160100000Y-61700000D01*
G75*
G02*
X160300000Y-61900000I0J-200000D01*
G01*
G37*
G36*
G01*
X138900000Y-63950000D02*
X138900000Y-65450000D01*
G75*
G02*
X138700000Y-65650000I-200000J0D01*
G01*
X136900000Y-65650000D01*
G75*
G02*
X136700000Y-65450000I0J200000D01*
G01*
X136700000Y-63950000D01*
G75*
G02*
X136900000Y-63750000I200000J0D01*
G01*
X138700000Y-63750000D01*
G75*
G02*
X138900000Y-63950000I0J-200000D01*
G01*
G37*
G36*
G01*
X142300000Y-63950000D02*
X142300000Y-65450000D01*
G75*
G02*
X142100000Y-65650000I-200000J0D01*
G01*
X140300000Y-65650000D01*
G75*
G02*
X140100000Y-65450000I0J200000D01*
G01*
X140100000Y-63950000D01*
G75*
G02*
X140300000Y-63750000I200000J0D01*
G01*
X142100000Y-63750000D01*
G75*
G02*
X142300000Y-63950000I0J-200000D01*
G01*
G37*
G36*
G01*
X120850000Y-65600000D02*
X120850000Y-67100000D01*
G75*
G02*
X120650000Y-67300000I-200000J0D01*
G01*
X118850000Y-67300000D01*
G75*
G02*
X118650000Y-67100000I0J200000D01*
G01*
X118650000Y-65600000D01*
G75*
G02*
X118850000Y-65400000I200000J0D01*
G01*
X120650000Y-65400000D01*
G75*
G02*
X120850000Y-65600000I0J-200000D01*
G01*
G37*
G36*
G01*
X124250000Y-65600000D02*
X124250000Y-67100000D01*
G75*
G02*
X124050000Y-67300000I-200000J0D01*
G01*
X122250000Y-67300000D01*
G75*
G02*
X122050000Y-67100000I0J200000D01*
G01*
X122050000Y-65600000D01*
G75*
G02*
X122250000Y-65400000I200000J0D01*
G01*
X124050000Y-65400000D01*
G75*
G02*
X124250000Y-65600000I0J-200000D01*
G01*
G37*
G36*
G01*
X210900000Y-52200000D02*
X210900000Y-53700000D01*
G75*
G02*
X210700000Y-53900000I-200000J0D01*
G01*
X208900000Y-53900000D01*
G75*
G02*
X208700000Y-53700000I0J200000D01*
G01*
X208700000Y-52200000D01*
G75*
G02*
X208900000Y-52000000I200000J0D01*
G01*
X210700000Y-52000000D01*
G75*
G02*
X210900000Y-52200000I0J-200000D01*
G01*
G37*
G36*
G01*
X214300000Y-52200000D02*
X214300000Y-53700000D01*
G75*
G02*
X214100000Y-53900000I-200000J0D01*
G01*
X212300000Y-53900000D01*
G75*
G02*
X212100000Y-53700000I0J200000D01*
G01*
X212100000Y-52200000D01*
G75*
G02*
X212300000Y-52000000I200000J0D01*
G01*
X214100000Y-52000000D01*
G75*
G02*
X214300000Y-52200000I0J-200000D01*
G01*
G37*
G36*
G01*
X192900000Y-51200000D02*
X192900000Y-52700000D01*
G75*
G02*
X192700000Y-52900000I-200000J0D01*
G01*
X190900000Y-52900000D01*
G75*
G02*
X190700000Y-52700000I0J200000D01*
G01*
X190700000Y-51200000D01*
G75*
G02*
X190900000Y-51000000I200000J0D01*
G01*
X192700000Y-51000000D01*
G75*
G02*
X192900000Y-51200000I0J-200000D01*
G01*
G37*
G36*
G01*
X196300000Y-51200000D02*
X196300000Y-52700000D01*
G75*
G02*
X196100000Y-52900000I-200000J0D01*
G01*
X194300000Y-52900000D01*
G75*
G02*
X194100000Y-52700000I0J200000D01*
G01*
X194100000Y-51200000D01*
G75*
G02*
X194300000Y-51000000I200000J0D01*
G01*
X196100000Y-51000000D01*
G75*
G02*
X196300000Y-51200000I0J-200000D01*
G01*
G37*
G36*
G01*
X174900000Y-46200000D02*
X174900000Y-47700000D01*
G75*
G02*
X174700000Y-47900000I-200000J0D01*
G01*
X172900000Y-47900000D01*
G75*
G02*
X172700000Y-47700000I0J200000D01*
G01*
X172700000Y-46200000D01*
G75*
G02*
X172900000Y-46000000I200000J0D01*
G01*
X174700000Y-46000000D01*
G75*
G02*
X174900000Y-46200000I0J-200000D01*
G01*
G37*
G36*
G01*
X178300000Y-46200000D02*
X178300000Y-47700000D01*
G75*
G02*
X178100000Y-47900000I-200000J0D01*
G01*
X176300000Y-47900000D01*
G75*
G02*
X176100000Y-47700000I0J200000D01*
G01*
X176100000Y-46200000D01*
G75*
G02*
X176300000Y-46000000I200000J0D01*
G01*
X178100000Y-46000000D01*
G75*
G02*
X178300000Y-46200000I0J-200000D01*
G01*
G37*
G36*
G01*
X156900000Y-44900000D02*
X156900000Y-46400000D01*
G75*
G02*
X156700000Y-46600000I-200000J0D01*
G01*
X154900000Y-46600000D01*
G75*
G02*
X154700000Y-46400000I0J200000D01*
G01*
X154700000Y-44900000D01*
G75*
G02*
X154900000Y-44700000I200000J0D01*
G01*
X156700000Y-44700000D01*
G75*
G02*
X156900000Y-44900000I0J-200000D01*
G01*
G37*
G36*
G01*
X160300000Y-44900000D02*
X160300000Y-46400000D01*
G75*
G02*
X160100000Y-46600000I-200000J0D01*
G01*
X158300000Y-46600000D01*
G75*
G02*
X158100000Y-46400000I0J200000D01*
G01*
X158100000Y-44900000D01*
G75*
G02*
X158300000Y-44700000I200000J0D01*
G01*
X160100000Y-44700000D01*
G75*
G02*
X160300000Y-44900000I0J-200000D01*
G01*
G37*
G36*
G01*
X139100000Y-46950000D02*
X139100000Y-48450000D01*
G75*
G02*
X138900000Y-48650000I-200000J0D01*
G01*
X137100000Y-48650000D01*
G75*
G02*
X136900000Y-48450000I0J200000D01*
G01*
X136900000Y-46950000D01*
G75*
G02*
X137100000Y-46750000I200000J0D01*
G01*
X138900000Y-46750000D01*
G75*
G02*
X139100000Y-46950000I0J-200000D01*
G01*
G37*
G36*
G01*
X142500000Y-46950000D02*
X142500000Y-48450000D01*
G75*
G02*
X142300000Y-48650000I-200000J0D01*
G01*
X140500000Y-48650000D01*
G75*
G02*
X140300000Y-48450000I0J200000D01*
G01*
X140300000Y-46950000D01*
G75*
G02*
X140500000Y-46750000I200000J0D01*
G01*
X142300000Y-46750000D01*
G75*
G02*
X142500000Y-46950000I0J-200000D01*
G01*
G37*
G36*
G01*
X120900000Y-48600000D02*
X120900000Y-50100000D01*
G75*
G02*
X120700000Y-50300000I-200000J0D01*
G01*
X118900000Y-50300000D01*
G75*
G02*
X118700000Y-50100000I0J200000D01*
G01*
X118700000Y-48600000D01*
G75*
G02*
X118900000Y-48400000I200000J0D01*
G01*
X120700000Y-48400000D01*
G75*
G02*
X120900000Y-48600000I0J-200000D01*
G01*
G37*
G36*
G01*
X124300000Y-48600000D02*
X124300000Y-50100000D01*
G75*
G02*
X124100000Y-50300000I-200000J0D01*
G01*
X122300000Y-50300000D01*
G75*
G02*
X122100000Y-50100000I0J200000D01*
G01*
X122100000Y-48600000D01*
G75*
G02*
X122300000Y-48400000I200000J0D01*
G01*
X124100000Y-48400000D01*
G75*
G02*
X124300000Y-48600000I0J-200000D01*
G01*
G37*
D14*
X190500000Y-124650000D03*
X179500000Y-124650000D03*
D15*
X185000000Y-124650000D03*
D16*
X185000000Y-130550000D03*
X180000000Y-128350000D03*
X190000000Y-128350000D03*
D14*
X172500000Y-119700000D03*
X161500000Y-119700000D03*
D15*
X167000000Y-119700000D03*
D16*
X167000000Y-125600000D03*
X162000000Y-123400000D03*
X172000000Y-123400000D03*
D14*
X154500000Y-119700000D03*
X143500000Y-119700000D03*
D15*
X149000000Y-119700000D03*
D16*
X149000000Y-125600000D03*
X144000000Y-123400000D03*
X154000000Y-123400000D03*
D14*
X135479071Y-121920643D03*
X124520929Y-122879357D03*
D15*
X130000000Y-122400000D03*
D16*
X130514219Y-128277549D03*
X125341503Y-126521699D03*
X135303450Y-125650142D03*
D14*
X217000000Y-108700000D03*
X206000000Y-108700000D03*
D15*
X211500000Y-108700000D03*
D16*
X211500000Y-114600000D03*
X206500000Y-112400000D03*
X216500000Y-112400000D03*
D14*
X199000000Y-107700000D03*
X188000000Y-107700000D03*
D15*
X193500000Y-107700000D03*
D16*
X193500000Y-113600000D03*
X188500000Y-111400000D03*
X198500000Y-111400000D03*
D14*
X181000000Y-102700000D03*
X170000000Y-102700000D03*
D15*
X175500000Y-102700000D03*
D16*
X175500000Y-108600000D03*
X170500000Y-106400000D03*
X180500000Y-106400000D03*
D14*
X163000000Y-101400000D03*
X152000000Y-101400000D03*
D15*
X157500000Y-101400000D03*
D16*
X157500000Y-107300000D03*
X152500000Y-105100000D03*
X162500000Y-105100000D03*
D14*
X145000000Y-102700000D03*
X134000000Y-102700000D03*
D15*
X139500000Y-102700000D03*
D16*
X139500000Y-108600000D03*
X134500000Y-106400000D03*
X144500000Y-106400000D03*
D14*
X126000000Y-105100000D03*
X115000000Y-105100000D03*
D15*
X120500000Y-105100000D03*
D16*
X120500000Y-111000000D03*
X115500000Y-108800000D03*
X125500000Y-108800000D03*
D14*
X217000000Y-91700000D03*
X206000000Y-91700000D03*
D15*
X211500000Y-91700000D03*
D16*
X211500000Y-97600000D03*
X206500000Y-95400000D03*
X216500000Y-95400000D03*
D14*
X199000000Y-90700000D03*
X188000000Y-90700000D03*
D15*
X193500000Y-90700000D03*
D16*
X193500000Y-96600000D03*
X188500000Y-94400000D03*
X198500000Y-94400000D03*
D14*
X181000000Y-85700000D03*
X170000000Y-85700000D03*
D15*
X175500000Y-85700000D03*
D16*
X175500000Y-91600000D03*
X170500000Y-89400000D03*
X180500000Y-89400000D03*
D14*
X163000000Y-84400000D03*
X152000000Y-84400000D03*
D15*
X157500000Y-84400000D03*
D16*
X157500000Y-90300000D03*
X152500000Y-88100000D03*
X162500000Y-88100000D03*
D14*
X145000000Y-85700000D03*
X134000000Y-85700000D03*
D15*
X139500000Y-85700000D03*
D16*
X139500000Y-91600000D03*
X134500000Y-89400000D03*
X144500000Y-89400000D03*
D14*
X127000000Y-88100000D03*
X116000000Y-88100000D03*
D15*
X121500000Y-88100000D03*
D16*
X121500000Y-94000000D03*
X116500000Y-91800000D03*
X126500000Y-91800000D03*
D14*
X217000000Y-74700000D03*
X206000000Y-74700000D03*
D15*
X211500000Y-74700000D03*
D16*
X211500000Y-80600000D03*
X206500000Y-78400000D03*
X216500000Y-78400000D03*
D14*
X199000000Y-73700000D03*
X188000000Y-73700000D03*
D15*
X193500000Y-73700000D03*
D16*
X193500000Y-79600000D03*
X188500000Y-77400000D03*
X198500000Y-77400000D03*
D14*
X181000000Y-68700000D03*
X170000000Y-68700000D03*
D15*
X175500000Y-68700000D03*
D16*
X175500000Y-74600000D03*
X170500000Y-72400000D03*
X180500000Y-72400000D03*
D14*
X163000000Y-67400000D03*
X152000000Y-67400000D03*
D15*
X157500000Y-67400000D03*
D16*
X157500000Y-73300000D03*
X152500000Y-71100000D03*
X162500000Y-71100000D03*
D14*
X145000000Y-68700000D03*
X134000000Y-68700000D03*
D15*
X139500000Y-68700000D03*
D16*
X139500000Y-74600000D03*
X134500000Y-72400000D03*
X144500000Y-72400000D03*
D14*
X127000000Y-71100000D03*
X116000000Y-71100000D03*
D15*
X121500000Y-71100000D03*
D16*
X121500000Y-77000000D03*
X116500000Y-74800000D03*
X126500000Y-74800000D03*
D14*
X217000000Y-57700000D03*
X206000000Y-57700000D03*
D15*
X211500000Y-57700000D03*
D16*
X211500000Y-63600000D03*
X206500000Y-61400000D03*
X216500000Y-61400000D03*
D14*
X199000000Y-56700000D03*
X188000000Y-56700000D03*
D15*
X193500000Y-56700000D03*
D16*
X193500000Y-62600000D03*
X188500000Y-60400000D03*
X198500000Y-60400000D03*
D14*
X181000000Y-51700000D03*
X170000000Y-51700000D03*
D15*
X175500000Y-51700000D03*
D16*
X175500000Y-57600000D03*
X170500000Y-55400000D03*
X180500000Y-55400000D03*
D14*
X163000000Y-50400000D03*
X152000000Y-50400000D03*
D15*
X157500000Y-50400000D03*
D16*
X157500000Y-56300000D03*
X152500000Y-54100000D03*
X162500000Y-54100000D03*
D14*
X145000000Y-51700000D03*
X134000000Y-51700000D03*
D15*
X139500000Y-51700000D03*
D16*
X139500000Y-57600000D03*
X134500000Y-55400000D03*
X144500000Y-55400000D03*
D14*
X127000000Y-54100000D03*
X116000000Y-54100000D03*
D15*
X121500000Y-54100000D03*
D16*
X121500000Y-60000000D03*
X116500000Y-57800000D03*
X126500000Y-57800000D03*
G36*
G01*
X91800000Y-93400000D02*
X91800000Y-91400000D01*
G75*
G02*
X92000000Y-91200000I200000J0D01*
G01*
X94000000Y-91200000D01*
G75*
G02*
X94200000Y-91400000I0J-200000D01*
G01*
X94200000Y-93400000D01*
G75*
G02*
X94000000Y-93600000I-200000J0D01*
G01*
X92000000Y-93600000D01*
G75*
G02*
X91800000Y-93400000I0J200000D01*
G01*
G37*
X93000000Y-94900000D03*
X93000000Y-97400000D03*
G36*
G01*
X98700000Y-90300000D02*
X98700000Y-88300000D01*
G75*
G02*
X98900000Y-88100000I200000J0D01*
G01*
X102100000Y-88100000D01*
G75*
G02*
X102300000Y-88300000I0J-200000D01*
G01*
X102300000Y-90300000D01*
G75*
G02*
X102100000Y-90500000I-200000J0D01*
G01*
X98900000Y-90500000D01*
G75*
G02*
X98700000Y-90300000I0J200000D01*
G01*
G37*
G36*
G01*
X98700000Y-101500000D02*
X98700000Y-99500000D01*
G75*
G02*
X98900000Y-99300000I200000J0D01*
G01*
X102100000Y-99300000D01*
G75*
G02*
X102300000Y-99500000I0J-200000D01*
G01*
X102300000Y-101500000D01*
G75*
G02*
X102100000Y-101700000I-200000J0D01*
G01*
X98900000Y-101700000D01*
G75*
G02*
X98700000Y-101500000I0J200000D01*
G01*
G37*
X107500000Y-92400000D03*
X107500000Y-97400000D03*
M02*
