M48
; DRILL file {KiCad (5.1.8-0-10_14)} date Saturday, November 28, 2020 at 05:57:47 PM
; FORMAT={-:-/ absolute / inch / decimal}
; #@! TF.CreationDate,2020-11-28T17:57:47-07:00
; #@! TF.GenerationSoftware,Kicad,Pcbnew,(5.1.8-0-10_14)
; #@! TF.FileFunction,Plated,1,2,PTH
FMAT,2
INCH
T1C0.0118
T2C0.0157
T3C0.0394
T4C0.0591
%
G90
G05
T1
X3.5236Y-3.6791
X3.6811Y-4.5945
X3.685Y-3.3189
X3.6969Y-3.4134
X3.7402Y-3.315
X3.7795Y-3.3051
X3.8189Y-3.2953
X3.8583Y-3.1673
X3.8976Y-3.2854
X3.9331Y-3.4331
X3.937Y-3.2756
X3.937Y-3.4626
X3.9665Y-3.4626
X3.9917Y-3.4114
X4.0154Y-3.3957
X4.0236Y-3.6614
X4.0394Y-3.3799
X4.063Y-3.2756
X4.0638Y-3.3654
X4.2323Y-3.2835
X4.2766Y-3.6535
X4.2953Y-4.1378
X4.4173Y-4.9843
X4.4305Y-3.2326
X4.5119Y-3.4796
X4.5226Y-3.3778
X4.5298Y-5.1129
X4.5748Y-4.7165
X4.6299Y-4.7638
X4.6732Y-2.6181
X4.8434Y-4.426
X4.8907Y-2.2608
X5.0Y-3.3268
X5.2354Y-2.4448
X5.4832Y-2.5136
X5.549Y-4.7874
X5.7087Y-3.1614
X5.752Y-3.0079
X5.7841Y-3.7767
X6.2199Y-4.7874
X6.3329Y-3.6983
X6.4897Y-2.2097
X6.4928Y-2.7394
X6.4928Y-4.0746
X6.496Y-4.7979
X6.5681Y-3.0715
X6.6465Y-2.2881
X6.9606Y-4.7047
X7.1417Y-4.4646
X7.1953Y-3.8489
X7.2649Y-3.9333
X7.2737Y-3.1499
X7.2737Y-4.9729
X7.2809Y-4.5529
X7.6762Y-2.5356
X7.9724Y-3.3849
X7.9793Y-4.4928
T2
X8.2677Y-4.122
X8.4016Y-4.122
X7.5512Y-2.7244
X7.685Y-2.7244
X4.2841Y-4.4765
X4.3976Y-4.4055
X8.2677Y-2.7835
X8.4016Y-2.7835
X4.685Y-3.9646
X4.8189Y-3.9646
X4.0849Y-4.5906
X4.2008Y-4.5236
X4.7283Y-3.2953
X4.8622Y-3.2953
X6.8346Y-1.878
X6.9685Y-1.878
X5.4252Y-3.8858
X5.5591Y-3.8858
X5.0512Y-4.6535
X5.185Y-4.6535
X5.4331Y-3.2165
X5.5669Y-3.2165
X7.5591Y-2.0748
X7.6929Y-2.0748
X7.2244Y-4.7126
X7.3583Y-4.7126
X5.8071Y-4.5551
X5.9409Y-4.5551
X6.1417Y-3.1575
X6.2756Y-3.1575
X4.7283Y-3.1772
X4.8622Y-3.1772
X4.7244Y-2.5079
X4.8583Y-2.5079
X6.5157Y-4.5551
X6.6496Y-4.5551
X6.1417Y-3.8268
X6.2756Y-3.8268
X6.8504Y-3.1969
X6.9843Y-3.1969
X5.4252Y-2.5472
X5.5591Y-2.5472
X6.8504Y-3.8858
X6.9843Y-3.8858
X7.5512Y-3.3937
X7.685Y-3.3937
X6.1339Y-2.4882
X6.2677Y-2.4882
X8.252Y-2.1142
X8.3858Y-2.1142
X5.4331Y-1.878
X5.5669Y-1.878
X7.5591Y-4.063
X7.6929Y-4.063
X8.2677Y-3.4331
X8.4016Y-3.4331
X6.8504Y-2.5472
X6.9843Y-2.5472
X6.1417Y-1.8189
X6.2756Y-1.8189
T3
X3.6417Y-4.0157
X3.6417Y-4.1142
X3.6417Y-4.2126
X4.2126Y-4.0157
X4.2126Y-4.2126
T4
G00X3.9114Y-3.8937
M15
G01X3.9626Y-3.8937
M16
G05
G00X3.9114Y-4.3346
M15
G01X3.9626Y-4.3346
M16
G05
T0
M30
