G04 #@! TF.GenerationSoftware,KiCad,Pcbnew,(5.1.8-0-10_14)*
G04 #@! TF.CreationDate,2020-11-28T17:57:45-07:00*
G04 #@! TF.ProjectId,SofleKeyboard,536f666c-654b-4657-9962-6f6172642e6b,rev?*
G04 #@! TF.SameCoordinates,Original*
G04 #@! TF.FileFunction,Profile,NP*
%FSLAX46Y46*%
G04 Gerber Fmt 4.6, Leading zero omitted, Abs format (unit mm)*
G04 Created by KiCad (PCBNEW (5.1.8-0-10_14)) date 2020-11-28 17:57:45*
%MOMM*%
%LPD*%
G01*
G04 APERTURE LIST*
G04 #@! TA.AperFunction,Profile*
%ADD10C,0.100000*%
G04 #@! TD*
G04 APERTURE END LIST*
D10*
X111000000Y-79950000D02*
X89500000Y-79950000D01*
X111000000Y-52200000D02*
X111000000Y-79950000D01*
X89500000Y-52200000D02*
X111000000Y-52200000D01*
X89500000Y-79950000D02*
X89500000Y-52200000D01*
X88273857Y-38477435D02*
X88297257Y-38245261D01*
X88297257Y-38245261D02*
X88364377Y-38029014D01*
X88364377Y-38029014D02*
X88470590Y-37833327D01*
X88470590Y-37833327D02*
X88611259Y-37662831D01*
X88781752Y-37522160D02*
X88977436Y-37415945D01*
X88977436Y-37415945D02*
X89193680Y-37348815D01*
X89193680Y-37348815D02*
X89425853Y-37325405D01*
X88611259Y-37662831D02*
X88781752Y-37522160D01*
X225026621Y-43695600D02*
X225168321Y-43835582D01*
X89425853Y-37325405D02*
X184510807Y-37325485D01*
X224410591Y-121622104D02*
X224410611Y-121622114D01*
X204884161Y-123563451D02*
X204805861Y-123676381D01*
X204805861Y-123676381D02*
X196320531Y-137612760D01*
X88284057Y-115503472D02*
X88275257Y-115182495D01*
X196320531Y-137612760D02*
X196234731Y-137735100D01*
X88310437Y-115822758D02*
X88284057Y-115503472D01*
X196234731Y-137735100D02*
X196135131Y-137844000D01*
X205697381Y-123127080D02*
X205561281Y-123146290D01*
X186716531Y-37429255D02*
X187885731Y-37541870D01*
X225470181Y-120473355D02*
X225449281Y-120693166D01*
X196135131Y-137844000D02*
X196023331Y-137938600D01*
X196023331Y-137938600D02*
X195900911Y-138018000D01*
X88493317Y-116763407D02*
X88415227Y-116453429D01*
X195900911Y-138018000D02*
X195769441Y-138081300D01*
X204974361Y-123461690D02*
X204884161Y-123563451D01*
X187885731Y-37541870D02*
X188910421Y-37679776D01*
X105086149Y-146426280D02*
X104918207Y-146312320D01*
X195769441Y-138081300D02*
X195630511Y-138127600D01*
X138611230Y-133478101D02*
X138154128Y-133648551D01*
X138154128Y-133648551D02*
X106075202Y-146489480D01*
X106075202Y-146489480D02*
X105872976Y-146549780D01*
X195630511Y-138127600D02*
X195485701Y-138156000D01*
X88275257Y-115182495D02*
X88273857Y-38477435D01*
X225168321Y-43835582D02*
X225283881Y-43997807D01*
X224861871Y-43581466D02*
X225026621Y-43695600D01*
X205304181Y-123230790D02*
X205185581Y-123294590D01*
X105872976Y-146549780D02*
X105668308Y-146571980D01*
X185544381Y-37353325D02*
X186716531Y-37429255D01*
X105668308Y-146571980D02*
X105465848Y-146557680D01*
X105465848Y-146557680D02*
X105270246Y-146508580D01*
X105270246Y-146508580D02*
X105086149Y-146426280D01*
X224410471Y-121621540D02*
X205697381Y-123127080D01*
X139075140Y-133329881D02*
X138611230Y-133478101D01*
X91174935Y-122653408D02*
X91129785Y-122566908D01*
X224628001Y-121583504D02*
X224410591Y-121622104D01*
X225292881Y-121088035D02*
X225164971Y-121254855D01*
X157174698Y-132915912D02*
X141956108Y-132915912D01*
X205429811Y-123181090D02*
X205304181Y-123230790D01*
X141956108Y-132915912D02*
X141468402Y-132927502D01*
X225370281Y-44178672D02*
X225424381Y-44374571D01*
X188910421Y-37679776D02*
X224475441Y-43445146D01*
X140982629Y-132962302D02*
X140499606Y-133020102D01*
X104649386Y-145995930D02*
X91174935Y-122653408D01*
X225424381Y-44374571D02*
X225443181Y-44581902D01*
X224677111Y-43496776D02*
X224861871Y-43581466D01*
X141468402Y-132927502D02*
X140982629Y-132962302D01*
X225164971Y-121254855D02*
X225008991Y-121395785D01*
X140499606Y-133020102D02*
X140020141Y-133100702D01*
X139545048Y-133204021D02*
X139075140Y-133329881D01*
X225449281Y-120693166D02*
X225388881Y-120899435D01*
X157649178Y-132923912D02*
X157174698Y-132915912D01*
X160921209Y-133426480D02*
X160461889Y-133307240D01*
X225388881Y-120899435D02*
X225292881Y-121088035D01*
X88700100Y-117369113D02*
X88588327Y-117068869D01*
X224475441Y-43445146D02*
X224677111Y-43496776D01*
X225283881Y-43997807D02*
X225370281Y-44178672D01*
X160461889Y-133307240D02*
X159999191Y-133203712D01*
X159999191Y-133203712D02*
X159533519Y-133116012D01*
X224828731Y-121506704D02*
X224628001Y-121583504D01*
X159533519Y-133116012D02*
X159065278Y-133044112D01*
X88588327Y-117068869D02*
X88493317Y-116763407D01*
X88354217Y-116139644D02*
X88310437Y-115822758D01*
X184510807Y-37325485D02*
X185544381Y-37353325D01*
X159065278Y-133044112D02*
X158594870Y-132988112D01*
X225443181Y-44581902D02*
X225470181Y-120473355D01*
X158594870Y-132988112D02*
X158122703Y-132948012D01*
X140020141Y-133100702D02*
X139545048Y-133204021D01*
X225008991Y-121395785D02*
X224828731Y-121506704D01*
X205075241Y-123371790D02*
X204974361Y-123461690D01*
X158122703Y-132948012D02*
X157649178Y-132923912D01*
X104918207Y-146312320D02*
X104771070Y-146168330D01*
X104771070Y-146168330D02*
X104649386Y-145995930D01*
X205561281Y-123146290D02*
X205429811Y-123181090D01*
X176412351Y-137729700D02*
X160921209Y-133426480D01*
X88415227Y-116453429D02*
X88354217Y-116139644D01*
X195485701Y-138156000D02*
X195336581Y-138166000D01*
X195336581Y-138166000D02*
X179612870Y-138166000D01*
X88828479Y-117663430D02*
X88700100Y-117369113D01*
X179612870Y-138166000D02*
X178803020Y-138138500D01*
X178803020Y-138138500D02*
X177997811Y-138056400D01*
X177997811Y-138056400D02*
X177200000Y-137920000D01*
X205185581Y-123294590D02*
X205075241Y-123371790D01*
X91129785Y-122566908D02*
X88828479Y-117663430D01*
X177200000Y-137920000D02*
X176412351Y-137729700D01*
X49676679Y38227998D02*
X49676679Y38227998D01*
M02*
