M48
; DRILL file {KiCad (5.1.8-0-10_14)} date Saturday, November 28, 2020 at 05:57:47 PM
; FORMAT={-:-/ absolute / inch / decimal}
; #@! TF.CreationDate,2020-11-28T17:57:47-07:00
; #@! TF.GenerationSoftware,Kicad,Pcbnew,(5.1.8-0-10_14)
; #@! TF.FileFunction,NonPlated,1,2,NPTH
FMAT,2
INCH
T1C0.0433
T2C0.0630
T3C0.0748
T4C0.1024
T5C0.1181
T6C0.1575
%
G90
G05
T1
X3.5728Y-3.3051
X4.3602Y-3.3051
T2
X3.5728Y-3.3051
X4.3602Y-3.3051
T3
X5.9843Y-3.3228
X6.4173Y-3.3228
X4.9483Y-4.8738
X5.3666Y-4.7617
X5.2756Y-3.374
X5.7087Y-3.374
X4.3406Y-4.6656
X4.5571Y-5.0407
X6.6929Y-2.0354
X7.126Y-2.0354
X4.5669Y-2.7992
X5.0Y-2.7992
X8.1102Y-4.2795
X8.5433Y-4.2795
X5.2756Y-4.0433
X5.7087Y-4.0433
X5.2756Y-2.0354
X5.7087Y-2.0354
X7.4016Y-4.2402
X7.8346Y-4.2402
X5.9843Y-1.9843
X6.4173Y-1.9843
X6.6929Y-2.7047
X7.126Y-2.7047
X6.6929Y-4.0433
X7.126Y-4.0433
X7.4016Y-2.2323
X7.8346Y-2.2323
X5.2756Y-2.7047
X5.7087Y-2.7047
X7.4016Y-2.9016
X7.8346Y-2.9016
X7.0669Y-4.876
X7.5Y-4.876
X5.9843Y-3.9921
X6.4173Y-3.9921
X4.5276Y-4.1378
X4.9606Y-4.1378
X8.1102Y-3.6102
X8.5433Y-3.6102
X8.1102Y-2.2717
X8.5433Y-2.2717
X8.1102Y-2.9409
X8.5433Y-2.9409
X4.5669Y-2.1299
X5.0Y-2.1299
X4.5669Y-3.4685
X5.0Y-3.4685
X6.6929Y-3.374
X7.126Y-3.374
X6.3583Y-4.7126
X6.7913Y-4.7126
X7.4016Y-3.5709
X7.8346Y-3.5709
X5.9843Y-2.6535
X6.4173Y-2.6535
X5.6496Y-4.7126
X6.0827Y-4.7126
T4
X3.563Y-1.9311
X4.3701Y-1.9311
T5
X7.4213Y-2.378
X7.6181Y-2.4646
X7.815Y-2.378
X5.2953Y-2.8504
X5.4921Y-2.937
X5.689Y-2.8504
X7.4213Y-3.0472
X7.6181Y-3.1339
X7.815Y-3.0472
X7.0866Y-5.0217
X7.2835Y-5.1083
X7.4803Y-5.0217
X6.0039Y-4.1378
X6.2008Y-4.2244
X6.3976Y-4.1378
X4.5472Y-4.2835
X4.7441Y-4.3701
X4.9409Y-4.2835
X8.1299Y-3.7559
X8.3268Y-3.8425
X8.5236Y-3.7559
X8.1299Y-2.4173
X8.3268Y-2.5039
X8.5236Y-2.4173
X8.1299Y-3.0866
X8.3268Y-3.1732
X8.5236Y-3.0866
X4.5866Y-2.2756
X4.7835Y-2.3622
X4.9803Y-2.2756
X4.5866Y-3.6142
X4.7835Y-3.7008
X4.9803Y-3.6142
X6.7126Y-3.5197
X6.9094Y-3.6063
X7.1063Y-3.5197
X6.378Y-4.8583
X6.5748Y-4.9449
X6.7717Y-4.8583
X7.4213Y-3.7165
X7.6181Y-3.8031
X7.815Y-3.7165
X6.0039Y-2.7992
X6.2008Y-2.8858
X6.3976Y-2.7992
X5.6693Y-4.8583
X5.8661Y-4.9449
X6.063Y-4.8583
X6.0039Y-3.4685
X6.2008Y-3.5551
X6.3976Y-3.4685
X5.005Y-5.0094
X5.2176Y-5.0421
X5.3853Y-4.9075
X5.2953Y-3.5197
X5.4921Y-3.6063
X5.689Y-3.5197
X4.2242Y-4.7555
X4.2477Y-4.9693
X4.4211Y-5.0965
X6.7126Y-2.1811
X6.9094Y-2.2677
X7.1063Y-2.1811
X4.5866Y-2.9449
X4.7835Y-3.0315
X4.9803Y-2.9449
X8.1299Y-4.4252
X8.3268Y-4.5118
X8.5236Y-4.4252
X5.2953Y-4.189
X5.4921Y-4.2756
X5.689Y-4.189
X5.2953Y-2.1811
X5.4921Y-2.2677
X5.689Y-2.1811
X7.4213Y-4.3858
X7.6181Y-4.4724
X7.815Y-4.3858
X6.0039Y-2.1299
X6.2008Y-2.2165
X6.3976Y-2.1299
X6.7126Y-2.8504
X6.9094Y-2.937
X7.1063Y-2.8504
X6.7126Y-4.189
X6.9094Y-4.2756
X7.1063Y-4.189
T6
X7.2835Y-4.876
X6.2008Y-3.9921
X7.9626Y-2.5669
X4.7441Y-4.1378
X8.3268Y-3.6102
X8.3268Y-2.2717
X8.3268Y-2.9409
X4.7835Y-2.1299
X3.9567Y-4.6339
X7.9528Y-3.9055
X4.7835Y-3.4685
X6.9094Y-3.374
X6.5748Y-4.7126
X7.6181Y-3.5709
X6.2008Y-2.6535
X5.8661Y-4.7126
X5.0984Y-2.4587
X6.2008Y-3.3228
X5.1575Y-4.8177
X5.4921Y-3.374
X4.4488Y-4.8531
X6.9094Y-2.0354
X4.7835Y-2.7992
X8.3268Y-4.2795
X5.0984Y-3.8071
X5.4921Y-4.0433
X5.4921Y-2.0354
X7.6181Y-4.2402
X6.2008Y-1.9843
X6.9094Y-2.7047
X6.9094Y-4.0433
X7.6181Y-2.2323
X5.4921Y-2.7047
X7.6181Y-2.9016
T0
M30
