G04 #@! TF.GenerationSoftware,KiCad,Pcbnew,(5.1.8-0-10_14)*
G04 #@! TF.CreationDate,2020-11-28T17:57:45-07:00*
G04 #@! TF.ProjectId,SofleKeyboard,536f666c-654b-4657-9962-6f6172642e6b,rev?*
G04 #@! TF.SameCoordinates,Original*
G04 #@! TF.FileFunction,Legend,Top*
G04 #@! TF.FilePolarity,Positive*
%FSLAX46Y46*%
G04 Gerber Fmt 4.6, Leading zero omitted, Abs format (unit mm)*
G04 Created by KiCad (PCBNEW (5.1.8-0-10_14)) date 2020-11-28 17:57:45*
%MOMM*%
%LPD*%
G01*
G04 APERTURE LIST*
%ADD10C,0.200000*%
%ADD11C,0.240000*%
%ADD12C,0.127000*%
%ADD13C,0.150000*%
%ADD14C,0.120000*%
%ADD15C,0.015000*%
G04 APERTURE END LIST*
D10*
X192174805Y-39757460D02*
X192536957Y-39814820D01*
X192602029Y-40408499D02*
X192084669Y-40326557D01*
X192256747Y-39240100D01*
X192774107Y-39322042D01*
X193222862Y-40506829D02*
X193127584Y-40438705D01*
X193092236Y-40327038D01*
X193239732Y-39395789D01*
X193791958Y-40596965D02*
X193696681Y-40528841D01*
X193661333Y-40417175D01*
X193808828Y-39485926D01*
X194361055Y-40687101D02*
X194265777Y-40618977D01*
X194222235Y-40559047D01*
X194186888Y-40447380D01*
X194236053Y-40136964D01*
X194304177Y-40041686D01*
X194364107Y-39998144D01*
X194475774Y-39962797D01*
X194630982Y-39987379D01*
X194726260Y-40055503D01*
X194769802Y-40115434D01*
X194805149Y-40227100D01*
X194755984Y-40537516D01*
X194687860Y-40632794D01*
X194627930Y-40676336D01*
X194516263Y-40711684D01*
X194361055Y-40687101D01*
X195200078Y-40077515D02*
X195292304Y-40834597D01*
X195581190Y-40350013D01*
X195706193Y-40900150D01*
X196027855Y-40208622D01*
X197111260Y-41069657D02*
X197258274Y-41145976D01*
X197516955Y-41186947D01*
X197628621Y-41151599D01*
X197688551Y-41108057D01*
X197756675Y-41012779D01*
X197773064Y-40909307D01*
X197737716Y-40797641D01*
X197694174Y-40737711D01*
X197598896Y-40669586D01*
X197400146Y-40585073D01*
X197304868Y-40516949D01*
X197261327Y-40457019D01*
X197225979Y-40345352D01*
X197242367Y-40241880D01*
X197310492Y-40146602D01*
X197370422Y-40103060D01*
X197482088Y-40067713D01*
X197740768Y-40108684D01*
X197887782Y-40185002D01*
X198344731Y-41318054D02*
X198249453Y-41249929D01*
X198205912Y-41189999D01*
X198170564Y-41078333D01*
X198219729Y-40767916D01*
X198287853Y-40672638D01*
X198347784Y-40629097D01*
X198459450Y-40593749D01*
X198614658Y-40618331D01*
X198709936Y-40686456D01*
X198753478Y-40746386D01*
X198788826Y-40858052D01*
X198739661Y-41168469D01*
X198671536Y-41263747D01*
X198611606Y-41307289D01*
X198499940Y-41342636D01*
X198344731Y-41318054D01*
X199132019Y-40700273D02*
X199545907Y-40765827D01*
X199172508Y-41449161D02*
X199320004Y-40517912D01*
X199388128Y-40422634D01*
X199499794Y-40387286D01*
X199603266Y-40403674D01*
X199948549Y-41572073D02*
X199853271Y-41503949D01*
X199817924Y-41392283D01*
X199965419Y-40461034D01*
X200784520Y-41651444D02*
X200672854Y-41686792D01*
X200465910Y-41654015D01*
X200370632Y-41585891D01*
X200335284Y-41474225D01*
X200400838Y-41060336D01*
X200468962Y-40965058D01*
X200580628Y-40929710D01*
X200787573Y-40962487D01*
X200882850Y-41030612D01*
X200918198Y-41142278D01*
X200901810Y-41245750D01*
X200368061Y-41267280D01*
X202121463Y-41916229D02*
X202293541Y-40829772D01*
X202742296Y-42014559D02*
X202375002Y-41319979D01*
X202914374Y-40928102D02*
X202195211Y-41450605D01*
X203630003Y-42102125D02*
X203518337Y-42137472D01*
X203311393Y-42104696D01*
X203216115Y-42036571D01*
X203180767Y-41924905D01*
X203246321Y-41511016D01*
X203314445Y-41415738D01*
X203426111Y-41380391D01*
X203633056Y-41413167D01*
X203728334Y-41481292D01*
X203763681Y-41592958D01*
X203747293Y-41696430D01*
X203213544Y-41717961D01*
X204150416Y-41495109D02*
X204294378Y-42260385D01*
X204667777Y-41577051D02*
X204294378Y-42260385D01*
X204149935Y-42502677D01*
X204090005Y-42546219D01*
X203978338Y-42581567D01*
X204966947Y-42366909D02*
X205139024Y-41280452D01*
X205073471Y-41694341D02*
X205185137Y-41658993D01*
X205392082Y-41691770D01*
X205487359Y-41759894D01*
X205530901Y-41819824D01*
X205566249Y-41931491D01*
X205517084Y-42241907D01*
X205448959Y-42337185D01*
X205389029Y-42380727D01*
X205277363Y-42416075D01*
X205070419Y-42383298D01*
X204975141Y-42315173D01*
X206105140Y-42547182D02*
X206009862Y-42479057D01*
X205966320Y-42419127D01*
X205930972Y-42307461D01*
X205980137Y-41997044D01*
X206048262Y-41901766D01*
X206108192Y-41858224D01*
X206219858Y-41822877D01*
X206375067Y-41847459D01*
X206470344Y-41915584D01*
X206513886Y-41975514D01*
X206549234Y-42087180D01*
X206500069Y-42397597D01*
X206431945Y-42492875D01*
X206372014Y-42536416D01*
X206260348Y-42571764D01*
X206105140Y-42547182D01*
X207398541Y-42752036D02*
X207488677Y-42182940D01*
X207453330Y-42071273D01*
X207358052Y-42003149D01*
X207151107Y-41970372D01*
X207039441Y-42005720D01*
X207406735Y-42700300D02*
X207295069Y-42735648D01*
X207036389Y-42694677D01*
X206941111Y-42626552D01*
X206905763Y-42514886D01*
X206922152Y-42411414D01*
X206990276Y-42316136D01*
X207101942Y-42280788D01*
X207360623Y-42321759D01*
X207472289Y-42286412D01*
X207915902Y-42833978D02*
X208030620Y-42109673D01*
X207997844Y-42316618D02*
X208065968Y-42221340D01*
X208125898Y-42177798D01*
X208237565Y-42142450D01*
X208341037Y-42158838D01*
X209054095Y-43014250D02*
X209226173Y-41927793D01*
X209062289Y-42962514D02*
X208950623Y-42997862D01*
X208743679Y-42965085D01*
X208648401Y-42896961D01*
X208604859Y-42837030D01*
X208569511Y-42725364D01*
X208618676Y-42414948D01*
X208686801Y-42319670D01*
X208746731Y-42276128D01*
X208858397Y-42240780D01*
X209065341Y-42273557D01*
X209160619Y-42341681D01*
X210410479Y-42486606D02*
X210554441Y-43251882D01*
X210927839Y-42568548D01*
X211796106Y-43448542D02*
X211175273Y-43350212D01*
X211485690Y-43399377D02*
X211657768Y-42312920D01*
X211529713Y-42451740D01*
X211409852Y-42538823D01*
X211298186Y-42574171D01*
X213089507Y-43653397D02*
X213261585Y-42566940D01*
X213196032Y-42980828D02*
X213307698Y-42945480D01*
X213514642Y-42978257D01*
X213609920Y-43046381D01*
X213653462Y-43106312D01*
X213688810Y-43217978D01*
X213639645Y-43528394D01*
X213571520Y-43623672D01*
X213511590Y-43667214D01*
X213399924Y-43702562D01*
X213192979Y-43669785D01*
X213097702Y-43601661D01*
X214083739Y-43068393D02*
X214227701Y-43833669D01*
X214601099Y-43150335D02*
X214227701Y-43833669D01*
X214083258Y-44075961D01*
X214023327Y-44119503D01*
X213911661Y-44154850D01*
X215818182Y-43502204D02*
X216180335Y-43559563D01*
X216245407Y-44153242D02*
X215728046Y-44071300D01*
X215900124Y-42984843D01*
X216417485Y-43066785D01*
X217331864Y-44325320D02*
X217051653Y-43750600D01*
X216711031Y-44226990D02*
X216883109Y-43140533D01*
X217296998Y-43206086D01*
X217392276Y-43274210D01*
X217435817Y-43334141D01*
X217471165Y-43445807D01*
X217446583Y-43601015D01*
X217378458Y-43696293D01*
X217318528Y-43739835D01*
X217206862Y-43775183D01*
X216792973Y-43709629D01*
X218314849Y-44481010D02*
X217797488Y-44399068D01*
X217969566Y-43312610D01*
D11*
X110120000Y-90450000D02*
G75*
G03*
X110120000Y-90450000I-120000J0D01*
G01*
D12*
X104100000Y-89200000D02*
X102400000Y-89200000D01*
X89800000Y-81450000D02*
X89800000Y-86850000D01*
X91400000Y-81450000D02*
X89800000Y-81450000D01*
X104400000Y-81450000D02*
X102600000Y-81450000D01*
X111700000Y-81450000D02*
X110100000Y-81450000D01*
X111700000Y-86850000D02*
X111700000Y-81450000D01*
D13*
X182725000Y-132075000D02*
X187275000Y-132075000D01*
X182725000Y-127425000D02*
X185275000Y-127425000D01*
X187575000Y-125225000D02*
X192275000Y-125225000D01*
X188500000Y-129875000D02*
X192275000Y-129875000D01*
X182700001Y-127450000D02*
X182700001Y-132050000D01*
X192275000Y-125250000D02*
X192300000Y-129849999D01*
X187280000Y-131350000D02*
X187280000Y-132050000D01*
X187279999Y-131299999D02*
G75*
G02*
X188500000Y-129880000I1320000J99999D01*
G01*
X187570000Y-125250000D02*
G75*
G02*
X185200000Y-127420000I-2270000J100000D01*
G01*
X164725000Y-127925000D02*
X169275000Y-127925000D01*
X164725000Y-123275000D02*
X167275000Y-123275000D01*
X169575000Y-121075000D02*
X174275000Y-121075000D01*
X170500000Y-125725000D02*
X174275000Y-125725000D01*
X164700001Y-123300000D02*
X164700001Y-127900000D01*
X174275000Y-121100000D02*
X174300000Y-125699999D01*
X169280000Y-127200000D02*
X169280000Y-127900000D01*
X169279999Y-127149999D02*
G75*
G02*
X170500000Y-125730000I1320000J99999D01*
G01*
X169570000Y-121100000D02*
G75*
G02*
X167200000Y-123270000I-2270000J100000D01*
G01*
X146725000Y-127925000D02*
X151275000Y-127925000D01*
X146725000Y-123275000D02*
X149275000Y-123275000D01*
X151575000Y-121075000D02*
X156275000Y-121075000D01*
X152500000Y-125725000D02*
X156275000Y-125725000D01*
X146700001Y-123300000D02*
X146700001Y-127900000D01*
X156275000Y-121100000D02*
X156300000Y-125699999D01*
X151280000Y-127200000D02*
X151280000Y-127900000D01*
X151279999Y-127149999D02*
G75*
G02*
X152500000Y-125730000I1320000J99999D01*
G01*
X151570000Y-121100000D02*
G75*
G02*
X149200000Y-123270000I-2270000J100000D01*
G01*
X130931305Y-130903553D02*
X135326268Y-129725927D01*
X129727797Y-126411998D02*
X132190908Y-125752010D01*
X133843135Y-123031689D02*
X138382987Y-121815239D01*
X135940125Y-127283836D02*
X139586495Y-126306795D01*
X129710120Y-126442617D02*
X130900688Y-130885875D01*
X138389457Y-121839388D02*
X139604173Y-126276175D01*
X135143454Y-129024336D02*
X135324627Y-129700484D01*
X135130511Y-128976040D02*
G75*
G02*
X135941419Y-127288666I1249141J438233D01*
G01*
X133844776Y-123057132D02*
G75*
G02*
X132117169Y-125766591I-2218533J-490926D01*
G01*
X104739441Y-125412292D02*
X107014441Y-129352708D01*
X108766459Y-123087292D02*
X110041459Y-125295657D01*
X113096715Y-126187515D02*
X115446715Y-130257835D01*
X109532197Y-129313589D02*
X111419697Y-132582835D01*
X108732309Y-123078142D02*
X104748592Y-125378142D01*
X115425064Y-130270335D02*
X111453848Y-132591985D01*
X107644809Y-128994538D02*
X107038592Y-129344538D01*
X107688111Y-128969537D02*
G75*
G02*
X109527867Y-129316089I746602J-1093154D01*
G01*
X113072564Y-126195686D02*
G75*
G02*
X110008289Y-125228205I-1048397J2015878D01*
G01*
X209225000Y-116925000D02*
X213775000Y-116925000D01*
X209225000Y-112275000D02*
X211775000Y-112275000D01*
X214075000Y-110075000D02*
X218775000Y-110075000D01*
X215000000Y-114725000D02*
X218775000Y-114725000D01*
X209200001Y-112300000D02*
X209200001Y-116900000D01*
X218775000Y-110100000D02*
X218800000Y-114699999D01*
X213780000Y-116200000D02*
X213780000Y-116900000D01*
X213779999Y-116149999D02*
G75*
G02*
X215000000Y-114730000I1320000J99999D01*
G01*
X214070000Y-110100000D02*
G75*
G02*
X211700000Y-112270000I-2270000J100000D01*
G01*
X191225000Y-115925000D02*
X195775000Y-115925000D01*
X191225000Y-111275000D02*
X193775000Y-111275000D01*
X196075000Y-109075000D02*
X200775000Y-109075000D01*
X197000000Y-113725000D02*
X200775000Y-113725000D01*
X191200001Y-111300000D02*
X191200001Y-115900000D01*
X200775000Y-109100000D02*
X200800000Y-113699999D01*
X195780000Y-115200000D02*
X195780000Y-115900000D01*
X195779999Y-115149999D02*
G75*
G02*
X197000000Y-113730000I1320000J99999D01*
G01*
X196070000Y-109100000D02*
G75*
G02*
X193700000Y-111270000I-2270000J100000D01*
G01*
X173225000Y-110925000D02*
X177775000Y-110925000D01*
X173225000Y-106275000D02*
X175775000Y-106275000D01*
X178075000Y-104075000D02*
X182775000Y-104075000D01*
X179000000Y-108725000D02*
X182775000Y-108725000D01*
X173200001Y-106300000D02*
X173200001Y-110900000D01*
X182775000Y-104100000D02*
X182800000Y-108699999D01*
X177780000Y-110200000D02*
X177780000Y-110900000D01*
X177779999Y-110149999D02*
G75*
G02*
X179000000Y-108730000I1320000J99999D01*
G01*
X178070000Y-104100000D02*
G75*
G02*
X175700000Y-106270000I-2270000J100000D01*
G01*
X155225000Y-109625000D02*
X159775000Y-109625000D01*
X155225000Y-104975000D02*
X157775000Y-104975000D01*
X160075000Y-102775000D02*
X164775000Y-102775000D01*
X161000000Y-107425000D02*
X164775000Y-107425000D01*
X155200001Y-105000000D02*
X155200001Y-109600000D01*
X164775000Y-102800000D02*
X164800000Y-107399999D01*
X159780000Y-108900000D02*
X159780000Y-109600000D01*
X159779999Y-108849999D02*
G75*
G02*
X161000000Y-107430000I1320000J99999D01*
G01*
X160070000Y-102800000D02*
G75*
G02*
X157700000Y-104970000I-2270000J100000D01*
G01*
X137225000Y-110925000D02*
X141775000Y-110925000D01*
X137225000Y-106275000D02*
X139775000Y-106275000D01*
X142075000Y-104075000D02*
X146775000Y-104075000D01*
X143000000Y-108725000D02*
X146775000Y-108725000D01*
X137200001Y-106300000D02*
X137200001Y-110900000D01*
X146775000Y-104100000D02*
X146800000Y-108699999D01*
X141780000Y-110200000D02*
X141780000Y-110900000D01*
X141779999Y-110149999D02*
G75*
G02*
X143000000Y-108730000I1320000J99999D01*
G01*
X142070000Y-104100000D02*
G75*
G02*
X139700000Y-106270000I-2270000J100000D01*
G01*
X118225000Y-113325000D02*
X122775000Y-113325000D01*
X118225000Y-108675000D02*
X120775000Y-108675000D01*
X123075000Y-106475000D02*
X127775000Y-106475000D01*
X124000000Y-111125000D02*
X127775000Y-111125000D01*
X118200001Y-108700000D02*
X118200001Y-113300000D01*
X127775000Y-106500000D02*
X127800000Y-111099999D01*
X122780000Y-112600000D02*
X122780000Y-113300000D01*
X122779999Y-112549999D02*
G75*
G02*
X124000000Y-111130000I1320000J99999D01*
G01*
X123070000Y-106500000D02*
G75*
G02*
X120700000Y-108670000I-2270000J100000D01*
G01*
X209225000Y-99925000D02*
X213775000Y-99925000D01*
X209225000Y-95275000D02*
X211775000Y-95275000D01*
X214075000Y-93075000D02*
X218775000Y-93075000D01*
X215000000Y-97725000D02*
X218775000Y-97725000D01*
X209200001Y-95300000D02*
X209200001Y-99900000D01*
X218775000Y-93100000D02*
X218800000Y-97699999D01*
X213780000Y-99200000D02*
X213780000Y-99900000D01*
X213779999Y-99149999D02*
G75*
G02*
X215000000Y-97730000I1320000J99999D01*
G01*
X214070000Y-93100000D02*
G75*
G02*
X211700000Y-95270000I-2270000J100000D01*
G01*
X191225000Y-98925000D02*
X195775000Y-98925000D01*
X191225000Y-94275000D02*
X193775000Y-94275000D01*
X196075000Y-92075000D02*
X200775000Y-92075000D01*
X197000000Y-96725000D02*
X200775000Y-96725000D01*
X191200001Y-94300000D02*
X191200001Y-98900000D01*
X200775000Y-92100000D02*
X200800000Y-96699999D01*
X195780000Y-98200000D02*
X195780000Y-98900000D01*
X195779999Y-98149999D02*
G75*
G02*
X197000000Y-96730000I1320000J99999D01*
G01*
X196070000Y-92100000D02*
G75*
G02*
X193700000Y-94270000I-2270000J100000D01*
G01*
X173225000Y-93925000D02*
X177775000Y-93925000D01*
X173225000Y-89275000D02*
X175775000Y-89275000D01*
X178075000Y-87075000D02*
X182775000Y-87075000D01*
X179000000Y-91725000D02*
X182775000Y-91725000D01*
X173200001Y-89300000D02*
X173200001Y-93900000D01*
X182775000Y-87100000D02*
X182800000Y-91699999D01*
X177780000Y-93200000D02*
X177780000Y-93900000D01*
X177779999Y-93149999D02*
G75*
G02*
X179000000Y-91730000I1320000J99999D01*
G01*
X178070000Y-87100000D02*
G75*
G02*
X175700000Y-89270000I-2270000J100000D01*
G01*
X155225000Y-92625000D02*
X159775000Y-92625000D01*
X155225000Y-87975000D02*
X157775000Y-87975000D01*
X160075000Y-85775000D02*
X164775000Y-85775000D01*
X161000000Y-90425000D02*
X164775000Y-90425000D01*
X155200001Y-88000000D02*
X155200001Y-92600000D01*
X164775000Y-85800000D02*
X164800000Y-90399999D01*
X159780000Y-91900000D02*
X159780000Y-92600000D01*
X159779999Y-91849999D02*
G75*
G02*
X161000000Y-90430000I1320000J99999D01*
G01*
X160070000Y-85800000D02*
G75*
G02*
X157700000Y-87970000I-2270000J100000D01*
G01*
X137225000Y-93925000D02*
X141775000Y-93925000D01*
X137225000Y-89275000D02*
X139775000Y-89275000D01*
X142075000Y-87075000D02*
X146775000Y-87075000D01*
X143000000Y-91725000D02*
X146775000Y-91725000D01*
X137200001Y-89300000D02*
X137200001Y-93900000D01*
X146775000Y-87100000D02*
X146800000Y-91699999D01*
X141780000Y-93200000D02*
X141780000Y-93900000D01*
X141779999Y-93149999D02*
G75*
G02*
X143000000Y-91730000I1320000J99999D01*
G01*
X142070000Y-87100000D02*
G75*
G02*
X139700000Y-89270000I-2270000J100000D01*
G01*
X119225000Y-96325000D02*
X123775000Y-96325000D01*
X119225000Y-91675000D02*
X121775000Y-91675000D01*
X124075000Y-89475000D02*
X128775000Y-89475000D01*
X125000000Y-94125000D02*
X128775000Y-94125000D01*
X119200001Y-91700000D02*
X119200001Y-96300000D01*
X128775000Y-89500000D02*
X128800000Y-94099999D01*
X123780000Y-95600000D02*
X123780000Y-96300000D01*
X123779999Y-95549999D02*
G75*
G02*
X125000000Y-94130000I1320000J99999D01*
G01*
X124070000Y-89500000D02*
G75*
G02*
X121700000Y-91670000I-2270000J100000D01*
G01*
X209225000Y-82925000D02*
X213775000Y-82925000D01*
X209225000Y-78275000D02*
X211775000Y-78275000D01*
X214075000Y-76075000D02*
X218775000Y-76075000D01*
X215000000Y-80725000D02*
X218775000Y-80725000D01*
X209200001Y-78300000D02*
X209200001Y-82900000D01*
X218775000Y-76100000D02*
X218800000Y-80699999D01*
X213780000Y-82200000D02*
X213780000Y-82900000D01*
X213779999Y-82149999D02*
G75*
G02*
X215000000Y-80730000I1320000J99999D01*
G01*
X214070000Y-76100000D02*
G75*
G02*
X211700000Y-78270000I-2270000J100000D01*
G01*
X191225000Y-81925000D02*
X195775000Y-81925000D01*
X191225000Y-77275000D02*
X193775000Y-77275000D01*
X196075000Y-75075000D02*
X200775000Y-75075000D01*
X197000000Y-79725000D02*
X200775000Y-79725000D01*
X191200001Y-77300000D02*
X191200001Y-81900000D01*
X200775000Y-75100000D02*
X200800000Y-79699999D01*
X195780000Y-81200000D02*
X195780000Y-81900000D01*
X195779999Y-81149999D02*
G75*
G02*
X197000000Y-79730000I1320000J99999D01*
G01*
X196070000Y-75100000D02*
G75*
G02*
X193700000Y-77270000I-2270000J100000D01*
G01*
X173225000Y-76925000D02*
X177775000Y-76925000D01*
X173225000Y-72275000D02*
X175775000Y-72275000D01*
X178075000Y-70075000D02*
X182775000Y-70075000D01*
X179000000Y-74725000D02*
X182775000Y-74725000D01*
X173200001Y-72300000D02*
X173200001Y-76900000D01*
X182775000Y-70100000D02*
X182800000Y-74699999D01*
X177780000Y-76200000D02*
X177780000Y-76900000D01*
X177779999Y-76149999D02*
G75*
G02*
X179000000Y-74730000I1320000J99999D01*
G01*
X178070000Y-70100000D02*
G75*
G02*
X175700000Y-72270000I-2270000J100000D01*
G01*
X155225000Y-75625000D02*
X159775000Y-75625000D01*
X155225000Y-70975000D02*
X157775000Y-70975000D01*
X160075000Y-68775000D02*
X164775000Y-68775000D01*
X161000000Y-73425000D02*
X164775000Y-73425000D01*
X155200001Y-71000000D02*
X155200001Y-75600000D01*
X164775000Y-68800000D02*
X164800000Y-73399999D01*
X159780000Y-74900000D02*
X159780000Y-75600000D01*
X159779999Y-74849999D02*
G75*
G02*
X161000000Y-73430000I1320000J99999D01*
G01*
X160070000Y-68800000D02*
G75*
G02*
X157700000Y-70970000I-2270000J100000D01*
G01*
X137225000Y-76925000D02*
X141775000Y-76925000D01*
X137225000Y-72275000D02*
X139775000Y-72275000D01*
X142075000Y-70075000D02*
X146775000Y-70075000D01*
X143000000Y-74725000D02*
X146775000Y-74725000D01*
X137200001Y-72300000D02*
X137200001Y-76900000D01*
X146775000Y-70100000D02*
X146800000Y-74699999D01*
X141780000Y-76200000D02*
X141780000Y-76900000D01*
X141779999Y-76149999D02*
G75*
G02*
X143000000Y-74730000I1320000J99999D01*
G01*
X142070000Y-70100000D02*
G75*
G02*
X139700000Y-72270000I-2270000J100000D01*
G01*
X119225000Y-79325000D02*
X123775000Y-79325000D01*
X119225000Y-74675000D02*
X121775000Y-74675000D01*
X124075000Y-72475000D02*
X128775000Y-72475000D01*
X125000000Y-77125000D02*
X128775000Y-77125000D01*
X119200001Y-74700000D02*
X119200001Y-79300000D01*
X128775000Y-72500000D02*
X128800000Y-77099999D01*
X123780000Y-78600000D02*
X123780000Y-79300000D01*
X123779999Y-78549999D02*
G75*
G02*
X125000000Y-77130000I1320000J99999D01*
G01*
X124070000Y-72500000D02*
G75*
G02*
X121700000Y-74670000I-2270000J100000D01*
G01*
X209225000Y-65925000D02*
X213775000Y-65925000D01*
X209225000Y-61275000D02*
X211775000Y-61275000D01*
X214075000Y-59075000D02*
X218775000Y-59075000D01*
X215000000Y-63725000D02*
X218775000Y-63725000D01*
X209200001Y-61300000D02*
X209200001Y-65900000D01*
X218775000Y-59100000D02*
X218800000Y-63699999D01*
X213780000Y-65200000D02*
X213780000Y-65900000D01*
X213779999Y-65149999D02*
G75*
G02*
X215000000Y-63730000I1320000J99999D01*
G01*
X214070000Y-59100000D02*
G75*
G02*
X211700000Y-61270000I-2270000J100000D01*
G01*
X191225000Y-64925000D02*
X195775000Y-64925000D01*
X191225000Y-60275000D02*
X193775000Y-60275000D01*
X196075000Y-58075000D02*
X200775000Y-58075000D01*
X197000000Y-62725000D02*
X200775000Y-62725000D01*
X191200001Y-60300000D02*
X191200001Y-64900000D01*
X200775000Y-58100000D02*
X200800000Y-62699999D01*
X195780000Y-64200000D02*
X195780000Y-64900000D01*
X195779999Y-64149999D02*
G75*
G02*
X197000000Y-62730000I1320000J99999D01*
G01*
X196070000Y-58100000D02*
G75*
G02*
X193700000Y-60270000I-2270000J100000D01*
G01*
X173225000Y-59925000D02*
X177775000Y-59925000D01*
X173225000Y-55275000D02*
X175775000Y-55275000D01*
X178075000Y-53075000D02*
X182775000Y-53075000D01*
X179000000Y-57725000D02*
X182775000Y-57725000D01*
X173200001Y-55300000D02*
X173200001Y-59900000D01*
X182775000Y-53100000D02*
X182800000Y-57699999D01*
X177780000Y-59200000D02*
X177780000Y-59900000D01*
X177779999Y-59149999D02*
G75*
G02*
X179000000Y-57730000I1320000J99999D01*
G01*
X178070000Y-53100000D02*
G75*
G02*
X175700000Y-55270000I-2270000J100000D01*
G01*
X155225000Y-58625000D02*
X159775000Y-58625000D01*
X155225000Y-53975000D02*
X157775000Y-53975000D01*
X160075000Y-51775000D02*
X164775000Y-51775000D01*
X161000000Y-56425000D02*
X164775000Y-56425000D01*
X155200001Y-54000000D02*
X155200001Y-58600000D01*
X164775000Y-51800000D02*
X164800000Y-56399999D01*
X159780000Y-57900000D02*
X159780000Y-58600000D01*
X159779999Y-57849999D02*
G75*
G02*
X161000000Y-56430000I1320000J99999D01*
G01*
X160070000Y-51800000D02*
G75*
G02*
X157700000Y-53970000I-2270000J100000D01*
G01*
X137225000Y-59925000D02*
X141775000Y-59925000D01*
X137225000Y-55275000D02*
X139775000Y-55275000D01*
X142075000Y-53075000D02*
X146775000Y-53075000D01*
X143000000Y-57725000D02*
X146775000Y-57725000D01*
X137200001Y-55300000D02*
X137200001Y-59900000D01*
X146775000Y-53100000D02*
X146800000Y-57699999D01*
X141780000Y-59200000D02*
X141780000Y-59900000D01*
X141779999Y-59149999D02*
G75*
G02*
X143000000Y-57730000I1320000J99999D01*
G01*
X142070000Y-53100000D02*
G75*
G02*
X139700000Y-55270000I-2270000J100000D01*
G01*
X119225000Y-62325000D02*
X123775000Y-62325000D01*
X119225000Y-57675000D02*
X121775000Y-57675000D01*
X124075000Y-55475000D02*
X128775000Y-55475000D01*
X125000000Y-60125000D02*
X128775000Y-60125000D01*
X119200001Y-57700000D02*
X119200001Y-62300000D01*
X128775000Y-55500000D02*
X128800000Y-60099999D01*
X123780000Y-61600000D02*
X123780000Y-62300000D01*
X123779999Y-61549999D02*
G75*
G02*
X125000000Y-60130000I1320000J99999D01*
G01*
X124070000Y-55500000D02*
G75*
G02*
X121700000Y-57670000I-2270000J100000D01*
G01*
X210900000Y-54400000D02*
X210900000Y-53000000D01*
X210900000Y-53000000D02*
X211800000Y-53700000D01*
X211800000Y-53700000D02*
X210900000Y-54400000D01*
X211800000Y-54400000D02*
X211800000Y-53000000D01*
X166800000Y-116400000D02*
X166800000Y-115000000D01*
X166800000Y-115000000D02*
X167700000Y-115700000D01*
X167700000Y-115700000D02*
X166800000Y-116400000D01*
X167700000Y-116400000D02*
X167700000Y-115000000D01*
X148800000Y-116400000D02*
X148800000Y-115000000D01*
X148800000Y-115000000D02*
X149700000Y-115700000D01*
X149700000Y-115700000D02*
X148800000Y-116400000D01*
X149700000Y-116400000D02*
X149700000Y-115000000D01*
X129600000Y-118900000D02*
X129600000Y-117500000D01*
X129600000Y-117500000D02*
X130500000Y-118200000D01*
X130500000Y-118200000D02*
X129600000Y-118900000D01*
X130500000Y-118900000D02*
X130500000Y-117500000D01*
X105231590Y-116556218D02*
X104531590Y-115343782D01*
X104531590Y-115343782D02*
X105661013Y-115500000D01*
X105661013Y-115500000D02*
X105231590Y-116556218D01*
X106011013Y-116106218D02*
X105311013Y-114893782D01*
X110289724Y-113606601D02*
X109547837Y-112419334D01*
X109547837Y-112419334D02*
X110682024Y-112536040D01*
X110682024Y-112536040D02*
X110289724Y-113606601D01*
X111052968Y-113129674D02*
X110311081Y-111942407D01*
X211300000Y-105400000D02*
X211300000Y-104000000D01*
X211300000Y-104000000D02*
X212200000Y-104700000D01*
X212200000Y-104700000D02*
X211300000Y-105400000D01*
X212200000Y-105400000D02*
X212200000Y-104000000D01*
X193300000Y-103900000D02*
X193300000Y-102500000D01*
X193300000Y-102500000D02*
X194200000Y-103200000D01*
X194200000Y-103200000D02*
X193300000Y-103900000D01*
X194200000Y-103900000D02*
X194200000Y-102500000D01*
X175300000Y-99400000D02*
X175300000Y-98000000D01*
X175300000Y-98000000D02*
X176200000Y-98700000D01*
X176200000Y-98700000D02*
X175300000Y-99400000D01*
X176200000Y-99400000D02*
X176200000Y-98000000D01*
X157300000Y-97900000D02*
X157300000Y-96500000D01*
X157300000Y-96500000D02*
X158200000Y-97200000D01*
X158200000Y-97200000D02*
X157300000Y-97900000D01*
X158200000Y-97900000D02*
X158200000Y-96500000D01*
X139100000Y-99400000D02*
X139100000Y-98000000D01*
X139100000Y-98000000D02*
X140000000Y-98700000D01*
X140000000Y-98700000D02*
X139100000Y-99400000D01*
X140000000Y-99400000D02*
X140000000Y-98000000D01*
X120300000Y-101400000D02*
X120300000Y-100000000D01*
X120300000Y-100000000D02*
X121200000Y-100700000D01*
X121200000Y-100700000D02*
X120300000Y-101400000D01*
X121200000Y-101400000D02*
X121200000Y-100000000D01*
X211300000Y-87900000D02*
X211300000Y-86500000D01*
X211300000Y-86500000D02*
X212200000Y-87200000D01*
X212200000Y-87200000D02*
X211300000Y-87900000D01*
X212200000Y-87900000D02*
X212200000Y-86500000D01*
X193100000Y-86900000D02*
X193100000Y-85500000D01*
X193100000Y-85500000D02*
X194000000Y-86200000D01*
X194000000Y-86200000D02*
X193100000Y-86900000D01*
X194000000Y-86900000D02*
X194000000Y-85500000D01*
X175300000Y-81900000D02*
X175300000Y-80500000D01*
X175300000Y-80500000D02*
X176200000Y-81200000D01*
X176200000Y-81200000D02*
X175300000Y-81900000D01*
X176200000Y-81900000D02*
X176200000Y-80500000D01*
X157300000Y-80900000D02*
X157300000Y-79500000D01*
X157300000Y-79500000D02*
X158200000Y-80200000D01*
X158200000Y-80200000D02*
X157300000Y-80900000D01*
X158200000Y-80900000D02*
X158200000Y-79500000D01*
X139300000Y-82400000D02*
X139300000Y-81000000D01*
X139300000Y-81000000D02*
X140200000Y-81700000D01*
X140200000Y-81700000D02*
X139300000Y-82400000D01*
X140200000Y-82400000D02*
X140200000Y-81000000D01*
X121400000Y-84400000D02*
X121400000Y-83000000D01*
X121400000Y-83000000D02*
X122300000Y-83700000D01*
X122300000Y-83700000D02*
X121400000Y-84400000D01*
X122300000Y-84400000D02*
X122300000Y-83000000D01*
X211300000Y-71400000D02*
X211300000Y-70000000D01*
X211300000Y-70000000D02*
X212200000Y-70700000D01*
X212200000Y-70700000D02*
X211300000Y-71400000D01*
X212200000Y-71400000D02*
X212200000Y-70000000D01*
X193100000Y-69900000D02*
X193100000Y-68500000D01*
X193100000Y-68500000D02*
X194000000Y-69200000D01*
X194000000Y-69200000D02*
X193100000Y-69900000D01*
X194000000Y-69900000D02*
X194000000Y-68500000D01*
X175300000Y-65400000D02*
X175300000Y-64000000D01*
X175300000Y-64000000D02*
X176200000Y-64700000D01*
X176200000Y-64700000D02*
X175300000Y-65400000D01*
X176200000Y-65400000D02*
X176200000Y-64000000D01*
X157100000Y-63900000D02*
X157100000Y-62500000D01*
X157100000Y-62500000D02*
X158000000Y-63200000D01*
X158000000Y-63200000D02*
X157100000Y-63900000D01*
X158000000Y-63900000D02*
X158000000Y-62500000D01*
X139100000Y-65400000D02*
X139100000Y-64000000D01*
X139100000Y-64000000D02*
X140000000Y-64700000D01*
X140000000Y-64700000D02*
X139100000Y-65400000D01*
X140000000Y-65400000D02*
X140000000Y-64000000D01*
X121400000Y-81400000D02*
X121400000Y-80000000D01*
X121400000Y-80000000D02*
X122300000Y-80700000D01*
X122300000Y-80700000D02*
X121400000Y-81400000D01*
X122300000Y-81400000D02*
X122300000Y-80000000D01*
X193300000Y-53400000D02*
X193300000Y-52000000D01*
X193300000Y-52000000D02*
X194200000Y-52700000D01*
X194200000Y-52700000D02*
X193300000Y-53400000D01*
X194200000Y-53400000D02*
X194200000Y-52000000D01*
X174900000Y-48400000D02*
X174900000Y-47000000D01*
X174900000Y-47000000D02*
X175800000Y-47700000D01*
X175800000Y-47700000D02*
X174900000Y-48400000D01*
X175800000Y-48400000D02*
X175800000Y-47000000D01*
X157300000Y-46900000D02*
X157300000Y-45500000D01*
X157300000Y-45500000D02*
X158200000Y-46200000D01*
X158200000Y-46200000D02*
X157300000Y-46900000D01*
X158200000Y-46900000D02*
X158200000Y-45500000D01*
X139300000Y-48400000D02*
X139300000Y-47000000D01*
X139300000Y-47000000D02*
X140200000Y-47700000D01*
X140200000Y-47700000D02*
X139300000Y-48400000D01*
X140200000Y-48400000D02*
X140200000Y-47000000D01*
X121300000Y-64400000D02*
X121300000Y-63000000D01*
X121300000Y-63000000D02*
X122200000Y-63700000D01*
X122200000Y-63700000D02*
X121300000Y-64400000D01*
X122200000Y-64400000D02*
X122200000Y-63000000D01*
X184800000Y-120400000D02*
X184800000Y-119000000D01*
X184800000Y-119000000D02*
X185700000Y-119700000D01*
X185700000Y-119700000D02*
X184800000Y-120400000D01*
X185700000Y-120400000D02*
X185700000Y-119000000D01*
D14*
X99500000Y-104500000D02*
X100500000Y-104500000D01*
X100000000Y-104000000D02*
X100000000Y-105000000D01*
X106100000Y-108000000D02*
X106100000Y-110400000D01*
X106100000Y-103200000D02*
X106100000Y-105800000D01*
X106100000Y-98600000D02*
X106100000Y-101000000D01*
X93900000Y-98600000D02*
X93900000Y-110400000D01*
X98000000Y-98600000D02*
X93900000Y-98600000D01*
X98000000Y-110400000D02*
X93900000Y-110400000D01*
X106100000Y-110400000D02*
X102000000Y-110400000D01*
X102000000Y-98600000D02*
X106100000Y-98600000D01*
X103000000Y-104500000D02*
G75*
G03*
X103000000Y-104500000I-3000000J0D01*
G01*
D15*
X108146284Y-90941715D02*
X108146284Y-91656445D01*
X108098635Y-91799391D01*
X108003338Y-91894688D01*
X107860392Y-91942337D01*
X107765095Y-91942337D01*
X109146906Y-91942337D02*
X108575122Y-91942337D01*
X108861014Y-91942337D02*
X108861014Y-90941715D01*
X108765717Y-91084661D01*
X108670419Y-91179958D01*
X108575122Y-91227607D01*
D13*
X94952380Y-118985714D02*
X94952380Y-118414285D01*
X95952380Y-118700000D02*
X94952380Y-118700000D01*
X95952380Y-118080952D02*
X94952380Y-118080952D01*
X95428571Y-118080952D02*
X95428571Y-117509523D01*
X95952380Y-117509523D02*
X94952380Y-117509523D01*
X94952380Y-117128571D02*
X94952380Y-116461904D01*
X95952380Y-116890476D01*
X200714285Y-93652380D02*
X201285714Y-93652380D01*
X201000000Y-94652380D02*
X201000000Y-93652380D01*
X201619047Y-94652380D02*
X201619047Y-93652380D01*
X201619047Y-94128571D02*
X202190476Y-94128571D01*
X202190476Y-94652380D02*
X202190476Y-93652380D01*
X203095238Y-93652380D02*
X202904761Y-93652380D01*
X202809523Y-93700000D01*
X202761904Y-93747619D01*
X202666666Y-93890476D01*
X202619047Y-94080952D01*
X202619047Y-94461904D01*
X202666666Y-94557142D01*
X202714285Y-94604761D01*
X202809523Y-94652380D01*
X203000000Y-94652380D01*
X203095238Y-94604761D01*
X203142857Y-94557142D01*
X203190476Y-94461904D01*
X203190476Y-94223809D01*
X203142857Y-94128571D01*
X203095238Y-94080952D01*
X203000000Y-94033333D01*
X202809523Y-94033333D01*
X202714285Y-94080952D01*
X202666666Y-94128571D01*
X202619047Y-94223809D01*
X128214285Y-91152380D02*
X128785714Y-91152380D01*
X128500000Y-92152380D02*
X128500000Y-91152380D01*
X129119047Y-92152380D02*
X129119047Y-91152380D01*
X129119047Y-91628571D02*
X129690476Y-91628571D01*
X129690476Y-92152380D02*
X129690476Y-91152380D01*
X130642857Y-91152380D02*
X130166666Y-91152380D01*
X130119047Y-91628571D01*
X130166666Y-91580952D01*
X130261904Y-91533333D01*
X130500000Y-91533333D01*
X130595238Y-91580952D01*
X130642857Y-91628571D01*
X130690476Y-91723809D01*
X130690476Y-91961904D01*
X130642857Y-92057142D01*
X130595238Y-92104761D01*
X130500000Y-92152380D01*
X130261904Y-92152380D01*
X130166666Y-92104761D01*
X130119047Y-92057142D01*
X200964285Y-59652380D02*
X201535714Y-59652380D01*
X201250000Y-60652380D02*
X201250000Y-59652380D01*
X201869047Y-60652380D02*
X201869047Y-59652380D01*
X201869047Y-60128571D02*
X202440476Y-60128571D01*
X202440476Y-60652380D02*
X202440476Y-59652380D01*
X203345238Y-59985714D02*
X203345238Y-60652380D01*
X203107142Y-59604761D02*
X202869047Y-60319047D01*
X203488095Y-60319047D01*
X128214285Y-56902380D02*
X128785714Y-56902380D01*
X128500000Y-57902380D02*
X128500000Y-56902380D01*
X129119047Y-57902380D02*
X129119047Y-56902380D01*
X129119047Y-57378571D02*
X129690476Y-57378571D01*
X129690476Y-57902380D02*
X129690476Y-56902380D01*
X130071428Y-56902380D02*
X130690476Y-56902380D01*
X130357142Y-57283333D01*
X130500000Y-57283333D01*
X130595238Y-57330952D01*
X130642857Y-57378571D01*
X130690476Y-57473809D01*
X130690476Y-57711904D01*
X130642857Y-57807142D01*
X130595238Y-57854761D01*
X130500000Y-57902380D01*
X130214285Y-57902380D01*
X130119047Y-57854761D01*
X130071428Y-57807142D01*
M02*
