M48
; DRILL file {KiCad (5.99.0-8557-g8988e46ab1)} date Sunday, January 24, 2021 at 11:58:04 PM
; FORMAT={-:-/ absolute / inch / decimal}
; #@! TF.CreationDate,2021-01-24T23:58:04-07:00
; #@! TF.GenerationSoftware,Kicad,Pcbnew,(5.99.0-8557-g8988e46ab1)
; #@! TF.FileFunction,NonPlated,1,2,NPTH
FMAT,2
INCH
T1C0.0354
T2C0.0748
T3C0.1339
T4C0.1693
%
G90
G05
T1
X3.0905Y1.0748
X3.0905Y0.9567
T2
X-1.9735Y1.1024
X-1.9735Y0.4331
X-1.9735Y-0.2362
X-1.9735Y-0.9055
X-1.5404Y1.1024
X-1.5404Y0.4331
X-1.5404Y-0.2362
X-1.5404Y-0.9055
X-1.2648Y1.1417
X-1.2648Y0.4724
X-1.2648Y-0.1969
X-1.2648Y-0.8661
X-0.8318Y1.1417
X-0.8318Y0.4724
X-0.8318Y-0.1969
X-0.8318Y-0.8661
X-0.5562Y1.3386
X-0.5562Y0.6693
X-0.5562Y0.0
X-0.5562Y-0.6693
X-0.1231Y1.3386
X-0.1231Y0.6693
X-0.1231Y0.0
X-0.1231Y-0.6693
X0.1525Y1.3898
X0.1525Y0.7205
X0.1525Y0.0512
X0.1525Y-0.6181
X0.1525Y-1.4843
X0.5856Y1.3898
X0.5856Y0.7205
X0.5856Y0.0512
X0.5856Y-0.6181
X0.5856Y-1.4843
X0.8611Y1.3386
X0.8611Y0.6693
X0.8611Y0.0
X0.8611Y-0.6693
X0.8651Y-1.5354
X1.2942Y1.3386
X1.2942Y0.6693
X1.2942Y0.0
X1.2942Y-0.6693
X1.2981Y-1.5354
X1.5698Y1.2441
X1.5698Y0.5748
X1.5698Y-0.0945
X1.5698Y-0.7638
X1.8902Y-1.6516
X2.0029Y1.2441
X2.0029Y0.5748
X2.0029Y-0.0945
X2.0029Y-0.7638
X2.2652Y-1.435
T3
X-1.757Y1.1024
X-1.757Y0.4331
X-1.757Y-0.2362
X-1.757Y-0.9055
X-1.0483Y1.1417
X-1.0483Y0.4724
X-1.0483Y-0.1969
X-1.0483Y-0.8661
X-0.3396Y1.3386
X-0.3396Y0.6693
X-0.3396Y0.0
X-0.3396Y-0.6693
X0.369Y1.3898
X0.369Y0.7205
X0.369Y0.0512
X0.369Y-0.6181
X0.369Y-1.4843
X1.0777Y1.3386
X1.0777Y0.6693
X1.0777Y0.0
X1.0777Y-0.6693
X1.0816Y-1.5354
X1.7863Y1.2441
X1.7863Y0.5748
X1.7863Y-0.0945
X1.7863Y-0.7638
X2.0777Y-1.5433
T4
X-1.4026Y0.7943
X-1.4026Y-0.5522
X1.432Y-0.3829
X1.4359Y0.9557
X2.2106Y-1.0
X2.7814Y1.0394
T0
M30
