G04 #@! TF.GenerationSoftware,KiCad,Pcbnew,(5.99.0-8557-g8988e46ab1)*
G04 #@! TF.CreationDate,2021-01-24T23:58:03-07:00*
G04 #@! TF.ProjectId,BlueSof,426c7565-536f-4662-9e6b-696361645f70,rev?*
G04 #@! TF.SameCoordinates,PX85099e0PY51bada0*
G04 #@! TF.FileFunction,Legend,Bot*
G04 #@! TF.FilePolarity,Positive*
%FSLAX46Y46*%
G04 Gerber Fmt 4.6, Leading zero omitted, Abs format (unit mm)*
G04 Created by KiCad (PCBNEW (5.99.0-8557-g8988e46ab1)) date 2021-01-24 23:58:03*
%MOMM*%
%LPD*%
G01*
G04 APERTURE LIST*
%ADD10C,0.150000*%
%ADD11C,0.200000*%
%ADD12C,0.015000*%
%ADD13C,0.152000*%
%ADD14C,0.120000*%
%ADD15C,0.254000*%
G04 APERTURE END LIST*
D10*
X52926288Y18108843D02*
X52926288Y15823128D01*
X54069145Y16965985D02*
X51783431Y16965985D01*
X52069145Y14680271D02*
X54354860Y14680271D01*
D11*
X-12376666Y42399214D02*
X-12514897Y42307947D01*
X-12551936Y42243793D01*
X-12575417Y42129044D01*
X-12534746Y41977256D01*
X-12457035Y41889621D01*
X-12392882Y41852582D01*
X-12278133Y41829100D01*
X-11873364Y41937557D01*
X-12158065Y43000076D01*
X-12512237Y42905176D01*
X-12599872Y42827465D01*
X-12636911Y42763312D01*
X-12660393Y42648562D01*
X-12633279Y42547370D01*
X-12555568Y42459735D01*
X-12491415Y42422696D01*
X-12376666Y42399214D01*
X-12022493Y42494115D01*
X-13087670Y41612185D02*
X-13000035Y41689895D01*
X-12976554Y41804645D01*
X-13220583Y42715375D01*
X-14137605Y42090058D02*
X-13947804Y41381713D01*
X-13682240Y42212073D02*
X-13533111Y41655516D01*
X-13556593Y41540766D01*
X-13644228Y41463056D01*
X-13796016Y41422384D01*
X-13910765Y41445866D01*
X-13974919Y41482905D01*
X-14872092Y41188280D02*
X-14757342Y41164798D01*
X-14554958Y41219027D01*
X-14467323Y41296737D01*
X-14443841Y41411486D01*
X-14552298Y41816255D01*
X-14630009Y41903890D01*
X-14744758Y41927372D01*
X-14947143Y41873143D01*
X-15034778Y41795433D01*
X-15058260Y41680683D01*
X-15031145Y41579491D01*
X-14498070Y41613871D01*
X-15327457Y41066265D02*
X-15465688Y40974997D01*
X-15718668Y40907211D01*
X-15833418Y40930693D01*
X-15897571Y40967732D01*
X-15975282Y41055367D01*
X-16002396Y41156559D01*
X-15978914Y41271309D01*
X-15941875Y41335462D01*
X-15854240Y41413172D01*
X-15665413Y41517997D01*
X-15577778Y41595708D01*
X-15540739Y41659861D01*
X-15517257Y41774610D01*
X-15544372Y41875803D01*
X-15622082Y41963438D01*
X-15686235Y42000477D01*
X-15800985Y42023958D01*
X-16053965Y41956172D01*
X-16192197Y41864905D01*
X-16528206Y40690296D02*
X-16440571Y40768007D01*
X-16403532Y40832160D01*
X-16380051Y40946909D01*
X-16461394Y41250486D01*
X-16539104Y41338121D01*
X-16603257Y41375160D01*
X-16718007Y41398642D01*
X-16869795Y41357970D01*
X-16957430Y41280260D01*
X-16994469Y41216106D01*
X-17017951Y41101357D01*
X-16936608Y40797780D01*
X-16858897Y40710145D01*
X-16794744Y40673106D01*
X-16679995Y40649625D01*
X-16528206Y40690296D01*
X-17375756Y41222398D02*
X-17780525Y41113941D01*
X-17337744Y40473381D02*
X-17581773Y41384111D01*
X-17659484Y41471746D01*
X-17774233Y41495228D01*
X-17875426Y41468114D01*
X-18887348Y41196970D02*
X-18956820Y40039551D01*
X-19595694Y41007169D01*
X-19872156Y40824634D02*
X-19936309Y40861673D01*
X-20051059Y40885155D01*
X-20304039Y40817369D01*
X-20391674Y40739658D01*
X-20428713Y40675505D01*
X-20452195Y40560755D01*
X-20425080Y40459563D01*
X-20333813Y40321332D01*
X-19563973Y39876865D01*
X-20221723Y39700621D01*
X-21486625Y39361692D02*
X-21771326Y40424210D01*
X-21662869Y40019441D02*
X-21777618Y40042923D01*
X-21980003Y39988694D01*
X-22067638Y39910984D01*
X-22104677Y39846830D01*
X-22128159Y39732081D01*
X-22046815Y39428504D01*
X-21969105Y39340869D01*
X-21904952Y39303830D01*
X-21790202Y39280349D01*
X-21587818Y39334577D01*
X-21500183Y39412288D01*
X-22536560Y39839565D02*
X-22599740Y39063434D01*
X-23042521Y39703993D02*
X-22599740Y39063434D01*
X-22430762Y38837567D01*
X-22366609Y38800528D01*
X-22251859Y38777047D01*
X-24216156Y39226832D02*
X-24570329Y39131932D01*
X-24572988Y38534703D02*
X-24067027Y38670275D01*
X-24351728Y39732794D01*
X-24857689Y39597222D01*
X-25635507Y38250002D02*
X-25416906Y38850864D01*
X-25028354Y38412689D02*
X-25313054Y39475207D01*
X-25717823Y39366749D01*
X-25805458Y39289039D01*
X-25842497Y39224886D01*
X-25865979Y39110136D01*
X-25825308Y38958348D01*
X-25747597Y38870713D01*
X-25683444Y38833674D01*
X-25568694Y38810192D01*
X-25163925Y38918650D01*
X-26596833Y37992416D02*
X-26090872Y38127988D01*
X-26375573Y39190506D01*
D10*
X27911095Y36247620D02*
X27911095Y37247620D01*
X27673000Y37247620D01*
X27530142Y37200000D01*
X27434904Y37104762D01*
X27387285Y37009524D01*
X27339666Y36819048D01*
X27339666Y36676191D01*
X27387285Y36485715D01*
X27434904Y36390477D01*
X27530142Y36295239D01*
X27673000Y36247620D01*
X27911095Y36247620D01*
X26958714Y37152381D02*
X26911095Y37200000D01*
X26815857Y37247620D01*
X26577761Y37247620D01*
X26482523Y37200000D01*
X26434904Y37152381D01*
X26387285Y37057143D01*
X26387285Y36961905D01*
X26434904Y36819048D01*
X27006333Y36247620D01*
X26387285Y36247620D01*
X10111095Y37597620D02*
X10111095Y38597620D01*
X9873000Y38597620D01*
X9730142Y38550000D01*
X9634904Y38454762D01*
X9587285Y38359524D01*
X9539666Y38169048D01*
X9539666Y38026191D01*
X9587285Y37835715D01*
X9634904Y37740477D01*
X9730142Y37645239D01*
X9873000Y37597620D01*
X10111095Y37597620D01*
X9206333Y38597620D02*
X8587285Y38597620D01*
X8920619Y38216667D01*
X8777761Y38216667D01*
X8682523Y38169048D01*
X8634904Y38121429D01*
X8587285Y38026191D01*
X8587285Y37788096D01*
X8634904Y37692858D01*
X8682523Y37645239D01*
X8777761Y37597620D01*
X9063476Y37597620D01*
X9158714Y37645239D01*
X9206333Y37692858D01*
X-7888905Y36297620D02*
X-7888905Y37297620D01*
X-8127000Y37297620D01*
X-8269858Y37250000D01*
X-8365096Y37154762D01*
X-8412715Y37059524D01*
X-8460334Y36869048D01*
X-8460334Y36726191D01*
X-8412715Y36535715D01*
X-8365096Y36440477D01*
X-8269858Y36345239D01*
X-8127000Y36297620D01*
X-7888905Y36297620D01*
X-9317477Y36964286D02*
X-9317477Y36297620D01*
X-9079381Y37345239D02*
X-8841286Y36630953D01*
X-9460334Y36630953D01*
X-25888905Y31297620D02*
X-25888905Y32297620D01*
X-26127000Y32297620D01*
X-26269858Y32250000D01*
X-26365096Y32154762D01*
X-26412715Y32059524D01*
X-26460334Y31869048D01*
X-26460334Y31726191D01*
X-26412715Y31535715D01*
X-26365096Y31440477D01*
X-26269858Y31345239D01*
X-26127000Y31297620D01*
X-25888905Y31297620D01*
X-27365096Y32297620D02*
X-26888905Y32297620D01*
X-26841286Y31821429D01*
X-26888905Y31869048D01*
X-26984143Y31916667D01*
X-27222239Y31916667D01*
X-27317477Y31869048D01*
X-27365096Y31821429D01*
X-27412715Y31726191D01*
X-27412715Y31488096D01*
X-27365096Y31392858D01*
X-27317477Y31345239D01*
X-27222239Y31297620D01*
X-26984143Y31297620D01*
X-26888905Y31345239D01*
X-26841286Y31392858D01*
X-43888905Y30297620D02*
X-43888905Y31297620D01*
X-44127000Y31297620D01*
X-44269858Y31250000D01*
X-44365096Y31154762D01*
X-44412715Y31059524D01*
X-44460334Y30869048D01*
X-44460334Y30726191D01*
X-44412715Y30535715D01*
X-44365096Y30440477D01*
X-44269858Y30345239D01*
X-44127000Y30297620D01*
X-43888905Y30297620D01*
X-45317477Y31297620D02*
X-45127000Y31297620D01*
X-45031762Y31250000D01*
X-44984143Y31202381D01*
X-44888905Y31059524D01*
X-44841286Y30869048D01*
X-44841286Y30488096D01*
X-44888905Y30392858D01*
X-44936524Y30345239D01*
X-45031762Y30297620D01*
X-45222239Y30297620D01*
X-45317477Y30345239D01*
X-45365096Y30392858D01*
X-45412715Y30488096D01*
X-45412715Y30726191D01*
X-45365096Y30821429D01*
X-45317477Y30869048D01*
X-45222239Y30916667D01*
X-45031762Y30916667D01*
X-44936524Y30869048D01*
X-44888905Y30821429D01*
X-44841286Y30726191D01*
X46161095Y16897620D02*
X46161095Y17897620D01*
X45923000Y17897620D01*
X45780142Y17850000D01*
X45684904Y17754762D01*
X45637285Y17659524D01*
X45589666Y17469048D01*
X45589666Y17326191D01*
X45637285Y17135715D01*
X45684904Y17040477D01*
X45780142Y16945239D01*
X45923000Y16897620D01*
X46161095Y16897620D01*
X45256333Y17897620D02*
X44589666Y17897620D01*
X45018238Y16897620D01*
X28211095Y19347620D02*
X28211095Y20347620D01*
X27973000Y20347620D01*
X27830142Y20300000D01*
X27734904Y20204762D01*
X27687285Y20109524D01*
X27639666Y19919048D01*
X27639666Y19776191D01*
X27687285Y19585715D01*
X27734904Y19490477D01*
X27830142Y19395239D01*
X27973000Y19347620D01*
X28211095Y19347620D01*
X27068238Y19919048D02*
X27163476Y19966667D01*
X27211095Y20014286D01*
X27258714Y20109524D01*
X27258714Y20157143D01*
X27211095Y20252381D01*
X27163476Y20300000D01*
X27068238Y20347620D01*
X26877761Y20347620D01*
X26782523Y20300000D01*
X26734904Y20252381D01*
X26687285Y20157143D01*
X26687285Y20109524D01*
X26734904Y20014286D01*
X26782523Y19966667D01*
X26877761Y19919048D01*
X27068238Y19919048D01*
X27163476Y19871429D01*
X27211095Y19823810D01*
X27258714Y19728572D01*
X27258714Y19538096D01*
X27211095Y19442858D01*
X27163476Y19395239D01*
X27068238Y19347620D01*
X26877761Y19347620D01*
X26782523Y19395239D01*
X26734904Y19442858D01*
X26687285Y19538096D01*
X26687285Y19728572D01*
X26734904Y19823810D01*
X26782523Y19871429D01*
X26877761Y19919048D01*
X10111095Y20597620D02*
X10111095Y21597620D01*
X9873000Y21597620D01*
X9730142Y21550000D01*
X9634904Y21454762D01*
X9587285Y21359524D01*
X9539666Y21169048D01*
X9539666Y21026191D01*
X9587285Y20835715D01*
X9634904Y20740477D01*
X9730142Y20645239D01*
X9873000Y20597620D01*
X10111095Y20597620D01*
X9063476Y20597620D02*
X8873000Y20597620D01*
X8777761Y20645239D01*
X8730142Y20692858D01*
X8634904Y20835715D01*
X8587285Y21026191D01*
X8587285Y21407143D01*
X8634904Y21502381D01*
X8682523Y21550000D01*
X8777761Y21597620D01*
X8968238Y21597620D01*
X9063476Y21550000D01*
X9111095Y21502381D01*
X9158714Y21407143D01*
X9158714Y21169048D01*
X9111095Y21073810D01*
X9063476Y21026191D01*
X8968238Y20978572D01*
X8777761Y20978572D01*
X8682523Y21026191D01*
X8634904Y21073810D01*
X8587285Y21169048D01*
X-7362715Y19297620D02*
X-7362715Y20297620D01*
X-7600810Y20297620D01*
X-7743667Y20250000D01*
X-7838905Y20154762D01*
X-7886524Y20059524D01*
X-7934143Y19869048D01*
X-7934143Y19726191D01*
X-7886524Y19535715D01*
X-7838905Y19440477D01*
X-7743667Y19345239D01*
X-7600810Y19297620D01*
X-7362715Y19297620D01*
X-8886524Y19297620D02*
X-8315096Y19297620D01*
X-8600810Y19297620D02*
X-8600810Y20297620D01*
X-8505572Y20154762D01*
X-8410334Y20059524D01*
X-8315096Y20011905D01*
X-9505572Y20297620D02*
X-9600810Y20297620D01*
X-9696048Y20250000D01*
X-9743667Y20202381D01*
X-9791286Y20107143D01*
X-9838905Y19916667D01*
X-9838905Y19678572D01*
X-9791286Y19488096D01*
X-9743667Y19392858D01*
X-9696048Y19345239D01*
X-9600810Y19297620D01*
X-9505572Y19297620D01*
X-9410334Y19345239D01*
X-9362715Y19392858D01*
X-9315096Y19488096D01*
X-9267477Y19678572D01*
X-9267477Y19916667D01*
X-9315096Y20107143D01*
X-9362715Y20202381D01*
X-9410334Y20250000D01*
X-9505572Y20297620D01*
X-25412715Y14297620D02*
X-25412715Y15297620D01*
X-25650810Y15297620D01*
X-25793667Y15250000D01*
X-25888905Y15154762D01*
X-25936524Y15059524D01*
X-25984143Y14869048D01*
X-25984143Y14726191D01*
X-25936524Y14535715D01*
X-25888905Y14440477D01*
X-25793667Y14345239D01*
X-25650810Y14297620D01*
X-25412715Y14297620D01*
X-26936524Y14297620D02*
X-26365096Y14297620D01*
X-26650810Y14297620D02*
X-26650810Y15297620D01*
X-26555572Y15154762D01*
X-26460334Y15059524D01*
X-26365096Y15011905D01*
X-27888905Y14297620D02*
X-27317477Y14297620D01*
X-27603191Y14297620D02*
X-27603191Y15297620D01*
X-27507953Y15154762D01*
X-27412715Y15059524D01*
X-27317477Y15011905D01*
X-43362715Y13297620D02*
X-43362715Y14297620D01*
X-43600810Y14297620D01*
X-43743667Y14250000D01*
X-43838905Y14154762D01*
X-43886524Y14059524D01*
X-43934143Y13869048D01*
X-43934143Y13726191D01*
X-43886524Y13535715D01*
X-43838905Y13440477D01*
X-43743667Y13345239D01*
X-43600810Y13297620D01*
X-43362715Y13297620D01*
X-44886524Y13297620D02*
X-44315096Y13297620D01*
X-44600810Y13297620D02*
X-44600810Y14297620D01*
X-44505572Y14154762D01*
X-44410334Y14059524D01*
X-44315096Y14011905D01*
X-45267477Y14202381D02*
X-45315096Y14250000D01*
X-45410334Y14297620D01*
X-45648429Y14297620D01*
X-45743667Y14250000D01*
X-45791286Y14202381D01*
X-45838905Y14107143D01*
X-45838905Y14011905D01*
X-45791286Y13869048D01*
X-45219858Y13297620D01*
X-45838905Y13297620D01*
X28387285Y2347620D02*
X28387285Y3347620D01*
X28149190Y3347620D01*
X28006333Y3300000D01*
X27911095Y3204762D01*
X27863476Y3109524D01*
X27815857Y2919048D01*
X27815857Y2776191D01*
X27863476Y2585715D01*
X27911095Y2490477D01*
X28006333Y2395239D01*
X28149190Y2347620D01*
X28387285Y2347620D01*
X26863476Y2347620D02*
X27434904Y2347620D01*
X27149190Y2347620D02*
X27149190Y3347620D01*
X27244428Y3204762D01*
X27339666Y3109524D01*
X27434904Y3061905D01*
X26006333Y3014286D02*
X26006333Y2347620D01*
X26244428Y3395239D02*
X26482523Y2680953D01*
X25863476Y2680953D01*
X10587285Y3597620D02*
X10587285Y4597620D01*
X10349190Y4597620D01*
X10206333Y4550000D01*
X10111095Y4454762D01*
X10063476Y4359524D01*
X10015857Y4169048D01*
X10015857Y4026191D01*
X10063476Y3835715D01*
X10111095Y3740477D01*
X10206333Y3645239D01*
X10349190Y3597620D01*
X10587285Y3597620D01*
X9063476Y3597620D02*
X9634904Y3597620D01*
X9349190Y3597620D02*
X9349190Y4597620D01*
X9444428Y4454762D01*
X9539666Y4359524D01*
X9634904Y4311905D01*
X8158714Y4597620D02*
X8634904Y4597620D01*
X8682523Y4121429D01*
X8634904Y4169048D01*
X8539666Y4216667D01*
X8301571Y4216667D01*
X8206333Y4169048D01*
X8158714Y4121429D01*
X8111095Y4026191D01*
X8111095Y3788096D01*
X8158714Y3692858D01*
X8206333Y3645239D01*
X8301571Y3597620D01*
X8539666Y3597620D01*
X8634904Y3645239D01*
X8682523Y3692858D01*
X-7362715Y2297620D02*
X-7362715Y3297620D01*
X-7600810Y3297620D01*
X-7743667Y3250000D01*
X-7838905Y3154762D01*
X-7886524Y3059524D01*
X-7934143Y2869048D01*
X-7934143Y2726191D01*
X-7886524Y2535715D01*
X-7838905Y2440477D01*
X-7743667Y2345239D01*
X-7600810Y2297620D01*
X-7362715Y2297620D01*
X-8886524Y2297620D02*
X-8315096Y2297620D01*
X-8600810Y2297620D02*
X-8600810Y3297620D01*
X-8505572Y3154762D01*
X-8410334Y3059524D01*
X-8315096Y3011905D01*
X-9743667Y3297620D02*
X-9553191Y3297620D01*
X-9457953Y3250000D01*
X-9410334Y3202381D01*
X-9315096Y3059524D01*
X-9267477Y2869048D01*
X-9267477Y2488096D01*
X-9315096Y2392858D01*
X-9362715Y2345239D01*
X-9457953Y2297620D01*
X-9648429Y2297620D01*
X-9743667Y2345239D01*
X-9791286Y2392858D01*
X-9838905Y2488096D01*
X-9838905Y2726191D01*
X-9791286Y2821429D01*
X-9743667Y2869048D01*
X-9648429Y2916667D01*
X-9457953Y2916667D01*
X-9362715Y2869048D01*
X-9315096Y2821429D01*
X-9267477Y2726191D01*
X-25412715Y-2702380D02*
X-25412715Y-1702380D01*
X-25650810Y-1702380D01*
X-25793667Y-1750000D01*
X-25888905Y-1845238D01*
X-25936524Y-1940476D01*
X-25984143Y-2130952D01*
X-25984143Y-2273809D01*
X-25936524Y-2464285D01*
X-25888905Y-2559523D01*
X-25793667Y-2654761D01*
X-25650810Y-2702380D01*
X-25412715Y-2702380D01*
X-26936524Y-2702380D02*
X-26365096Y-2702380D01*
X-26650810Y-2702380D02*
X-26650810Y-1702380D01*
X-26555572Y-1845238D01*
X-26460334Y-1940476D01*
X-26365096Y-1988095D01*
X-27269858Y-1702380D02*
X-27936524Y-1702380D01*
X-27507953Y-2702380D01*
X-43362715Y-3702380D02*
X-43362715Y-2702380D01*
X-43600810Y-2702380D01*
X-43743667Y-2750000D01*
X-43838905Y-2845238D01*
X-43886524Y-2940476D01*
X-43934143Y-3130952D01*
X-43934143Y-3273809D01*
X-43886524Y-3464285D01*
X-43838905Y-3559523D01*
X-43743667Y-3654761D01*
X-43600810Y-3702380D01*
X-43362715Y-3702380D01*
X-44886524Y-3702380D02*
X-44315096Y-3702380D01*
X-44600810Y-3702380D02*
X-44600810Y-2702380D01*
X-44505572Y-2845238D01*
X-44410334Y-2940476D01*
X-44315096Y-2988095D01*
X-45457953Y-3130952D02*
X-45362715Y-3083333D01*
X-45315096Y-3035714D01*
X-45267477Y-2940476D01*
X-45267477Y-2892857D01*
X-45315096Y-2797619D01*
X-45362715Y-2750000D01*
X-45457953Y-2702380D01*
X-45648429Y-2702380D01*
X-45743667Y-2750000D01*
X-45791286Y-2797619D01*
X-45838905Y-2892857D01*
X-45838905Y-2940476D01*
X-45791286Y-3035714D01*
X-45743667Y-3083333D01*
X-45648429Y-3130952D01*
X-45457953Y-3130952D01*
X-45362715Y-3178571D01*
X-45315096Y-3226190D01*
X-45267477Y-3321428D01*
X-45267477Y-3511904D01*
X-45315096Y-3607142D01*
X-45362715Y-3654761D01*
X-45457953Y-3702380D01*
X-45648429Y-3702380D01*
X-45743667Y-3654761D01*
X-45791286Y-3607142D01*
X-45838905Y-3511904D01*
X-45838905Y-3321428D01*
X-45791286Y-3226190D01*
X-45743667Y-3178571D01*
X-45648429Y-3130952D01*
X46587285Y-17102380D02*
X46587285Y-16102380D01*
X46349190Y-16102380D01*
X46206333Y-16150000D01*
X46111095Y-16245238D01*
X46063476Y-16340476D01*
X46015857Y-16530952D01*
X46015857Y-16673809D01*
X46063476Y-16864285D01*
X46111095Y-16959523D01*
X46206333Y-17054761D01*
X46349190Y-17102380D01*
X46587285Y-17102380D01*
X45063476Y-17102380D02*
X45634904Y-17102380D01*
X45349190Y-17102380D02*
X45349190Y-16102380D01*
X45444428Y-16245238D01*
X45539666Y-16340476D01*
X45634904Y-16388095D01*
X44587285Y-17102380D02*
X44396809Y-17102380D01*
X44301571Y-17054761D01*
X44253952Y-17007142D01*
X44158714Y-16864285D01*
X44111095Y-16673809D01*
X44111095Y-16292857D01*
X44158714Y-16197619D01*
X44206333Y-16150000D01*
X44301571Y-16102380D01*
X44492047Y-16102380D01*
X44587285Y-16150000D01*
X44634904Y-16197619D01*
X44682523Y-16292857D01*
X44682523Y-16530952D01*
X44634904Y-16626190D01*
X44587285Y-16673809D01*
X44492047Y-16721428D01*
X44301571Y-16721428D01*
X44206333Y-16673809D01*
X44158714Y-16626190D01*
X44111095Y-16530952D01*
X28587285Y-14752380D02*
X28587285Y-13752380D01*
X28349190Y-13752380D01*
X28206333Y-13800000D01*
X28111095Y-13895238D01*
X28063476Y-13990476D01*
X28015857Y-14180952D01*
X28015857Y-14323809D01*
X28063476Y-14514285D01*
X28111095Y-14609523D01*
X28206333Y-14704761D01*
X28349190Y-14752380D01*
X28587285Y-14752380D01*
X27634904Y-13847619D02*
X27587285Y-13800000D01*
X27492047Y-13752380D01*
X27253952Y-13752380D01*
X27158714Y-13800000D01*
X27111095Y-13847619D01*
X27063476Y-13942857D01*
X27063476Y-14038095D01*
X27111095Y-14180952D01*
X27682523Y-14752380D01*
X27063476Y-14752380D01*
X26444428Y-13752380D02*
X26349190Y-13752380D01*
X26253952Y-13800000D01*
X26206333Y-13847619D01*
X26158714Y-13942857D01*
X26111095Y-14133333D01*
X26111095Y-14371428D01*
X26158714Y-14561904D01*
X26206333Y-14657142D01*
X26253952Y-14704761D01*
X26349190Y-14752380D01*
X26444428Y-14752380D01*
X26539666Y-14704761D01*
X26587285Y-14657142D01*
X26634904Y-14561904D01*
X26682523Y-14371428D01*
X26682523Y-14133333D01*
X26634904Y-13942857D01*
X26587285Y-13847619D01*
X26539666Y-13800000D01*
X26444428Y-13752380D01*
X10387285Y-13452380D02*
X10387285Y-12452380D01*
X10149190Y-12452380D01*
X10006333Y-12500000D01*
X9911095Y-12595238D01*
X9863476Y-12690476D01*
X9815857Y-12880952D01*
X9815857Y-13023809D01*
X9863476Y-13214285D01*
X9911095Y-13309523D01*
X10006333Y-13404761D01*
X10149190Y-13452380D01*
X10387285Y-13452380D01*
X9434904Y-12547619D02*
X9387285Y-12500000D01*
X9292047Y-12452380D01*
X9053952Y-12452380D01*
X8958714Y-12500000D01*
X8911095Y-12547619D01*
X8863476Y-12642857D01*
X8863476Y-12738095D01*
X8911095Y-12880952D01*
X9482523Y-13452380D01*
X8863476Y-13452380D01*
X7911095Y-13452380D02*
X8482523Y-13452380D01*
X8196809Y-13452380D02*
X8196809Y-12452380D01*
X8292047Y-12595238D01*
X8387285Y-12690476D01*
X8482523Y-12738095D01*
X-7362715Y-14702380D02*
X-7362715Y-13702380D01*
X-7600810Y-13702380D01*
X-7743667Y-13750000D01*
X-7838905Y-13845238D01*
X-7886524Y-13940476D01*
X-7934143Y-14130952D01*
X-7934143Y-14273809D01*
X-7886524Y-14464285D01*
X-7838905Y-14559523D01*
X-7743667Y-14654761D01*
X-7600810Y-14702380D01*
X-7362715Y-14702380D01*
X-8315096Y-13797619D02*
X-8362715Y-13750000D01*
X-8457953Y-13702380D01*
X-8696048Y-13702380D01*
X-8791286Y-13750000D01*
X-8838905Y-13797619D01*
X-8886524Y-13892857D01*
X-8886524Y-13988095D01*
X-8838905Y-14130952D01*
X-8267477Y-14702380D01*
X-8886524Y-14702380D01*
X-9267477Y-13797619D02*
X-9315096Y-13750000D01*
X-9410334Y-13702380D01*
X-9648429Y-13702380D01*
X-9743667Y-13750000D01*
X-9791286Y-13797619D01*
X-9838905Y-13892857D01*
X-9838905Y-13988095D01*
X-9791286Y-14130952D01*
X-9219858Y-14702380D01*
X-9838905Y-14702380D01*
X-25362715Y-19702380D02*
X-25362715Y-18702380D01*
X-25600810Y-18702380D01*
X-25743667Y-18750000D01*
X-25838905Y-18845238D01*
X-25886524Y-18940476D01*
X-25934143Y-19130952D01*
X-25934143Y-19273809D01*
X-25886524Y-19464285D01*
X-25838905Y-19559523D01*
X-25743667Y-19654761D01*
X-25600810Y-19702380D01*
X-25362715Y-19702380D01*
X-26315096Y-18797619D02*
X-26362715Y-18750000D01*
X-26457953Y-18702380D01*
X-26696048Y-18702380D01*
X-26791286Y-18750000D01*
X-26838905Y-18797619D01*
X-26886524Y-18892857D01*
X-26886524Y-18988095D01*
X-26838905Y-19130952D01*
X-26267477Y-19702380D01*
X-26886524Y-19702380D01*
X-27219858Y-18702380D02*
X-27838905Y-18702380D01*
X-27505572Y-19083333D01*
X-27648429Y-19083333D01*
X-27743667Y-19130952D01*
X-27791286Y-19178571D01*
X-27838905Y-19273809D01*
X-27838905Y-19511904D01*
X-27791286Y-19607142D01*
X-27743667Y-19654761D01*
X-27648429Y-19702380D01*
X-27362715Y-19702380D01*
X-27267477Y-19654761D01*
X-27219858Y-19607142D01*
X-43412715Y-20702380D02*
X-43412715Y-19702380D01*
X-43650810Y-19702380D01*
X-43793667Y-19750000D01*
X-43888905Y-19845238D01*
X-43936524Y-19940476D01*
X-43984143Y-20130952D01*
X-43984143Y-20273809D01*
X-43936524Y-20464285D01*
X-43888905Y-20559523D01*
X-43793667Y-20654761D01*
X-43650810Y-20702380D01*
X-43412715Y-20702380D01*
X-44365096Y-19797619D02*
X-44412715Y-19750000D01*
X-44507953Y-19702380D01*
X-44746048Y-19702380D01*
X-44841286Y-19750000D01*
X-44888905Y-19797619D01*
X-44936524Y-19892857D01*
X-44936524Y-19988095D01*
X-44888905Y-20130952D01*
X-44317477Y-20702380D01*
X-44936524Y-20702380D01*
X-45793667Y-20035714D02*
X-45793667Y-20702380D01*
X-45555572Y-19654761D02*
X-45317477Y-20369047D01*
X-45936524Y-20369047D01*
X46587285Y-102380D02*
X46587285Y897620D01*
X46349190Y897620D01*
X46206333Y850000D01*
X46111095Y754762D01*
X46063476Y659524D01*
X46015857Y469048D01*
X46015857Y326191D01*
X46063476Y135715D01*
X46111095Y40477D01*
X46206333Y-54761D01*
X46349190Y-102380D01*
X46587285Y-102380D01*
X45063476Y-102380D02*
X45634904Y-102380D01*
X45349190Y-102380D02*
X45349190Y897620D01*
X45444428Y754762D01*
X45539666Y659524D01*
X45634904Y611905D01*
X44730142Y897620D02*
X44111095Y897620D01*
X44444428Y516667D01*
X44301571Y516667D01*
X44206333Y469048D01*
X44158714Y421429D01*
X44111095Y326191D01*
X44111095Y88096D01*
X44158714Y-7142D01*
X44206333Y-54761D01*
X44301571Y-102380D01*
X44587285Y-102380D01*
X44682523Y-54761D01*
X44730142Y-7142D01*
X28587285Y-36652380D02*
X28587285Y-35652380D01*
X28349190Y-35652380D01*
X28206333Y-35700000D01*
X28111095Y-35795238D01*
X28063476Y-35890476D01*
X28015857Y-36080952D01*
X28015857Y-36223809D01*
X28063476Y-36414285D01*
X28111095Y-36509523D01*
X28206333Y-36604761D01*
X28349190Y-36652380D01*
X28587285Y-36652380D01*
X27634904Y-35747619D02*
X27587285Y-35700000D01*
X27492047Y-35652380D01*
X27253952Y-35652380D01*
X27158714Y-35700000D01*
X27111095Y-35747619D01*
X27063476Y-35842857D01*
X27063476Y-35938095D01*
X27111095Y-36080952D01*
X27682523Y-36652380D01*
X27063476Y-36652380D01*
X26730142Y-35652380D02*
X26063476Y-35652380D01*
X26492047Y-36652380D01*
X52623035Y-36666681D02*
X52123035Y-35800656D01*
X51916839Y-35919703D01*
X51816930Y-36032371D01*
X51782071Y-36162469D01*
X51788451Y-36268757D01*
X51842449Y-36457524D01*
X51913878Y-36581242D01*
X52050355Y-36722389D01*
X52139214Y-36781058D01*
X52269311Y-36815918D01*
X52416839Y-36785729D01*
X52623035Y-36666681D01*
X51345868Y-36359325D02*
X51280819Y-36341895D01*
X51174531Y-36348275D01*
X50968335Y-36467322D01*
X50909666Y-36556181D01*
X50892236Y-36621229D01*
X50898616Y-36727518D01*
X50946235Y-36809996D01*
X51058903Y-36909905D01*
X51839488Y-37119062D01*
X51303377Y-37428586D01*
X50061070Y-36991132D02*
X50226027Y-36895894D01*
X50332315Y-36889514D01*
X50397364Y-36906944D01*
X50551271Y-36983043D01*
X50687749Y-37124190D01*
X50878225Y-37454105D01*
X50884605Y-37560393D01*
X50867175Y-37625442D01*
X50808506Y-37714300D01*
X50643549Y-37809538D01*
X50537260Y-37815918D01*
X50472212Y-37798488D01*
X50383353Y-37739819D01*
X50264306Y-37533623D01*
X50257926Y-37427334D01*
X50275356Y-37362286D01*
X50334025Y-37273427D01*
X50498982Y-37178189D01*
X50605270Y-37171809D01*
X50670319Y-37189239D01*
X50759177Y-37247908D01*
X59325380Y-16785713D02*
X58325380Y-16785713D01*
X58325380Y-17023808D01*
X58373000Y-17166665D01*
X58468238Y-17261903D01*
X58563476Y-17309522D01*
X58753952Y-17357141D01*
X58896809Y-17357141D01*
X59087285Y-17309522D01*
X59182523Y-17261903D01*
X59277761Y-17166665D01*
X59325380Y-17023808D01*
X59325380Y-16785713D01*
X58420619Y-17738094D02*
X58373000Y-17785713D01*
X58325380Y-17880951D01*
X58325380Y-18119046D01*
X58373000Y-18214284D01*
X58420619Y-18261903D01*
X58515857Y-18309522D01*
X58611095Y-18309522D01*
X58753952Y-18261903D01*
X59325380Y-17690475D01*
X59325380Y-18309522D01*
X58325380Y-19214284D02*
X58325380Y-18738094D01*
X58801571Y-18690475D01*
X58753952Y-18738094D01*
X58706333Y-18833332D01*
X58706333Y-19071427D01*
X58753952Y-19166665D01*
X58801571Y-19214284D01*
X58896809Y-19261903D01*
X59134904Y-19261903D01*
X59230142Y-19214284D01*
X59277761Y-19166665D01*
X59325380Y-19071427D01*
X59325380Y-18833332D01*
X59277761Y-18738094D01*
X59230142Y-18690475D01*
X46111095Y33897620D02*
X46111095Y34897620D01*
X45873000Y34897620D01*
X45730142Y34850000D01*
X45634904Y34754762D01*
X45587285Y34659524D01*
X45539666Y34469048D01*
X45539666Y34326191D01*
X45587285Y34135715D01*
X45634904Y34040477D01*
X45730142Y33945239D01*
X45873000Y33897620D01*
X46111095Y33897620D01*
X44587285Y33897620D02*
X45158714Y33897620D01*
X44873000Y33897620D02*
X44873000Y34897620D01*
X44968238Y34754762D01*
X45063476Y34659524D01*
X45158714Y34611905D01*
X10587285Y-35352380D02*
X10587285Y-34352380D01*
X10349190Y-34352380D01*
X10206333Y-34400000D01*
X10111095Y-34495238D01*
X10063476Y-34590476D01*
X10015857Y-34780952D01*
X10015857Y-34923809D01*
X10063476Y-35114285D01*
X10111095Y-35209523D01*
X10206333Y-35304761D01*
X10349190Y-35352380D01*
X10587285Y-35352380D01*
X9634904Y-34447619D02*
X9587285Y-34400000D01*
X9492047Y-34352380D01*
X9253952Y-34352380D01*
X9158714Y-34400000D01*
X9111095Y-34447619D01*
X9063476Y-34542857D01*
X9063476Y-34638095D01*
X9111095Y-34780952D01*
X9682523Y-35352380D01*
X9063476Y-35352380D01*
X8492047Y-34780952D02*
X8587285Y-34733333D01*
X8634904Y-34685714D01*
X8682523Y-34590476D01*
X8682523Y-34542857D01*
X8634904Y-34447619D01*
X8587285Y-34400000D01*
X8492047Y-34352380D01*
X8301571Y-34352380D01*
X8206333Y-34400000D01*
X8158714Y-34447619D01*
X8111095Y-34542857D01*
X8111095Y-34590476D01*
X8158714Y-34685714D01*
X8206333Y-34733333D01*
X8301571Y-34780952D01*
X8492047Y-34780952D01*
X8587285Y-34828571D01*
X8634904Y-34876190D01*
X8682523Y-34971428D01*
X8682523Y-35161904D01*
X8634904Y-35257142D01*
X8587285Y-35304761D01*
X8492047Y-35352380D01*
X8301571Y-35352380D01*
X8206333Y-35304761D01*
X8158714Y-35257142D01*
X8111095Y-35161904D01*
X8111095Y-34971428D01*
X8158714Y-34876190D01*
X8206333Y-34828571D01*
X8301571Y-34780952D01*
X67439666Y22542858D02*
X67487285Y22495239D01*
X67630142Y22447620D01*
X67725380Y22447620D01*
X67868238Y22495239D01*
X67963476Y22590477D01*
X68011095Y22685715D01*
X68058714Y22876191D01*
X68058714Y23019048D01*
X68011095Y23209524D01*
X67963476Y23304762D01*
X67868238Y23400000D01*
X67725380Y23447620D01*
X67630142Y23447620D01*
X67487285Y23400000D01*
X67439666Y23352381D01*
X66534904Y23447620D02*
X67011095Y23447620D01*
X67058714Y22971429D01*
X67011095Y23019048D01*
X66915857Y23066667D01*
X66677761Y23066667D01*
X66582523Y23019048D01*
X66534904Y22971429D01*
X66487285Y22876191D01*
X66487285Y22638096D01*
X66534904Y22542858D01*
X66582523Y22495239D01*
X66677761Y22447620D01*
X66915857Y22447620D01*
X67011095Y22495239D01*
X67058714Y22542858D01*
X62457142Y19966667D02*
X62504761Y20014286D01*
X62552380Y20157143D01*
X62552380Y20252381D01*
X62504761Y20395239D01*
X62409523Y20490477D01*
X62314285Y20538096D01*
X62123809Y20585715D01*
X61980952Y20585715D01*
X61790476Y20538096D01*
X61695238Y20490477D01*
X61600000Y20395239D01*
X61552380Y20252381D01*
X61552380Y20157143D01*
X61600000Y20014286D01*
X61647619Y19966667D01*
X61885714Y19109524D02*
X62552380Y19109524D01*
X61504761Y19347620D02*
X62219047Y19585715D01*
X62219047Y18966667D01*
X69439665Y18742858D02*
X69487284Y18695239D01*
X69630141Y18647620D01*
X69725379Y18647620D01*
X69868237Y18695239D01*
X69963475Y18790477D01*
X70011094Y18885715D01*
X70058713Y19076191D01*
X70058713Y19219048D01*
X70011094Y19409524D01*
X69963475Y19504762D01*
X69868237Y19600000D01*
X69725379Y19647620D01*
X69630141Y19647620D01*
X69487284Y19600000D01*
X69439665Y19552381D01*
X68487284Y18647620D02*
X69058713Y18647620D01*
X68772999Y18647620D02*
X68772999Y19647620D01*
X68868237Y19504762D01*
X68963475Y19409524D01*
X69058713Y19361905D01*
X75666666Y13342858D02*
X75714285Y13295239D01*
X75857142Y13247620D01*
X75952380Y13247620D01*
X76095238Y13295239D01*
X76190476Y13390477D01*
X76238095Y13485715D01*
X76285714Y13676191D01*
X76285714Y13819048D01*
X76238095Y14009524D01*
X76190476Y14104762D01*
X76095238Y14200000D01*
X75952380Y14247620D01*
X75857142Y14247620D01*
X75714285Y14200000D01*
X75666666Y14152381D01*
X75285714Y14152381D02*
X75238095Y14200000D01*
X75142857Y14247620D01*
X74904761Y14247620D01*
X74809523Y14200000D01*
X74761904Y14152381D01*
X74714285Y14057143D01*
X74714285Y13961905D01*
X74761904Y13819048D01*
X75333333Y13247620D01*
X74714285Y13247620D01*
X71840619Y17355239D02*
X71793000Y17450477D01*
X71697761Y17545715D01*
X71554904Y17688572D01*
X71507285Y17783810D01*
X71507285Y17879048D01*
X71745380Y17831429D02*
X71697761Y17926667D01*
X71602523Y18021905D01*
X71412047Y18069524D01*
X71078714Y18069524D01*
X70888238Y18021905D01*
X70793000Y17926667D01*
X70745380Y17831429D01*
X70745380Y17640953D01*
X70793000Y17545715D01*
X70888238Y17450477D01*
X71078714Y17402858D01*
X71412047Y17402858D01*
X71602523Y17450477D01*
X71697761Y17545715D01*
X71745380Y17640953D01*
X71745380Y17831429D01*
X70840619Y17021905D02*
X70793000Y16974286D01*
X70745380Y16879048D01*
X70745380Y16640953D01*
X70793000Y16545715D01*
X70840619Y16498096D01*
X70935857Y16450477D01*
X71031095Y16450477D01*
X71173952Y16498096D01*
X71745380Y17069524D01*
X71745380Y16450477D01*
X68466666Y13247620D02*
X68800000Y13723810D01*
X69038095Y13247620D02*
X69038095Y14247620D01*
X68657142Y14247620D01*
X68561904Y14200000D01*
X68514285Y14152381D01*
X68466666Y14057143D01*
X68466666Y13914286D01*
X68514285Y13819048D01*
X68561904Y13771429D01*
X68657142Y13723810D01*
X69038095Y13723810D01*
X68085714Y14152381D02*
X68038095Y14200000D01*
X67942857Y14247620D01*
X67704761Y14247620D01*
X67609523Y14200000D01*
X67561904Y14152381D01*
X67514285Y14057143D01*
X67514285Y13961905D01*
X67561904Y13819048D01*
X68133333Y13247620D01*
X67514285Y13247620D01*
X51727165Y9247620D02*
X52060499Y9723810D01*
X52298594Y9247620D02*
X52298594Y10247620D01*
X51917641Y10247620D01*
X51822403Y10200000D01*
X51774784Y10152381D01*
X51727165Y10057143D01*
X51727165Y9914286D01*
X51774784Y9819048D01*
X51822403Y9771429D01*
X51917641Y9723810D01*
X52298594Y9723810D01*
X50870022Y9914286D02*
X50870022Y9247620D01*
X51108118Y10295239D02*
X51346213Y9580953D01*
X50727165Y9580953D01*
X51714667Y4647620D02*
X52048001Y5123810D01*
X52286096Y4647620D02*
X52286096Y5647620D01*
X51905143Y5647620D01*
X51809905Y5600000D01*
X51762286Y5552381D01*
X51714667Y5457143D01*
X51714667Y5314286D01*
X51762286Y5219048D01*
X51809905Y5171429D01*
X51905143Y5123810D01*
X52286096Y5123810D01*
X50809905Y5647620D02*
X51286096Y5647620D01*
X51333715Y5171429D01*
X51286096Y5219048D01*
X51190858Y5266667D01*
X50952762Y5266667D01*
X50857524Y5219048D01*
X50809905Y5171429D01*
X50762286Y5076191D01*
X50762286Y4838096D01*
X50809905Y4742858D01*
X50857524Y4695239D01*
X50952762Y4647620D01*
X51190858Y4647620D01*
X51286096Y4695239D01*
X51333715Y4742858D01*
X65866666Y29847620D02*
X66200000Y30323810D01*
X66438095Y29847620D02*
X66438095Y30847620D01*
X66057142Y30847620D01*
X65961904Y30800000D01*
X65914285Y30752381D01*
X65866666Y30657143D01*
X65866666Y30514286D01*
X65914285Y30419048D01*
X65961904Y30371429D01*
X66057142Y30323810D01*
X66438095Y30323810D01*
X65533333Y30847620D02*
X64866666Y30847620D01*
X65295238Y29847620D01*
X75766666Y30047620D02*
X76100000Y30523810D01*
X76338095Y30047620D02*
X76338095Y31047620D01*
X75957142Y31047620D01*
X75861904Y31000000D01*
X75814285Y30952381D01*
X75766666Y30857143D01*
X75766666Y30714286D01*
X75814285Y30619048D01*
X75861904Y30571429D01*
X75957142Y30523810D01*
X76338095Y30523810D01*
X75195238Y30619048D02*
X75290476Y30666667D01*
X75338095Y30714286D01*
X75385714Y30809524D01*
X75385714Y30857143D01*
X75338095Y30952381D01*
X75290476Y31000000D01*
X75195238Y31047620D01*
X75004761Y31047620D01*
X74909523Y31000000D01*
X74861904Y30952381D01*
X74814285Y30857143D01*
X74814285Y30809524D01*
X74861904Y30714286D01*
X74909523Y30666667D01*
X75004761Y30619048D01*
X75195238Y30619048D01*
X75290476Y30571429D01*
X75338095Y30523810D01*
X75385714Y30428572D01*
X75385714Y30238096D01*
X75338095Y30142858D01*
X75290476Y30095239D01*
X75195238Y30047620D01*
X75004761Y30047620D01*
X74909523Y30095239D01*
X74861904Y30142858D01*
X74814285Y30238096D01*
X74814285Y30428572D01*
X74861904Y30523810D01*
X74909523Y30571429D01*
X75004761Y30619048D01*
X75866666Y18247620D02*
X76200000Y18723810D01*
X76438095Y18247620D02*
X76438095Y19247620D01*
X76057142Y19247620D01*
X75961904Y19200000D01*
X75914285Y19152381D01*
X75866666Y19057143D01*
X75866666Y18914286D01*
X75914285Y18819048D01*
X75961904Y18771429D01*
X76057142Y18723810D01*
X76438095Y18723810D01*
X75390476Y18247620D02*
X75200000Y18247620D01*
X75104761Y18295239D01*
X75057142Y18342858D01*
X74961904Y18485715D01*
X74914285Y18676191D01*
X74914285Y19057143D01*
X74961904Y19152381D01*
X75009523Y19200000D01*
X75104761Y19247620D01*
X75295238Y19247620D01*
X75390476Y19200000D01*
X75438095Y19152381D01*
X75485714Y19057143D01*
X75485714Y18819048D01*
X75438095Y18723810D01*
X75390476Y18676191D01*
X75295238Y18628572D01*
X75104761Y18628572D01*
X75009523Y18676191D01*
X74961904Y18723810D01*
X74914285Y18819048D01*
X79752380Y14447620D02*
X80085714Y14923810D01*
X80323809Y14447620D02*
X80323809Y15447620D01*
X79942857Y15447620D01*
X79847619Y15400000D01*
X79800000Y15352381D01*
X79752380Y15257143D01*
X79752380Y15114286D01*
X79800000Y15019048D01*
X79847619Y14971429D01*
X79942857Y14923810D01*
X80323809Y14923810D01*
X79323809Y14971429D02*
X78990476Y14971429D01*
X78847619Y14447620D02*
X79323809Y14447620D01*
X79323809Y15447620D01*
X78847619Y15447620D01*
X78466666Y14495239D02*
X78323809Y14447620D01*
X78085714Y14447620D01*
X77990476Y14495239D01*
X77942857Y14542858D01*
X77895238Y14638096D01*
X77895238Y14733334D01*
X77942857Y14828572D01*
X77990476Y14876191D01*
X78085714Y14923810D01*
X78276190Y14971429D01*
X78371428Y15019048D01*
X78419047Y15066667D01*
X78466666Y15161905D01*
X78466666Y15257143D01*
X78419047Y15352381D01*
X78371428Y15400000D01*
X78276190Y15447620D01*
X78038095Y15447620D01*
X77895238Y15400000D01*
X77466666Y14971429D02*
X77133333Y14971429D01*
X76990476Y14447620D02*
X77466666Y14447620D01*
X77466666Y15447620D01*
X76990476Y15447620D01*
X76704761Y15447620D02*
X76133333Y15447620D01*
X76419047Y14447620D02*
X76419047Y15447620D01*
X66961904Y17347620D02*
X66961904Y16538096D01*
X66914285Y16442858D01*
X66866666Y16395239D01*
X66771428Y16347620D01*
X66580952Y16347620D01*
X66485714Y16395239D01*
X66438095Y16442858D01*
X66390476Y16538096D01*
X66390476Y17347620D01*
X65390476Y16347620D02*
X65961904Y16347620D01*
X65676190Y16347620D02*
X65676190Y17347620D01*
X65771428Y17204762D01*
X65866666Y17109524D01*
X65961904Y17061905D01*
X65261904Y24047620D02*
X65261904Y23238096D01*
X65214285Y23142858D01*
X65166666Y23095239D01*
X65071428Y23047620D01*
X64880952Y23047620D01*
X64785714Y23095239D01*
X64738095Y23142858D01*
X64690476Y23238096D01*
X64690476Y24047620D01*
X64309523Y24047620D02*
X63690476Y24047620D01*
X64023809Y23666667D01*
X63880952Y23666667D01*
X63785714Y23619048D01*
X63738095Y23571429D01*
X63690476Y23476191D01*
X63690476Y23238096D01*
X63738095Y23142858D01*
X63785714Y23095239D01*
X63880952Y23047620D01*
X64166666Y23047620D01*
X64261904Y23095239D01*
X64309523Y23142858D01*
X60033333Y17816667D02*
X60033333Y17483334D01*
X60266666Y18183334D02*
X60033333Y17816667D01*
X59800000Y18183334D01*
X59200000Y17483334D02*
X59600000Y17483334D01*
X59400000Y17483334D02*
X59400000Y18183334D01*
X59466666Y18083334D01*
X59533333Y18016667D01*
X59600000Y17983334D01*
X53057142Y19366667D02*
X53104761Y19414286D01*
X53152380Y19557143D01*
X53152380Y19652381D01*
X53104761Y19795239D01*
X53009523Y19890477D01*
X52914285Y19938096D01*
X52723809Y19985715D01*
X52580952Y19985715D01*
X52390476Y19938096D01*
X52295238Y19890477D01*
X52200000Y19795239D01*
X52152380Y19652381D01*
X52152380Y19557143D01*
X52200000Y19414286D01*
X52247619Y19366667D01*
X52152380Y19033334D02*
X52152380Y18414286D01*
X52533333Y18747620D01*
X52533333Y18604762D01*
X52580952Y18509524D01*
X52628571Y18461905D01*
X52723809Y18414286D01*
X52961904Y18414286D01*
X53057142Y18461905D01*
X53104761Y18509524D01*
X53152380Y18604762D01*
X53152380Y18890477D01*
X53104761Y18985715D01*
X53057142Y19033334D01*
X79066666Y35247620D02*
X79400000Y35723810D01*
X79638095Y35247620D02*
X79638095Y36247620D01*
X79257142Y36247620D01*
X79161904Y36200000D01*
X79114285Y36152381D01*
X79066666Y36057143D01*
X79066666Y35914286D01*
X79114285Y35819048D01*
X79161904Y35771429D01*
X79257142Y35723810D01*
X79638095Y35723810D01*
X78209523Y36247620D02*
X78400000Y36247620D01*
X78495238Y36200000D01*
X78542857Y36152381D01*
X78638095Y36009524D01*
X78685714Y35819048D01*
X78685714Y35438096D01*
X78638095Y35342858D01*
X78590476Y35295239D01*
X78495238Y35247620D01*
X78304761Y35247620D01*
X78209523Y35295239D01*
X78161904Y35342858D01*
X78114285Y35438096D01*
X78114285Y35676191D01*
X78161904Y35771429D01*
X78209523Y35819048D01*
X78304761Y35866667D01*
X78495238Y35866667D01*
X78590476Y35819048D01*
X78638095Y35771429D01*
X78685714Y35676191D01*
X54974416Y28694395D02*
X54974416Y27884871D01*
X54926797Y27789633D01*
X54879178Y27742014D01*
X54783940Y27694395D01*
X54593464Y27694395D01*
X54498226Y27742014D01*
X54450607Y27789633D01*
X54402988Y27884871D01*
X54402988Y28694395D01*
X53974416Y28599156D02*
X53926797Y28646775D01*
X53831559Y28694395D01*
X53593464Y28694395D01*
X53498226Y28646775D01*
X53450607Y28599156D01*
X53402988Y28503918D01*
X53402988Y28408680D01*
X53450607Y28265823D01*
X54022035Y27694395D01*
X53402988Y27694395D01*
X60426330Y36346429D02*
X60092997Y36346429D01*
X59950140Y35822620D02*
X60426330Y35822620D01*
X60426330Y36822620D01*
X59950140Y36822620D01*
X59616806Y36822620D02*
X58950140Y36822620D01*
X59378711Y35822620D01*
X58664425Y36822620D02*
X58045378Y36822620D01*
X58378711Y36441667D01*
X58235854Y36441667D01*
X58140616Y36394048D01*
X58092997Y36346429D01*
X58045378Y36251191D01*
X58045378Y36013096D01*
X58092997Y35917858D01*
X58140616Y35870239D01*
X58235854Y35822620D01*
X58521568Y35822620D01*
X58616806Y35870239D01*
X58664425Y35917858D01*
X57616806Y36203572D02*
X56854902Y36203572D01*
X56426330Y36727381D02*
X56378711Y36775000D01*
X56283473Y36822620D01*
X56045378Y36822620D01*
X55950140Y36775000D01*
X55902521Y36727381D01*
X55854902Y36632143D01*
X55854902Y36536905D01*
X55902521Y36394048D01*
X56473949Y35822620D01*
X55854902Y35822620D01*
X54902521Y36775000D02*
X54997759Y36822620D01*
X55140616Y36822620D01*
X55283473Y36775000D01*
X55378711Y36679762D01*
X55426330Y36584524D01*
X55473949Y36394048D01*
X55473949Y36251191D01*
X55426330Y36060715D01*
X55378711Y35965477D01*
X55283473Y35870239D01*
X55140616Y35822620D01*
X55045378Y35822620D01*
X54902521Y35870239D01*
X54854902Y35917858D01*
X54854902Y36251191D01*
X55045378Y36251191D01*
X53997759Y36489286D02*
X53997759Y35822620D01*
X54235854Y36870239D02*
X54473949Y36155953D01*
X53854902Y36155953D01*
X53473949Y35822620D02*
X53473949Y36822620D01*
X53140616Y36108334D01*
X52807283Y36822620D01*
X52807283Y35822620D01*
X52140616Y36822620D02*
X52045378Y36822620D01*
X51950140Y36775000D01*
X51902521Y36727381D01*
X51854902Y36632143D01*
X51807283Y36441667D01*
X51807283Y36203572D01*
X51854902Y36013096D01*
X51902521Y35917858D01*
X51950140Y35870239D01*
X52045378Y35822620D01*
X52140616Y35822620D01*
X52235854Y35870239D01*
X52283473Y35917858D01*
X52331092Y36013096D01*
X52378711Y36203572D01*
X52378711Y36441667D01*
X52331092Y36632143D01*
X52283473Y36727381D01*
X52235854Y36775000D01*
X52140616Y36822620D01*
X51235854Y36394048D02*
X51331092Y36441667D01*
X51378711Y36489286D01*
X51426330Y36584524D01*
X51426330Y36632143D01*
X51378711Y36727381D01*
X51331092Y36775000D01*
X51235854Y36822620D01*
X51045378Y36822620D01*
X50950140Y36775000D01*
X50902521Y36727381D01*
X50854902Y36632143D01*
X50854902Y36584524D01*
X50902521Y36489286D01*
X50950140Y36441667D01*
X51045378Y36394048D01*
X51235854Y36394048D01*
X51331092Y36346429D01*
X51378711Y36298810D01*
X51426330Y36203572D01*
X51426330Y36013096D01*
X51378711Y35917858D01*
X51331092Y35870239D01*
X51235854Y35822620D01*
X51045378Y35822620D01*
X50950140Y35870239D01*
X50902521Y35917858D01*
X50854902Y36013096D01*
X50854902Y36203572D01*
X50902521Y36298810D01*
X50950140Y36346429D01*
X51045378Y36394048D01*
X50473949Y35870239D02*
X50331092Y35822620D01*
X50092997Y35822620D01*
X49997759Y35870239D01*
X49950140Y35917858D01*
X49902521Y36013096D01*
X49902521Y36108334D01*
X49950140Y36203572D01*
X49997759Y36251191D01*
X50092997Y36298810D01*
X50283473Y36346429D01*
X50378711Y36394048D01*
X50426330Y36441667D01*
X50473949Y36536905D01*
X50473949Y36632143D01*
X50426330Y36727381D01*
X50378711Y36775000D01*
X50283473Y36822620D01*
X50045378Y36822620D01*
X49902521Y36775000D01*
X48950140Y35822620D02*
X49521568Y35822620D01*
X49235854Y35822620D02*
X49235854Y36822620D01*
X49331092Y36679762D01*
X49426330Y36584524D01*
X49521568Y36536905D01*
X47950140Y35917858D02*
X47997759Y35870239D01*
X48140616Y35822620D01*
X48235854Y35822620D01*
X48378711Y35870239D01*
X48473949Y35965477D01*
X48521568Y36060715D01*
X48569187Y36251191D01*
X48569187Y36394048D01*
X48521568Y36584524D01*
X48473949Y36679762D01*
X48378711Y36775000D01*
X48235854Y36822620D01*
X48140616Y36822620D01*
X47997759Y36775000D01*
X47950140Y36727381D01*
X74114285Y20647620D02*
X74114285Y21647620D01*
X73876190Y21647620D01*
X73733333Y21600000D01*
X73638095Y21504762D01*
X73590476Y21409524D01*
X73542857Y21219048D01*
X73542857Y21076191D01*
X73590476Y20885715D01*
X73638095Y20790477D01*
X73733333Y20695239D01*
X73876190Y20647620D01*
X74114285Y20647620D01*
X73209523Y21647620D02*
X72590476Y21647620D01*
X72923809Y21266667D01*
X72780952Y21266667D01*
X72685714Y21219048D01*
X72638095Y21171429D01*
X72590476Y21076191D01*
X72590476Y20838096D01*
X72638095Y20742858D01*
X72685714Y20695239D01*
X72780952Y20647620D01*
X73066666Y20647620D01*
X73161904Y20695239D01*
X73209523Y20742858D01*
X72257142Y21647620D02*
X71638095Y21647620D01*
X71971428Y21266667D01*
X71828571Y21266667D01*
X71733333Y21219048D01*
X71685714Y21171429D01*
X71638095Y21076191D01*
X71638095Y20838096D01*
X71685714Y20742858D01*
X71733333Y20695239D01*
X71828571Y20647620D01*
X72114285Y20647620D01*
X72209523Y20695239D01*
X72257142Y20742858D01*
X63014666Y35247620D02*
X63348000Y35723810D01*
X63586095Y35247620D02*
X63586095Y36247620D01*
X63205142Y36247620D01*
X63109904Y36200000D01*
X63062285Y36152381D01*
X63014666Y36057143D01*
X63014666Y35914286D01*
X63062285Y35819048D01*
X63109904Y35771429D01*
X63205142Y35723810D01*
X63586095Y35723810D01*
X62062285Y35247620D02*
X62633714Y35247620D01*
X62348000Y35247620D02*
X62348000Y36247620D01*
X62443238Y36104762D01*
X62538476Y36009524D01*
X62633714Y35961905D01*
D12*
X56408058Y16264675D02*
X57124116Y16264675D01*
X57267327Y16312412D01*
X57362801Y16407886D01*
X57410538Y16551098D01*
X57410538Y16646572D01*
X57410538Y15262195D02*
X57410538Y15835041D01*
X57410538Y15548618D02*
X56408058Y15548618D01*
X56551270Y15644092D01*
X56646744Y15739566D01*
X56694481Y15835041D01*
X56503533Y14880298D02*
X56455796Y14832561D01*
X56408058Y14737086D01*
X56408058Y14498401D01*
X56455796Y14402926D01*
X56503533Y14355189D01*
X56599007Y14307452D01*
X56694481Y14307452D01*
X56837693Y14355189D01*
X57410538Y14928035D01*
X57410538Y14307452D01*
D13*
X74418357Y28248058D02*
X74472785Y28084772D01*
X74527214Y28030343D01*
X74636071Y27975915D01*
X74799357Y27975915D01*
X74908214Y28030343D01*
X74962642Y28084772D01*
X75017071Y28193629D01*
X75017071Y28629058D01*
X73874071Y28629058D01*
X73874071Y28248058D01*
X73928500Y28139200D01*
X73982928Y28084772D01*
X74091785Y28030343D01*
X74200642Y28030343D01*
X74309500Y28084772D01*
X74363928Y28139200D01*
X74418357Y28248058D01*
X74418357Y28629058D01*
X74690500Y27540486D02*
X74690500Y26996200D01*
X75017071Y27649343D02*
X73874071Y27268343D01*
X75017071Y26887343D01*
X73874071Y26669629D02*
X73874071Y26016486D01*
X75017071Y26343058D02*
X73874071Y26343058D01*
X73874071Y25798772D02*
X73874071Y25145629D01*
X75017071Y25472200D02*
X73874071Y25472200D01*
X75125928Y25036772D02*
X75125928Y24165915D01*
X74962642Y23948200D02*
X75017071Y23784915D01*
X75017071Y23512772D01*
X74962642Y23403915D01*
X74908214Y23349486D01*
X74799357Y23295058D01*
X74690500Y23295058D01*
X74581642Y23349486D01*
X74527214Y23403915D01*
X74472785Y23512772D01*
X74418357Y23730486D01*
X74363928Y23839343D01*
X74309500Y23893772D01*
X74200642Y23948200D01*
X74091785Y23948200D01*
X73982928Y23893772D01*
X73928500Y23839343D01*
X73874071Y23730486D01*
X73874071Y23458343D01*
X73928500Y23295058D01*
X73874071Y22914058D02*
X75017071Y22641915D01*
X74200642Y22424200D01*
X75017071Y22206486D01*
X73874071Y21934343D01*
D14*
X24923000Y37700000D02*
X24923000Y39700000D01*
X24923000Y37700000D02*
X28823000Y37700000D01*
X24923000Y39700000D02*
X28823000Y39700000D01*
X7123000Y41050000D02*
X11023000Y41050000D01*
X7123000Y39050000D02*
X7123000Y41050000D01*
X7123000Y39050000D02*
X11023000Y39050000D01*
X-10877000Y37750000D02*
X-6977000Y37750000D01*
X-10877000Y39750000D02*
X-6977000Y39750000D01*
X-10877000Y37750000D02*
X-10877000Y39750000D01*
X-28877000Y32750000D02*
X-24977000Y32750000D01*
X-28877000Y34750000D02*
X-24977000Y34750000D01*
X-28877000Y32750000D02*
X-28877000Y34750000D01*
X-46877000Y31750000D02*
X-46877000Y33750000D01*
X-46877000Y33750000D02*
X-42977000Y33750000D01*
X-46877000Y31750000D02*
X-42977000Y31750000D01*
X43173000Y18350000D02*
X47073000Y18350000D01*
X43173000Y20350000D02*
X47073000Y20350000D01*
X43173000Y18350000D02*
X43173000Y20350000D01*
X25223000Y20800000D02*
X25223000Y22800000D01*
X25223000Y20800000D02*
X29123000Y20800000D01*
X25223000Y22800000D02*
X29123000Y22800000D01*
X7123000Y24050000D02*
X11023000Y24050000D01*
X7123000Y22050000D02*
X7123000Y24050000D01*
X7123000Y22050000D02*
X11023000Y22050000D01*
X-10827000Y20750000D02*
X-10827000Y22750000D01*
X-10827000Y22750000D02*
X-6927000Y22750000D01*
X-10827000Y20750000D02*
X-6927000Y20750000D01*
X-28877000Y17750000D02*
X-24977000Y17750000D01*
X-28877000Y15750000D02*
X-24977000Y15750000D01*
X-28877000Y15750000D02*
X-28877000Y17750000D01*
X-46827000Y16750000D02*
X-42927000Y16750000D01*
X-46827000Y14750000D02*
X-46827000Y16750000D01*
X-46827000Y14750000D02*
X-42927000Y14750000D01*
X24923000Y3800000D02*
X24923000Y5800000D01*
X24923000Y5800000D02*
X28823000Y5800000D01*
X24923000Y3800000D02*
X28823000Y3800000D01*
X7123000Y7050000D02*
X11023000Y7050000D01*
X7123000Y5050000D02*
X7123000Y7050000D01*
X7123000Y5050000D02*
X11023000Y5050000D01*
X-10827000Y5750000D02*
X-6927000Y5750000D01*
X-10827000Y3750000D02*
X-10827000Y5750000D01*
X-10827000Y3750000D02*
X-6927000Y3750000D01*
X-28877000Y750000D02*
X-24977000Y750000D01*
X-28877000Y-1250000D02*
X-28877000Y750000D01*
X-28877000Y-1250000D02*
X-24977000Y-1250000D01*
X-46827000Y-2250000D02*
X-42927000Y-2250000D01*
X-46827000Y-250000D02*
X-42927000Y-250000D01*
X-46827000Y-2250000D02*
X-46827000Y-250000D01*
X43123000Y-15650000D02*
X47023000Y-15650000D01*
X43123000Y-15650000D02*
X43123000Y-13650000D01*
X43123000Y-13650000D02*
X47023000Y-13650000D01*
X25123000Y-13300000D02*
X25123000Y-11300000D01*
X25123000Y-13300000D02*
X29023000Y-13300000D01*
X25123000Y-11300000D02*
X29023000Y-11300000D01*
X6923000Y-10000000D02*
X10823000Y-10000000D01*
X6923000Y-12000000D02*
X6923000Y-10000000D01*
X6923000Y-12000000D02*
X10823000Y-12000000D01*
X-10827000Y-13250000D02*
X-10827000Y-11250000D01*
X-10827000Y-13250000D02*
X-6927000Y-13250000D01*
X-10827000Y-11250000D02*
X-6927000Y-11250000D01*
X-28827000Y-18250000D02*
X-28827000Y-16250000D01*
X-28827000Y-18250000D02*
X-24927000Y-18250000D01*
X-28827000Y-16250000D02*
X-24927000Y-16250000D01*
X-46877000Y-17250000D02*
X-42977000Y-17250000D01*
X-46877000Y-19250000D02*
X-42977000Y-19250000D01*
X-46877000Y-19250000D02*
X-46877000Y-17250000D01*
X43123000Y3350000D02*
X47023000Y3350000D01*
X43123000Y1350000D02*
X43123000Y3350000D01*
X43123000Y1350000D02*
X47023000Y1350000D01*
X25123000Y-35200000D02*
X29023000Y-35200000D01*
X25123000Y-35200000D02*
X25123000Y-33200000D01*
X25123000Y-33200000D02*
X29023000Y-33200000D01*
X48896686Y-37141025D02*
X52274185Y-35191025D01*
X47896686Y-35408975D02*
X51274185Y-33458975D01*
X48896686Y-37141025D02*
X47896686Y-35408975D01*
X57873000Y-20249999D02*
X57873000Y-16349999D01*
X55873000Y-20249999D02*
X55873000Y-16349999D01*
X57873000Y-20249999D02*
X55873000Y-20249999D01*
X43123000Y35350000D02*
X43123000Y37350000D01*
X43123000Y37350000D02*
X47023000Y37350000D01*
X43123000Y35350000D02*
X47023000Y35350000D01*
X7123000Y-31900000D02*
X11023000Y-31900000D01*
X7123000Y-33900000D02*
X11023000Y-33900000D01*
X7123000Y-33900000D02*
X7123000Y-31900000D01*
X67583000Y20846267D02*
X67583000Y20553733D01*
X66563000Y20846267D02*
X66563000Y20553733D01*
X61220500Y19946267D02*
X61220500Y19653733D01*
X60200500Y19946267D02*
X60200500Y19653733D01*
X68763000Y16653733D02*
X68763000Y16946267D01*
X69783000Y16653733D02*
X69783000Y16946267D01*
X72764233Y14510000D02*
X73056767Y14510000D01*
X72764233Y13490000D02*
X73056767Y13490000D01*
X71293000Y17260000D02*
X71293000Y15800000D01*
X74453000Y17260000D02*
X74453000Y15100000D01*
X74453000Y17260000D02*
X73523000Y17260000D01*
X71293000Y17260000D02*
X72223000Y17260000D01*
X66002724Y13777500D02*
X65493276Y13777500D01*
X66002724Y14822500D02*
X65493276Y14822500D01*
X51293276Y7677500D02*
X51802724Y7677500D01*
X51293276Y8722500D02*
X51802724Y8722500D01*
X51802724Y6077500D02*
X51293276Y6077500D01*
X51802724Y7122500D02*
X51293276Y7122500D01*
X66015224Y32422500D02*
X65505776Y32422500D01*
X66015224Y31377500D02*
X65505776Y31377500D01*
X76218276Y32422500D02*
X76727724Y32422500D01*
X76218276Y31377500D02*
X76727724Y31377500D01*
X75970500Y16245276D02*
X75970500Y16754724D01*
X74925500Y16245276D02*
X74925500Y16754724D01*
X76948000Y16550000D02*
X77248000Y16550000D01*
X79748000Y16550000D02*
X79448000Y16550000D01*
X76948000Y19850000D02*
X76948000Y16550000D01*
X79748000Y19850000D02*
X79748000Y16550000D01*
X79448000Y19850000D02*
X79748000Y19850000D01*
X77248000Y19850000D02*
X76948000Y19850000D01*
X65748000Y15240000D02*
X66548000Y15240000D01*
X65748000Y18360000D02*
X64948000Y18360000D01*
X65748000Y15240000D02*
X63948000Y15240000D01*
X65748000Y18360000D02*
X66548000Y18360000D01*
X62913000Y20837500D02*
X62913000Y20037500D01*
X62913000Y20837500D02*
X62913000Y21637500D01*
X66033000Y20837500D02*
X66033000Y21637500D01*
X66033000Y20837500D02*
X66033000Y19037500D01*
X58173000Y19800000D02*
X58373000Y19800000D01*
X58173000Y18400000D02*
X58373000Y18400000D01*
X56723000Y18500000D02*
X56723000Y19700000D01*
X54826733Y18690000D02*
X55119267Y18690000D01*
X54826733Y19710000D02*
X55119267Y19710000D01*
X79395500Y33554724D02*
X79395500Y33045276D01*
X78350500Y33554724D02*
X78350500Y33045276D01*
X70948000Y20350000D02*
X74098000Y20350000D01*
X70948000Y18650000D02*
X74098000Y18650000D01*
X70948000Y18650000D02*
X70948000Y20350000D01*
X63370500Y33554724D02*
X63370500Y33045276D01*
X62325500Y33554724D02*
X62325500Y33045276D01*
D15*
X58998000Y17800000D02*
X58998000Y17300000D01*
X54748000Y15033000D02*
X54748000Y16522000D01*
X58998000Y13800000D02*
X56785000Y13800000D01*
X58998000Y17800000D02*
X56651000Y17800000D01*
X58998000Y13800000D02*
X58998000Y14300000D01*
X79898000Y28550000D02*
X79898000Y23050000D01*
X79067000Y28800000D02*
X77929000Y28800000D01*
X81498000Y27825000D02*
X81498000Y26550000D01*
X76998000Y27300000D02*
X76998000Y25800000D01*
X77929000Y22800000D02*
X79067000Y22800000D01*
X76998000Y23031000D02*
X76998000Y23041000D01*
X79898000Y27825000D02*
X81498000Y27825000D01*
X81498000Y26550000D02*
X79898000Y26550000D01*
M02*
