M48
; DRILL file {KiCad (5.99.0-8557-g8988e46ab1)} date Sunday, January 24, 2021 at 11:58:04 PM
; FORMAT={-:-/ absolute / inch / decimal}
; #@! TF.CreationDate,2021-01-24T23:58:04-07:00
; #@! TF.GenerationSoftware,Kicad,Pcbnew,(5.99.0-8557-g8988e46ab1)
; #@! TF.FileFunction,Plated,1,2,PTH
FMAT,2
INCH
T1C0.0118
T2C0.0130
T3C0.0236
T4C0.0394
T5C0.0472
T6C0.0591
%
G90
G05
T1
X1.9752Y1.0355
X1.9752Y0.9855
T2
X-1.4538Y1.0945
X-1.442Y0.4331
X-1.442Y-0.2362
X-1.442Y-0.9055
X-0.7333Y1.1417
X-0.7333Y0.4724
X-0.7333Y-0.1969
X-0.7333Y-0.8661
X-0.0247Y1.3386
X-0.0247Y0.6693
X-0.0247Y0.0
X-0.0247Y-0.6693
X0.684Y1.378
X0.684Y0.7087
X0.684Y0.0394
X0.684Y-0.6299
X0.684Y-1.4173
X1.1958Y1.3386
X1.2352Y0.9843
X1.3533Y0.8031
X1.3926Y0.6693
X1.3926Y0.0
X1.3926Y-0.6693
X1.3926Y-1.5354
X1.5541Y1.1614
X1.6092Y1.185
X1.6446Y1.3307
X1.6446Y1.2165
X1.6761Y1.1969
X1.6958Y1.2677
X1.7037Y0.9882
X1.7115Y-0.4961
X1.7115Y-1.2795
X1.7155Y0.9528
X1.7155Y0.8976
X1.7391Y1.0748
X1.7391Y0.9252
X1.7391Y0.874
X1.7706Y0.8583
X1.7706Y0.7402
X1.7785Y1.4213
X1.7981Y0.8346
X1.806Y1.1063
X1.8366Y0.2165
X1.8769Y0.8425
X1.9064Y0.8169
X1.932Y0.1929
X1.9793Y0.7087
X2.0226Y0.7638
X2.0226Y0.0
X2.0698Y1.2283
X2.0934Y0.685
X2.1013Y-0.748
X2.1958Y1.3307
X2.1958Y1.189
X2.1958Y1.0945
X2.1958Y0.9921
X2.2981Y1.3504
X2.306Y0.9213
X2.31Y1.2283
X2.3296Y0.8583
X2.3769Y-1.4173
X2.4163Y1.1575
X2.4241Y1.0039
X2.4241Y0.9528
X2.4281Y1.0512
X2.432Y1.1024
X2.4399Y0.5591
X2.4478Y0.7795
X2.4556Y1.4803
X2.4714Y0.7087
X2.4753Y1.2165
X2.4753Y1.1378
X2.4871Y0.6772
X2.495Y1.0551
X2.5186Y0.9528
X2.5265Y1.4803
X2.5344Y1.2047
X2.6407Y0.781
X2.6525Y1.0866
X2.6761Y1.252
X2.6919Y-1.2598
X2.7233Y0.8504
X2.7233Y0.7717
X2.7273Y0.5709
X2.7312Y-0.5906
X2.7509Y1.2205
X2.7548Y1.252
X2.7745Y0.5748
X2.808Y1.2539
X2.8395Y1.2224
X2.8887Y-1.0236
X2.9044Y1.248
X2.9213Y0.7087
X2.9478Y0.8937
X2.9635Y0.8386
X2.9832Y1.1811
X3.0619Y0.5669
X3.0934Y1.4803
T3
X2.5786Y1.3506
X2.5786Y1.3403
X2.5786Y1.3206
X2.5786Y1.5063
X2.5786Y1.4943
X2.5786Y1.4808
X2.5786Y1.4693
X2.5786Y1.3303
X2.5787Y1.5173
X3.0176Y1.3506
X3.0176Y1.3403
X3.0176Y1.3206
X3.0176Y1.5068
X3.0176Y1.4948
X3.0176Y1.4813
X3.0176Y1.4698
X3.0176Y1.3303
X3.0177Y1.5178
T4
X1.4241Y1.5165
X1.4241Y1.4165
X1.4241Y1.3165
X1.4241Y1.2165
X2.3356Y0.6535
X2.3356Y0.5906
X2.3848Y-0.4724
X2.3848Y-0.6693
X2.9556Y-0.4724
X2.9556Y-0.5709
X2.9556Y-0.6693
T5
X-1.9538Y0.9567
X-1.9538Y0.2874
X-1.9538Y-0.3819
X-1.9538Y-1.0512
X-1.757Y0.8701
X-1.757Y0.2008
X-1.757Y-0.4685
X-1.757Y-1.1378
X-1.2452Y0.9961
X-1.2452Y0.3268
X-1.2452Y-0.3425
X-1.2452Y-1.0118
X-1.0483Y0.9094
X-1.0483Y0.2402
X-1.0483Y-0.4291
X-1.0483Y-1.0984
X-0.5365Y1.1929
X-0.5365Y0.5236
X-0.5365Y-0.1457
X-0.5365Y-0.815
X-0.3396Y1.1063
X-0.3396Y0.437
X-0.3396Y-0.2323
X-0.3396Y-0.9016
X0.1722Y1.2441
X0.1722Y0.5748
X0.1722Y-0.0945
X0.1722Y-0.7638
X0.1722Y-1.6299
X0.369Y1.1575
X0.369Y0.4882
X0.369Y-0.1811
X0.369Y-0.8504
X0.369Y-1.7165
X0.8808Y1.1929
X0.8808Y0.5236
X0.8808Y-0.1457
X0.8808Y-0.815
X0.8848Y-1.6811
X1.0777Y1.1063
X1.0777Y0.437
X1.0777Y-0.2323
X1.0777Y-0.9016
X1.0816Y-1.7677
X1.5895Y1.0984
X1.5895Y0.4291
X1.5895Y-0.2402
X1.5895Y-0.9094
X1.7863Y1.0118
X1.7863Y0.3425
X1.7863Y-0.3268
X1.7863Y-0.9961
X1.98Y-1.7679
X2.1938Y-1.7445
T6
G00X2.6859Y-0.3504
M15
G01X2.6348Y-0.3504
M16
G05
G00X2.6859Y-0.7913
M15
G01X2.6348Y-0.7913
M16
G05
T0
M30
