G04 #@! TF.GenerationSoftware,KiCad,Pcbnew,(5.99.0-8557-g8988e46ab1)*
G04 #@! TF.CreationDate,2021-02-20T09:48:14-07:00*
G04 #@! TF.ProjectId,BlueSof,426c7565-536f-4662-9e6b-696361645f70,rev?*
G04 #@! TF.SameCoordinates,PX85099e0PY51bada0*
G04 #@! TF.FileFunction,Legend,Top*
G04 #@! TF.FilePolarity,Positive*
%FSLAX46Y46*%
G04 Gerber Fmt 4.6, Leading zero omitted, Abs format (unit mm)*
G04 Created by KiCad (PCBNEW (5.99.0-8557-g8988e46ab1)) date 2021-02-20 09:48:14*
%MOMM*%
%LPD*%
G01*
G04 APERTURE LIST*
%ADD10C,0.200000*%
%ADD11C,0.150000*%
%ADD12C,0.120000*%
G04 APERTURE END LIST*
D10*
X-26144895Y38653643D02*
X-25979549Y38643718D01*
X-25915396Y38606679D01*
X-25837686Y38519044D01*
X-25797014Y38367256D01*
X-25820496Y38252507D01*
X-25857535Y38188353D01*
X-25945170Y38110643D01*
X-26349939Y38002185D01*
X-26634640Y39064704D01*
X-26280467Y39159604D01*
X-26165717Y39136122D01*
X-26101564Y39099083D01*
X-26023854Y39011448D01*
X-25996739Y38910256D01*
X-26020221Y38795507D01*
X-26057260Y38731353D01*
X-26144895Y38653643D01*
X-26499068Y38558743D01*
X-25135632Y38327558D02*
X-25250381Y38351040D01*
X-25328092Y38438675D01*
X-25572121Y39349405D01*
X-24465299Y39266376D02*
X-24275498Y38558030D01*
X-24920664Y39144361D02*
X-24771535Y38587804D01*
X-24693824Y38500169D01*
X-24579075Y38476687D01*
X-24427286Y38517358D01*
X-24339651Y38595069D01*
X-24302612Y38659222D01*
X-23378325Y38852656D02*
X-23465960Y38774945D01*
X-23668345Y38720716D01*
X-23783094Y38744198D01*
X-23860805Y38831833D01*
X-23969262Y39236602D01*
X-23945780Y39351351D01*
X-23858145Y39429062D01*
X-23655761Y39483291D01*
X-23541011Y39459809D01*
X-23463301Y39372174D01*
X-23436187Y39270982D01*
X-23915033Y39034218D01*
X-22922960Y38974670D02*
X-22757615Y38964746D01*
X-22504634Y39032532D01*
X-22416999Y39110242D01*
X-22379960Y39174395D01*
X-22356478Y39289145D01*
X-22383593Y39390337D01*
X-22461303Y39477972D01*
X-22525456Y39515011D01*
X-22640206Y39538493D01*
X-22856148Y39534860D01*
X-22970897Y39558342D01*
X-23035050Y39595381D01*
X-23112761Y39683016D01*
X-23139875Y39784208D01*
X-23116393Y39898957D01*
X-23079354Y39963111D01*
X-22991719Y40040821D01*
X-22738739Y40108607D01*
X-22573393Y40098683D01*
X-21695096Y39249447D02*
X-21809846Y39272928D01*
X-21873999Y39309967D01*
X-21951709Y39397602D01*
X-22033053Y39701179D01*
X-22009571Y39815928D01*
X-21972532Y39880082D01*
X-21884897Y39957792D01*
X-21733108Y39998464D01*
X-21618359Y39974982D01*
X-21554206Y39937943D01*
X-21476495Y39850308D01*
X-21395152Y39546731D01*
X-21418634Y39431982D01*
X-21455673Y39367829D01*
X-21543308Y39290118D01*
X-21695096Y39249447D01*
X-21227147Y40134036D02*
X-20822378Y40242493D01*
X-20885558Y39466362D02*
X-21129588Y40377092D01*
X-21106106Y40491841D01*
X-21018471Y40569552D01*
X-20917279Y40596666D01*
X-19905356Y40867810D02*
X-19266483Y39900192D01*
X-19197011Y41057610D01*
X-18944030Y41125396D02*
X-18286281Y41301640D01*
X-18531996Y40801971D01*
X-18380208Y40842642D01*
X-18265458Y40819160D01*
X-18201305Y40782121D01*
X-18123594Y40694486D01*
X-18055809Y40441506D01*
X-18079290Y40326756D01*
X-18116329Y40262603D01*
X-18203964Y40184893D01*
X-18507541Y40103549D01*
X-18622290Y40127031D01*
X-18686444Y40164070D01*
X-16736677Y40578051D02*
X-17021378Y41640569D01*
X-16912920Y41235801D02*
X-16825285Y41313511D01*
X-16622901Y41367740D01*
X-16508151Y41344258D01*
X-16443998Y41307219D01*
X-16366288Y41219584D01*
X-16284945Y40916007D01*
X-16308426Y40801258D01*
X-16345465Y40737105D01*
X-16433100Y40659394D01*
X-16635485Y40605165D01*
X-16750234Y40628647D01*
X-16066344Y41516869D02*
X-15623562Y40876309D01*
X-15560382Y41652441D02*
X-15623562Y40876309D01*
X-15656969Y40596214D01*
X-15694008Y40532061D01*
X-15781643Y40454350D01*
X-14305404Y41826025D02*
X-13951231Y41920925D01*
X-13650314Y41405040D02*
X-14156275Y41269468D01*
X-14440976Y42331986D01*
X-13935015Y42467558D01*
X-12587796Y41689740D02*
X-13077540Y42100801D01*
X-13194949Y41527054D02*
X-13479650Y42589573D01*
X-13074881Y42698030D01*
X-12960132Y42674548D01*
X-12895978Y42637509D01*
X-12818268Y42549874D01*
X-12777596Y42398086D01*
X-12801078Y42283337D01*
X-12838117Y42219183D01*
X-12925752Y42141473D01*
X-13330521Y42033015D01*
X-11626469Y41947327D02*
X-12132430Y41811755D01*
X-12417131Y42874274D01*
D11*
X34504761Y34642858D02*
X34552380Y34785715D01*
X34552380Y35023810D01*
X34504761Y35119048D01*
X34457142Y35166667D01*
X34361904Y35214286D01*
X34266666Y35214286D01*
X34171428Y35166667D01*
X34123809Y35119048D01*
X34076190Y35023810D01*
X34028571Y34833334D01*
X33980952Y34738096D01*
X33933333Y34690477D01*
X33838095Y34642858D01*
X33742857Y34642858D01*
X33647619Y34690477D01*
X33600000Y34738096D01*
X33552380Y34833334D01*
X33552380Y35071429D01*
X33600000Y35214286D01*
X33552380Y35547620D02*
X34552380Y35785715D01*
X33838095Y35976191D01*
X34552380Y36166667D01*
X33552380Y36404762D01*
X34552380Y36785715D02*
X33552380Y36785715D01*
X33552380Y37023810D01*
X33600000Y37166667D01*
X33695238Y37261905D01*
X33790476Y37309524D01*
X33980952Y37357143D01*
X34123809Y37357143D01*
X34314285Y37309524D01*
X34409523Y37261905D01*
X34504761Y37166667D01*
X34552380Y37023810D01*
X34552380Y36785715D01*
X33504761Y38500000D02*
X34790476Y37642858D01*
X34457142Y39404762D02*
X34504761Y39357143D01*
X34552380Y39214286D01*
X34552380Y39119048D01*
X34504761Y38976191D01*
X34409523Y38880953D01*
X34314285Y38833334D01*
X34123809Y38785715D01*
X33980952Y38785715D01*
X33790476Y38833334D01*
X33695238Y38880953D01*
X33600000Y38976191D01*
X33552380Y39119048D01*
X33552380Y39214286D01*
X33600000Y39357143D01*
X33647619Y39404762D01*
X34552380Y40357143D02*
X34552380Y39785715D01*
X34552380Y40071429D02*
X33552380Y40071429D01*
X33695238Y39976191D01*
X33790476Y39880953D01*
X33838095Y39785715D01*
X77585714Y37047620D02*
X77585714Y38047620D01*
X77823809Y38047620D01*
X77966666Y38000000D01*
X78061904Y37904762D01*
X78109523Y37809524D01*
X78157142Y37619048D01*
X78157142Y37476191D01*
X78109523Y37285715D01*
X78061904Y37190477D01*
X77966666Y37095239D01*
X77823809Y37047620D01*
X77585714Y37047620D01*
X78490476Y38047620D02*
X79109523Y38047620D01*
X78776190Y37666667D01*
X78919047Y37666667D01*
X79014285Y37619048D01*
X79061904Y37571429D01*
X79109523Y37476191D01*
X79109523Y37238096D01*
X79061904Y37142858D01*
X79014285Y37095239D01*
X78919047Y37047620D01*
X78633333Y37047620D01*
X78538095Y37095239D01*
X78490476Y37142858D01*
X79490476Y37952381D02*
X79538095Y38000000D01*
X79633333Y38047620D01*
X79871428Y38047620D01*
X79966666Y38000000D01*
X80014285Y37952381D01*
X80061904Y37857143D01*
X80061904Y37761905D01*
X80014285Y37619048D01*
X79442857Y37047620D01*
X80061904Y37047620D01*
X61285714Y36847620D02*
X61285714Y37847620D01*
X61523809Y37847620D01*
X61666666Y37800000D01*
X61761904Y37704762D01*
X61809523Y37609524D01*
X61857142Y37419048D01*
X61857142Y37276191D01*
X61809523Y37085715D01*
X61761904Y36990477D01*
X61666666Y36895239D01*
X61523809Y36847620D01*
X61285714Y36847620D01*
X62190476Y37847620D02*
X62809523Y37847620D01*
X62476190Y37466667D01*
X62619047Y37466667D01*
X62714285Y37419048D01*
X62761904Y37371429D01*
X62809523Y37276191D01*
X62809523Y37038096D01*
X62761904Y36942858D01*
X62714285Y36895239D01*
X62619047Y36847620D01*
X62333333Y36847620D01*
X62238095Y36895239D01*
X62190476Y36942858D01*
X63761904Y36847620D02*
X63190476Y36847620D01*
X63476190Y36847620D02*
X63476190Y37847620D01*
X63380952Y37704762D01*
X63285714Y37609524D01*
X63190476Y37561905D01*
X69290476Y-19504761D02*
X69433333Y-19552380D01*
X69671428Y-19552380D01*
X69766666Y-19504761D01*
X69814285Y-19457142D01*
X69861904Y-19361904D01*
X69861904Y-19266666D01*
X69814285Y-19171428D01*
X69766666Y-19123809D01*
X69671428Y-19076190D01*
X69480952Y-19028571D01*
X69385714Y-18980952D01*
X69338095Y-18933333D01*
X69290476Y-18838095D01*
X69290476Y-18742857D01*
X69338095Y-18647619D01*
X69385714Y-18600000D01*
X69480952Y-18552380D01*
X69719047Y-18552380D01*
X69861904Y-18600000D01*
X70195238Y-18552380D02*
X70433333Y-19552380D01*
X70623809Y-18838095D01*
X70814285Y-19552380D01*
X71052380Y-18552380D01*
X71385714Y-18647619D02*
X71433333Y-18600000D01*
X71528571Y-18552380D01*
X71766666Y-18552380D01*
X71861904Y-18600000D01*
X71909523Y-18647619D01*
X71957142Y-18742857D01*
X71957142Y-18838095D01*
X71909523Y-18980952D01*
X71338095Y-19552380D01*
X71957142Y-19552380D01*
X72861904Y-18552380D02*
X72385714Y-18552380D01*
X72338095Y-19028571D01*
X72385714Y-18980952D01*
X72480952Y-18933333D01*
X72719047Y-18933333D01*
X72814285Y-18980952D01*
X72861904Y-19028571D01*
X72909523Y-19123809D01*
X72909523Y-19361904D01*
X72861904Y-19457142D01*
X72814285Y-19504761D01*
X72719047Y-19552380D01*
X72480952Y-19552380D01*
X72385714Y-19504761D01*
X72338095Y-19457142D01*
D12*
X34843000Y32170000D02*
X34843000Y39850000D01*
X37503000Y30900000D02*
X37503000Y29570000D01*
X37503000Y29570000D02*
X36173000Y29570000D01*
X37503000Y32170000D02*
X37503000Y39850000D01*
X37503000Y39850000D02*
X34843000Y39850000D01*
X37503000Y32170000D02*
X34843000Y32170000D01*
X76988000Y36610000D02*
X76988000Y35140000D01*
X79448000Y36610000D02*
X76988000Y36610000D01*
X76988000Y35140000D02*
X79448000Y35140000D01*
X63748000Y36635000D02*
X61288000Y36635000D01*
X61288000Y35165000D02*
X63748000Y35165000D01*
X61288000Y36635000D02*
X61288000Y35165000D01*
X73673000Y-20400000D02*
X73673000Y-8600000D01*
X74773000Y-18600000D02*
X75073000Y-18300000D01*
X61473000Y-20400000D02*
X61473000Y-18000000D01*
X68073000Y-14500000D02*
X67073000Y-14500000D01*
X75373000Y-18600000D02*
X74773000Y-18600000D01*
X69573000Y-8600000D02*
X73673000Y-8600000D01*
X65573000Y-20400000D02*
X61473000Y-20400000D01*
X75073000Y-18300000D02*
X75373000Y-18600000D01*
X61473000Y-11000000D02*
X61473000Y-8600000D01*
X67573000Y-15000000D02*
X67573000Y-14000000D01*
X61473000Y-8600000D02*
X65573000Y-8600000D01*
X61473000Y-15800000D02*
X61473000Y-13200000D01*
X69573000Y-20400000D02*
X73673000Y-20400000D01*
X70573000Y-14500000D02*
G75*
G03*
X70573000Y-14500000I-3000000J0D01*
G01*
M02*
