%TF.GenerationSoftware,KiCad,Pcbnew,(5.99.0-8557-g8988e46ab1)*%
%TF.CreationDate,2021-02-24T09:02:56-07:00*%
%TF.ProjectId,SP56,53503536-2e6b-4696-9361-645f70636258,rev?*%
%TF.SameCoordinates,Original*%
%TF.FileFunction,Soldermask,Bot*%
%TF.FilePolarity,Negative*%
%FSLAX46Y46*%
G04 Gerber Fmt 4.6, Leading zero omitted, Abs format (unit mm)*
G04 Created by KiCad (PCBNEW (5.99.0-8557-g8988e46ab1)) date 2021-02-24 09:02:56*
%MOMM*%
%LPD*%
G01*
G04 APERTURE LIST*
G04 Aperture macros list*
%AMRoundRect*
0 Rectangle with rounded corners*
0 $1 Rounding radius*
0 $2 $3 $4 $5 $6 $7 $8 $9 X,Y pos of 4 corners*
0 Add a 4 corners polygon primitive as box body*
4,1,4,$2,$3,$4,$5,$6,$7,$8,$9,$2,$3,0*
0 Add four circle primitives for the rounded corners*
1,1,$1+$1,$2,$3*
1,1,$1+$1,$4,$5*
1,1,$1+$1,$6,$7*
1,1,$1+$1,$8,$9*
0 Add four rect primitives between the rounded corners*
20,1,$1+$1,$2,$3,$4,$5,0*
20,1,$1+$1,$4,$5,$6,$7,0*
20,1,$1+$1,$6,$7,$8,$9,0*
20,1,$1+$1,$8,$9,$2,$3,0*%
%AMRotRect*
0 Rectangle, with rotation*
0 The origin of the aperture is its center*
0 $1 length*
0 $2 width*
0 $3 Rotation angle, in degrees counterclockwise*
0 Add horizontal line*
21,1,$1,$2,0,0,$3*%
G04 Aperture macros list end*
%ADD10C,0.500000*%
%ADD11C,0.600000*%
%ADD12C,4.300000*%
%ADD13C,1.900000*%
%ADD14C,3.400000*%
%ADD15C,2.000000*%
%ADD16R,1.700000X1.700000*%
%ADD17O,1.700000X1.700000*%
%ADD18R,1.000000X1.000000*%
%ADD19R,2.000000X2.000000*%
%ADD20R,3.200000X2.000000*%
%ADD21R,0.900000X1.200000*%
%ADD22R,1.200000X0.900000*%
%ADD23R,0.800000X0.900000*%
%ADD24RoundRect,0.200000X0.200000X0.275000X-0.200000X0.275000X-0.200000X-0.275000X0.200000X-0.275000X0*%
%ADD25RoundRect,0.150000X-0.512500X-0.150000X0.512500X-0.150000X0.512500X0.150000X-0.512500X0.150000X0*%
%ADD26RoundRect,0.200000X-0.275000X0.200000X-0.275000X-0.200000X0.275000X-0.200000X0.275000X0.200000X0*%
%ADD27RoundRect,0.225000X-0.250000X0.225000X-0.250000X-0.225000X0.250000X-0.225000X0.250000X0.225000X0*%
%ADD28RotRect,0.900000X1.200000X30.000000*%
%ADD29RoundRect,0.200000X0.275000X-0.200000X0.275000X0.200000X-0.275000X0.200000X-0.275000X-0.200000X0*%
%ADD30RoundRect,0.225000X0.250000X-0.225000X0.250000X0.225000X-0.250000X0.225000X-0.250000X-0.225000X0*%
%ADD31RoundRect,0.225000X-0.225000X-0.250000X0.225000X-0.250000X0.225000X0.250000X-0.225000X0.250000X0*%
%ADD32R,1.050000X1.200000*%
%ADD33R,1.550000X0.600000*%
%ADD34R,1.800000X1.200000*%
%ADD35RoundRect,0.200000X-0.200000X-0.275000X0.200000X-0.275000X0.200000X0.275000X-0.200000X0.275000X0*%
%ADD36RoundRect,0.225000X0.225000X0.250000X-0.225000X0.250000X-0.225000X-0.250000X0.225000X-0.250000X0*%
%ADD37C,0.900000*%
%ADD38R,1.524000X0.600000*%
%ADD39R,0.700000X1.200000*%
%ADD40R,1.000000X0.650000*%
%ADD41R,0.650000X1.000000*%
%ADD42R,1.000000X1.500000*%
%ADD43RoundRect,0.150000X0.150000X-0.512500X0.150000X0.512500X-0.150000X0.512500X-0.150000X-0.512500X0*%
%ADD44R,1.700000X0.900000*%
%ADD45RoundRect,0.150000X-0.150000X0.512500X-0.150000X-0.512500X0.150000X-0.512500X0.150000X0.512500X0*%
%ADD46RotRect,0.900000X1.200000X330.000000*%
%ADD47R,0.540000X0.800000*%
%ADD48R,0.300000X0.800000*%
%ADD49C,1.000000*%
G04 APERTURE END LIST*
D10*
%TO.C,REF\u002A\u002A*%
X223175000Y-11500000D03*
X225175000Y-11500000D03*
D11*
X223175000Y-15500000D03*
D10*
X223175000Y-12500000D03*
X225175000Y-14500000D03*
D11*
X223175000Y-10500000D03*
D10*
X223175000Y-14500000D03*
D11*
X225175000Y-15500000D03*
D10*
X225175000Y-13500000D03*
X223175000Y-13500000D03*
X225175000Y-12500000D03*
D11*
X225175000Y-10500000D03*
%TD*%
D10*
%TO.C,REF\u002A\u002A*%
X223175000Y-41000000D03*
X225175000Y-41000000D03*
D11*
X223175000Y-45000000D03*
D10*
X223175000Y-42000000D03*
X225175000Y-44000000D03*
D11*
X223175000Y-40000000D03*
D10*
X223175000Y-44000000D03*
D11*
X225175000Y-45000000D03*
D10*
X225175000Y-43000000D03*
X223175000Y-43000000D03*
X225175000Y-42000000D03*
D11*
X225175000Y-40000000D03*
%TD*%
D10*
%TO.C,REF\u002A\u002A*%
X223175000Y-70500000D03*
X225175000Y-70500000D03*
D11*
X223175000Y-74500000D03*
D10*
X223175000Y-71500000D03*
X225175000Y-73500000D03*
D11*
X223175000Y-69500000D03*
D10*
X223175000Y-73500000D03*
D11*
X225175000Y-74500000D03*
D10*
X225175000Y-72500000D03*
X223175000Y-72500000D03*
X225175000Y-71500000D03*
D11*
X225175000Y-69500000D03*
%TD*%
D12*
%TO.C,H14*%
X98400000Y-77600000D03*
%TD*%
D13*
%TO.C,SW126*%
X121038140Y-86950000D03*
X111511860Y-81450000D03*
D14*
X116275000Y-84200000D03*
D15*
X110094873Y-84904294D03*
X113325000Y-89309550D03*
%TD*%
D16*
%TO.C,SWD/C1*%
X315475000Y-14100000D03*
D17*
X315475000Y-11560000D03*
X315475000Y-9020000D03*
X315475000Y-6480000D03*
%TD*%
D13*
%TO.C,SW113*%
X129175000Y-47400000D03*
D14*
X123675000Y-47400000D03*
D13*
X118175000Y-47400000D03*
D15*
X118675000Y-51100000D03*
X123675000Y-53300000D03*
%TD*%
D14*
%TO.C,SW2*%
X306675000Y-11000000D03*
D13*
X312175000Y-11000000D03*
X301175000Y-11000000D03*
D15*
X301675000Y-14700000D03*
X306675000Y-16900000D03*
%TD*%
D13*
%TO.C,SW21*%
X283175000Y-60700000D03*
X294175000Y-60700000D03*
D14*
X288675000Y-60700000D03*
D15*
X283675000Y-64400000D03*
X288675000Y-66600000D03*
%TD*%
D13*
%TO.C,SW9*%
X283175000Y-26700000D03*
D14*
X288675000Y-26700000D03*
D13*
X294175000Y-26700000D03*
D15*
X283675000Y-30400000D03*
X288675000Y-32600000D03*
%TD*%
D13*
%TO.C,SW1*%
X319175000Y-13400000D03*
D14*
X324675000Y-13400000D03*
D13*
X330175000Y-13400000D03*
D15*
X319675000Y-17100000D03*
X324675000Y-19300000D03*
%TD*%
D18*
%TO.C,J3*%
X315750000Y-35800000D03*
%TD*%
D14*
%TO.C,SW11*%
X252675000Y-33000000D03*
D13*
X258175000Y-33000000D03*
X247175000Y-33000000D03*
D15*
X247675000Y-36700000D03*
X252675000Y-38900000D03*
%TD*%
D14*
%TO.C,SW119*%
X123675000Y-64400000D03*
D13*
X129175000Y-64400000D03*
X118175000Y-64400000D03*
D15*
X118675000Y-68100000D03*
X123675000Y-70300000D03*
%TD*%
D18*
%TO.C,J2*%
X315750000Y-39400000D03*
%TD*%
D13*
%TO.C,SW106*%
X219175000Y-17000000D03*
D14*
X213675000Y-17000000D03*
D13*
X208175000Y-17000000D03*
D15*
X208675000Y-20700000D03*
X213675000Y-22900000D03*
%TD*%
D13*
%TO.C,SW28*%
X294175000Y-82700000D03*
X283175000Y-82700000D03*
D14*
X288675000Y-82700000D03*
D15*
X283675000Y-86400000D03*
X288675000Y-88600000D03*
%TD*%
D14*
%TO.C,SW127*%
X141575000Y-84000000D03*
D13*
X136075000Y-84000000D03*
X147075000Y-84000000D03*
D15*
X136575000Y-87700000D03*
X141575000Y-89900000D03*
%TD*%
D13*
%TO.C,SW26*%
X336838140Y-81450000D03*
X327311860Y-86950000D03*
D14*
X332075000Y-84200000D03*
D15*
X329594873Y-89904294D03*
X335025000Y-89309550D03*
%TD*%
D14*
%TO.C,SW123*%
X195675000Y-67000000D03*
D13*
X201175000Y-67000000D03*
X190175000Y-67000000D03*
D15*
X190675000Y-70700000D03*
X195675000Y-72900000D03*
%TD*%
D14*
%TO.C,SW115*%
X159675000Y-43700000D03*
D13*
X165175000Y-43700000D03*
X154175000Y-43700000D03*
D15*
X154675000Y-47400000D03*
X159675000Y-49600000D03*
%TD*%
D13*
%TO.C,SW18*%
X229175000Y-51000000D03*
X240175000Y-51000000D03*
D14*
X234675000Y-51000000D03*
D15*
X229675000Y-54700000D03*
X234675000Y-56900000D03*
%TD*%
D13*
%TO.C,SW27*%
X301275000Y-84000000D03*
D14*
X306775000Y-84000000D03*
D13*
X312275000Y-84000000D03*
D15*
X301775000Y-87700000D03*
X306775000Y-89900000D03*
%TD*%
D13*
%TO.C,SW19*%
X330175000Y-64400000D03*
X319175000Y-64400000D03*
D14*
X324675000Y-64400000D03*
D15*
X319675000Y-68100000D03*
X324675000Y-70300000D03*
%TD*%
D13*
%TO.C,SW17*%
X258175000Y-50000000D03*
D14*
X252675000Y-50000000D03*
D13*
X247175000Y-50000000D03*
D15*
X247675000Y-53700000D03*
X252675000Y-55900000D03*
%TD*%
D12*
%TO.C,H10*%
X132575000Y-20725000D03*
%TD*%
D13*
%TO.C,SW7*%
X330175000Y-30400000D03*
X319175000Y-30400000D03*
D14*
X324675000Y-30400000D03*
D15*
X319675000Y-34100000D03*
X324675000Y-36300000D03*
%TD*%
D13*
%TO.C,SW103*%
X165175000Y-9700000D03*
D14*
X159675000Y-9700000D03*
D13*
X154175000Y-9700000D03*
D15*
X154675000Y-13400000D03*
X159675000Y-15600000D03*
%TD*%
D12*
%TO.C,H8*%
X274950000Y-77600000D03*
%TD*%
%TO.C,H13*%
X132675000Y-54725000D03*
%TD*%
D13*
%TO.C,SW15*%
X283175000Y-43700000D03*
D14*
X288675000Y-43700000D03*
D13*
X294175000Y-43700000D03*
D15*
X283675000Y-47400000D03*
X288675000Y-49600000D03*
%TD*%
D12*
%TO.C,H11*%
X204675000Y-24825000D03*
%TD*%
D14*
%TO.C,SW104*%
X177675000Y-11000000D03*
D13*
X183175000Y-11000000D03*
X172175000Y-11000000D03*
D15*
X172675000Y-14700000D03*
X177675000Y-16900000D03*
%TD*%
D18*
%TO.C,J104*%
X132700000Y-41600000D03*
%TD*%
D13*
%TO.C,SW20*%
X312175000Y-62000000D03*
X301175000Y-62000000D03*
D14*
X306675000Y-62000000D03*
D15*
X301675000Y-65700000D03*
X306675000Y-67900000D03*
%TD*%
D13*
%TO.C,SW22*%
X265175000Y-62000000D03*
D14*
X270675000Y-62000000D03*
D13*
X276175000Y-62000000D03*
D15*
X265675000Y-65700000D03*
X270675000Y-67900000D03*
%TD*%
D13*
%TO.C,SW16*%
X276175000Y-45000000D03*
D14*
X270675000Y-45000000D03*
D13*
X265175000Y-45000000D03*
D15*
X265675000Y-48700000D03*
X270675000Y-50900000D03*
%TD*%
D13*
%TO.C,SW118*%
X219175000Y-51000000D03*
X208175000Y-51000000D03*
D14*
X213675000Y-51000000D03*
D15*
X208675000Y-54700000D03*
X213675000Y-56900000D03*
%TD*%
D13*
%TO.C,SW10*%
X276175000Y-28000000D03*
D14*
X270675000Y-28000000D03*
D13*
X265175000Y-28000000D03*
D15*
X265675000Y-31700000D03*
X270675000Y-33900000D03*
%TD*%
D14*
%TO.C,SW101*%
X123675000Y-13400000D03*
D13*
X118175000Y-13400000D03*
X129175000Y-13400000D03*
D15*
X128675000Y-9700000D03*
X123675000Y-7500000D03*
%TD*%
D13*
%TO.C,SW23*%
X247175000Y-67000000D03*
X258175000Y-67000000D03*
D14*
X252675000Y-67000000D03*
D15*
X247675000Y-70700000D03*
X252675000Y-72900000D03*
%TD*%
D13*
%TO.C,SW5*%
X258175000Y-16000000D03*
X247175000Y-16000000D03*
D14*
X252675000Y-16000000D03*
D15*
X247675000Y-19700000D03*
X252675000Y-21900000D03*
%TD*%
D13*
%TO.C,SW110*%
X183175000Y-28000000D03*
X172175000Y-28000000D03*
D14*
X177675000Y-28000000D03*
D15*
X172675000Y-31700000D03*
X177675000Y-33900000D03*
%TD*%
D14*
%TO.C,SW8*%
X306675000Y-28000000D03*
D13*
X312175000Y-28000000D03*
X301175000Y-28000000D03*
D15*
X301675000Y-31700000D03*
X306675000Y-33900000D03*
%TD*%
D13*
%TO.C,SW114*%
X147175000Y-45000000D03*
D14*
X141675000Y-45000000D03*
D13*
X136175000Y-45000000D03*
D15*
X136675000Y-48700000D03*
X141675000Y-50900000D03*
%TD*%
D14*
%TO.C,SW4*%
X270675000Y-11000000D03*
D13*
X276175000Y-11000000D03*
X265175000Y-11000000D03*
D15*
X265675000Y-14700000D03*
X270675000Y-16900000D03*
%TD*%
D12*
%TO.C,H12*%
X204675000Y-59025000D03*
%TD*%
D14*
%TO.C,SW13*%
X324675000Y-47400000D03*
D13*
X319175000Y-47400000D03*
X330175000Y-47400000D03*
D15*
X319675000Y-51100000D03*
X324675000Y-53300000D03*
%TD*%
D12*
%TO.C,H15*%
X129400000Y-77600000D03*
%TD*%
D13*
%TO.C,SW124*%
X219175000Y-68000000D03*
D14*
X213675000Y-68000000D03*
D13*
X208175000Y-68000000D03*
D15*
X208675000Y-71700000D03*
X213675000Y-73900000D03*
%TD*%
D19*
%TO.C,SW125*%
X93975000Y-57000000D03*
D15*
X93975000Y-62000000D03*
X93975000Y-59500000D03*
D20*
X101475000Y-53900000D03*
X101475000Y-65100000D03*
D15*
X108475000Y-62000000D03*
X108475000Y-57000000D03*
%TD*%
D13*
%TO.C,SW108*%
X147175000Y-28000000D03*
X136175000Y-28000000D03*
D14*
X141675000Y-28000000D03*
D15*
X136675000Y-31700000D03*
X141675000Y-33900000D03*
%TD*%
D12*
%TO.C,H7*%
X318950000Y-77600000D03*
%TD*%
D13*
%TO.C,SW128*%
X165175000Y-82700000D03*
D14*
X159675000Y-82700000D03*
D13*
X154175000Y-82700000D03*
D15*
X154675000Y-86400000D03*
X159675000Y-88600000D03*
%TD*%
D13*
%TO.C,SW111*%
X190175000Y-33000000D03*
D14*
X195675000Y-33000000D03*
D13*
X201175000Y-33000000D03*
D15*
X190675000Y-36700000D03*
X195675000Y-38900000D03*
%TD*%
D14*
%TO.C,SW122*%
X177675000Y-62000000D03*
D13*
X183175000Y-62000000D03*
X172175000Y-62000000D03*
D15*
X172675000Y-65700000D03*
X177675000Y-67900000D03*
%TD*%
D14*
%TO.C,SW112*%
X213675000Y-34000000D03*
D13*
X219175000Y-34000000D03*
X208175000Y-34000000D03*
D15*
X208675000Y-37700000D03*
X213675000Y-39900000D03*
%TD*%
D12*
%TO.C,H16*%
X173400000Y-77600000D03*
%TD*%
D14*
%TO.C,SW24*%
X234675000Y-68000000D03*
D13*
X240175000Y-68000000D03*
X229175000Y-68000000D03*
D15*
X229675000Y-71700000D03*
X234675000Y-73900000D03*
%TD*%
D14*
%TO.C,SW12*%
X234675000Y-34000000D03*
D13*
X229175000Y-34000000D03*
X240175000Y-34000000D03*
D15*
X229675000Y-37700000D03*
X234675000Y-39900000D03*
%TD*%
D13*
%TO.C,SW120*%
X147175000Y-62000000D03*
D14*
X141675000Y-62000000D03*
D13*
X136175000Y-62000000D03*
D15*
X136675000Y-65700000D03*
X141675000Y-67900000D03*
%TD*%
D13*
%TO.C,SW109*%
X165175000Y-26700000D03*
X154175000Y-26700000D03*
D14*
X159675000Y-26700000D03*
D15*
X154675000Y-30400000D03*
X159675000Y-32600000D03*
%TD*%
D14*
%TO.C,SW105*%
X195675000Y-16000000D03*
D13*
X190175000Y-16000000D03*
X201175000Y-16000000D03*
D15*
X190675000Y-19700000D03*
X195675000Y-21900000D03*
%TD*%
D13*
%TO.C,SW107*%
X129175000Y-30400000D03*
X118175000Y-30400000D03*
D14*
X123675000Y-30400000D03*
D15*
X118675000Y-34100000D03*
X123675000Y-36300000D03*
%TD*%
D13*
%TO.C,SW3*%
X283175000Y-9700000D03*
D14*
X288675000Y-9700000D03*
D13*
X294175000Y-9700000D03*
D15*
X283675000Y-13400000D03*
X288675000Y-15600000D03*
%TD*%
D13*
%TO.C,SW6*%
X229175000Y-17000000D03*
D14*
X234675000Y-17000000D03*
D13*
X240175000Y-17000000D03*
D15*
X229675000Y-20700000D03*
X234675000Y-22900000D03*
%TD*%
D13*
%TO.C,SW14*%
X301175000Y-45000000D03*
D14*
X306675000Y-45000000D03*
D13*
X312175000Y-45000000D03*
D15*
X301675000Y-48700000D03*
X306675000Y-50900000D03*
%TD*%
D13*
%TO.C,SW117*%
X201175000Y-50000000D03*
D14*
X195675000Y-50000000D03*
D13*
X190175000Y-50000000D03*
D15*
X190675000Y-53700000D03*
X195675000Y-55900000D03*
%TD*%
D13*
%TO.C,SW102*%
X136175000Y-11000000D03*
D14*
X141675000Y-11000000D03*
D13*
X147175000Y-11000000D03*
D15*
X136675000Y-14700000D03*
X141675000Y-16900000D03*
%TD*%
D12*
%TO.C,H9*%
X98400000Y-18600000D03*
%TD*%
D13*
%TO.C,SW116*%
X172175000Y-45000000D03*
X183175000Y-45000000D03*
D14*
X177675000Y-45000000D03*
D15*
X172675000Y-48700000D03*
X177675000Y-50900000D03*
%TD*%
D13*
%TO.C,SW121*%
X154175000Y-60700000D03*
D14*
X159675000Y-60700000D03*
D13*
X165175000Y-60700000D03*
D15*
X154675000Y-64400000D03*
X159675000Y-66600000D03*
%TD*%
D19*
%TO.C,SW25*%
X354375000Y-62000000D03*
D15*
X354375000Y-57000000D03*
X354375000Y-59500000D03*
D20*
X346875000Y-65100000D03*
X346875000Y-53900000D03*
D15*
X339875000Y-57000000D03*
X339875000Y-62000000D03*
%TD*%
D21*
%TO.C,D103*%
X158025000Y-4950000D03*
X161325000Y-4950000D03*
%TD*%
D22*
%TO.C,D125*%
X112175000Y-64649999D03*
X112175000Y-61349999D03*
%TD*%
D23*
%TO.C,Q1*%
X353125000Y-29500000D03*
X351225000Y-29500000D03*
X352175000Y-27500000D03*
%TD*%
D24*
%TO.C,R105*%
X118325000Y-38400000D03*
X116675000Y-38400000D03*
%TD*%
D25*
%TO.C,U101*%
X102162500Y-29150000D03*
X102162500Y-28200000D03*
X102162500Y-27250000D03*
X104437500Y-27250000D03*
X104437500Y-29150000D03*
%TD*%
D18*
%TO.C,D33*%
X350900000Y-25500000D03*
X353400000Y-25500000D03*
%TD*%
D26*
%TO.C,R101*%
X90175000Y-10875000D03*
X90175000Y-12525000D03*
%TD*%
D21*
%TO.C,D101*%
X127635955Y-6362500D03*
X130935955Y-6362500D03*
%TD*%
%TO.C,D120*%
X140025000Y-57300000D03*
X143325000Y-57300000D03*
%TD*%
%TO.C,D109*%
X158025000Y-21950000D03*
X161325000Y-21950000D03*
%TD*%
D27*
%TO.C,C101*%
X100400000Y-27425000D03*
X100400000Y-28975000D03*
%TD*%
D28*
%TO.C,D26*%
X328218301Y-80975000D03*
X331076185Y-79325000D03*
%TD*%
D21*
%TO.C,D112*%
X211975000Y-29250000D03*
X215275000Y-29250000D03*
%TD*%
%TO.C,D127*%
X140025000Y-79200000D03*
X143325000Y-79200000D03*
%TD*%
D26*
%TO.C,R103*%
X93600000Y-27675000D03*
X93600000Y-29325000D03*
%TD*%
D21*
%TO.C,D116*%
X175975000Y-40250000D03*
X179275000Y-40250000D03*
%TD*%
%TO.C,D118*%
X211975000Y-46250000D03*
X215275000Y-46250000D03*
%TD*%
D29*
%TO.C,R9*%
X354750000Y-29325000D03*
X354750000Y-27675000D03*
%TD*%
D21*
%TO.C,D14*%
X304825000Y-40200000D03*
X308125000Y-40200000D03*
%TD*%
D12*
%TO.C,H1*%
X315675000Y-54725000D03*
%TD*%
D21*
%TO.C,D111*%
X194025000Y-28250000D03*
X197325000Y-28250000D03*
%TD*%
%TO.C,D105*%
X194025000Y-11250000D03*
X197325000Y-11250000D03*
%TD*%
%TO.C,D110*%
X175975000Y-23250000D03*
X179275000Y-23250000D03*
%TD*%
%TO.C,D117*%
X194025000Y-45250000D03*
X197325000Y-45250000D03*
%TD*%
D30*
%TO.C,C3*%
X348575000Y-28975000D03*
X348575000Y-27425000D03*
%TD*%
D21*
%TO.C,D121*%
X158225000Y-56000000D03*
X161525000Y-56000000D03*
%TD*%
%TO.C,D11*%
X251025000Y-28250000D03*
X254325000Y-28250000D03*
%TD*%
D31*
%TO.C,C4*%
X351437500Y-31000000D03*
X352987500Y-31000000D03*
%TD*%
D12*
%TO.C,H3*%
X243675000Y-59025000D03*
%TD*%
D24*
%TO.C,R2*%
X345875000Y-30700000D03*
X344225000Y-30700000D03*
%TD*%
D21*
%TO.C,D19*%
X323025000Y-59650000D03*
X326325000Y-59650000D03*
%TD*%
D32*
%TO.C,Y101*%
X117860955Y-25862500D03*
X119510955Y-25862500D03*
%TD*%
D21*
%TO.C,D27*%
X305025000Y-79200000D03*
X308325000Y-79200000D03*
%TD*%
D24*
%TO.C,R102*%
X104125000Y-30700000D03*
X102475000Y-30700000D03*
%TD*%
D26*
%TO.C,R6*%
X358175000Y-10875000D03*
X358175000Y-12525000D03*
%TD*%
D21*
%TO.C,D16*%
X269075000Y-40250000D03*
X272375000Y-40250000D03*
%TD*%
%TO.C,D6*%
X233025000Y-12250000D03*
X236325000Y-12250000D03*
%TD*%
D32*
%TO.C,Y1*%
X336750000Y-25900000D03*
X338400000Y-25900000D03*
%TD*%
D21*
%TO.C,D122*%
X175975000Y-57250000D03*
X179275000Y-57250000D03*
%TD*%
%TO.C,D21*%
X286825000Y-56000000D03*
X290125000Y-56000000D03*
%TD*%
%TO.C,D22*%
X269075000Y-57250000D03*
X272375000Y-57250000D03*
%TD*%
D31*
%TO.C,C105*%
X106425000Y-30700000D03*
X107975000Y-30700000D03*
%TD*%
D21*
%TO.C,D17*%
X251025000Y-45250000D03*
X254325000Y-45250000D03*
%TD*%
D30*
%TO.C,C2*%
X340950000Y-27437500D03*
X340950000Y-25887500D03*
%TD*%
D33*
%TO.C,J106*%
X110000000Y-28650000D03*
X110000000Y-29650000D03*
D34*
X113875000Y-27350000D03*
X113875000Y-30950000D03*
%TD*%
D21*
%TO.C,D2*%
X304825000Y-6300000D03*
X308125000Y-6300000D03*
%TD*%
%TO.C,D7*%
X323075000Y-25650000D03*
X326375000Y-25650000D03*
%TD*%
D35*
%TO.C,R108*%
X102775000Y-13250000D03*
X104425000Y-13250000D03*
%TD*%
D21*
%TO.C,D113*%
X122025000Y-42650000D03*
X125325000Y-42650000D03*
%TD*%
D36*
%TO.C,C103*%
X123035955Y-26562500D03*
X121485955Y-26562500D03*
%TD*%
D26*
%TO.C,R106*%
X106200000Y-10875000D03*
X106200000Y-12525000D03*
%TD*%
D35*
%TO.C,R4*%
X330025000Y-36800000D03*
X331675000Y-36800000D03*
%TD*%
D21*
%TO.C,D10*%
X269075000Y-23250000D03*
X272375000Y-23250000D03*
%TD*%
%TO.C,D123*%
X193975000Y-62250000D03*
X197275000Y-62250000D03*
%TD*%
%TO.C,D12*%
X233075000Y-29250000D03*
X236375000Y-29250000D03*
%TD*%
D33*
%TO.C,J9*%
X338625000Y-29700000D03*
X338625000Y-28700000D03*
D34*
X334750000Y-31000000D03*
X334750000Y-27400000D03*
%TD*%
D37*
%TO.C,BATT101*%
X90550000Y-17700000D03*
X90550000Y-20700000D03*
D38*
X92800000Y-21450000D03*
X92800000Y-18450000D03*
X92800000Y-16950000D03*
D39*
X89400000Y-22800000D03*
X89400000Y-15600000D03*
X91700000Y-15600000D03*
X91700000Y-22800000D03*
%TD*%
D40*
%TO.C,U102*%
X120954955Y-10570000D03*
X120954955Y-11840000D03*
X120954955Y-13110000D03*
X120954955Y-14380000D03*
X120954955Y-15650000D03*
X120954955Y-16920000D03*
X120954955Y-18190000D03*
X120954955Y-19460000D03*
X120954955Y-20730000D03*
X120954955Y-22000000D03*
D41*
X119305955Y-24219000D03*
X118668955Y-22508000D03*
X118035955Y-24219000D03*
X117398955Y-22508000D03*
X116765955Y-24219000D03*
X116128955Y-22508000D03*
X115495955Y-24219000D03*
X114858955Y-22508000D03*
X114225955Y-24219000D03*
X113588955Y-22508000D03*
X112955955Y-24219000D03*
X112318955Y-22508000D03*
X111685955Y-24219000D03*
X111048955Y-22508000D03*
X110415955Y-24219000D03*
D40*
X108716955Y-22000000D03*
X108716955Y-20730000D03*
X110794955Y-19968000D03*
X108716955Y-19460000D03*
X110794955Y-18698000D03*
X108716955Y-18190000D03*
X110794955Y-17428000D03*
X108716955Y-16920000D03*
X110794955Y-16158000D03*
X108716955Y-15650000D03*
X110794955Y-14888000D03*
X108716955Y-14380000D03*
X110794955Y-13618000D03*
X108716955Y-13110000D03*
X110794955Y-12348000D03*
X108716955Y-11840000D03*
X110794955Y-11078000D03*
X108716955Y-10570000D03*
%TD*%
D16*
%TO.C,SWD/C101*%
X113900000Y-19900000D03*
D17*
X113900000Y-17360000D03*
X113900000Y-14820000D03*
X113900000Y-12280000D03*
%TD*%
D21*
%TO.C,D114*%
X140225000Y-40200000D03*
X143525000Y-40200000D03*
%TD*%
%TO.C,D28*%
X287025000Y-77900000D03*
X290325000Y-77900000D03*
%TD*%
%TO.C,D20*%
X305025000Y-57300000D03*
X308325000Y-57300000D03*
%TD*%
D42*
%TO.C,BattJumper1*%
X331400000Y-33100000D03*
X330100000Y-33100000D03*
%TD*%
D43*
%TO.C,U3*%
X344725000Y-25300000D03*
X343775000Y-25300000D03*
X342825000Y-25300000D03*
X342825000Y-23025000D03*
X344725000Y-23025000D03*
%TD*%
D35*
%TO.C,R8*%
X354950000Y-13100000D03*
X356600000Y-13100000D03*
%TD*%
D21*
%TO.C,D4*%
X269025000Y-6250000D03*
X272325000Y-6250000D03*
%TD*%
D24*
%TO.C,R107*%
X93762500Y-13600000D03*
X92112500Y-13600000D03*
%TD*%
D21*
%TO.C,D115*%
X158025000Y-38950000D03*
X161325000Y-38950000D03*
%TD*%
D27*
%TO.C,C5*%
X346375000Y-23525000D03*
X346375000Y-25075000D03*
%TD*%
D44*
%TO.C,RESET101*%
X90700000Y-28500000D03*
X90700000Y-25100000D03*
%TD*%
D21*
%TO.C,D18*%
X233075000Y-46250000D03*
X236375000Y-46250000D03*
%TD*%
%TO.C,D124*%
X212025000Y-63250000D03*
X215325000Y-63250000D03*
%TD*%
D12*
%TO.C,H6*%
X243675000Y-24825000D03*
%TD*%
D21*
%TO.C,D1*%
X323025000Y-8650000D03*
X326325000Y-8650000D03*
%TD*%
%TO.C,D128*%
X158025000Y-77900000D03*
X161325000Y-77900000D03*
%TD*%
D18*
%TO.C,D133*%
X97450000Y-25500000D03*
X94950000Y-25500000D03*
%TD*%
D26*
%TO.C,R1*%
X342150000Y-10875000D03*
X342150000Y-12525000D03*
%TD*%
D21*
%TO.C,D9*%
X287025000Y-21950000D03*
X290325000Y-21950000D03*
%TD*%
D45*
%TO.C,U103*%
X106200000Y-26662500D03*
X107150000Y-26662500D03*
X108100000Y-26662500D03*
X108100000Y-28937500D03*
X106200000Y-28937500D03*
%TD*%
D35*
%TO.C,R104*%
X116675000Y-36800000D03*
X118325000Y-36800000D03*
%TD*%
D24*
%TO.C,R7*%
X345887500Y-13100000D03*
X344237500Y-13100000D03*
%TD*%
D12*
%TO.C,H5*%
X315775000Y-20725000D03*
%TD*%
D21*
%TO.C,D8*%
X305125000Y-23200000D03*
X308425000Y-23200000D03*
%TD*%
D22*
%TO.C,D25*%
X336175000Y-64649999D03*
X336175000Y-61349999D03*
%TD*%
D21*
%TO.C,D108*%
X139925000Y-23200000D03*
X143225000Y-23200000D03*
%TD*%
%TO.C,D106*%
X212025000Y-12250000D03*
X215325000Y-12250000D03*
%TD*%
D44*
%TO.C,RESET1*%
X357650000Y-25100000D03*
X357650000Y-28500000D03*
%TD*%
D36*
%TO.C,C102*%
X96912500Y-31000000D03*
X95362500Y-31000000D03*
%TD*%
D21*
%TO.C,D15*%
X287025000Y-38950000D03*
X290325000Y-38950000D03*
%TD*%
%TO.C,D3*%
X287025000Y-4950000D03*
X290325000Y-4950000D03*
%TD*%
D18*
%TO.C,J103*%
X132700000Y-38000000D03*
%TD*%
D21*
%TO.C,D5*%
X251025000Y-11250000D03*
X254325000Y-11250000D03*
%TD*%
D12*
%TO.C,H2*%
X349950000Y-77600000D03*
%TD*%
D42*
%TO.C,BattJumper101*%
X117750000Y-44550000D03*
X119050000Y-44550000D03*
%TD*%
D21*
%TO.C,D23*%
X251075000Y-62250000D03*
X254375000Y-62250000D03*
%TD*%
D46*
%TO.C,D126*%
X117273815Y-79325000D03*
X120131699Y-80975000D03*
%TD*%
D25*
%TO.C,U1*%
X343912500Y-29150000D03*
X343912500Y-28200000D03*
X343912500Y-27250000D03*
X346187500Y-27250000D03*
X346187500Y-29150000D03*
%TD*%
D21*
%TO.C,D102*%
X140225000Y-6300000D03*
X143525000Y-6300000D03*
%TD*%
D36*
%TO.C,C104*%
X123060955Y-25000000D03*
X121510955Y-25000000D03*
%TD*%
D47*
%TO.C,J101*%
X101175000Y-11975000D03*
X94775000Y-11975000D03*
X95575000Y-11975000D03*
X100375000Y-11975000D03*
D48*
X96725000Y-11975000D03*
X97725000Y-11975000D03*
X98225000Y-11975000D03*
X99225000Y-11975000D03*
X99725000Y-11975000D03*
X98725000Y-11975000D03*
X97225000Y-11975000D03*
X96217000Y-11975000D03*
D49*
X92399700Y-7680100D03*
X103550300Y-7667400D03*
X92399400Y-10694000D03*
X103550300Y-11210700D03*
X103550000Y-11456000D03*
X92400000Y-6460900D03*
X103550300Y-7032400D03*
X92399400Y-10956700D03*
X103550000Y-10694000D03*
X92399700Y-6740300D03*
X92399700Y-11210700D03*
X103550600Y-6448200D03*
X92399400Y-11456000D03*
X103550300Y-6727600D03*
X103550000Y-10956700D03*
X103550300Y-7375300D03*
X92399700Y-7045100D03*
X92399700Y-7388000D03*
%TD*%
D12*
%TO.C,H4*%
X349950000Y-18600000D03*
%TD*%
D23*
%TO.C,Q102*%
X95225000Y-27500000D03*
X97125000Y-27500000D03*
X96175000Y-29500000D03*
%TD*%
D40*
%TO.C,U2*%
X339633045Y-10570000D03*
X339633045Y-11840000D03*
X339633045Y-13110000D03*
X339633045Y-14380000D03*
X339633045Y-15650000D03*
X339633045Y-16920000D03*
X339633045Y-18190000D03*
X339633045Y-19460000D03*
X339633045Y-20730000D03*
X339633045Y-22000000D03*
D41*
X337984045Y-24219000D03*
X337347045Y-22508000D03*
X336714045Y-24219000D03*
X336077045Y-22508000D03*
X335444045Y-24219000D03*
X334807045Y-22508000D03*
X334174045Y-24219000D03*
X333537045Y-22508000D03*
X332904045Y-24219000D03*
X332267045Y-22508000D03*
X331634045Y-24219000D03*
X330997045Y-22508000D03*
X330364045Y-24219000D03*
X329727045Y-22508000D03*
X329094045Y-24219000D03*
D40*
X327395045Y-22000000D03*
X327395045Y-20730000D03*
X329473045Y-19968000D03*
X327395045Y-19460000D03*
X329473045Y-18698000D03*
X327395045Y-18190000D03*
X329473045Y-17428000D03*
X327395045Y-16920000D03*
X329473045Y-16158000D03*
X327395045Y-15650000D03*
X329473045Y-14888000D03*
X327395045Y-14380000D03*
X329473045Y-13618000D03*
X327395045Y-13110000D03*
X329473045Y-12348000D03*
X327395045Y-11840000D03*
X329473045Y-11078000D03*
X327395045Y-10570000D03*
%TD*%
D21*
%TO.C,D119*%
X122025000Y-59650000D03*
X125325000Y-59650000D03*
%TD*%
D37*
%TO.C,BATT1*%
X357800000Y-20700000D03*
X357800000Y-17700000D03*
D38*
X355550000Y-16950000D03*
X355550000Y-19950000D03*
X355550000Y-21450000D03*
D39*
X358950000Y-15600000D03*
X358950000Y-22800000D03*
X356650000Y-22800000D03*
X356650000Y-15600000D03*
%TD*%
D21*
%TO.C,D107*%
X124750000Y-26800000D03*
X128050000Y-26800000D03*
%TD*%
D24*
%TO.C,R5*%
X331675000Y-38400000D03*
X330025000Y-38400000D03*
%TD*%
D31*
%TO.C,C1*%
X333500000Y-25800000D03*
X335050000Y-25800000D03*
%TD*%
D47*
%TO.C,J1*%
X353575000Y-11975000D03*
X347175000Y-11975000D03*
X347975000Y-11975000D03*
X352775000Y-11975000D03*
D48*
X349125000Y-11975000D03*
X350125000Y-11975000D03*
X350625000Y-11975000D03*
X351625000Y-11975000D03*
X352125000Y-11975000D03*
X351125000Y-11975000D03*
X349625000Y-11975000D03*
X348617000Y-11975000D03*
D49*
X344799700Y-7680100D03*
X355950300Y-7667400D03*
X344799400Y-10694000D03*
X355950300Y-11210700D03*
X355950000Y-11456000D03*
X344800000Y-6460900D03*
X355950300Y-7032400D03*
X344799400Y-10956700D03*
X355950000Y-10694000D03*
X344799700Y-6740300D03*
X344799700Y-11210700D03*
X355950600Y-6448200D03*
X344799400Y-11456000D03*
X355950300Y-6727600D03*
X355950000Y-10956700D03*
X355950300Y-7375300D03*
X344799700Y-7045100D03*
X344799700Y-7388000D03*
%TD*%
D21*
%TO.C,D13*%
X323025000Y-42650000D03*
X326325000Y-42650000D03*
%TD*%
%TO.C,D24*%
X233025000Y-63250000D03*
X236325000Y-63250000D03*
%TD*%
%TO.C,D104*%
X176025000Y-6250000D03*
X179325000Y-6250000D03*
%TD*%
M02*
