M48
; DRILL file {KiCad (5.99.0-8557-g8988e46ab1)} date Wednesday, February 24, 2021 at 09:03:01 AM
; FORMAT={-:-/ absolute / inch / decimal}
; #@! TF.CreationDate,2021-02-24T09:03:01-07:00
; #@! TF.GenerationSoftware,Kicad,Pcbnew,(5.99.0-8557-g8988e46ab1)
; #@! TF.FileFunction,Plated,1,2,PTH
FMAT,2
INCH
T1C0.0130
T2C0.0157
T3C0.0236
T4C0.0276
T5C0.0394
T6C0.0472
T7C0.0591
%
G90
G05
T1
X3.5512Y-1.2283
X3.5669Y-0.2953
X3.5748Y-1.0512
X3.5906Y-2.1339
X3.6644Y-0.6122
X3.6781Y-0.9547
X3.7087Y-3.0787
X3.7372Y-1.122
X3.7506Y-0.5013
X3.8061Y-0.6004
X3.814Y-0.5335
X3.8268Y-2.2126
X3.8839Y-0.9882
X3.8848Y-0.5335
X3.8848Y-1.2205
X3.9144Y-1.0138
X3.9449Y-2.7244
X3.975Y-0.5092
X3.9843Y-1.189
X4.1024Y-0.7559
X4.1024Y-0.9528
X4.1506Y-0.5709
X4.1811Y-0.2835
X4.189Y-0.9685
X4.2185Y-0.998
X4.2205Y-3.1969
X4.2323Y-0.4134
X4.2372Y-0.8701
X4.2972Y-1.2106
X4.3169Y-1.0866
X4.3268Y-0.9094
X4.3661Y-0.8209
X4.4055Y-0.7421
X4.4085Y-2.1122
X4.4252Y-0.5354
X4.5433Y-2.2677
X4.563Y-0.7126
X4.5787Y-0.6007
X4.5866Y-2.4724
X4.6417Y-1.6378
X4.6526Y-0.4331
X4.6535Y-2.2913
X4.6535Y-2.4488
X4.6929Y-1.5669
X4.7199Y-1.1009
X4.8144Y-0.6363
X4.8538Y-1.1009
X4.9291Y-0.8346
X4.9291Y-3.4331
X4.9921Y-0.4946
X5.0079Y-1.189
X5.0157Y-0.9921
X5.0866Y-0.7953
X5.1654Y-1.8583
X5.2047Y-0.3622
X5.2047Y-2.5276
X5.7165Y-0.3622
X5.874Y-1.1102
X5.874Y-1.7795
X5.874Y-2.4488
X5.874Y-3.315
X6.1496Y-0.3622
X6.5827Y-1.7402
X6.5827Y-2.4094
X6.5827Y-3.2362
X6.622Y-0.3622
X6.622Y-0.9134
X6.622Y-1.0709
X7.1732Y-0.3622
X7.2913Y-1.7795
X7.2913Y-2.4488
X7.3307Y-1.1102
X7.6644Y-1.0138
X7.8022Y-1.0138
X8.0Y-1.3071
X8.0Y-2.6457
X8.0394Y-0.6378
X8.0394Y-1.9764
X8.5512Y-0.6772
X8.7087Y-1.3465
X8.7087Y-2.0157
X8.7087Y-2.685
X9.5423Y-0.6772
X9.5541Y-1.3386
X9.5541Y-2.0079
X9.5541Y-2.6772
X10.2628Y-0.6299
X10.2628Y-1.2992
X10.2628Y-1.9685
X10.2628Y-2.6378
X10.9715Y-0.4331
X10.9715Y-1.1024
X10.9715Y-1.7717
X10.9715Y-2.4409
X11.6801Y-0.3937
X11.6801Y-1.063
X11.6801Y-1.7323
X11.6801Y-2.4016
X11.6801Y-3.189
X12.1919Y-0.4331
X12.2313Y-0.7874
X12.3494Y-0.9685
X12.3888Y-1.1024
X12.3888Y-1.7717
X12.3888Y-2.4409
X12.3888Y-3.3071
X12.5502Y-0.6102
X12.6053Y-0.5866
X12.6407Y-0.4409
X12.6407Y-0.5551
X12.6722Y-0.5748
X12.6919Y-0.5039
X12.6998Y-0.7835
X12.7077Y-2.2677
X12.7077Y-3.0512
X12.7116Y-0.8189
X12.7116Y-0.874
X12.7352Y-0.6969
X12.7352Y-0.8465
X12.7352Y-0.8976
X12.7667Y-0.9134
X12.7667Y-1.0315
X12.7746Y-0.3504
X12.7943Y-0.937
X12.8031Y-0.6535
X12.8327Y-1.5551
X12.873Y-0.9291
X12.9026Y-0.9547
X12.9281Y-1.5787
X12.9508Y-1.5236
X12.9754Y-1.063
X13.0187Y-1.0079
X13.0187Y-1.7717
X13.0295Y-0.5157
X13.0896Y-1.0866
X13.0974Y-2.5197
X13.187Y-0.4272
X13.1919Y-0.5827
X13.1919Y-0.6772
X13.1919Y-0.7795
X13.2943Y-0.4213
X13.3061Y-0.5433
X13.3169Y-0.8465
X13.373Y-3.189
X13.374Y-1.0669
X13.4124Y-0.6142
X13.4203Y-0.7677
X13.4203Y-0.8189
X13.4242Y-0.7205
X13.4281Y-0.6693
X13.4429Y-0.9193
X13.4518Y-0.2913
X13.4715Y-0.5551
X13.4823Y-1.1752
X13.4911Y-0.7165
X13.4921Y-1.0945
X13.5148Y-0.8189
X13.5226Y-0.2913
X13.5305Y-0.5669
X13.5807Y-2.8976
X13.5869Y-1.11
X13.6486Y-0.685
X13.6722Y-0.5197
X13.689Y-0.9882
X13.7274Y-2.3622
X13.747Y-0.5512
X13.751Y-0.5197
X13.8041Y-0.5177
X13.8356Y-0.5492
X13.9006Y-0.5236
X13.9174Y-1.063
X13.9439Y-0.878
X13.9776Y-2.8323
X13.9793Y-0.5906
X14.0581Y-1.2047
X14.0896Y-0.2913
T2
X4.5216Y-1.0059
X13.7234Y-1.2008
X13.9636Y-0.9311
T3
X3.6378Y-0.421
X3.6378Y-0.4314
X3.6378Y-0.451
X3.6378Y-0.2654
X3.6378Y-0.2774
X3.6378Y-0.2909
X3.6378Y-0.3024
X3.6378Y-0.4414
X3.6378Y-0.2544
X4.0768Y-0.421
X4.0768Y-0.4314
X4.0768Y-0.451
X4.0768Y-0.2649
X4.0768Y-0.2769
X4.0768Y-0.2904
X4.0768Y-0.3019
X4.0768Y-0.4414
X4.0768Y-0.2539
X13.5748Y-0.421
X13.5748Y-0.4314
X13.5748Y-0.451
X13.5748Y-0.2654
X13.5748Y-0.2774
X13.5748Y-0.2909
X13.5748Y-0.3024
X13.5748Y-0.4414
X13.5748Y-0.2544
X14.0138Y-0.421
X14.0138Y-0.4314
X14.0138Y-0.451
X14.0138Y-0.2649
X14.0138Y-0.2769
X14.0138Y-0.2904
X14.0138Y-0.3019
X14.0138Y-0.4414
X14.0138Y-0.2539
T4
X5.2244Y-1.4961
X5.2244Y-1.6378
X12.4311Y-1.4094
X12.4311Y-1.5512
T5
X3.6998Y-2.2441
X3.6998Y-2.3425
X3.6998Y-2.4409
X4.2707Y-2.2441
X4.2707Y-2.4409
X4.4843Y-0.4835
X4.4843Y-0.5835
X4.4843Y-0.6835
X4.4843Y-0.7835
X12.4203Y-0.2551
X12.4203Y-0.3551
X12.4203Y-0.4551
X12.4203Y-0.5551
X13.3809Y-2.2441
X13.3809Y-2.4409
X13.9518Y-2.2441
X13.9518Y-2.3425
X13.9518Y-2.4409
T6
X4.3344Y-3.3427
X4.4616Y-3.5161
X4.6722Y-1.3425
X4.6722Y-2.0118
X4.6722Y-2.6811
X4.8691Y-0.2953
X4.8691Y-1.4291
X4.8691Y-2.0984
X4.8691Y-2.7677
X5.0659Y-0.3819
X5.377Y-3.4528
X5.3809Y-0.5787
X5.3809Y-1.248
X5.3809Y-1.9173
X5.3809Y-2.5866
X5.5738Y-3.5394
X5.5778Y-0.6654
X5.5778Y-1.3346
X5.5778Y-2.0039
X5.5778Y-2.6732
X6.0896Y-0.5276
X6.0896Y-1.1969
X6.0896Y-1.8661
X6.0896Y-2.5354
X6.0896Y-3.4016
X6.2864Y-0.6142
X6.2864Y-1.2835
X6.2864Y-1.9528
X6.2864Y-2.622
X6.2864Y-3.4882
X6.7982Y-0.5787
X6.7982Y-1.248
X6.7982Y-1.9173
X6.7982Y-2.5866
X6.9951Y-0.6654
X6.9951Y-1.3346
X6.9951Y-2.0039
X6.9951Y-2.6732
X7.5069Y-0.7756
X7.5069Y-1.4449
X7.5069Y-2.1142
X7.5069Y-2.7835
X7.7037Y-0.8622
X7.7037Y-1.5315
X7.7037Y-2.2008
X7.7037Y-2.8701
X8.2156Y-0.815
X8.2156Y-1.4843
X8.2156Y-2.1535
X8.2156Y-2.8228
X8.4124Y-0.9016
X8.4124Y-1.5709
X8.4124Y-2.2402
X8.4124Y-2.9094
X9.0423Y-0.815
X9.0423Y-1.4843
X9.0423Y-2.1535
X9.0423Y-2.8228
X9.2392Y-0.9016
X9.2392Y-1.5709
X9.2392Y-2.2402
X9.2392Y-2.9094
X9.751Y-0.7756
X9.751Y-1.4449
X9.751Y-2.1142
X9.751Y-2.7835
X9.9478Y-0.8622
X9.9478Y-1.5315
X9.9478Y-2.2008
X9.9478Y-2.8701
X10.4596Y-0.5787
X10.4596Y-1.248
X10.4596Y-1.9173
X10.4596Y-2.5866
X10.6565Y-0.6654
X10.6565Y-1.3346
X10.6565Y-2.0039
X10.6565Y-2.6732
X11.1683Y-0.5276
X11.1683Y-1.1969
X11.1683Y-1.8661
X11.1683Y-2.5354
X11.1683Y-3.4016
X11.3652Y-0.6142
X11.3652Y-1.2835
X11.3652Y-1.9528
X11.3652Y-2.622
X11.3652Y-3.4882
X11.877Y-0.5787
X11.877Y-1.248
X11.877Y-1.9173
X11.877Y-2.5866
X11.8809Y-3.4528
X12.0738Y-0.6654
X12.0738Y-1.3346
X12.0738Y-2.0039
X12.0738Y-2.6732
X12.0778Y-3.5394
X12.5856Y-0.6732
X12.5856Y-1.3425
X12.5856Y-2.0118
X12.5856Y-2.6811
X12.7825Y-0.7598
X12.7825Y-1.4291
X12.7825Y-2.0984
X12.7825Y-2.7677
X12.9762Y-3.5395
X13.19Y-3.5161
T7
G00X3.9695Y-2.122
M15
G01X4.0207Y-2.122
M16
G05
G00X3.9695Y-2.563
M15
G01X4.0207Y-2.563
M16
G05
G00X13.6821Y-2.122
M15
G01X13.6309Y-2.122
M16
G05
G00X13.6821Y-2.563
M15
G01X13.6309Y-2.563
M16
G05
T0
M30
