%TF.GenerationSoftware,KiCad,Pcbnew,(5.99.0-8557-g8988e46ab1)*%
%TF.CreationDate,2021-02-24T09:02:56-07:00*%
%TF.ProjectId,SP56,53503536-2e6b-4696-9361-645f70636258,rev?*%
%TF.SameCoordinates,Original*%
%TF.FileFunction,Soldermask,Top*%
%TF.FilePolarity,Negative*%
%FSLAX46Y46*%
G04 Gerber Fmt 4.6, Leading zero omitted, Abs format (unit mm)*
G04 Created by KiCad (PCBNEW (5.99.0-8557-g8988e46ab1)) date 2021-02-24 09:02:56*
%MOMM*%
%LPD*%
G01*
G04 APERTURE LIST*
G04 Aperture macros list*
%AMRoundRect*
0 Rectangle with rounded corners*
0 $1 Rounding radius*
0 $2 $3 $4 $5 $6 $7 $8 $9 X,Y pos of 4 corners*
0 Add a 4 corners polygon primitive as box body*
4,1,4,$2,$3,$4,$5,$6,$7,$8,$9,$2,$3,0*
0 Add four circle primitives for the rounded corners*
1,1,$1+$1,$2,$3*
1,1,$1+$1,$4,$5*
1,1,$1+$1,$6,$7*
1,1,$1+$1,$8,$9*
0 Add four rect primitives between the rounded corners*
20,1,$1+$1,$2,$3,$4,$5,0*
20,1,$1+$1,$4,$5,$6,$7,0*
20,1,$1+$1,$6,$7,$8,$9,0*
20,1,$1+$1,$8,$9,$2,$3,0*%
G04 Aperture macros list end*
%ADD10C,0.500000*%
%ADD11C,0.600000*%
%ADD12C,4.300000*%
%ADD13C,1.900000*%
%ADD14C,3.400000*%
%ADD15C,2.000000*%
%ADD16R,1.700000X1.700000*%
%ADD17O,1.700000X1.700000*%
%ADD18R,1.000000X1.000000*%
%ADD19RoundRect,0.218750X0.218750X0.256250X-0.218750X0.256250X-0.218750X-0.256250X0.218750X-0.256250X0*%
%ADD20RoundRect,0.218750X-0.218750X-0.256250X0.218750X-0.256250X0.218750X0.256250X-0.218750X0.256250X0*%
%ADD21R,2.000000X2.000000*%
%ADD22R,3.200000X2.000000*%
%ADD23C,0.900000*%
%ADD24C,1.000000*%
G04 APERTURE END LIST*
D10*
%TO.C,REF\u002A\u002A*%
X223175000Y-11500000D03*
X225175000Y-11500000D03*
D11*
X223175000Y-15500000D03*
D10*
X223175000Y-12500000D03*
X225175000Y-14500000D03*
D11*
X223175000Y-10500000D03*
D10*
X223175000Y-14500000D03*
D11*
X225175000Y-15500000D03*
D10*
X225175000Y-13500000D03*
X223175000Y-13500000D03*
X225175000Y-12500000D03*
D11*
X225175000Y-10500000D03*
%TD*%
D10*
%TO.C,REF\u002A\u002A*%
X223175000Y-41000000D03*
X225175000Y-41000000D03*
D11*
X223175000Y-45000000D03*
D10*
X223175000Y-42000000D03*
X225175000Y-44000000D03*
D11*
X223175000Y-40000000D03*
D10*
X223175000Y-44000000D03*
D11*
X225175000Y-45000000D03*
D10*
X225175000Y-43000000D03*
X223175000Y-43000000D03*
X225175000Y-42000000D03*
D11*
X225175000Y-40000000D03*
%TD*%
D10*
%TO.C,REF\u002A\u002A*%
X223175000Y-70500000D03*
X225175000Y-70500000D03*
D11*
X223175000Y-74500000D03*
D10*
X223175000Y-71500000D03*
X225175000Y-73500000D03*
D11*
X223175000Y-69500000D03*
D10*
X223175000Y-73500000D03*
D11*
X225175000Y-74500000D03*
D10*
X225175000Y-72500000D03*
X223175000Y-72500000D03*
X225175000Y-71500000D03*
D11*
X225175000Y-69500000D03*
%TD*%
D12*
%TO.C,H14*%
X98400000Y-77600000D03*
%TD*%
D13*
%TO.C,SW126*%
X121038140Y-86950000D03*
X111511860Y-81450000D03*
D14*
X116275000Y-84200000D03*
D15*
X110094873Y-84904294D03*
X113325000Y-89309550D03*
%TD*%
D16*
%TO.C,SWD/C1*%
X315475000Y-14100000D03*
D17*
X315475000Y-11560000D03*
X315475000Y-9020000D03*
X315475000Y-6480000D03*
%TD*%
D13*
%TO.C,SW113*%
X129175000Y-47400000D03*
D14*
X123675000Y-47400000D03*
D13*
X118175000Y-47400000D03*
D15*
X118675000Y-51100000D03*
X123675000Y-53300000D03*
%TD*%
D14*
%TO.C,SW2*%
X306675000Y-11000000D03*
D13*
X312175000Y-11000000D03*
X301175000Y-11000000D03*
D15*
X301675000Y-14700000D03*
X306675000Y-16900000D03*
%TD*%
D13*
%TO.C,SW21*%
X283175000Y-60700000D03*
X294175000Y-60700000D03*
D14*
X288675000Y-60700000D03*
D15*
X283675000Y-64400000D03*
X288675000Y-66600000D03*
%TD*%
D13*
%TO.C,SW9*%
X283175000Y-26700000D03*
D14*
X288675000Y-26700000D03*
D13*
X294175000Y-26700000D03*
D15*
X283675000Y-30400000D03*
X288675000Y-32600000D03*
%TD*%
D13*
%TO.C,SW1*%
X319175000Y-13400000D03*
D14*
X324675000Y-13400000D03*
D13*
X330175000Y-13400000D03*
D15*
X319675000Y-17100000D03*
X324675000Y-19300000D03*
%TD*%
D18*
%TO.C,J3*%
X315750000Y-35800000D03*
%TD*%
D14*
%TO.C,SW11*%
X252675000Y-33000000D03*
D13*
X258175000Y-33000000D03*
X247175000Y-33000000D03*
D15*
X247675000Y-36700000D03*
X252675000Y-38900000D03*
%TD*%
D14*
%TO.C,SW119*%
X123675000Y-64400000D03*
D13*
X129175000Y-64400000D03*
X118175000Y-64400000D03*
D15*
X118675000Y-68100000D03*
X123675000Y-70300000D03*
%TD*%
D18*
%TO.C,J2*%
X315750000Y-39400000D03*
%TD*%
D13*
%TO.C,SW106*%
X219175000Y-17000000D03*
D14*
X213675000Y-17000000D03*
D13*
X208175000Y-17000000D03*
D15*
X208675000Y-20700000D03*
X213675000Y-22900000D03*
%TD*%
D13*
%TO.C,SW28*%
X294175000Y-82700000D03*
X283175000Y-82700000D03*
D14*
X288675000Y-82700000D03*
D15*
X283675000Y-86400000D03*
X288675000Y-88600000D03*
%TD*%
D14*
%TO.C,SW127*%
X141575000Y-84000000D03*
D13*
X136075000Y-84000000D03*
X147075000Y-84000000D03*
D15*
X136575000Y-87700000D03*
X141575000Y-89900000D03*
%TD*%
D13*
%TO.C,SW26*%
X336838140Y-81450000D03*
X327311860Y-86950000D03*
D14*
X332075000Y-84200000D03*
D15*
X329594873Y-89904294D03*
X335025000Y-89309550D03*
%TD*%
D14*
%TO.C,SW123*%
X195675000Y-67000000D03*
D13*
X201175000Y-67000000D03*
X190175000Y-67000000D03*
D15*
X190675000Y-70700000D03*
X195675000Y-72900000D03*
%TD*%
D14*
%TO.C,SW115*%
X159675000Y-43700000D03*
D13*
X165175000Y-43700000D03*
X154175000Y-43700000D03*
D15*
X154675000Y-47400000D03*
X159675000Y-49600000D03*
%TD*%
D13*
%TO.C,SW18*%
X229175000Y-51000000D03*
X240175000Y-51000000D03*
D14*
X234675000Y-51000000D03*
D15*
X229675000Y-54700000D03*
X234675000Y-56900000D03*
%TD*%
D13*
%TO.C,SW27*%
X301275000Y-84000000D03*
D14*
X306775000Y-84000000D03*
D13*
X312275000Y-84000000D03*
D15*
X301775000Y-87700000D03*
X306775000Y-89900000D03*
%TD*%
D13*
%TO.C,SW19*%
X330175000Y-64400000D03*
X319175000Y-64400000D03*
D14*
X324675000Y-64400000D03*
D15*
X319675000Y-68100000D03*
X324675000Y-70300000D03*
%TD*%
D13*
%TO.C,SW17*%
X258175000Y-50000000D03*
D14*
X252675000Y-50000000D03*
D13*
X247175000Y-50000000D03*
D15*
X247675000Y-53700000D03*
X252675000Y-55900000D03*
%TD*%
D12*
%TO.C,H10*%
X132575000Y-20725000D03*
%TD*%
D13*
%TO.C,SW7*%
X330175000Y-30400000D03*
X319175000Y-30400000D03*
D14*
X324675000Y-30400000D03*
D15*
X319675000Y-34100000D03*
X324675000Y-36300000D03*
%TD*%
D13*
%TO.C,SW103*%
X165175000Y-9700000D03*
D14*
X159675000Y-9700000D03*
D13*
X154175000Y-9700000D03*
D15*
X154675000Y-13400000D03*
X159675000Y-15600000D03*
%TD*%
D12*
%TO.C,H8*%
X274950000Y-77600000D03*
%TD*%
%TO.C,H13*%
X132675000Y-54725000D03*
%TD*%
D13*
%TO.C,SW15*%
X283175000Y-43700000D03*
D14*
X288675000Y-43700000D03*
D13*
X294175000Y-43700000D03*
D15*
X283675000Y-47400000D03*
X288675000Y-49600000D03*
%TD*%
D12*
%TO.C,H11*%
X204675000Y-24825000D03*
%TD*%
D14*
%TO.C,SW104*%
X177675000Y-11000000D03*
D13*
X183175000Y-11000000D03*
X172175000Y-11000000D03*
D15*
X172675000Y-14700000D03*
X177675000Y-16900000D03*
%TD*%
D18*
%TO.C,J104*%
X132700000Y-41600000D03*
%TD*%
D13*
%TO.C,SW20*%
X312175000Y-62000000D03*
X301175000Y-62000000D03*
D14*
X306675000Y-62000000D03*
D15*
X301675000Y-65700000D03*
X306675000Y-67900000D03*
%TD*%
D13*
%TO.C,SW22*%
X265175000Y-62000000D03*
D14*
X270675000Y-62000000D03*
D13*
X276175000Y-62000000D03*
D15*
X265675000Y-65700000D03*
X270675000Y-67900000D03*
%TD*%
D13*
%TO.C,SW16*%
X276175000Y-45000000D03*
D14*
X270675000Y-45000000D03*
D13*
X265175000Y-45000000D03*
D15*
X265675000Y-48700000D03*
X270675000Y-50900000D03*
%TD*%
D13*
%TO.C,SW118*%
X219175000Y-51000000D03*
X208175000Y-51000000D03*
D14*
X213675000Y-51000000D03*
D15*
X208675000Y-54700000D03*
X213675000Y-56900000D03*
%TD*%
D13*
%TO.C,SW10*%
X276175000Y-28000000D03*
D14*
X270675000Y-28000000D03*
D13*
X265175000Y-28000000D03*
D15*
X265675000Y-31700000D03*
X270675000Y-33900000D03*
%TD*%
D14*
%TO.C,SW101*%
X123675000Y-13400000D03*
D13*
X118175000Y-13400000D03*
X129175000Y-13400000D03*
D15*
X128675000Y-9700000D03*
X123675000Y-7500000D03*
%TD*%
D13*
%TO.C,SW23*%
X247175000Y-67000000D03*
X258175000Y-67000000D03*
D14*
X252675000Y-67000000D03*
D15*
X247675000Y-70700000D03*
X252675000Y-72900000D03*
%TD*%
D13*
%TO.C,SW5*%
X258175000Y-16000000D03*
X247175000Y-16000000D03*
D14*
X252675000Y-16000000D03*
D15*
X247675000Y-19700000D03*
X252675000Y-21900000D03*
%TD*%
D13*
%TO.C,SW110*%
X183175000Y-28000000D03*
X172175000Y-28000000D03*
D14*
X177675000Y-28000000D03*
D15*
X172675000Y-31700000D03*
X177675000Y-33900000D03*
%TD*%
D14*
%TO.C,SW8*%
X306675000Y-28000000D03*
D13*
X312175000Y-28000000D03*
X301175000Y-28000000D03*
D15*
X301675000Y-31700000D03*
X306675000Y-33900000D03*
%TD*%
D13*
%TO.C,SW114*%
X147175000Y-45000000D03*
D14*
X141675000Y-45000000D03*
D13*
X136175000Y-45000000D03*
D15*
X136675000Y-48700000D03*
X141675000Y-50900000D03*
%TD*%
D14*
%TO.C,SW4*%
X270675000Y-11000000D03*
D13*
X276175000Y-11000000D03*
X265175000Y-11000000D03*
D15*
X265675000Y-14700000D03*
X270675000Y-16900000D03*
%TD*%
D12*
%TO.C,H12*%
X204675000Y-59025000D03*
%TD*%
D19*
%TO.C,D132*%
X106887500Y-9100000D03*
X105312500Y-9100000D03*
%TD*%
D14*
%TO.C,SW13*%
X324675000Y-47400000D03*
D13*
X319175000Y-47400000D03*
X330175000Y-47400000D03*
D15*
X319675000Y-51100000D03*
X324675000Y-53300000D03*
%TD*%
D20*
%TO.C,D31*%
X341462500Y-9100000D03*
X343037500Y-9100000D03*
%TD*%
D12*
%TO.C,H15*%
X129400000Y-77600000D03*
%TD*%
D13*
%TO.C,SW124*%
X219175000Y-68000000D03*
D14*
X213675000Y-68000000D03*
D13*
X208175000Y-68000000D03*
D15*
X208675000Y-71700000D03*
X213675000Y-73900000D03*
%TD*%
D21*
%TO.C,SW125*%
X93975000Y-57000000D03*
D15*
X93975000Y-62000000D03*
X93975000Y-59500000D03*
D22*
X101475000Y-53900000D03*
X101475000Y-65100000D03*
D15*
X108475000Y-62000000D03*
X108475000Y-57000000D03*
%TD*%
D13*
%TO.C,SW108*%
X147175000Y-28000000D03*
X136175000Y-28000000D03*
D14*
X141675000Y-28000000D03*
D15*
X136675000Y-31700000D03*
X141675000Y-33900000D03*
%TD*%
D12*
%TO.C,H7*%
X318950000Y-77600000D03*
%TD*%
D20*
%TO.C,D32*%
X357162500Y-9125000D03*
X358737500Y-9125000D03*
%TD*%
D13*
%TO.C,SW128*%
X165175000Y-82700000D03*
D14*
X159675000Y-82700000D03*
D13*
X154175000Y-82700000D03*
D15*
X154675000Y-86400000D03*
X159675000Y-88600000D03*
%TD*%
D13*
%TO.C,SW111*%
X190175000Y-33000000D03*
D14*
X195675000Y-33000000D03*
D13*
X201175000Y-33000000D03*
D15*
X190675000Y-36700000D03*
X195675000Y-38900000D03*
%TD*%
D14*
%TO.C,SW122*%
X177675000Y-62000000D03*
D13*
X183175000Y-62000000D03*
X172175000Y-62000000D03*
D15*
X172675000Y-65700000D03*
X177675000Y-67900000D03*
%TD*%
D14*
%TO.C,SW112*%
X213675000Y-34000000D03*
D13*
X219175000Y-34000000D03*
X208175000Y-34000000D03*
D15*
X208675000Y-37700000D03*
X213675000Y-39900000D03*
%TD*%
D12*
%TO.C,H16*%
X173400000Y-77600000D03*
%TD*%
D14*
%TO.C,SW24*%
X234675000Y-68000000D03*
D13*
X240175000Y-68000000D03*
X229175000Y-68000000D03*
D15*
X229675000Y-71700000D03*
X234675000Y-73900000D03*
%TD*%
D14*
%TO.C,SW12*%
X234675000Y-34000000D03*
D13*
X229175000Y-34000000D03*
X240175000Y-34000000D03*
D15*
X229675000Y-37700000D03*
X234675000Y-39900000D03*
%TD*%
D13*
%TO.C,SW120*%
X147175000Y-62000000D03*
D14*
X141675000Y-62000000D03*
D13*
X136175000Y-62000000D03*
D15*
X136675000Y-65700000D03*
X141675000Y-67900000D03*
%TD*%
D13*
%TO.C,SW109*%
X165175000Y-26700000D03*
X154175000Y-26700000D03*
D14*
X159675000Y-26700000D03*
D15*
X154675000Y-30400000D03*
X159675000Y-32600000D03*
%TD*%
D14*
%TO.C,SW105*%
X195675000Y-16000000D03*
D13*
X190175000Y-16000000D03*
X201175000Y-16000000D03*
D15*
X190675000Y-19700000D03*
X195675000Y-21900000D03*
%TD*%
D13*
%TO.C,SW107*%
X129175000Y-30400000D03*
X118175000Y-30400000D03*
D14*
X123675000Y-30400000D03*
D15*
X118675000Y-34100000D03*
X123675000Y-36300000D03*
%TD*%
D13*
%TO.C,SW3*%
X283175000Y-9700000D03*
D14*
X288675000Y-9700000D03*
D13*
X294175000Y-9700000D03*
D15*
X283675000Y-13400000D03*
X288675000Y-15600000D03*
%TD*%
D13*
%TO.C,SW6*%
X229175000Y-17000000D03*
D14*
X234675000Y-17000000D03*
D13*
X240175000Y-17000000D03*
D15*
X229675000Y-20700000D03*
X234675000Y-22900000D03*
%TD*%
D13*
%TO.C,SW14*%
X301175000Y-45000000D03*
D14*
X306675000Y-45000000D03*
D13*
X312175000Y-45000000D03*
D15*
X301675000Y-48700000D03*
X306675000Y-50900000D03*
%TD*%
D13*
%TO.C,SW117*%
X201175000Y-50000000D03*
D14*
X195675000Y-50000000D03*
D13*
X190175000Y-50000000D03*
D15*
X190675000Y-53700000D03*
X195675000Y-55900000D03*
%TD*%
D13*
%TO.C,SW102*%
X136175000Y-11000000D03*
D14*
X141675000Y-11000000D03*
D13*
X147175000Y-11000000D03*
D15*
X136675000Y-14700000D03*
X141675000Y-16900000D03*
%TD*%
D12*
%TO.C,H9*%
X98400000Y-18600000D03*
%TD*%
D19*
%TO.C,D131*%
X91187500Y-9125000D03*
X89612500Y-9125000D03*
%TD*%
D13*
%TO.C,SW116*%
X172175000Y-45000000D03*
X183175000Y-45000000D03*
D14*
X177675000Y-45000000D03*
D15*
X172675000Y-48700000D03*
X177675000Y-50900000D03*
%TD*%
D13*
%TO.C,SW121*%
X154175000Y-60700000D03*
D14*
X159675000Y-60700000D03*
D13*
X165175000Y-60700000D03*
D15*
X154675000Y-64400000D03*
X159675000Y-66600000D03*
%TD*%
D21*
%TO.C,SW25*%
X354375000Y-62000000D03*
D15*
X354375000Y-57000000D03*
X354375000Y-59500000D03*
D22*
X346875000Y-65100000D03*
X346875000Y-53900000D03*
D15*
X339875000Y-57000000D03*
X339875000Y-62000000D03*
%TD*%
D12*
%TO.C,H1*%
X315675000Y-54725000D03*
%TD*%
%TO.C,H3*%
X243675000Y-59025000D03*
%TD*%
D23*
%TO.C,BATT101*%
X90550000Y-17700000D03*
X90550000Y-20700000D03*
%TD*%
D16*
%TO.C,SWD/C101*%
X113900000Y-19900000D03*
D17*
X113900000Y-17360000D03*
X113900000Y-14820000D03*
X113900000Y-12280000D03*
%TD*%
D12*
%TO.C,H6*%
X243675000Y-24825000D03*
%TD*%
%TO.C,H5*%
X315775000Y-20725000D03*
%TD*%
D18*
%TO.C,J103*%
X132700000Y-38000000D03*
%TD*%
D12*
%TO.C,H2*%
X349950000Y-77600000D03*
%TD*%
D24*
%TO.C,J101*%
X92399700Y-7680100D03*
X103550300Y-7667400D03*
X92399400Y-10694000D03*
X103550300Y-11210700D03*
X103550000Y-11456000D03*
X92400000Y-6460900D03*
X103550300Y-7032400D03*
X92399400Y-10956700D03*
X103550000Y-10694000D03*
X92399700Y-6740300D03*
X92399700Y-11210700D03*
X103550600Y-6448200D03*
X92399400Y-11456000D03*
X103550300Y-6727600D03*
X103550000Y-10956700D03*
X103550300Y-7375300D03*
X92399700Y-7045100D03*
X92399700Y-7388000D03*
%TD*%
D12*
%TO.C,H4*%
X349950000Y-18600000D03*
%TD*%
D23*
%TO.C,BATT1*%
X357800000Y-20700000D03*
X357800000Y-17700000D03*
%TD*%
D24*
%TO.C,J1*%
X344799700Y-7680100D03*
X355950300Y-7667400D03*
X344799400Y-10694000D03*
X355950300Y-11210700D03*
X355950000Y-11456000D03*
X344800000Y-6460900D03*
X355950300Y-7032400D03*
X344799400Y-10956700D03*
X355950000Y-10694000D03*
X344799700Y-6740300D03*
X344799700Y-11210700D03*
X355950600Y-6448200D03*
X344799400Y-11456000D03*
X355950300Y-6727600D03*
X355950000Y-10956700D03*
X355950300Y-7375300D03*
X344799700Y-7045100D03*
X344799700Y-7388000D03*
%TD*%
M02*
